<svg width="40" height="40" viewBox="0 0 40 40" fill="none" xmlns="http://www.w3.org/2000/svg">
<path d="M34.2117 7.02832L24.1667 1.22832C22.899 0.49936 21.4623 0.115723 20 0.115723C18.5377 0.115723 17.101 0.49936 15.8333 1.22832L5.78834 7.02832C4.52313 7.76151 3.47246 8.81386 2.7413 10.0802C2.01013 11.3466 1.62407 12.7827 1.62167 14.245V25.845C1.62411 27.3075 2.01018 28.7438 2.74132 30.0104C3.47247 31.2771 4.52311 32.3297 5.78834 33.0633L15.8333 38.8617C17.1008 39.5911 18.5376 39.975 20 39.975C21.4624 39.975 22.8992 39.5911 24.1667 38.8617L34.2117 33.0633C35.4769 32.3297 36.5275 31.2771 37.2587 30.0104C37.9898 28.7438 38.3759 27.3075 38.3783 25.845V14.245C38.3759 12.7827 37.9899 11.3466 37.2587 10.0802C36.5276 8.81386 35.4769 7.76151 34.2117 7.02832ZM17.5 4.11666C18.2601 3.67782 19.1223 3.44678 20 3.44678C20.8777 3.44678 21.7399 3.67782 22.5 4.11666L32.545 9.91499C32.7997 10.076 33.0391 10.2601 33.26 10.465L22.9383 16.4233C22.0448 16.9385 21.0314 17.2096 20 17.2096C18.9686 17.2096 17.9553 16.9385 17.0617 16.4233L6.74001 10.465C6.96095 10.2601 7.2003 10.076 7.45501 9.91499L17.5 4.11666ZM7.45501 30.175C6.69535 29.7348 6.0646 29.1029 5.62586 28.3424C5.18713 27.582 4.95579 26.7196 4.95501 25.8417V14.245C4.96658 13.9447 5.0062 13.6462 5.07334 13.3533L15.395 19.3117C16.3066 19.8302 17.3005 20.1882 18.3333 20.37V36.3183C18.0454 36.2302 17.7665 36.1152 17.5 35.975L7.45501 30.175ZM35.045 25.8417C35.0442 26.7196 34.8129 27.582 34.3742 28.3424C33.9354 29.1029 33.3047 29.7348 32.545 30.175L22.5 35.975C22.2336 36.1152 21.9546 36.2302 21.6667 36.3183V20.37C22.6995 20.1882 23.6934 19.8302 24.605 19.3117L34.9267 13.3533C34.9938 13.6462 35.0334 13.9447 35.045 14.245V25.8417Z" fill="#FF1F70"/>
</svg>
