<svg width="40" height="40" viewBox="0 0 40 40" fill="none" xmlns="http://www.w3.org/2000/svg">
<g clip-path="url(#clip0_295_1258)">
<path d="M35 38.3333C35 39.255 34.2533 40 33.3333 40C32.4133 40 31.6666 39.255 31.6666 38.3333C31.6666 34.6567 28.6766 31.6667 25 31.6667H15C11.3233 31.6667 8.33331 34.6567 8.33331 38.3333C8.33331 39.255 7.58665 40 6.66665 40C5.74665 40 4.99998 39.255 4.99998 38.3333C4.99998 32.8183 9.48498 28.3333 15 28.3333H25C30.515 28.3333 35 32.8183 35 38.3333ZM36.6666 12.5V15.8333C36.6666 17.2117 35.545 18.3333 34.1666 18.3333H33.3333C33.3333 22.01 30.3433 25 26.6666 25H13.3333C9.65665 25 6.66665 22.01 6.66665 18.3333H5.83331C4.45498 18.3333 3.33331 17.2117 3.33331 15.8333V12.5C3.33331 11.1217 4.45498 10 5.83331 10H6.66665C6.66665 6.32333 9.65665 3.33333 13.3333 3.33333H18.3333V1.66667C18.3333 0.745 19.08 0 20 0C20.92 0 21.6666 0.745 21.6666 1.66667V3.33333H26.6666C30.3433 3.33333 33.3333 6.32333 33.3333 10H34.1666C35.545 10 36.6666 11.1217 36.6666 12.5ZM30 10C30 8.16167 28.505 6.66667 26.6666 6.66667H13.3333C11.495 6.66667 9.99998 8.16167 9.99998 10V18.3333C9.99998 20.1717 11.495 21.6667 13.3333 21.6667H26.6666C28.505 21.6667 30 20.1717 30 18.3333V10ZM15.8333 11.6667C14.4533 11.6667 13.3333 12.7867 13.3333 14.1667C13.3333 15.5467 14.4533 16.6667 15.8333 16.6667C17.2133 16.6667 18.3333 15.5467 18.3333 14.1667C18.3333 12.7867 17.2133 11.6667 15.8333 11.6667ZM24.1666 11.6667C22.7866 11.6667 21.6666 12.7867 21.6666 14.1667C21.6666 15.5467 22.7866 16.6667 24.1666 16.6667C25.5466 16.6667 26.6666 15.5467 26.6666 14.1667C26.6666 12.7867 25.5466 11.6667 24.1666 11.6667Z" fill="#FF1F70"/>
</g>
<defs>
<clipPath id="clip0_295_1258">
<rect width="40" height="40" fill="white"/>
</clipPath>
</defs>
</svg>
