<svg width="80" height="80" viewBox="0 0 80 80" fill="none" xmlns="http://www.w3.org/2000/svg">
<path d="M80 76.6667C80 78.5067 78.5067 80 76.6667 80H10C4.48667 80 0 75.5133 0 70V3.33333C0 1.49333 1.49333 0 3.33333 0C5.17333 0 6.66667 1.49333 6.66667 3.33333V70C6.66667 71.8367 8.16333 73.3333 10 73.3333H76.6667C78.5067 73.3333 80 74.8267 80 76.6667ZM70 16.6667H56.6667C54.8267 16.6667 53.3333 18.16 53.3333 20C53.3333 21.84 54.8267 23.3333 56.6667 23.3333H68.5433L52.3533 39.0233C51.0967 40.2833 48.9 40.2833 47.6433 39.0233C47.5067 38.89 43.5133 36.0467 43.5133 36.0467C39.72 32.47 33.2567 32.6033 29.64 36.2167L14.3533 50.93C13.0267 52.2067 12.9867 54.3167 14.2633 55.6433C14.92 56.3233 15.79 56.6667 16.6667 56.6667C17.5 56.6667 18.3333 56.3567 18.9767 55.7367L34.31 40.9767C35.5667 39.7167 37.7633 39.7167 39.02 40.9767C39.1567 41.11 43.15 43.9533 43.15 43.9533C46.9467 47.5333 53.4033 47.4067 57.03 43.7733L73.33 27.9733V39.9967C73.33 41.8367 74.8233 43.33 76.6633 43.33C78.5033 43.33 79.9967 41.8367 79.9967 39.9967V26.6633C79.9967 21.15 75.51 16.6633 69.9967 16.6633L70 16.6667Z" fill="#FF1F70"/>
</svg>
