<svg width="50" height="50" viewBox="0 0 50 50" fill="white" xmlns="http://www.w3.org/2000/svg">
  <path d="M47.5757 24.1667C50.0757 21.4395 48.9393 16.8182 45.0757 15.9092C46.8181 12.5001 43.9393 8.10613 39.8484 8.78795C39.6969 6.13643 37.4999 4.16673 34.8484 4.16673C32.0454 0.303096 25.8333 2.27279 25.8333 7.12128V14.3182C25.5302 14.4698 25.303 14.697 24.9999 14.9243C24.7727 14.697 24.4696 14.5455 24.1666 14.3182V7.12128C24.1666 4.77279 22.7272 2.95461 20.4545 2.27279C18.409 1.74249 16.3636 2.42431 15.0757 4.16673C15.0757 4.16673 15.0757 4.16673 14.9999 4.16673C12.2727 4.16673 10.2272 6.21219 9.99992 8.78795C5.98477 8.18188 3.03023 12.4243 4.77265 15.9092C0.909016 16.8182 -0.303105 21.4395 2.27265 24.1667C-7.49826e-05 26.2879 0.302955 30.2273 3.03023 31.9698C1.96962 35.0758 4.16659 38.4092 7.49992 38.5607C7.27265 40.3031 8.03023 42.0455 9.54538 43.1061C10.9848 44.1667 12.7272 44.394 14.3181 43.7122C14.4696 44.6213 14.8484 45.4546 15.5302 46.1364C16.5151 47.197 17.803 47.8031 19.2423 47.8031C21.9696 47.8031 24.2423 45.5304 24.2423 42.8031V34.6213C24.4696 34.7728 24.6211 35.1516 25.0757 35.1516C25.5302 35.1516 25.6817 34.7728 25.909 34.6213V42.8789C25.909 49.3183 35.0757 49.3183 35.8333 43.7879C39.2423 45.1516 43.0302 42.2728 42.5757 38.5607C45.9848 38.4092 48.106 35.0758 47.0454 31.9698C49.6969 30.2273 49.9999 26.3637 47.5757 24.1667ZM22.6514 34.5455C21.5908 33.4092 20.1514 32.7273 18.4848 32.7273C18.0302 32.7273 17.7272 33.0304 17.7272 33.4849C17.7272 33.9395 18.0302 34.2425 18.4848 34.2425C20.7575 34.2425 22.6514 36.1364 22.6514 38.4092V38.4849V42.9546C22.6514 44.8486 21.0605 46.4395 19.1666 46.4395C18.1817 46.4395 17.1969 45.9849 16.5908 45.3031C15.909 44.5455 15.606 43.6364 15.7575 42.7273C15.7575 42.4243 15.6817 42.1213 15.3787 41.9698C15.1514 41.8183 14.7727 41.8183 14.5454 42.0455C13.0302 43.1819 11.3636 42.8031 10.3787 42.0455C9.46962 41.3637 8.71205 40.1516 9.01508 38.6364C11.1363 38.3334 12.7272 36.591 12.7272 34.5455C12.7272 34.091 12.4242 33.7879 11.9696 33.7879C11.5151 33.7879 11.212 34.091 11.212 34.5455C11.212 35.9849 9.92417 37.197 8.33326 37.197H8.2575C5.30296 37.6516 3.2575 34.697 4.54538 32.197C4.62114 32.0455 4.62114 31.8183 4.62114 31.591C4.62114 31.3637 4.46962 31.0607 4.31811 30.9849C2.19689 30.0001 1.74235 27.3486 3.10599 25.6819C3.71205 27.5758 5.53023 28.9395 7.57568 28.9395C8.03023 28.9395 8.33326 28.6364 8.33326 28.1819C8.33326 27.7273 8.03023 27.4243 7.57568 27.4243C5.83326 27.4243 4.39386 26.0607 4.39386 24.3182C4.39386 24.2425 4.39386 24.2425 4.39386 24.1667C4.39386 23.9395 4.24235 23.7122 4.09083 23.6364C1.43932 21.7425 2.49993 17.3486 6.2878 17.3486H6.36356C7.80295 17.4243 8.86356 18.5607 8.86356 20.0001C8.86356 20.4546 9.16659 20.7576 9.62114 20.7576C10.0757 20.7576 10.3787 20.4546 10.3787 20.0001C10.3787 17.8789 8.7878 16.0607 6.66659 15.8334C4.69689 13.2576 7.19689 9.54552 10.4545 10.4546C12.4999 14.4698 17.1211 13.6364 16.4393 12.1213C16.2878 11.7425 15.8333 11.591 15.4545 11.7425C14.1666 12.2728 12.4999 11.3637 11.7423 9.62128C11.4393 7.50007 13.1817 5.53037 15.5302 5.75764C15.8333 5.75764 16.1363 5.60613 16.2878 5.37885C17.1969 3.63643 18.9393 3.48491 20.0757 3.78794C21.2878 4.09098 22.6514 5.15158 22.6514 7.12128V13.6364C17.9545 12.0455 13.106 15.6061 13.106 20.6061C13.106 25.3789 16.9696 26.8183 22.6514 33.1819V34.5455ZM24.9999 33.3334C17.7272 25.4546 14.6211 24.4698 14.6211 20.5304C14.6211 16.2122 19.2423 13.4092 23.106 15.3789C23.6363 15.6819 24.0908 15.9849 24.4696 16.4395C24.7727 16.7425 25.2272 16.7425 25.5302 16.4395C25.909 16.0607 26.4393 15.6819 26.8939 15.3789C32.7272 12.3486 38.3333 19.9243 33.6363 24.5455L24.9999 33.3334ZM45.7575 30.9849C45.606 31.0607 45.4545 31.2122 45.3787 31.4395C45.303 31.6667 45.303 31.8183 45.4545 32.0455C48.106 37.2728 38.7878 38.9395 38.7878 34.394C38.7878 33.9395 38.4848 33.6364 38.0302 33.6364C37.5757 33.6364 37.2727 33.9395 37.2727 34.394C37.2727 36.5152 38.8636 38.1819 40.9848 38.4849C41.5908 41.5152 38.106 43.8637 35.5302 41.894C35.303 41.7425 34.9242 41.6667 34.6969 41.8183C34.4696 41.9698 34.3181 42.2728 34.3181 42.5758C34.5454 44.2425 33.712 45.1516 33.0302 45.6819C30.9848 47.1213 27.3484 46.2879 27.3484 42.8789V38.4092V38.3334C27.3484 36.0607 29.2423 34.1667 31.5151 34.1667C31.9696 34.1667 32.2727 33.8637 32.2727 33.4092C32.2727 32.9546 31.9696 32.6516 31.5151 32.6516C29.8484 32.6516 28.409 33.3334 27.3484 34.4698V33.1061L34.7727 25.6819C40.1514 20.3031 34.6211 11.2122 27.3484 13.6364V7.12128C27.3484 3.63643 31.9696 2.27279 33.7878 5.37885C33.9393 5.60613 34.2423 5.75764 34.5454 5.75764C36.6666 5.53037 38.6363 7.27279 38.3333 9.62128C37.5757 11.3637 35.909 12.2728 34.6211 11.7425C34.2424 11.591 33.7878 11.7425 33.6363 12.1213C33.4848 12.5001 33.6363 12.9546 34.0151 13.1061C36.1363 14.0152 38.4848 12.6516 39.6211 10.4546C42.803 9.46976 45.3787 13.1819 43.409 15.8334C41.3636 16.0607 39.6969 17.8031 39.6969 20.0001C39.6969 20.4546 39.9999 20.7576 40.4545 20.7576C40.909 20.7576 41.212 20.4546 41.212 20.0001C41.212 18.5607 42.3484 17.4243 43.7878 17.3486C47.5757 17.3486 48.6363 21.7425 45.9848 23.6364C45.909 23.7122 45.6817 24.0152 45.6817 24.3182C45.606 26.0607 44.2423 27.4243 42.4999 27.4243C42.0454 27.4243 41.7423 27.7273 41.7423 28.1819C41.7423 28.6364 42.0454 28.9395 42.4999 28.9395C44.6211 28.9395 46.3636 27.5758 46.9696 25.6819C48.3333 27.3486 47.803 30.0001 45.7575 30.9849Z" currentColor="#141C21" />
  <path d="M34.3181 37.5759C32.4999 37.5759 31.0605 39.0153 31.0605 40.8335C31.0605 41.2881 31.3636 41.5911 31.8181 41.5911C32.2727 41.5911 32.5757 41.2881 32.5757 40.8335C32.5757 39.8487 33.3333 39.0911 34.3181 39.0911C34.7727 39.0911 35.0757 38.788 35.0757 38.3335C35.0757 37.879 34.6969 37.5759 34.3181 37.5759Z" currentColor="#141C21" />
  <path d="M40.985 22.4243C39.0153 22.4243 37.3486 24.091 37.3486 26.0607C37.3486 26.5152 37.6517 26.8183 38.1062 26.8183C38.5608 26.8183 38.8638 26.5152 38.8638 26.0607C38.8638 24.9243 39.8486 23.9395 40.985 23.9395C41.4395 23.9395 41.7426 23.6364 41.7426 23.1819C41.7426 22.7273 41.4395 22.4243 40.985 22.4243Z" currentColor="#141C21" />
  <path d="M14.9243 38.3335C14.9243 38.788 15.2273 39.0911 15.6819 39.0911C16.6667 39.0911 17.4243 39.8487 17.4243 40.8335C17.4243 41.2881 17.7273 41.5911 18.1819 41.5911C18.6364 41.5911 18.9395 41.2881 18.9395 40.8335C18.9395 39.0153 17.5001 37.5759 15.6819 37.5759C15.3031 37.5759 14.9243 37.9547 14.9243 38.3335Z" currentColor="#141C21" />
  <path d="M9.0149 22.4243C8.56035 22.4243 8.25732 22.7273 8.25732 23.1819C8.25732 23.6364 8.56035 23.9395 9.0149 23.9395C10.1513 23.9395 11.1361 24.9243 11.1361 26.0607C11.1361 26.5152 11.4391 26.8183 11.8937 26.8183C12.3482 26.8183 12.6513 26.5152 12.6513 26.0607C12.6513 24.0152 10.9846 22.4243 9.0149 22.4243Z" currentColor="#141C21" />
  <path d="M29.697 6.43945C29.2425 6.43945 28.9395 6.74248 28.9395 7.19703C28.9395 7.65157 29.2425 7.9546 29.697 7.9546C30.8334 7.9546 31.8182 8.93945 31.8182 10.0758C31.8182 10.5304 32.1213 10.8334 32.5758 10.8334C33.0304 10.8334 33.3334 10.5304 33.3334 10.0758C33.3334 8.03036 31.6667 6.43945 29.697 6.43945Z" currentColor="#141C21" />
  <path d="M17.0452 8.33351C18.1815 8.33351 19.1664 9.31836 19.1664 10.4547C19.1664 10.9093 19.4694 11.2123 19.924 11.2123C20.3785 11.2123 20.6815 10.9093 20.6815 10.4547C20.6815 8.48503 19.0149 6.81836 17.0452 6.81836C16.5906 6.81836 16.2876 7.12139 16.2876 7.57594C16.2876 8.03048 16.6664 8.33351 17.0452 8.33351Z" currentColor="#141C21" />
</svg>