<svg width="40" height="40" viewBox="0 0 40 40" fill="none" xmlns="http://www.w3.org/2000/svg">
<g clip-path="url(#clip0_295_1250)">
<path d="M31.6667 1.66675H8.33333C6.12401 1.66939 4.00593 2.54822 2.4437 4.11045C0.88147 5.67268 0.00264643 7.79076 0 10.0001L0 23.3334C0.00264643 25.5427 0.88147 27.6608 2.4437 29.2231C4.00593 30.7853 6.12401 31.6641 8.33333 31.6667H18.3333V35.0001H11.6667C11.2246 35.0001 10.8007 35.1757 10.4882 35.4882C10.1756 35.8008 10 36.2247 10 36.6667C10 37.1088 10.1756 37.5327 10.4882 37.8453C10.8007 38.1578 11.2246 38.3334 11.6667 38.3334H28.3333C28.7754 38.3334 29.1993 38.1578 29.5118 37.8453C29.8244 37.5327 30 37.1088 30 36.6667C30 36.2247 29.8244 35.8008 29.5118 35.4882C29.1993 35.1757 28.7754 35.0001 28.3333 35.0001H21.6667V31.6667H31.6667C33.876 31.6641 35.9941 30.7853 37.5563 29.2231C39.1185 27.6608 39.9974 25.5427 40 23.3334V10.0001C39.9974 7.79076 39.1185 5.67268 37.5563 4.11045C35.9941 2.54822 33.876 1.66939 31.6667 1.66675ZM8.33333 5.00008H31.6667C32.9927 5.00008 34.2645 5.52687 35.2022 6.46455C36.1399 7.40223 36.6667 8.674 36.6667 10.0001V21.6667H3.33333V10.0001C3.33333 8.674 3.86012 7.40223 4.7978 6.46455C5.73548 5.52687 7.00725 5.00008 8.33333 5.00008ZM31.6667 28.3334H8.33333C7.3029 28.3291 6.29895 28.0066 5.45883 27.4099C4.61872 26.8133 3.98347 25.9716 3.64 25.0001H36.36C36.0165 25.9716 35.3813 26.8133 34.5412 27.4099C33.701 28.0066 32.6971 28.3291 31.6667 28.3334Z" fill="#FF1F70"/>
</g>
<defs>
<clipPath id="clip0_295_1250">
<rect width="40" height="40" fill="white"/>
</clipPath>
</defs>
</svg>
