<svg width="50" height="50" viewBox="0 0 50 50" xmlns="http://www.w3.org/2000/svg">
  <g clip-path="url(#clip0_1_4410)">
    <path d="M47.0217 0.954388C46.5517 0.281048 46.0394 0.47763 45.0088 0.872454C44.3123 1.13935 43.6157 1.40615 42.9192 1.67304C41.5856 2.18398 40.2522 2.69492 38.9186 3.20585C38.7918 3.25439 38.665 3.30302 38.5382 3.35156C38.1365 3.50556 37.9356 3.95595 38.0895 4.35761C38.2434 4.75947 38.6939 4.96025 39.0955 4.80644L45.0499 2.52509C43.2735 7.07343 39.3072 13.7344 33.0168 19.637C24.2227 27.8888 13.0638 32.5214 0.746584 33.0337C0.316701 33.0517 -0.0171859 33.4145 0.000685209 33.8443C0.0181657 34.2632 0.363185 34.5909 0.77842 34.5909C0.789357 34.5909 0.800295 34.5907 0.81133 34.5902C7.70713 34.3033 14.2283 32.7913 20.1938 30.0961C25.2527 27.8104 29.9256 24.6737 34.0828 20.7728C40.4008 14.8445 44.457 8.13818 46.3674 3.42499L48.4935 8.97412C48.6122 9.28427 48.9076 9.4746 49.221 9.4746C49.3137 9.4746 49.4078 9.458 49.4995 9.42284C49.9012 9.26884 50.1021 8.81845 49.9482 8.41679C49.5133 7.28154 49.0784 6.14638 48.6435 5.01113C48.2259 3.92109 47.8255 2.68622 47.3465 1.56806C47.2365 1.31171 47.1302 1.10986 47.0217 0.954388Z" currentColor="#141C21" />
    <path d="M47.1257 16.7727H40.8941C39.6056 16.7727 38.5573 17.821 38.5573 19.1095V47.9302H36.61V30.4041C36.61 29.1156 35.5617 28.0672 34.2731 28.0672H28.0416C26.753 28.0672 25.7048 29.1156 25.7048 30.4041V47.9301H23.7574V36.2461C23.7574 34.9577 22.7092 33.9093 21.4206 33.9093H15.1891C13.9005 33.9093 12.8522 34.9577 12.8522 36.2461V47.9302H10.9049V38.583C10.9049 37.2945 9.85664 36.2461 8.56807 36.2461H2.33682C1.04824 36.2461 0 37.2945 0 38.583V48.7091C0 49.1393 0.34873 49.488 0.778906 49.488H48.6836C49.1138 49.488 49.4625 49.1393 49.4625 48.7091V19.1095C49.4625 17.821 48.4143 16.7727 47.1257 16.7727ZM40.1153 19.1095C40.1153 18.68 40.4647 18.3306 40.8942 18.3306H47.1258C47.5553 18.3306 47.9047 18.6801 47.9047 19.1095V47.9302H40.1153V19.1095ZM27.2628 30.4041C27.2628 29.9746 27.6122 29.6251 28.0417 29.6251H34.2732C34.7027 29.6251 35.0521 29.9747 35.0521 30.4041V47.9301H27.2628V30.4041ZM14.4103 36.2461C14.4103 35.8166 14.7598 35.4672 15.1893 35.4672H21.4208C21.8503 35.4672 22.1997 35.8167 22.1997 36.2461V47.9302H14.4103V36.2461ZM2.33682 37.8041H8.56836C8.99785 37.8041 9.34727 38.1536 9.34727 38.583V47.9302H1.55791V38.583C1.55791 38.1535 1.90732 37.8041 2.33682 37.8041Z" currentColor="#141C21" />
  </g>
  <defs>
    <clipPath id="clip0_1_4410">
      <rect width="50" height="50" currentColor="white" />
    </clipPath>
  </defs>
</svg>