<svg width="55" height="55" viewBox="0 0 55 55" xmlns="http://www.w3.org/2000/svg">
  <g clip-path="url(#clip0_151_288)">
    <path d="M20.0246 38.2526C21.0517 38.9231 21.7481 39.1135 22.6659 39.1598V39.9242C22.6659 40.3692 23.0267 40.7299 23.4716 40.7299C23.9165 40.7299 24.2773 40.3692 24.2773 39.9242V39.0767C25.9984 38.699 27.0042 37.2646 27.2293 35.9228C27.5234 34.1693 26.6038 32.6447 24.8848 32.0382C24.6691 31.9625 24.4678 31.8895 24.2773 31.8184V28.1442C24.8103 28.2933 25.1246 28.5626 25.1471 28.5823C25.1497 28.5846 25.1541 28.5885 25.1568 28.5908C25.495 28.88 26.0068 28.8431 26.2959 28.5051C26.5852 28.1669 26.5487 27.6611 26.2106 27.3719C26.1001 27.2748 25.3937 26.6881 24.2773 26.4956V25.6821C24.2773 25.2372 23.9165 24.8765 23.4716 24.8765C23.0267 24.8765 22.6659 25.2372 22.6659 25.6821V26.5272C22.5309 26.5551 22.3929 26.5898 22.252 26.6322C21.1188 26.9726 20.2727 27.9408 20.0439 29.1586C19.8356 30.2674 20.1924 31.3362 20.9748 31.9475C21.4021 32.282 21.9334 32.5861 22.6659 32.9071V37.5468C22.002 37.5051 21.6034 37.359 20.9053 36.9033C20.5329 36.6603 20.0336 36.7649 19.7903 37.1377C19.547 37.5101 19.652 38.0093 20.0246 38.2526ZM21.9674 30.6781C21.661 30.4387 21.5308 29.9704 21.6275 29.456C21.7169 28.9799 22.0371 28.4059 22.6659 28.1925V31.1207C22.386 30.9718 22.1565 30.8262 21.9674 30.6781ZM24.35 33.5581C25.7886 34.0657 25.7011 35.2923 25.6401 35.656C25.5252 36.3414 25.0623 37.068 24.2772 37.3903V33.5321C24.3019 33.5409 24.3251 33.5494 24.35 33.5581Z" currentColor="#141C21" />
    <path d="M41.1997 37.0239C38.1664 37.0239 35.6987 39.4861 35.6987 42.5128C35.6987 45.5394 38.1664 48.0016 41.1997 48.0016C44.233 48.0016 46.7007 45.5393 46.7007 42.5128C46.7007 39.4863 44.233 37.0239 41.1997 37.0239ZM41.1997 46.3903C39.0549 46.3903 37.3101 44.6508 37.3101 42.5128C37.3101 40.3747 39.0549 38.6353 41.1997 38.6353C43.3445 38.6353 45.0893 40.3746 45.0893 42.5128C45.0893 44.6509 43.3445 46.3903 41.1997 46.3903Z" currentColor="#141C21" />
    <path d="M51.9829 39.2305H51.5165C51.3321 38.6553 51.0991 38.0959 50.8201 37.5574L51.1498 37.2286C51.8247 36.5552 51.8257 35.4563 51.1494 34.7759L48.9501 32.5855C48.274 31.9111 47.1737 31.9111 46.4962 32.5866L46.1676 32.9157C45.6271 32.6369 45.0655 32.4042 44.4883 32.22V31.7573C44.4883 30.8025 43.7104 30.0256 42.7542 30.0256H41.8733C41.7685 29.4675 41.7234 28.9291 41.7371 28.394C41.8771 22.9568 39.0759 18.3208 34.0133 15.5277C34.2408 15.139 34.3719 14.6875 34.3719 14.2057V13.1336C34.3719 11.6835 33.19 10.5038 31.7374 10.5038H31.3284C32.1151 9.84833 32.8356 9.05309 33.4379 8.15697C34.6646 6.33177 35.2182 4.40978 34.9564 2.88385C34.6418 1.05102 33.2064 0 31.0175 0H15.461C13.2727 0 11.8376 1.05069 11.5233 2.88256C11.2615 4.40849 11.8153 6.33069 13.0427 8.15633C13.6458 9.05319 14.3672 9.84908 15.1546 10.5049C13.7239 10.5306 12.5678 11.6994 12.5678 13.1335V14.2056C12.5678 14.6874 12.6989 15.1389 12.9264 15.5276C7.86383 18.3207 5.06259 22.9567 5.20267 28.3939C5.25778 30.5293 4.36639 32.3833 3.42258 34.3461C2.72112 35.8051 1.9957 37.3137 1.62241 39.0185C0.8523 42.5371 1.41132 45.9038 3.11794 48.0243C4.37069 49.581 6.18891 50.4037 8.37591 50.4037H31.4072L33.4488 52.4401C34.125 53.1146 35.2253 53.1144 35.9028 52.439L36.2314 52.1098C36.7719 52.3887 37.3335 52.6213 37.9106 52.8055V53.2681C37.9106 54.223 38.6885 54.9999 39.6447 54.9999H42.7541C43.7103 54.9999 44.4882 54.2231 44.4882 53.2681V52.8055C45.0653 52.6213 45.6269 52.3887 46.1675 52.1098L46.4972 52.4401C47.1735 53.1145 48.2738 53.1145 48.9499 52.4401L51.1496 50.2462C51.477 49.9196 51.6574 49.4841 51.6574 49.02C51.6574 48.556 51.4771 48.1205 51.1485 47.7927L50.8205 47.467C51.0993 46.9289 51.3321 46.3697 51.5164 45.7951H51.9827C52.9389 45.7951 53.7169 45.0183 53.7169 44.0634V40.9621C53.717 40.0072 52.939 39.2305 51.9829 39.2305ZM13.1115 3.15498C13.1769 2.7732 13.3763 1.61133 15.461 1.61133H31.0175C33.1031 1.61133 33.3025 2.77396 33.368 3.15605C33.7538 5.40515 31.3463 9.32454 28.2388 10.5037H27.7171C28.1608 9.58869 28.4731 8.4527 28.6894 6.99628C28.7547 6.55617 28.4509 6.14636 28.0108 6.08105C27.5698 6.01541 27.1609 6.31952 27.0956 6.75963C26.8375 8.49771 26.4488 9.67313 25.8523 10.5037H24.277V6.8779C24.277 6.43296 23.9163 6.07224 23.4714 6.07224C23.0264 6.07224 22.6657 6.43296 22.6657 6.8779V10.5037H21.0874C20.4908 9.67313 20.1021 8.49771 19.8441 6.75963C19.7787 6.31952 19.3688 6.01552 18.9288 6.08105C18.4887 6.14636 18.1849 6.55617 18.2502 6.99628C18.4665 8.4527 18.7789 9.58869 19.2225 10.5037H18.2428C15.1343 9.32411 12.7256 5.40418 13.1115 3.15498ZM4.37337 47.0141C2.99053 45.296 2.53968 42.3643 3.19657 39.3631C3.52958 37.8424 4.21342 36.42 4.87482 35.0445C5.85999 32.9956 6.87867 30.8769 6.81346 28.3525C6.68488 23.3591 9.38826 19.1156 14.2435 16.6545C14.5409 16.7709 14.8641 16.8356 15.2024 16.8356H21.7078C22.1528 16.8356 22.5135 16.4749 22.5135 16.0299C22.5135 15.585 22.1528 15.2243 21.7078 15.2243H15.2024C14.6382 15.2243 14.1792 14.7674 14.1792 14.2058V13.1337C14.1792 12.5721 14.6382 12.1153 15.2024 12.1153H31.7372C32.3013 12.1153 32.7604 12.5721 32.7604 13.1337V14.2058C32.7604 14.7674 32.3013 15.2243 31.7372 15.2243H25.132C24.6871 15.2243 24.3263 15.585 24.3263 16.0299C24.3263 16.4749 24.6871 16.8356 25.132 16.8356H31.7372C32.0754 16.8356 32.3987 16.7709 32.696 16.6545C37.5513 19.1157 40.2547 23.3592 40.1261 28.3529C40.112 28.9068 40.1489 29.4602 40.2379 30.0258H39.6447C38.6885 30.0258 37.9106 30.8027 37.9106 31.7576V32.2202C37.3334 32.4045 36.7718 32.637 36.2314 32.9159L35.9016 32.5857C35.7397 32.4242 35.5531 32.3025 35.3542 32.2183C35.0481 25.9439 29.8354 20.9331 23.4713 20.9331C21.0674 20.9331 18.7518 21.6431 16.7747 22.9867C16.4067 23.2367 16.3111 23.7378 16.5611 24.1058C16.8112 24.4737 17.3122 24.5695 17.6803 24.3193C19.3891 23.1581 21.3917 22.5444 23.4713 22.5444C28.9908 22.5444 33.5081 26.9023 33.7467 32.3489C33.6413 32.4156 33.5411 32.4937 33.4491 32.5854L31.2467 34.779C30.573 35.4566 30.5741 36.5556 31.249 37.2289L31.5787 37.5577C31.2996 38.0962 31.0667 38.6557 30.8823 39.2308H30.416C29.4598 39.2308 28.6819 40.0076 28.6819 40.9625V41.6492C27.1072 42.5745 25.3152 43.0625 23.4713 43.0625C17.7978 43.0625 13.1821 38.4597 13.1821 32.802C13.1821 30.5258 13.9131 28.3711 15.2959 26.5711C15.5671 26.2182 15.5008 25.7125 15.1479 25.4414C14.7951 25.1703 14.2893 25.2365 14.0181 25.5894C12.417 27.6735 11.5706 30.1676 11.5706 32.802C11.5706 39.3482 16.9092 44.6739 23.4712 44.6739C25.291 44.6739 27.0673 44.2616 28.6818 43.4754V44.0639C28.6818 45.0188 29.4597 45.7957 30.4159 45.7957H30.8822C31.0665 46.3703 31.2993 46.9294 31.5781 47.4676L31.249 47.7945C30.9759 48.0669 30.8069 48.4156 30.7578 48.7929H8.37602C6.66973 48.7925 5.32298 48.1943 4.37337 47.0141ZM52.1056 44.0635C52.1056 44.1276 52.0483 44.1839 51.9829 44.1839H50.911C50.5434 44.1839 50.2223 44.4327 50.1308 44.7888C49.9137 45.6322 49.5763 46.4427 49.1278 47.1979C48.9393 47.5156 48.9907 47.9207 49.2527 48.181L50.0118 48.935C50.0401 48.9633 50.046 48.9969 50.046 49.0203C50.046 49.0435 50.0401 49.0772 50.0118 49.1054L47.8121 51.2994C47.765 51.3465 47.6823 51.3464 47.6364 51.3006L46.8792 50.5423C46.6193 50.2819 46.2161 50.2307 45.8992 50.4178C45.1416 50.8654 44.3286 51.2021 43.4828 51.4187C43.1262 51.51 42.8769 51.8312 42.8769 52.1992V53.2683C42.8769 53.3324 42.8196 53.3887 42.7541 53.3887H39.6447C39.5793 53.3887 39.5219 53.3325 39.5219 53.2683V52.1992C39.5219 51.8312 39.2726 51.51 38.9161 51.4187C38.0702 51.2021 37.2573 50.8654 36.4996 50.4178C36.3721 50.3425 36.2306 50.3059 36.0901 50.3059C35.8815 50.3059 35.675 50.3868 35.5197 50.5423L34.7639 51.2993C34.7167 51.3464 34.634 51.3464 34.587 51.2993L32.3873 49.1053C32.3589 49.077 32.353 49.0434 32.353 49.0201C32.353 48.9968 32.3589 48.9632 32.3862 48.936L33.1464 48.1809C33.4084 47.9206 33.4599 47.5155 33.2714 47.1978C32.8229 46.4426 32.4855 45.6321 32.2684 44.7887C32.1767 44.4327 31.8558 44.1838 31.4882 44.1838H30.4163C30.3509 44.1838 30.2935 44.1275 30.2935 44.0634V40.9621C30.2935 40.898 30.3509 40.8417 30.4163 40.8417H31.4882C31.8558 40.8417 32.1768 40.5929 32.2684 40.2368C32.4855 39.3933 32.8229 38.5828 33.2714 37.8276C33.4596 37.5106 33.4086 37.1062 33.1476 36.8458L32.3874 36.0875C32.3404 36.0407 32.3415 35.9631 32.387 35.9174L34.5871 33.7261C34.6341 33.679 34.7168 33.6791 34.7628 33.7249L35.5199 34.4832C35.7799 34.7436 36.1832 34.7946 36.4998 34.6076C37.2574 34.16 38.0703 33.8233 38.9163 33.6067C39.2728 33.5154 39.5221 33.1942 39.5221 32.8262V31.7571C39.5221 31.693 39.5795 31.6367 39.6449 31.6367H42.7543C42.8198 31.6367 42.8771 31.693 42.8771 31.7571V32.8262C42.8771 33.1942 43.1265 33.5154 43.483 33.6067C44.3289 33.8233 45.1419 34.16 45.8994 34.6076C46.2162 34.7947 46.6196 34.7436 46.8793 34.4832L47.6353 33.7261C47.6823 33.6791 47.765 33.679 47.8126 33.7265L50.0095 35.9146C50.0577 35.9631 50.0588 36.0407 50.0119 36.0875L49.2517 36.8458C48.9906 37.1062 48.9396 37.5105 49.1279 37.8276C49.5764 38.5828 49.9138 39.3933 50.1309 40.2368C50.2225 40.5928 50.5435 40.8417 50.9111 40.8417H51.983C52.0484 40.8417 52.1057 40.8979 52.1057 40.9621V44.0635H52.1056Z" currentColor="#141C21" />
  </g>
  <defs>
    <clipPath id="clip0_151_288">
      <rect width="55" height="55" currentColor="" />
    </clipPath>
  </defs>
</svg>