<svg width="80" height="80" viewBox="0 0 80 80" fill="none" xmlns="http://www.w3.org/2000/svg">
<g clip-path="url(#clip0_408_42)">
<path d="M73.3333 48.4567V43.3333C73.3333 35.98 67.3533 30 60 30C52.6467 30 46.6667 35.98 46.6667 43.3333V48.4567C42.6833 50.7667 40 55.0767 40 60V66.6667C40 74.02 45.98 80 53.3333 80H66.6667C74.02 80 80 74.02 80 66.6667V60C80 55.0767 77.3167 50.7667 73.3333 48.4567ZM53.3333 43.3333C53.3333 39.6567 56.3233 36.6667 60 36.6667C63.6767 36.6667 66.6667 39.6567 66.6667 43.3333V46.6667H53.3333V43.3333ZM73.3333 66.6667C73.3333 70.3433 70.3433 73.3333 66.6667 73.3333H53.3333C49.6567 73.3333 46.6667 70.3433 46.6667 66.6667V60C46.6667 56.3233 49.6567 53.3333 53.3333 53.3333H66.6667C70.3433 53.3333 73.3333 56.3233 73.3333 60V66.6667ZM65 63.3333C65 66.0933 62.76 68.3333 60 68.3333C57.24 68.3333 55 66.0933 55 63.3333C55 60.5733 57.24 58.3333 60 58.3333C62.76 58.3333 65 60.5733 65 63.3333ZM26.6667 40C37.6967 40 46.6667 31.03 46.6667 20C46.6667 8.97 37.6967 0 26.6667 0C15.6367 0 6.66667 8.97 6.66667 20C6.66667 31.03 15.6367 40 26.6667 40ZM26.6667 6.66667C34.02 6.66667 40 12.6467 40 20C40 27.3533 34.02 33.3333 26.6667 33.3333C19.3133 33.3333 13.3333 27.3533 13.3333 20C13.3333 12.6467 19.3133 6.66667 26.6667 6.66667ZM33.3 50.7033C33.04 52.5267 31.3567 53.8 29.53 53.5367C28.5833 53.4 27.6167 53.3333 26.6667 53.3333C15.6367 53.3333 6.66667 62.3033 6.66667 73.3333V76.6667C6.66667 78.5067 5.17333 80 3.33333 80C1.49333 80 0 78.5067 0 76.6667V73.3333C0 58.63 11.9633 46.6667 26.6667 46.6667C27.93 46.6667 29.21 46.7567 30.47 46.9367C32.2933 47.1967 33.56 48.8833 33.3033 50.7067L33.3 50.7033Z" fill="#FF1F70"/>
</g>
<defs>
<clipPath id="clip0_408_42">
<rect width="80" height="80" fill="white"/>
</clipPath>
</defs>
</svg>
