<svg width="40" height="40" viewBox="0 0 40 40" fill="none" xmlns="http://www.w3.org/2000/svg">
<g clip-path="url(#clip0_295_1254)">
<path d="M11.6667 0H6.66667C4.89856 0 3.20286 0.702379 1.95262 1.95262C0.702379 3.20286 0 4.89856 0 6.66667L0 11.6667C0 13.4348 0.702379 15.1305 1.95262 16.3807C3.20286 17.631 4.89856 18.3333 6.66667 18.3333H11.6667C13.4348 18.3333 15.1305 17.631 16.3807 16.3807C17.631 15.1305 18.3333 13.4348 18.3333 11.6667V6.66667C18.3333 4.89856 17.631 3.20286 16.3807 1.95262C15.1305 0.702379 13.4348 0 11.6667 0ZM15 11.6667C15 12.5507 14.6488 13.3986 14.0237 14.0237C13.3986 14.6488 12.5507 15 11.6667 15H6.66667C5.78261 15 4.93477 14.6488 4.30964 14.0237C3.68452 13.3986 3.33333 12.5507 3.33333 11.6667V6.66667C3.33333 5.78261 3.68452 4.93477 4.30964 4.30964C4.93477 3.68452 5.78261 3.33333 6.66667 3.33333H11.6667C12.5507 3.33333 13.3986 3.68452 14.0237 4.30964C14.6488 4.93477 15 5.78261 15 6.66667V11.6667Z" fill="#FF1F70"/>
<path d="M11.6667 21.6667H6.66667C4.89856 21.6667 3.20286 22.3691 1.95262 23.6194C0.702379 24.8696 0 26.5653 0 28.3334L0 33.3334C0 35.1015 0.702379 36.7972 1.95262 38.0475C3.20286 39.2977 4.89856 40.0001 6.66667 40.0001H11.6667C13.4348 40.0001 15.1305 39.2977 16.3807 38.0475C17.631 36.7972 18.3333 35.1015 18.3333 33.3334V28.3334C18.3333 26.5653 17.631 24.8696 16.3807 23.6194C15.1305 22.3691 13.4348 21.6667 11.6667 21.6667ZM15 33.3334C15 34.2175 14.6488 35.0653 14.0237 35.6904C13.3986 36.3156 12.5507 36.6667 11.6667 36.6667H6.66667C5.78261 36.6667 4.93477 36.3156 4.30964 35.6904C3.68452 35.0653 3.33333 34.2175 3.33333 33.3334V28.3334C3.33333 27.4494 3.68452 26.6015 4.30964 25.9764C4.93477 25.3513 5.78261 25.0001 6.66667 25.0001H11.6667C12.5507 25.0001 13.3986 25.3513 14.0237 25.9764C14.6488 26.6015 15 27.4494 15 28.3334V33.3334Z" fill="#FF1F70"/>
<path d="M37.155 31.7483L33.3333 35.5649V4.38828L37.155 8.20495C37.3099 8.35969 37.4937 8.48241 37.696 8.56612C37.8982 8.64982 38.115 8.69286 38.3339 8.69278C38.5528 8.69271 38.7696 8.64951 38.9718 8.56567C39.174 8.48182 39.3578 8.35896 39.5125 8.20411C39.6673 8.04926 39.79 7.86545 39.8737 7.66317C39.9574 7.46089 40.0004 7.2441 40.0003 7.02519C40.0003 6.80628 39.9571 6.58952 39.8732 6.3873C39.7894 6.18508 39.6665 6.00135 39.5117 5.84661L35.2 1.54161C34.2625 0.605276 32.9917 0.0793457 31.6667 0.0793457C30.3417 0.0793457 29.0708 0.605276 28.1333 1.54161L23.8217 5.84661C23.6668 6.00135 23.544 6.18508 23.4601 6.3873C23.3763 6.58952 23.3331 6.80628 23.333 7.02519C23.3329 7.2441 23.376 7.46089 23.4597 7.66317C23.5434 7.86545 23.6661 8.04926 23.8208 8.20411C23.9756 8.35896 24.1593 8.48182 24.3615 8.56567C24.5638 8.64951 24.7805 8.69271 24.9994 8.69278C25.2183 8.69286 25.4351 8.64982 25.6374 8.56612C25.8397 8.48241 26.0235 8.35969 26.1783 8.20495L30 4.38828V35.5649L26.1783 31.7483C26.0235 31.5935 25.8397 31.4708 25.6374 31.3871C25.4351 31.3034 25.2183 31.2604 24.9994 31.2604C24.7805 31.2605 24.5638 31.3037 24.3615 31.3876C24.1593 31.4714 23.9756 31.5943 23.8208 31.7491C23.6661 31.904 23.5434 32.0878 23.4597 32.2901C23.376 32.4923 23.3329 32.7091 23.333 32.928C23.3331 33.1469 23.3763 33.3637 23.4601 33.5659C23.544 33.7681 23.6668 33.9519 23.8217 34.1066L28.1333 38.4116C29.0708 39.348 30.3417 39.8739 31.6667 39.8739C32.9917 39.8739 34.2625 39.348 35.2 38.4116L39.5117 34.1066C39.6665 33.9519 39.7894 33.7681 39.8732 33.5659C39.9571 33.3637 40.0003 33.1469 40.0003 32.928C40.0004 32.7091 39.9574 32.4923 39.8737 32.2901C39.79 32.0878 39.6673 31.904 39.5125 31.7491C39.3578 31.5943 39.174 31.4714 38.9718 31.3876C38.7696 31.3037 38.5528 31.2605 38.3339 31.2604C38.115 31.2604 37.8982 31.3034 37.696 31.3871C37.4937 31.4708 37.3099 31.5935 37.155 31.7483Z" fill="#FF1F70"/>
</g>
<defs>
<clipPath id="clip0_295_1254">
<rect width="40" height="40" fill="white"/>
</clipPath>
</defs>
</svg>
