<svg width="62" height="62" viewBox="0 0 62 62" fill="white" xmlns="http://www.w3.org/2000/svg">
<path d="M53.2812 3.875H8.71875C7.43411 3.875 6.20208 4.38532 5.2937 5.2937C4.38532 6.20208 3.875 7.43411 3.875 8.71875V16.4688C3.875 17.7534 4.38532 18.9854 5.2937 19.8938C6.20208 20.8022 7.43411 21.3125 8.71875 21.3125V29.0625C8.71875 30.3471 9.22907 31.5792 10.1375 32.4875C11.0458 33.3959 12.2779 33.9062 13.5625 33.9062H15.5V42.625C15.4956 43.9278 15.8222 45.2104 16.4491 46.3525C17.0761 47.4946 17.9828 48.4587 19.0844 49.1544C17.0016 50.6269 17.4375 52.6516 17.4375 56.1875C17.4375 57.2152 17.8458 58.2008 18.5725 58.9275C19.2992 59.6542 20.2848 60.0625 21.3125 60.0625H39.7188C40.7465 60.0625 41.7321 59.6542 42.4588 58.9275C43.1855 58.2008 43.5938 57.2152 43.5938 56.1875C43.5938 52.7872 44.0297 50.6269 41.9469 49.1544C43.0446 48.4547 43.9485 47.4897 44.5749 46.3485C45.2014 45.2074 45.5303 43.9268 45.5312 42.625V33.9062H48.4375C49.7221 33.9062 50.9542 33.3959 51.8625 32.4875C52.7709 31.5792 53.2812 30.3471 53.2812 29.0625V21.3125C54.5659 21.3125 55.7979 20.8022 56.7063 19.8938C57.6147 18.9854 58.125 17.7534 58.125 16.4688V8.71875C58.125 7.43411 57.6147 6.20208 56.7063 5.2937C55.7979 4.38532 54.5659 3.875 53.2812 3.875ZM10.6562 29.0625V13.5625H15.7228C15.4509 13.8665 15.118 14.1099 14.7458 14.2768C14.3736 14.4437 13.9704 14.5304 13.5625 14.5312C13.3056 14.5312 13.0592 14.6333 12.8775 14.815C12.6958 14.9967 12.5938 15.2431 12.5938 15.5V25.1875C12.5938 25.4444 12.6958 25.6908 12.8775 25.8725C13.0592 26.0542 13.3056 26.1562 13.5625 26.1562C14.3333 26.1563 15.0725 26.4624 15.6175 27.0075C16.1626 27.5525 16.4688 28.2917 16.4688 29.0625C16.4688 29.3194 16.5708 29.5658 16.7525 29.7475C16.9342 29.9292 17.1806 30.0312 17.4375 30.0312H35.8438V31.9688H13.5625C12.7917 31.9688 12.0525 31.6626 11.5075 31.1175C10.9624 30.5725 10.6562 29.8333 10.6562 29.0625ZM34.875 18.8906C34.875 21.7969 33.1409 24.2188 31 24.2188C28.8591 24.2188 27.125 21.8259 27.125 18.8906C27.125 15.9553 28.8591 13.5625 31 13.5625C33.1409 13.5625 34.875 15.9553 34.875 18.8906ZM31 26.1562C36.2797 26.1562 38.8178 18.0478 34.9428 13.5625H44.0006C44.3111 14.2746 44.7882 14.9015 45.3918 15.3904C45.9954 15.8794 46.7078 16.216 47.4688 16.3719V24.3156C47.0526 24.4088 46.6493 24.5519 46.2675 24.7419C44.8531 25.4491 46.0447 25.5072 45.0856 23.3372C44.6304 22.3468 43.8545 21.5388 42.8833 21.044C41.9121 20.5492 40.8023 20.3964 39.7335 20.6104C38.6647 20.8244 37.6994 21.3926 36.9935 22.2232C36.2876 23.0538 35.8825 24.0982 35.8438 25.1875V28.0938H18.3094C18.1195 27.1629 17.6601 26.3084 16.9884 25.6366C16.3166 24.9649 15.4621 24.5055 14.5312 24.3156V16.3719C15.2922 16.216 16.0046 15.8794 16.6082 15.3904C17.2118 14.9015 17.6889 14.2746 17.9994 13.5625H27.0572C23.25 18.0187 25.7009 26.1562 31 26.1562ZM39.7188 50.375C40.2326 50.375 40.7254 50.5791 41.0888 50.9425C41.4521 51.3058 41.6562 51.7986 41.6562 52.3125V56.1875C41.6562 56.7014 41.4521 57.1942 41.0888 57.5575C40.7254 57.9209 40.2326 58.125 39.7188 58.125H21.3125C20.7986 58.125 20.3058 57.9209 19.9425 57.5575C19.5791 57.1942 19.375 56.7014 19.375 56.1875V52.3125C19.375 51.7986 19.5791 51.3058 19.9425 50.9425C20.3058 50.5791 20.7986 50.375 21.3125 50.375H39.7188ZM43.5938 42.625C43.5937 44.1666 42.9814 45.645 41.8913 46.7351C40.8013 47.8251 39.3228 48.4375 37.7812 48.4375H23.25C21.7084 48.4375 20.23 47.8251 19.1399 46.7351C18.0499 45.645 17.4375 44.1666 17.4375 42.625V33.9062H30.6997C29.2944 34.8844 28.1471 36.1885 27.3558 37.7069C26.5645 39.2253 26.153 40.9128 26.1562 42.625C26.1563 42.8819 26.2583 43.1283 26.44 43.31C26.6217 43.4917 26.8681 43.5938 27.125 43.5938C27.3819 43.5938 27.6283 43.4917 27.81 43.31C27.9917 43.1283 28.0938 42.8819 28.0938 42.625C28.0938 40.3126 29.0123 38.095 30.6474 36.4599C32.2825 34.8248 34.5001 33.9062 36.8125 33.9062C37.0694 33.9063 37.3158 33.8042 37.4975 33.6225C37.6792 33.4408 37.7812 33.1944 37.7812 32.9375C37.7812 25.0131 37.4809 24.3059 38.6241 23.1337C38.8802 22.8625 39.1881 22.6453 39.5296 22.4951C39.8711 22.3449 40.2392 22.2648 40.6122 22.2594C40.9853 22.2539 41.3556 22.3234 41.7013 22.4636C42.047 22.6038 42.3611 22.8119 42.625 23.0756C43.8941 24.3156 43.5938 23.8022 43.5938 42.625ZM51.3438 29.0625C51.3437 29.8333 51.0376 30.5725 50.4925 31.1175C49.9475 31.6626 49.2083 31.9688 48.4375 31.9688H45.5312V29.0625C45.5312 28.2917 45.8374 27.5525 46.3825 27.0075C46.9275 26.4624 47.6667 26.1563 48.4375 26.1562C48.6944 26.1562 48.9408 26.0542 49.1225 25.8725C49.3042 25.6908 49.4062 25.4444 49.4062 25.1875V15.5C49.4062 15.2431 49.3042 14.9967 49.1225 14.815C48.9408 14.6333 48.6944 14.5312 48.4375 14.5312C48.0321 14.5238 47.6324 14.4342 47.2627 14.2676C46.8931 14.1011 46.5611 13.8612 46.2869 13.5625C46.1997 13.4656 46.2869 13.5625 51.3438 13.5625V29.0625ZM56.1875 16.4688C56.1875 17.2395 55.8813 17.9788 55.3363 18.5238C54.7913 19.0688 54.052 19.375 53.2812 19.375V13.5625C53.5382 13.5625 53.7846 13.4604 53.9663 13.2788C54.1479 13.0971 54.25 12.8507 54.25 12.5938C54.25 12.3368 54.1479 12.0904 53.9663 11.9087C53.7846 11.7271 53.5382 11.625 53.2812 11.625H8.71875C8.46182 11.625 8.21542 11.7271 8.03374 11.9087C7.85206 12.0904 7.75 12.3368 7.75 12.5938C7.75 12.8507 7.85206 13.0971 8.03374 13.2788C8.21542 13.4604 8.46182 13.5625 8.71875 13.5625V19.375C7.94796 19.375 7.20875 19.0688 6.66372 18.5238C6.11869 17.9788 5.8125 17.2395 5.8125 16.4688V8.71875C5.8125 7.94796 6.11869 7.20875 6.66372 6.66372C7.20875 6.11869 7.94796 5.8125 8.71875 5.8125H53.2812C54.052 5.8125 54.7913 6.11869 55.3363 6.66372C55.8813 7.20875 56.1875 7.94796 56.1875 8.71875V16.4688Z"/>
</svg>
