<svg width="55" height="55" viewBox="0 0 55 55" xmlns="http://www.w3.org/2000/svg">
  <g clip-path="url(#clip0_1_4306)">
    <path d="M49.1316 10.5205H50.831C51.4238 10.5205 51.9045 10.0398 51.9045 9.44703C51.9045 8.85424 51.4238 8.37352 50.831 8.37352H46.7517C46.1589 8.37352 45.6781 8.85424 45.6781 9.44703V13.5264C45.6781 14.1192 46.1589 14.5999 46.7517 14.5999C47.3444 14.5999 47.8252 14.1192 47.8252 13.5264V12.3452C51.0824 16.7059 52.853 21.997 52.853 27.5C52.853 41.4797 41.4797 52.853 27.5 52.853C13.5203 52.853 2.14703 41.4797 2.14703 27.5C2.14703 13.5203 13.5203 2.14703 27.5 2.14703C28.5339 2.14703 29.5745 2.20983 30.593 2.33361C31.1808 2.40467 31.7168 1.98611 31.7883 1.3975C31.8599 0.809 31.4408 0.273746 30.8522 0.20225C29.7479 0.0680608 28.6202 0 27.5 0C20.1545 0 13.2486 2.86049 8.05458 8.05458C2.86049 13.2486 0 20.1545 0 27.5C0 34.8455 2.86049 41.7514 8.05458 46.9454C13.2486 52.1395 20.1545 55 27.5 55C34.8455 55 41.7514 52.1395 46.9454 46.9454C52.1395 41.7514 55 34.8455 55 27.5C55 21.3014 52.9292 15.3507 49.1316 10.5205Z" currentColor="#141C21" />
    <path d="M11.6447 16.2114C11.1437 15.8943 10.4806 16.0435 10.1633 16.5442C7.71262 20.4149 6.62772 25.0698 7.10855 29.6517C7.59646 34.3015 9.68928 38.6864 13.0015 41.9987C16.9987 45.9959 22.2494 47.9946 27.5002 47.9946C32.7509 47.9946 38.0015 45.9961 41.9988 41.9987C49.9934 34.0042 49.9934 20.996 41.9988 13.0015C38.6917 9.69442 34.314 7.60236 29.6719 7.11069C25.0985 6.626 20.4486 7.70241 16.5795 10.1411C16.0779 10.4573 15.9277 11.1202 16.2437 11.6217C16.5599 12.1234 17.2228 12.2735 17.7243 11.9575C25.0176 7.36071 34.3751 8.41415 40.4806 14.5197C47.638 21.6771 47.638 33.323 40.4806 40.4804C33.3232 47.638 21.6771 47.638 14.5198 40.4804C8.49864 34.4593 7.42942 24.8757 11.9775 17.6929C12.2945 17.1918 12.1456 16.5286 11.6447 16.2114Z" currentColor="#141C21" />
    <path d="M41.4558 28.5909H42.7797C43.3725 28.5909 43.8532 28.1102 43.8532 27.5174C43.8532 26.9246 43.3725 26.4438 42.7797 26.4438H41.4558C40.863 26.4438 40.3823 26.9246 40.3823 27.5174C40.3823 28.1102 40.8629 28.5909 41.4558 28.5909Z" currentColor="#141C21" />
    <path d="M11.147 27.4827C11.147 28.0755 11.6277 28.5562 12.2205 28.5562H13.5443C14.1371 28.5562 14.6179 28.0755 14.6179 27.4827C14.6179 26.8899 14.1371 26.4092 13.5443 26.4092H12.2205C11.6277 26.4092 11.147 26.8898 11.147 27.4827Z" currentColor="#141C21" />
    <path d="M28.5909 13.5441V12.2202C28.5909 11.6274 28.1102 11.1467 27.5174 11.1467C26.9246 11.1467 26.4438 11.6274 26.4438 12.2202V13.5441C26.4438 14.1369 26.9246 14.6176 27.5174 14.6176C28.1102 14.6176 28.5909 14.1369 28.5909 13.5441Z" currentColor="#141C21" />
    <path d="M26.4092 41.4558V42.7797C26.4092 43.3725 26.8899 43.8532 27.4827 43.8532C28.0755 43.8532 28.5562 43.3725 28.5562 42.7797V41.4558C28.5562 40.863 28.0755 40.3823 27.4827 40.3823C26.8899 40.3823 26.4092 40.8629 26.4092 41.4558Z" currentColor="#141C21" />
    <path d="M22.1193 20.6008C21.7 20.1817 21.0204 20.1817 20.601 20.6008C20.1818 21.02 20.1818 21.6998 20.601 22.1191L24.2393 25.7573C23.9605 26.2769 23.8019 26.8703 23.8019 27.5C23.8019 29.5392 25.4609 31.1982 27.5002 31.1982C29.5394 31.1982 31.1984 29.5392 31.1984 27.5C31.1984 26.8703 31.0398 26.2769 30.7611 25.7573L38.1021 18.4163C38.5213 17.9971 38.5213 17.3174 38.1021 16.8981C37.6828 16.479 37.0033 16.479 36.5838 16.8981L29.2428 24.2391C28.7232 23.9603 28.1299 23.8017 27.5002 23.8017C26.8705 23.8017 26.2771 23.9604 25.7575 24.2391L22.1193 20.6008ZM29.0514 27.5C29.0514 28.3554 28.3556 29.0512 27.5002 29.0512C26.6448 29.0512 25.949 28.3554 25.949 27.5C25.949 26.6446 26.6448 25.9488 27.5002 25.9488C28.3556 25.9488 29.0514 26.6446 29.0514 27.5Z" currentColor="#141C21" />
    <path d="M14.519 14.519C14.7198 14.3193 14.8345 14.0424 14.8345 13.76C14.8345 13.4777 14.7198 13.2018 14.519 13.0011C14.3193 12.8015 14.0433 12.6865 13.76 12.6865C13.4777 12.6865 13.2007 12.8014 13.0011 13.0011C12.8015 13.2007 12.6865 13.4777 12.6865 13.76C12.6865 14.0434 12.8014 14.3193 13.0011 14.519C13.2007 14.7186 13.4777 14.8336 13.76 14.8336C14.0433 14.8336 14.3193 14.7186 14.519 14.519Z" currentColor="#141C21" />
    <path d="M34.9363 3.20733C35.2198 3.20733 35.4968 3.09343 35.6964 2.89279C35.896 2.69312 36.011 2.41712 36.011 2.13382C36.011 1.85148 35.8961 1.57452 35.6964 1.37484C35.4968 1.17528 35.2198 1.0603 34.9363 1.0603C34.654 1.0603 34.377 1.17517 34.1774 1.37484C33.9778 1.57452 33.8628 1.85148 33.8628 2.13382C33.8628 2.41722 33.9777 2.69312 34.1774 2.89279C34.377 3.09343 34.654 3.20733 34.9363 3.20733Z" currentColor="#141C21" />
  </g>
  <defs>
    <clipPath id="clip0_1_4306">
      <rect width="55" height="55" currentColor="white" />
    </clipPath>
  </defs>
</svg>