<svg width="60" height="60" viewBox="0 0 60 60" fill="white" xmlns="http://www.w3.org/2000/svg">
<path d="M31.7049 44.8171H8.43723C7.6916 44.8162 6.97674 44.4999 6.44951 43.9375C5.92227 43.3751 5.6257 42.6126 5.62489 41.8173V22.4947H48.8783V26.9783C48.8821 27.2408 48.9826 27.4912 49.158 27.6754C49.3334 27.8596 49.5697 27.9628 49.8158 27.9628C50.0619 27.9628 50.2982 27.8596 50.4736 27.6753C50.649 27.4911 50.7494 27.2407 50.7532 26.9782V15.4389C50.7518 14.1134 50.2574 12.8426 49.3787 11.9053C48.5 10.968 47.3086 10.4408 46.0659 10.4392H8.43723C7.19455 10.4408 6.00318 10.968 5.12447 11.9053C4.24576 12.8426 3.75146 14.1134 3.75 15.4389V41.8173C3.75146 43.1428 4.24576 44.4136 5.12447 45.3509C6.00318 46.2882 7.19454 46.8154 8.43723 46.817H31.7049C31.9505 46.8121 32.1846 46.7047 32.3567 46.5177C32.5288 46.3307 32.6252 46.0791 32.6252 45.817C32.6252 45.555 32.5288 45.3034 32.3567 45.1164C32.1846 44.9294 31.9505 44.8219 31.7049 44.8171ZM5.62489 15.4389C5.6257 14.6436 5.92227 13.8811 6.44951 13.3187C6.97674 12.7563 7.6916 12.44 8.43723 12.4391H46.0659C46.8116 12.44 47.5264 12.7563 48.0537 13.3187C48.5809 13.8811 48.8775 14.6436 48.8783 15.4389V16.9291H5.62489V15.4389ZM5.62489 18.9289H48.8783V20.4948H5.62489V18.9289Z" />
<path d="M10.5374 38.3214C10.2919 38.3265 10.0581 38.4341 9.88622 38.6211C9.71432 38.8081 9.61803 39.0595 9.61804 39.3214C9.61805 39.5833 9.71435 39.8347 9.88625 40.0216C10.0582 40.2086 10.292 40.3162 10.5374 40.3213H17.2221C17.4676 40.3162 17.7014 40.2086 17.8733 40.0216C18.0452 39.8346 18.1415 39.5832 18.1415 39.3213C18.1415 39.0594 18.0452 38.808 17.8733 38.6211C17.7013 38.4341 17.4676 38.3265 17.2221 38.3214H10.5374Z" />
<path d="M55.8615 33.4462C55.7486 32.8742 55.6926 32.1269 55.0714 31.935L44.8721 28.4338C44.6851 28.3703 44.4842 28.3703 44.2972 28.4338L34.0988 31.935C33.4791 32.1288 33.4229 32.8708 33.3078 33.4442C31.8065 41.452 34.7342 48.623 40.7653 51.7132L44.1791 53.4621C44.3056 53.527 44.4442 53.5608 44.5847 53.5608C44.7251 53.5608 44.8637 53.527 44.9902 53.4621L48.405 51.7132C54.4361 48.6235 57.3628 41.4525 55.8615 33.4462ZM47.5938 49.9105L44.5846 51.4515L41.5764 49.9105C36.2945 47.2218 33.7735 40.7568 35.18 33.6654L44.5846 30.4361L53.9902 33.6649C55.3937 40.759 52.8755 47.2218 47.5938 49.9105Z" />
<path d="M49.12 37.5529L44.1536 42.2733L41.9647 39.939C41.7878 39.7573 41.5511 39.6569 41.3056 39.6594C41.06 39.6619 40.8252 39.7671 40.6515 39.9523C40.4779 40.1375 40.3793 40.388 40.377 40.6499C40.3747 40.9119 40.4688 41.1643 40.6391 41.353L43.4532 44.3548C43.6224 44.5353 43.8498 44.6399 44.089 44.6473C44.3282 44.6547 44.5609 44.5641 44.7395 44.3943L50.3669 39.046C50.5467 38.868 50.6539 38.6219 50.6655 38.3605C50.6771 38.0992 50.5923 37.8434 50.4291 37.648C50.2659 37.4526 50.0375 37.3332 49.7928 37.3154C49.548 37.2976 49.3065 37.3829 49.12 37.5529Z" />
</svg>
