<svg width="62" height="62" viewBox="0 0 62 62" fill="white" xmlns="http://www.w3.org/2000/svg">
<g clip-path="url(#clip0_275_13)">
<path d="M14.2554 26.2118C14.2554 28.0836 15.7781 29.6063 17.6499 29.6063C19.5234 29.6063 21.0478 28.0836 21.0478 26.2118C21.0478 24.3401 19.5234 22.8173 17.6499 22.8173C15.7781 22.8173 14.2554 24.3401 14.2554 26.2118ZM19.2312 26.2118C19.2312 27.082 18.5217 27.7899 17.6498 27.7899C16.7796 27.7899 16.0717 27.082 16.0717 26.2118C16.0717 25.3416 16.7796 24.6337 17.6498 24.6337C18.5219 24.6337 19.2312 25.3416 19.2312 26.2118Z" />
<path d="M46.5928 26.2118C46.5928 24.3401 45.0701 22.8173 43.1983 22.8173C41.3266 22.8173 39.804 24.3401 39.804 26.2118C39.804 28.0836 41.3267 29.6063 43.1983 29.6063C45.07 29.6063 46.5928 28.0836 46.5928 26.2118ZM41.6204 26.2118C41.6204 25.3416 42.3283 24.6337 43.1983 24.6337C44.0684 24.6337 44.7764 25.3416 44.7764 26.2118C44.7764 27.082 44.0685 27.7899 43.1983 27.7899C42.3282 27.7899 41.6204 27.082 41.6204 26.2118Z" />
<path d="M37.0962 26.2118C37.0962 22.5337 34.104 19.5414 30.4259 19.5414C26.746 19.5414 23.7521 22.5337 23.7521 26.2118C23.7521 29.8899 26.746 32.8823 30.4259 32.8823C34.1039 32.8824 37.0962 29.8899 37.0962 26.2118ZM30.4259 31.066C27.7476 31.066 25.5685 28.8885 25.5685 26.212C25.5685 23.5354 27.7476 21.3579 30.4259 21.3579C33.1025 21.3579 35.2798 23.5354 35.2798 26.212C35.2798 28.8885 33.1023 31.066 30.4259 31.066Z" />
<path d="M54.2882 40.1836H52.0998V37.9951C52.0998 37.4935 51.6932 37.0869 51.1916 37.0869C50.69 37.0869 50.2834 37.4935 50.2834 37.9951V40.1836H48.0985C47.5969 40.1836 47.1903 40.5903 47.1903 41.0918C47.1903 41.5934 47.5969 42.0001 48.0985 42.0001H50.2834V44.1851C50.2834 44.6866 50.69 45.0933 51.1916 45.0933C51.6932 45.0933 52.0998 44.6866 52.0998 44.1851V42.0001H54.2882C54.7898 42.0001 55.1964 41.5934 55.1964 41.0918C55.1964 40.5903 54.7898 40.1836 54.2882 40.1836Z" />
<path d="M56.2069 31.5196V11.8217C56.2069 10.8741 55.439 10.1031 54.4952 10.1031H32.1465C31.6449 10.1031 31.2383 10.5097 31.2383 11.0113C31.2383 11.5129 31.6449 11.9195 32.1465 11.9195H54.3905V30.7665C53.3792 30.4525 52.3049 30.2832 51.1917 30.2832C51.0442 30.2832 50.8976 30.2871 50.7516 30.2929V20.6254C50.7516 19.9111 50.3319 19.4751 49.6041 19.4296C47.9431 19.3182 46.5837 18.0365 46.3722 16.3869C46.2916 15.7314 45.8178 15.0309 44.7295 15.0309H16.1188C15.0305 15.0309 14.5566 15.7314 14.4765 16.3823C14.2646 18.0365 12.9051 19.3182 11.2473 19.4295C10.516 19.4759 10.0966 19.9118 10.0966 20.6255V31.7984C10.0966 32.5123 10.516 32.9483 11.2439 32.9942C12.905 33.1057 14.2645 34.3872 14.4758 36.037C14.5564 36.6925 15.0303 37.393 16.1185 37.393H27.936C28.4375 37.393 28.8442 36.9864 28.8442 36.4848C28.8442 35.9832 28.4375 35.5766 27.936 35.5766H16.2427C15.858 33.3607 14.1083 31.6282 11.9128 31.2476V21.1766C14.1049 20.7978 15.8544 19.0675 16.2424 16.8474H44.6051C44.9898 19.0634 46.7393 20.7958 48.935 21.1764V30.5212C45.9507 31.158 43.419 33.0309 41.9027 35.5766H32.1463C31.6447 35.5766 31.2381 35.9832 31.2381 36.4848C31.2381 36.9864 31.6447 37.393 32.1463 37.393H41.0387C40.6811 38.3722 40.4614 39.4172 40.4029 40.5044H6.45781V11.9195H27.9362C28.4378 11.9195 28.8444 11.5129 28.8444 11.0113C28.8444 10.5097 28.4378 10.1031 27.9362 10.1031H6.35657C5.41083 10.1031 4.6414 10.8741 4.6414 11.8217V16.731H1.68066C0.75393 16.7309 0 17.4848 0 18.4116V45.8127C0 46.7394 0.75393 47.4933 1.68066 47.4933H42.4962C44.4653 50.1615 47.6286 51.8969 51.1918 51.8969C57.1515 51.8969 62.0001 47.0498 62.0001 41.0918C62 36.9411 59.6479 33.33 56.2069 31.5196ZM1.81641 45.6769V18.5473H4.6414V40.5987C4.6414 41.5482 5.41083 42.3207 6.35657 42.3207H40.4571C40.5921 43.5081 40.9208 44.6374 41.4101 45.6769H1.81641ZM51.1917 50.0805C46.2354 50.0805 42.2031 46.0482 42.2031 41.0918C42.2031 36.1335 46.2353 32.0996 51.1917 32.0996C56.1498 32.0996 60.1836 36.1335 60.1836 41.0918C60.1836 46.0482 56.1498 50.0805 51.1917 50.0805Z" />
</g>
<defs>
<clipPath id="clip0_275_13">
<rect width="62" height="62" />
</clipPath>
</defs>
</svg>
