<svg width="40" height="37" viewBox="0 0 40 37" fill="none" xmlns="http://www.w3.org/2000/svg">
<path d="M37.8237 20.0336C36.0665 11.9378 22.515 2.37895 14.4192 4.1361C6.3234 5.89324 1.29242 13.2216 3.04957 21.3173C4.80672 29.4131 13.4537 34.5746 21.5495 32.8175C29.6453 31.0603 39.5808 28.1293 37.8237 20.0336Z" fill="#FF1F70" fill-opacity="0.15"/>
<path d="M21.8835 12.4424C21.5077 12.4424 21.1474 12.5916 20.8817 12.8573C20.6161 13.123 20.4668 13.4833 20.4668 13.859V18.109C20.4668 18.4848 20.6161 18.8451 20.8817 19.1108C21.1474 19.3765 21.5077 19.5257 21.8835 19.5257C22.0713 19.5257 22.2515 19.6003 22.3843 19.7332C22.5172 19.866 22.5918 20.0462 22.5918 20.234V20.9424C22.5918 21.3181 22.4425 21.6784 22.1769 21.9441C21.9112 22.2098 21.5509 22.359 21.1751 22.359C20.9873 22.359 20.8071 22.4337 20.6743 22.5665C20.5414 22.6994 20.4668 22.8795 20.4668 23.0674V24.484C20.4668 24.6719 20.5414 24.8521 20.6743 24.9849C20.8071 25.1178 20.9873 25.1924 21.1751 25.1924C22.3023 25.1924 23.3833 24.7446 24.1803 23.9476C24.9774 23.1506 25.4251 22.0696 25.4251 20.9424V13.859C25.4251 13.4833 25.2759 13.123 25.0102 12.8573C24.7445 12.5916 24.3842 12.4424 24.0085 12.4424H21.8835Z" stroke="#FF1F70" stroke-linecap="round" stroke-linejoin="round"/>
<path d="M14.0915 12.4424C13.7157 12.4424 13.3554 12.5916 13.0897 12.8573C12.8241 13.123 12.6748 13.4833 12.6748 13.859V18.109C12.6748 18.4848 12.8241 18.8451 13.0897 19.1108C13.3554 19.3765 13.7157 19.5257 14.0915 19.5257C14.2793 19.5257 14.4595 19.6003 14.5923 19.7332C14.7252 19.866 14.7998 20.0462 14.7998 20.234V20.9424C14.7998 21.3181 14.6505 21.6784 14.3849 21.9441C14.1192 22.2098 13.7589 22.359 13.3831 22.359C13.1953 22.359 13.0151 22.4337 12.8823 22.5665C12.7494 22.6994 12.6748 22.8795 12.6748 23.0674V24.484C12.6748 24.6719 12.7494 24.8521 12.8823 24.9849C13.0151 25.1178 13.1953 25.1924 13.3831 25.1924C14.5103 25.1924 15.5913 24.7446 16.3883 23.9476C17.1854 23.1506 17.6331 22.0696 17.6331 20.9424V13.859C17.6331 13.4833 17.4839 13.123 17.2182 12.8573C16.9525 12.5916 16.5922 12.4424 16.2165 12.4424H14.0915Z" stroke="#FF1F70" stroke-linecap="round" stroke-linejoin="round"/>
</svg>
