<svg width="80" height="80" viewBox="0 0 80 80" fill="none" xmlns="http://www.w3.org/2000/svg">
<path d="M6.26078 59.5843C3.36517 63.5825 1.28692 68.1127 0.145135 72.9154C-0.0729677 73.8716 -0.0448647 74.8674 0.226813 75.8098C0.498491 76.7521 1.00486 77.6101 1.69851 78.3035C2.39215 78.9968 3.25039 79.5027 4.19287 79.7739C5.13535 80.0452 6.13124 80.0728 7.08731 79.8542C11.8827 78.7107 16.4058 76.6337 20.3984 73.7419C22.2758 71.8672 23.3316 69.3234 23.3335 66.6702C23.3354 64.017 22.2832 61.4717 20.4084 59.5943C18.5336 57.7169 15.9899 56.6611 13.3367 56.6592C10.6835 56.6573 8.1382 57.7095 6.26078 59.5843ZM15.6859 69.0127C12.9997 70.7332 10.0819 72.0619 7.02065 72.9587C7.91877 69.8979 9.2474 66.9804 10.9667 64.2935C11.5952 63.6864 12.4371 63.3505 13.3109 63.3581C14.1848 63.3657 15.0207 63.7162 15.6386 64.3341C16.2565 64.952 16.607 65.7879 16.6146 66.6618C16.6222 67.5356 16.2863 68.3775 15.6792 69.0061L15.6859 69.0127ZM59.9885 28.3295C59.9885 30.5393 59.1106 32.6585 57.5481 34.2211C55.9856 35.7836 53.8663 36.6615 51.6565 36.6615C49.4468 36.6615 47.3275 35.7836 45.765 34.2211C44.2024 32.6585 43.3246 30.5393 43.3246 28.3295C43.3246 26.1197 44.2024 24.0005 45.765 22.4379C47.3275 20.8754 49.4468 19.9976 51.6565 19.9976C53.8663 19.9976 55.9856 20.8754 57.5481 22.4379C59.1106 24.0005 59.9885 26.1197 59.9885 28.3295ZM69.8935 0.000912101C61.9623 -0.0462355 54.1269 1.73505 46.9957 5.20647C39.8644 8.6779 33.629 13.7461 28.7737 20.0176C23.4784 20.2006 18.2847 21.5226 13.5462 23.8936C8.05121 26.4239 3.56537 30.7267 0.808358 36.1115C0.161364 37.6138 -0.101257 39.2536 0.0442088 40.8829C0.189675 42.5121 0.738646 44.0794 1.64155 45.4433C2.55308 46.8407 3.79881 47.9885 5.26592 48.7829C6.73302 49.5772 8.37513 49.993 10.0435 49.9926H18.3288C21.4178 50.0075 24.3762 51.2412 26.5605 53.4255C28.7448 55.6099 29.9786 58.5682 29.9935 61.6573V69.9426C29.9923 71.6103 30.4071 73.252 31.2003 74.7191C31.9934 76.1861 33.14 77.4322 34.5361 78.3445C35.9 79.2474 37.4673 79.7964 39.0965 79.9418C40.7257 80.0873 42.3655 79.8247 43.8678 79.1777C49.2527 76.4207 53.5554 71.9348 56.0858 66.4398C58.4567 61.7014 59.7787 56.5077 59.9618 51.2124C66.2433 46.3446 71.3176 40.0939 74.7904 32.9461C78.2632 25.7983 80.0408 17.9459 79.9851 9.99924C79.9812 8.67949 79.7168 7.37348 79.2071 6.15611C78.6974 4.93874 77.9525 3.83395 77.0149 2.90508C76.0774 1.97621 74.9657 1.24153 73.7437 0.743174C72.5216 0.244814 71.2132 -0.00742722 69.8935 0.000912101ZM14.4827 43.327H10.0435C9.4799 43.3313 8.92443 43.1927 8.429 42.924C7.93358 42.6553 7.51438 42.2653 7.21062 41.7906C6.91221 41.3497 6.72981 40.8406 6.6803 40.3105C6.63078 39.7804 6.71575 39.2463 6.92734 38.7578C9.07481 34.8222 12.4486 31.6953 16.5357 29.8526C18.6475 28.7938 20.877 27.9883 23.178 27.453C19.8653 32.5066 16.9578 37.8146 14.4827 43.327ZM50.1434 63.4503C48.3007 67.5364 45.1754 70.9099 41.2416 73.0587C40.7525 73.2706 40.2179 73.3557 39.6872 73.3062C39.1565 73.2567 38.6469 73.0741 38.2054 72.7754C37.7307 72.4717 37.3408 72.0525 37.0721 71.557C36.8034 71.0616 36.6647 70.5061 36.669 69.9426V65.5033C42.1815 63.0282 47.4894 60.1208 52.543 56.8081C52.0046 59.1094 51.1957 61.339 50.1335 63.4503H50.1434ZM50.5934 50.0526C46.0834 53.1849 41.3225 55.9393 36.3591 58.2878C35.6813 54.6487 33.9176 51.3001 31.3001 48.6826C28.6826 46.0651 25.334 44.3014 21.6949 43.6236C24.0451 38.6647 26.8007 33.9082 29.9335 29.4027C41.1583 13.7453 52.7897 7.15638 69.9868 6.66647C70.8548 6.66613 71.6886 7.00442 72.311 7.60939C72.9334 8.21437 73.2953 9.03829 73.3196 9.90592C72.8297 27.1964 66.2408 38.8278 50.5834 50.0526H50.5934Z" fill="#FF1F70"/>
</svg>
