<svg width="40" height="40" viewBox="0 0 40 40" fill="none" xmlns="http://www.w3.org/2000/svg">
<g clip-path="url(#clip0_295_1247)">
<path d="M30.9683 3.56658L20.5267 0.0849131C20.1848 -0.0289554 19.8152 -0.0289554 19.4733 0.0849131L9.03168 3.56658C7.37152 4.11805 5.92737 5.17867 4.90442 6.59776C3.88147 8.01685 3.33174 9.72223 3.33335 11.4716V19.9999C3.33335 32.6049 18.6667 39.5666 19.3233 39.8566C19.5364 39.9512 19.7669 40.0001 20 40.0001C20.2331 40.0001 20.4636 39.9512 20.6767 39.8566C21.3333 39.5666 36.6667 32.6049 36.6667 19.9999V11.4716C36.6683 9.72223 36.1186 8.01685 35.0956 6.59776C34.0727 5.17867 32.6285 4.11805 30.9683 3.56658ZM33.3333 19.9999C33.3333 29.0916 22.8017 35.0549 20 36.4816C17.195 35.0599 6.66668 29.1149 6.66668 19.9999V11.4716C6.66678 10.422 6.99714 9.39915 7.61096 8.54782C8.22477 7.69649 9.09092 7.0599 10.0867 6.72825L20 3.42325L29.9133 6.72825C30.9091 7.0599 31.7753 7.69649 32.3891 8.54782C33.0029 9.39915 33.3332 10.422 33.3333 11.4716V19.9999Z" fill="#FF1F70"/>
<path d="M25.5 13.8332L18.52 20.8332L14.78 16.9332C14.6299 16.7691 14.4485 16.6367 14.2464 16.5438C14.0444 16.4509 13.8258 16.3994 13.6035 16.3922C13.3812 16.3851 13.1598 16.4226 12.9522 16.5023C12.7446 16.5821 12.5551 16.7027 12.3948 16.8568C12.2345 17.011 12.1067 17.1957 12.0189 17.4C11.9311 17.6043 11.8851 17.8242 11.8835 18.0466C11.882 18.2689 11.925 18.4894 12.01 18.6949C12.0949 18.9004 12.2202 19.0869 12.3783 19.2432L16.2217 23.2432C16.5083 23.5528 16.8547 23.801 17.24 23.9729C17.6253 24.1448 18.0415 24.2368 18.4633 24.2432H18.5183C18.9318 24.2446 19.3413 24.1638 19.7233 24.0056C20.1052 23.8474 20.452 23.6149 20.7433 23.3215L27.8633 16.2015C28.0188 16.0464 28.1423 15.8621 28.2265 15.6592C28.3108 15.4563 28.3543 15.2388 28.3546 15.0191C28.3548 14.7995 28.3118 14.5819 28.2279 14.3788C28.144 14.1758 28.021 13.9912 27.8658 13.8357C27.7107 13.6802 27.5264 13.5568 27.3235 13.4725C27.1206 13.3882 26.9031 13.3447 26.6834 13.3445C26.4637 13.3443 26.2462 13.3873 26.0431 13.4711C25.8401 13.555 25.6555 13.678 25.5 13.8332Z" fill="#FF1F70"/>
</g>
<defs>
<clipPath id="clip0_295_1247">
<rect width="40" height="40" fill="white"/>
</clipPath>
</defs>
</svg>
