<svg width="80" height="80" viewBox="0 0 80 80" fill="none" xmlns="http://www.w3.org/2000/svg">
<path d="M63 0.000677425H17C12.5368 -0.0393185 8.24001 1.69317 5.05281 4.81787C1.86561 7.94258 0.0483841 12.2042 0 16.6673L0 26.6673C0 27.5514 0.35119 28.3992 0.976311 29.0244C1.60143 29.6495 2.44928 30.0007 3.33333 30.0007C4.21739 30.0007 5.06523 29.6495 5.69036 29.0244C6.31548 28.3992 6.66667 27.5514 6.66667 26.6673V16.6673C6.71402 13.972 7.82853 11.4055 9.76571 9.5308C11.7029 7.65611 14.3046 6.62632 17 6.66734H63C65.6954 6.62632 68.2971 7.65611 70.2343 9.5308C72.1715 11.4055 73.286 13.972 73.3333 16.6673V63.334C73.286 66.0294 72.1715 68.5959 70.2343 70.4706C68.2971 72.3453 65.6954 73.375 63 73.334H17C14.3046 73.375 11.7029 72.3453 9.76571 70.4706C7.82853 68.5959 6.71402 66.0294 6.66667 63.334V53.334C6.66667 52.45 6.31548 51.6021 5.69036 50.977C5.06523 50.3519 4.21739 50.0007 3.33333 50.0007C2.44928 50.0007 1.60143 50.3519 0.976311 50.977C0.35119 51.6021 0 52.45 0 53.334L0 63.334C0.0483841 67.7972 1.86561 72.0588 5.05281 75.1835C8.24001 78.3082 12.5368 80.0407 17 80.0007H63C67.4632 80.0407 71.76 78.3082 74.9472 75.1835C78.1344 72.0588 79.9516 67.7972 80 63.334V16.6673C79.9516 12.2042 78.1344 7.94258 74.9472 4.81787C71.76 1.69317 67.4632 -0.0393185 63 0.000677425Z" fill="#FF1F70"/>
<path d="M9.99982 39.9993C9.99982 40.8834 10.351 41.7312 10.9761 42.3563C11.6012 42.9814 12.4491 43.3326 13.3331 43.3326L57.2924 43.2326L42.8826 57.6423C42.5642 57.9498 42.3103 58.3176 42.1356 58.7243C41.9609 59.131 41.869 59.5684 41.8651 60.011C41.8613 60.4536 41.9456 60.8925 42.1132 61.3021C42.2808 61.7118 42.5283 62.0839 42.8413 62.3969C43.1542 62.7099 43.5264 62.9574 43.9361 63.125C44.3457 63.2926 44.7846 63.3769 45.2272 63.3731C45.6698 63.3692 46.1072 63.2773 46.5139 63.1026C46.9206 62.9279 47.2884 62.674 47.5958 62.3556L62.8823 47.0692C64.7569 45.194 65.8101 42.6509 65.8101 39.9993C65.8101 37.3477 64.7569 34.8047 62.8823 32.9294L47.6025 17.643C46.9739 17.0358 46.1319 16.6999 45.2579 16.7075C44.3839 16.7151 43.5479 17.0656 42.9299 17.6836C42.3119 18.3016 41.9613 19.1377 41.9537 20.0116C41.9461 20.8856 42.2821 21.7276 42.8893 22.3563L57.0957 36.566L13.3331 36.666C12.4491 36.666 11.6012 37.0172 10.9761 37.6423C10.351 38.2674 9.99982 39.1153 9.99982 39.9993Z" fill="#FF1F70"/>
</svg>
