<svg width="50" height="50" viewBox="0 0 50 50" fill="white" xmlns="http://www.w3.org/2000/svg">
<g clip-path="url(#clip0_275_2)">
<path d="M47.0217 0.95451C46.5517 0.28117 46.0394 0.477752 45.0088 0.872577C44.3123 1.13947 43.6157 1.40627 42.9192 1.67316C41.5856 2.1841 40.2522 2.69504 38.9186 3.20597C38.7918 3.25451 38.665 3.30314 38.5382 3.35168C38.1365 3.50568 37.9356 3.95607 38.0895 4.35773C38.2434 4.75959 38.6939 4.96037 39.0955 4.80656L45.0499 2.52521C43.2735 7.07355 39.3072 13.7345 33.0168 19.6371C24.2227 27.8889 13.0638 32.5215 0.746584 33.0338C0.316701 33.0518 -0.0171859 33.4147 0.000685209 33.8445C0.0181657 34.2633 0.363185 34.591 0.77842 34.591C0.789357 34.591 0.800295 34.5908 0.81133 34.5903C7.70713 34.3034 14.2283 32.7914 20.1938 30.0962C25.2527 27.8106 29.9256 24.6738 34.0828 20.773C40.4008 14.8446 44.457 8.1383 46.3674 3.42512L48.4935 8.97424C48.6122 9.28439 48.9076 9.47473 49.221 9.47473C49.3137 9.47473 49.4078 9.45812 49.4995 9.42297C49.9012 9.26896 50.1022 8.81857 49.9482 8.41691C49.5133 7.28166 49.0784 6.1465 48.6435 5.01125C48.2259 3.92121 47.8255 2.68635 47.3465 1.56818C47.2365 1.31183 47.1302 1.10998 47.0217 0.95451Z" />
<path d="M47.1257 16.7729H40.8941C39.6056 16.7729 38.5573 17.8212 38.5573 19.1097V47.9304H36.61V30.4042C36.61 29.1158 35.5617 28.0674 34.2731 28.0674H28.0416C26.753 28.0674 25.7048 29.1158 25.7048 30.4042V47.9303H23.7574V36.2463C23.7574 34.9578 22.7092 33.9095 21.4206 33.9095H15.1891C13.9005 33.9095 12.8522 34.9578 12.8522 36.2463V47.9304H10.9049V38.5831C10.9049 37.2947 9.85664 36.2463 8.56807 36.2463H2.33682C1.04824 36.2463 0 37.2947 0 38.5831V48.7093C0 49.1395 0.34873 49.4882 0.778906 49.4882H48.6836C49.1138 49.4882 49.4625 49.1395 49.4625 48.7093V19.1097C49.4625 17.8212 48.4143 16.7729 47.1257 16.7729ZM40.1153 19.1097C40.1153 18.6802 40.4647 18.3308 40.8942 18.3308H47.1258C47.5553 18.3308 47.9047 18.6803 47.9047 19.1097V47.9304H40.1153V19.1097ZM27.2628 30.4042C27.2628 29.9747 27.6122 29.6253 28.0417 29.6253H34.2732C34.7027 29.6253 35.0521 29.9748 35.0521 30.4042V47.9303H27.2628V30.4042ZM14.4104 36.2463C14.4104 35.8168 14.7598 35.4674 15.1893 35.4674H21.4208C21.8503 35.4674 22.1997 35.8169 22.1997 36.2463V47.9304H14.4104V36.2463ZM2.33682 37.8042H8.56836C8.99785 37.8042 9.34727 38.1537 9.34727 38.5831V47.9304H1.55791V38.5831C1.55791 38.1537 1.90732 37.8042 2.33682 37.8042Z" />
</g>
<defs>
<clipPath id="clip0_275_2">
<rect width="50" height="50" fill="white"/>
</clipPath>
</defs>
</svg>
