<svg width="40" height="40" viewBox="0 0 40 40" fill="none" xmlns="http://www.w3.org/2000/svg">
<g clip-path="url(#clip0_295_1245)">
<path d="M31.6667 1.66675H8.33333C6.12401 1.66939 4.00593 2.54822 2.4437 4.11045C0.88147 5.67268 0.00264643 7.79076 0 10.0001L0 23.3334C0.00264643 25.5427 0.88147 27.6608 2.4437 29.2231C4.00593 30.7853 6.12401 31.6641 8.33333 31.6667H18.3333V35.0001H11.6667C11.2246 35.0001 10.8007 35.1757 10.4882 35.4882C10.1756 35.8008 10 36.2247 10 36.6667C10 37.1088 10.1756 37.5327 10.4882 37.8453C10.8007 38.1578 11.2246 38.3334 11.6667 38.3334H28.3333C28.7754 38.3334 29.1993 38.1578 29.5118 37.8453C29.8244 37.5327 30 37.1088 30 36.6667C30 36.2247 29.8244 35.8008 29.5118 35.4882C29.1993 35.1757 28.7754 35.0001 28.3333 35.0001H21.6667V31.6667H31.6667C33.876 31.6641 35.9941 30.7853 37.5563 29.2231C39.1185 27.6608 39.9974 25.5427 40 23.3334V10.0001C39.9974 7.79076 39.1185 5.67268 37.5563 4.11045C35.9941 2.54822 33.876 1.66939 31.6667 1.66675ZM36.6667 23.3334C36.6667 24.6595 36.1399 25.9313 35.2022 26.8689C34.2645 27.8066 32.9927 28.3334 31.6667 28.3334H8.33333C7.00725 28.3334 5.73548 27.8066 4.7978 26.8689C3.86012 25.9313 3.33333 24.6595 3.33333 23.3334V10.0001C3.33333 8.674 3.86012 7.40223 4.7978 6.46455C5.73548 5.52687 7.00725 5.00008 8.33333 5.00008H31.6667C32.9927 5.00008 34.2645 5.52687 35.2022 6.46455C36.1399 7.40223 36.6667 8.674 36.6667 10.0001V23.3334ZM33.3333 16.6667C33.3333 17.1088 33.1577 17.5327 32.8452 17.8453C32.5326 18.1578 32.1087 18.3334 31.6667 18.3334H26.725L23.8917 22.5917C23.7389 22.8206 23.5319 23.0082 23.2891 23.1376C23.0463 23.267 22.7752 23.3343 22.5 23.3334C22.465 23.3334 22.43 23.3334 22.3967 23.3334C22.1051 23.3155 21.8233 23.2212 21.5796 23.06C21.336 22.8988 21.139 22.6764 21.0083 22.4151L17.2933 14.9801L15.5533 17.5917C15.4011 17.8199 15.1949 18.007 14.953 18.1364C14.7111 18.2658 14.441 18.3335 14.1667 18.3334H8.33333C7.89131 18.3334 7.46738 18.1578 7.15482 17.8453C6.84226 17.5327 6.66667 17.1088 6.66667 16.6667C6.66667 16.2247 6.84226 15.8008 7.15482 15.4882C7.46738 15.1757 7.89131 15.0001 8.33333 15.0001H13.275L16.1083 10.7417C16.2687 10.496 16.4919 10.2977 16.7548 10.1673C17.0177 10.0368 17.3106 9.97913 17.6033 10.0001C17.8949 10.018 18.1767 10.1123 18.4204 10.2735C18.664 10.4347 18.861 10.6571 18.9917 10.9184L22.7067 18.3501L24.4467 15.7384C24.5993 15.5108 24.8057 15.3244 25.0476 15.1956C25.2894 15.0668 25.5593 14.9997 25.8333 15.0001H31.6667C32.1087 15.0001 32.5326 15.1757 32.8452 15.4882C33.1577 15.8008 33.3333 16.2247 33.3333 16.6667Z" fill="#FF1F70"/>
</g>
<defs>
<clipPath id="clip0_295_1245">
<rect width="40" height="40" fill="white"/>
</clipPath>
</defs>
</svg>
