<svg width="55" height="55" viewBox="0 0 55 55" xmlns="http://www.w3.org/2000/svg">
  <g clip-path="url(#clip0_1_4297)">
    <path d="M30.3347 32.1622C30.7739 32.0904 31.0715 31.6762 30.9997 31.237C30.6234 28.9374 29.4372 26.8314 27.6599 25.3069C25.8625 23.7651 23.5669 22.916 21.1958 22.916C15.7167 22.916 11.2593 27.3735 11.2593 32.8525C11.2593 38.3316 15.7167 42.7891 21.1958 42.7891C25.7367 42.7891 29.695 39.7206 30.8213 35.327C30.9319 34.8959 30.672 34.457 30.241 34.3465C29.81 34.2359 29.3709 34.4958 29.2605 34.9267C28.3169 38.6072 25.0006 41.1776 21.1958 41.1776C16.6052 41.1776 12.8706 37.4429 12.8706 32.8524C12.8706 28.262 16.6052 24.5272 21.1958 24.5272C23.1822 24.5272 25.1054 25.2385 26.6108 26.5298C28.1005 27.8076 29.0943 29.5717 29.4095 31.4972C29.4813 31.9364 29.8953 32.2342 30.3347 32.1622Z" currentColor="#141C21" />
    <path d="M21.1957 26.5034C17.6949 26.5034 14.8467 29.3516 14.8467 32.8526C14.8467 36.3535 17.6949 39.2017 21.1957 39.2017C24.6967 39.2017 27.5449 36.3535 27.5449 32.8526C27.5449 29.3516 24.6967 26.5034 21.1957 26.5034ZM21.1957 37.5903C18.5834 37.5903 16.458 35.465 16.458 32.8526C16.458 30.2401 18.5834 28.1147 21.1957 28.1147C23.8082 28.1147 25.9336 30.2401 25.9336 32.8526C25.9336 35.465 23.8082 37.5903 21.1957 37.5903Z" currentColor="#141C21" />
    <path d="M21.1958 29.7153C19.4659 29.7153 18.0586 31.1228 18.0586 32.8526C18.0586 34.5824 19.4659 35.9898 21.1958 35.9898C22.9258 35.9898 24.3331 34.5824 24.3331 32.8526C24.3331 31.1228 22.9258 29.7153 21.1958 29.7153ZM21.1958 34.3785C20.3544 34.3785 19.6699 33.6939 19.6699 32.8526C19.6699 32.0113 20.3544 31.3267 21.1958 31.3267C22.0373 31.3267 22.7218 32.0113 22.7218 32.8526C22.7218 33.6939 22.0373 34.3785 21.1958 34.3785Z" currentColor="#141C21" />
    <path d="M48.0351 33.9949V28.8965C48.0351 28.4515 47.6744 28.0908 47.2295 28.0908C46.7845 28.0908 46.4238 28.4515 46.4238 28.8965V32.9867C45.3777 32.4452 44.2397 32.058 43.0398 31.8545V19.5615C43.0398 18.9396 42.5338 18.4336 41.9119 18.4336H40.0615L44.7261 12.0934L49.311 18.4336H47.5517C46.9298 18.4336 46.4238 18.9396 46.4238 19.5615V25.1367C46.4238 25.5817 46.7845 25.9424 47.2295 25.9424C47.6744 25.9424 48.0351 25.5817 48.0351 25.1367V20.0449H50.2572C50.6829 20.0449 51.0678 19.8095 51.2616 19.4303C51.4553 19.0511 51.4206 18.6012 51.1712 18.2559L45.6435 10.6123C45.4332 10.3213 45.0932 10.1467 44.7341 10.1452C44.7326 10.1452 44.7311 10.1452 44.7295 10.1452C44.3722 10.1452 44.0328 10.3168 43.821 10.6047L38.1971 18.2486C37.9436 18.5932 37.9061 19.0444 38.099 19.4261C38.2921 19.8078 38.6778 20.0449 39.1056 20.0449H41.4284V31.6949C41.3139 31.6916 41.1991 31.6895 41.0838 31.6895C40.7503 31.6895 40.4203 31.7043 40.0939 31.7319C40.0679 31.2786 40.028 30.826 39.9694 30.3783C39.8624 29.5607 39.1575 28.9441 38.3299 28.9441H34.3473C34.3294 28.9441 34.314 28.9311 34.308 28.9111C34.0441 28.0311 33.6899 27.1754 33.2551 26.3678C33.245 26.3491 33.2467 26.3288 33.2594 26.3161L36.0742 23.5012C36.6594 22.9161 36.7217 21.9816 36.2193 21.3275C35.9435 20.9686 35.6541 20.6209 35.3539 20.283V9.89979H37.5758C38.0016 9.89979 38.3865 9.66421 38.5803 9.28501C38.774 8.90581 38.7394 8.45593 38.4898 8.11089L32.9626 0.46707C32.7522 0.176172 32.4122 0.00150391 32.0532 0C32.0516 0 32.0501 0 32.0485 0C31.6912 0 31.3519 0.171553 31.1399 0.459443L25.5161 8.10337C25.2626 8.44798 25.2251 8.89915 25.418 9.28082C25.611 9.6626 25.9968 9.89968 26.4245 9.89968H28.7473V19.7734L27.7321 20.7886C27.7194 20.8012 27.6991 20.8029 27.6804 20.7929C26.873 20.3582 26.0173 20.0039 25.137 19.74C25.117 19.7339 25.1041 19.7186 25.1041 19.7006V15.7181C25.1041 14.8905 24.4875 14.1857 23.6699 14.0786C22.0361 13.8647 20.3549 13.8647 18.7212 14.0786C17.9036 14.1856 17.287 14.8904 17.287 15.7181V19.7006C17.287 19.7186 17.2741 19.7339 17.254 19.74C16.374 20.0039 15.5183 20.3581 14.7107 20.7929C14.692 20.8029 14.6716 20.8013 14.6592 20.7886L11.8443 17.9737C11.2592 17.3885 10.3246 17.3262 9.6706 17.8287C8.35779 18.8373 7.18056 20.0144 6.17187 21.3274C5.66945 21.9815 5.73176 22.916 6.31688 23.5011L9.13177 26.316C9.14444 26.3287 9.14616 26.349 9.13606 26.3677C8.70133 27.1753 8.34705 28.0309 8.08322 28.911C8.07721 28.931 8.06185 28.944 8.04391 28.944H4.06135C3.23377 28.944 2.52887 29.5606 2.42187 30.3782C2.31488 31.195 2.26074 32.0275 2.26074 32.8525C2.26074 33.6775 2.31499 34.51 2.42187 35.3269C2.52887 36.1445 3.23377 36.7611 4.06135 36.7611H8.04391C8.06185 36.7611 8.07721 36.7741 8.08322 36.794C8.34716 37.674 8.70133 38.5298 9.13617 39.3374C9.14627 39.356 9.14455 39.3762 9.13188 39.3889L6.31688 42.2039C5.73176 42.789 5.66945 43.7235 6.17197 44.3776C7.18066 45.6906 8.3579 46.8677 9.6707 47.8763C10.3247 48.3788 11.2593 48.3164 11.8444 47.7313L14.6593 44.9164C14.672 44.9037 14.6922 44.902 14.7109 44.9121C15.5187 45.347 16.3744 45.7012 17.2543 45.965C17.2743 45.971 17.2872 45.9863 17.2872 46.0043V49.9868C17.2872 50.8144 17.9037 51.5192 18.7214 51.6263C19.5384 51.7333 20.3709 51.7874 21.1957 51.7874C22.0205 51.7874 22.853 51.7333 23.6701 51.6263C24.4876 51.5191 25.1042 50.8143 25.1042 49.9868V46.0043C25.1042 45.9863 25.1172 45.971 25.1371 45.965C26.0171 45.7011 26.8728 45.347 27.6804 44.9121C27.6992 44.902 27.7194 44.9036 27.7322 44.9164L30.1224 47.3067C31.7475 51.7889 36.0475 55 41.0839 55C47.5106 55 52.7391 49.7715 52.7391 43.3447C52.7391 39.5209 50.888 36.1215 48.0351 33.9949ZM27.3805 8.28846L32.0452 1.94831L36.6301 8.28846H34.8708C34.2488 8.28846 33.7429 8.79441 33.7429 9.41639V18.6738C33.412 18.3808 33.0717 18.0983 32.7209 17.8288C32.0669 17.3263 31.1323 17.3886 30.5472 17.9738L30.3589 18.1621V9.41639C30.3589 8.79441 29.8529 8.28846 29.2309 8.28846H27.3805ZM29.4752 44.3808L28.8715 43.7771C28.3521 43.2577 27.5666 43.1436 26.9166 43.4934C26.2046 43.8767 25.4502 44.189 24.6743 44.4216C23.9676 44.6336 23.4929 45.2696 23.4929 46.0044V49.9869C23.4929 50.0077 23.4785 50.0265 23.461 50.0287C21.965 50.2245 20.4263 50.2245 18.9307 50.0287C18.913 50.0265 18.8987 50.0077 18.8987 49.9869V46.0044C18.8987 45.2696 18.4239 44.6336 17.7171 44.4216C16.9413 44.1891 16.1869 43.8768 15.4748 43.4934C15.2237 43.3582 14.9523 43.2923 14.6838 43.2923C14.2575 43.2923 13.8386 43.4584 13.52 43.7771L10.7051 46.592C10.6904 46.6067 10.6666 46.6096 10.6522 46.5986C9.45049 45.6755 8.37305 44.598 7.44965 43.3961C7.43858 43.3817 7.44159 43.358 7.4562 43.3433L10.2711 40.5284C10.7906 40.009 10.9046 39.2233 10.5548 38.5736C10.1715 37.8617 9.85923 37.1073 9.62655 36.3313C9.41461 35.6245 8.77856 35.1497 8.0438 35.1497H4.06135C4.04061 35.1497 4.02192 35.1354 4.01956 35.1177C3.92159 34.37 3.87196 33.6079 3.87196 32.8526C3.87196 32.0973 3.92159 31.3353 4.01956 30.5875C4.02182 30.5698 4.04061 30.5555 4.06135 30.5555H8.04391C8.77867 30.5555 9.41472 30.0807 9.62666 29.3741C9.85934 28.5981 10.1716 27.8436 10.5549 27.1318C10.9047 26.482 10.7907 25.6964 10.2712 25.1769L7.45631 22.362C7.44159 22.3473 7.43869 22.3237 7.44976 22.3094C8.37315 21.1074 9.4506 20.0299 10.6523 19.1068C10.6667 19.0957 10.6904 19.0987 10.7051 19.1134L13.52 21.9282C14.0394 22.4477 14.8251 22.5616 15.4748 22.2119C16.1867 21.8287 16.9411 21.5164 17.717 21.2837C18.4238 21.0719 18.8987 20.4358 18.8987 19.701V15.7184C18.8987 15.6977 18.913 15.679 18.9307 15.6766C20.4262 15.4808 21.9653 15.4808 23.461 15.6766C23.4786 15.6789 23.493 15.6977 23.493 15.7184V19.701C23.493 20.4358 23.9678 21.0719 24.6744 21.2837C25.4505 21.5165 26.205 21.8288 26.9167 22.2119C27.5663 22.5618 28.3521 22.4478 28.8716 21.9283L31.6866 19.1134C31.7013 19.0987 31.7247 19.0958 31.7392 19.1068C32.9411 20.03 34.0185 21.1075 34.9418 22.3094C34.9529 22.3238 34.95 22.3474 34.9353 22.3621L32.1204 25.177C31.6009 25.6965 31.4869 26.4821 31.8367 27.1319C32.2199 27.8438 32.5322 28.5982 32.7649 29.3742C32.9768 30.0808 33.6129 30.5556 34.3477 30.5556H38.3302C38.3509 30.5556 38.3696 30.57 38.372 30.5876C38.4323 31.0479 38.4718 31.5137 38.4949 31.9799C33.3102 33.1605 29.4288 37.8078 29.4288 43.3449C29.4286 43.6938 29.4449 44.0393 29.4752 44.3808ZM41.0839 53.3887C35.5456 53.3887 31.0399 48.883 31.0399 43.3447C31.0399 37.8065 35.5456 33.3008 41.0839 33.3008C46.6221 33.3008 51.1278 37.8065 51.1278 43.3447C51.1278 48.883 46.6221 53.3887 41.0839 53.3887Z" currentColor="#141C21" />
    <path d="M48.341 42.1341C48.4139 42.573 48.8286 42.8698 49.2678 42.7967C49.7067 42.7237 50.0034 42.3087 49.9304 41.8698C49.5863 39.8001 48.5135 37.9038 46.9095 36.5301C45.287 35.1404 43.218 34.375 41.084 34.375C36.1381 34.375 32.1143 38.3988 32.1143 43.3447C32.1143 48.2906 36.1381 52.3145 41.084 52.3145C43.0348 52.3145 44.8909 51.6963 46.4519 50.5271C47.96 49.3973 49.0965 47.7898 49.6522 46.0007C49.7842 45.5758 49.5467 45.1243 49.1217 44.9924C48.6969 44.8605 48.2453 45.098 48.1133 45.5228C47.6576 46.9904 46.7244 48.3096 45.4858 49.2376C44.2059 50.1963 42.6837 50.7031 41.084 50.7031C37.0266 50.7031 33.7256 47.4022 33.7256 43.3447C33.7256 39.2873 37.0266 35.9863 41.084 35.9863C42.8339 35.9863 44.5305 36.6141 45.8615 37.754C47.1783 38.8818 48.0589 40.4374 48.341 42.1341Z" currentColor="#141C21" />
    <path d="M41.084 36.792C40.639 36.792 40.2783 37.1527 40.2783 37.5977V43.3446C40.2783 43.64 40.4399 43.9117 40.6994 44.0526C40.8196 44.1178 40.952 44.1503 41.0839 44.1503C41.237 44.1503 41.3896 44.1068 41.5226 44.0204L45.1848 41.6432C45.5581 41.4009 45.6641 40.902 45.422 40.5287C45.1797 40.1555 44.6806 40.0495 44.3075 40.2915L41.8895 41.861V37.5977C41.8896 37.1527 41.5289 36.792 41.084 36.792Z" currentColor="#141C21" />
  </g>
  <defs>
    <clipPath id="clip0_1_4297">
      <rect width="55" height="55" currentColor="white" />
    </clipPath>
  </defs>
</svg>