<svg width="80" height="80" viewBox="0 0 80 80" fill="none" xmlns="http://www.w3.org/2000/svg">
<path d="M59.9353 30.3113C59.9358 28.9662 59.6701 27.6343 59.1536 26.3923C58.6371 25.1503 57.8799 24.0228 56.9257 23.0747C54.9732 21.2116 52.3781 20.1721 49.6793 20.1721C46.9805 20.1721 44.3853 21.2116 42.4328 23.0747L2.75287 62.7655C0.941823 64.7075 -0.0445819 67.2767 0.00154801 69.9318C0.0476779 72.5868 1.12274 75.1202 3.00016 76.9981C4.87757 78.876 7.4107 79.9517 10.0657 79.9984C12.7206 80.0452 15.29 79.0593 17.2324 77.2487L56.9257 37.5579C57.8814 36.6089 58.6395 35.4798 59.1561 34.2359C59.6726 32.9921 59.9375 31.6582 59.9353 30.3113ZM12.504 72.5269C11.828 73.1712 10.9299 73.5307 9.99598 73.5307C9.06207 73.5307 8.16398 73.1712 7.48798 72.5269C6.82391 71.8611 6.45098 70.9591 6.45098 70.0188C6.45098 69.0785 6.82391 68.1765 7.48798 67.5107L33.4675 41.5273L38.5003 46.5602L12.504 72.5269ZM52.204 32.826L43.2153 41.8183L38.1993 36.7854L47.1913 27.7966C47.5119 27.4304 47.9042 27.1339 48.344 26.9255C48.7838 26.7171 49.2617 26.6013 49.7481 26.5851C50.2345 26.569 50.719 26.6529 51.1717 26.8317C51.6243 27.0104 52.0354 27.2802 52.3796 27.6244C52.7237 27.9685 52.9935 28.3796 53.1722 28.8323C53.351 29.2849 53.4349 29.7695 53.4187 30.2559C53.4026 30.7423 53.2867 31.2202 53.0784 31.66C52.87 32.0998 52.5735 32.4921 52.2073 32.8127L52.204 32.826ZM16.0052 9.54797L21.1884 8.0699L22.6664 2.88659C22.9045 2.05486 23.407 1.32329 24.0978 0.802494C24.7886 0.281697 25.6302 0 26.4953 0C27.3604 0 28.202 0.281697 28.8928 0.802494C29.5836 1.32329 30.0861 2.05486 30.3242 2.88659L31.8022 8.0699L36.9854 9.54797C37.8171 9.78609 38.5487 10.2885 39.0695 10.9794C39.5903 11.6702 39.872 12.5118 39.872 13.3769C39.872 14.2421 39.5903 15.0837 39.0695 15.7745C38.5487 16.4653 37.8171 16.9678 36.9854 17.2059L31.8022 18.684L30.3242 23.8673C30.0861 24.699 29.5836 25.4306 28.8928 25.9514C28.202 26.4722 27.3604 26.7539 26.4953 26.7539C25.6302 26.7539 24.7886 26.4722 24.0978 25.9514C23.407 25.4306 22.9045 24.699 22.6664 23.8673L21.1884 18.684L16.0052 17.2059C15.1735 16.9678 14.4419 16.4653 13.9211 15.7745C13.4003 15.0837 13.1186 14.2421 13.1186 13.3769C13.1186 12.5118 13.4003 11.6702 13.9211 10.9794C14.4419 10.2885 15.1735 9.78609 16.0052 9.54797ZM77.1135 57.3347L71.9303 58.8128L70.4522 63.9961C70.2141 64.8279 69.7117 65.5594 69.0209 66.0802C68.33 66.601 67.4885 66.8827 66.6233 66.8827C65.7582 66.8827 64.9166 66.601 64.2258 66.0802C63.535 65.5594 63.0326 64.8279 62.7944 63.9961L61.3164 58.8128L56.1332 57.3347C55.3015 57.0966 54.5699 56.5942 54.0491 55.9034C53.5284 55.2125 53.2467 54.3709 53.2467 53.5058C53.2467 52.6406 53.5284 51.799 54.0491 51.1082C54.5699 50.4174 55.3015 49.9149 56.1332 49.6768L61.3164 48.1987L62.7944 43.0154C63.0326 42.1837 63.535 41.4521 64.2258 40.9313C64.9166 40.4105 65.7582 40.1288 66.6233 40.1288C67.4885 40.1288 68.33 40.4105 69.0209 40.9313C69.7117 41.4521 70.2141 42.1837 70.4522 43.0154L71.9303 48.1987L77.1135 49.6768C77.9452 49.9149 78.6767 50.4174 79.1975 51.1082C79.7183 51.799 80 52.6406 80 53.5058C80 54.3709 79.7183 55.2125 79.1975 55.9034C78.6767 56.5942 77.9452 57.0966 77.1135 57.3347ZM59.116 8.36083L63.6505 7.06667L64.9513 2.52543C65.163 1.8025 65.6033 1.16764 66.2062 0.715992C66.8091 0.264346 67.5421 0.0202319 68.2953 0.0202319C69.0486 0.0202319 69.7816 0.264346 70.3845 0.715992C70.9874 1.16764 71.4276 1.8025 71.6393 2.52543L72.9335 7.05999L77.4679 8.35414C78.1909 8.56586 78.8257 9.00614 79.2773 9.60903C79.729 10.2119 79.9731 10.9449 79.9731 11.6982C79.9731 12.4515 79.729 13.1845 79.2773 13.7874C78.8257 14.3903 78.1909 14.8306 77.4679 15.0423L72.9335 16.3364L71.6393 20.881C71.4276 21.604 70.9874 22.2388 70.3845 22.6905C69.7816 23.1421 69.0486 23.3862 68.2953 23.3862C67.5421 23.3862 66.8091 23.1421 66.2062 22.6905C65.6033 22.2388 65.163 21.604 64.9513 20.881L63.6572 16.3498L59.116 15.049C58.3931 14.8373 57.7583 14.397 57.3067 13.7941C56.855 13.1912 56.6109 12.4582 56.6109 11.7049C56.6109 10.9516 56.855 10.2186 57.3067 9.61571C57.7583 9.01283 58.3931 8.57254 59.116 8.36083Z" fill="#FF1F70"/>
</svg>
