<svg width="40" height="40" viewBox="0 0 40 40" fill="none" xmlns="http://www.w3.org/2000/svg">
<g clip-path="url(#clip0_295_1243)">
<path d="M40 38.3333C40 39.2533 39.2533 40 38.3333 40H5C2.24333 40 0 37.7567 0 35V1.66667C0 0.746667 0.746667 0 1.66667 0C2.58667 0 3.33333 0.746667 3.33333 1.66667V35C3.33333 35.9183 4.08167 36.6667 5 36.6667H38.3333C39.2533 36.6667 40 37.4133 40 38.3333ZM35 8.33333H28.3333C27.4133 8.33333 26.6667 9.08 26.6667 10C26.6667 10.92 27.4133 11.6667 28.3333 11.6667H34.2717L26.1767 19.5117C25.5483 20.1417 24.45 20.1417 23.8217 19.5117C23.7533 19.445 21.7567 18.0233 21.7567 18.0233C19.86 16.235 16.6283 16.3017 14.82 18.1083L7.17667 25.465C6.51333 26.1033 6.49333 27.1583 7.13167 27.8217C7.46 28.1617 7.895 28.3333 8.33333 28.3333C8.75 28.3333 9.16667 28.1783 9.48833 27.8683L17.155 20.4883C17.7833 19.8583 18.8817 19.8583 19.51 20.4883C19.5783 20.555 21.575 21.9767 21.575 21.9767C23.4733 23.7667 26.7017 23.7033 28.515 21.8867L36.665 13.9867V19.9983C36.665 20.9183 37.4117 21.665 38.3317 21.665C39.2517 21.665 39.9983 20.9183 39.9983 19.9983V13.3317C39.9983 10.575 37.755 8.33167 34.9983 8.33167L35 8.33333Z" fill="#FF1F70"/>
</g>
<defs>
<clipPath id="clip0_295_1243">
<rect width="40" height="40" fill="white"/>
</clipPath>
</defs>
</svg>
