<svg width="65" height="66" viewBox="0 0 65 66" fill="white" xmlns="http://www.w3.org/2000/svg">
<path d="M24.0074 21.3632C20.0562 21.3632 16.8428 18.1498 16.8428 14.1986C16.8428 10.2473 20.0562 7.03394 24.0074 7.03394C27.9586 7.03394 31.172 10.2473 31.172 14.1986C31.172 18.1498 27.9586 21.3632 24.0074 21.3632ZM24.0074 8.91732C21.095 8.91732 18.7262 11.2861 18.7262 14.1986C18.7262 17.111 21.095 19.4798 24.0074 19.4798C26.9199 19.4798 29.2887 17.111 29.2887 14.1986C29.2887 11.2861 26.9199 8.91732 24.0074 8.91732Z" fill="#FBFBFB"/>
<path d="M25.8718 14.5675C25.7942 14.3927 25.6874 14.2277 25.5612 14.1015C25.435 13.9753 25.2894 13.8685 25.134 13.7908C24.9787 13.7132 24.8331 13.6452 24.6777 13.5772L24.2312 13.4122C24.0952 13.3637 23.9787 13.3151 23.872 13.2569C23.7846 13.2083 23.7069 13.1501 23.6584 13.0821C23.6195 13.0336 23.6001 12.9656 23.6001 12.8783C23.6001 12.82 23.6098 12.7715 23.6293 12.7326C23.6487 12.6938 23.6681 12.6647 23.7069 12.6355C23.7458 12.6064 23.804 12.5773 23.8817 12.5579C23.969 12.5385 24.0758 12.519 24.1923 12.519C24.3282 12.519 24.4544 12.5385 24.5709 12.5676C24.6874 12.5967 24.7942 12.6355 24.8913 12.6744C24.9884 12.7132 25.0661 12.752 25.1243 12.7812C25.2214 12.8297 25.2991 12.8588 25.3767 12.8588C25.435 12.8588 25.4932 12.8394 25.5418 12.8103L25.6291 12.7132L25.6486 12.655C25.668 12.6064 25.6777 12.5385 25.6777 12.4802C25.6777 12.422 25.6874 12.3443 25.6874 12.2569C25.6874 12.189 25.6874 12.1307 25.6777 12.0822C25.6777 12.0239 25.668 11.9754 25.6583 11.9366C25.6486 11.8783 25.6291 11.8395 25.6097 11.7909L25.5418 11.6939L25.5223 11.6744C25.4835 11.6356 25.4253 11.5968 25.3476 11.5579C25.2796 11.5094 25.2117 11.4803 25.1243 11.4512C25.0466 11.422 24.9593 11.4026 24.8622 11.3735C24.8428 11.3735 24.8136 11.3638 24.7942 11.3541L24.8622 10.7425C24.8622 10.6842 24.8525 10.6357 24.8428 10.5968L24.7554 10.4609L24.6777 10.4221C24.6292 10.393 24.5612 10.3833 24.4933 10.3735C24.4253 10.3638 24.3477 10.3541 24.2506 10.3541C24.1729 10.3541 24.105 10.3541 24.0564 10.3638C23.9982 10.3735 23.9399 10.3833 23.8914 10.4124C23.8234 10.4415 23.7846 10.4803 23.7555 10.5192L23.7069 10.6162L23.639 11.3347C23.4448 11.3735 23.27 11.422 23.105 11.49C22.8914 11.5774 22.7167 11.6939 22.5711 11.8395C22.4254 11.9851 22.3089 12.1501 22.2313 12.3443C22.1536 12.5385 22.1148 12.752 22.1148 12.9753C22.1148 13.2277 22.1536 13.451 22.2313 13.6355C22.3089 13.8199 22.4157 13.9753 22.5419 14.1112C22.6681 14.2374 22.8138 14.3442 22.9691 14.4316C23.1147 14.5092 23.27 14.5869 23.4254 14.6451L23.8622 14.8102C23.9885 14.8587 24.105 14.9073 24.2117 14.9655C24.2991 15.0141 24.3671 15.0723 24.4253 15.1403C24.4642 15.1888 24.4836 15.2568 24.4836 15.3441C24.4836 15.48 24.435 15.5771 24.3282 15.6645C24.2117 15.7519 24.0079 15.8004 23.736 15.8004C23.5516 15.8004 23.3865 15.781 23.2506 15.7422C23.105 15.7033 22.9885 15.6645 22.8914 15.616C22.7943 15.5674 22.707 15.5286 22.6487 15.4898C22.5516 15.4315 22.4643 15.4024 22.3866 15.4024C22.3186 15.4024 22.2604 15.4218 22.2119 15.4509L22.1051 15.548L22.0857 15.6063C22.0662 15.6548 22.0468 15.7227 22.0468 15.8101C22.0468 15.8781 22.0371 15.9557 22.0371 16.0528C22.0371 16.1887 22.0468 16.2955 22.0662 16.3732C22.0857 16.4703 22.1245 16.5479 22.1827 16.6062C22.2313 16.6547 22.2895 16.6936 22.3672 16.7421C22.4351 16.7809 22.5225 16.8198 22.6099 16.8489C22.6973 16.8877 22.8041 16.9169 22.9108 16.946C22.9691 16.9557 23.0176 16.9751 23.0759 16.9848L23.0079 17.6158C22.9982 17.6838 22.9982 17.7518 23.0273 17.81L23.1147 17.9459L23.1827 17.975C23.2312 18.0042 23.2992 18.0139 23.3671 18.0236C23.4254 18.0333 23.5128 18.043 23.6098 18.043C23.6875 18.043 23.7555 18.043 23.8137 18.0333C23.872 18.0236 23.9205 18.0139 23.969 17.9945C24.037 17.9653 24.0855 17.9265 24.1147 17.8683L24.1535 17.7712L24.2312 17.0042C24.4447 16.9751 24.6583 16.9266 24.8428 16.8489C25.0758 16.7615 25.2894 16.6353 25.4544 16.48C25.6291 16.3247 25.7651 16.1402 25.8621 15.9266C25.9592 15.713 26.0078 15.4703 26.0078 15.2082C25.9883 14.9655 25.9495 14.7422 25.8718 14.5675Z" fill="#FBFBFB"/>
<path d="M24.0081 32.3238C23.4839 32.3238 23.0664 31.9063 23.0664 31.3821V23.868C23.0664 23.3437 23.4839 22.9263 24.0081 22.9263C24.5323 22.9263 24.9498 23.3437 24.9498 23.868V31.3821C24.9498 31.9063 24.5226 32.3238 24.0081 32.3238Z" fill="#FBFBFB"/>
<path d="M24.0082 32.3335C23.7557 32.3335 23.513 32.2267 23.3286 32.0519L21.4646 30.1394C21.1054 29.7705 21.1151 29.1686 21.484 28.8094C21.8529 28.4502 22.4549 28.4599 22.8141 28.8288L23.9985 30.0521L25.1828 28.8288C25.5421 28.4599 26.144 28.4502 26.5129 28.8094C26.8818 29.1686 26.8915 29.7705 26.5323 30.1394L24.6683 32.0519C24.5033 32.2267 24.2606 32.3335 24.0082 32.3335Z" fill="#FBFBFB"/>
<path d="M36.9586 33.0616C33.0074 33.0616 29.7939 29.8482 29.7939 25.8969C29.7939 21.9457 33.0074 18.7323 36.9586 18.7323C40.9098 18.7323 44.1232 21.9457 44.1232 25.8969C44.1232 29.8482 40.9098 33.0616 36.9586 33.0616ZM36.9586 20.6254C34.0461 20.6254 31.6773 22.9942 31.6773 25.9066C31.6773 28.8191 34.0461 31.1879 36.9586 31.1879C39.871 31.1879 42.2398 28.8191 42.2398 25.9066C42.2398 22.9942 39.871 20.6254 36.9586 20.6254Z" fill="#FBFBFB"/>
<path d="M38.823 26.2658C38.7453 26.0911 38.6386 25.926 38.5124 25.7998C38.3861 25.6736 38.2405 25.5668 38.0852 25.4892C37.9299 25.4115 37.7842 25.3436 37.6289 25.2756L37.1823 25.1106C37.0464 25.062 36.9299 25.0135 36.8231 24.9552C36.7358 24.9067 36.6581 24.8484 36.6095 24.7805C36.5707 24.7319 36.5513 24.664 36.5513 24.5766C36.5513 24.5184 36.561 24.4698 36.5804 24.431C36.5998 24.3922 36.6193 24.363 36.6581 24.3339C36.6969 24.3048 36.7552 24.2757 36.8328 24.2562C36.9202 24.2368 37.027 24.2174 37.1435 24.2174C37.2794 24.2174 37.4056 24.2368 37.5221 24.2659C37.6386 24.2951 37.7454 24.3339 37.8425 24.3727C37.9396 24.4116 38.0172 24.4504 38.0755 24.4795C38.1726 24.5281 38.2502 24.5572 38.3279 24.5572C38.3861 24.5572 38.4444 24.5378 38.4929 24.5087L38.5803 24.4116L38.5997 24.3533C38.6191 24.3048 38.6288 24.2368 38.6288 24.1786C38.6288 24.1203 38.6386 24.0427 38.6386 23.9553C38.6386 23.8873 38.6386 23.8291 38.6288 23.7805C38.6288 23.7223 38.6191 23.6737 38.6094 23.6349C38.5997 23.5767 38.5803 23.5378 38.5609 23.4893L38.4929 23.3922L38.4735 23.3728C38.4347 23.334 38.3764 23.2951 38.2988 23.2563C38.2308 23.2272 38.1629 23.198 38.0755 23.1689C37.9978 23.1398 37.9104 23.1204 37.8134 23.0913C37.7939 23.0913 37.7648 23.0816 37.7454 23.0718L37.8134 22.4602C37.8134 22.402 37.8037 22.3534 37.7939 22.3146L37.7066 22.1787L37.6289 22.1399C37.5804 22.1107 37.5124 22.101 37.4444 22.0913C37.3765 22.0816 37.2988 22.0719 37.2017 22.0719C37.1241 22.0719 37.0561 22.0719 37.0076 22.0816C36.9493 22.0913 36.8911 22.101 36.8425 22.1301C36.7746 22.1593 36.7358 22.1981 36.7066 22.2369L36.6581 22.334L36.5901 23.0524C36.396 23.0816 36.2212 23.1301 36.0562 23.198C35.8426 23.2854 35.6679 23.4019 35.5222 23.5475C35.3766 23.6932 35.2601 23.8582 35.1824 24.0524C35.1048 24.2465 35.0659 24.4601 35.0659 24.6834C35.0659 24.9358 35.1048 25.1591 35.1824 25.3436C35.2601 25.528 35.3669 25.6833 35.4931 25.8193C35.6193 25.9455 35.7649 26.0523 35.9203 26.1396C36.0659 26.2173 36.2212 26.295 36.3766 26.3532L36.8134 26.5182C36.9396 26.5668 37.0561 26.6153 37.1629 26.6736C37.2503 26.7221 37.3182 26.7804 37.3765 26.8483C37.4153 26.8969 37.4347 26.9648 37.4347 27.0522C37.4347 27.1881 37.3862 27.2852 37.2794 27.3726C37.1629 27.4599 36.959 27.5085 36.6872 27.5085C36.5028 27.5085 36.3377 27.4891 36.2018 27.4502C36.0562 27.4114 35.9397 27.3726 35.8426 27.324C35.7455 27.2755 35.6581 27.2367 35.5999 27.1978C35.5028 27.1396 35.4154 27.1104 35.3378 27.1104C35.2698 27.1104 35.2116 27.1299 35.163 27.159L35.0562 27.2561L35.0368 27.3143C35.0174 27.3629 34.998 27.4308 34.998 27.5182C34.9883 27.5861 34.9883 27.6638 34.9883 27.7609C34.9883 27.8968 34.998 28.0036 35.0174 28.0813C35.0368 28.1783 35.0757 28.256 35.1339 28.3143C35.1824 28.3628 35.2407 28.4016 35.3184 28.4502C35.3863 28.489 35.4737 28.5278 35.5611 28.557C35.6484 28.5958 35.7552 28.6249 35.862 28.654C35.9203 28.6638 35.9688 28.6832 36.0271 28.6929L35.9591 29.3239C35.9494 29.3919 35.9494 29.4598 35.9785 29.5181L36.0659 29.654L36.1338 29.6831C36.1824 29.7122 36.2503 29.7219 36.3183 29.7317C36.3765 29.7414 36.4639 29.7511 36.561 29.7511C36.6387 29.7511 36.7066 29.7414 36.7649 29.7414C36.8231 29.7317 36.8717 29.7219 36.9202 29.7025C36.9882 29.6734 37.0367 29.6346 37.0658 29.5763L37.1047 29.4792L37.1823 28.7123C37.3959 28.6832 37.6095 28.6346 37.7939 28.557C38.0269 28.4696 38.2405 28.3434 38.4056 28.1881C38.5803 28.0327 38.7162 27.8483 38.8133 27.6347C38.9104 27.4211 38.9589 27.1784 38.9589 26.9163C38.9395 26.6639 38.9007 26.4503 38.823 26.2658Z" fill="#FBFBFB"/>
<path d="M36.9593 44.0319C36.435 44.0319 36.0176 43.6144 36.0176 43.0902V35.576C36.0176 35.0518 36.435 34.6343 36.9593 34.6343C37.4835 34.6343 37.901 35.0518 37.901 35.576V43.0902C37.901 43.6047 37.4738 44.0319 36.9593 44.0319Z" fill="#FBFBFB"/>
<path d="M36.9593 44.0318C36.7069 44.0318 36.4642 43.925 36.2798 43.7503L34.4158 41.8378C34.0566 41.4689 34.0663 40.867 34.4352 40.5078C34.8041 40.1486 35.406 40.1583 35.7652 40.5272L36.9496 41.7504L38.134 40.5272C38.4932 40.1583 39.0951 40.1486 39.464 40.5078C39.833 40.867 39.8427 41.4689 39.4835 41.8378L37.6195 43.7503C37.4544 43.925 37.2117 44.0318 36.9593 44.0318Z" fill="#FBFBFB"/>
<path d="M55.7252 16.6645C51.774 16.6645 48.5605 13.4511 48.5605 9.49984C48.5605 5.54861 51.774 2.33521 55.7252 2.33521C59.6764 2.33521 62.8898 5.54861 62.8898 9.49984C62.8801 13.4511 59.6667 16.6645 55.7252 16.6645ZM55.7252 4.2283C52.8127 4.2283 50.4439 6.5971 50.4439 9.50955C50.4439 12.422 52.8127 14.7908 55.7252 14.7908C58.6376 14.7908 61.0064 12.422 61.0064 9.50955C61.0064 6.5971 58.6279 4.2283 55.7252 4.2283Z" fill="#FBFBFB"/>
<path d="M57.5896 9.86874C57.5119 9.69399 57.4051 9.52896 57.2789 9.40275C57.1527 9.27654 57.0071 9.16975 56.8517 9.09209C56.6964 9.01442 56.5508 8.94647 56.3954 8.87851L55.9489 8.71347C55.813 8.66493 55.6965 8.61639 55.5897 8.55814C55.5023 8.5096 55.4246 8.45135 55.3761 8.38339C55.3276 8.33485 55.3081 8.26689 55.3081 8.17952C55.3081 8.12127 55.3178 8.07273 55.3373 8.0339C55.3567 7.99506 55.3761 7.96594 55.4149 7.93681C55.4538 7.90769 55.512 7.87857 55.5897 7.85915C55.677 7.83973 55.7838 7.82032 55.9003 7.82032C56.0362 7.82032 56.1625 7.83973 56.279 7.86886C56.3955 7.89798 56.5022 7.93681 56.5993 7.97565C56.6964 8.01448 56.7741 8.05331 56.8323 8.08244C56.9294 8.13098 57.0071 8.1601 57.0847 8.1601C57.143 8.1601 57.2012 8.14069 57.2498 8.11156L57.3371 8.01448L57.3566 7.95623C57.376 7.90769 57.3857 7.83973 57.3857 7.78148C57.3954 7.72323 57.3954 7.64557 57.3954 7.5582C57.3954 7.49024 57.3954 7.43199 57.3857 7.38345C57.3857 7.3252 57.376 7.27666 57.3663 7.23783C57.3566 7.17958 57.3371 7.14074 57.3177 7.0922L57.2498 6.99512L57.2304 6.9757C57.1915 6.93687 57.1333 6.89804 57.0459 6.85921C56.9779 6.83008 56.91 6.80096 56.8226 6.77183C56.7449 6.74271 56.6576 6.72329 56.5605 6.69417C56.5411 6.69417 56.512 6.68446 56.4925 6.67475L56.5605 6.06314C56.5605 6.00489 56.5508 5.95635 56.5411 5.91751L56.4537 5.7816L56.376 5.74277C56.3372 5.71364 56.279 5.69422 56.211 5.68452C56.143 5.67481 56.0654 5.6651 55.9683 5.6651C55.8906 5.6651 55.8227 5.6651 55.7741 5.67481C55.7159 5.68452 55.6576 5.69422 55.6091 5.72335C55.5411 5.75247 55.5023 5.79131 55.4732 5.83014L55.4246 5.92722L55.3567 6.64563C55.1625 6.67475 54.9878 6.72329 54.8227 6.79125C54.6091 6.87862 54.4344 6.99512 54.2888 7.14074C54.1432 7.28637 54.0267 7.45141 53.949 7.64557C53.8713 7.83973 53.8325 8.05331 53.8325 8.2766C53.8325 8.52901 53.8713 8.7523 53.949 8.93676C54.0267 9.12121 54.1334 9.27654 54.2596 9.41246C54.3859 9.53866 54.5315 9.64545 54.6868 9.73283C54.8324 9.81049 54.9878 9.88816 55.1431 9.94641L55.5703 10.1114C55.6965 10.16 55.813 10.2085 55.9198 10.2668C56.0071 10.3153 56.0751 10.3736 56.1333 10.4415C56.1722 10.4901 56.1916 10.558 56.1916 10.6454C56.1916 10.7813 56.143 10.8784 56.0362 10.9658C55.9197 11.0531 55.7159 11.1017 55.444 11.1017C55.2596 11.1017 55.0946 11.0823 54.9586 11.0434C54.813 11.0046 54.6965 10.9658 54.5994 10.9172C54.5024 10.8687 54.415 10.8299 54.3567 10.791C54.2597 10.7328 54.1723 10.7036 54.0946 10.7036C54.0267 10.7036 53.9684 10.7231 53.9199 10.7522L53.8131 10.8493L53.7937 10.9075C53.7742 10.9561 53.7548 11.024 53.7548 11.1114C53.7548 11.1793 53.7451 11.257 53.7451 11.3541C53.7451 11.49 53.7548 11.5968 53.7742 11.6745C53.7937 11.7715 53.8325 11.8492 53.8907 11.9075C53.9393 11.956 53.9975 11.9948 54.0752 12.0434C54.1432 12.0822 54.2305 12.121 54.3179 12.1502C54.4053 12.189 54.5121 12.2181 54.6189 12.2472C54.6771 12.257 54.7256 12.2764 54.7839 12.2861L54.7159 12.9171C54.7062 12.9851 54.7062 13.053 54.7354 13.1113L54.8227 13.2472L54.8907 13.2763C54.9392 13.3054 55.0072 13.3151 55.0751 13.3249C55.1334 13.3346 55.2208 13.3443 55.3178 13.3443C55.3955 13.3443 55.4635 13.3443 55.5217 13.3346C55.58 13.3249 55.6285 13.3151 55.677 13.2957C55.745 13.2666 55.7935 13.2278 55.8227 13.1695L55.8615 13.0724L55.9392 12.3055C56.1527 12.2764 56.3663 12.2278 56.5508 12.1502C56.7838 12.0628 56.9974 11.9366 57.1624 11.7813C57.3371 11.6259 57.4731 11.4415 57.5701 11.2279C57.6672 11.0143 57.7158 10.7716 57.7158 10.5095C57.7061 10.2668 57.6672 10.0532 57.5896 9.86874Z" fill="#FBFBFB"/>
<path d="M55.7142 27.6347C55.1899 27.6347 54.7725 27.2172 54.7725 26.693V19.1789C54.7725 18.6546 55.1899 18.2372 55.7142 18.2372C56.2384 18.2372 56.6558 18.6546 56.6558 19.1789V26.693C56.6558 27.2075 56.2384 27.6347 55.7142 27.6347Z" fill="#FBFBFB"/>
<path d="M55.724 27.6347C55.4716 27.6347 55.2289 27.5279 55.0444 27.3531L53.1804 25.4406C52.8212 25.0717 52.8309 24.4698 53.1999 24.1106C53.5688 23.7514 54.1707 23.7611 54.5299 24.13L55.7143 25.3533L56.8987 24.13C57.2579 23.7611 57.8598 23.7514 58.2287 24.1106C58.5976 24.4698 58.6073 25.0717 58.2481 25.4406L56.3841 27.3531C56.2191 27.5279 55.9764 27.6347 55.724 27.6347Z" fill="#FBFBFB"/>
<path d="M55.725 36.0129C53.9484 36.0129 52.4922 34.5664 52.4922 32.7801C52.4922 31.0035 53.9387 29.5472 55.725 29.5472C57.5016 29.5472 58.9578 30.9938 58.9578 32.7801C58.9481 34.5567 57.5016 36.0129 55.725 36.0129ZM55.725 31.4306C54.9872 31.4306 54.3756 32.0325 54.3756 32.7801C54.3756 33.5179 54.9775 34.1295 55.725 34.1295C56.4628 34.1295 57.0744 33.5276 57.0744 32.7801C57.0647 32.0422 56.4628 31.4306 55.725 31.4306Z" fill="#FBFBFB"/>
<path d="M36.9584 54.6817C35.1818 54.6817 33.7256 53.2352 33.7256 51.4489C33.7256 49.6723 35.1721 48.2161 36.9584 48.2161C38.7447 48.2161 40.1912 49.6626 40.1912 51.4489C40.1815 53.2352 38.735 54.6817 36.9584 54.6817ZM36.9584 50.1092C36.2206 50.1092 35.609 50.7111 35.609 51.4586C35.609 52.1964 36.2109 52.808 36.9584 52.808C37.6962 52.808 38.3078 52.2061 38.3078 51.4586C38.3078 50.7111 37.6962 50.1092 36.9584 50.1092Z" fill="#FBFBFB"/>
<path d="M24.0082 43.6144C22.2316 43.6144 20.7754 42.1679 20.7754 40.3816C20.7754 38.605 22.2219 37.1487 24.0082 37.1487C25.7848 37.1487 27.241 38.5953 27.241 40.3816C27.241 42.1679 25.7848 43.6144 24.0082 43.6144ZM24.0082 39.0418C23.2704 39.0418 22.6588 39.6437 22.6588 40.3913C22.6588 41.1291 23.2607 41.7407 24.0082 41.7407C24.7557 41.7407 25.3577 41.1388 25.3577 40.3913C25.3577 39.6437 24.746 39.0418 24.0082 39.0418Z" fill="#FBFBFB"/>
<path d="M12.3871 55.2933C10.6105 55.2933 9.1543 53.8468 9.1543 52.0605C9.1543 50.2839 10.6008 48.8277 12.3871 48.8277C14.1734 48.8277 15.6199 50.2742 15.6199 52.0605C15.6199 53.8468 14.1734 55.2933 12.3871 55.2933ZM12.3871 50.7208C11.6493 50.7208 11.0377 51.3227 11.0377 52.0702C11.0377 52.8081 11.6396 53.4197 12.3871 53.4197C13.1249 53.4197 13.7366 52.8178 13.7366 52.0702C13.7366 51.3227 13.1347 50.7208 12.3871 50.7208Z" fill="#FBFBFB"/>
<path d="M14.008 51.4004C13.4838 51.4004 13.0566 50.9829 13.0566 50.4587C13.0566 50.1674 13.1926 49.8956 13.4061 49.7306L21.726 41.3427C21.9008 41.1679 22.1435 41.0612 22.3959 41.0612C22.9202 41.0612 23.3376 41.4786 23.3376 42.0028C23.3376 42.2941 23.2017 42.5562 22.9978 42.731L14.6779 51.1188C14.4935 51.3033 14.2605 51.4004 14.008 51.4004Z" fill="#FBFBFB"/>
<path d="M38.5696 50.779C38.3269 50.779 38.0842 50.6819 37.8997 50.4975C37.5308 50.1286 37.5308 49.5364 37.8997 49.1675L53.4328 33.7315C53.8017 33.3625 54.3939 33.3625 54.7628 33.7315C55.1317 34.1004 55.1317 34.6926 54.7628 35.0615L39.2297 50.4975C39.055 50.6819 38.8123 50.779 38.5696 50.779Z" fill="#FBFBFB"/>
<path d="M35.211 50.9149C34.9974 50.9149 34.7741 50.8373 34.5993 50.6917L25.1242 42.595C24.7261 42.2553 24.6776 41.6631 25.0174 41.265C25.3571 40.867 25.9493 40.8282 26.3474 41.1582L35.8226 49.2549C36.2206 49.5946 36.2691 50.1868 35.9294 50.5849C35.7449 50.8082 35.4731 50.9149 35.211 50.9149Z" fill="#FBFBFB"/>
<path d="M10.4173 64.4773C9.89304 64.4773 9.47559 64.0598 9.47559 63.5356V61.1571C9.47559 60.6328 9.89304 60.2154 10.4173 60.2154C10.9415 60.2154 11.359 60.6328 11.359 61.1571V63.5356C11.359 64.0598 10.9318 64.4773 10.4173 64.4773Z" fill="#FBFBFB"/>
<path d="M16.7171 64.4773C16.1928 64.4773 15.7754 64.0598 15.7754 63.5356V61.1571C15.7754 60.6328 16.1928 60.2154 16.7171 60.2154C17.2413 60.2154 17.6588 60.6328 17.6588 61.1571V63.5356C17.6588 64.0598 17.2413 64.4773 16.7171 64.4773Z" fill="#FBFBFB"/>
<path d="M23.0276 64.4773C22.5034 64.4773 22.0859 64.0598 22.0859 63.5356V61.1571C22.0859 60.6328 22.5034 60.2154 23.0276 60.2154C23.5519 60.2154 23.9693 60.6328 23.9693 61.1571V63.5356C23.9693 64.0598 23.5422 64.4773 23.0276 64.4773Z" fill="#FBFBFB"/>
<path d="M29.3284 64.4773C28.8042 64.4773 28.3867 64.0598 28.3867 63.5356V61.1571C28.3867 60.6328 28.8042 60.2154 29.3284 60.2154C29.8527 60.2154 30.2701 60.6328 30.2701 61.1571V63.5356C30.2701 64.0598 29.8527 64.4773 29.3284 64.4773Z" fill="#FBFBFB"/>
<path d="M35.638 64.4773C35.1137 64.4773 34.6963 64.0598 34.6963 63.5356V61.1571C34.6963 60.6328 35.1137 60.2154 35.638 60.2154C36.1622 60.2154 36.5797 60.6328 36.5797 61.1571V63.5356C36.5797 64.0598 36.1525 64.4773 35.638 64.4773Z" fill="#FBFBFB"/>
<path d="M41.9388 64.4773C41.4145 64.4773 40.9971 64.0598 40.9971 63.5356V61.1571C40.9971 60.6328 41.4145 60.2154 41.9388 60.2154C42.463 60.2154 42.8805 60.6328 42.8805 61.1571V63.5356C42.8805 64.0598 42.463 64.4773 41.9388 64.4773Z" fill="#FBFBFB"/>
<path d="M48.2493 64.4773C47.7251 64.4773 47.3076 64.0598 47.3076 63.5356V61.1571C47.3076 60.6328 47.7251 60.2154 48.2493 60.2154C48.7736 60.2154 49.191 60.6328 49.191 61.1571V63.5356C49.191 64.0598 48.7638 64.4773 48.2493 64.4773Z" fill="#FBFBFB"/>
<path d="M54.5501 64.4773C54.0259 64.4773 53.6084 64.0598 53.6084 63.5356V61.1571C53.6084 60.6328 54.0259 60.2154 54.5501 60.2154C55.0743 60.2154 55.4918 60.6328 55.4918 61.1571V63.5356C55.4918 64.0598 55.0743 64.4773 54.5501 64.4773Z" fill="#FBFBFB"/>
<path d="M59.2778 64.4773H4.01884C3.4946 64.4773 3.07715 64.0598 3.07715 63.5356C3.07715 63.0113 3.4946 62.5939 4.01884 62.5939H59.2875C59.8118 62.5939 60.2292 63.0113 60.2292 63.5356C60.2195 64.0598 59.802 64.4773 59.2778 64.4773Z" fill="#FBFBFB"/>
<path d="M6.39735 15.6063H4.01884C3.4946 15.6063 3.07715 15.1888 3.07715 14.6646C3.07715 14.1404 3.4946 13.7229 4.01884 13.7229H6.39735C6.92159 13.7229 7.33904 14.1404 7.33904 14.6646C7.33904 15.1888 6.91188 15.6063 6.39735 15.6063Z" fill="#FBFBFB"/>
<path d="M6.39735 21.9166H4.01884C3.4946 21.9166 3.07715 21.4991 3.07715 20.9749C3.07715 20.4507 3.4946 20.0332 4.01884 20.0332H6.39735C6.92159 20.0332 7.33904 20.4507 7.33904 20.9749C7.33904 21.4991 6.91188 21.9166 6.39735 21.9166Z" fill="#FBFBFB"/>
<path d="M6.39735 28.2172H4.01884C3.4946 28.2172 3.07715 27.7997 3.07715 27.2755C3.07715 26.7513 3.4946 26.3338 4.01884 26.3338H6.39735C6.92159 26.3338 7.33904 26.7513 7.33904 27.2755C7.33904 27.7997 6.91188 28.2172 6.39735 28.2172Z" fill="#FBFBFB"/>
<path d="M6.39735 34.5275H4.01884C3.4946 34.5275 3.07715 34.11 3.07715 33.5858C3.07715 33.0616 3.4946 32.6441 4.01884 32.6441H6.39735C6.92159 32.6441 7.33904 33.0616 7.33904 33.5858C7.33904 34.1003 6.91188 34.5275 6.39735 34.5275Z" fill="#FBFBFB"/>
<path d="M6.39735 40.8281H4.01884C3.4946 40.8281 3.07715 40.4106 3.07715 39.8864C3.07715 39.3622 3.4946 38.9447 4.01884 38.9447H6.39735C6.92159 38.9447 7.33904 39.3622 7.33904 39.8864C7.33904 40.4106 6.91188 40.8281 6.39735 40.8281Z" fill="#FBFBFB"/>
<path d="M6.39735 47.1385H4.01884C3.4946 47.1385 3.07715 46.721 3.07715 46.1968C3.07715 45.6725 3.4946 45.2551 4.01884 45.2551H6.39735C6.92159 45.2551 7.33904 45.6725 7.33904 46.1968C7.33904 46.721 6.91188 47.1385 6.39735 47.1385Z" fill="#FBFBFB"/>
<path d="M6.39735 53.4391H4.01884C3.4946 53.4391 3.07715 53.0216 3.07715 52.4974C3.07715 51.9731 3.4946 51.5557 4.01884 51.5557H6.39735C6.92159 51.5557 7.33904 51.9731 7.33904 52.4974C7.33904 53.0216 6.91188 53.4391 6.39735 53.4391Z" fill="#FBFBFB"/>
<path d="M6.39735 59.7494H4.01884C3.4946 59.7494 3.07715 59.3319 3.07715 58.8077C3.07715 58.2834 3.4946 57.866 4.01884 57.866H6.39735C6.92159 57.866 7.33904 58.2834 7.33904 58.8077C7.33904 59.3222 6.91188 59.7494 6.39735 59.7494Z" fill="#FBFBFB"/>
<path d="M4.01884 64.4772C3.4946 64.4772 3.07715 64.0598 3.07715 63.5355V3.32542C3.07715 2.80118 3.4946 2.38373 4.01884 2.38373C4.54308 2.38373 4.96054 2.80118 4.96054 3.32542V63.5355C4.96054 64.0598 4.53338 64.4772 4.01884 64.4772Z" fill="#FBFBFB"/>
<path d="M6.39735 9.30569H4.01884C3.4946 9.30569 3.07715 8.87853 3.07715 8.364C3.07715 7.83975 3.4946 7.4223 4.01884 7.4223H6.39735C6.92159 7.4223 7.33904 7.83975 7.33904 8.364C7.33904 8.87853 6.91188 9.30569 6.39735 9.30569Z" fill="#FBFBFB"/>
</svg>
