<svg width="65" height="65" viewBox="0 0 65 65" fill="white" xmlns="http://www.w3.org/2000/svg">
  <path d="M35.8377 43.8108L34.1737 37.6331L26.7004 50.5089C26.5128 50.8322 26.1685 51.0223 25.8065 51.0223C25.7178 51.0223 25.628 51.0109 25.5392 50.9873C25.0879 50.8669 24.7741 50.4601 24.7741 49.9954V33.1803L2.65832 49.9603C2.20503 50.3042 1.55729 50.2175 1.21161 49.7666C0.865806 49.3158 0.953032 48.6714 1.40632 48.3276L25.1803 30.2894C25.4924 30.0526 25.9125 30.0125 26.2641 30.1856C26.616 30.3589 26.8386 30.7154 26.8386 31.1059V46.1635L33.6317 34.4595C33.8405 34.0999 34.2463 33.9012 34.6604 33.9548C35.0743 34.009 35.4147 34.306 35.5228 34.7071L37.0655 40.4341L42.201 28.6499C42.3764 28.2475 42.7903 28.0007 43.2288 28.0346C43.6684 28.0688 44.0374 28.377 44.1476 28.8017L45.0212 32.1685L54.2055 16.3447L52.5741 16.7475C52.0204 16.8835 51.4609 16.5486 51.3236 15.9982C51.1863 15.4478 51.5236 14.8909 52.0769 14.7544L56.065 13.77C56.6187 13.6333 57.1782 13.969 57.3155 14.5193L58.3052 18.4864C58.4424 19.0367 58.1052 19.5937 57.5519 19.7302C56.9981 19.8664 56.4387 19.5313 56.3014 18.9809L55.928 17.4844L45.5466 35.3704C45.4759 35.4924 45.3837 35.5943 45.2778 35.6745C45.177 35.7508 45.0604 35.8098 44.9314 35.8457L44.9294 35.8462C44.9138 35.8506 44.8982 35.8544 44.8823 35.858L44.8806 35.8584C44.7572 35.8862 44.6334 35.8909 44.5143 35.8748L44.5133 35.8747C44.4012 35.8596 44.2901 35.8258 44.1844 35.7721C44.1544 35.757 44.1253 35.7403 44.097 35.7225L44.0954 35.7215C43.9941 35.657 43.9077 35.5774 43.8375 35.4876L43.8366 35.4864C43.7566 35.3839 43.6951 35.2645 43.6581 35.1321L43.6578 35.1308L43.6575 35.1296C43.6559 35.1235 43.6542 35.1173 43.6526 35.1111L43 30.5L37.7821 43.9536C37.6074 44.3544 37.1965 44.6016 36.7591 44.5691C36.3209 44.5369 35.9514 44.2327 35.8377 43.8108ZM1 38.2188V29.2796C1 28.7125 1.46219 28.2528 2.03226 28.2528H3.24671V25.1305C3.24671 24.5635 3.7089 24.1037 4.27897 24.1037C4.84903 24.1037 5.31123 24.5635 5.31123 25.1305V28.2528H6.52568C7.09574 28.2528 7.55794 28.7125 7.55794 29.2796V38.2188C7.55794 38.7858 7.09574 39.2456 6.52568 39.2456H5.31123V42.3678C5.31123 42.9348 4.84903 43.3946 4.27897 43.3946C3.7089 43.3946 3.24671 42.9348 3.24671 42.3678V39.2456H2.03226C1.46219 39.2456 1 38.7858 1 38.2188ZM3.06452 37.192H5.49329V30.3064H3.06452V37.192ZM58.0872 47.3064C58.0872 51.7265 54.4721 55.3224 50.0285 55.3224C45.5849 55.3224 41.9699 51.7264 41.9699 47.3064C41.9699 42.8865 45.585 39.2903 50.0285 39.2903C54.472 39.2903 58.0872 42.8863 58.0872 47.3064ZM56.0227 47.3064C56.0227 44.0188 53.3338 41.3439 50.0285 41.3439C46.7234 41.3439 44.0345 44.0186 44.0345 47.3064C44.0345 50.5941 46.7234 53.2688 50.0285 53.2688C53.3337 53.2688 56.0227 50.5941 56.0227 47.3064ZM50.2023 46.2681C49.0627 46.0818 49.0455 45.7288 49.0399 45.6126C49.0164 45.1317 49.5578 44.9718 49.7243 44.9343C50.1138 44.8464 50.8512 44.8836 51.1454 45.5808C51.3661 46.1035 51.971 46.3497 52.4968 46.13C53.0224 45.9105 53.2695 45.3087 53.0489 44.7858C52.6721 43.8931 51.9414 43.2611 51.0608 42.9898V42.8836C51.0608 42.3166 50.5986 41.8568 50.0285 41.8568C49.4585 41.8568 48.9963 42.3166 48.9963 42.8836V43.004C47.7178 43.4004 46.9165 44.4591 46.9777 45.7122C47.0164 46.5066 47.4434 47.8984 49.8677 48.2946C51.1774 48.5084 51.2252 48.8994 51.2455 49.0662C51.2652 49.2275 51.2221 49.2924 51.1763 49.345C50.9996 49.5482 50.5452 49.7034 50.0955 49.714C49.5808 49.7234 48.9244 49.5304 48.7759 48.938C48.6381 48.3879 48.0779 48.0527 47.5246 48.1901C46.9715 48.3272 46.6348 48.8845 46.7728 49.4347C47.0445 50.5194 47.8855 51.3198 48.9961 51.6285V51.729C48.9961 52.296 49.4583 52.7558 50.0284 52.7558C50.5984 52.7558 51.0606 52.296 51.0606 51.729V51.6467C51.7459 51.479 52.341 51.1444 52.7377 50.6882C53.1883 50.1701 53.3809 49.5235 53.2948 48.8185C53.1259 47.4336 52.0854 46.5755 50.2023 46.2681ZM64.6031 33.4574L61.2212 30.8303C60.7719 30.4813 60.1232 30.5606 59.7723 31.0075C59.4214 31.4545 59.5012 32.0998 59.9505 32.4488L60.9688 33.2398H52.0925C51.5225 33.2398 51.0603 33.6996 51.0603 34.2666C51.0603 34.8337 51.5225 35.2934 52.0925 35.2934H60.9686L59.9505 36.0843C59.5012 36.4333 59.4213 37.0786 59.7723 37.5255C59.9759 37.7848 60.2796 37.9205 60.5866 37.9205C60.8088 37.9205 61.0325 37.8494 61.2212 37.7029L64.6031 35.076C64.8535 34.8814 65 34.5829 65 34.2667C65 33.9506 64.8535 33.6521 64.6031 33.4574ZM47.9645 59.3195H39.0883L40.1066 58.5284C40.5559 58.1795 40.6357 57.5341 40.2848 57.0872C39.9338 56.6403 39.285 56.5608 38.8359 56.91L35.4541 59.537C35.2036 59.7316 35.0572 60.0301 35.0572 60.3463C35.0572 60.6624 35.2036 60.9609 35.4541 61.1555L38.8359 63.7824C39.0245 63.929 39.2483 64 39.4705 64C39.7773 64 40.0812 63.8643 40.2848 63.6051C40.6356 63.1582 40.5559 62.5128 40.1066 62.1638L39.0884 61.3729H47.9646C48.5347 61.3729 48.9969 60.9132 48.9969 60.3461C48.9969 59.7791 48.5347 59.3195 47.9645 59.3195ZM9.0551 28.5025V19.5634C9.0551 18.9963 9.51729 18.5366 10.0874 18.5366H11.3018V15.4143C11.3018 14.8473 11.764 14.3875 12.3341 14.3875C12.9041 14.3875 13.3663 14.8473 13.3663 15.4143V18.5366H14.5808C15.1508 18.5366 15.613 18.9963 15.613 19.5634V28.5025C15.613 29.0696 15.1508 29.5293 14.5808 29.5293H13.3663V32.6515C13.3663 33.2185 12.9041 33.6782 12.3341 33.6782C11.764 33.6782 11.3018 33.2185 11.3018 32.6515V29.5293H10.0874C9.51729 29.5293 9.0551 29.0697 9.0551 28.5025ZM11.1196 27.4757H13.5484V20.5902H11.1196V27.4757ZM17.1102 19.5178V10.5786C17.1102 10.0116 17.5724 9.55182 18.1425 9.55182H19.3569V6.42958C19.3569 5.86253 19.8191 5.40278 20.3892 5.40278C20.9592 5.40278 21.4214 5.86253 21.4214 6.42958V9.55182H22.6359C23.2059 9.55182 23.6681 10.0116 23.6681 10.5786V19.5178C23.6681 20.0848 23.2059 20.5446 22.6359 20.5446H21.4214V23.6667C21.4214 24.2338 20.9592 24.6935 20.3892 24.6935C19.8191 24.6935 19.3569 24.2338 19.3569 23.6667V20.5446H18.1425C17.5724 20.5446 17.1102 20.0848 17.1102 19.5178ZM19.1747 18.491H21.6035V11.6054H19.1747V18.491ZM25.1653 23.3684V14.4292C25.1653 13.8622 25.6275 13.4024 26.1975 13.4024H27.412V10.2802C27.412 9.71316 27.8742 9.25341 28.4443 9.25341C29.0143 9.25341 29.4765 9.71316 29.4765 10.2802V13.4024H30.691C31.261 13.4024 31.7232 13.8622 31.7232 14.4292V23.3684C31.7232 23.9355 31.261 24.3952 30.691 24.3952H29.4765V27.5173C29.4765 28.0844 29.0143 28.5441 28.4443 28.5441C27.8742 28.5441 27.412 28.0844 27.412 27.5173V24.3952H26.1975C25.6275 24.3952 25.1653 23.9355 25.1653 23.3684ZM27.2298 22.3416H29.6587V15.456H27.2298V22.3416ZM33.2204 18.9656V10.0265C33.2204 9.45941 33.6826 8.99966 34.2526 8.99966H35.4671V5.87742C35.4671 5.31037 35.9293 4.85062 36.4994 4.85062C37.0694 4.85062 37.5316 5.31037 37.5316 5.87742V8.99966H38.7461C39.3161 8.99966 39.7783 9.45941 39.7783 10.0265V18.9656C39.7783 19.5327 39.3161 19.9924 38.7461 19.9924H37.5316V23.1145C37.5316 23.6816 37.0694 24.1413 36.4994 24.1413C35.9293 24.1413 35.4671 23.6816 35.4671 23.1145V19.9924H34.2526C33.6826 19.9924 33.2204 19.5327 33.2204 18.9656ZM35.2849 17.9388H37.7137V11.0533H35.2849V17.9388ZM41.2757 15.115V6.17584C41.2757 5.60879 41.7379 5.14904 42.308 5.14904H43.5225V2.0268C43.5225 1.45975 43.9846 1 44.5547 1C45.1248 1 45.587 1.45975 45.587 2.0268V5.14904H46.8014C47.3715 5.14904 47.8337 5.60879 47.8337 6.17584V15.115C47.8337 15.6821 47.3715 16.1418 46.8014 16.1418H45.587V19.2639C45.587 19.831 45.1248 20.2907 44.5547 20.2907C43.9846 20.2907 43.5225 19.831 43.5225 19.2639V16.1418H42.308C41.7378 16.1418 41.2757 15.6821 41.2757 15.115ZM43.3403 14.0882H45.769V7.20263H43.3403V14.0882Z" currentColor="#141C21" />
</svg>