<svg width="66" height="66" viewBox="0 0 66 66" fill="white" xmlns="http://www.w3.org/2000/svg">
  <g clip-path="url(#clip0_195_504)">
    <path d="M22.3987 17.5828C21.5841 18.1499 20.8106 18.779 20.0991 19.4596C19.8 19.7381 19.7897 20.2124 20.0784 20.5115C20.2228 20.6662 20.4187 20.7384 20.6147 20.7384C20.8003 20.7384 20.9859 20.6662 21.1303 20.5321C21.7903 19.9031 22.5019 19.3153 23.2547 18.7893C23.595 18.5521 23.6672 18.0881 23.4403 17.7581C23.1928 17.4281 22.7391 17.3456 22.3987 17.5828Z" currentColor="#141C21" />
    <path d="M38.5585 11.849H39.9094C40.1879 11.849 40.4044 11.6324 40.4044 11.354C40.4044 11.0756 40.1879 10.859 39.9094 10.859H38.5585C38.28 10.859 38.0635 11.0756 38.0635 11.354C38.0635 11.6324 38.28 11.849 38.5585 11.849Z" currentColor="#141C21" />
    <path d="M41.1054 14.3962C41.3838 14.3962 41.6004 14.1694 41.6004 13.9012V12.5503C41.6004 12.2822 41.3838 12.0553 41.1054 12.0553C40.8269 12.0553 40.6104 12.2822 40.6104 12.5503V13.9012C40.6104 14.1797 40.8372 14.3962 41.1054 14.3962Z" currentColor="#141C21" />
    <path d="M41.1054 10.6528C41.3838 10.6528 41.6004 10.4362 41.6004 10.1578V8.80683C41.6004 8.52839 41.3838 8.31183 41.1054 8.31183C40.8269 8.31183 40.6104 8.52839 40.6104 8.80683V10.1578C40.6104 10.4259 40.8372 10.6528 41.1054 10.6528Z" currentColor="#141C21" />
    <path d="M42.3119 11.849H43.6628C43.9413 11.849 44.1578 11.6324 44.1578 11.354C44.1578 11.0756 43.9413 10.859 43.6628 10.859H42.3119C42.0335 10.859 41.8169 11.0756 41.8169 11.354C41.8169 11.6324 42.0335 11.849 42.3119 11.849Z" currentColor="#141C21" />
    <path d="M58.5336 42.9722C58.2551 42.9722 58.0386 43.1887 58.0386 43.4672C58.0386 43.7456 58.2551 43.9622 58.5336 43.9622H59.8536C60.132 43.9622 60.3486 43.7456 60.3486 43.4672C60.3486 43.1887 60.132 42.9722 59.8536 42.9722H58.5336Z" currentColor="#141C21" />
    <path d="M61.0292 46.4475C61.3076 46.4475 61.5242 46.2309 61.5242 45.9525V44.6325C61.5242 44.354 61.3076 44.1375 61.0292 44.1375C60.7507 44.1375 60.5342 44.354 60.5342 44.6325V45.9525C60.5342 46.2309 60.7507 46.4475 61.0292 46.4475Z" currentColor="#141C21" />
    <path d="M61.0189 42.7866C61.2974 42.7866 61.5139 42.57 61.5139 42.2916V40.9716C61.5139 40.6931 61.2974 40.4766 61.0189 40.4766C60.7405 40.4766 60.5239 40.6931 60.5239 40.9716V42.2916C60.5239 42.57 60.7508 42.7866 61.0189 42.7866Z" currentColor="#141C21" />
    <path d="M62.1947 42.9722C61.9163 42.9722 61.6997 43.1887 61.6997 43.4672C61.6997 43.7456 61.9163 43.9622 62.1947 43.9622H63.5147C63.7931 43.9622 64.0097 43.7456 64.0097 43.4672C64.0097 43.1887 63.7931 42.9722 63.5147 42.9722H62.1947Z" currentColor="#141C21" />
    <path d="M23.7184 57.5231C22.5634 57.5231 21.625 58.4512 21.625 59.5856C21.625 60.7199 22.5634 61.6481 23.7184 61.6481C24.8631 61.6481 25.8016 60.7199 25.8016 59.5856C25.8016 58.4512 24.8734 57.5231 23.7184 57.5231ZM23.7184 60.6581C23.0997 60.6581 22.615 60.1837 22.615 59.5856C22.615 58.9874 23.0997 58.5131 23.7184 58.5131C24.3166 58.5131 24.8116 58.9978 24.8116 59.5856C24.8116 60.1734 24.3269 60.6581 23.7184 60.6581Z" currentColor="#141C21" />
    <path d="M6.25934 26.9878C6.53777 26.9878 6.75434 26.7712 6.75434 26.4928C6.75434 26.2144 6.53777 25.9978 6.25934 25.9978H4.93934C4.6609 25.9978 4.44434 26.2144 4.44434 26.4928C4.44434 26.7712 4.6609 26.9878 4.93934 26.9878H6.25934Z" currentColor="#141C21" />
    <path d="M7.43494 27.1734C7.1565 27.1734 6.93994 27.39 6.93994 27.6684V28.9884C6.93994 29.2668 7.1565 29.4834 7.43494 29.4834C7.71338 29.4834 7.92994 29.2668 7.92994 28.9884V27.6684C7.92994 27.4003 7.70307 27.1734 7.43494 27.1734Z" currentColor="#141C21" />
    <path d="M7.92994 24.0075C7.92994 23.7393 7.71338 23.5125 7.43494 23.5125C7.1565 23.5125 6.93994 23.7393 6.93994 24.0075V25.3275C6.93994 25.5956 7.1565 25.8225 7.43494 25.8225C7.71338 25.8225 7.92994 25.5956 7.92994 25.3275V24.0075Z" currentColor="#141C21" />
    <path d="M9.92047 26.9878C10.1989 26.9878 10.4155 26.7609 10.4155 26.4928C10.4155 26.2144 10.1989 25.9978 9.92047 25.9978H8.60047C8.32203 25.9978 8.10547 26.2247 8.10547 26.4928C8.10547 26.7712 8.32203 26.9878 8.60047 26.9878H9.92047Z" currentColor="#141C21" />
    <path d="M57.3889 49.0462C53.1401 49.0462 49.6339 52.3256 49.2729 56.4815H34.0104V53.1197C44.3332 52.8928 52.6761 44.6325 53.0679 34.3509H57.1929C57.6054 34.3509 57.9354 34.0209 57.9354 33.6084V16.9228C62.1739 16.6443 65.5461 13.1175 65.5461 8.79653C65.5461 4.30028 61.8954 0.649658 57.3992 0.649658C52.9029 0.649658 49.2523 4.30028 49.2523 8.79653C49.2523 12.9731 52.4079 16.4175 56.4607 16.8815V32.8556H53.0782C52.6864 22.6875 44.4879 14.4993 34.3095 14.1075V9.99278C34.3095 9.58028 33.9795 9.25028 33.567 9.25028H16.737C16.5307 4.93966 12.9729 1.48497 8.61074 1.48497C4.11449 1.48497 0.463867 5.1356 0.463867 9.63185C0.463867 14.1281 4.11449 17.7787 8.61074 17.7787C12.7357 17.7787 16.1389 14.7056 16.6751 10.725H32.8245V14.0868C30.1536 14.19 27.5857 14.8087 25.1726 15.9534C24.8014 16.1287 24.6467 16.5722 24.822 16.9434C24.9973 17.3147 25.4407 17.4693 25.812 17.294C28.2457 16.139 30.8548 15.5512 33.567 15.5512C43.5186 15.5512 51.6036 23.6362 51.6139 33.5878V33.6084V33.629C51.6036 43.5703 43.5082 51.6656 33.567 51.6656C23.6154 51.6656 15.5201 43.5703 15.5201 33.6187C15.5201 29.5247 16.8504 25.6678 19.377 22.4606C19.6348 22.1409 19.5729 21.6768 19.2532 21.419C18.9336 21.1612 18.4592 21.2231 18.2117 21.5428C15.4789 25.0181 14.0351 29.1947 14.0351 33.6187C14.0351 33.9281 14.0661 34.2375 14.0867 34.5468H10.0132C9.60074 34.5468 9.27074 34.8768 9.27074 35.2893V49.0875C5.12512 49.469 1.86637 52.9547 1.86637 57.2034C1.86637 61.6997 5.51699 65.3503 10.0132 65.3503C14.5095 65.3503 18.1601 61.6997 18.1601 57.2034C18.1601 52.965 14.9014 49.469 10.7557 49.0875V36.0215H14.2001C15.3551 45.3131 23.0482 52.5834 32.5254 53.0887V57.224C32.5254 57.6365 32.8554 57.9665 33.2679 57.9665H49.2832C49.6751 62.1018 53.1607 65.34 57.3889 65.34C61.8851 65.34 65.5357 61.6893 65.5357 57.1931C65.5357 52.7072 61.8851 49.0462 57.3889 49.0462ZM57.3889 8.6006C56.8114 8.6006 56.337 8.12622 56.337 7.54872C56.337 6.97122 56.8114 6.49685 57.3889 6.49685C57.9664 6.49685 58.4407 6.97122 58.4407 7.54872C58.4407 8.12622 57.9767 8.6006 57.3889 8.6006ZM57.3889 10.3743C59.4926 10.3743 61.2045 12.0862 61.2045 14.2003C61.2045 14.2209 61.2148 14.2312 61.2148 14.2518C60.132 15.015 58.8223 15.4687 57.3889 15.4687C55.9657 15.4687 54.6457 15.015 53.5629 14.2518C53.5629 14.2312 53.5732 14.2209 53.5732 14.2003C53.5732 12.0965 55.2851 10.3743 57.3889 10.3743ZM50.727 8.80685C50.727 5.1356 53.7176 2.14497 57.3889 2.14497C61.0601 2.14497 64.0507 5.1356 64.0507 8.80685C64.0507 10.4053 63.4836 11.8697 62.5451 13.0247C62.1429 11.2818 60.8951 9.87934 59.2554 9.2606C59.6679 8.80684 59.9257 8.20872 59.9257 7.54872C59.9257 6.14622 58.7914 5.01185 57.3889 5.01185C55.9864 5.01185 54.852 6.14622 54.852 7.54872C54.852 8.20872 55.1098 8.80684 55.5223 9.2606C53.8826 9.87934 52.6245 11.2922 52.2326 13.0247C51.2942 11.8697 50.727 10.4053 50.727 8.80685ZM4.7848 15.0872C4.7848 15.0665 4.79512 15.0562 4.79512 15.0356C4.79512 12.9318 6.50699 11.2097 8.61074 11.2097C10.7145 11.2097 12.4264 12.9215 12.4264 15.0356C12.4264 15.0562 12.4367 15.0665 12.4367 15.0872C11.3539 15.8503 10.0339 16.304 8.61074 16.304C7.17731 16.304 5.86762 15.8503 4.7848 15.0872ZM8.61074 9.43591C8.03324 9.43591 7.55887 8.96153 7.55887 8.38403C7.55887 7.80653 8.02293 7.32185 8.61074 7.32185C9.18824 7.32185 9.66262 7.79622 9.66262 8.37372C9.66262 8.95122 9.18824 9.43591 8.61074 9.43591ZM13.767 13.8497C13.3648 12.1068 12.117 10.7043 10.4773 10.0856C10.8898 9.63185 11.1476 9.03372 11.1476 8.37372C11.1476 6.97122 10.0132 5.83685 8.61074 5.83685C7.20824 5.83685 6.07387 6.97122 6.07387 8.37372C6.07387 9.03372 6.33168 9.63185 6.74418 10.0856C5.10449 10.7043 3.84637 12.1172 3.45449 13.8497C2.51605 12.705 1.94887 11.2303 1.94887 9.63185C1.94887 5.9606 4.93949 2.96997 8.61074 2.96997C12.282 2.96997 15.2726 5.9606 15.2726 9.63185C15.2726 11.2303 14.7054 12.705 13.767 13.8497ZM6.1873 62.6381C6.1873 62.6175 6.19762 62.6072 6.19762 62.5865C6.19762 60.4828 7.90949 58.7606 10.0132 58.7606C12.117 58.7606 13.8289 60.4725 13.8289 62.5865C13.8289 62.6072 13.8392 62.6175 13.8392 62.6381C12.7564 63.4012 11.4364 63.855 10.0132 63.855C8.59012 63.855 7.27012 63.4115 6.1873 62.6381ZM10.0236 56.9868C9.44606 56.9868 8.97168 56.5125 8.97168 55.935C8.97168 55.3575 9.44606 54.8831 10.0236 54.8831C10.6011 54.8831 11.0754 55.3575 11.0754 55.935C11.0754 56.5125 10.6011 56.9868 10.0236 56.9868ZM16.6854 57.1931C16.6854 58.7915 16.1182 60.2559 15.1798 61.4109C14.7776 59.6681 13.5298 58.2656 11.8901 57.6468C12.3026 57.1931 12.5604 56.595 12.5604 55.935C12.5604 54.5325 11.4261 53.3981 10.0236 53.3981C8.62106 53.3981 7.48668 54.5325 7.48668 55.935C7.48668 56.595 7.74449 57.1931 8.15699 57.6468C6.5173 58.2656 5.25918 59.6784 4.8673 61.4109C3.92887 60.2662 3.36168 58.7915 3.36168 57.1931C3.36168 53.5218 6.35231 50.5312 10.0236 50.5312C13.6948 50.5312 16.6854 53.5218 16.6854 57.1931ZM53.5629 62.6381C53.5629 62.6175 53.5732 62.6072 53.5732 62.5865C53.5732 60.4828 55.2851 58.7606 57.3889 58.7606C59.4926 58.7606 61.2045 60.4725 61.2045 62.5865C61.2045 62.6072 61.2148 62.6175 61.2148 62.6381C60.132 63.4012 58.812 63.855 57.3889 63.855C55.9657 63.855 54.6457 63.4115 53.5629 62.6381ZM57.3889 56.9868C56.8114 56.9868 56.337 56.5125 56.337 55.935C56.337 55.3575 56.8114 54.8831 57.3889 54.8831C57.9664 54.8831 58.4407 55.3575 58.4407 55.935C58.4511 56.5125 57.9767 56.9868 57.3889 56.9868ZM62.5451 61.4109C62.1429 59.6681 60.8951 58.2656 59.2554 57.6468C59.6679 57.1931 59.9257 56.595 59.9257 55.935C59.9257 54.5325 58.7914 53.3981 57.3889 53.3981C55.9864 53.3981 54.852 54.5325 54.852 55.935C54.852 56.595 55.1098 57.1931 55.5223 57.6468C53.8826 58.2656 52.6245 59.6784 52.2326 61.4109C51.2942 60.2662 50.727 58.7915 50.727 57.1931C50.727 53.5218 53.7176 50.5312 57.3889 50.5312C61.0601 50.5312 64.0507 53.5218 64.0507 57.1931C64.0611 58.7915 63.4939 60.2559 62.5451 61.4109Z" currentColor="#141C21" />
    <path d="M22.7493 36.795L21.1715 42.5803C20.8518 43.7456 21.3056 44.9831 22.3059 45.6637L22.6565 45.9009C22.7803 45.9834 22.9246 46.035 23.0793 46.035H44.4881C44.684 46.035 44.8696 45.9525 45.014 45.8184L45.2409 45.5916C45.9628 44.8697 46.2412 43.8178 45.9731 42.8381L44.3128 36.7537C43.9106 35.5369 42.7865 34.7222 41.5078 34.7222H36.6093C36.6093 34.7016 36.6093 34.6912 36.6093 34.6706V33.1959C37.6303 32.4431 38.4862 31.3397 39.0225 29.9681C39.765 29.6794 40.3218 28.8647 40.3837 27.8953C40.3837 27.8953 40.3837 27.8953 40.3837 27.885C40.4146 27.3694 40.3012 26.8847 40.0743 26.4825C40.3218 25.6575 40.4456 24.8944 40.4456 24.2137C40.4559 24.1106 40.4559 23.9972 40.4559 23.8941C40.4559 20.5322 37.6921 17.7891 34.2993 17.7891C32.175 17.7891 30.2775 18.6244 29.1534 20.0062C29.009 19.965 28.844 19.9444 28.6893 19.9444C28.1221 19.9547 27.6271 20.2847 27.39 20.79C27.225 21.1406 27.0909 21.5737 26.9878 22.0791C26.73 23.3372 26.7506 24.6675 27.0703 26.0287C27.0806 26.0597 27.0806 26.0906 27.0909 26.1216C26.699 26.5547 26.4721 27.1837 26.5134 27.8953C26.5753 28.8647 27.1321 29.6691 27.8746 29.9681C28.4418 31.4016 29.3493 32.5463 30.4425 33.2991V34.6809V34.7325H25.575C24.2962 34.7222 23.1618 35.5369 22.7493 36.795ZM28.6687 21.3675C28.7821 21.6253 29.04 21.7903 29.3184 21.8006C29.5556 21.8109 29.8546 21.6666 29.999 21.4191C30.7209 20.1197 32.4225 19.2741 34.32 19.2741C36.8981 19.2741 38.9915 21.3469 38.9915 23.8941C38.9915 23.9662 38.9915 24.0487 38.9812 24.2137C38.9812 24.6159 38.8987 25.08 38.7853 25.575C38.744 25.5647 38.7028 25.5544 38.6615 25.5544C38.445 25.0388 38.1253 24.585 37.7334 24.2447C36.7021 23.3372 35.3718 22.8319 33.99 22.8319H33.1031C32.1853 22.8319 31.2881 22.5225 30.5559 21.9759C30.2362 21.7284 29.7721 21.7903 29.5246 22.11C29.5246 22.11 29.339 22.3472 29.0709 22.6978C28.7821 23.1 28.5346 23.4609 28.3181 23.8219C28.3181 23.3269 28.3593 22.8525 28.4521 22.3781C28.5346 21.9863 28.6378 21.6459 28.6687 21.3675ZM29.1431 29.1019C29.0503 28.8234 28.7925 28.6275 28.4934 28.6069C28.3181 28.5966 28.0396 28.2769 28.0087 27.8025C27.9881 27.39 28.1634 27.1012 28.3078 27.06C28.3181 27.0497 28.3387 27.0497 28.349 27.0394C28.679 26.9878 28.9368 26.7094 28.9678 26.3691C29.0606 25.3069 29.504 24.6469 30.2671 23.5744L30.2775 23.5641C31.1334 24.0488 32.1131 24.3169 33.1031 24.3169H33.99C35.0006 24.3169 35.9803 24.6881 36.7537 25.3584C37.1662 25.7091 37.3518 26.2144 37.4343 26.565C37.4859 26.7919 37.6715 26.9672 37.8881 27.0703C38.1046 27.1631 38.3728 27.1425 38.579 27.0394C38.5996 27.0394 38.6512 27.0394 38.7337 27.1219C38.8368 27.2353 38.9503 27.4725 38.9296 27.8025C38.8987 28.2769 38.6203 28.5966 38.445 28.6069C38.1459 28.6275 37.8881 28.8234 37.785 29.1122C37.0218 31.35 35.3306 32.8041 33.4743 32.8041C31.6181 32.7937 29.9165 31.3397 29.1431 29.1019ZM33.464 34.2788C34.0415 34.2788 34.5984 34.1756 35.1346 33.99V34.6706C35.1346 35.6297 34.4437 36.4134 33.6084 36.4134H33.464C32.6184 36.4134 31.9378 35.6297 31.9378 34.6706V34.0209C32.4328 34.1756 32.9381 34.2788 33.464 34.2788ZM33.464 37.8984H33.6084C34.7531 37.8984 35.7328 37.2075 36.2484 36.2072H41.5078C42.1471 36.2072 42.704 36.6094 42.8896 37.1869L44.5396 43.2403C44.6634 43.7044 44.5293 44.2097 44.189 44.55H43.1475V42.2091C43.1475 41.7966 42.8175 41.4666 42.405 41.4666C41.9925 41.4666 41.6625 41.7966 41.6625 42.2091V44.55H26.0803V42.1987C26.0803 41.7862 25.7503 41.4563 25.3378 41.4563C24.9253 41.4563 24.5953 41.7862 24.5953 42.1987V44.55H23.3062L23.1515 44.4366C22.6771 44.1066 22.4606 43.5187 22.6153 42.9619L24.1828 37.2075C24.3787 36.5991 24.9459 36.1969 25.5853 36.1969H30.8446C31.3396 37.2075 32.3193 37.8984 33.464 37.8984Z" currentColor="#141C21" />
  </g>
  <defs>
    <clipPath id="clip0_195_504">
      <rect width="66" height="66" currentColor="white" />
    </clipPath>
  </defs>
</svg>