<svg width="65" height="60" viewBox="0 0 65 60" fill="white" xmlns="http://www.w3.org/2000/svg">
  <path fill-rule="evenodd" clip-rule="evenodd" d="M29.0114 8.81424C29.0114 6.88757 30.5733 5.3257 32.4999 5.3257C34.4266 5.3257 35.9885 6.88757 35.9885 8.81424C35.9885 10.7409 34.4266 12.3028 32.4999 12.3028C30.5733 12.3028 29.0114 10.7409 29.0114 8.81424ZM32.4999 3C29.2888 3 26.6857 5.60312 26.6857 8.81424C26.6857 11.6271 28.6832 13.9735 31.3371 14.5122V20.0246H12.3439C9.98909 20.0246 8.08013 21.9337 8.08013 24.2883V29.4227C7.8522 29.3605 7.61232 29.3274 7.3647 29.3274H2.71331C1.21479 29.3274 0 30.5421 0 32.0407V47.5453C0 49.0438 1.21479 50.2586 2.71331 50.2586H7.3647C7.61232 50.2586 7.8522 50.2254 8.08013 50.1633V55.2976C8.08013 57.6525 9.98909 59.5614 12.3439 59.5614H52.656C55.0108 59.5614 56.9198 57.6525 56.9198 55.2976V50.1634C57.1477 50.2256 57.3875 50.2588 57.6353 50.2588H62.2867C63.7852 50.2588 65 49.044 65 47.5455V32.0408C65 30.5423 63.7852 29.3275 62.2867 29.3275H57.6353C57.3875 29.3275 57.1477 29.3607 56.9198 29.4229V24.2883C56.9198 21.9337 55.0108 20.0246 52.656 20.0246H33.6628V14.5122C36.3167 13.9735 38.3142 11.6271 38.3142 8.81424C38.3142 5.60312 35.7111 3 32.4999 3ZM2.71331 31.653C2.49923 31.653 2.32569 31.8265 2.32569 32.0407V47.5453C2.32569 47.7594 2.49923 47.9329 2.71331 47.9329H7.3647C7.57879 47.9329 7.75232 47.7594 7.75232 47.5453V32.0407C7.75232 31.8265 7.57879 31.653 7.3647 31.653H2.71331ZM57.6353 31.6532C57.4212 31.6532 57.2477 31.8267 57.2477 32.0408V47.5455C57.2477 47.7594 57.4212 47.9331 57.6353 47.9331H62.2867C62.5007 47.9331 62.6743 47.7594 62.6743 47.5455V32.0408C62.6743 31.8267 62.5007 31.6532 62.2867 31.6532H57.6353ZM12.3439 22.3503C11.2735 22.3503 10.4058 23.2181 10.4058 24.2883V55.2976C10.4058 56.3681 11.2735 57.2357 12.3439 57.2357H52.656C53.7264 57.2357 54.5941 56.3681 54.5941 55.2976V24.2883C54.5941 23.2181 53.7264 22.3503 52.656 22.3503H12.3439ZM23.1972 39.7931C23.1972 41.0775 22.1559 42.1188 20.8715 42.1188C19.5869 42.1188 18.5458 41.0775 18.5458 39.7931C18.5458 38.5086 19.5869 37.4674 20.8715 37.4674C22.1559 37.4674 23.1972 38.5086 23.1972 39.7931ZM25.5229 39.7931C25.5229 42.3619 23.4403 44.4445 20.8715 44.4445C18.3025 44.4445 16.2201 42.3619 16.2201 39.7931C16.2201 37.2242 18.3025 35.1417 20.8715 35.1417C23.4403 35.1417 25.5229 37.2242 25.5229 39.7931ZM44.1284 42.1188C45.4128 42.1188 46.4541 41.0775 46.4541 39.7931C46.4541 38.5086 45.4128 37.4674 44.1284 37.4674C42.8439 37.4674 41.8027 38.5086 41.8027 39.7931C41.8027 41.0775 42.8439 42.1188 44.1284 42.1188ZM44.1284 44.4445C46.6972 44.4445 48.7798 42.3619 48.7798 39.7931C48.7798 37.2242 46.6972 35.1417 44.1284 35.1417C41.5595 35.1417 39.477 37.2242 39.477 39.7931C39.477 42.3619 41.5595 44.4445 44.1284 44.4445Z" currentColor="#141C21" />
</svg>