<svg width="60" height="65" viewBox="0 0 60 65" fill="white" xmlns="http://www.w3.org/2000/svg">
  <path d="M52.1713 24.3882C50.4205 24.3882 48.9854 22.9627 48.9854 21.2023C48.9854 19.4514 50.4109 18.0163 52.1713 18.0163C53.9222 18.0163 55.3573 19.4419 55.3573 21.2023C55.3477 22.9531 53.9222 24.3882 52.1713 24.3882ZM52.1713 19.8724C51.4442 19.8724 50.8414 20.4656 50.8414 21.2023C50.8414 21.9294 51.4346 22.5321 52.1713 22.5321C52.8985 22.5321 53.5012 21.939 53.5012 21.2023C53.4916 20.4751 52.8985 19.8724 52.1713 19.8724Z" currentColor="#141C21" />
  <path d="M36.186 54.372C34.4351 54.372 33 52.9465 33 51.186C33 49.4352 34.4256 48.0001 36.186 48.0001C37.9464 48.0001 39.3719 49.4256 39.3719 51.186C39.3624 52.9465 37.9368 54.372 36.186 54.372ZM36.186 49.8657C35.4588 49.8657 34.8561 50.4589 34.8561 51.1956C34.8561 51.9227 35.4493 52.5255 36.186 52.5255C36.9131 52.5255 37.5159 51.9323 37.5159 51.1956C37.5159 50.4589 36.9131 49.8657 36.186 49.8657Z" currentColor="#141C21" />
  <path d="M24.186 42.372C22.4351 42.372 21 40.9465 21 39.186C21 37.4352 22.4256 36.0001 24.186 36.0001C25.9368 36.0001 27.3719 37.4256 27.3719 39.186C27.3719 40.9465 25.9368 42.372 24.186 42.372ZM24.186 37.8657C23.4588 37.8657 22.8561 38.4589 22.8561 39.1956C22.8561 39.9227 23.4493 40.5255 24.186 40.5255C24.9227 40.5255 25.5159 39.9323 25.5159 39.1956C25.5159 38.4589 24.9131 37.8657 24.186 37.8657Z" currentColor="#141C21" />
  <path d="M12.186 54.372C10.4351 54.372 9 52.9464 9 51.186C9 49.4352 10.4256 48.0001 12.186 48.0001C13.9464 48.0001 15.3719 49.4256 15.3719 51.186C15.3719 52.9464 13.9464 54.372 12.186 54.372ZM12.186 49.8657C11.4588 49.8657 10.8561 50.4589 10.8561 51.1956C10.8561 51.9227 11.4493 52.5255 12.186 52.5255C12.9131 52.5255 13.5159 51.9323 13.5159 51.1956C13.5159 50.4589 12.9227 49.8657 12.186 49.8657Z" currentColor="#141C21" />
  <path d="M13.9376 50.1894C13.421 50.1894 13 49.778 13 49.2614C13 48.9744 13.1339 48.7065 13.3444 48.5438L21.5438 40.2775C21.716 40.1053 21.9552 40.0001 22.2039 40.0001C22.7206 40.0001 23.132 40.4115 23.132 40.9281C23.132 41.2151 22.998 41.4735 22.7971 41.6457L14.5978 49.912C14.416 50.0938 14.1864 50.1894 13.9376 50.1894Z" currentColor="#141C21" />
  <path d="M35.2689 49.8345C35.0584 49.8345 34.8384 49.758 34.6662 49.6145L25.3283 41.6352C24.936 41.3003 24.8882 40.7167 25.2231 40.3245C25.5579 39.9322 26.1415 39.8939 26.5338 40.2192L35.8717 48.1985C36.2639 48.5334 36.3118 49.117 35.9769 49.5092C35.7951 49.7293 35.5272 49.8345 35.2689 49.8345Z" currentColor="#141C21" />
  <path d="M8.38117 63.3514C7.86453 63.3514 7.45312 62.94 7.45312 62.4234V60.0794C7.45312 59.5627 7.86453 59.1513 8.38117 59.1513C8.89782 59.1513 9.30922 59.5627 9.30922 60.0794V62.4234C9.30922 62.94 8.88825 63.3514 8.38117 63.3514Z" currentColor="#141C21" />
  <path d="M14.5902 63.3514C14.0735 63.3514 13.6621 62.94 13.6621 62.4234V60.0794C13.6621 59.5627 14.0735 59.1513 14.5902 59.1513C15.1068 59.1513 15.5182 59.5627 15.5182 60.0794V62.4234C15.5182 62.94 15.1068 63.3514 14.5902 63.3514Z" currentColor="#141C21" />
  <path d="M20.8089 63.3514C20.2923 63.3514 19.8809 62.94 19.8809 62.4234V60.0794C19.8809 59.5627 20.2923 59.1513 20.8089 59.1513C21.3255 59.1513 21.7369 59.5627 21.7369 60.0794V62.4234C21.7369 62.94 21.316 63.3514 20.8089 63.3514Z" currentColor="#141C21" />
  <path d="M27.0184 63.3514C26.5017 63.3514 26.0903 62.94 26.0903 62.4234V60.0794C26.0903 59.5627 26.5017 59.1513 27.0184 59.1513C27.535 59.1513 27.9464 59.5627 27.9464 60.0794V62.4234C27.9464 62.94 27.535 63.3514 27.0184 63.3514Z" currentColor="#141C21" />
  <path d="M33.2371 63.3514C32.7205 63.3514 32.3091 62.94 32.3091 62.4234V60.0794C32.3091 59.5627 32.7205 59.1513 33.2371 59.1513C33.7538 59.1513 34.1652 59.5627 34.1652 60.0794V62.4234C34.1652 62.94 33.7442 63.3514 33.2371 63.3514Z" currentColor="#141C21" />
  <path d="M39.4461 63.3514C38.9295 63.3514 38.5181 62.94 38.5181 62.4234V60.0794C38.5181 59.5627 38.9295 59.1513 39.4461 59.1513C39.9628 59.1513 40.3742 59.5627 40.3742 60.0794V62.4234C40.3742 62.94 39.9628 63.3514 39.4461 63.3514Z" currentColor="#141C21" />
  <path d="M45.6649 63.3514C45.1482 63.3514 44.7368 62.94 44.7368 62.4234V60.0794C44.7368 59.5627 45.1482 59.1513 45.6649 59.1513C46.1815 59.1513 46.5929 59.5627 46.5929 60.0794V62.4234C46.5929 62.94 46.1719 63.3514 45.6649 63.3514Z" currentColor="#141C21" />
  <path d="M51.8748 63.3514C51.3582 63.3514 50.9468 62.94 50.9468 62.4234V60.0794C50.9468 59.5627 51.3582 59.1513 51.8748 59.1513C52.3915 59.1513 52.8029 59.5627 52.8029 60.0794V62.4234C52.8029 62.94 52.3915 63.3514 51.8748 63.3514Z" currentColor="#141C21" />
  <path d="M56.5341 63.3515H2.076C1.55935 63.3515 1.14795 62.94 1.14795 62.4234C1.14795 61.9068 1.55935 61.4954 2.076 61.4954H56.5437C57.0603 61.4954 57.4717 61.9068 57.4717 62.4234C57.4622 62.94 57.0507 63.3515 56.5341 63.3515Z" currentColor="#141C21" />
  <path d="M4.42003 15.1887H2.076C1.55935 15.1887 1.14795 14.7773 1.14795 14.2607C1.14795 13.744 1.55935 13.3326 2.076 13.3326H4.42003C4.93667 13.3326 5.34807 13.744 5.34807 14.2607C5.34807 14.7773 4.9271 15.1887 4.42003 15.1887Z" currentColor="#141C21" />
  <path d="M4.42003 21.4076H2.076C1.55935 21.4076 1.14795 20.9962 1.14795 20.4796C1.14795 19.9629 1.55935 19.5515 2.076 19.5515H4.42003C4.93667 19.5515 5.34807 19.9629 5.34807 20.4796C5.34807 20.9962 4.9271 21.4076 4.42003 21.4076Z" currentColor="#141C21" />
  <path d="M4.42003 27.6169H2.076C1.55935 27.6169 1.14795 27.2055 1.14795 26.6889C1.14795 26.1722 1.55935 25.7608 2.076 25.7608H4.42003C4.93667 25.7608 5.34807 26.1722 5.34807 26.6889C5.34807 27.2055 4.9271 27.6169 4.42003 27.6169Z" currentColor="#141C21" />
  <path d="M4.42003 33.8358H2.076C1.55935 33.8358 1.14795 33.4244 1.14795 32.9077C1.14795 32.3911 1.55935 31.9797 2.076 31.9797H4.42003C4.93667 31.9797 5.34807 32.3911 5.34807 32.9077C5.34807 33.4148 4.9271 33.8358 4.42003 33.8358Z" currentColor="#141C21" />
  <path d="M4.42003 40.0451H2.076C1.55935 40.0451 1.14795 39.6337 1.14795 39.117C1.14795 38.6004 1.55935 38.189 2.076 38.189H4.42003C4.93667 38.189 5.34807 38.6004 5.34807 39.117C5.34807 39.6337 4.9271 40.0451 4.42003 40.0451Z" currentColor="#141C21" />
  <path d="M4.42003 46.2639H2.076C1.55935 46.2639 1.14795 45.8525 1.14795 45.3359C1.14795 44.8192 1.55935 44.4078 2.076 44.4078H4.42003C4.93667 44.4078 5.34807 44.8192 5.34807 45.3359C5.34807 45.8525 4.9271 46.2639 4.42003 46.2639Z" currentColor="#141C21" />
  <path d="M4.42003 52.4732H2.076C1.55935 52.4732 1.14795 52.0618 1.14795 51.5452C1.14795 51.0285 1.55935 50.6171 2.076 50.6171H4.42003C4.93667 50.6171 5.34807 51.0285 5.34807 51.5452C5.34807 52.0618 4.9271 52.4732 4.42003 52.4732Z" currentColor="#141C21" />
  <path d="M4.42003 58.6921H2.076C1.55935 58.6921 1.14795 58.2807 1.14795 57.764C1.14795 57.2474 1.55935 56.836 2.076 56.836H4.42003C4.93667 56.836 5.34807 57.2474 5.34807 57.764C5.34807 58.2711 4.9271 58.6921 4.42003 58.6921Z" currentColor="#141C21" />
  <path d="M2.07599 63.3514C1.55935 63.3514 1.14795 62.94 1.14795 62.4234V3.08588C1.14795 2.56924 1.55935 2.15784 2.07599 2.15784C2.59264 2.15784 3.00404 2.56924 3.00404 3.08588V62.4234C3.00404 62.94 2.58307 63.3514 2.07599 63.3514Z" currentColor="#141C21" />
  <path d="M4.42003 8.97944H2.076C1.55935 8.97944 1.14795 8.55847 1.14795 8.0514C1.14795 7.53475 1.55935 7.12335 2.076 7.12335H4.42003C4.93667 7.12335 5.34807 7.53475 5.34807 8.0514C5.34807 8.55847 4.9271 8.97944 4.42003 8.97944Z" currentColor="#141C21" />
  <path d="M1.88428 18.0163H57.464" currentColor="#141C21" stroke-width="1.5" stroke-linecap="round" />
  <path d="M1.88428 35.9149H57.464" currentColor="#141C21" stroke-width="1.5" stroke-linecap="round" />
  <path d="M1.88428 54.7554H57.464" currentColor="#141C21" stroke-width="1.5" stroke-linecap="round" />
  <path d="M41.1651 15.4767C37.2136 15.4767 34 12.2631 34 8.31159C34 4.3601 37.2136 1.14648 41.1651 1.14648C45.1166 1.14648 48.3302 4.3601 48.3302 8.31159C48.3205 12.2631 45.1069 15.4767 41.1651 15.4767ZM41.1651 3.0397C38.2525 3.0397 35.8835 5.40866 35.8835 8.3213C35.8835 11.2339 38.2525 13.6029 41.1651 13.6029C44.0778 13.6029 46.4467 11.2339 46.4467 8.3213C46.4467 5.40866 44.068 3.0397 41.1651 3.0397Z" currentColor="#141C21" />
  <path d="M43.0302 8.68067C42.9526 8.50591 42.8458 8.34086 42.7196 8.21464C42.5933 8.08843 42.4477 7.98163 42.2924 7.90396C42.137 7.82629 41.9914 7.75833 41.8361 7.69037L41.3894 7.52532C41.2535 7.47677 41.137 7.42823 41.0302 7.36997C40.9428 7.32143 40.8652 7.26318 40.8166 7.19522C40.7681 7.14667 40.7487 7.07871 40.7487 6.99133C40.7487 6.93308 40.7584 6.88453 40.7778 6.8457C40.7972 6.80686 40.8166 6.77774 40.8555 6.74861C40.8943 6.71948 40.9526 6.69036 41.0302 6.67094C41.1176 6.65152 41.2244 6.6321 41.3409 6.6321C41.4768 6.6321 41.603 6.65152 41.7195 6.68065C41.8361 6.70977 41.9429 6.74861 42.0399 6.78745C42.137 6.82628 42.2147 6.86512 42.273 6.89424C42.37 6.94279 42.4477 6.97191 42.5254 6.97191C42.5836 6.97191 42.6419 6.9525 42.6904 6.92337L42.7778 6.82628L42.7972 6.76803C42.8166 6.71948 42.8264 6.65152 42.8264 6.59327C42.8361 6.53502 42.8361 6.45734 42.8361 6.36997C42.8361 6.302 42.8361 6.24375 42.8264 6.19521C42.8264 6.13695 42.8166 6.08841 42.8069 6.04957C42.7972 5.99132 42.7778 5.95249 42.7584 5.90394L42.6904 5.80685L42.671 5.78744C42.6322 5.7486 42.5739 5.70977 42.4865 5.67093C42.4186 5.6418 42.3506 5.61268 42.2632 5.58355C42.1856 5.55442 42.0982 5.53501 42.0011 5.50588C41.9817 5.50588 41.9526 5.49617 41.9331 5.48646L42.0011 4.87481C42.0011 4.81655 41.9914 4.76801 41.9817 4.72917L41.8943 4.59325L41.8166 4.55442C41.7778 4.52529 41.7195 4.50587 41.6516 4.49616C41.5836 4.48645 41.506 4.47675 41.4089 4.47675C41.3312 4.47675 41.2632 4.47675 41.2147 4.48645C41.1564 4.49616 41.0982 4.50587 41.0496 4.535C40.9817 4.56412 40.9428 4.60296 40.9137 4.6418L40.8652 4.73888L40.7972 5.45734C40.603 5.48646 40.4283 5.53501 40.2632 5.60297C40.0496 5.69035 39.8749 5.80685 39.7292 5.95249C39.5836 6.09812 39.4671 6.26317 39.3894 6.45735C39.3118 6.65152 39.2729 6.86512 39.2729 7.08842C39.2729 7.34085 39.3118 7.56415 39.3894 7.74862C39.4671 7.93309 39.5739 8.08843 39.7001 8.22435C39.8263 8.35057 39.972 8.45736 40.1273 8.54474C40.2729 8.62241 40.4283 8.70008 40.5836 8.75834L41.0108 8.92339C41.137 8.97193 41.2535 9.02047 41.3603 9.07873C41.4477 9.12727 41.5157 9.18552 41.5739 9.25349C41.6128 9.30203 41.6322 9.36999 41.6322 9.45737C41.6322 9.59329 41.5836 9.69038 41.4768 9.77776C41.3603 9.86514 41.1564 9.91369 40.8846 9.91369C40.7001 9.91369 40.5351 9.89427 40.3991 9.85543C40.2535 9.8166 40.137 9.77776 40.0399 9.72922C39.9428 9.68067 39.8555 9.64184 39.7972 9.603C39.7001 9.54475 39.6127 9.51562 39.5351 9.51562C39.4671 9.51562 39.4089 9.53504 39.3603 9.56417L39.2535 9.66126L39.2341 9.71951C39.2147 9.76805 39.1953 9.83601 39.1953 9.92339C39.1953 9.99136 39.1855 10.069 39.1855 10.1661C39.1855 10.302 39.1953 10.4088 39.2147 10.4865C39.2341 10.5836 39.2729 10.6613 39.3312 10.7195C39.3797 10.7681 39.438 10.8069 39.5156 10.8554C39.5836 10.8943 39.671 10.9331 39.7584 10.9622C39.8457 11.0011 39.9525 11.0302 40.0593 11.0593C40.1176 11.069 40.1661 11.0885 40.2244 11.0982L40.1564 11.7292C40.1467 11.7972 40.1467 11.8652 40.1758 11.9234L40.2632 12.0593L40.3312 12.0885C40.3797 12.1176 40.4477 12.1273 40.5157 12.137C40.5739 12.1467 40.6613 12.1564 40.7584 12.1564C40.836 12.1564 40.904 12.1564 40.9623 12.1467C41.0205 12.137 41.0691 12.1273 41.1176 12.1079C41.1856 12.0788 41.2341 12.0399 41.2632 11.9817L41.3021 11.8846L41.3797 11.1176C41.5933 11.0885 41.8069 11.0399 41.9914 10.9622C42.2244 10.8749 42.438 10.7486 42.6031 10.5933C42.7778 10.438 42.9137 10.2535 43.0108 10.0399C43.1079 9.82631 43.1565 9.58359 43.1565 9.32145C43.1467 9.07873 43.1079 8.86513 43.0302 8.68067Z" currentColor="#141C21" />
  <path d="M13.1651 34.3302C9.21362 34.3302 6 31.1166 6 27.1651C6 23.2136 9.21362 20 13.1651 20C17.1166 20 20.3302 23.2136 20.3302 27.1651C20.3205 31.1166 17.1069 34.3302 13.1651 34.3302ZM13.1651 21.8932C10.2525 21.8932 7.88351 24.2622 7.88351 27.1748C7.88351 30.0875 10.2525 32.4564 13.1651 32.4564C16.0778 32.4564 18.4467 30.0875 18.4467 27.1748C18.4467 24.2622 16.068 21.8932 13.1651 21.8932Z" currentColor="#141C21" />
  <path d="M15.0302 27.5342C14.9526 27.3594 14.8458 27.1944 14.7196 27.0682C14.5933 26.9419 14.4477 26.8351 14.2924 26.7575C14.137 26.6798 13.9914 26.6118 13.8361 26.5439L13.3894 26.3788C13.2535 26.3303 13.137 26.2817 13.0302 26.2235C12.9428 26.1749 12.8652 26.1167 12.8166 26.0487C12.7681 26.0002 12.7487 25.9322 12.7487 25.8448C12.7487 25.7866 12.7584 25.738 12.7778 25.6992C12.7972 25.6604 12.8166 25.6313 12.8555 25.6021C12.8943 25.573 12.9526 25.5439 13.0302 25.5245C13.1176 25.505 13.2244 25.4856 13.3409 25.4856C13.4768 25.4856 13.603 25.505 13.7195 25.5342C13.8361 25.5633 13.9429 25.6021 14.0399 25.641C14.137 25.6798 14.2147 25.7186 14.273 25.7478C14.37 25.7963 14.4477 25.8254 14.5254 25.8254C14.5836 25.8254 14.6419 25.806 14.6904 25.7769L14.7778 25.6798L14.7972 25.6215C14.8166 25.573 14.8264 25.505 14.8264 25.4468C14.8361 25.3885 14.8361 25.3109 14.8361 25.2235C14.8361 25.1555 14.8361 25.0973 14.8264 25.0487C14.8264 24.9905 14.8166 24.9419 14.8069 24.9031C14.7972 24.8448 14.7778 24.806 14.7584 24.7575L14.6904 24.6604L14.671 24.641C14.6322 24.6021 14.5739 24.5633 14.4865 24.5244C14.4186 24.4953 14.3506 24.4662 14.2632 24.4371C14.1856 24.4079 14.0982 24.3885 14.0011 24.3594C13.9817 24.3594 13.9526 24.3497 13.9331 24.34L14.0011 23.7283C14.0011 23.6701 13.9914 23.6215 13.9817 23.5827L13.8943 23.4468L13.8166 23.4079C13.7778 23.3788 13.7195 23.3594 13.6516 23.3497C13.5836 23.34 13.506 23.3303 13.4089 23.3303C13.3312 23.3303 13.2632 23.3303 13.2147 23.34C13.1564 23.3497 13.0982 23.3594 13.0496 23.3885C12.9817 23.4176 12.9428 23.4565 12.9137 23.4953L12.8652 23.5924L12.7972 24.3109C12.603 24.34 12.4283 24.3885 12.2632 24.4565C12.0496 24.5439 11.8749 24.6604 11.7292 24.806C11.5836 24.9516 11.4671 25.1167 11.3894 25.3109C11.3118 25.505 11.2729 25.7186 11.2729 25.9419C11.2729 26.1944 11.3118 26.4177 11.3894 26.6021C11.4671 26.7866 11.5739 26.9419 11.7001 27.0779C11.8263 27.2041 11.972 27.3109 12.1273 27.3983C12.2729 27.4759 12.4283 27.5536 12.5836 27.6119L13.0108 27.7769C13.137 27.8254 13.2535 27.874 13.3603 27.9322C13.4477 27.9808 13.5157 28.039 13.5739 28.107C13.6128 28.1555 13.6322 28.2235 13.6322 28.3109C13.6322 28.4468 13.5836 28.5439 13.4768 28.6313C13.3603 28.7187 13.1564 28.7672 12.8846 28.7672C12.7001 28.7672 12.5351 28.7478 12.3991 28.7089C12.2535 28.6701 12.137 28.6313 12.0399 28.5827C11.9428 28.5342 11.8555 28.4954 11.7972 28.4565C11.7001 28.3983 11.6127 28.3691 11.5351 28.3691C11.4671 28.3691 11.4089 28.3886 11.3603 28.4177L11.2535 28.5148L11.2341 28.573C11.2147 28.6216 11.1953 28.6895 11.1953 28.7769C11.1953 28.8449 11.1855 28.9225 11.1855 29.0196C11.1855 29.1556 11.1953 29.2624 11.2147 29.34C11.2341 29.4371 11.2729 29.5148 11.3312 29.573C11.3797 29.6216 11.438 29.6604 11.5156 29.709C11.5836 29.7478 11.671 29.7866 11.7584 29.8158C11.8457 29.8546 11.9525 29.8837 12.0593 29.9128C12.1176 29.9226 12.1661 29.942 12.2244 29.9517L12.1564 30.5828C12.1467 30.6507 12.1467 30.7187 12.1758 30.7769L12.2632 30.9128L12.3312 30.942C12.3797 30.9711 12.4477 30.9808 12.5157 30.9905C12.5739 31.0002 12.6613 31.0099 12.7584 31.0099C12.836 31.0099 12.904 31.0099 12.9623 31.0002C13.0205 30.9905 13.0691 30.9808 13.1176 30.9614C13.1856 30.9323 13.2341 30.8934 13.2632 30.8352L13.3021 30.7381L13.3797 29.9711C13.5933 29.942 13.8069 29.8934 13.9914 29.8158C14.2244 29.7284 14.438 29.6022 14.6031 29.4468C14.7778 29.2915 14.9137 29.107 15.0108 28.8934C15.1079 28.6798 15.1565 28.4371 15.1565 28.175C15.1467 27.9322 15.1079 27.7186 15.0302 27.5342Z" currentColor="#141C21" />
  <path d="M52.6844 15.0312C52.1677 15.0312 51.7563 14.6198 51.7563 14.1032L51.7563 6.69794C51.7563 6.1813 52.1677 5.7699 52.6844 5.7699C53.201 5.7699 53.6124 6.1813 53.6124 6.69794L53.6124 14.1032C53.6124 14.6102 53.201 15.0312 52.6844 15.0312Z" currentColor="#141C21" />
  <path d="M23.7567 32.9298C23.24 32.9298 22.8286 32.5184 22.8286 32.0017L22.8286 24.5965C22.8286 24.0799 23.24 23.6685 23.7567 23.6685C24.2733 23.6685 24.6847 24.0799 24.6847 24.5965L24.6847 32.0017C24.6847 32.5088 24.2733 32.9298 23.7567 32.9298Z" currentColor="#141C21" />
  <path d="M52.694 15.0314C52.4453 15.0314 52.2061 14.9262 52.0243 14.754L50.1874 12.8692C49.8334 12.5056 49.8429 11.9125 50.2065 11.5585C50.5701 11.2045 51.1632 11.214 51.5172 11.5776L52.6845 12.7831L53.8517 11.5776C54.2057 11.214 54.7989 11.2045 55.1624 11.5585C55.526 11.9125 55.5356 12.5056 55.1816 12.8692L53.3446 14.754C53.182 14.9262 52.9428 15.0314 52.694 15.0314Z" currentColor="#141C21" />
  <path d="M23.7663 32.93C23.5175 32.93 23.2784 32.8248 23.0966 32.6526L21.2596 30.7678C20.9056 30.4042 20.9152 29.811 21.2788 29.457C21.6423 29.103 22.2355 29.1126 22.5895 29.4761L23.7567 30.6817L24.924 29.4761C25.278 29.1126 25.8711 29.103 26.2347 29.457C26.5983 29.811 26.6078 30.4042 26.2538 30.7678L24.4169 32.6526C24.2542 32.8248 24.0151 32.93 23.7663 32.93Z" currentColor="#141C21" />
  <path d="M50.8696 23.6685L38 49" currentColor="#141C21" stroke-width="2" stroke-linecap="square" />
</svg>