<svg width="65" height="66" viewBox="0 0 65 66" xmlns="http://www.w3.org/2000/svg">
  <path d="M24.0074 21.3632C20.0562 21.3632 16.8428 18.1498 16.8428 14.1986C16.8428 10.2473 20.0562 7.03394 24.0074 7.03394C27.9586 7.03394 31.172 10.2473 31.172 14.1986C31.172 18.1498 27.9586 21.3632 24.0074 21.3632ZM24.0074 8.91732C21.095 8.91732 18.7262 11.2861 18.7262 14.1986C18.7262 17.111 21.095 19.4798 24.0074 19.4798C26.9199 19.4798 29.2887 17.111 29.2887 14.1986C29.2887 11.2861 26.9199 8.91732 24.0074 8.91732Z" currentColor="#141C21" />
  <path d="M25.8714 14.5675C25.7937 14.3927 25.6869 14.2277 25.5607 14.1015C25.4345 13.9753 25.2889 13.8685 25.1335 13.7908C24.9782 13.7132 24.8326 13.6452 24.6772 13.5772L24.2307 13.4122C24.0948 13.3637 23.9783 13.3151 23.8715 13.2569C23.7841 13.2083 23.7064 13.1501 23.6579 13.0821C23.6191 13.0336 23.5996 12.9656 23.5996 12.8783C23.5996 12.82 23.6093 12.7715 23.6288 12.7326C23.6482 12.6938 23.6676 12.6647 23.7064 12.6355C23.7453 12.6064 23.8035 12.5773 23.8812 12.5579C23.9685 12.5385 24.0753 12.519 24.1918 12.519C24.3278 12.519 24.454 12.5385 24.5705 12.5676C24.687 12.5967 24.7937 12.6355 24.8908 12.6744C24.9879 12.7132 25.0656 12.752 25.1238 12.7812C25.2209 12.8297 25.2986 12.8588 25.3762 12.8588C25.4345 12.8588 25.4927 12.8394 25.5413 12.8103L25.6286 12.7132L25.6481 12.655C25.6675 12.6064 25.6772 12.5385 25.6772 12.4802C25.6772 12.422 25.6869 12.3443 25.6869 12.2569C25.6869 12.189 25.6869 12.1307 25.6772 12.0822C25.6772 12.0239 25.6675 11.9754 25.6578 11.9366C25.6481 11.8783 25.6286 11.8395 25.6092 11.7909L25.5413 11.6939L25.5219 11.6744C25.483 11.6356 25.4248 11.5968 25.3471 11.5579C25.2792 11.5094 25.2112 11.4803 25.1238 11.4512C25.0462 11.422 24.9588 11.4026 24.8617 11.3735C24.8423 11.3735 24.8132 11.3638 24.7937 11.3541L24.8617 10.7425C24.8617 10.6842 24.852 10.6357 24.8423 10.5968L24.7549 10.4609L24.6772 10.4221C24.6287 10.393 24.5607 10.3833 24.4928 10.3735C24.4248 10.3638 24.3472 10.3541 24.2501 10.3541C24.1724 10.3541 24.1045 10.3541 24.0559 10.3638C23.9977 10.3735 23.9394 10.3833 23.8909 10.4124C23.8229 10.4415 23.7841 10.4803 23.755 10.5192L23.7064 10.6162L23.6385 11.3347C23.4443 11.3735 23.2696 11.422 23.1045 11.49C22.8909 11.5774 22.7162 11.6939 22.5706 11.8395C22.4249 11.9851 22.3085 12.1501 22.2308 12.3443C22.1531 12.5385 22.1143 12.752 22.1143 12.9753C22.1143 13.2277 22.1531 13.451 22.2308 13.6355C22.3085 13.8199 22.4152 13.9753 22.5414 14.1112C22.6677 14.2374 22.8133 14.3442 22.9686 14.4316C23.1142 14.5092 23.2696 14.5869 23.4249 14.6451L23.8618 14.8102C23.988 14.8587 24.1045 14.9073 24.2113 14.9655C24.2986 15.0141 24.3666 15.0723 24.4248 15.1403C24.4637 15.1888 24.4831 15.2568 24.4831 15.3441C24.4831 15.48 24.4345 15.5771 24.3278 15.6645C24.2113 15.7519 24.0074 15.8004 23.7356 15.8004C23.5511 15.8004 23.3861 15.781 23.2501 15.7422C23.1045 15.7033 22.988 15.6645 22.8909 15.616C22.7939 15.5674 22.7065 15.5286 22.6482 15.4898C22.5512 15.4315 22.4638 15.4024 22.3861 15.4024C22.3182 15.4024 22.2599 15.4218 22.2114 15.4509L22.1046 15.548L22.0852 15.6063C22.0657 15.6548 22.0463 15.7227 22.0463 15.8101C22.0463 15.8781 22.0366 15.9557 22.0366 16.0528C22.0366 16.1887 22.0463 16.2955 22.0657 16.3732C22.0852 16.4703 22.124 16.5479 22.1822 16.6062C22.2308 16.6547 22.289 16.6936 22.3667 16.7421C22.4347 16.7809 22.522 16.8198 22.6094 16.8489C22.6968 16.8877 22.8036 16.9169 22.9104 16.946C22.9686 16.9557 23.0171 16.9751 23.0754 16.9848L23.0074 17.6158C22.9977 17.6838 22.9977 17.7518 23.0269 17.81L23.1142 17.9459L23.1822 17.975C23.2307 18.0042 23.2987 18.0139 23.3666 18.0236C23.4249 18.0333 23.5123 18.043 23.6093 18.043C23.687 18.043 23.755 18.043 23.8132 18.0333C23.8715 18.0236 23.92 18.0139 23.9685 17.9945C24.0365 17.9653 24.085 17.9265 24.1142 17.8683L24.153 17.7712L24.2307 17.0042C24.4442 16.9751 24.6578 16.9266 24.8423 16.8489C25.0753 16.7615 25.2889 16.6353 25.4539 16.48C25.6286 16.3247 25.7646 16.1402 25.8616 15.9266C25.9587 15.713 26.0073 15.4703 26.0073 15.2082C25.9879 14.9655 25.949 14.7422 25.8714 14.5675Z" currentColor="#141C21" />
  <path d="M24.0071 32.3238C23.4829 32.3238 23.0654 31.9063 23.0654 31.3821V23.868C23.0654 23.3437 23.4829 22.9263 24.0071 22.9263C24.5314 22.9263 24.9488 23.3437 24.9488 23.868V31.3821C24.9488 31.9063 24.5217 32.3238 24.0071 32.3238Z" currentColor="#141C21" />
  <path d="M24.0072 32.3335C23.7548 32.3335 23.5121 32.2267 23.3276 32.0519L21.4636 30.1394C21.1044 29.7705 21.1141 29.1686 21.4831 28.8094C21.852 28.4502 22.4539 28.4599 22.8131 28.8288L23.9975 30.0521L25.1819 28.8288C25.5411 28.4599 26.143 28.4502 26.5119 28.8094C26.8808 29.1686 26.8905 29.7705 26.5313 30.1394L24.6673 32.0519C24.5023 32.2267 24.2596 32.3335 24.0072 32.3335Z" currentColor="#141C21" />
  <path d="M36.9576 33.0616C33.0064 33.0616 29.793 29.8482 29.793 25.8969C29.793 21.9457 33.0064 18.7323 36.9576 18.7323C40.9088 18.7323 44.1222 21.9457 44.1222 25.8969C44.1222 29.8482 40.9088 33.0616 36.9576 33.0616ZM36.9576 20.6254C34.0452 20.6254 31.6764 22.9942 31.6764 25.9066C31.6764 28.8191 34.0452 31.1879 36.9576 31.1879C39.8701 31.1879 42.2389 28.8191 42.2389 25.9066C42.2389 22.9942 39.8701 20.6254 36.9576 20.6254Z" currentColor="#141C21" />
  <path d="M38.8215 26.2658C38.7439 26.0911 38.6371 25.926 38.5109 25.7998C38.3847 25.6736 38.2391 25.5668 38.0837 25.4892C37.9284 25.4115 37.7828 25.3436 37.6274 25.2756L37.1809 25.1106C37.045 25.062 36.9285 25.0135 36.8217 24.9552C36.7343 24.9067 36.6566 24.8484 36.6081 24.7805C36.5693 24.7319 36.5498 24.664 36.5498 24.5766C36.5498 24.5184 36.5595 24.4698 36.579 24.431C36.5984 24.3922 36.6178 24.363 36.6566 24.3339C36.6955 24.3048 36.7537 24.2757 36.8314 24.2562C36.9187 24.2368 37.0255 24.2174 37.142 24.2174C37.2779 24.2174 37.4042 24.2368 37.5207 24.2659C37.6372 24.2951 37.7439 24.3339 37.841 24.3727C37.9381 24.4116 38.0158 24.4504 38.074 24.4795C38.1711 24.5281 38.2488 24.5572 38.3264 24.5572C38.3847 24.5572 38.4429 24.5378 38.4915 24.5087L38.5788 24.4116L38.5983 24.3533C38.6177 24.3048 38.6274 24.2368 38.6274 24.1786C38.6274 24.1203 38.6371 24.0427 38.6371 23.9553C38.6371 23.8873 38.6371 23.8291 38.6274 23.7805C38.6274 23.7223 38.6177 23.6737 38.608 23.6349C38.5983 23.5767 38.5788 23.5378 38.5594 23.4893L38.4915 23.3922L38.4721 23.3728C38.4332 23.334 38.375 23.2951 38.2973 23.2563C38.2293 23.2272 38.1614 23.198 38.074 23.1689C37.9964 23.1398 37.909 23.1204 37.8119 23.0913C37.7925 23.0913 37.7634 23.0816 37.7439 23.0718L37.8119 22.4602C37.8119 22.402 37.8022 22.3534 37.7925 22.3146L37.7051 22.1787L37.6274 22.1399C37.5789 22.1107 37.5109 22.101 37.443 22.0913C37.375 22.0816 37.2974 22.0719 37.2003 22.0719C37.1226 22.0719 37.0547 22.0719 37.0061 22.0816C36.9479 22.0913 36.8896 22.101 36.8411 22.1301C36.7731 22.1593 36.7343 22.1981 36.7052 22.2369L36.6566 22.334L36.5887 23.0524C36.3945 23.0816 36.2198 23.1301 36.0547 23.198C35.8411 23.2854 35.6664 23.4019 35.5208 23.5475C35.3751 23.6932 35.2586 23.8582 35.181 24.0524C35.1033 24.2465 35.0645 24.4601 35.0645 24.6834C35.0645 24.9358 35.1033 25.1591 35.181 25.3436C35.2586 25.528 35.3654 25.6833 35.4916 25.8193C35.6178 25.9455 35.7635 26.0523 35.9188 26.1396C36.0644 26.2173 36.2198 26.295 36.3751 26.3532L36.812 26.5182C36.9382 26.5668 37.0547 26.6153 37.1615 26.6736C37.2488 26.7221 37.3168 26.7804 37.375 26.8483C37.4139 26.8969 37.4333 26.9648 37.4333 27.0522C37.4333 27.1881 37.3847 27.2852 37.2779 27.3726C37.1614 27.4599 36.9576 27.5085 36.6857 27.5085C36.5013 27.5085 36.3363 27.4891 36.2003 27.4502C36.0547 27.4114 35.9382 27.3726 35.8411 27.324C35.7441 27.2755 35.6567 27.2367 35.5984 27.1978C35.5014 27.1396 35.414 27.1104 35.3363 27.1104C35.2684 27.1104 35.2101 27.1299 35.1616 27.159L35.0548 27.2561L35.0354 27.3143C35.0159 27.3629 34.9965 27.4308 34.9965 27.5182C34.9868 27.5861 34.9868 27.6638 34.9868 27.7609C34.9868 27.8968 34.9965 28.0036 35.0159 28.0813C35.0354 28.1783 35.0742 28.256 35.1324 28.3143C35.181 28.3628 35.2392 28.4016 35.3169 28.4502C35.3849 28.489 35.4722 28.5278 35.5596 28.557C35.647 28.5958 35.7538 28.6249 35.8606 28.654C35.9188 28.6638 35.9673 28.6832 36.0256 28.6929L35.9576 29.3239C35.9479 29.3919 35.9479 29.4598 35.9771 29.5181L36.0644 29.654L36.1324 29.6831C36.1809 29.7122 36.2489 29.7219 36.3168 29.7317C36.3751 29.7414 36.4625 29.7511 36.5595 29.7511C36.6372 29.7511 36.7052 29.7414 36.7634 29.7414C36.8217 29.7317 36.8702 29.7219 36.9187 29.7025C36.9867 29.6734 37.0352 29.6346 37.0644 29.5763L37.1032 29.4792L37.1809 28.7123C37.3944 28.6832 37.608 28.6346 37.7925 28.557C38.0255 28.4696 38.2391 28.3434 38.4041 28.1881C38.5788 28.0327 38.7148 27.8483 38.8118 27.6347C38.9089 27.4211 38.9575 27.1784 38.9575 26.9163C38.938 26.6639 38.8992 26.4503 38.8215 26.2658Z" currentColor="#141C21" />
  <path d="M36.9583 44.0319C36.4341 44.0319 36.0166 43.6144 36.0166 43.0902V35.576C36.0166 35.0518 36.4341 34.6343 36.9583 34.6343C37.4825 34.6343 37.9 35.0518 37.9 35.576V43.0902C37.9 43.6047 37.4728 44.0319 36.9583 44.0319Z" currentColor="#141C21" />
  <path d="M36.9584 44.0318C36.7059 44.0318 36.4632 43.925 36.2788 43.7503L34.4148 41.8378C34.0556 41.4689 34.0653 40.867 34.4342 40.5078C34.8031 40.1486 35.405 40.1583 35.7642 40.5272L36.9486 41.7504L38.133 40.5272C38.4922 40.1583 39.0942 40.1486 39.4631 40.5078C39.832 40.867 39.8417 41.4689 39.4825 41.8378L37.6185 43.7503C37.4535 43.925 37.2108 44.0318 36.9584 44.0318Z" currentColor="#141C21" />
  <path d="M55.7242 16.6645C51.773 16.6645 48.5596 13.4511 48.5596 9.49984C48.5596 5.54861 51.773 2.33521 55.7242 2.33521C59.6754 2.33521 62.8888 5.54861 62.8888 9.49984C62.8791 13.4511 59.6657 16.6645 55.7242 16.6645ZM55.7242 4.2283C52.8118 4.2283 50.443 6.5971 50.443 9.50955C50.443 12.422 52.8118 14.7908 55.7242 14.7908C58.6367 14.7908 61.0055 12.422 61.0055 9.50955C61.0055 6.5971 58.627 4.2283 55.7242 4.2283Z" currentColor="#141C21" />
  <path d="M57.5886 9.86874C57.5109 9.69399 57.4041 9.52896 57.2779 9.40275C57.1517 9.27654 57.0061 9.16975 56.8508 9.09209C56.6954 9.01442 56.5498 8.94647 56.3945 8.87851L55.9479 8.71347C55.812 8.66493 55.6955 8.61639 55.5887 8.55814C55.5013 8.5096 55.4237 8.45135 55.3751 8.38339C55.3266 8.33485 55.3072 8.26689 55.3072 8.17952C55.3072 8.12127 55.3169 8.07273 55.3363 8.0339C55.3557 7.99506 55.3751 7.96594 55.4139 7.93681C55.4528 7.90769 55.511 7.87857 55.5887 7.85915C55.6761 7.83973 55.7829 7.82032 55.8994 7.82032C56.0353 7.82032 56.1615 7.83973 56.278 7.86886C56.3945 7.89798 56.5013 7.93681 56.5983 7.97565C56.6954 8.01448 56.7731 8.05331 56.8313 8.08244C56.9284 8.13098 57.0061 8.1601 57.0838 8.1601C57.142 8.1601 57.2003 8.14069 57.2488 8.11156L57.3362 8.01448L57.3556 7.95623C57.375 7.90769 57.3847 7.83973 57.3847 7.78148C57.3944 7.72323 57.3944 7.64557 57.3944 7.5582C57.3944 7.49024 57.3944 7.43199 57.3847 7.38345C57.3847 7.3252 57.375 7.27666 57.3653 7.23783C57.3556 7.17958 57.3362 7.14074 57.3168 7.0922L57.2488 6.99512L57.2294 6.9757C57.1905 6.93687 57.1323 6.89804 57.0449 6.85921C56.977 6.83008 56.909 6.80096 56.8216 6.77183C56.744 6.74271 56.6566 6.72329 56.5595 6.69417C56.5401 6.69417 56.511 6.68446 56.4916 6.67475L56.5595 6.06314C56.5595 6.00489 56.5498 5.95635 56.5401 5.91751L56.4527 5.7816L56.3751 5.74277C56.3362 5.71364 56.278 5.69422 56.21 5.68452C56.1421 5.67481 56.0644 5.6651 55.9673 5.6651C55.8896 5.6651 55.8217 5.6651 55.7732 5.67481C55.7149 5.68452 55.6567 5.69422 55.6081 5.72335C55.5402 5.75247 55.5013 5.79131 55.4722 5.83014L55.4237 5.92722L55.3557 6.64563C55.1615 6.67475 54.9868 6.72329 54.8217 6.79125C54.6082 6.87862 54.4334 6.99512 54.2878 7.14074C54.1422 7.28637 54.0257 7.45141 53.948 7.64557C53.8703 7.83973 53.8315 8.05331 53.8315 8.2766C53.8315 8.52901 53.8703 8.7523 53.948 8.93676C54.0257 9.12121 54.1325 9.27654 54.2587 9.41246C54.3849 9.53866 54.5305 9.64545 54.6858 9.73283C54.8315 9.81049 54.9868 9.88816 55.1421 9.94641L55.5693 10.1114C55.6955 10.16 55.812 10.2085 55.9188 10.2668C56.0061 10.3153 56.0741 10.3736 56.1324 10.4415C56.1712 10.4901 56.1906 10.558 56.1906 10.6454C56.1906 10.7813 56.1421 10.8784 56.0353 10.9658C55.9188 11.0531 55.7149 11.1017 55.4431 11.1017C55.2586 11.1017 55.0936 11.0823 54.9577 11.0434C54.812 11.0046 54.6955 10.9658 54.5985 10.9172C54.5014 10.8687 54.414 10.8299 54.3558 10.791C54.2587 10.7328 54.1713 10.7036 54.0936 10.7036C54.0257 10.7036 53.9674 10.7231 53.9189 10.7522L53.8121 10.8493L53.7927 10.9075C53.7733 10.9561 53.7539 11.024 53.7539 11.1114C53.7539 11.1793 53.7441 11.257 53.7441 11.3541C53.7441 11.49 53.7538 11.5968 53.7733 11.6745C53.7927 11.7715 53.8315 11.8492 53.8898 11.9075C53.9383 11.956 53.9966 11.9948 54.0742 12.0434C54.1422 12.0822 54.2295 12.121 54.3169 12.1502C54.4043 12.189 54.5111 12.2181 54.6179 12.2472C54.6761 12.257 54.7247 12.2764 54.7829 12.2861L54.715 12.9171C54.7053 12.9851 54.7053 13.053 54.7344 13.1113L54.8217 13.2472L54.8897 13.2763C54.9382 13.3054 55.0062 13.3151 55.0742 13.3249C55.1324 13.3346 55.2198 13.3443 55.3169 13.3443C55.3945 13.3443 55.4625 13.3443 55.5207 13.3346C55.579 13.3249 55.6275 13.3151 55.6761 13.2957C55.744 13.2666 55.7926 13.2278 55.8217 13.1695L55.8605 13.0724L55.9382 12.3055C56.1518 12.2764 56.3653 12.2278 56.5498 12.1502C56.7828 12.0628 56.9964 11.9366 57.1614 11.7813C57.3362 11.6259 57.4721 11.4415 57.5692 11.2279C57.6662 11.0143 57.7148 10.7716 57.7148 10.5095C57.7051 10.2668 57.6662 10.0532 57.5886 9.86874Z" currentColor="#141C21" />
  <path d="M55.7142 27.6347C55.1899 27.6347 54.7725 27.2172 54.7725 26.693V19.1789C54.7725 18.6546 55.1899 18.2372 55.7142 18.2372C56.2384 18.2372 56.6558 18.6546 56.6558 19.1789V26.693C56.6558 27.2075 56.2384 27.6347 55.7142 27.6347Z" currentColor="#141C21" />
  <path d="M55.724 27.6347C55.4716 27.6347 55.2289 27.5279 55.0444 27.3531L53.1804 25.4406C52.8212 25.0717 52.8309 24.4698 53.1999 24.1106C53.5688 23.7514 54.1707 23.7611 54.5299 24.13L55.7143 25.3533L56.8987 24.13C57.2579 23.7611 57.8598 23.7514 58.2287 24.1106C58.5976 24.4698 58.6073 25.0717 58.2481 25.4406L56.3841 27.3531C56.2191 27.5279 55.9764 27.6347 55.724 27.6347Z" currentColor="#141C21" />
  <path d="M55.7245 36.0129C53.9479 36.0129 52.4917 34.5664 52.4917 32.7801C52.4917 31.0035 53.9382 29.5472 55.7245 29.5472C57.5011 29.5472 58.9573 30.9938 58.9573 32.7801C58.9476 34.5567 57.5011 36.0129 55.7245 36.0129ZM55.7245 31.4306C54.9867 31.4306 54.3751 32.0325 54.3751 32.7801C54.3751 33.5179 54.977 34.1295 55.7245 34.1295C56.4623 34.1295 57.074 33.5276 57.074 32.7801C57.0643 32.0422 56.4623 31.4306 55.7245 31.4306Z" currentColor="#141C21" />
  <path d="M36.9574 54.6817C35.1808 54.6817 33.7246 53.2352 33.7246 51.4489C33.7246 49.6723 35.1711 48.2161 36.9574 48.2161C38.7437 48.2161 40.1903 49.6626 40.1903 51.4489C40.1805 53.2352 38.734 54.6817 36.9574 54.6817ZM36.9574 50.1092C36.2196 50.1092 35.608 50.7111 35.608 51.4586C35.608 52.1964 36.2099 52.808 36.9574 52.808C37.6953 52.808 38.3069 52.2061 38.3069 51.4586C38.3069 50.7111 37.6953 50.1092 36.9574 50.1092Z" currentColor="#141C21" />
  <path d="M24.0072 43.6144C22.2306 43.6144 20.7744 42.1679 20.7744 40.3816C20.7744 38.605 22.2209 37.1487 24.0072 37.1487C25.7838 37.1487 27.2401 38.5953 27.2401 40.3816C27.2401 42.1679 25.7838 43.6144 24.0072 43.6144ZM24.0072 39.0418C23.2694 39.0418 22.6578 39.6437 22.6578 40.3913C22.6578 41.1291 23.2597 41.7407 24.0072 41.7407C24.7548 41.7407 25.3567 41.1388 25.3567 40.3913C25.3567 39.6437 24.7451 39.0418 24.0072 39.0418Z" currentColor="#141C21" />
  <path d="M12.3866 55.2933C10.61 55.2933 9.15381 53.8468 9.15381 52.0605C9.15381 50.2839 10.6003 48.8277 12.3866 48.8277C14.1729 48.8277 15.6195 50.2742 15.6195 52.0605C15.6195 53.8468 14.1729 55.2933 12.3866 55.2933ZM12.3866 50.7208C11.6488 50.7208 11.0372 51.3227 11.0372 52.0702C11.0372 52.8081 11.6391 53.4197 12.3866 53.4197C13.1245 53.4197 13.7361 52.8178 13.7361 52.0702C13.7361 51.3227 13.1342 50.7208 12.3866 50.7208Z" currentColor="#141C21" />
  <path d="M14.008 51.4004C13.4838 51.4004 13.0566 50.9829 13.0566 50.4587C13.0566 50.1674 13.1926 49.8956 13.4061 49.7306L21.726 41.3427C21.9008 41.1679 22.1435 41.0612 22.3959 41.0612C22.9202 41.0612 23.3376 41.4786 23.3376 42.0028C23.3376 42.2941 23.2017 42.5562 22.9978 42.731L14.6779 51.1188C14.4935 51.3033 14.2605 51.4004 14.008 51.4004Z" currentColor="#141C21" />
  <path d="M38.5696 50.779C38.3269 50.779 38.0842 50.6819 37.8997 50.4975C37.5308 50.1286 37.5308 49.5364 37.8997 49.1675L53.4328 33.7315C53.8017 33.3625 54.3939 33.3625 54.7628 33.7315C55.1317 34.1004 55.1317 34.6926 54.7628 35.0615L39.2297 50.4975C39.055 50.6819 38.8123 50.779 38.5696 50.779Z" currentColor="#141C21" />
  <path d="M35.2105 50.9149C34.9969 50.9149 34.7736 50.8373 34.5988 50.6917L25.1237 42.595C24.7256 42.2553 24.6771 41.6631 25.0169 41.265C25.3567 40.867 25.9489 40.8282 26.3469 41.1582L35.8221 49.2549C36.2201 49.5946 36.2687 50.1868 35.9289 50.5849C35.7444 50.8082 35.4726 50.9149 35.2105 50.9149Z" currentColor="#141C21" />
  <path d="M10.4163 64.4773C9.89206 64.4773 9.47461 64.0598 9.47461 63.5356V61.1571C9.47461 60.6328 9.89206 60.2154 10.4163 60.2154C10.9405 60.2154 11.358 60.6328 11.358 61.1571V63.5356C11.358 64.0598 10.9308 64.4773 10.4163 64.4773Z" currentColor="#141C21" />
  <path d="M16.7166 64.4773C16.1924 64.4773 15.7749 64.0598 15.7749 63.5356V61.1571C15.7749 60.6328 16.1924 60.2154 16.7166 60.2154C17.2408 60.2154 17.6583 60.6328 17.6583 61.1571V63.5356C17.6583 64.0598 17.2408 64.4773 16.7166 64.4773Z" currentColor="#141C21" />
  <path d="M23.0271 64.4773C22.5029 64.4773 22.0854 64.0598 22.0854 63.5356V61.1571C22.0854 60.6328 22.5029 60.2154 23.0271 60.2154C23.5514 60.2154 23.9688 60.6328 23.9688 61.1571V63.5356C23.9688 64.0598 23.5417 64.4773 23.0271 64.4773Z" currentColor="#141C21" />
  <path d="M29.3274 64.4773C28.8032 64.4773 28.3857 64.0598 28.3857 63.5356V61.1571C28.3857 60.6328 28.8032 60.2154 29.3274 60.2154C29.8517 60.2154 30.2691 60.6328 30.2691 61.1571V63.5356C30.2691 64.0598 29.8517 64.4773 29.3274 64.4773Z" currentColor="#141C21" />
  <path d="M35.638 64.4773C35.1137 64.4773 34.6963 64.0598 34.6963 63.5356V61.1571C34.6963 60.6328 35.1137 60.2154 35.638 60.2154C36.1622 60.2154 36.5797 60.6328 36.5797 61.1571V63.5356C36.5797 64.0598 36.1525 64.4773 35.638 64.4773Z" currentColor="#141C21" />
  <path d="M41.9383 64.4773C41.414 64.4773 40.9966 64.0598 40.9966 63.5356V61.1571C40.9966 60.6328 41.414 60.2154 41.9383 60.2154C42.4625 60.2154 42.88 60.6328 42.88 61.1571V63.5356C42.88 64.0598 42.4625 64.4773 41.9383 64.4773Z" currentColor="#141C21" />
  <path d="M48.2483 64.4773C47.7241 64.4773 47.3066 64.0598 47.3066 63.5356V61.1571C47.3066 60.6328 47.7241 60.2154 48.2483 60.2154C48.7726 60.2154 49.19 60.6328 49.19 61.1571V63.5356C49.19 64.0598 48.7629 64.4773 48.2483 64.4773Z" currentColor="#141C21" />
  <path d="M54.5496 64.4773C54.0254 64.4773 53.6079 64.0598 53.6079 63.5356V61.1571C53.6079 60.6328 54.0254 60.2154 54.5496 60.2154C55.0738 60.2154 55.4913 60.6328 55.4913 61.1571V63.5356C55.4913 64.0598 55.0738 64.4773 54.5496 64.4773Z" currentColor="#141C21" />
  <path d="M59.2773 64.4773H4.01835C3.49411 64.4773 3.07666 64.0598 3.07666 63.5356C3.07666 63.0113 3.49411 62.5939 4.01835 62.5939H59.287C59.8113 62.5939 60.2287 63.0113 60.2287 63.5356C60.219 64.0598 59.8016 64.4773 59.2773 64.4773Z" currentColor="#141C21" />
  <path d="M6.39686 15.6063H4.01835C3.49411 15.6063 3.07666 15.1888 3.07666 14.6646C3.07666 14.1404 3.49411 13.7229 4.01835 13.7229H6.39686C6.9211 13.7229 7.33855 14.1404 7.33855 14.6646C7.33855 15.1888 6.91139 15.6063 6.39686 15.6063Z" currentColor="#141C21" />
  <path d="M6.39686 21.9166H4.01835C3.49411 21.9166 3.07666 21.4991 3.07666 20.9749C3.07666 20.4507 3.49411 20.0332 4.01835 20.0332H6.39686C6.9211 20.0332 7.33855 20.4507 7.33855 20.9749C7.33855 21.4991 6.91139 21.9166 6.39686 21.9166Z" currentColor="#141C21" />
  <path d="M6.39686 28.2172H4.01835C3.49411 28.2172 3.07666 27.7997 3.07666 27.2755C3.07666 26.7513 3.49411 26.3338 4.01835 26.3338H6.39686C6.9211 26.3338 7.33855 26.7513 7.33855 27.2755C7.33855 27.7997 6.91139 28.2172 6.39686 28.2172Z" currentColor="#141C21" />
  <path d="M6.39686 34.5275H4.01835C3.49411 34.5275 3.07666 34.11 3.07666 33.5858C3.07666 33.0616 3.49411 32.6441 4.01835 32.6441H6.39686C6.9211 32.6441 7.33855 33.0616 7.33855 33.5858C7.33855 34.1003 6.91139 34.5275 6.39686 34.5275Z" currentColor="#141C21" />
  <path d="M6.39686 40.8281H4.01835C3.49411 40.8281 3.07666 40.4106 3.07666 39.8864C3.07666 39.3622 3.49411 38.9447 4.01835 38.9447H6.39686C6.9211 38.9447 7.33855 39.3622 7.33855 39.8864C7.33855 40.4106 6.91139 40.8281 6.39686 40.8281Z" currentColor="#141C21" />
  <path d="M6.39686 47.1385H4.01835C3.49411 47.1385 3.07666 46.721 3.07666 46.1968C3.07666 45.6725 3.49411 45.2551 4.01835 45.2551H6.39686C6.9211 45.2551 7.33855 45.6725 7.33855 46.1968C7.33855 46.721 6.91139 47.1385 6.39686 47.1385Z" currentColor="#141C21" />
  <path d="M6.39686 53.4391H4.01835C3.49411 53.4391 3.07666 53.0216 3.07666 52.4974C3.07666 51.9731 3.49411 51.5557 4.01835 51.5557H6.39686C6.9211 51.5557 7.33855 51.9731 7.33855 52.4974C7.33855 53.0216 6.91139 53.4391 6.39686 53.4391Z" currentColor="#141C21" />
  <path d="M6.39686 59.7494H4.01835C3.49411 59.7494 3.07666 59.3319 3.07666 58.8077C3.07666 58.2834 3.49411 57.866 4.01835 57.866H6.39686C6.9211 57.866 7.33855 58.2834 7.33855 58.8077C7.33855 59.3222 6.91139 59.7494 6.39686 59.7494Z" currentColor="#141C21" />
  <path d="M4.01835 64.4772C3.49411 64.4772 3.07666 64.0598 3.07666 63.5355V3.32542C3.07666 2.80118 3.49411 2.38373 4.01835 2.38373C4.5426 2.38373 4.96005 2.80118 4.96005 3.32542V63.5355C4.96005 64.0598 4.53289 64.4772 4.01835 64.4772Z" currentColor="#141C21" />
  <path d="M6.39686 9.30569H4.01835C3.49411 9.30569 3.07666 8.87853 3.07666 8.364C3.07666 7.83975 3.49411 7.4223 4.01835 7.4223H6.39686C6.9211 7.4223 7.33855 7.83975 7.33855 8.364C7.33855 8.87853 6.91139 9.30569 6.39686 9.30569Z" currentColor="#141C21" />
</svg>