<svg width="75" height="65" viewBox="0 0 75 65" xmlns="http://www.w3.org/2000/svg">
  <path d="M11.5825 39.7739C11.5832 42.6564 12.6455 45.4376 14.5667 47.5865C16.4879 49.7353 19.1333 51.1013 21.9977 51.4234C24.8621 51.7455 27.7448 51.0013 30.0953 49.3328C32.4458 47.6643 34.0993 45.1885 34.7402 42.3782L32.4535 41.8593C31.982 43.9123 30.8357 45.7479 29.1979 47.0725C27.5339 48.4266 25.4519 49.162 23.3066 49.1532C20.9095 49.1531 18.6034 48.2352 16.8619 46.588C15.1203 44.9409 14.0755 42.6895 13.9419 40.2961C13.8084 37.9027 14.5962 35.549 16.1437 33.7183C17.6911 31.8876 19.8808 30.7188 22.263 30.452L22.0054 28.1213C19.1372 28.4372 16.4868 29.8014 14.563 31.9521C12.6393 34.1028 11.5778 36.8884 11.5825 39.7739Z" currentColor="#141C21" />
  <path d="M18.1303 36.2573L15.4425 38.945C15.3337 39.0538 15.2473 39.1831 15.1884 39.3253C15.1294 39.4676 15.0991 39.62 15.0991 39.774C15.0991 39.928 15.1294 40.0804 15.1884 40.2226C15.2473 40.3649 15.3337 40.4941 15.4425 40.603L18.1303 43.2907L19.7883 41.6327L17.9295 39.774L19.7883 37.9153L18.1303 36.2573Z" currentColor="#141C21" />
  <path d="M19.7837 34.5964L22.471 31.9092L24.1288 33.567L21.4415 36.2542L19.7837 34.5964Z" currentColor="#141C21" />
  <path d="M23.3068 45.1504L21.448 43.2917L19.79 44.9497L22.4778 47.6374C22.5866 47.7463 22.7159 47.8326 22.8581 47.8916C23.0003 47.9505 23.1528 47.9808 23.3068 47.9808C23.4607 47.9808 23.6132 47.9505 23.7554 47.8916C23.8977 47.8326 24.0269 47.7463 24.1358 47.6374L26.8235 44.9497L25.1655 43.2917L23.3068 45.1504Z" currentColor="#141C21" />
  <path d="M26.8169 41.6309L29.5042 38.9436L31.162 40.6014L28.4747 43.2886L26.8169 41.6309Z" currentColor="#141C21" />
  <path d="M21.369 39.357L22.8846 37.8415C22.9945 37.7315 23.1436 37.6698 23.2991 37.6698C23.4545 37.6698 23.6036 37.7315 23.7135 37.8415L25.2291 39.357C25.339 39.467 25.4007 39.616 25.4007 39.7715C25.4007 39.9269 25.339 40.076 25.2291 40.1859L23.7135 41.7015C23.6036 41.8114 23.4545 41.8732 23.2991 41.8732C23.1436 41.8732 22.9945 41.8114 22.8846 41.7015L21.369 40.1859C21.2591 40.076 21.1974 39.9269 21.1974 39.7715C21.1974 39.616 21.2591 39.467 21.369 39.357Z" currentColor="#141C21" />
  <path d="M24.4785 26.8775C24.4785 29.4281 25.2349 31.9215 26.652 34.0424C28.0691 36.1632 30.0832 37.8162 32.4397 38.7923C34.7963 39.7684 37.3893 40.0238 39.891 39.5261C42.3927 39.0285 44.6906 37.8003 46.4942 35.9967C48.2978 34.193 49.5261 31.8951 50.0237 29.3934C50.5213 26.8918 50.2659 24.2987 49.2898 21.9422C48.3137 19.5857 46.6607 17.5715 44.5399 16.1544C42.4191 14.7373 39.9257 13.981 37.375 13.981C33.9558 13.9848 30.6778 15.3448 28.2601 17.7625C25.8424 20.1802 24.4824 23.4583 24.4785 26.8775ZM37.375 16.3258C39.4619 16.3258 41.502 16.9446 43.2372 18.1041C44.9724 19.2635 46.3249 20.9114 47.1235 22.8395C47.9221 24.7676 48.1311 26.8892 47.7239 28.936C47.3168 30.9828 46.3119 32.8629 44.8362 34.3386C43.3605 35.8143 41.4804 36.8192 39.4335 37.2264C37.3867 37.6335 35.2651 37.4246 33.3371 36.6259C31.409 35.8273 29.761 34.4749 28.6016 32.7397C27.4422 31.0044 26.8233 28.9644 26.8233 26.8775C26.8265 24.0799 27.9392 21.3979 29.9174 19.4198C31.8955 17.4417 34.5775 16.3289 37.375 16.3258Z" currentColor="#141C21" />
  <path d="M33.8575 32.7394H36.2023V35.084H38.5471V32.7394C39.2263 32.7398 39.891 32.5435 40.461 32.1742C41.0309 31.8048 41.4816 31.2782 41.7586 30.6581C42.0357 30.038 42.1271 29.351 42.0219 28.68C41.9167 28.009 41.6194 27.3829 41.1659 26.8774C41.6194 26.3718 41.9167 25.7457 42.0219 25.0747C42.1271 24.4038 42.0357 23.7167 41.7586 23.0966C41.4816 22.4765 41.0309 21.9499 40.461 21.5806C39.891 21.2112 39.2263 21.0149 38.5471 21.0153V18.6703H36.2023V21.0153H33.8575C33.7035 21.0153 33.551 21.0456 33.4088 21.1046C33.2666 21.1635 33.1373 21.2498 33.0284 21.3587C32.9196 21.4676 32.8332 21.5968 32.7743 21.7391C32.7154 21.8813 32.6851 22.0338 32.6851 22.1877V31.567C32.6851 31.721 32.7154 31.8734 32.7743 32.0157C32.8332 32.1579 32.9196 32.2872 33.0284 32.396C33.1373 32.5049 33.2666 32.5913 33.4088 32.6502C33.551 32.7091 33.7035 32.7394 33.8575 32.7394ZM38.5471 30.3946H35.0299V28.0498H38.5471C38.858 28.0498 39.1563 28.1733 39.3761 28.3932C39.596 28.613 39.7195 28.9112 39.7195 29.2222C39.7195 29.5331 39.596 29.8313 39.3761 30.0512C39.1563 30.2711 38.858 30.3946 38.5471 30.3946ZM35.0299 23.3601H38.5471C38.858 23.3601 39.1563 23.4837 39.3761 23.7035C39.596 23.9234 39.7195 24.2216 39.7195 24.5325C39.7195 24.8435 39.596 25.1417 39.3761 25.3616C39.1563 25.5814 38.858 25.705 38.5471 25.705H35.0299V23.3601Z" currentColor="#141C21" />
  <path d="M22.0054 25.6335L22.263 23.3028C20.5529 23.1108 18.9285 22.4519 17.5678 21.3984C16.2071 20.3448 15.1625 18.9372 14.5483 17.3296C13.9342 15.7221 13.7742 13.9765 14.0858 12.2841C14.3975 10.5916 15.1687 9.01755 16.3152 7.73417C17.4617 6.45079 18.9392 5.50758 20.5859 5.00781C22.2326 4.50804 23.9851 4.47097 25.6515 4.90066C27.3179 5.33035 28.8339 6.21024 30.0337 7.44399C31.2334 8.67774 32.0705 10.2178 32.4535 11.8955L34.7402 11.3766C34.2622 9.27847 33.2161 7.35232 31.7164 5.80912C30.2167 4.26592 28.3212 3.16519 26.2376 2.62749C24.154 2.0898 21.9625 2.13587 19.9034 2.76067C17.8442 3.38546 15.9966 4.56489 14.5631 6.16976C13.1296 7.77463 12.1654 9.74305 11.776 11.8594C11.3867 13.9758 11.5873 16.1585 12.3558 18.1685C13.1244 20.1784 14.4312 21.9381 16.1332 23.2548C17.8353 24.5715 19.8668 25.3945 22.0054 25.6335Z" currentColor="#141C21" />
  <path d="M24.4787 13.9809V10.4637H26.8235V8.1189H19.7891V10.4637H22.1339V13.9809H24.4787Z" currentColor="#141C21" />
  <path d="M24.4778 21.0154V17.4038C27.1503 16.9681 29.1674 15.0733 29.1674 12.8085H26.8226C26.8226 14.0795 25.2119 15.1534 23.3054 15.1534C21.3989 15.1534 19.7882 14.0795 19.7882 12.8085H17.4434C17.4434 15.0733 19.4605 16.9681 22.133 17.4038V21.0154H24.4778Z" currentColor="#141C21" />
  <path d="M45.5525 6.68238C47.2165 5.32825 49.2985 4.59293 51.4438 4.60169C53.8409 4.60181 56.147 5.51969 57.8886 7.16685C59.6301 8.81401 60.675 11.0654 60.8085 13.4588C60.9421 15.8522 60.1542 18.2059 58.6068 20.0366C57.0593 21.8673 54.8696 23.0361 52.4874 23.3029L52.745 25.6336C54.8831 25.3942 56.9141 24.5711 58.6156 23.2545C60.3171 21.9378 61.6234 20.1783 62.3916 18.1687C63.1598 16.1591 63.3602 13.9769 62.9709 11.861C62.5815 9.74505 61.6175 7.77708 60.1842 6.17255C58.751 4.56802 56.9039 3.38881 54.8452 2.76405C52.7865 2.13929 50.5955 2.09308 48.5123 2.63048C46.4291 3.16787 44.5339 4.26815 43.0343 5.81082C41.5347 7.35349 40.4885 9.27906 40.0103 11.3767L42.297 11.8956C42.7684 9.84262 43.9147 8.00702 45.5525 6.68238Z" currentColor="#141C21" />
  <path d="M51.4439 15.1534C52.0914 15.1534 52.6163 14.6284 52.6163 13.9809C52.6163 13.3334 52.0914 12.8085 51.4439 12.8085C50.7964 12.8085 50.2715 13.3334 50.2715 13.9809C50.2715 14.6284 50.7964 15.1534 51.4439 15.1534Z" currentColor="#141C21" />
  <path d="M51.4439 11.6361C52.0914 11.6361 52.6163 11.1112 52.6163 10.4637C52.6163 9.81616 52.0914 9.29126 51.4439 9.29126C50.7964 9.29126 50.2715 9.81616 50.2715 10.4637C50.2715 11.1112 50.7964 11.6361 51.4439 11.6361Z" currentColor="#141C21" />
  <path d="M47.9273 15.1534C48.5748 15.1534 49.0997 14.6284 49.0997 13.9809C49.0997 13.3334 48.5748 12.8085 47.9273 12.8085C47.2798 12.8085 46.7549 13.3334 46.7549 13.9809C46.7549 14.6284 47.2798 15.1534 47.9273 15.1534Z" currentColor="#141C21" />
  <path d="M54.9615 15.1534C55.609 15.1534 56.1339 14.6284 56.1339 13.9809C56.1339 13.3334 55.609 12.8085 54.9615 12.8085C54.314 12.8085 53.7891 13.3334 53.7891 13.9809C53.7891 14.6284 54.314 15.1534 54.9615 15.1534Z" currentColor="#141C21" />
  <path d="M58.479 15.1534C59.1266 15.1534 59.6515 14.6284 59.6515 13.9809C59.6515 13.3334 59.1266 12.8085 58.479 12.8085C57.8315 12.8085 57.3066 13.3334 57.3066 13.9809C57.3066 14.6284 57.8315 15.1534 58.479 15.1534Z" currentColor="#141C21" />
  <path d="M51.4439 8.11893C52.0914 8.11893 52.6163 7.59402 52.6163 6.94652C52.6163 6.29901 52.0914 5.77411 51.4439 5.77411C50.7964 5.77411 50.2715 6.29901 50.2715 6.94652C50.2715 7.59402 50.7964 8.11893 51.4439 8.11893Z" currentColor="#141C21" />
  <path d="M51.4439 22.1878C52.0914 22.1878 52.6163 21.6629 52.6163 21.0154C52.6163 20.3679 52.0914 19.843 51.4439 19.843C50.7964 19.843 50.2715 20.3679 50.2715 21.0154C50.2715 21.6629 50.7964 22.1878 51.4439 22.1878Z" currentColor="#141C21" />
  <path d="M51.4439 18.6706C52.0914 18.6706 52.6163 18.1457 52.6163 17.4982C52.6163 16.8507 52.0914 16.3258 51.4439 16.3258C50.7964 16.3258 50.2715 16.8507 50.2715 17.4982C50.2715 18.1457 50.7964 18.6706 51.4439 18.6706Z" currentColor="#141C21" />
  <path d="M47.9273 11.6361C48.5748 11.6361 49.0997 11.1112 49.0997 10.4637C49.0997 9.81616 48.5748 9.29126 47.9273 9.29126C47.2798 9.29126 46.7549 9.81616 46.7549 10.4637C46.7549 11.1112 47.2798 11.6361 47.9273 11.6361Z" currentColor="#141C21" />
  <path d="M54.9615 11.6361C55.609 11.6361 56.1339 11.1112 56.1339 10.4637C56.1339 9.81616 55.609 9.29126 54.9615 9.29126C54.314 9.29126 53.7891 9.81616 53.7891 10.4637C53.7891 11.1112 54.314 11.6361 54.9615 11.6361Z" currentColor="#141C21" />
  <path d="M54.9615 18.6706C55.609 18.6706 56.1339 18.1457 56.1339 17.4982C56.1339 16.8507 55.609 16.3258 54.9615 16.3258C54.314 16.3258 53.7891 16.8507 53.7891 17.4982C53.7891 18.1457 54.314 18.6706 54.9615 18.6706Z" currentColor="#141C21" />
  <path d="M71.3747 55.0153H67.8575V25.7051C67.8565 24.7726 67.4856 23.8786 66.8262 23.2192C66.1668 22.5598 65.2728 22.1889 64.3403 22.1879H61.9955V24.5327H64.3403C64.6511 24.533 64.9491 24.6567 65.1689 24.8765C65.3887 25.0963 65.5124 25.3943 65.5127 25.7051V55.0153H9.23709V25.7051C9.23744 25.3943 9.36108 25.0963 9.58087 24.8765C9.80066 24.6567 10.0987 24.533 10.4095 24.5327H12.7543V22.1879H10.4095C9.47699 22.1889 8.58298 22.5598 7.92359 23.2192C7.26421 23.8786 6.89331 24.7726 6.89227 25.7051V55.0153H3.37505C3.22108 55.0153 3.06862 55.0456 2.92638 55.1045C2.78413 55.1635 2.65489 55.2498 2.54602 55.3587C2.43715 55.4676 2.35079 55.5968 2.29187 55.7391C2.23295 55.8813 2.20263 56.0338 2.20264 56.1877V59.7049C2.2037 60.6374 2.57461 61.5314 3.23399 62.1908C3.89336 62.8502 4.78736 63.2211 5.71986 63.2222H69.0299C69.9624 63.2211 70.8564 62.8502 71.5158 62.1908C72.1752 61.5314 72.5461 60.6374 72.5472 59.7049V56.1877C72.5472 56.0338 72.5168 55.8813 72.4579 55.7391C72.399 55.5968 72.3126 55.4676 72.2038 55.3587C72.0949 55.2498 71.9657 55.1635 71.8234 55.1045C71.6812 55.0456 71.5287 55.0153 71.3747 55.0153ZM70.2023 59.7049C70.202 60.0158 70.0784 60.3138 69.8586 60.5336C69.6388 60.7534 69.3408 60.877 69.0299 60.8774H5.71986C5.40903 60.877 5.11103 60.7534 4.89124 60.5336C4.67145 60.3138 4.54781 60.0158 4.54745 59.7049V57.3601H31.0273L31.8563 58.1891C31.9651 58.298 32.0944 58.3844 32.2366 58.4433C32.3788 58.5022 32.5313 58.5325 32.6853 58.5325H42.0645C42.2185 58.5325 42.371 58.5022 42.5132 58.4433C42.6554 58.3844 42.7847 58.298 42.8935 58.1891L43.7225 57.3601H70.2023V59.7049Z" currentColor="#141C21" />
  <path d="M52.745 28.1213L52.4874 30.452C54.1976 30.644 55.8219 31.3029 57.1826 32.3565C58.5433 33.41 59.5879 34.8176 60.2021 36.4252C60.8162 38.0328 60.9762 39.7783 60.6646 41.4708C60.353 43.1632 59.5817 44.7373 58.4352 46.0207C57.2887 47.304 55.8112 48.2473 54.1645 48.747C52.5178 49.2468 50.7653 49.2839 49.0989 48.8542C47.4325 48.4245 45.9165 47.5446 44.7168 46.3108C43.517 45.0771 42.6799 43.537 42.297 41.8593L40.0103 42.3782C40.4882 44.4764 41.5343 46.4025 43.034 47.9457C44.5337 49.4889 46.4292 50.5896 48.5128 51.1273C50.5965 51.665 52.7879 51.619 54.8471 50.9942C56.9062 50.3694 58.7538 49.19 60.1873 47.5851C61.6208 45.9802 62.5851 44.0118 62.9744 41.8954C63.3637 39.779 63.1631 37.5963 62.3946 35.5864C61.6261 33.5764 60.3192 31.8167 58.6172 30.5C56.9151 29.1833 54.8836 28.3604 52.745 28.1213Z" currentColor="#141C21" />
  <path d="M50.6156 46.4649C50.7244 46.5738 50.8537 46.6602 50.9959 46.7191C51.1382 46.778 51.2906 46.8083 51.4446 46.8083C51.5985 46.8083 51.751 46.778 51.8932 46.7191C52.0355 46.6602 52.1647 46.5738 52.2736 46.4649L56.9632 41.7753C57.1451 41.5934 57.2621 41.3568 57.2963 41.1019C57.3304 40.847 57.2797 40.5879 57.1521 40.3646L52.4625 32.1577C52.3599 31.9783 52.2118 31.8291 52.033 31.7254C51.8543 31.6217 51.6513 31.567 51.4446 31.567C51.2379 31.567 51.0349 31.6217 50.8561 31.7254C50.6774 31.8291 50.5292 31.9783 50.4267 32.1577L45.737 40.3646C45.6094 40.5879 45.5588 40.847 45.5929 41.1019C45.627 41.3568 45.7441 41.5934 45.9259 41.7753L50.6156 46.4649ZM51.4446 43.9779L49.0481 41.5815L51.4446 40.9824L53.841 41.5815L51.4446 43.9779ZM51.4446 35.1025L53.7531 39.1425L51.7289 38.6365C51.5422 38.5898 51.3469 38.5898 51.1602 38.6365L49.136 39.1425L51.4446 35.1025Z" currentColor="#141C21" />
</svg>