<svg width="65" height="65" viewBox="0 0 65 65" xmlns="http://www.w3.org/2000/svg">
  <path d="M61.5614 26.4323C61.1328 25.8477 60.5829 25.3628 59.9493 25.0108C59.3156 24.6588 58.6134 24.4481 57.8906 24.3931V24.375C57.8891 23.0287 57.3536 21.7379 56.4016 20.7859C55.4496 19.8339 54.1588 19.2984 52.8125 19.2969V5.07812C52.8116 4.27033 52.4903 3.49588 51.9191 2.92468C51.3479 2.35348 50.5734 2.03217 49.7656 2.03125H11.1719C10.3641 2.03217 9.58963 2.35348 9.01843 2.92468C8.44723 3.49588 8.12592 4.27033 8.125 5.07812V19.2969H7.10938C5.76304 19.2984 4.47228 19.8339 3.52028 20.7859C2.56827 21.7379 2.03277 23.0287 2.03125 24.375V57.8906C2.03277 59.237 2.56827 60.5277 3.52028 61.4797C4.47228 62.4317 5.76304 62.9672 7.10938 62.9688H48.7903C49.879 62.9731 50.94 62.6255 51.8151 61.9778C52.6903 61.3302 53.3327 60.417 53.6467 59.3746L62.336 30.9371C62.5717 30.1784 62.6244 29.3746 62.4898 28.5916C62.3551 27.8087 62.037 27.0687 61.5614 26.4323ZM52.8125 21.3281C53.6203 21.329 54.3948 21.6503 54.966 22.2215C55.5372 22.7927 55.8585 23.5672 55.8594 24.375H52.8125V21.3281ZM4.0625 24.375C4.06342 23.5672 4.38473 22.7928 4.95593 22.2216C5.52713 21.6504 6.30158 21.329 7.10938 21.3281H8.125V30.4688H10.1562V5.07812C10.1566 4.80886 10.2637 4.55071 10.4541 4.36031C10.6445 4.16991 10.9026 4.06281 11.1719 4.0625H49.7656C50.0349 4.06281 50.293 4.16991 50.4834 4.36031C50.6738 4.55071 50.7809 4.80886 50.7812 5.07812V24.375H17.2585C16.1628 24.3795 15.0977 24.7364 14.2204 25.3928C13.3431 26.0492 12.7002 26.9704 12.3867 28.0203L4.0625 56.3225V24.375ZM60.3934 30.3435L51.7041 58.781C51.5158 59.4065 51.1303 59.9543 50.6052 60.3429C50.0801 60.7316 49.4435 60.9401 48.7903 60.9375H7.10938C6.34957 60.9381 5.61717 60.6537 5.05686 60.1405L14.3354 28.5934C14.5235 27.9635 14.9093 27.4108 15.4356 27.0169C15.962 26.6231 16.6011 26.409 17.2585 26.4062H57.4795C57.9558 26.4063 58.4255 26.5179 58.8508 26.7323C59.2761 26.9466 59.6453 27.2577 59.9286 27.6406C60.2119 28.0234 60.4016 28.4674 60.4823 28.9368C60.563 29.4062 60.5325 29.888 60.3934 30.3435Z" currentColor="#141C21" />
  <path d="M38.5939 32.5C38.593 31.6922 38.2717 30.9178 37.7005 30.3466C37.1293 29.7754 36.3548 29.454 35.547 29.4531H33.5158C32.708 29.454 31.9335 29.7754 31.3623 30.3466C30.7911 30.9178 30.4698 31.6922 30.4689 32.5V44.6875H26.2295L34.5314 54.3731L42.8333 44.6875H38.5939V32.5ZM34.5314 51.2519L30.6458 46.7188H32.5002V32.5C32.5005 32.2307 32.6076 31.9726 32.798 31.7822C32.9884 31.5918 33.2465 31.4847 33.5158 31.4844H35.547C35.8163 31.4847 36.0744 31.5918 36.2648 31.7822C36.4552 31.9726 36.5624 32.2307 36.5627 32.5V46.7188H38.417L34.5314 51.2519Z" currentColor="#141C21" />
  <path d="M29.4531 55.8594H39.6094V57.8906H29.4531V55.8594Z" currentColor="#141C21" />
  <path d="M13.2031 8.125H21.3281V10.1562H13.2031V8.125Z" currentColor="#141C21" />
  <path d="M36.5625 13.2031H47.7344V15.2344H36.5625V13.2031Z" currentColor="#141C21" />
  <path d="M13.2031 18.2812H29.4531V20.3125H13.2031V18.2812Z" currentColor="#141C21" />
  <path d="M23.3594 8.125H47.7344V10.1562H23.3594V8.125Z" currentColor="#141C21" />
  <path d="M13.2031 13.2031H34.5312V15.2344H13.2031V13.2031Z" currentColor="#141C21" />
  <path d="M31.4844 18.2812H47.7344V20.3125H31.4844V18.2812Z" currentColor="#141C21" />
</svg>