<svg width="65" height="65" viewBox="0 0 65 65" xmlns="http://www.w3.org/2000/svg">
  <path d="M31.4517 7.33872H37.742C38.321 7.33872 38.7904 6.86934 38.7904 6.29033C38.7904 5.71132 38.321 5.24194 37.742 5.24194H31.4517C30.8727 5.24194 30.4033 5.71132 30.4033 6.29033C30.4033 6.86934 30.8727 7.33872 31.4517 7.33872Z" currentColor="#141C21" />
  <path d="M41.9356 7.33872H44.0324C44.6114 7.33872 45.0808 6.86934 45.0808 6.29033C45.0808 5.71132 44.6114 5.24194 44.0324 5.24194H41.9356C41.3566 5.24194 40.8872 5.71132 40.8872 6.29033C40.8872 6.86934 41.3566 7.33872 41.9356 7.33872Z" currentColor="#141C21" />
  <path d="M10.4839 22.0161H19.9194C20.4984 22.0161 20.9678 21.5468 20.9678 20.9678C20.9678 20.3888 20.4984 19.9194 19.9194 19.9194H10.4839C9.90493 19.9194 9.43555 20.3888 9.43555 20.9678C9.43555 21.5468 9.90493 22.0161 10.4839 22.0161Z" currentColor="#141C21" />
  <path d="M25.1612 22.0161H40.887C41.466 22.0161 41.9354 21.5468 41.9354 20.9678C41.9354 20.3888 41.466 19.9194 40.887 19.9194H25.1612C24.5822 19.9194 24.1128 20.3888 24.1128 20.9678C24.1128 21.5468 24.5822 22.0161 25.1612 22.0161Z" currentColor="#141C21" />
  <path d="M40.8872 25.1613H31.4517C30.8727 25.1613 30.4033 25.6307 30.4033 26.2097C30.4033 26.7887 30.8727 27.2581 31.4517 27.2581H40.8872C41.4662 27.2581 41.9356 26.7887 41.9356 26.2097C41.9356 25.6307 41.4662 25.1613 40.8872 25.1613Z" currentColor="#141C21" />
  <path d="M10.4839 27.2581H26.2097C26.7887 27.2581 27.2581 26.7887 27.2581 26.2097C27.2581 25.6307 26.7887 25.1613 26.2097 25.1613H10.4839C9.90493 25.1613 9.43555 25.6307 9.43555 26.2097C9.43555 26.7887 9.90493 27.2581 10.4839 27.2581Z" currentColor="#141C21" />
  <path d="M20.9678 31.4516C20.9678 30.8726 20.4984 30.4033 19.9194 30.4033H10.4839C9.90493 30.4033 9.43555 30.8726 9.43555 31.4516C9.43555 32.0307 9.90493 32.5 10.4839 32.5H19.9194C20.4984 32.5 20.9678 32.0307 20.9678 31.4516Z" currentColor="#141C21" />
  <path d="M40.887 30.4033H25.1612C24.5822 30.4033 24.1128 30.8726 24.1128 31.4516C24.1128 32.0307 24.5822 32.5 25.1612 32.5H40.887C41.466 32.5 41.9354 32.0307 41.9354 31.4516C41.9354 30.8726 41.466 30.4033 40.887 30.4033Z" currentColor="#141C21" />
  <path d="M58.7096 5.24195H49.1693C48.6677 2.80296 46.5222 1.05154 44.0322 1.0484H15.7258C15.4477 1.04846 15.1811 1.15895 14.9845 1.35558L1.35552 14.9846C1.15889 15.1812 1.0484 15.4478 1.04834 15.7258V54.5161C1.05181 57.4097 3.39667 59.7546 6.29028 59.7581H15.8306C16.3322 62.1971 18.4777 63.9485 20.9677 63.9516H58.7096C61.6032 63.9482 63.9481 61.6033 63.9516 58.7097V10.4839C63.9481 7.59028 61.6032 5.24542 58.7096 5.24195ZM45.0806 51.371V50.8468C45.0806 49.9783 44.3765 49.2742 43.508 49.2742H32.5V45.0807H43.508C44.3765 45.0807 45.0806 44.3766 45.0806 43.5081V42.9839L50.6727 47.1774L45.0806 51.371ZM14.6774 4.62759V11.5323C14.6774 13.2693 13.2692 14.6774 11.5322 14.6774H4.62753L14.6774 4.62759ZM3.14511 54.5161V16.7742H11.5322C14.4258 16.7707 16.7707 14.4259 16.7741 11.5323V3.14517H44.0322C45.7692 3.14517 47.1774 4.55331 47.1774 6.29034V41.9355L45.5 40.6774C45.0234 40.32 44.3859 40.2626 43.8531 40.5289C43.3204 40.7953 42.9838 41.3398 42.9838 41.9355V42.9839H31.9758C31.1072 42.9839 30.4032 43.688 30.4032 44.5565V49.7984C30.4032 50.6669 31.1072 51.371 31.9758 51.371H42.9838V52.4194C42.9838 53.015 43.3204 53.5595 43.8531 53.8259C44.3859 54.0923 45.0234 54.0348 45.5 53.6774L47.1774 52.4194V54.5161C47.1774 56.2532 45.7692 57.6613 44.0322 57.6613H6.29028C4.55325 57.6613 3.14511 56.2532 3.14511 54.5161ZM61.8548 58.7097C61.8548 60.4467 60.4467 61.8549 58.7096 61.8549H20.9677C19.6396 61.8493 18.4581 61.0102 18.0154 59.7581H44.0322C46.9258 59.7546 49.2707 57.4097 49.2741 54.5161V50.8468L52.4895 48.4355C52.8855 48.1385 53.1186 47.6724 53.1186 47.1774C53.1186 46.6824 52.8855 46.2164 52.4895 45.9194L49.2741 43.5081V36.6936H55.5645C56.1435 36.6936 56.6129 36.2242 56.6129 35.6452C56.6129 35.0662 56.1435 34.5968 55.5645 34.5968H49.2741V31.4516H55.5645C56.1435 31.4516 56.6129 30.9822 56.6129 30.4032C56.6129 29.8242 56.1435 29.3549 55.5645 29.3549H49.2741V26.2097H55.5645C56.1435 26.2097 56.6129 25.7403 56.6129 25.1613C56.6129 24.5823 56.1435 24.1129 55.5645 24.1129H49.2741V11.5323H52.4193C52.9983 11.5323 53.4677 11.0629 53.4677 10.4839C53.4677 9.90488 52.9983 9.4355 52.4193 9.4355H49.2741V7.33872H58.7096C60.4467 7.33872 61.8548 8.74686 61.8548 10.4839V58.7097Z" currentColor="#141C21" />
  <path d="M58.7096 9.43549H56.6128C56.0338 9.43549 55.5645 9.90486 55.5645 10.4839C55.5645 11.0629 56.0338 11.5323 56.6128 11.5323H58.7096C59.2886 11.5323 59.758 11.0629 59.758 10.4839C59.758 9.90486 59.2886 9.43549 58.7096 9.43549Z" currentColor="#141C21" />
</svg>