<svg width="67" height="67" viewBox="0 0 67 67" xmlns="http://www.w3.org/2000/svg">
  <g clip-path="url(#clip0_195_524)">
    <path d="M4.25063 35.6657C5.11272 35.6671 5.9399 35.3252 6.54946 34.7156C6.63396 34.6311 11.834 29.4408 11.834 29.4408L14.5022 32.1112C15.5182 33.128 16.8966 33.6993 18.334 33.6993C19.7713 33.6993 21.1498 33.128 22.1657 32.1112L38.0604 16.2112L42.8942 21.0472C45.0118 23.1612 48.4412 23.1612 50.5588 21.0472L60.2351 11.3578L61.039 12.1617C61.7548 12.8768 62.8216 13.1096 63.7704 12.7577C64.7191 12.4059 65.3761 11.5337 65.4525 10.5247L65.9941 3.547V3.53617C66.0411 2.85206 65.7899 2.18108 65.3052 1.69599C64.8205 1.21091 64.1498 0.959136 63.4656 1.0055L56.4814 1.54717C55.4727 1.61931 54.599 2.27375 54.2462 3.22146C53.8934 4.16918 54.1264 5.23563 54.8423 5.94983L55.6461 6.75583L46.7249 15.6814L41.8921 10.8454C40.8762 9.82862 39.4977 9.25732 38.0604 9.25732C36.623 9.25732 35.2446 9.82862 34.2286 10.8454L18.334 26.7466L15.6679 24.074C13.5506 21.9594 10.1206 21.9594 8.0033 24.074L1.96371 30.1298C1.03554 31.056 0.756749 32.4501 1.25738 33.6619C1.75801 34.8738 2.93944 35.6646 4.25063 35.6657ZM3.4923 31.6573L9.53621 25.6004C10.1458 24.9901 10.973 24.6472 11.8356 24.6472C12.6982 24.6472 13.5254 24.9901 14.135 25.6004L17.568 29.0357C17.7712 29.2391 18.047 29.3534 18.3345 29.3534C18.622 29.3534 18.8978 29.2391 19.101 29.0357L35.7605 12.374C37.0472 11.1444 39.0735 11.1444 40.3603 12.374L45.1941 17.21C46.0516 18.0289 47.4014 18.0289 48.2589 17.21L57.945 7.5185C58.3672 7.09558 58.3672 6.41067 57.945 5.98775L56.3709 4.41367C56.2518 4.3032 56.2142 4.13026 56.2766 3.98033C56.3313 3.82106 56.4778 3.71146 56.6461 3.70408L63.626 3.16567C63.6805 3.16321 63.7335 3.18455 63.7711 3.22417C63.814 3.26527 63.837 3.32299 63.834 3.38233L63.2923 10.359C63.2805 10.5243 63.1733 10.6674 63.0181 10.7255C62.8629 10.7835 62.6882 10.7457 62.5708 10.6287L61.001 9.05683C60.5709 8.65031 59.8983 8.65031 59.4681 9.05683L49.0259 19.5142C47.7382 20.7404 45.7149 20.7404 44.4271 19.5142L39.5933 14.6782C39.1878 14.27 38.6358 14.041 38.0604 14.0423C37.486 14.0417 36.935 14.2702 36.5296 14.6772L20.635 30.5794C19.348 31.8084 17.3221 31.8084 16.0351 30.5794L13.3669 27.909C12.5209 27.0639 11.1503 27.0639 10.3043 27.909L5.01438 33.1903C4.58992 33.6056 3.91134 33.6056 3.48688 33.1903C3.28197 32.9912 3.16635 32.7176 3.16635 32.4319C3.16635 32.1462 3.28197 31.8727 3.48688 31.6736L3.4923 31.6573Z" currentColor="#141C21" />
    <path d="M44.3335 42.1657C44.3431 37.0645 40.7925 32.6477 35.8084 31.5609C30.8243 30.474 25.7572 33.0115 23.642 37.6536C21.5269 42.2956 22.9368 47.7844 27.0273 50.8324H27.0002C25.7158 50.8267 24.5496 51.5812 24.0284 52.7551C23.5071 53.929 23.7296 55.3001 24.5952 56.249C23.4685 57.4737 23.4685 59.3576 24.5952 60.5824C23.7296 61.5313 23.5071 62.9023 24.0284 64.0763C24.5496 65.2502 25.7158 66.0047 27.0002 65.999H40.0002C41.2846 66.0047 42.4508 65.2502 42.972 64.0763C43.4932 62.9023 43.2708 61.5313 42.4052 60.5824C43.5319 59.3576 43.5319 57.4737 42.4052 56.249C43.2708 55.3001 43.4932 53.929 42.972 52.7551C42.4508 51.5812 41.2846 50.8267 40.0002 50.8324H39.9731C42.7136 48.7941 44.3302 45.5811 44.3335 42.1657ZM41.0835 58.4157C41.0835 59.014 40.5985 59.499 40.0002 59.499H27.0002C26.4019 59.499 25.9169 59.014 25.9169 58.4157C25.9169 57.8174 26.4019 57.3324 27.0002 57.3324H40.0002C40.5985 57.3324 41.0835 57.8174 41.0835 58.4157ZM40.0002 63.8324H27.0002C26.4019 63.8324 25.9169 63.3473 25.9169 62.749C25.9169 62.1507 26.4019 61.6657 27.0002 61.6657H40.0002C40.5985 61.6657 41.0835 62.1507 41.0835 62.749C41.0835 63.3473 40.5985 63.8324 40.0002 63.8324ZM40.0002 52.999C40.5985 52.999 41.0835 53.484 41.0835 54.0824C41.0835 54.6807 40.5985 55.1657 40.0002 55.1657H27.0002C26.4019 55.1657 25.9169 54.6807 25.9169 54.0824C25.9169 53.484 26.4019 52.999 27.0002 52.999H40.0002ZM24.8335 42.1657C24.8335 37.3792 28.7137 33.499 33.5002 33.499C38.2867 33.499 42.1669 37.3792 42.1669 42.1657C42.1669 46.9522 38.2867 50.8324 33.5002 50.8324C28.716 50.827 24.8389 46.9499 24.8335 42.1657Z" currentColor="#141C21" />
    <path currentColor-rule="evenodd" clip-rule="evenodd" d="M33.5008 41.0824C32.9752 41.0819 32.5258 40.7041 32.4349 40.1865C32.3439 39.6688 32.6377 39.1605 33.1317 38.9809C33.6256 38.8013 34.1773 39.0022 34.4401 39.4574C34.6272 39.8051 34.9886 40.0234 35.3834 40.0273C35.7782 40.0312 36.1439 39.8199 36.3378 39.476C36.5316 39.132 36.523 38.7098 36.3153 38.374C35.9226 37.715 35.3093 37.2161 34.5842 36.9657V36.749C34.5842 36.1507 34.0991 35.6657 33.5008 35.6657C32.9025 35.6657 32.4175 36.1507 32.4175 36.749V36.9484C30.9262 37.4736 30.0312 38.9979 30.2992 40.5561C30.5671 42.1143 31.9198 43.252 33.5008 43.249C34.0264 43.2496 34.4758 43.6273 34.5668 44.145C34.6577 44.6626 34.3639 45.1709 33.87 45.3505C33.376 45.5301 32.8244 45.3292 32.5616 44.874C32.2535 44.3761 31.6054 44.213 31.0984 44.506C30.5913 44.7989 30.4088 45.4417 30.6863 45.9574C31.0796 46.6168 31.6937 47.1158 32.4197 47.3657V47.5824C32.4197 48.1807 32.9047 48.6657 33.503 48.6657C34.1013 48.6657 34.5863 48.1807 34.5863 47.5824V47.383C36.078 46.8577 36.973 45.3328 36.7045 43.7743C36.436 42.2158 35.0823 41.0783 33.5008 41.0824Z" currentColor="#141C21" />
    <path d="M55.1671 22.6657C50.5003 22.6605 46.3559 25.648 44.8857 30.0771C43.4154 34.5063 44.9506 39.3791 48.6942 42.1657H48.6671C47.3827 42.16 46.2165 42.9145 45.6952 44.0884C45.174 45.2623 45.3965 46.6334 46.2621 47.5823C45.1353 48.8071 45.1353 50.6909 46.2621 51.9157C45.1353 53.1404 45.1353 55.0243 46.2621 56.249C45.1353 57.4737 45.1353 59.3576 46.2621 60.5823C45.3965 61.5313 45.174 62.9023 45.6952 64.0762C46.2165 65.2502 47.3827 66.0047 48.6671 65.999H61.6671C62.9515 66.0047 64.1177 65.2502 64.6389 64.0762C65.1601 62.9023 64.9377 61.5313 64.0721 60.5823C65.1988 59.3576 65.1988 57.4737 64.0721 56.249C65.1988 55.0243 65.1988 53.1404 64.0721 51.9157C65.1988 50.6909 65.1988 48.8071 64.0721 47.5823C64.9377 46.6334 65.1601 45.2623 64.6389 44.0884C64.1177 42.9145 62.9515 42.16 61.6671 42.1657H61.6389C65.3837 39.3799 66.92 34.5067 65.4498 30.0769C63.9796 25.6471 59.8344 22.6595 55.1671 22.6657ZM62.7504 49.749C62.7504 50.3473 62.2654 50.8323 61.6671 50.8323H48.6671C48.0688 50.8323 47.5837 50.3473 47.5837 49.749C47.5837 49.1507 48.0688 48.6657 48.6671 48.6657H61.6671C62.2654 48.6657 62.7504 49.1507 62.7504 49.749ZM62.7504 54.0823C62.7504 54.6806 62.2654 55.1657 61.6671 55.1657H48.6671C48.0688 55.1657 47.5837 54.6806 47.5837 54.0823C47.5837 53.484 48.0688 52.999 48.6671 52.999H61.6671C62.2654 52.999 62.7504 53.484 62.7504 54.0823ZM62.7504 58.4157C62.7504 59.014 62.2654 59.499 61.6671 59.499H48.6671C48.0688 59.499 47.5837 59.014 47.5837 58.4157C47.5837 57.8174 48.0688 57.3323 48.6671 57.3323H61.6671C62.2654 57.3323 62.7504 57.8174 62.7504 58.4157ZM61.6671 63.8323H48.6671C48.0688 63.8323 47.5837 63.3473 47.5837 62.749C47.5837 62.1507 48.0688 61.6657 48.6671 61.6657H61.6671C62.2654 61.6657 62.7504 62.1507 62.7504 62.749C62.7504 63.3473 62.2654 63.8323 61.6671 63.8323ZM61.6671 44.3323C62.2654 44.3323 62.7504 44.8174 62.7504 45.4157C62.7504 46.014 62.2654 46.499 61.6671 46.499H48.6671C48.0688 46.499 47.5837 46.014 47.5837 45.4157C47.5837 44.8174 48.0688 44.3323 48.6671 44.3323H61.6671ZM55.1671 42.1657C50.3806 42.1657 46.5004 38.2855 46.5004 33.499C46.5004 28.7125 50.3806 24.8323 55.1671 24.8323C59.9535 24.8323 63.8337 28.7125 63.8337 33.499C63.8284 38.2832 59.9513 42.1603 55.1671 42.1657Z" currentColor="#141C21" />
    <path currentColor-rule="evenodd" clip-rule="evenodd" d="M55.1668 32.4157C54.6412 32.4152 54.1918 32.0375 54.1009 31.5198C54.01 31.0021 54.3037 30.4938 54.7977 30.3142C55.2917 30.1346 55.8433 30.3355 56.1061 30.7907C56.4142 31.2887 57.0622 31.4517 57.5693 31.1588C58.0763 30.8659 58.2588 30.223 57.9813 29.7074C57.5891 29.0479 56.9757 28.5488 56.2502 28.299V28.0824C56.2502 27.484 55.7651 26.999 55.1668 26.999C54.5685 26.999 54.0835 27.484 54.0835 28.0824V28.2817C52.5922 28.8069 51.6973 30.3312 51.9652 31.8894C52.2331 33.4476 53.5858 34.5854 55.1668 34.5824C55.6924 34.5829 56.1418 34.9606 56.2328 35.4783C56.3237 35.9959 56.0299 36.5042 55.536 36.6838C55.042 36.8634 54.4904 36.6625 54.2276 36.2074C53.9195 35.7094 53.2714 35.5463 52.7644 35.8393C52.2573 36.1322 52.0748 36.775 52.3523 37.2907C52.7451 37.9506 53.3593 38.4497 54.0857 38.699V38.9157C54.0857 39.514 54.5707 39.999 55.169 39.999C55.7673 39.999 56.2523 39.514 56.2523 38.9157V38.7164C57.744 38.191 58.639 36.6661 58.3705 35.1076C58.102 33.5491 56.7483 32.4116 55.1668 32.4157Z" currentColor="#141C21" />
    <path d="M5.36112 59.499H5.33404C3.53911 59.499 2.08404 60.9541 2.08404 62.749C2.08404 64.5439 3.53911 65.999 5.33404 65.999H18.334C20.129 65.999 21.584 64.5439 21.584 62.749C21.584 60.9541 20.129 59.499 18.334 59.499H18.307C22.0511 56.7091 23.5864 51.8342 22.1168 47.4023C20.6472 42.9704 16.5033 39.9788 11.834 39.9788C7.16482 39.9788 3.02093 42.9704 1.5513 47.4023C0.0816811 51.8342 1.61702 56.7091 5.36112 59.499ZM18.334 61.6657C18.9323 61.6657 19.4174 62.1507 19.4174 62.749C19.4174 63.3473 18.9323 63.8323 18.334 63.8323H5.33404C4.73573 63.8323 4.25071 63.3473 4.25071 62.749C4.25071 62.1507 4.73573 61.6657 5.33404 61.6657H18.334ZM11.834 42.1657C16.6205 42.1657 20.5007 46.0459 20.5007 50.8323C20.5007 55.6188 16.6205 59.499 11.834 59.499C7.04757 59.499 3.16737 55.6188 3.16737 50.8323C3.17275 46.0481 7.0498 42.171 11.834 42.1657Z" currentColor="#141C21" />
    <path currentColor-rule="evenodd" clip-rule="evenodd" d="M11.8338 51.9157C12.3594 51.9162 12.8088 52.2939 12.8998 52.8116C12.9907 53.3293 12.6969 53.8375 12.203 54.0171C11.709 54.1967 11.1574 53.9959 10.8946 53.5407C10.7075 53.193 10.346 52.9746 9.95122 52.9708C9.5564 52.9669 9.19075 53.1781 8.99687 53.5221C8.803 53.866 8.8116 54.2882 9.01933 54.624C9.4126 55.2835 10.0267 55.7824 10.7527 56.0323V56.249C10.7527 56.8473 11.2377 57.3323 11.836 57.3323C12.4343 57.3323 12.9193 56.8473 12.9193 56.249V56.0497C14.411 55.5243 15.306 53.9994 15.0375 52.4409C14.769 50.8824 13.4153 49.7449 11.8338 49.749C11.3082 49.7485 10.8588 49.3708 10.7679 48.8531C10.677 48.3354 10.9707 47.8272 11.4647 47.6475C11.9587 47.4679 12.5103 47.6688 12.7731 48.124C12.9602 48.4717 13.3216 48.69 13.7164 48.6939C14.1113 48.6978 14.4769 48.4865 14.6708 48.1426C14.8647 47.7986 14.8561 47.3764 14.6483 47.0407C14.2556 46.3816 13.6424 45.8827 12.9172 45.6323V45.4157C12.9172 44.8174 12.4321 44.3323 11.8338 44.3323C11.2355 44.3323 10.7505 44.8174 10.7505 45.4157V45.615C9.25923 46.1403 8.36424 47.6645 8.63216 49.2227C8.90007 50.7809 10.2528 51.9187 11.8338 51.9157Z" currentColor="#141C21" />
  </g>
  <defs>
    <clipPath id="clip0_195_524">
      <rect width="66" height="67" currentColor="white" transform="translate(0.5)" />
    </clipPath>
  </defs>
</svg>