<svg width="18" height="18" viewBox="0 0 18 18" xmlns="http://www.w3.org/2000/svg">
  <path d="M11.8835 2.44238C11.5077 2.44238 11.1474 2.59164 10.8817 2.85731C10.6161 3.12299 10.4668 3.48333 10.4668 3.85905V8.10905C10.4668 8.48477 10.6161 8.84511 10.8817 9.11078C11.1474 9.37646 11.5077 9.52572 11.8835 9.52572C12.0713 9.52572 12.2515 9.60034 12.3843 9.73318C12.5172 9.86602 12.5918 10.0462 12.5918 10.234V10.9424C12.5918 11.3181 12.4425 11.6784 12.1769 11.9441C11.9112 12.2098 11.5509 12.359 11.1751 12.359C10.9873 12.359 10.8071 12.4337 10.6743 12.5665C10.5414 12.6994 10.4668 12.8795 10.4668 13.0674V14.484C10.4668 14.6719 10.5414 14.8521 10.6743 14.9849C10.8071 15.1178 10.9873 15.1924 11.1751 15.1924C12.3023 15.1924 13.3833 14.7446 14.1803 13.9476C14.9774 13.1506 15.4251 12.0696 15.4251 10.9424V3.85905C15.4251 3.48333 15.2759 3.12299 15.0102 2.85731C14.7445 2.59164 14.3842 2.44238 14.0085 2.44238H11.8835Z" currentColor="#FF1F70" stroke-linecap="round" stroke-linejoin="round" />
  <path d="M4.09196 2.44238C3.71624 2.44238 3.3559 2.59164 3.09022 2.85731C2.82455 3.12299 2.67529 3.48333 2.67529 3.85905V8.10905C2.67529 8.48477 2.82455 8.84511 3.09022 9.11078C3.3559 9.37646 3.71624 9.52572 4.09196 9.52572C4.27982 9.52572 4.45999 9.60034 4.59283 9.73318C4.72567 9.86602 4.80029 10.0462 4.80029 10.234V10.9424C4.80029 11.3181 4.65104 11.6784 4.38536 11.9441C4.11968 12.2098 3.75935 12.359 3.38363 12.359C3.19576 12.359 3.0156 12.4337 2.88276 12.5665C2.74992 12.6994 2.67529 12.8795 2.67529 13.0674V14.484C2.67529 14.6719 2.74992 14.8521 2.88276 14.9849C3.0156 15.1178 3.19576 15.1924 3.38363 15.1924C4.5108 15.1924 5.5918 14.7446 6.38883 13.9476C7.18586 13.1506 7.63363 12.0696 7.63363 10.9424V3.85905C7.63363 3.48333 7.48437 3.12299 7.21869 2.85731C6.95302 2.59164 6.59268 2.44238 6.21696 2.44238H4.09196Z" currentColor="#FF1F70" stroke-linecap="round" stroke-linejoin="round" />
</svg>