<svg width="67" height="65" viewBox="0 0 67 65" xmlns="http://www.w3.org/2000/svg">
  <path d="M35.9436 20.8301L34.2268 27.2039L26.5163 13.9194C26.3227 13.5858 25.9675 13.3897 25.594 13.3897C25.5025 13.3897 25.4098 13.4015 25.3182 13.4259C24.8526 13.5501 24.5288 13.9697 24.5288 14.4492V31.7982L1.71097 14.4854C1.24329 14.1306 0.574982 14.22 0.218331 14.6852C-0.138454 15.1504 -0.0484588 15.8152 0.419222 16.1699L24.9479 34.7807C25.2699 35.0251 25.7034 35.0665 26.0662 34.8879C26.4292 34.7091 26.6589 34.3412 26.6589 33.9384V18.4028L33.6677 30.4783C33.8831 30.8493 34.3018 31.0543 34.729 30.999C35.156 30.9431 35.5072 30.6367 35.6188 30.2228L37.2105 24.314L42.509 36.4723C42.6899 36.8875 43.117 37.1421 43.5694 37.1072C44.0229 37.0718 44.4037 36.7539 44.5174 36.3157L45.4187 32.8421L54.8946 49.1681L53.2113 48.7526C52.6401 48.6122 52.0628 48.9578 51.9212 49.5257C51.7795 50.0935 52.1275 50.6681 52.6984 50.809L56.8131 51.8246C57.3844 51.9656 57.9616 51.6193 58.1033 51.0515L59.1244 46.9585C59.266 46.3907 58.918 45.8161 58.3472 45.6752C57.7758 45.5347 57.1987 45.8804 57.057 46.4483L56.6717 47.9923L45.9608 29.5385C45.8878 29.4127 45.7927 29.3075 45.6834 29.2247C45.5795 29.146 45.4591 29.0852 45.326 29.0481L45.324 29.0476C45.3079 29.0431 45.2918 29.0391 45.2754 29.0354L45.2737 29.035C45.1463 29.0062 45.0186 29.0015 44.8957 29.018L44.8947 29.0182C44.779 29.0338 44.6643 29.0686 44.5553 29.124C44.5244 29.1396 44.4944 29.1568 44.4652 29.1752L44.4635 29.1763C44.359 29.2428 44.2699 29.3249 44.1975 29.4176L44.1965 29.4188C44.114 29.5246 44.0505 29.6477 44.0123 29.7844L44.012 29.7857L44.0118 29.7869C44.01 29.7932 44.0083 29.7996 44.0067 29.806L43.3333 34.5635L37.9497 20.6828C37.7695 20.2693 37.3456 20.0142 36.8943 20.0477C36.4422 20.081 36.0609 20.3948 35.9436 20.8301ZM0 26.5997V35.8227C0 36.4077 0.476866 36.8821 1.06503 36.8821H2.31803V40.1034C2.31803 40.6885 2.7949 41.1628 3.38306 41.1628C3.97122 41.1628 4.44809 40.6885 4.44809 40.1034V36.8821H5.7011C6.28926 36.8821 6.76612 36.4077 6.76612 35.8227V26.5997C6.76612 26.0146 6.28926 25.5403 5.7011 25.5403H4.44809V22.3189C4.44809 21.7339 3.97122 21.2596 3.38306 21.2596C2.7949 21.2596 2.31803 21.7339 2.31803 22.3189V25.5403H1.06503C0.476866 25.5403 0 26.0146 0 26.5997ZM2.13006 27.6591H4.63593V34.7633H2.13006V27.6591ZM65.6222 31.5122L62.1329 34.2227C61.6694 34.5828 61.0001 34.5009 60.638 34.0398C60.2761 33.5787 60.3583 32.9129 60.8219 32.5528L61.8725 31.7367H52.7145C52.1263 31.7367 51.6495 31.2624 51.6495 30.6773C51.6495 30.0923 52.1263 29.6179 52.7145 29.6179H61.8724L60.8219 28.8019C60.3583 28.4419 60.2759 27.776 60.638 27.3149C60.8481 27.0474 61.1615 26.9075 61.4782 26.9075C61.7075 26.9075 61.9383 26.9808 62.1329 27.1319L65.6222 29.8422C65.8806 30.043 66.0317 30.351 66.0317 30.6772C66.0317 31.0033 65.8806 31.3114 65.6222 31.5122ZM48.4555 4.82912H39.2974L40.3481 5.64525C40.8116 6.00532 40.894 6.67115 40.5319 7.13225C40.1698 7.59335 39.5004 7.67532 39.037 7.31512L35.5478 4.60466C35.2894 4.40391 35.1383 4.09589 35.1383 3.76973C35.1383 3.44357 35.2894 3.13555 35.5478 2.93479L39.037 0.224464C39.2316 0.0732346 39.4625 0 39.6917 0C40.0083 0 40.3218 0.139969 40.5319 0.407471C40.8939 0.868568 40.8116 1.5344 40.3481 1.89447L39.2975 2.71047H48.4556C49.0437 2.71047 49.5206 3.18481 49.5206 3.76986C49.5206 4.35491 49.0437 4.82912 48.4555 4.82912ZM8.31081 36.6244V45.8473C8.31081 46.4324 8.78768 46.9067 9.37584 46.9067H10.6288V50.1281C10.6288 50.7131 11.1057 51.1875 11.6939 51.1875C12.282 51.1875 12.7589 50.7131 12.7589 50.1281V46.9067H14.0119C14.6001 46.9067 15.0769 46.4324 15.0769 45.8473V36.6244C15.0769 36.0393 14.6001 35.565 14.0119 35.565H12.7589V32.3437C12.7589 31.7587 12.282 31.2843 11.6939 31.2843C11.1057 31.2843 10.6288 31.7587 10.6288 32.3437V35.565H9.37584C8.78768 35.565 8.31081 36.0392 8.31081 36.6244ZM10.4409 37.6838H12.9467V44.7879H10.4409V37.6838ZM16.6216 45.8943V55.1173C16.6216 55.7023 17.0985 56.1767 17.6867 56.1767H18.9397V59.398C18.9397 59.9831 19.4165 60.4574 20.0047 60.4574C20.5929 60.4574 21.0697 59.9831 21.0697 59.398V56.1767H22.3227C22.9109 56.1767 23.3878 55.7023 23.3878 55.1173V45.8943C23.3878 45.3093 22.9109 44.8349 22.3227 44.8349H21.0697V41.6137C21.0697 41.0287 20.5929 40.5543 20.0047 40.5543C19.4165 40.5543 18.9397 41.0287 18.9397 41.6137V44.8349H17.6867C17.0985 44.8349 16.6216 45.3093 16.6216 45.8943ZM18.7517 46.9537H21.2576V54.0579H18.7517V46.9537ZM24.9324 41.9215V51.1444C24.9324 51.7295 25.4093 52.2038 25.9975 52.2038H27.2505V55.4252C27.2505 56.0102 27.7273 56.4846 28.3155 56.4846C28.9037 56.4846 29.3805 56.0102 29.3805 55.4252V52.2038H30.6335C31.2217 52.2038 31.6986 51.7295 31.6986 51.1444V41.9215C31.6986 41.3364 31.2217 40.8621 30.6335 40.8621H29.3805V37.6408C29.3805 37.0558 28.9037 36.5815 28.3155 36.5815C27.7273 36.5815 27.2505 37.0558 27.2505 37.6408V40.8621H25.9975C25.4093 40.8621 24.9324 41.3364 24.9324 41.9215ZM27.0625 42.9809H29.5685V50.085H27.0625V42.9809ZM33.2433 46.464V55.687C33.2433 56.272 33.7201 56.7464 34.3083 56.7464H35.5613V59.9677C35.5613 60.5528 36.0382 61.0271 36.6263 61.0271C37.2145 61.0271 37.6913 60.5528 37.6913 59.9677V56.7464H38.9444C39.5325 56.7464 40.0094 56.272 40.0094 55.687V46.464C40.0094 45.879 39.5325 45.4046 38.9444 45.4046H37.6913V42.1834C37.6913 41.5984 37.2145 41.124 36.6263 41.124C36.0382 41.124 35.5613 41.5984 35.5613 42.1834V45.4046H34.3083C33.7201 45.4046 33.2433 45.879 33.2433 46.464ZM35.3733 47.5234H37.8792V54.6276H35.3733V47.5234ZM41.5543 50.4369V59.6599C41.5543 60.2449 42.0312 60.7192 42.6194 60.7192H43.8724V63.9406C43.8724 64.5257 44.3492 65 44.9374 65C45.5256 65 46.0024 64.5257 46.0024 63.9406V60.7192H47.2554C47.8436 60.7192 48.3205 60.2449 48.3205 59.6599V50.4369C48.3205 49.8518 47.8436 49.3775 47.2554 49.3775H46.0024V46.1563C46.0024 45.5712 45.5256 45.0969 44.9374 45.0969C44.3492 45.0969 43.8724 45.5712 43.8724 46.1563V49.3775H42.6194C42.0311 49.3775 41.5543 49.8518 41.5543 50.4369ZM43.6844 51.4963H46.1903V58.6005H43.6844V51.4963Z" currentColor="#141C21" />
  <path d="M60.9942 16.5245C60.9942 21.085 57.2643 24.795 52.6796 24.795C48.095 24.795 44.3652 21.0848 44.3652 16.5245C44.3652 11.9642 48.0951 8.25397 52.6796 8.25397C57.2642 8.25397 60.9942 11.9641 60.9942 16.5245ZM58.8641 16.5245C58.8641 13.1325 56.0899 10.3728 52.6796 10.3728C49.2696 10.3728 46.4953 13.1323 46.4953 16.5245C46.4953 19.9166 49.2696 22.6762 52.6796 22.6762C56.0897 22.6762 58.8641 19.9166 58.8641 16.5245ZM52.859 15.4532C51.6832 15.2611 51.6655 14.8968 51.6596 14.7769C51.6354 14.2807 52.194 14.1157 52.3657 14.0771C52.7676 13.9864 53.5285 14.0248 53.832 14.7441C54.0597 15.2835 54.6838 15.5374 55.2263 15.3107C55.7686 15.0843 56.0236 14.4633 55.7959 13.9239C55.4072 13.0028 54.6533 12.3508 53.7447 12.0708V11.9613C53.7447 11.3763 53.2678 10.9019 52.6796 10.9019C52.0915 10.9019 51.6146 11.3763 51.6146 11.9613V12.0855C50.2956 12.4945 49.4689 13.5868 49.532 14.8797C49.5719 15.6993 50.0124 17.1353 52.5138 17.5441C53.865 17.7647 53.9143 18.1681 53.9353 18.3402C53.9555 18.5065 53.9111 18.5735 53.8638 18.6278C53.6816 18.8375 53.2127 18.9976 52.7487 19.0086C52.2177 19.0182 51.5405 18.8191 51.3872 18.2079C51.2451 17.6403 50.6671 17.2944 50.0963 17.4363C49.5256 17.5777 49.1782 18.1527 49.3205 18.7204C49.6009 19.8395 50.4686 20.6653 51.6145 20.9838V21.0875C51.6145 21.6725 52.0913 22.1469 52.6795 22.1469C53.2677 22.1469 53.7445 21.6725 53.7445 21.0875V21.0026C54.4516 20.8295 55.0656 20.4843 55.4748 20.0137C55.9397 19.4791 56.1385 18.812 56.0497 18.0846C55.8754 16.6558 54.8018 15.7704 52.859 15.4532Z" currentColor="#141C21" />
</svg>