<svg width="675" height="497" viewBox="0 0 675 497" fill="none" xmlns="http://www.w3.org/2000/svg">
<path d="M186.253 231.345C106.306 277.497 106.315 352.323 186.253 398.484C266.191 444.645 395.8 444.6 475.747 398.484C555.694 352.368 555.685 277.497 475.747 231.345C395.809 185.193 266.2 185.184 186.253 231.345Z" fill="#FAFAFA"/>
<path d="M301.624 417.771C322.953 417.771 340.243 407.79 340.243 395.478C340.243 383.166 322.953 373.185 301.624 373.185C280.295 373.185 263.005 383.166 263.005 395.478C263.005 407.79 280.295 417.771 301.624 417.771Z" fill="#E0E0E0"/>
<path d="M366.316 401.742C389.191 401.742 407.734 391.036 407.734 377.829C407.734 364.622 389.191 353.916 366.316 353.916C343.441 353.916 324.898 364.622 324.898 377.829C324.898 391.036 343.441 401.742 366.316 401.742Z" fill="#E0E0E0"/>
<path d="M172.96 367.488L164.572 372.33C164.593 364.077 163.687 355.847 161.872 347.796C156.31 321.948 145.024 317.457 139.525 307.395C133.747 296.811 141.172 290.466 148.174 291.555C154.474 292.518 164.374 300.213 169.297 316.098C175.876 337.041 174.265 357.939 172.96 367.488Z" fill="#FF1F70"/>
<path opacity="0.5" d="M172.96 367.488L164.572 372.33C164.593 364.077 163.687 355.847 161.872 347.796C156.31 321.948 145.024 317.457 139.525 307.395C133.747 296.811 141.172 290.466 148.174 291.555C154.474 292.518 164.374 300.213 169.297 316.098C175.876 337.041 174.265 357.939 172.96 367.488Z" fill="white"/>
<path d="M168.028 365.445C167.971 365.436 167.916 365.416 167.866 365.386C167.816 365.356 167.773 365.316 167.739 365.27C167.705 365.223 167.68 365.17 167.666 365.113C167.652 365.057 167.65 364.998 167.659 364.941C172.105 333.828 158.227 307.017 146.959 297.927C146.914 297.89 146.877 297.845 146.849 297.794C146.822 297.743 146.805 297.687 146.799 297.63C146.793 297.572 146.798 297.514 146.815 297.458C146.832 297.403 146.859 297.351 146.896 297.306C146.93 297.26 146.974 297.221 147.024 297.192C147.074 297.163 147.129 297.145 147.186 297.138C147.244 297.131 147.302 297.136 147.357 297.153C147.412 297.169 147.464 297.197 147.508 297.234C158.947 306.468 173.023 333.612 168.532 365.067C168.514 365.183 168.451 365.288 168.357 365.359C168.263 365.43 168.145 365.461 168.028 365.445Z" fill="white"/>
<path d="M168.757 369.9L164.572 372.312L163.888 372.708C162.511 366.453 158.83 359.928 151.855 352.908C143.674 344.709 132.271 337.05 134.287 330.165C136.303 323.28 145.501 325.098 151.855 329.175C157.822 333.054 170.53 347.193 168.757 369.9Z" fill="#FF1F70"/>
<path opacity="0.65" d="M168.757 369.9L164.572 372.312L163.888 372.708C162.511 366.453 158.83 359.928 151.855 352.908C143.674 344.709 132.271 337.05 134.287 330.165C136.303 323.28 145.501 325.098 151.855 329.175C157.822 333.054 170.53 347.193 168.757 369.9Z" fill="white"/>
<path d="M166.534 367.983C166.432 367.967 166.339 367.916 166.27 367.839C166.201 367.761 166.161 367.663 166.156 367.56C165.571 352.314 148.84 332.577 140.866 329.337C140.806 329.32 140.75 329.291 140.702 329.251C140.654 329.211 140.615 329.162 140.588 329.106C140.561 329.05 140.545 328.989 140.543 328.926C140.541 328.864 140.553 328.802 140.576 328.744C140.6 328.687 140.636 328.635 140.681 328.592C140.726 328.549 140.78 328.516 140.839 328.496C140.898 328.475 140.96 328.467 141.022 328.473C141.084 328.478 141.145 328.497 141.199 328.527C149.551 331.92 166.399 351.684 167.029 367.524C167.033 367.582 167.024 367.641 167.005 367.696C166.985 367.75 166.955 367.801 166.916 367.844C166.876 367.887 166.828 367.921 166.775 367.945C166.722 367.969 166.664 367.982 166.606 367.983H166.534Z" fill="white"/>
<path d="M404.242 64.7191L409.039 86.1931L428.767 97.7401L423.862 76.041L404.242 64.7191Z" fill="#FF1F70"/>
<path opacity="0.2" d="M404.242 64.7191L409.039 86.1931L428.767 97.7401L423.862 76.041L404.242 64.7191Z" fill="black"/>
<path d="M361.717 170.649L423.862 76.041L404.242 64.719L478.834 43.668L492.415 115.623L472.849 104.328L410.704 198.927L361.717 170.649Z" fill="#FF1F70"/>
<path opacity="0.2" d="M361.717 170.649L423.862 76.041L404.242 64.719L478.834 43.668L492.415 115.623L472.849 104.328L410.704 198.927L361.717 170.649Z" fill="white"/>
<path d="M472.849 104.328L410.731 198.927L421.729 211.437L477.826 126.054L497.347 137.331L492.415 115.623L472.849 104.328Z" fill="#FF1F70"/>
<path opacity="0.2" d="M472.849 104.328L410.731 198.927L421.729 211.437L477.826 126.054L497.347 137.331L492.415 115.623L472.849 104.328Z" fill="black"/>
<path d="M372.715 183.24L361.717 170.739L410.731 198.927L421.729 211.437L372.715 183.24Z" fill="#FF1F70"/>
<path opacity="0.4" d="M372.715 183.24L361.717 170.739L410.731 198.927L421.729 211.437L372.715 183.24Z" fill="black"/>
<path opacity="0.2" d="M477.826 126.054L472.849 104.328L492.415 115.623L497.347 137.331L477.826 126.054Z" fill="black"/>
<path d="M199.834 414.108L272.455 303.831L223.468 275.553L150.847 385.83L199.834 414.108Z" fill="#FF1F70"/>
<path opacity="0.2" d="M199.834 414.108L272.455 303.831L223.468 275.553L150.847 385.83L199.834 414.108Z" fill="white"/>
<path d="M272.455 303.831L199.834 414.108L229.219 397.143L282.184 317.034L272.455 303.831Z" fill="#FF1F70"/>
<path opacity="0.2" d="M272.455 303.831L199.834 414.108L229.219 397.143L282.184 317.034L272.455 303.831Z" fill="black"/>
<path d="M402.028 356.058C402.028 361.26 402.028 368.298 402.028 372.771C402.028 373.743 402.028 374.949 402.028 376.542C401.317 381.222 397.852 385.803 391.642 389.385C377.602 397.485 354.841 397.485 340.801 389.385C333.601 385.209 330.055 379.683 330.289 374.211C330.289 373.743 330.379 373.257 330.433 372.753C330.433 372.753 330.433 372.753 330.433 372.699C331.045 367.38 331.477 362.052 331.774 357.057C332.251 349.128 332.188 345.636 332.125 341.37C332.044 336.105 329.857 331.974 324.304 327.303C318.751 322.632 307.708 306.666 307.708 306.666L380.941 269.019L401.758 334.971C401.758 334.971 402.028 350.856 402.028 356.058Z" fill="#FFA8A7"/>
<path d="M381.508 255.357C381.508 255.357 380.131 260.901 373.588 253.557C367.045 246.213 356.335 234.999 345.049 224.208C339.649 219.033 317.977 201.609 303.442 188.433C298.807 183.654 292.228 180.333 287.701 183.789C283.174 187.245 283.201 195.804 286.018 200.034C288.538 203.787 293.938 208.989 298.06 212.724C298.06 212.949 298.015 213.174 297.988 213.399C297.205 220.212 295.81 227.871 295.153 236.124C294.757 241.047 288.853 247.239 288.907 252.324C290.653 259.524 300.184 267.237 306.907 272.619C313.63 278.001 316.582 280.188 316.51 281.889C316.393 284.49 305.476 275.022 300.625 271.692C300.895 287.145 291.013 289.008 291.013 289.008C292.498 291.978 300.913 298.53 312.892 313.857C317.617 319.914 365.713 280.098 365.713 280.098L377.134 272.763L385.171 259.47L381.508 255.357Z" fill="#FFA8A7"/>
<path d="M377.521 268.992C373.021 274.662 355.282 292.752 369.232 316.737C368.269 315.842 367.395 314.857 366.622 313.794C364.625 311.136 363.044 308.189 361.933 305.055C361.888 304.938 361.852 304.83 361.816 304.713C358.648 295.587 359.728 286.29 365.641 278.442C370.294 272.277 378.763 266.283 379.897 259.632C379.897 259.389 379.96 259.146 379.978 258.912C380.176 261 380.41 265.374 377.521 268.992Z" fill="#F28F8F"/>
<path opacity="0.5" d="M285.1 187.2C283.3 191.268 283.849 196.866 286 200.034C288.52 203.787 293.92 208.989 298.042 212.724L297.988 213.264C299.788 214.821 301.759 216.477 303.901 218.367C309.067 222.912 315.898 228.78 321.055 233.334C323.638 235.611 335.905 245.484 340.36 249.453C333.511 241.938 318.121 228.303 310.381 220.653C304.54 214.902 295.918 206.874 293.119 203.67C290.32 200.466 288.673 198.27 287.719 197.082C286.63 195.701 285.836 194.112 285.385 192.412C284.935 190.713 284.838 188.939 285.1 187.2Z" fill="#F28F8F"/>
<path d="M298.258 295.65C299.611 295.467 300.912 295.008 302.081 294.303C303.25 293.597 304.261 292.658 305.053 291.546C306.853 288.549 307.204 286.218 306.718 281.538C306.473 279.351 306.03 277.192 305.395 275.085C303.793 273.933 302.119 272.691 300.634 271.674C300.904 287.127 291.022 288.99 291.022 288.99C291.697 290.331 293.794 292.419 296.998 295.722C297.421 295.713 297.835 295.686 298.258 295.65Z" fill="#F28F8F"/>
<path d="M290.347 233.208C289.96 233.559 295.432 238.833 296.008 239.148C298.033 240.282 301.903 238.878 303.577 237.474C304.622 236.563 305.434 235.415 305.944 234.126C307.744 229.806 306.844 224.865 305.944 220.266C305.921 219.898 305.821 219.539 305.648 219.213C305.476 218.887 305.236 218.602 304.945 218.376C304.837 220.788 302.713 221.832 301.147 223.281L296.647 227.412L290.347 233.208Z" fill="#F28F8F"/>
<path d="M302.785 236.043L331.423 264.951L297.988 236.925L302.785 236.043Z" fill="#F28F8F"/>
<path d="M298.87 260.739C300.257 260.281 301.522 259.514 302.569 258.496C303.617 257.478 304.42 256.235 304.918 254.862C305.737 252.513 305.602 249.957 305.44 247.473C305.414 245.357 305.056 243.259 304.378 241.254L290.986 245.808C289.816 248.049 288.871 250.308 288.907 252.306C289.618 255.231 291.481 258.192 294.1 261.036C295.692 261.308 297.324 261.206 298.87 260.739Z" fill="#F28F8F"/>
<path d="M295.306 212.517C301.192 211.977 304.306 214.56 305.602 219.843C306.138 222.846 306.138 225.921 305.602 228.924C305.044 232.848 301.336 237.555 296.548 236.853H296.314C288.574 235.593 287.701 231.453 287.701 224.73C287.701 218.007 290.068 212.994 295.306 212.517Z" fill="#FFA8A7"/>
<path opacity="0.5" d="M302.254 214.074C302.686 214.443 305.179 216.891 305.206 223.659C305.206 231.057 301.516 232.587 297.412 233.253C293.308 233.919 287.8 231.354 287.8 227.7C288.151 232.677 289.798 235.8 296.323 236.862H296.557C301.345 237.564 305.053 232.857 305.611 228.933C306.146 225.93 306.146 222.855 305.611 219.852C305.188 217.598 304.002 215.558 302.254 214.074Z" fill="#F28F8F"/>
<path d="M295.441 236.106C300.841 235.611 303.64 237.969 304.846 242.793C305.331 245.538 305.331 248.346 304.846 251.091C304.342 254.691 300.94 258.975 296.575 258.291H296.359C289.294 257.139 288.493 253.341 288.493 247.221C288.493 241.101 290.653 236.538 295.441 236.106Z" fill="#FFA8A7"/>
<path opacity="0.5" d="M302.938 238.653C303.694 239.778 304.243 242.55 303.838 246.753C303.253 252.252 302.038 254.916 297.277 255.267C292.3 255.618 289.24 253.314 288.709 250.893C289.186 254.889 290.869 257.418 296.404 258.318H296.62C300.985 258.966 304.387 254.718 304.891 251.118C305.376 248.373 305.376 245.565 304.891 242.82C304.55 241.306 303.883 239.884 302.938 238.653Z" fill="#F28F8F"/>
<path d="M295.729 269.37C301.309 268.866 305.485 271.512 305.485 276.318V284.931C305.49 286.013 305.263 287.083 304.818 288.07C304.373 289.056 303.722 289.936 302.907 290.648C302.093 291.361 301.135 291.89 300.099 292.2C299.062 292.511 297.971 292.594 296.899 292.446H296.683C289.348 291.249 289.438 284.553 289.348 281.034C289.258 277.515 290.761 269.829 295.729 269.37Z" fill="#FFA8A7"/>
<path opacity="0.5" d="M302.767 270.9C305.206 273.447 304.252 278.64 304.072 283.761C303.937 287.316 302.092 290.259 297.232 290.259C292.372 290.259 290.194 287.298 289.537 284.391C289.942 287.748 291.337 291.537 296.683 292.41H296.899C297.971 292.558 299.062 292.475 300.099 292.164C301.135 291.854 302.093 291.325 302.907 290.612C303.721 289.9 304.373 289.02 304.818 288.034C305.262 287.048 305.49 285.977 305.485 284.895V276.3C305.517 275.245 305.285 274.198 304.81 273.256C304.336 272.313 303.633 271.503 302.767 270.9Z" fill="#F28F8F"/>
<path d="M233.863 267.678L353.914 176.652L402.937 204.939L282.85 295.965L233.863 267.678Z" fill="#FF1F70"/>
<path d="M402.937 204.939L413.935 217.44L292.579 309.159L282.85 295.965L402.937 204.939Z" fill="#FF1F70"/>
<path opacity="0.2" d="M402.937 204.939L413.935 217.44L292.579 309.159L282.85 295.965L402.937 204.939Z" fill="black"/>
<path d="M233.863 267.678L243.592 280.881L292.579 309.159L282.85 295.965L233.863 267.678Z" fill="#FF1F70"/>
<path opacity="0.4" d="M233.863 267.678L243.592 280.881L292.579 309.159L282.85 295.965L233.863 267.678Z" fill="black"/>
<path d="M401.767 334.953C401.796 320.017 402.809 305.098 404.8 290.295C406.915 275.526 406.501 262.89 405.862 259.317C405.223 255.744 405.025 250.56 399.517 243.972C396.925 240.867 391.228 236.349 386.476 230.769C381.724 225.189 377.215 218.889 374.677 215.469C372.139 212.049 365.848 217.548 366.154 228.447C366.406 237.348 372.454 245.133 374.839 248.463C377.71 252.522 379.744 256.446 379.969 258.894C380.167 260.964 380.401 265.356 377.503 268.992C373.003 274.653 355.273 292.743 369.223 316.692V338.697L401.767 334.953Z" fill="#FFA8A7"/>
<path d="M375.829 222.138C375.829 222.138 381.229 229.473 382.966 230.418C384.703 231.363 385.189 229.212 385.189 229.212C382.705 225.72 378.07 219.366 374.695 215.487C375.66 217.563 376.052 219.859 375.829 222.138Z" fill="#FFA8A7"/>
<path opacity="0.6" d="M375.829 222.138C375.829 222.138 381.229 229.473 382.966 230.418C384.703 231.363 385.189 229.212 385.189 229.212C382.705 225.72 378.07 219.366 374.695 215.487C375.66 217.563 376.052 219.859 375.829 222.138Z" fill="white"/>
<path d="M385.189 229.212C384.947 228.82 384.679 228.444 384.388 228.087C384.472 228.558 384.422 229.043 384.244 229.487C384.065 229.931 383.766 230.316 383.38 230.598C384.793 231.012 385.189 229.212 385.189 229.212Z" fill="#F28F8F"/>
<path opacity="0.2" d="M308.959 255.663C313.763 251.714 319.098 248.461 324.808 245.997C332.107 242.685 340.873 239.76 346.966 236.16C354.877 231.48 357.901 225.846 357.325 220.176C356.992 216.963 355.084 213.399 347.776 211.032C345.641 210.332 343.423 209.914 341.179 209.79C338.034 209.678 334.894 210.116 331.9 211.086C318.49 215.145 312.793 221.382 308.293 227.439C303.793 233.496 298.321 237.015 288.493 242.739C284.29 245.178 279.781 247.572 275.803 250.047L275.713 250.11C273.698 251.235 271.762 252.495 269.917 253.881C267.397 256.032 265.183 258.255 264.274 260.604C263.365 262.953 263.815 265.446 266.497 267.804C267.385 268.596 268.454 269.155 269.611 269.433C271.085 269.786 272.595 269.974 274.111 269.991C277.092 270.09 280.075 269.854 283.003 269.289C285.319 268.822 287.592 268.163 289.798 267.318C296.866 264.682 303.368 260.727 308.959 255.663Z" fill="black"/>
<path d="M267.82 136.215C267.082 138.168 264.94 142.308 265.075 142.83C265.462 144.122 265.506 145.494 265.201 146.808C265.012 147.807 256.372 151.2 256.372 151.2L256.165 149.832C256.024 148.918 256.143 147.982 256.507 147.132C258.157 143.428 259.392 139.552 260.188 135.576L267.82 136.215Z" fill="#FFA8A7"/>
<path d="M265.3 145.926L256.165 150.039L256.336 151.2C256.336 151.2 264.976 147.807 265.165 146.808C265.3 146.484 265.3 146.205 265.3 145.926Z" fill="#F28F8F"/>
<path d="M237.625 163.494L234.88 191.7C234.745 193.068 235.636 193.95 236.752 194.76L239.551 196.767C239.86 197.035 240.224 197.235 240.616 197.351C241.009 197.467 241.422 197.498 241.828 197.442C242.397 197.354 242.951 197.187 243.475 196.947H243.538L243.709 196.866L275.731 182.313C276.879 181.789 277.868 180.973 278.601 179.946C279.334 178.92 279.784 177.718 279.907 176.463L282.4 150.759C282.415 150.438 282.353 150.118 282.22 149.826C282.087 149.533 281.886 149.276 281.635 149.076L276.856 145.665C276.59 145.499 276.289 145.396 275.977 145.365C275.665 145.334 275.35 145.375 275.056 145.485L238.705 162C238.418 162.145 238.17 162.358 237.985 162.621C237.797 162.879 237.674 163.178 237.625 163.494Z" fill="#37474F"/>
<path d="M237.625 163.494L234.88 191.7C234.745 193.068 235.636 193.95 236.752 194.76L239.551 196.767C239.86 197.035 240.224 197.235 240.616 197.351C241.009 197.467 241.422 197.498 241.828 197.442C242.397 197.354 242.951 197.187 243.475 196.947C242.233 197.388 241.369 196.677 241.504 195.282L244.087 168.705C244.151 168.235 244.327 167.788 244.6 167.4L237.958 162.648C237.783 162.901 237.67 163.19 237.625 163.494Z" fill="#263238"/>
<path d="M244.087 168.696C244.163 168.216 244.349 167.76 244.632 167.365C244.915 166.969 245.286 166.646 245.716 166.419L280.042 150.822C281.401 150.201 282.4 150.912 282.247 152.397L279.916 176.445C279.793 177.701 279.341 178.903 278.606 179.93C277.872 180.957 276.88 181.772 275.731 182.295L243.7 196.848C242.341 197.469 241.351 196.758 241.495 195.273L244.087 168.696Z" fill="#455A64"/>
<path d="M280.933 151.947C280.927 152.052 280.927 152.157 280.933 152.262L278.593 176.31C278.492 177.331 278.126 178.307 277.531 179.142C276.935 179.978 276.132 180.643 275.2 181.071L243.178 195.624C243.075 195.672 242.966 195.705 242.854 195.723C242.854 195.723 242.854 195.57 242.854 195.408L245.437 168.831C245.475 168.582 245.572 168.345 245.719 168.14C245.866 167.935 246.059 167.768 246.283 167.652L280.6 152.046C280.703 151.998 280.812 151.965 280.924 151.947M280.924 150.597C280.611 150.607 280.304 150.683 280.024 150.822L245.689 166.419C245.259 166.646 244.888 166.969 244.605 167.365C244.322 167.76 244.136 168.216 244.06 168.696L241.504 195.3C241.396 196.416 241.927 197.1 242.782 197.1C243.094 197.088 243.401 197.012 243.682 196.875L275.704 182.322C276.853 181.799 277.845 180.984 278.579 179.957C279.314 178.93 279.766 177.728 279.889 176.472L282.22 152.424C282.337 151.308 281.797 150.624 280.942 150.624L280.924 150.597Z" fill="#37474F"/>
<path d="M278.413 146.772L242.008 163.503C241.494 163.74 241.051 164.107 240.723 164.568C240.394 165.029 240.192 165.568 240.136 166.131L237.31 195.156L237.805 195.516L240.658 166.185C240.706 165.714 240.876 165.263 241.151 164.876C241.425 164.49 241.795 164.181 242.224 163.98L278.908 147.123L278.413 146.772Z" fill="#FF1F70"/>
<path opacity="0.2" d="M240.721 164.574C240.392 165.032 240.19 165.569 240.136 166.131L237.31 195.156L237.805 195.516L240.658 166.185C240.709 165.715 240.88 165.266 241.153 164.88L240.721 164.574Z" fill="black"/>
<path opacity="0.2" d="M241.153 164.88C241.425 164.491 241.794 164.181 242.224 163.98L278.908 147.123L278.413 146.772L242.008 163.503C241.493 163.741 241.049 164.111 240.721 164.574" fill="black"/>
<path d="M265.822 149.184L265.399 153.549L267.01 154.701L267.577 148.905C267.577 148.608 267.406 148.464 267.136 148.59L265.822 149.184Z" fill="#FF1F70"/>
<path opacity="0.4" d="M265.822 149.184L265.399 153.549L267.01 154.701L267.577 148.905C267.577 148.608 267.406 148.464 267.136 148.59L265.822 149.184Z" fill="black"/>
<path d="M253.402 152.334L252.709 159.399L254.248 160.506L255.409 159.975L255.976 154.179C256.001 154.017 256.063 153.863 256.158 153.73C256.254 153.598 256.38 153.489 256.525 153.414L265.3 149.4L267.1 148.572C267.37 148.446 267.568 148.572 267.541 148.887L266.974 154.683L268.135 154.161L268.828 147.087V146.997C268.821 146.849 268.782 146.703 268.713 146.571C268.645 146.439 268.549 146.324 268.432 146.232L267.784 145.764C267.65 145.683 267.5 145.632 267.344 145.617C267.188 145.601 267.031 145.621 266.884 145.674L253.951 151.551C253.803 151.627 253.675 151.738 253.58 151.875C253.484 152.011 253.423 152.169 253.402 152.334Z" fill="#FF1F70"/>
<path opacity="0.2" d="M254.941 153.432L254.248 160.506L255.409 159.975L255.976 154.179C256.001 154.017 256.063 153.863 256.158 153.73C256.254 153.597 256.38 153.489 256.525 153.414L265.3 149.4L267.1 148.572C267.37 148.446 267.568 148.572 267.541 148.887L266.974 154.683L268.135 154.161L268.828 147.087V146.997C268.828 146.763 268.63 146.664 268.387 146.772L255.454 152.649C255.314 152.731 255.195 152.845 255.106 152.98C255.017 153.116 254.96 153.271 254.941 153.432Z" fill="black"/>
<path d="M263.932 148.86C264.12 148.861 264.302 148.921 264.454 149.031C264.574 148.834 264.744 148.671 264.945 148.559C265.147 148.447 265.375 148.39 265.606 148.392C265.708 148.379 265.81 148.4 265.9 148.45C265.989 148.5 266.059 148.578 266.101 148.671C266.115 148.736 266.115 148.804 266.101 148.869C266.041 149.523 265.951 150.171 265.831 150.813C265.809 151.291 265.621 151.746 265.3 152.1C265.151 152.225 264.973 152.309 264.783 152.346C264.592 152.382 264.395 152.369 264.211 152.307C264.074 152.615 263.822 152.858 263.509 152.982C263.437 152.982 262.528 153.09 262.609 152.982C262.431 153.364 262.133 153.677 261.762 153.875C261.39 154.073 260.964 154.145 260.548 154.08C260.548 154.08 260.305 154.782 259.018 154.629C258.606 154.538 258.223 154.347 257.902 154.075C257.58 153.802 257.33 153.454 257.173 153.063C257.245 152.676 257.38 152.514 257.821 152.343C258.037 152.253 258.271 152.163 258.487 152.055C258.768 151.849 259.009 151.592 259.198 151.299C259.406 151.027 259.678 150.81 259.99 150.669C260.148 150.603 260.322 150.582 260.491 150.607C260.661 150.633 260.821 150.704 260.953 150.813C261.009 150.549 261.148 150.309 261.349 150.129C261.506 149.937 261.726 149.806 261.97 149.76C262.042 149.76 262.627 149.85 262.555 150.003C262.711 149.614 262.98 149.281 263.329 149.049C263.51 148.934 263.718 148.869 263.932 148.86Z" fill="#FFA8A7"/>
<path d="M269.107 135.558C268.549 138.141 267.145 140.463 267.766 142.632C268.189 144.099 268.306 143.946 268.135 145.44C268.04 146.109 267.878 146.766 267.649 147.402C267.541 147.708 267.433 148.023 267.316 148.302C267.207 148.633 267.072 148.956 266.911 149.265C266.669 149.645 266.395 150.003 266.092 150.336C265.607 150.952 265.04 151.5 264.409 151.965L264.301 152.028C264.218 152.049 264.131 152.046 264.049 152.018C263.968 151.991 263.896 151.942 263.842 151.875C263.275 151.254 263.698 150.354 263.995 149.733C264.398 149.063 264.639 148.308 264.697 147.528C264.697 147.429 264.697 147.123 264.697 146.628L263.896 146.43C263.896 146.43 261.313 145.809 261.268 144.558C261.223 143.307 262.213 142.11 262.96 140.643C263.707 139.176 264.013 138.222 264.76 134.442L269.107 135.558Z" fill="#FFA8A7"/>
<path d="M266.911 149.301C266.31 150.255 265.573 151.116 264.724 151.857C264.58 151.956 264.463 152.145 264.202 152.163C263.005 151.938 263.572 150.363 263.977 149.652C264.365 149.016 264.61 148.304 264.697 147.564C264.683 148.32 264.478 149.059 264.103 149.715C263.788 150.363 263.203 151.695 264.202 151.992C265.242 151.244 266.154 150.332 266.902 149.292L266.911 149.301Z" fill="#F28F8F"/>
<path d="M264.499 146.421C264.184 146.259 263.842 146.142 263.545 145.953C263.314 145.798 263.115 145.599 262.96 145.368C262.525 144.814 262.31 144.118 262.357 143.415C262.357 143.415 262.357 143.298 262.294 143.415C262.179 143.803 262.15 144.211 262.211 144.611C262.271 145.011 262.42 145.392 262.645 145.728C262.846 146.041 263.117 146.303 263.437 146.493C263.599 146.592 263.775 146.665 263.959 146.709C264.138 146.781 264.338 146.781 264.517 146.709C264.589 146.601 264.553 146.448 264.499 146.421Z" fill="#F28F8F"/>
<path d="M284.443 83.745C278.872 83.313 274.417 84.42 271.528 91.755C268.279 100.044 265.066 106.434 263.428 112.455C261.79 118.476 259.432 137.547 259.432 137.547C259.432 137.547 263.644 141.219 268.279 139.545L275.299 117.873L284.416 100.332L284.443 83.745Z" fill="#00A7FF"/>
<path d="M347.776 220.581C348.163 220.311 348.739 221.31 348.748 221.94C348.748 223.74 347.578 226.377 344.95 228.717C342.322 231.057 336.013 233.532 334.195 234.45C332.377 235.368 329.821 237.987 328.21 239.265C325.267 241.578 322.567 241.92 320.929 241.47C320.637 241.359 320.371 241.188 320.149 240.968C319.927 240.748 319.755 240.483 319.642 240.192C318.985 238.95 318.958 238.644 319.093 238.581L347.776 220.581Z" fill="#37474F"/>
<path d="M317.5 234.81C317.998 236.435 318.732 237.978 319.678 239.391C320.135 239.684 320.648 239.878 321.185 239.959C321.722 240.039 322.269 240.005 322.792 239.859C325.247 239.263 327.497 238.02 329.308 236.259C330.587 235.04 332.029 234.004 333.592 233.181C335.491 232.281 339.766 230.409 341.62 229.41C343.36 228.475 344.892 227.195 346.12 225.648C347.02 224.406 348.163 222.129 348.046 220.959C347.218 218.529 346.246 217.359 344.572 217.305C342.898 217.251 340.783 218.205 338.029 219.456C337.201 219.834 336.175 220.356 335.725 220.536C334.015 221.256 332.449 221.976 331.225 222.579C330.195 223.163 329.049 223.511 327.868 223.596C327.327 223.639 326.787 223.496 326.338 223.191C325.771 222.768 325.321 221.94 324.799 222.165C324.799 222.165 316.582 228.771 315.898 229.257C315.214 229.743 316.213 230.733 317.5 234.81Z" fill="#455A64"/>
<path d="M336.301 220.086C336.698 220.145 337.078 220.286 337.417 220.5C337.784 220.735 338.123 221.013 338.425 221.328C338.803 221.724 338.281 222.129 337.759 221.724C337.347 221.371 336.894 221.068 336.409 220.824C336.063 220.663 335.674 220.621 335.302 220.707L334.816 220.914C334.753 220.5 335.824 220.05 336.301 220.086Z" fill="#FAFAFA"/>
<path d="M331.945 221.886C332.087 221.782 332.25 221.709 332.422 221.672C332.594 221.635 332.772 221.634 332.944 221.67C333.385 221.76 333.792 221.968 334.123 222.273C334.529 222.632 334.906 223.023 335.248 223.443C335.446 223.722 334.744 224.1 334.483 223.812C334.15 223.446 333.799 223.098 333.43 222.768C333.232 222.606 332.44 222.03 331.909 222.219L331.684 222.327C331.621 222.228 331.684 222.075 331.81 222.003C331.851 221.959 331.896 221.92 331.945 221.886Z" fill="#FAFAFA"/>
<path d="M329.506 223.2C329.733 223.119 329.981 223.119 330.208 223.2C330.492 223.325 330.753 223.495 330.982 223.704C331.389 224.101 331.734 224.556 332.008 225.054C332.233 225.432 331.477 225.72 331.315 225.477C330.962 224.793 330.434 224.216 329.785 223.803C329.491 223.632 329.161 223.53 328.822 223.506C328.822 223.434 328.903 223.362 328.975 223.335C329.047 223.308 329.38 223.2 329.506 223.2Z" fill="#FAFAFA"/>
<path d="M310.138 219.816C310.138 219.816 314.746 227.979 316.024 229.797C316.429 230.382 317.734 229.977 318.481 229.905C319.375 229.754 320.287 229.754 321.181 229.905C323.557 230.571 324.898 230.283 324.34 227.115C324.223 226.467 324.439 226.035 325.24 225.774C325.843 225.661 326.419 225.438 326.941 225.117C326.986 225.018 326.869 224.919 326.77 224.874C326.372 224.714 326.012 224.471 325.715 224.16C325.419 223.85 325.192 223.479 325.051 223.074C323.404 219.519 321.91 212.184 321.91 212.184L310.138 219.816Z" fill="#FFA8A7"/>
<path d="M275.2 238.068C276.613 235.809 277.378 231.462 280.483 222.615L292.012 231.066L285.406 243.9C285.175 244.482 285.001 245.085 284.884 245.7C283.345 247.959 275.2 238.068 275.2 238.068Z" fill="#FFA8A7"/>
<path d="M270.916 242.892C270.916 242.757 270.871 241.695 270.916 241.569C271.222 240.417 271.933 240.102 272.842 239.463C273.761 238.848 274.604 238.126 275.353 237.312C275.659 236.889 275.713 236.673 276.19 236.484C276.804 236.29 277.453 236.233 278.092 236.315C278.731 236.397 279.344 236.618 279.889 236.961C282.499 238.338 283.3 239.994 283.147 241.785C283.039 243.153 282.922 244.971 284.128 245.781C284.632 246.123 285.424 243.981 285.424 243.981C286.162 245.232 285.118 246.951 284.578 249.48C284.257 250.872 284.232 252.317 284.506 253.719C284.767 255.933 285.073 255.924 286.252 256.077C287.26 256.212 290.14 256.023 291.886 257.238C292.557 257.623 293.091 258.208 293.414 258.912C293.737 259.615 293.832 260.402 293.686 261.162C293.371 262.017 290.752 266.148 281.185 264.6C278.404 264.159 272.572 259.794 272.662 259.38C272.711 258.964 272.711 258.544 272.662 258.129C272.662 257.148 272.59 256.176 272.545 255.195C272.582 254.259 272.527 253.321 272.383 252.396C272.208 251.634 272.088 250.861 272.023 250.083C271.843 248.121 271.66 246.156 271.474 244.188C271.348 243.576 270.844 243.45 270.916 242.892Z" fill="#455A64"/>
<path d="M269.719 242.505C268.819 243.405 269.341 246.105 270.619 249.246C271.186 250.659 272.23 253.089 271.924 255.672C271.618 258.255 271.555 259.47 272.221 260.685C273.265 262.575 278.827 264.996 282.121 265.761C280.143 262.978 278.991 259.693 278.8 256.284C278.476 250.587 278.035 246.915 275.434 244.386C272.104 241.2 269.719 242.505 269.719 242.505Z" fill="#263238"/>
<path d="M293.632 261.117C293.632 261.117 291.715 264.717 284.308 264.6C281.392 264.555 279.808 263.133 279.754 258.696C279.673 253.359 279.241 247.968 277.513 245.313C275.785 242.658 273.013 241.38 270.898 241.569C270.405 241.707 269.983 242.029 269.719 242.469C269.719 242.469 271.852 241.767 275.173 244.521C277.63 246.555 278.287 250.821 278.251 256.095C278.251 258.363 278.098 260.946 278.764 262.665C279.068 263.425 279.546 264.104 280.16 264.645C280.775 265.186 281.508 265.574 282.301 265.779C286.324 266.913 291.841 265.05 293.227 263.349C293.452 263.029 293.605 262.663 293.675 262.278C293.745 261.892 293.73 261.496 293.632 261.117Z" fill="#37474F"/>
<path d="M284.731 255.069C285.035 255.285 285.249 255.605 285.334 255.969C285.37 256.423 285.284 256.879 285.084 257.289C284.885 257.699 284.58 258.048 284.2 258.3C283.759 258.57 283.372 258.48 284.074 257.544C284.523 256.798 284.751 255.94 284.731 255.069Z" fill="#FAFAFA"/>
<path d="M284.335 252.306C284.335 252.306 284.569 252.45 284.632 253.206C284.515 254.146 284.038 255.005 283.3 255.6C282.517 255.978 282.94 255.078 283.3 254.637C283.814 253.946 284.167 253.15 284.335 252.306Z" fill="#FAFAFA"/>
<path d="M284.596 249.246C284.596 249.246 284.848 249.318 284.596 250.344C284.234 250.983 283.666 251.481 282.985 251.757C282.481 251.82 282.238 251.568 282.859 251.118C283.3 250.767 284.506 249.741 284.596 249.246Z" fill="#FAFAFA"/>
<path d="M303.496 135.108C303.496 135.108 307.996 140.508 310.696 150.516C313.142 159.851 315.009 169.328 316.285 178.893C316.933 183.168 317.545 187.29 319.039 195.516C320.452 203.328 323.962 220.221 323.962 220.221C323.962 220.221 323.35 222.804 319.867 224.325C317.581 225.225 315.105 225.535 312.667 225.225C312.667 225.225 310.282 221.148 305.314 211.563C303.038 207.395 301.492 202.869 300.742 198.18C300.147 194.996 299.804 191.77 299.716 188.532L281.023 156.87C279.406 154.955 278.139 152.771 277.279 150.417C274.642 143.802 278.008 134.262 278.008 134.262L303.496 135.108Z" fill="#37474F"/>
<path d="M303.496 135.108C303.496 135.108 307.996 140.508 310.696 150.516C313.142 159.851 315.009 169.328 316.285 178.893C316.933 183.168 317.545 187.29 319.039 195.516C320.452 203.328 323.962 220.221 323.962 220.221C323.962 220.221 323.35 222.804 319.867 224.325C317.581 225.225 315.105 225.535 312.667 225.225C312.667 225.225 310.282 221.148 305.314 211.563C303.038 207.395 301.492 202.869 300.742 198.18C300.147 194.996 299.804 191.77 299.716 188.532L281.023 156.87C279.406 154.955 278.139 152.771 277.279 150.417C274.642 143.802 278.008 134.262 278.008 134.262L303.496 135.108Z" fill="#37474F"/>
<path d="M315.907 176.454C314.692 167.711 312.949 159.049 310.687 150.516C309.952 147.786 308.998 145.119 307.834 142.542L284.2 142.128C282.4 146.241 281.05 151.38 284.902 157.662L285.91 165.15L299.689 188.55C299.777 191.788 300.12 195.014 300.715 198.198C301.465 202.887 303.011 207.413 305.287 211.581L305.719 212.409C307.489 209.875 309.069 207.213 310.444 204.444C311.794 201.24 312.73 195.048 314.143 187.218C314.656 184.347 315.331 180.162 315.907 176.454Z" fill="#263238"/>
<path d="M287.944 135.108C285.222 138.307 283.623 142.308 283.39 146.502C283.206 150.567 284.483 154.564 286.99 157.77C287.89 171.486 290.635 197.901 290.635 197.901C287.035 201.636 286.072 204.039 283.975 210.735C282.706 214.794 278.989 227.07 277.549 231.651C286.342 232.029 287.998 239.562 287.998 239.562C287.998 239.562 298.654 222.381 304.036 212.679C308.014 205.479 308.536 203.796 309.598 199.521C310.66 195.246 310.885 191.286 312.19 182.367C313.495 173.448 315.79 161.145 316.456 152.361C317.122 143.577 317.212 134.262 317.212 134.262L287.944 135.108Z" fill="#37474F"/>
<path d="M276.316 145.854C277.366 145.514 278.286 144.861 278.953 143.982C279.267 143.371 279.497 142.72 279.637 142.047C279.905 140.915 280.275 139.809 280.744 138.744L281.419 139.05C280.976 140.081 280.618 141.147 280.348 142.236C280.197 142.983 279.94 143.704 279.583 144.378C278.79 145.451 277.663 146.23 276.379 146.592C276.361 146.349 276.334 146.106 276.316 145.854Z" fill="#263238"/>
<path d="M293.938 153.711C293.779 153.727 293.62 153.727 293.461 153.711C292.381 153.477 291.544 152.748 289.861 150.615C288.592 148.995 288.718 147.825 288.961 145.899C289.042 145.188 289.789 141.399 289.861 140.4L290.572 140.796C290.572 141.813 289.807 145.296 289.726 145.98C289.519 147.897 289.42 148.779 290.5 150.165C292.039 152.136 292.777 152.793 293.659 152.982C295.591 153.025 297.509 152.641 299.275 151.857C299.851 151.461 300.823 146.457 301.39 142.137L302.128 142.236C301.84 144.441 300.814 151.695 299.698 152.469C298.582 153.243 295.432 153.756 293.938 153.711Z" fill="#263238"/>
<path d="M277.819 87.723C275.308 92.52 275.614 96.822 276.343 103.563C277.009 109.782 277.477 113.625 278.053 121.311C278.496 126.089 278.324 130.905 277.54 135.639C277.54 135.639 277.783 139.356 288.736 142.146C307.978 147.051 317.212 141.462 317.212 141.462C317.212 141.462 317.68 130.662 316.933 116.451C316.096 100.566 315.817 98.244 314.593 94.464C313.62 92.2473 311.869 90.4639 309.67 89.451C307.753 88.551 303.181 87.093 300.463 86.04C296.086 84.5139 291.482 83.741 286.846 83.754C281.365 83.385 279.124 85.23 277.819 87.723Z" fill="#52C3FF"/>
<path d="M285.496 84.6C285.91 84.6 286.342 84.6 286.783 84.6H287.107C291.545 84.6148 295.949 85.3692 300.139 86.832C301.246 87.255 302.659 87.732 304.027 88.245C306.07 88.965 308.185 89.712 309.292 90.216C311.29 91.1179 312.89 92.718 313.792 94.716C314.953 98.316 315.223 100.269 316.078 116.424C316.717 128.664 316.456 138.519 316.375 140.832C315.097 141.453 310.858 143.19 303.613 143.19C298.669 143.172 293.747 142.537 288.961 141.3C279.898 138.996 278.611 136.125 278.458 135.666C279.217 130.905 279.383 126.068 278.953 121.266C278.467 114.759 278.053 110.997 277.54 106.236L277.234 103.482C276.514 96.759 276.226 92.736 278.62 88.182C279.52 86.436 281.059 84.654 285.496 84.654M285.496 83.754C280.996 83.754 279.016 85.491 277.819 87.768C275.308 92.565 275.614 96.867 276.343 103.608C277.009 109.827 277.477 113.67 278.053 121.356C278.496 126.134 278.324 130.95 277.54 135.684C277.54 135.684 277.783 139.401 288.736 142.191C293.577 143.477 298.559 144.154 303.568 144.207C312.757 144.207 317.212 141.507 317.212 141.507C317.212 141.507 317.68 130.707 316.933 116.496C316.096 100.611 315.817 98.289 314.593 94.509C313.62 92.2923 311.869 90.5089 309.67 89.496C307.753 88.596 303.181 87.138 300.463 86.085C296.17 84.5825 291.655 83.8098 287.107 83.799H286.846C286.369 83.799 285.946 83.799 285.496 83.799V83.754Z" fill="#00A7FF"/>
<path d="M300.94 80.604L300.4 86.445C297.196 87.138 289.429 86.643 287.971 84.645L288.277 79.245L300.94 80.604Z" fill="#FFA8A7"/>
<path d="M309.265 65.628C309.265 65.628 310.75 66.753 311.875 70.632L309.679 72.243C308.959 69.516 308.176 66.744 309.265 65.628Z" fill="#F28F8F"/>
<path d="M303.595 54.774C309.058 55.134 309.967 57.978 309.157 67.284C311.074 76.122 308.428 79.623 307.285 80.784C304.72 82.161 302.101 82.395 298.546 81.468C295.846 80.757 288.979 78.723 286.108 74.466C282.724 69.462 281.842 61.866 285.442 59.013C290.5 55.008 301.426 54.63 303.595 54.774Z" fill="#FFA8A7"/>
<path d="M307.285 80.775C306.655 81.414 303.01 82.575 300.76 82.323L300.94 80.604C303.037 80.9528 305.172 81.0103 307.285 80.775Z" fill="#F28F8F"/>
<path d="M304.171 61.2C304.056 61.6009 303.883 61.9829 303.658 62.334C303.021 63.2041 302.188 63.913 301.228 64.404C301.632 65.541 301.877 66.7281 301.957 67.932C301.989 68.321 301.901 68.7103 301.705 69.048C301.643 69.1709 301.547 69.2742 301.43 69.3464C301.312 69.4185 301.177 69.4567 301.039 69.4567C300.901 69.4567 300.766 69.4185 300.648 69.3464C300.531 69.2742 300.435 69.1709 300.373 69.048C300.082 68.3869 299.71 67.7642 299.266 67.194C298.695 66.5279 297.896 66.098 297.025 65.988C293.731 65.664 293.722 70.794 295.036 72.531C297.196 75.366 298.978 73.548 298.978 73.548C298.978 73.548 300.085 77.931 296.908 79.848C296.908 79.848 291.796 81.108 288.304 79.335C286.711 76.05 284.551 74.133 282.841 70.632C279.835 64.503 281.275 59.13 283.318 58.032C282.742 55.17 284.488 52.362 288.187 50.616C291.886 48.87 296.872 49.77 300.787 50.391C303.098 50.7612 305.463 50.6261 307.717 49.995C308.033 49.896 308.359 49.8356 308.689 49.815C308.859 49.8017 309.03 49.83 309.187 49.8974C309.344 49.9649 309.482 50.0694 309.589 50.202C309.697 50.3894 309.754 50.602 309.754 50.8185C309.754 51.0349 309.697 51.2475 309.589 51.435C309.361 51.7993 309.156 52.1781 308.977 52.569C309.387 52.5074 309.805 52.5847 310.165 52.7886C310.526 52.9925 310.808 53.3112 310.966 53.694C311.196 54.2292 311.284 54.8152 311.219 55.3944C311.154 55.9735 310.94 56.5258 310.597 56.997C309.896 57.9319 308.9 58.6039 307.771 58.905C306.647 59.2015 305.485 59.3289 304.324 59.283C304.433 59.9248 304.38 60.5836 304.171 61.2Z" fill="#263238"/>
<path d="M300.643 83.952C301.48 83.952 302.389 85.635 304.018 87.336C300.456 89.0813 296.433 89.6547 292.525 88.974C285.64 87.939 284.317 83.754 284.317 83.754C284.317 83.754 285.892 82.539 286.72 81.729C287.728 80.739 288.223 80.721 288.223 80.721L288.142 82.134C288.142 82.134 289.465 83.502 293.659 84.348C295.977 84.8889 298.401 84.7514 300.643 83.952Z" fill="#00A7FF"/>
<path d="M325.006 124.479C325.006 124.479 323.035 114.579 321.604 107.694C320.173 100.809 320.704 92.79 309.832 90.054C308.032 92.754 306.862 97.011 307.465 102.258C308.068 107.505 310.471 115.758 311.065 118.521C312.146 122.838 313.914 126.952 316.303 130.707C319.75 135.837 326.203 144.513 328.795 147.699C330.001 149.175 331.045 150.669 332.161 152.199C333.412 153.749 334.768 155.21 336.22 156.573C336.894 157.247 337.731 157.734 338.65 157.986C339.235 158.148 339.82 157.923 340.369 158.076C340.918 158.229 341.269 158.76 341.971 158.778C342.673 158.796 343.339 158.283 344.023 158.346C344.733 158.494 345.451 158.597 346.174 158.652C346.778 158.558 347.396 158.614 347.974 158.814C348.496 159.03 349.234 159.714 349.837 159.372C350.44 159.03 350.305 158.238 350.071 157.626C349.515 156.468 348.599 155.521 347.461 154.926C346.362 154.218 345.223 153.575 344.05 153C342.925 152.461 341.932 151.68 341.143 150.714C340.585 150.084 340.243 149.121 341.359 149.112C342.7 149.112 344.374 149.607 345.598 148.752C346.444 148.167 346.156 147.42 345.337 147.06C343.985 146.475 342.68 145.789 341.431 145.008C340.153 144.216 338.974 143.298 337.687 142.542C336.996 142.156 336.281 141.817 335.545 141.525C333.52 140.679 332.638 138.654 331.612 136.863C330.19 134.397 326.599 127.8 325.006 124.479Z" fill="#FFA8A7"/>
<path d="M309.31 113.931C309.31 113.931 307.402 106.434 306.907 103.293C306.412 100.152 306.142 92.007 309.391 89.334C311.731 89.901 318.004 91.017 319.813 96.921C321.622 102.825 324.313 118.35 324.313 118.35L332.485 137.637C332.485 137.637 332.485 139.437 329.092 141.75C325.699 144.063 323.926 143.28 323.926 143.28C323.926 143.28 317.185 133.074 313.918 128.043C311.74 124.668 311.2 122.4 309.31 113.931Z" fill="#00A7FF"/>
<path d="M332.08 387.135C330.161 384.149 327.513 381.702 324.385 380.025C311.785 372.771 291.427 372.771 278.854 380.025C275.727 381.7 273.081 384.147 271.168 387.135H269.431V393.714C269.665 398.286 272.797 402.822 278.836 406.314C291.436 413.568 311.794 413.568 324.367 406.314C330.415 402.822 333.565 398.286 333.799 393.714V387.135H332.08Z" fill="#FFD029"/>
<path opacity="0.25" d="M332.08 387.135C330.161 384.149 327.513 381.702 324.385 380.025C311.785 372.771 291.427 372.771 278.854 380.025C275.727 381.7 273.081 384.147 271.168 387.135H269.431V393.714C269.665 398.286 272.797 402.822 278.836 406.314C291.436 413.568 311.794 413.568 324.367 406.314C330.415 402.822 333.565 398.286 333.799 393.714V387.135H332.08Z" fill="black"/>
<path opacity="0.1" d="M301.624 374.58C293.38 374.58 285.145 376.38 278.854 380.025C275.727 381.7 273.081 384.147 271.168 387.135H269.431V393.714C269.665 398.286 272.797 402.822 278.836 406.314C285.136 409.914 293.362 411.759 301.606 411.759L301.624 374.58Z" fill="black"/>
<path opacity="0.1" d="M284.038 377.604C282.246 378.267 280.512 379.077 278.854 380.025C275.727 381.7 273.081 384.147 271.168 387.135H269.431V393.714C269.665 398.286 272.797 402.822 278.836 406.314C280.494 407.263 282.228 408.072 284.02 408.735L284.038 377.604Z" fill="black"/>
<path opacity="0.5" d="M319.201 377.604C320.993 378.267 322.727 379.077 324.385 380.025C327.513 381.702 330.161 384.149 332.08 387.135H333.817V393.714C333.583 398.286 330.433 402.822 324.385 406.314C322.727 407.263 320.993 408.072 319.201 408.735V377.604Z" fill="#FFD029"/>
<path d="M278.854 373.995C266.254 381.258 266.254 393.03 278.854 400.284C289.861 406.638 306.835 407.43 319.354 402.669L319.849 402.471C321.417 401.851 322.939 401.12 324.403 400.284C334.888 394.227 336.634 385.038 329.623 377.946C328.067 376.402 326.312 375.073 324.403 373.995C311.812 366.741 291.4 366.741 278.854 373.995Z" fill="#FFD029"/>
<path opacity="0.2" d="M278.854 373.995C266.254 381.258 266.254 393.03 278.854 400.284C289.861 406.638 306.835 407.43 319.354 402.669L319.849 402.471C321.417 401.851 322.939 401.12 324.403 400.284C334.888 394.227 336.634 385.038 329.623 377.946C328.067 376.402 326.312 375.073 324.403 373.995C311.812 366.741 291.4 366.741 278.854 373.995Z" fill="black"/>
<path opacity="0.5" d="M329.605 377.946C330.973 379.493 331.985 381.322 332.568 383.304C333.151 385.285 333.292 387.37 332.98 389.412C331.864 395.802 322.918 401.184 319.831 402.471C321.399 401.851 322.921 401.12 324.385 400.284C334.87 394.2 336.616 385.038 329.605 377.946Z" fill="#F5F5F5"/>
<path opacity="0.5" d="M273.634 396.333C272.265 394.787 271.253 392.958 270.671 390.976C270.089 388.994 269.952 386.908 270.268 384.867C271.384 378.477 280.33 373.104 283.408 371.808C281.841 372.43 280.319 373.16 278.854 373.995C268.369 380.052 266.632 389.241 273.634 396.333Z" fill="#F5F5F5"/>
<path d="M322.792 399.33C334.492 392.589 334.492 381.645 322.792 374.895C311.092 368.145 292.192 368.154 280.492 374.895C268.792 381.636 268.792 392.589 280.492 399.33C292.192 406.071 311.11 406.08 322.792 399.33Z" fill="#FFD029"/>
<path opacity="0.4" d="M322.792 399.33C334.492 392.589 334.492 381.645 322.792 374.895C311.092 368.145 292.192 368.154 280.492 374.895C268.792 381.636 268.792 392.589 280.492 399.33C292.192 406.071 311.11 406.08 322.792 399.33Z" fill="white"/>
<path opacity="0.2" d="M330.199 392.274C332.602 387.828 331.819 382.932 327.85 378.774C327.068 377.963 326.219 377.219 325.312 376.551C324.539 375.971 323.73 375.439 322.891 374.958C322.414 374.67 321.928 374.409 321.415 374.157C322.666 376.2 322.207 378.396 315.16 378.81C301.363 379.611 318.841 392.796 318.841 392.796C318.841 392.796 327.733 388.503 330.199 392.274Z" fill="white"/>
<path opacity="0.5" d="M328.777 388.629C330.847 388.395 331.873 386.271 331.072 383.877C330.271 381.483 327.931 379.728 325.861 379.962C323.791 380.196 322.765 382.32 323.575 384.714C324.385 387.108 326.707 388.863 328.777 388.629Z" fill="white"/>
<path d="M306.961 399.6C306.277 394.479 283.894 380.295 283.894 380.295C283.894 380.295 278.926 378.306 280.573 374.832C279.747 375.303 278.948 375.82 278.179 376.38C277.657 376.749 277.18 377.136 276.721 377.532C270.061 383.301 270.052 390.888 276.721 396.666C277.171 397.053 277.621 397.44 278.17 397.818C278.883 398.34 279.625 398.821 280.393 399.258C281.16 399.713 281.95 400.128 282.76 400.5C283.417 400.815 284.092 401.103 284.776 401.4C285.46 401.697 286.162 401.922 286.882 402.156C289.061 402.868 291.295 403.404 293.56 403.758L295.063 403.983C297.278 404.266 299.508 404.404 301.741 404.397C304.479 404.398 307.212 404.175 309.913 403.731C309.913 403.731 306.322 402.984 306.961 399.6Z" fill="#FFD029"/>
<path opacity="0.3" d="M306.961 399.6C306.277 394.479 283.894 380.295 283.894 380.295C283.894 380.295 278.926 378.306 280.573 374.832C279.747 375.303 278.948 375.82 278.179 376.38C277.657 376.749 277.18 377.136 276.721 377.532C270.061 383.301 270.052 390.888 276.721 396.666C277.171 397.053 277.621 397.44 278.17 397.818C278.883 398.34 279.625 398.821 280.393 399.258C281.16 399.713 281.95 400.128 282.76 400.5C283.417 400.815 284.092 401.103 284.776 401.4C285.46 401.697 286.162 401.922 286.882 402.156C289.061 402.868 291.295 403.404 293.56 403.758L295.063 403.983C297.278 404.266 299.508 404.404 301.741 404.397C304.479 404.398 307.212 404.175 309.913 403.731C309.913 403.731 306.322 402.984 306.961 399.6Z" fill="white"/>
<path d="M285.856 378C277.504 382.824 277.162 390.519 284.839 395.577C285.163 395.793 285.505 396 285.856 396.207C294.568 401.238 308.68 401.238 317.356 396.207C326.032 391.176 326.068 383.031 317.356 378L316.258 377.415C307.537 372.996 294.208 373.194 285.856 378Z" fill="#FFD029"/>
<path opacity="0.2" d="M285.856 378C277.504 382.824 277.162 390.519 284.839 395.577C285.163 395.793 285.505 396 285.856 396.207C294.568 401.238 308.68 401.238 317.356 396.207C326.032 391.176 326.068 383.031 317.356 378L316.258 377.415C307.537 372.996 294.208 373.194 285.856 378Z" fill="black"/>
<path d="M301.633 399.42C313.403 399.42 322.945 393.912 322.945 387.117C322.945 380.322 313.403 374.814 301.633 374.814C289.863 374.814 280.321 380.322 280.321 387.117C280.321 393.912 289.863 399.42 301.633 399.42Z" fill="#FFD029"/>
<path opacity="0.5" d="M301.633 399.42C313.403 399.42 322.945 393.912 322.945 387.117C322.945 380.322 313.403 374.814 301.633 374.814C289.863 374.814 280.321 380.322 280.321 387.117C280.321 393.912 289.863 399.42 301.633 399.42Z" fill="black"/>
<path d="M286.567 381.843C294.883 377.037 308.383 377.037 316.699 381.843C320.11 383.814 322.099 386.28 322.738 388.827C322.117 391.383 320.11 393.849 316.699 395.811C308.383 400.617 294.883 400.617 286.567 395.811C283.165 393.849 281.167 391.383 280.528 388.827C281.149 386.28 283.165 383.814 286.567 381.843Z" fill="#FFD029"/>
<path opacity="0.35" d="M286.567 381.843C294.883 377.037 308.383 377.037 316.699 381.843C320.11 383.814 322.099 386.28 322.738 388.827C322.117 391.383 320.11 393.849 316.699 395.811C308.383 400.617 294.883 400.617 286.567 395.811C283.165 393.849 281.167 391.383 280.528 388.827C281.149 386.28 283.165 383.814 286.567 381.843Z" fill="black"/>
<path d="M315.052 390.825C315.052 390.402 315.052 388.71 315.052 388.278C315.052 387.234 314.332 386.226 312.784 385.317H312.73C309.868 383.661 306.907 383.877 304.27 384.543C303.154 384.831 302.083 385.191 301.111 385.524C300.004 385.938 298.874 386.29 297.727 386.577C297.199 386.699 296.657 386.751 296.116 386.73C295.653 386.704 295.2 386.584 294.784 386.379L294.892 386.298L295.225 386.1C295.514 385.928 295.814 385.778 296.125 385.65C296.868 385.322 297.669 385.143 298.481 385.125C299.294 385.106 300.102 385.248 300.859 385.542L303.559 382.788V380.259C301.15 379.437 298.551 379.343 296.089 379.989C295.276 380.197 294.482 380.471 293.713 380.808L291.013 379.233L287.755 381.114V383.643L288.871 384.291C288.574 384.727 288.408 385.24 288.394 385.767V388.287C288.394 389.331 289.15 390.339 290.716 391.248C292.084 392.049 293.631 392.495 295.216 392.544H296.116C297.768 392.421 299.394 392.07 300.949 391.5L301.849 391.176L299.095 393.93V396.459C300.791 397.101 302.6 397.391 304.412 397.312C306.223 397.233 308 396.787 309.634 396L312.334 397.557L315.592 395.676V393.147L314.476 392.499C314.832 392.012 315.033 391.428 315.052 390.825ZM308.176 390.6C307.933 390.744 307.681 390.87 307.42 390.978C305.725 391.71 303.809 391.739 302.092 391.059C304.639 390.159 306.772 389.376 308.59 390.339C308.458 390.435 308.32 390.523 308.176 390.6Z" fill="#FFD029"/>
<path d="M304.27 384.507C303.154 384.795 302.083 385.155 301.111 385.488C300.004 385.902 298.874 386.254 297.727 386.541C297.199 386.663 296.657 386.715 296.116 386.694C295.57 386.664 295.039 386.504 294.568 386.226C293.515 385.623 293.362 384.741 294.892 383.733L295.225 383.526C295.516 383.361 295.816 383.213 296.125 383.085C296.868 382.757 297.669 382.578 298.481 382.56C299.294 382.541 300.102 382.683 300.859 382.977L303.559 380.223C301.15 379.401 298.551 379.307 296.089 379.953C295.276 380.161 294.482 380.435 293.713 380.772L291.013 379.197L287.755 381.078L290.455 382.635C287.755 384.714 287.665 386.874 290.743 388.656C292.111 389.457 293.658 389.903 295.243 389.952H296.143C297.796 389.831 299.423 389.476 300.976 388.899C304.108 387.855 306.646 386.622 308.752 387.837C310.165 388.656 309.769 389.682 308.221 390.537C307.978 390.681 307.726 390.807 307.465 390.915C306.613 391.281 305.697 391.473 304.77 391.481C303.842 391.488 302.923 391.311 302.065 390.96L299.194 393.831C300.89 394.473 302.699 394.763 304.511 394.684C306.322 394.605 308.099 394.159 309.733 393.372L312.433 394.929L315.691 393.048L312.991 391.491C315.691 389.394 316.024 387.108 312.856 385.254H312.802C309.868 383.625 306.907 383.841 304.27 384.507Z" fill="#FFD029"/>
<g opacity="0.3">
<path d="M304.27 384.507C303.154 384.795 302.083 385.155 301.111 385.488C300.004 385.902 298.874 386.254 297.727 386.541C297.199 386.663 296.657 386.715 296.116 386.694C295.57 386.664 295.039 386.504 294.568 386.226C293.515 385.623 293.362 384.741 294.892 383.733L295.225 383.526C295.516 383.361 295.816 383.213 296.125 383.085C296.868 382.757 297.669 382.578 298.481 382.56C299.294 382.541 300.102 382.683 300.859 382.977L303.559 380.223C301.15 379.401 298.551 379.307 296.089 379.953C295.276 380.161 294.482 380.435 293.713 380.772L291.013 379.197L287.755 381.078L290.455 382.635C287.755 384.714 287.665 386.874 290.743 388.656C292.111 389.457 293.658 389.903 295.243 389.952H296.143C297.796 389.831 299.423 389.476 300.976 388.899C304.108 387.855 306.646 386.622 308.752 387.837C310.165 388.656 309.769 389.682 308.221 390.537C307.978 390.681 307.726 390.807 307.465 390.915C306.613 391.281 305.697 391.473 304.77 391.481C303.842 391.488 302.923 391.311 302.065 390.96L299.194 393.831C300.89 394.473 302.699 394.763 304.511 394.684C306.322 394.605 308.099 394.159 309.733 393.372L312.433 394.929L315.691 393.048L312.991 391.491C315.691 389.394 316.024 387.108 312.856 385.254H312.802C309.868 383.625 306.907 383.841 304.27 384.507Z" fill="white"/>
</g>
<path opacity="0.45" d="M287.728 381.078L291.022 379.584L293.722 380.772L290.986 379.197L287.728 381.078Z" fill="#F5F5F5"/>
<path opacity="0.45" d="M295.72 380.052C298.044 379.589 300.444 379.672 302.731 380.295L300.832 382.995L303.532 380.241C301.009 379.381 298.282 379.315 295.72 380.052Z" fill="#F5F5F5"/>
<path opacity="0.45" d="M312.73 385.281H312.784C315.952 387.135 315.637 389.421 312.919 391.518C315.331 388.899 314.89 387.072 312.28 385.569C309.811 384.308 306.987 383.921 304.27 384.471C306.907 383.841 309.868 383.625 312.73 385.281Z" fill="#F5F5F5"/>
<path opacity="0.45" d="M312.919 391.554L314.989 393.147L312.361 394.992L315.619 393.111L312.919 391.554Z" fill="#F5F5F5"/>
<path opacity="0.45" d="M307.42 390.978C305.812 391.792 303.953 391.956 302.227 391.437L299.122 393.894L301.993 391.023C302.855 391.378 303.779 391.557 304.711 391.549C305.643 391.542 306.564 391.347 307.42 390.978Z" fill="#F5F5F5"/>
<path opacity="0.45" d="M297.7 386.541C297.068 386.8 296.382 386.901 295.702 386.837C295.021 386.773 294.367 386.544 293.794 386.172C292.894 385.362 293.452 384.489 294.865 383.733C293.335 384.741 293.488 385.623 294.541 386.226C295.012 386.504 295.543 386.664 296.089 386.694C296.63 386.715 297.172 386.663 297.7 386.541Z" fill="#F5F5F5"/>
<path opacity="0.45" d="M290.401 382.662C290.176 382.86 288.214 384.696 289.078 386.523C289.942 388.35 292.876 389.727 295.198 389.979C293.613 389.93 292.066 389.484 290.698 388.683C287.611 386.901 287.665 384.741 290.401 382.662Z" fill="#F5F5F5"/>
<path d="M338.2 377.874C336.29 374.885 333.643 372.436 330.514 370.764C317.914 363.501 297.556 363.501 284.983 370.764C281.854 372.436 279.207 374.885 277.297 377.874H275.551V384.453C275.785 389.025 278.908 393.561 284.956 397.053C297.556 404.316 317.914 404.316 330.487 397.053C336.535 393.57 339.685 389.034 339.91 384.453V377.874H338.2Z" fill="#FFD029"/>
<path opacity="0.25" d="M338.2 377.874C336.29 374.885 333.643 372.436 330.514 370.764C317.914 363.501 297.556 363.501 284.983 370.764C281.854 372.436 279.207 374.885 277.297 377.874H275.551V384.453C275.785 389.025 278.908 393.561 284.956 397.053C297.556 404.316 317.914 404.316 330.487 397.053C336.535 393.57 339.685 389.034 339.91 384.453V377.874H338.2Z" fill="black"/>
<path opacity="0.1" d="M307.717 365.319C299.473 365.319 291.238 367.119 284.947 370.719C281.818 372.391 279.171 374.839 277.261 377.829H275.515V384.408C275.749 388.98 278.872 393.516 284.92 397.008C291.22 400.608 299.446 402.408 307.69 402.408L307.717 365.319Z" fill="black"/>
<path opacity="0.1" d="M290.131 368.334C288.341 369.003 286.607 369.816 284.947 370.764C281.818 372.436 279.171 374.884 277.261 377.874H275.515V384.453C275.749 389.025 278.872 393.561 284.92 397.053C286.578 398.004 288.312 398.817 290.104 399.483L290.131 368.334Z" fill="black"/>
<path opacity="0.5" d="M325.294 368.334C327.084 369.003 328.818 369.816 330.478 370.764C333.607 372.436 336.254 374.884 338.164 377.874H339.901V384.453C339.676 389.025 336.517 393.561 330.478 397.053C328.82 398.004 327.086 398.817 325.294 399.483V368.334Z" fill="#FFD029"/>
<path d="M284.947 364.734C272.347 371.988 272.347 383.76 284.947 391.023C295.945 397.323 312.928 398.169 325.447 393.399L325.942 393.21C327.509 392.589 329.031 391.858 330.496 391.023C340.981 384.966 342.718 375.777 335.716 368.685C334.16 367.144 332.404 365.818 330.496 364.743C317.905 357.471 297.52 357.471 284.947 364.734Z" fill="#FFD029"/>
<path opacity="0.2" d="M284.947 364.734C272.347 371.988 272.347 383.76 284.947 391.023C295.945 397.323 312.928 398.169 325.447 393.399L325.942 393.21C327.509 392.589 329.031 391.858 330.496 391.023C340.981 384.966 342.718 375.777 335.716 368.685C334.16 367.144 332.404 365.818 330.496 364.743C317.905 357.471 297.52 357.471 284.947 364.734Z" fill="black"/>
<path opacity="0.5" d="M335.698 368.685C337.074 370.228 338.092 372.056 338.68 374.038C339.268 376.02 339.412 378.107 339.1 380.151C337.984 386.541 329.047 391.914 325.96 393.21C327.527 392.588 329.049 391.858 330.514 391.023C340.963 384.966 342.7 375.777 335.698 368.685Z" fill="#F5F5F5"/>
<path opacity="0.5" d="M279.7 387.072C278.332 385.525 277.321 383.696 276.739 381.714C276.157 379.733 276.019 377.647 276.334 375.606C277.441 369.216 286.387 363.834 289.474 362.547C287.906 363.167 286.384 363.898 284.92 364.734C274.462 370.8 272.725 379.98 279.7 387.072Z" fill="#F5F5F5"/>
<path d="M328.885 390.069C340.585 383.319 340.585 372.384 328.885 365.634C317.185 358.884 298.285 358.884 286.585 365.634C274.885 372.384 274.885 383.319 286.585 390.069C298.285 396.819 317.194 396.819 328.885 390.069Z" fill="#FFD029"/>
<path opacity="0.4" d="M328.885 390.069C340.585 383.319 340.585 372.384 328.885 365.634C317.185 358.884 298.285 358.884 286.585 365.634C274.885 372.384 274.885 383.319 286.585 390.069C298.285 396.819 317.194 396.819 328.885 390.069Z" fill="white"/>
<path opacity="0.2" d="M336.292 383.013C338.695 378.567 337.912 373.662 333.943 369.513C333.161 368.705 332.312 367.964 331.405 367.299C330.63 366.719 329.821 366.184 328.984 365.697C328.507 365.418 328.012 365.148 327.508 364.896C328.75 366.948 328.3 369.135 321.208 369.549C307.42 370.359 324.898 383.535 324.898 383.535C324.898 383.535 333.826 379.233 336.292 383.013Z" fill="white"/>
<path opacity="0.5" d="M334.87 379.368C336.94 379.134 337.966 377.001 337.156 374.607C336.346 372.213 334.024 370.467 331.954 370.692C329.884 370.917 328.858 373.059 329.659 375.453C330.46 377.847 332.8 379.593 334.87 379.368Z" fill="white"/>
<path d="M313.054 390.348C312.37 385.227 289.978 371.052 289.978 371.052C289.978 371.052 285.019 369.054 286.666 365.589C285.837 366.055 285.037 366.572 284.272 367.137C283.766 367.495 283.279 367.879 282.814 368.289C276.145 374.058 276.136 381.636 282.814 387.414C283.264 387.81 283.75 388.197 284.272 388.575C284.985 389.092 285.724 389.573 286.486 390.015C287.254 390.453 288.046 390.867 288.862 391.257C289.51 391.563 290.194 391.86 290.878 392.157C291.562 392.454 292.264 392.679 292.975 392.913C295.159 393.62 297.395 394.155 299.662 394.515C300.157 394.596 300.661 394.668 301.156 394.731C306.095 395.37 311.101 395.285 316.015 394.479C316.015 394.479 312.406 393.723 313.054 390.348Z" fill="#FFD029"/>
<path opacity="0.3" d="M313.054 390.348C312.37 385.227 289.978 371.052 289.978 371.052C289.978 371.052 285.019 369.054 286.666 365.589C285.837 366.055 285.037 366.572 284.272 367.137C283.766 367.495 283.279 367.879 282.814 368.289C276.145 374.058 276.136 381.636 282.814 387.414C283.264 387.81 283.75 388.197 284.272 388.575C284.985 389.092 285.724 389.573 286.486 390.015C287.254 390.453 288.046 390.867 288.862 391.257C289.51 391.563 290.194 391.86 290.878 392.157C291.562 392.454 292.264 392.679 292.975 392.913C295.159 393.62 297.395 394.155 299.662 394.515C300.157 394.596 300.661 394.668 301.156 394.731C306.095 395.37 311.101 395.285 316.015 394.479C316.015 394.479 312.406 393.723 313.054 390.348Z" fill="white"/>
<path d="M291.949 368.748C283.597 373.572 283.255 381.267 290.932 386.325C291.256 386.532 291.598 386.748 291.949 386.955C300.661 391.977 314.773 391.977 323.449 386.955C332.125 381.933 332.161 373.779 323.449 368.748C323.098 368.541 322.729 368.343 322.36 368.154C313.63 363.726 300.301 363.924 291.949 368.748Z" fill="#FFD029"/>
<path opacity="0.2" d="M291.949 368.748C283.597 373.572 283.255 381.267 290.932 386.325C291.256 386.532 291.598 386.748 291.949 386.955C300.661 391.977 314.773 391.977 323.449 386.955C332.125 381.933 332.161 373.779 323.449 368.748C323.098 368.541 322.729 368.343 322.36 368.154C313.63 363.726 300.301 363.924 291.949 368.748Z" fill="black"/>
<path d="M307.726 390.15C319.496 390.15 329.038 384.642 329.038 377.847C329.038 371.052 319.496 365.544 307.726 365.544C295.956 365.544 286.414 371.052 286.414 377.847C286.414 384.642 295.956 390.15 307.726 390.15Z" fill="#FFD029"/>
<path opacity="0.5" d="M307.726 390.15C319.496 390.15 329.038 384.642 329.038 377.847C329.038 371.052 319.496 365.544 307.726 365.544C295.956 365.544 286.414 371.052 286.414 377.847C286.414 384.642 295.956 390.15 307.726 390.15Z" fill="black"/>
<path d="M292.651 372.6C300.976 367.794 314.467 367.794 322.792 372.6C326.194 374.562 328.192 377.028 328.831 379.584C328.21 382.14 326.194 384.606 322.792 386.568C314.467 391.374 300.976 391.374 292.651 386.568C289.249 384.606 287.251 382.14 286.621 379.584C287.242 377.01 289.249 374.544 292.651 372.6Z" fill="#FFD029"/>
<path opacity="0.35" d="M292.651 372.6C300.976 367.794 314.467 367.794 322.792 372.6C326.194 374.562 328.192 377.028 328.831 379.584C328.21 382.14 326.194 384.606 322.792 386.568C314.467 391.374 300.976 391.374 292.651 386.568C289.249 384.606 287.251 382.14 286.621 379.584C287.242 377.01 289.249 374.544 292.651 372.6Z" fill="black"/>
<path d="M321.145 381.6V379.062C321.145 378.018 320.425 377.001 318.868 376.092H318.814C315.952 374.445 313 374.661 310.363 375.327C309.238 375.606 308.176 375.975 307.204 376.308C306.098 376.724 304.968 377.072 303.82 377.352C303.295 377.47 302.756 377.521 302.218 377.505C301.752 377.471 301.297 377.349 300.877 377.145L300.985 377.073L301.318 376.866C301.609 376.701 301.909 376.554 302.218 376.425C302.961 376.094 303.762 375.915 304.574 375.896C305.387 375.878 306.195 376.021 306.952 376.317L309.652 373.563V371.034C307.244 370.209 304.645 370.112 302.182 370.755C301.368 370.964 300.573 371.241 299.806 371.583L297.106 369.999L293.848 371.889V374.418L294.964 375.057C294.659 375.489 294.492 376.004 294.487 376.533V379.062C294.487 380.106 295.234 381.114 296.809 382.023C298.179 382.82 299.725 383.265 301.309 383.319C301.606 383.319 301.903 383.319 302.209 383.319C303.861 383.196 305.487 382.845 307.042 382.275L307.942 381.951L305.188 384.705V387.243C306.886 387.878 308.694 388.164 310.504 388.086C312.315 388.007 314.091 387.564 315.727 386.784L318.427 388.341L321.685 386.46V383.85L320.569 383.202C320.912 382.735 321.112 382.178 321.145 381.6ZM314.269 381.384C314.024 381.524 313.772 381.651 313.513 381.762C311.814 382.49 309.896 382.519 308.176 381.843C310.732 380.943 312.865 380.151 314.683 381.123C314.557 381.168 314.413 381.249 314.269 381.339V381.384Z" fill="#FFD029"/>
<path d="M310.363 375.246C309.238 375.525 308.176 375.894 307.204 376.227C306.098 376.643 304.968 376.991 303.82 377.271C303.295 377.389 302.756 377.44 302.218 377.424C301.669 377.394 301.135 377.234 300.661 376.956C299.617 376.353 299.464 375.462 300.985 374.463L301.318 374.256C301.609 374.091 301.909 373.944 302.218 373.815C302.961 373.484 303.762 373.305 304.574 373.286C305.387 373.268 306.195 373.411 306.952 373.707L309.652 370.953C307.244 370.128 304.645 370.031 302.182 370.674C301.368 370.882 300.573 371.159 299.806 371.502L297.106 369.918L293.848 371.808L296.548 373.365C293.848 375.453 293.749 377.613 296.836 379.395C298.206 380.192 299.752 380.637 301.336 380.691C301.636 380.709 301.936 380.709 302.236 380.691C303.888 380.568 305.514 380.217 307.069 379.647C310.201 378.603 312.73 377.37 314.845 378.585C316.249 379.404 315.862 380.43 314.314 381.285C314.069 381.425 313.817 381.551 313.558 381.663C312.703 382.02 311.785 382.204 310.858 382.204C309.931 382.204 309.013 382.02 308.158 381.663L305.296 384.534C306.992 385.174 308.8 385.465 310.612 385.387C312.423 385.31 314.2 384.867 315.835 384.084L318.535 385.641L321.793 383.76L319.093 382.203C321.793 380.097 322.117 377.811 318.949 375.957H318.895C315.952 374.4 313 374.58 310.363 375.246Z" fill="#FFD029"/>
<g opacity="0.3">
<path d="M310.363 375.246C309.238 375.525 308.176 375.894 307.204 376.227C306.098 376.643 304.968 376.991 303.82 377.271C303.295 377.389 302.756 377.44 302.218 377.424C301.669 377.394 301.135 377.234 300.661 376.956C299.617 376.353 299.464 375.462 300.985 374.463L301.318 374.256C301.609 374.091 301.909 373.944 302.218 373.815C302.961 373.484 303.762 373.305 304.574 373.286C305.387 373.268 306.195 373.411 306.952 373.707L309.652 370.953C307.244 370.128 304.645 370.031 302.182 370.674C301.368 370.882 300.573 371.159 299.806 371.502L297.106 369.918L293.848 371.808L296.548 373.365C293.848 375.453 293.749 377.613 296.836 379.395C298.206 380.192 299.752 380.637 301.336 380.691C301.636 380.709 301.936 380.709 302.236 380.691C303.888 380.568 305.514 380.217 307.069 379.647C310.201 378.603 312.73 377.37 314.845 378.585C316.249 379.404 315.862 380.43 314.314 381.285C314.069 381.425 313.817 381.551 313.558 381.663C312.703 382.02 311.785 382.204 310.858 382.204C309.931 382.204 309.013 382.02 308.158 381.663L305.296 384.534C306.992 385.174 308.8 385.465 310.612 385.387C312.423 385.31 314.2 384.867 315.835 384.084L318.535 385.641L321.793 383.76L319.093 382.203C321.793 380.097 322.117 377.811 318.949 375.957H318.895C315.952 374.4 313 374.58 310.363 375.246Z" fill="white"/>
</g>
<path opacity="0.45" d="M293.821 371.817L297.115 370.323L299.815 371.511L297.079 369.936L293.821 371.817Z" fill="#F5F5F5"/>
<path opacity="0.45" d="M301.813 370.8C304.134 370.335 306.531 370.415 308.815 371.034L306.925 373.734L309.625 370.98C307.101 370.123 304.374 370.06 301.813 370.8Z" fill="#F5F5F5"/>
<path opacity="0.45" d="M318.814 376.011H318.868C322.036 377.865 321.73 380.151 319.012 382.257C321.415 379.638 320.983 377.811 318.373 376.299C315.901 375.046 313.079 374.662 310.363 375.21C313 374.58 315.952 374.4 318.814 376.011Z" fill="#F5F5F5"/>
<path opacity="0.45" d="M319.012 382.293L321.082 383.877L318.454 385.731L321.712 383.85L319.012 382.293Z" fill="#F5F5F5"/>
<path opacity="0.45" d="M313.513 381.717C311.902 382.531 310.038 382.692 308.311 382.167L305.215 384.624L308.077 381.753C308.94 382.11 309.865 382.29 310.799 382.284C311.732 382.278 312.655 382.085 313.513 381.717Z" fill="#F5F5F5"/>
<path opacity="0.45" d="M303.793 377.28C303.159 377.535 302.474 377.634 301.794 377.568C301.114 377.502 300.46 377.274 299.887 376.902C298.987 376.092 299.554 375.228 300.958 374.472C299.437 375.471 299.59 376.362 300.634 376.965C301.108 377.243 301.642 377.403 302.191 377.433C302.729 377.449 303.267 377.398 303.793 377.28Z" fill="#F5F5F5"/>
<path opacity="0.45" d="M296.494 373.392C296.26 373.599 294.298 375.426 295.171 377.262C296.044 379.098 298.969 380.466 301.291 380.709C299.707 380.655 298.161 380.21 296.791 379.413C293.695 377.64 293.758 375.48 296.494 373.392Z" fill="#F5F5F5"/>
<path d="M330.856 367.038C328.94 364.05 326.291 361.603 323.161 359.928C310.561 352.674 290.212 352.674 277.639 359.928C274.509 361.603 271.86 364.05 269.944 367.038H268.207V373.617C268.441 378.189 271.573 382.725 277.621 386.217C290.221 393.471 310.57 393.471 323.143 386.217C329.191 382.725 332.341 378.189 332.575 373.617V367.038H330.856Z" fill="#FFD029"/>
<path opacity="0.25" d="M330.856 367.038C328.94 364.05 326.291 361.603 323.161 359.928C310.561 352.674 290.212 352.674 277.639 359.928C274.509 361.603 271.86 364.05 269.944 367.038H268.207V373.617C268.441 378.189 271.573 382.725 277.621 386.217C290.221 393.471 310.57 393.471 323.143 386.217C329.191 382.725 332.341 378.189 332.575 373.617V367.038H330.856Z" fill="black"/>
<path opacity="0.1" d="M300.4 354.483C292.165 354.483 283.921 356.283 277.639 359.928C274.509 361.603 271.86 364.05 269.944 367.038H268.207V373.617C268.441 378.189 271.573 382.725 277.621 386.217C283.921 389.817 292.147 391.662 300.382 391.662L300.4 354.483Z" fill="black"/>
<path opacity="0.1" d="M282.814 357.498C281.026 358.168 279.296 358.98 277.639 359.928C274.509 361.603 271.86 364.05 269.944 367.038H268.207V373.617C268.441 378.189 271.573 382.725 277.621 386.217C279.276 387.166 281.007 387.975 282.796 388.638L282.814 357.498Z" fill="black"/>
<path opacity="0.5" d="M317.986 357.498C319.774 358.168 321.504 358.98 323.161 359.928C326.291 361.603 328.94 364.05 330.856 367.038H332.593V373.617C332.359 378.189 329.209 382.725 323.161 386.217C321.506 387.166 319.775 387.975 317.986 388.638V357.498Z" fill="#FFD029"/>
<path d="M277.639 353.898C265.039 361.161 265.039 372.924 277.639 380.187C288.637 386.541 305.62 387.333 318.139 382.572L318.643 382.374C320.193 381.752 321.697 381.021 323.143 380.187C333.628 374.13 335.374 364.941 328.372 357.849C326.818 356.303 325.062 354.974 323.152 353.898C310.597 346.644 290.212 346.644 277.639 353.898Z" fill="#FFD029"/>
<path opacity="0.2" d="M277.639 353.898C265.039 361.161 265.039 372.924 277.639 380.187C288.637 386.541 305.62 387.333 318.139 382.572L318.643 382.374C320.193 381.752 321.697 381.021 323.143 380.187C333.628 374.13 335.374 364.941 328.372 357.849C326.818 356.303 325.062 354.974 323.152 353.898C310.597 346.644 290.212 346.644 277.639 353.898Z" fill="black"/>
<path opacity="0.5" d="M328.39 357.849C329.757 359.397 330.768 361.226 331.349 363.207C331.931 365.189 332.07 367.274 331.756 369.315C330.64 375.705 321.694 381.078 318.616 382.374C320.166 381.752 321.67 381.021 323.116 380.187C333.646 374.13 335.392 364.941 328.39 357.849Z" fill="#F5F5F5"/>
<path opacity="0.5" d="M272.41 376.2C271.043 374.652 270.032 372.823 269.451 370.842C268.869 368.86 268.73 366.775 269.044 364.734C270.16 358.344 279.106 352.971 282.184 351.675C280.635 352.299 279.131 353.029 277.684 353.862C267.154 360 265.408 369.144 272.41 376.2Z" fill="#F5F5F5"/>
<path d="M300.409 384.3C316.936 384.3 330.334 376.563 330.334 367.02C330.334 357.476 316.936 349.74 300.409 349.74C283.882 349.74 270.484 357.476 270.484 367.02C270.484 376.563 283.882 384.3 300.409 384.3Z" fill="#FFD029"/>
<path opacity="0.4" d="M300.409 384.3C316.936 384.3 330.334 376.563 330.334 367.02C330.334 357.476 316.936 349.74 300.409 349.74C283.882 349.74 270.484 357.476 270.484 367.02C270.484 376.563 283.882 384.3 300.409 384.3Z" fill="white"/>
<path opacity="0.2" d="M271.843 372.177C269.44 367.731 270.223 362.826 274.192 358.677C274.974 357.866 275.823 357.122 276.73 356.454C277.505 355.874 278.314 355.339 279.151 354.852C279.628 354.573 280.123 354.312 280.627 354.06C279.385 356.103 279.835 358.299 286.927 358.704C300.715 359.514 283.237 372.699 283.237 372.699C283.237 372.699 274.3 368.406 271.843 372.177Z" fill="white"/>
<path opacity="0.5" d="M273.265 368.532C271.195 368.298 270.169 366.174 270.979 363.78C271.789 361.386 274.111 359.631 276.181 359.865C278.251 360.099 279.277 362.223 278.476 364.617C277.675 367.011 275.335 368.766 273.265 368.532Z" fill="white"/>
<path d="M295.081 379.521C295.765 374.391 318.157 360.216 318.157 360.216C318.157 360.216 323.116 358.218 321.469 354.753C322.296 355.222 323.096 355.739 323.863 356.301C324.369 356.659 324.856 357.043 325.321 357.453C331.99 363.222 331.999 370.809 325.321 376.587C324.871 376.974 324.421 377.361 323.863 377.739C323.15 378.256 322.411 378.737 321.649 379.179C320.881 379.629 320.089 380.043 319.273 380.421C318.625 380.736 317.941 381.024 317.257 381.321C316.573 381.618 315.871 381.843 315.16 382.077C312.977 382.788 310.741 383.324 308.473 383.679L306.979 383.904C304.761 384.186 302.528 384.325 300.292 384.318C297.554 384.319 294.821 384.096 292.12 383.652C292.12 383.652 295.729 382.887 295.081 379.521Z" fill="#FFD029"/>
<path opacity="0.3" d="M295.081 379.521C295.765 374.391 318.157 360.216 318.157 360.216C318.157 360.216 323.116 358.218 321.469 354.753C322.296 355.222 323.096 355.739 323.863 356.301C324.369 356.659 324.856 357.043 325.321 357.453C331.99 363.222 331.999 370.809 325.321 376.587C324.871 376.974 324.421 377.361 323.863 377.739C323.15 378.256 322.411 378.737 321.649 379.179C320.881 379.629 320.089 380.043 319.273 380.421C318.625 380.736 317.941 381.024 317.257 381.321C316.573 381.618 315.871 381.843 315.16 382.077C312.977 382.788 310.741 383.324 308.473 383.679L306.979 383.904C304.761 384.186 302.528 384.325 300.292 384.318C297.554 384.319 294.821 384.096 292.12 383.652C292.12 383.652 295.729 382.887 295.081 379.521Z" fill="white"/>
<path d="M316.186 357.912C324.538 362.736 324.88 370.431 317.203 375.489C316.879 375.705 316.537 375.912 316.186 376.119C307.474 381.15 293.362 381.15 284.686 376.119C276.01 371.088 275.974 362.943 284.686 357.912C285.037 357.714 285.406 357.516 285.775 357.327C294.505 352.899 307.834 353.097 316.186 357.912Z" fill="#FFD029"/>
<path opacity="0.2" d="M316.186 357.912C324.538 362.736 324.88 370.431 317.203 375.489C316.879 375.705 316.537 375.912 316.186 376.119C307.474 381.15 293.362 381.15 284.686 376.119C276.01 371.088 275.974 362.943 284.686 357.912C285.037 357.714 285.406 357.516 285.775 357.327C294.505 352.899 307.834 353.097 316.186 357.912Z" fill="black"/>
<path d="M315.484 358.317C323.8 363.123 323.8 370.917 315.484 375.714C307.168 380.511 293.668 380.52 285.343 375.714C277.018 370.908 277.018 363.114 285.343 358.317C293.668 353.52 307.159 353.511 315.484 358.317Z" fill="#FFD029"/>
<path opacity="0.5" d="M315.484 358.317C323.8 363.123 323.8 370.917 315.484 375.714C307.168 380.511 293.668 380.52 285.343 375.714C277.018 370.908 277.018 363.114 285.343 358.317C293.668 353.52 307.159 353.511 315.484 358.317Z" fill="black"/>
<path d="M315.484 361.746C307.159 356.94 293.668 356.94 285.343 361.746C281.941 363.717 279.943 366.174 279.313 368.73C279.925 371.286 281.941 373.752 285.343 375.714C293.668 380.52 307.159 380.52 315.484 375.714C318.886 373.752 320.884 371.286 321.514 368.73C320.893 366.174 318.886 363.717 315.484 361.746Z" fill="#FFD029"/>
<path opacity="0.35" d="M315.484 361.746C307.159 356.94 293.668 356.94 285.343 361.746C281.941 363.717 279.943 366.174 279.313 368.73C279.925 371.286 281.941 373.752 285.343 375.714C293.668 380.52 307.159 380.52 315.484 375.714C318.886 373.752 320.884 371.286 321.514 368.73C320.893 366.174 318.886 363.717 315.484 361.746Z" fill="black"/>
<path d="M313.828 370.719C313.828 370.305 313.828 368.613 313.828 368.181C313.828 367.137 313.099 366.129 311.551 365.22H311.497C308.635 363.564 305.674 363.78 303.046 364.446C301.93 364.734 300.868 365.094 299.896 365.427C298.79 365.842 297.66 366.19 296.512 366.471C295.984 366.594 295.442 366.645 294.901 366.624C294.438 366.598 293.985 366.479 293.569 366.273L293.677 366.192L294.01 365.985C294.301 365.82 294.601 365.673 294.91 365.544C296.414 364.881 298.12 364.842 299.653 365.436L302.353 362.682V360.153C299.944 359.331 297.345 359.237 294.883 359.883C294.07 360.091 293.276 360.365 292.507 360.702L289.807 359.127L286.54 361.008V363.537L287.665 364.185C287.362 364.619 287.193 365.132 287.179 365.661C287.179 366.075 287.179 367.758 287.179 368.181C287.179 369.225 287.926 370.233 289.501 371.142C290.87 371.941 292.417 372.387 294.001 372.438C294.298 372.438 294.604 372.438 294.901 372.438C296.556 372.32 298.186 371.968 299.743 371.394L300.643 371.07L297.898 373.833V376.362C299.593 377.003 301.4 377.293 303.21 377.214C305.02 377.136 306.796 376.689 308.428 375.903L311.128 377.46L314.395 375.579V373.05L313.27 372.402C313.629 371.914 313.825 371.325 313.828 370.719ZM306.952 370.503C306.708 370.645 306.456 370.771 306.196 370.881C304.501 371.613 302.585 371.642 300.868 370.962C303.424 370.062 305.548 369.27 307.366 370.242C307.234 370.338 307.096 370.426 306.952 370.503Z" fill="#FFD029"/>
<path d="M303.1 364.41C301.984 364.698 300.922 365.058 299.95 365.391C298.844 365.806 297.714 366.154 296.566 366.435C296.038 366.558 295.496 366.609 294.955 366.588C294.409 366.557 293.878 366.397 293.407 366.12C292.354 365.517 292.201 364.626 293.731 363.627L294.064 363.42C294.355 363.255 294.655 363.108 294.964 362.979C296.468 362.316 298.174 362.277 299.707 362.871L302.407 360.117C299.998 359.295 297.399 359.201 294.937 359.847C294.124 360.055 293.329 360.329 292.561 360.666L289.861 359.091L286.594 360.972L289.294 362.529C286.594 364.608 286.495 366.768 289.582 368.55C290.951 369.349 292.498 369.795 294.082 369.846C294.379 369.846 294.685 369.846 294.982 369.846C296.637 369.728 298.267 369.376 299.824 368.802C302.947 367.758 305.485 366.525 307.591 367.74C309.004 368.559 308.617 369.585 307.06 370.44C306.816 370.582 306.564 370.708 306.304 370.818C305.452 371.184 304.536 371.376 303.609 371.384C302.681 371.391 301.762 371.214 300.904 370.863L298.042 373.734C299.737 374.375 301.544 374.665 303.354 374.586C305.164 374.508 306.94 374.061 308.572 373.275L311.272 374.832L314.539 372.951L311.839 371.394C314.539 369.297 314.863 367.011 311.695 365.157H311.641C308.644 363.528 305.683 363.744 303.1 364.41Z" fill="#FFD029"/>
<g opacity="0.3">
<path d="M303.1 364.41C301.984 364.698 300.922 365.058 299.95 365.391C298.844 365.806 297.714 366.154 296.566 366.435C296.038 366.558 295.496 366.609 294.955 366.588C294.409 366.557 293.878 366.397 293.407 366.12C292.354 365.517 292.201 364.626 293.731 363.627L294.064 363.42C294.355 363.255 294.655 363.108 294.964 362.979C296.468 362.316 298.174 362.277 299.707 362.871L302.407 360.117C299.998 359.295 297.399 359.201 294.937 359.847C294.124 360.055 293.329 360.329 292.561 360.666L289.861 359.091L286.594 360.972L289.294 362.529C286.594 364.608 286.495 366.768 289.582 368.55C290.951 369.349 292.498 369.795 294.082 369.846C294.379 369.846 294.685 369.846 294.982 369.846C296.637 369.728 298.267 369.376 299.824 368.802C302.947 367.758 305.485 366.525 307.591 367.74C309.004 368.559 308.617 369.585 307.06 370.44C306.816 370.582 306.564 370.708 306.304 370.818C305.452 371.184 304.536 371.376 303.609 371.384C302.681 371.391 301.762 371.214 300.904 370.863L298.042 373.734C299.737 374.375 301.544 374.665 303.354 374.586C305.164 374.508 306.94 374.061 308.572 373.275L311.272 374.832L314.539 372.951L311.839 371.394C314.539 369.297 314.863 367.011 311.695 365.157H311.641C308.644 363.528 305.683 363.744 303.1 364.41Z" fill="white"/>
</g>
<path opacity="0.45" d="M286.513 360.981L289.798 359.487L292.498 360.675L289.771 359.1L286.513 360.981Z" fill="#F5F5F5"/>
<path opacity="0.45" d="M294.496 360C296.82 359.537 299.22 359.62 301.507 360.243L299.617 362.943L302.317 360.189C299.791 359.327 297.061 359.261 294.496 360Z" fill="#F5F5F5"/>
<path opacity="0.45" d="M311.506 365.184H311.56C314.728 367.038 314.413 369.324 311.704 371.421C314.107 368.802 313.675 366.975 311.065 365.463C308.593 364.21 305.772 363.827 303.055 364.374C305.683 363.744 308.644 363.528 311.506 365.184Z" fill="#F5F5F5"/>
<path opacity="0.45" d="M311.704 371.457L313.774 373.05L311.137 374.895L314.404 373.014L311.704 371.457Z" fill="#F5F5F5"/>
<path opacity="0.45" d="M306.196 370.881C304.588 371.695 302.729 371.859 301.003 371.34L297.907 373.797L300.769 370.926C301.631 371.281 302.555 371.46 303.487 371.452C304.419 371.444 305.34 371.25 306.196 370.881Z" fill="#F5F5F5"/>
<path opacity="0.45" d="M296.485 366.444C295.852 366.701 295.167 366.802 294.487 366.737C293.807 366.673 293.152 366.446 292.579 366.075C291.634 365.265 292.246 364.392 293.65 363.636C292.12 364.635 292.273 365.526 293.326 366.129C293.797 366.406 294.328 366.566 294.874 366.597C295.415 366.618 295.957 366.566 296.485 366.444Z" fill="#F5F5F5"/>
<path opacity="0.45" d="M289.186 362.565C288.952 362.763 286.99 364.599 287.854 366.426C288.718 368.253 291.652 369.63 293.974 369.882C292.39 369.831 290.843 369.385 289.474 368.586C286.387 366.804 286.441 364.644 289.186 362.565Z" fill="#F5F5F5"/>
<path d="M271.969 363.771L272.779 357.606L273.589 363.771L284.254 364.239L273.589 364.707L272.779 370.863L271.969 364.707L261.295 364.239L271.969 363.771Z" fill="white"/>
<g opacity="0.3">
<path d="M464.893 376.272C464.849 376.284 464.802 376.284 464.758 376.272L447.334 366.21C447.293 366.186 447.259 366.152 447.235 366.111C447.211 366.07 447.199 366.023 447.199 365.976C447.2 365.93 447.212 365.885 447.236 365.845C447.26 365.806 447.294 365.773 447.334 365.751L469.123 353.151C469.163 353.129 469.208 353.117 469.253 353.117C469.299 353.117 469.344 353.129 469.384 353.151L486.817 363.213C486.858 363.237 486.892 363.271 486.916 363.312C486.94 363.353 486.952 363.4 486.952 363.447C486.951 363.494 486.938 363.54 486.915 363.581C486.891 363.622 486.857 363.657 486.817 363.681L465.028 376.281C464.983 376.291 464.936 376.288 464.893 376.272ZM448 365.94L464.884 375.696L486.133 363.429L469.249 353.7L448 365.94Z" fill="#FF1F70"/>
</g>
<path d="M464.893 373.491V283.284L451.825 275.742V365.949L464.893 373.491Z" fill="#FF1F70"/>
<path opacity="0.2" d="M464.893 373.491V283.284L451.825 275.742V365.949L464.893 373.491Z" fill="black"/>
<path d="M464.893 373.491L482.326 363.429V273.231L464.893 283.284V373.491Z" fill="#FF1F70"/>
<path d="M482.326 273.231L469.258 265.68L451.825 275.742L464.893 283.284L482.326 273.231Z" fill="#FF1F70"/>
<path opacity="0.25" d="M482.326 273.231L469.258 265.68L451.825 275.742L464.893 283.284L482.326 273.231Z" fill="white"/>
<path opacity="0.3" d="M482.326 273.231L464.722 282.933L459.007 279.738L451.807 275.742L458.863 279.963L464.641 283.41C464.506 285.372 464.47 365.517 464.497 367.479C464.506 369.489 464.633 371.496 464.875 373.491C465.12 371.496 465.25 369.489 465.262 367.479C465.262 365.58 465.262 285.498 465.118 283.599L482.326 273.231Z" fill="white"/>
<g opacity="0.3">
<path d="M432.223 395.145C432.179 395.155 432.132 395.155 432.088 395.145L414.7 385.038C414.66 385.016 414.626 384.983 414.602 384.944C414.578 384.904 414.566 384.859 414.565 384.813C414.565 384.765 414.577 384.719 414.601 384.678C414.625 384.637 414.659 384.603 414.7 384.579L436.489 371.979C436.531 371.957 436.577 371.945 436.624 371.945C436.671 371.945 436.717 371.957 436.759 371.979L454.183 382.041C454.223 382.066 454.256 382.1 454.28 382.141C454.303 382.182 454.316 382.228 454.318 382.275C454.318 382.322 454.306 382.369 454.282 382.41C454.258 382.451 454.224 382.485 454.183 382.509L432.394 395.109C432.342 395.138 432.282 395.15 432.223 395.145ZM415.33 384.813L432.223 394.56L453.463 382.293L436.579 372.546L415.33 384.813Z" fill="#FF1F70"/>
</g>
<path d="M432.223 392.355L432.214 338.238L419.146 330.687V384.813L432.223 392.355Z" fill="#FF1F70"/>
<path opacity="0.1" d="M432.223 392.355L432.214 338.238L419.146 330.687V384.813L432.223 392.355Z" fill="white"/>
<path d="M432.223 392.355L449.647 382.293V328.176L432.214 338.238L432.223 392.355Z" fill="#FF1F70"/>
<path opacity="0.3" d="M432.223 392.355L449.647 382.293V328.176L432.214 338.238L432.223 392.355Z" fill="white"/>
<path d="M449.647 328.176L436.579 320.625L419.146 330.687L432.214 338.238L449.647 328.176Z" fill="#FF1F70"/>
<path opacity="0.55" d="M449.647 328.176L436.579 320.625L419.146 330.687L432.214 338.238L449.647 328.176Z" fill="white"/>
<path opacity="0.3" d="M432.448 338.562L449.647 328.176L432.043 337.887C430.144 336.807 428.236 335.754 426.328 334.692L419.128 330.687L426.184 334.908C428.11 336.072 430.039 337.224 431.971 338.364C431.908 340.398 431.845 350.217 431.827 352.251C431.809 354.285 431.827 377.82 431.827 379.899C431.827 381.978 431.827 384.048 431.944 386.127C432.061 388.206 432.079 390.285 432.214 392.355C432.34 390.285 432.427 388.209 432.475 386.127C432.547 384.048 432.583 381.978 432.592 379.899C432.601 377.82 432.592 354.321 432.592 352.251C432.592 350.181 432.511 340.524 432.448 338.562Z" fill="white"/>
<g opacity="0.3">
<path d="M399.544 414C399.499 414.008 399.454 414.008 399.409 414L381.976 403.938C381.937 403.913 381.904 403.879 381.882 403.838C381.86 403.797 381.849 403.75 381.85 403.704C381.848 403.657 381.859 403.611 381.881 403.57C381.903 403.529 381.936 403.494 381.976 403.47L403.765 390.87C403.805 390.843 403.852 390.829 403.9 390.829C403.948 390.829 403.995 390.843 404.035 390.87L421.459 400.932C421.499 400.954 421.533 400.987 421.557 401.026C421.581 401.066 421.593 401.111 421.594 401.157C421.594 401.204 421.582 401.251 421.558 401.292C421.534 401.333 421.5 401.367 421.459 401.391L399.679 413.991C399.635 414.002 399.589 414.005 399.544 414ZM382.651 403.668L399.544 413.424L420.793 401.148L403.9 391.41L382.651 403.668Z" fill="#FF1F70"/>
</g>
<path d="M399.544 411.219L399.535 392.202L386.467 384.66V403.677L399.544 411.219Z" fill="#FF1F70"/>
<path opacity="0.45" d="M399.544 411.219L399.535 392.202L386.467 384.66V403.677L399.544 411.219Z" fill="black"/>
<path d="M399.544 411.219L416.968 401.166V382.14L399.535 392.202L399.544 411.219Z" fill="#FF1F70"/>
<path opacity="0.3" d="M399.544 411.219L416.968 401.166V382.14L399.535 392.202L399.544 411.219Z" fill="black"/>
<path d="M416.968 382.14L403.9 374.598L386.467 384.66L399.535 392.202L416.968 382.14Z" fill="#FF1F70"/>
<path opacity="0.15" d="M416.968 382.14L403.9 374.598L386.467 384.66L399.535 392.202L416.968 382.14Z" fill="black"/>
<path opacity="0.3" d="M416.968 382.14L399.4 391.851L393.685 388.656L386.485 384.66L393.541 388.881L399.319 392.328C399.184 393.516 399.148 406.323 399.175 407.52C399.188 408.762 399.318 410.001 399.562 411.219C399.804 410 399.93 408.762 399.94 407.52C399.94 406.386 399.94 393.642 399.814 392.508L416.968 382.14Z" fill="white"/>
<g opacity="0.3">
<path d="M497.572 357.408C497.528 357.42 497.481 357.42 497.437 357.408L480.013 347.31C479.972 347.286 479.938 347.252 479.914 347.211C479.89 347.17 479.878 347.123 479.878 347.076C479.88 347.029 479.893 346.983 479.916 346.942C479.94 346.901 479.973 346.867 480.013 346.842L501.793 334.242C501.835 334.22 501.881 334.208 501.928 334.208C501.975 334.208 502.021 334.22 502.063 334.242L519.496 344.304C519.536 344.328 519.569 344.363 519.591 344.404C519.613 344.445 519.624 344.491 519.622 344.538C519.622 344.584 519.611 344.63 519.589 344.671C519.567 344.712 519.535 344.747 519.496 344.772L497.707 357.372C497.666 357.396 497.619 357.409 497.572 357.408ZM480.679 347.076L497.572 356.832L518.821 344.565L501.928 334.8L480.679 347.076Z" fill="#FF1F70"/>
</g>
<path d="M497.572 354.627V229.761L484.504 222.21V347.076L497.572 354.627Z" fill="#FF1F70"/>
<path opacity="0.3" d="M497.572 354.627V229.761L484.504 222.21V347.076L497.572 354.627Z" fill="white"/>
<path d="M497.572 354.627L514.996 344.565L515.005 219.699L497.572 229.761V354.627Z" fill="#FF1F70"/>
<path opacity="0.55" d="M497.572 354.627L514.996 344.565L515.005 219.699L497.572 229.761V354.627Z" fill="white"/>
<path d="M515.005 219.699L501.928 212.148L484.504 222.21L497.572 229.761L515.005 219.699Z" fill="#FF1F70"/>
<path opacity="0.75" d="M515.005 219.699L501.928 212.148L484.504 222.21L497.572 229.761L515.005 219.699Z" fill="white"/>
<path opacity="0.3" d="M497.806 230.085L515.005 219.699L497.392 229.401C495.49 228.333 493.585 227.271 491.677 226.215L484.477 222.21L491.524 226.431C493.45 227.592 495.376 228.744 497.32 229.887C497.257 232.191 497.194 261.108 497.176 263.421C497.158 265.734 497.176 338.193 497.176 340.542C497.176 342.891 497.221 345.231 497.293 347.58C497.365 349.929 497.428 352.278 497.563 354.627C497.698 352.278 497.779 349.929 497.833 347.58C497.887 345.231 497.932 342.891 497.95 340.542C497.968 338.193 497.95 265.761 497.95 263.421C497.95 261.081 497.86 232.326 497.806 230.085Z" fill="white"/>
<path opacity="0.5" d="M194.173 152.856L143.683 182.007L168.928 135.63L194.173 152.856Z" fill="#FF1F70"/>
<path opacity="0.3" d="M194.173 174.06L143.683 203.211L168.928 156.834L194.173 174.06Z" fill="#FF1F70"/>
<path opacity="0.15" d="M194.173 195.255L143.683 224.406L168.928 178.029L194.173 195.255Z" fill="#FF1F70"/>
<path d="M247.615 81.693V70.092L257.371 69.066C257.565 69.0392 257.762 69.0806 257.929 69.183L263.041 72.144C263.165 72.2107 263.271 72.3054 263.352 72.4206C263.432 72.5358 263.485 72.6683 263.505 72.8074C263.525 72.9465 263.512 73.0884 263.468 73.2217C263.423 73.355 263.348 73.476 263.248 73.575L252.7 84.663L247.615 81.693Z" fill="#00A7FF"/>
<path d="M217.015 107.865V72C217.029 71.715 217.111 71.4375 217.253 71.1902C217.395 70.943 217.595 70.7331 217.834 70.578L247.102 53.712C247.354 53.5839 247.633 53.5172 247.917 53.5172C248.2 53.5172 248.479 53.5839 248.731 53.712L253.285 56.412C253.523 56.5681 253.72 56.7784 253.861 57.0256C254.002 57.2728 254.082 57.5498 254.095 57.834V93.726C254.081 94.0109 253.999 94.2885 253.857 94.5357C253.715 94.783 253.515 94.9928 253.276 95.148L224.008 112.005C223.756 112.133 223.477 112.2 223.194 112.2C222.91 112.2 222.631 112.133 222.379 112.005L217.825 109.305C217.585 109.147 217.386 108.934 217.245 108.683C217.104 108.433 217.025 108.152 217.015 107.865Z" fill="#00A7FF"/>
<path opacity="0.15" d="M223.9 112.041C223.513 112.194 223.216 111.978 223.216 111.51V75.5999C223.226 75.3135 223.309 75.0344 223.459 74.7899L217.267 71.1899C217.127 71.4275 217.049 71.697 217.042 71.9729V107.865C217.055 108.149 217.135 108.426 217.276 108.673C217.417 108.92 217.614 109.131 217.852 109.287L222.406 111.987C222.637 112.102 222.889 112.167 223.147 112.176C223.405 112.186 223.662 112.14 223.9 112.041Z" fill="black"/>
<path d="M262.51 72L254.095 72.9V57.807C254.095 57.285 253.726 57.078 253.276 57.339L224.008 74.205C223.77 74.3593 223.571 74.5677 223.429 74.8133C223.287 75.0588 223.204 75.3346 223.189 75.618V111.51C223.189 112.032 223.558 112.239 224.008 111.978L253.276 95.121C253.515 94.9658 253.715 94.756 253.857 94.5088C253.999 94.2615 254.081 93.984 254.095 93.699V83.232L263.266 73.575C263.421 73.4469 263.529 73.2707 263.572 73.0744C263.615 72.8781 263.591 72.673 263.504 72.4918C263.417 72.3106 263.272 72.1637 263.092 72.0746C262.912 71.9855 262.707 71.9592 262.51 72Z" fill="#52C3FF"/>
<path opacity="0.35" d="M262.51 72L254.095 72.9V57.807C254.095 57.285 253.726 57.078 253.276 57.339L224.008 74.205C223.77 74.3593 223.571 74.5677 223.429 74.8133C223.287 75.0588 223.204 75.3346 223.189 75.618V111.51C223.189 112.032 223.558 112.239 224.008 111.978L253.276 95.121C253.515 94.9658 253.715 94.756 253.857 94.5088C253.999 94.2615 254.081 93.984 254.095 93.699V83.232L263.266 73.575C263.421 73.4469 263.529 73.2707 263.572 73.0744C263.615 72.8781 263.591 72.673 263.504 72.4918C263.417 72.3106 263.272 72.1637 263.092 72.0746C262.912 71.9855 262.707 71.9592 262.51 72Z" fill="#52C3FF"/>
<path d="M247.165 88.254C247.2 88.1905 247.218 88.1193 247.218 88.047C247.218 87.9747 247.2 87.9035 247.165 87.84L245.914 86.445C245.763 86.206 245.671 85.9347 245.644 85.6533C245.617 85.3718 245.657 85.0881 245.761 84.825C245.912 84.1827 246.269 83.6074 246.778 83.187L248.785 81.729C248.912 81.6212 248.995 81.4708 249.019 81.306C249.127 80.4522 249.181 79.5925 249.181 78.732C249.181 77.9256 249.13 77.12 249.028 76.32C249.028 76.185 248.911 76.122 248.794 76.167L246.796 77.013C246.7 77.0607 246.595 77.0865 246.489 77.0885C246.382 77.0906 246.276 77.0688 246.179 77.0249C246.081 76.981 245.995 76.9159 245.926 76.8345C245.857 76.753 245.806 76.6572 245.779 76.554C245.779 76.554 245.779 76.554 245.779 76.509C245.601 75.9104 245.658 75.2661 245.941 74.709L247.192 71.883C247.225 71.8174 247.243 71.745 247.243 71.6715C247.243 71.598 247.225 71.5256 247.192 71.46C246.551 70.5359 245.648 69.8245 244.6 69.417C244.501 69.417 244.375 69.417 244.285 69.597L242.701 72.18C242.575 72.4276 242.393 72.6426 242.169 72.8081C241.946 72.9736 241.688 73.0851 241.414 73.134C240.973 73.134 240.667 72.783 240.622 72.234L240.397 69.687C240.397 69.534 240.298 69.471 240.181 69.507C238.822 70.0003 237.558 70.725 236.446 71.649C236.324 71.7619 236.247 71.9155 236.23 72.081L235.996 74.889C235.926 75.5569 235.649 76.1862 235.204 76.689C234.763 77.175 234.304 77.382 233.917 77.211L232.27 76.5C232.171 76.5 232.045 76.5 231.946 76.671C230.897 78.2485 230.011 79.928 229.3 81.684C229.266 81.7493 229.248 81.8219 229.248 81.8955C229.248 81.9691 229.266 82.0417 229.3 82.107L230.551 83.493C230.7 83.7328 230.791 84.0044 230.816 84.2858C230.841 84.5672 230.8 84.8506 230.695 85.113C230.699 85.1307 230.699 85.1492 230.695 85.167C230.542 85.8014 230.189 86.3695 229.687 86.787L227.671 88.254C227.543 88.3599 227.462 88.5119 227.446 88.677C227.335 89.5336 227.278 90.3963 227.275 91.26C227.271 92.0579 227.325 92.855 227.437 93.645C227.437 93.789 227.545 93.852 227.662 93.798L229.669 92.961C229.766 92.9135 229.872 92.8883 229.98 92.8874C230.088 92.8864 230.194 92.9097 230.292 92.9555C230.39 93.0013 230.476 93.0684 230.544 93.1519C230.612 93.2354 230.661 93.3332 230.686 93.438C230.861 94.037 230.803 94.6799 230.524 95.238L229.3 98.1C229.267 98.1671 229.249 98.2411 229.249 98.316C229.249 98.3909 229.267 98.4649 229.3 98.532C229.96 99.4457 230.879 100.141 231.937 100.53C232.036 100.53 232.162 100.53 232.252 100.341L233.827 97.758C233.96 97.5194 234.147 97.3144 234.371 97.1584C234.596 97.0025 234.853 96.8997 235.123 96.858C235.564 96.858 235.861 97.191 235.915 97.758L236.14 100.305C236.14 100.449 236.239 100.53 236.356 100.485C237.005 100.247 237.629 99.9453 238.219 99.585C238.875 99.2048 239.501 98.7745 240.091 98.298C240.211 98.1836 240.288 98.0308 240.307 97.866L240.541 95.058C240.614 94.3925 240.887 93.7648 241.324 93.258C241.774 92.763 242.224 92.556 242.62 92.727L244.186 93.501C244.276 93.501 244.411 93.501 244.501 93.33C245.556 91.731 246.448 90.0305 247.165 88.254ZM238.228 92.349C235.177 94.095 232.702 92.214 232.711 88.146C232.72 84.078 235.195 79.326 238.246 77.58C241.297 75.834 243.772 77.724 243.763 81.792C243.754 85.86 241.27 90.594 238.228 92.349Z" fill="white"/>
<path d="M597.181 144.091V179H589.8V151.097H589.596L581.602 156.108V149.562L590.244 144.091H597.181ZM618.228 179.477C615.819 179.477 613.671 179.034 611.785 178.148C609.91 177.261 608.421 176.04 607.319 174.483C606.217 172.926 605.643 171.142 605.597 169.131H612.756C612.836 170.483 613.404 171.58 614.461 172.42C615.518 173.261 616.773 173.682 618.228 173.682C619.387 173.682 620.41 173.426 621.296 172.915C622.194 172.392 622.893 171.67 623.393 170.75C623.904 169.818 624.16 168.75 624.16 167.545C624.16 166.318 623.898 165.239 623.376 164.307C622.864 163.375 622.154 162.648 621.245 162.125C620.336 161.602 619.296 161.335 618.126 161.324C617.103 161.324 616.109 161.534 615.143 161.955C614.188 162.375 613.444 162.949 612.91 163.676L606.347 162.5L608.001 144.091H629.342V150.125H614.086L613.183 158.869H613.387C614.001 158.006 614.927 157.29 616.165 156.722C617.404 156.153 618.79 155.869 620.325 155.869C622.427 155.869 624.302 156.364 625.95 157.352C627.597 158.341 628.898 159.699 629.853 161.426C630.808 163.142 631.279 165.119 631.268 167.358C631.279 169.71 630.734 171.801 629.631 173.631C628.54 175.449 627.012 176.881 625.046 177.926C623.092 178.96 620.819 179.477 618.228 179.477ZM655.523 172.455V170.614C655.523 169.216 655.819 167.932 656.41 166.761C657.012 165.58 657.881 164.636 659.018 163.932C660.165 163.216 661.563 162.858 663.211 162.858C664.881 162.858 666.285 163.21 667.421 163.915C668.569 164.619 669.433 165.562 670.012 166.744C670.603 167.915 670.898 169.205 670.898 170.614V172.455C670.898 173.852 670.603 175.142 670.012 176.324C669.421 177.494 668.552 178.432 667.404 179.136C666.256 179.852 664.859 180.21 663.211 180.21C661.54 180.21 660.137 179.852 659.001 179.136C657.864 178.432 657.001 177.494 656.41 176.324C655.819 175.142 655.523 173.852 655.523 172.455ZM660.484 170.614V172.455C660.484 173.261 660.677 174.023 661.063 174.739C661.461 175.455 662.177 175.812 663.211 175.812C664.245 175.812 664.95 175.46 665.325 174.756C665.711 174.051 665.904 173.284 665.904 172.455V170.614C665.904 169.784 665.722 169.011 665.359 168.295C664.995 167.58 664.279 167.222 663.211 167.222C662.188 167.222 661.478 167.58 661.08 168.295C660.683 169.011 660.484 169.784 660.484 170.614ZM637.609 152.477V150.636C637.609 149.227 637.91 147.937 638.512 146.767C639.114 145.585 639.984 144.642 641.12 143.938C642.268 143.233 643.654 142.881 645.279 142.881C646.961 142.881 648.37 143.233 649.506 143.938C650.643 144.642 651.506 145.585 652.097 146.767C652.688 147.937 652.984 149.227 652.984 150.636V152.477C652.984 153.886 652.683 155.176 652.08 156.347C651.489 157.517 650.62 158.455 649.472 159.159C648.336 159.852 646.938 160.199 645.279 160.199C643.62 160.199 642.217 159.847 641.069 159.142C639.933 158.426 639.069 157.489 638.478 156.33C637.898 155.159 637.609 153.875 637.609 152.477ZM642.603 150.636V152.477C642.603 153.307 642.796 154.074 643.183 154.778C643.58 155.483 644.279 155.835 645.279 155.835C646.325 155.835 647.035 155.483 647.41 154.778C647.796 154.074 647.989 153.307 647.989 152.477V150.636C647.989 149.807 647.808 149.034 647.444 148.318C647.08 147.602 646.359 147.244 645.279 147.244C644.268 147.244 643.569 147.608 643.183 148.335C642.796 149.062 642.603 149.83 642.603 150.636ZM639.859 179L663.859 144.091H668.325L644.325 179H639.859Z" fill="#FF1F70"/>
<path d="M18.1264 204.091V239H10.7457V211.097H10.5412L2.54688 216.108V209.562L11.1889 204.091H18.1264ZM40.1108 239.767C37.179 239.756 34.6563 239.034 32.5426 237.602C30.4403 236.17 28.821 234.097 27.6847 231.381C26.5597 228.665 26.0028 225.398 26.0142 221.58C26.0142 217.773 26.5767 214.528 27.7017 211.847C28.8381 209.165 30.4574 207.125 32.5597 205.727C34.6733 204.318 37.1903 203.614 40.1108 203.614C43.0313 203.614 45.5426 204.318 47.6449 205.727C49.7585 207.136 51.3835 209.182 52.5199 211.864C53.6563 214.534 54.2188 217.773 54.2074 221.58C54.2074 225.409 53.6392 228.682 52.5028 231.398C51.3778 234.114 49.7642 236.187 47.6619 237.619C45.5597 239.051 43.0426 239.767 40.1108 239.767ZM40.1108 233.648C42.1108 233.648 43.7074 232.642 44.9006 230.631C46.0938 228.619 46.6847 225.602 46.6733 221.58C46.6733 218.932 46.4006 216.727 45.8551 214.966C45.321 213.205 44.5597 211.881 43.571 210.994C42.5938 210.108 41.4403 209.665 40.1108 209.665C38.1222 209.665 36.5313 210.659 35.3381 212.648C34.1449 214.636 33.5426 217.614 33.5312 221.58C33.5312 224.261 33.7983 226.5 34.3324 228.295C34.8778 230.08 35.6449 231.42 36.6335 232.318C37.6222 233.205 38.7812 233.648 40.1108 233.648ZM78.5781 232.455V230.614C78.5781 229.216 78.8736 227.932 79.4645 226.761C80.0668 225.58 80.9361 224.636 82.0724 223.932C83.2202 223.216 84.6179 222.858 86.2656 222.858C87.9361 222.858 89.3395 223.21 90.4759 223.915C91.6236 224.619 92.4872 225.562 93.0668 226.744C93.6577 227.915 93.9531 229.205 93.9531 230.614V232.455C93.9531 233.852 93.6577 235.142 93.0668 236.324C92.4759 237.494 91.6065 238.432 90.4588 239.136C89.3111 239.852 87.9134 240.21 86.2656 240.21C84.5952 240.21 83.1918 239.852 82.0554 239.136C80.919 238.432 80.0554 237.494 79.4645 236.324C78.8736 235.142 78.5781 233.852 78.5781 232.455ZM83.5384 230.614V232.455C83.5384 233.261 83.7315 234.023 84.1179 234.739C84.5156 235.455 85.2315 235.812 86.2656 235.812C87.2997 235.812 88.0043 235.46 88.3793 234.756C88.7656 234.051 88.9588 233.284 88.9588 232.455V230.614C88.9588 229.784 88.777 229.011 88.4134 228.295C88.0497 227.58 87.3338 227.222 86.2656 227.222C85.2429 227.222 84.5327 227.58 84.1349 228.295C83.7372 229.011 83.5384 229.784 83.5384 230.614ZM60.6634 212.477V210.636C60.6634 209.227 60.9645 207.937 61.5668 206.767C62.169 205.585 63.0384 204.642 64.1747 203.938C65.3224 203.233 66.7088 202.881 68.3338 202.881C70.0156 202.881 71.4247 203.233 72.5611 203.938C73.6974 204.642 74.5611 205.585 75.152 206.767C75.7429 207.937 76.0384 209.227 76.0384 210.636V212.477C76.0384 213.886 75.7372 215.176 75.1349 216.347C74.544 217.517 73.6747 218.455 72.527 219.159C71.3906 219.852 69.9929 220.199 68.3338 220.199C66.6747 220.199 65.2713 219.847 64.1236 219.142C62.9872 218.426 62.1236 217.489 61.5327 216.33C60.9531 215.159 60.6634 213.875 60.6634 212.477ZM65.6577 210.636V212.477C65.6577 213.307 65.8509 214.074 66.2372 214.778C66.6349 215.483 67.3338 215.835 68.3338 215.835C69.3793 215.835 70.0895 215.483 70.4645 214.778C70.8509 214.074 71.044 213.307 71.044 212.477V210.636C71.044 209.807 70.8622 209.034 70.4986 208.318C70.1349 207.602 69.4134 207.244 68.3338 207.244C67.3224 207.244 66.6236 207.608 66.2372 208.335C65.8509 209.062 65.6577 209.83 65.6577 210.636ZM62.9134 239L86.9134 204.091H91.3793L67.3793 239H62.9134Z" fill="#FF1F70"/>
<path d="M433.986 485.477C431.577 485.477 429.429 485.034 427.543 484.148C425.668 483.261 424.179 482.04 423.077 480.483C421.974 478.926 421.401 477.142 421.355 475.131H428.514C428.594 476.483 429.162 477.58 430.219 478.42C431.276 479.261 432.531 479.682 433.986 479.682C435.145 479.682 436.168 479.426 437.054 478.915C437.952 478.392 438.651 477.67 439.151 476.75C439.662 475.818 439.918 474.75 439.918 473.545C439.918 472.318 439.656 471.239 439.134 470.307C438.622 469.375 437.912 468.648 437.003 468.125C436.094 467.602 435.054 467.335 433.884 467.324C432.861 467.324 431.866 467.534 430.901 467.955C429.946 468.375 429.202 468.949 428.668 469.676L422.105 468.5L423.759 450.091H445.099V456.125H429.844L428.94 464.869H429.145C429.759 464.006 430.685 463.29 431.923 462.722C433.162 462.153 434.548 461.869 436.082 461.869C438.185 461.869 440.06 462.364 441.707 463.352C443.355 464.341 444.656 465.699 445.611 467.426C446.565 469.142 447.037 471.119 447.026 473.358C447.037 475.71 446.491 477.801 445.389 479.631C444.298 481.449 442.77 482.881 440.804 483.926C438.849 484.96 436.577 485.477 433.986 485.477ZM471.281 478.455V476.614C471.281 475.216 471.577 473.932 472.168 472.761C472.77 471.58 473.639 470.636 474.776 469.932C475.923 469.216 477.321 468.858 478.969 468.858C480.639 468.858 482.043 469.21 483.179 469.915C484.327 470.619 485.19 471.562 485.77 472.744C486.361 473.915 486.656 475.205 486.656 476.614V478.455C486.656 479.852 486.361 481.142 485.77 482.324C485.179 483.494 484.31 484.432 483.162 485.136C482.014 485.852 480.616 486.21 478.969 486.21C477.298 486.21 475.895 485.852 474.759 485.136C473.622 484.432 472.759 483.494 472.168 482.324C471.577 481.142 471.281 479.852 471.281 478.455ZM476.241 476.614V478.455C476.241 479.261 476.435 480.023 476.821 480.739C477.219 481.455 477.935 481.812 478.969 481.812C480.003 481.812 480.707 481.46 481.082 480.756C481.469 480.051 481.662 479.284 481.662 478.455V476.614C481.662 475.784 481.48 475.011 481.116 474.295C480.753 473.58 480.037 473.222 478.969 473.222C477.946 473.222 477.236 473.58 476.838 474.295C476.44 475.011 476.241 475.784 476.241 476.614ZM453.366 458.477V456.636C453.366 455.227 453.668 453.937 454.27 452.767C454.872 451.585 455.741 450.642 456.878 449.938C458.026 449.233 459.412 448.881 461.037 448.881C462.719 448.881 464.128 449.233 465.264 449.938C466.401 450.642 467.264 451.585 467.855 452.767C468.446 453.937 468.741 455.227 468.741 456.636V458.477C468.741 459.886 468.44 461.176 467.838 462.347C467.247 463.517 466.378 464.455 465.23 465.159C464.094 465.852 462.696 466.199 461.037 466.199C459.378 466.199 457.974 465.847 456.827 465.142C455.69 464.426 454.827 463.489 454.236 462.33C453.656 461.159 453.366 459.875 453.366 458.477ZM458.361 456.636V458.477C458.361 459.307 458.554 460.074 458.94 460.778C459.338 461.483 460.037 461.835 461.037 461.835C462.082 461.835 462.793 461.483 463.168 460.778C463.554 460.074 463.747 459.307 463.747 458.477V456.636C463.747 455.807 463.565 455.034 463.202 454.318C462.838 453.602 462.116 453.244 461.037 453.244C460.026 453.244 459.327 453.608 458.94 454.335C458.554 455.062 458.361 455.83 458.361 456.636ZM455.616 485L479.616 450.091H484.082L460.082 485H455.616Z" fill="#FF1F70"/>
</svg>
