<?xml version="1.0" encoding="utf-8"?>
<!-- Generator: Adobe Illustrator 27.5.0, SVG Export Plug-In . SVG Version: 6.00 Build 0)  -->
<svg version="1.1" xmlns="http://www.w3.org/2000/svg" xmlns:xlink="http://www.w3.org/1999/xlink" x="0px" y="0px"
	 viewBox="0 0 500 500" style="enable-background:new 0 0 500 500;" xml:space="preserve">
<g id="OBJECTS">
	<linearGradient id="SVGID_1_" gradientUnits="userSpaceOnUse" x1="312.8208" y1="2.5268" x2="210.299" y2="353.9182">
		<stop  offset="0" style="stop-color:#F5F0FF"/>
		<stop  offset="0.9959" style="stop-color:#D2C1F7"/>
	</linearGradient>
	<path style="fill:url(#SVGID_1_);" d="M171.095,96.069c-14.45-1.382-29.415,4.651-38.865,15.669
		c-6.88,8.022-10.788,18.211-17.405,26.452c-12.557,15.639-33.507,22.712-46.025,38.383c-12.912,16.164-14.466,39.633-6.745,58.826
		c7.721,19.193,23.628,34.289,41.744,44.277c6.352,3.502,13.163,6.562,18.128,11.85c7.902,8.417,9.652,20.996,8.503,32.484
		c-1.148,11.488-4.764,22.614-6.037,34.089c-0.903,8.138-0.399,17.035,4.646,23.483c4.638,5.928,12.239,8.667,19.599,10.245
		c22.035,4.723,45.711,1.36,65.559-9.312c16.055-8.633,29.513-21.756,46.162-29.178c19.977-8.905,42.811-8.812,64.499-5.981
		c13.281,1.734,26.509,4.437,39.902,4.384c13.394-0.053,27.302-3.164,37.583-11.747c9.861-8.232,15.359-20.584,18.767-32.969
		c8.334-30.283,5.785-63.441-7.081-92.093c-3.981-8.866-9.027-17.447-16.247-23.952c-7.47-6.73-16.847-10.885-26.052-14.931
		c-28.66-12.596-60.417-32.577-91.949-35.646c-9.316-0.907-18.772,0.501-27.941-1.77c-14.08-3.486-26.106-12.875-37.55-21.314
		C201.378,107.796,187.592,97.647,171.095,96.069z"/>
	<g>
		<path style="fill:#50448C;" d="M327.482,331.304c-0.748,0-1.495-0.006-2.242-0.018c-0.276-0.005-0.496-0.231-0.492-0.508
			c0.004-0.276,0.24-0.496,0.508-0.492c1.326,0.021,2.653,0.021,3.985,0.007c0.237-0.019,0.503,0.218,0.506,0.494
			c0.003,0.276-0.218,0.503-0.494,0.506C328.662,331.3,328.071,331.304,327.482,331.304z M335.244,331.097
			c-0.265,0-0.485-0.207-0.499-0.474c-0.015-0.275,0.196-0.511,0.473-0.525c1.327-0.071,2.653-0.16,3.978-0.266
			c0.273-0.016,0.517,0.183,0.538,0.458c0.022,0.275-0.183,0.517-0.458,0.538c-1.334,0.108-2.668,0.196-4.005,0.268
			C335.261,331.097,335.253,331.097,335.244,331.097z M319.252,331.07c-0.009,0-0.019,0-0.028-0.001
			c-1.336-0.076-2.671-0.171-4.003-0.284c-0.275-0.023-0.479-0.265-0.456-0.54c0.023-0.275,0.272-0.474,0.54-0.456
			c1.324,0.111,2.65,0.206,3.976,0.282c0.276,0.016,0.486,0.252,0.471,0.527C319.736,330.865,319.515,331.07,319.252,331.07z
			 M345.202,330.229c-0.249,0-0.465-0.186-0.495-0.44c-0.033-0.273,0.162-0.522,0.436-0.556c1.319-0.16,2.636-0.338,3.951-0.533
			c0.27-0.041,0.527,0.147,0.567,0.421c0.041,0.273-0.148,0.527-0.421,0.567c-1.323,0.197-2.649,0.377-3.979,0.537
			C345.243,330.228,345.222,330.229,345.202,330.229z M309.297,330.151c-0.021,0-0.043-0.001-0.064-0.004
			c-1.327-0.17-2.652-0.358-3.974-0.566c-0.272-0.043-0.459-0.299-0.416-0.572c0.043-0.273,0.304-0.456,0.572-0.416
			c1.312,0.206,2.627,0.395,3.944,0.563c0.273,0.035,0.468,0.285,0.433,0.56C309.76,329.966,309.545,330.151,309.297,330.151z
			 M355.082,328.692c-0.235,0-0.444-0.167-0.49-0.406c-0.052-0.271,0.127-0.533,0.397-0.585c1.307-0.248,2.608-0.514,3.907-0.797
			c0.275-0.06,0.536,0.111,0.595,0.382c0.059,0.27-0.112,0.536-0.382,0.595c-1.307,0.285-2.618,0.553-3.933,0.803
			C355.144,328.689,355.113,328.692,355.082,328.692z M364.837,326.495c-0.223,0-0.425-0.148-0.483-0.374
			c-0.07-0.267,0.09-0.54,0.357-0.609c1.285-0.336,2.567-0.689,3.843-1.059c0.269-0.078,0.543,0.075,0.62,0.341
			c0.076,0.266-0.076,0.543-0.341,0.62c-1.285,0.372-2.575,0.727-3.87,1.065C364.921,326.49,364.879,326.495,364.837,326.495z
			 M374.421,323.649c-0.209,0-0.404-0.132-0.475-0.342c-0.087-0.262,0.054-0.545,0.316-0.633c1.26-0.421,2.515-0.859,3.764-1.313
			c0.261-0.094,0.546,0.039,0.641,0.299c0.095,0.26-0.039,0.546-0.299,0.641c-1.257,0.458-2.519,0.898-3.789,1.323
			C374.527,323.641,374.474,323.649,374.421,323.649z M383.791,320.161c-0.196,0-0.383-0.117-0.463-0.31
			c-0.104-0.256,0.018-0.548,0.272-0.653c1.229-0.505,2.452-1.027,3.666-1.566c0.252-0.11,0.548,0,0.66,0.254
			c0.112,0.253-0.002,0.548-0.254,0.66c-1.224,0.543-2.454,1.069-3.691,1.578C383.919,320.15,383.854,320.161,383.791,320.161z
			 M392.901,316.042c-0.184,0-0.361-0.103-0.448-0.278c-0.122-0.248-0.021-0.548,0.227-0.67c1.191-0.588,2.375-1.193,3.549-1.815
			c0.245-0.127,0.547-0.036,0.676,0.208c0.13,0.244,0.036,0.547-0.207,0.676c-1.184,0.627-2.375,1.236-3.574,1.828
			C393.051,316.026,392.975,316.042,392.901,316.042z M401.705,311.303c-0.172,0-0.339-0.089-0.432-0.248
			c-0.14-0.238-0.059-0.545,0.18-0.684c1.147-0.67,2.284-1.356,3.412-2.06c0.235-0.143,0.544-0.074,0.689,0.16
			c0.146,0.234,0.074,0.543-0.16,0.689c-1.136,0.707-2.282,1.4-3.438,2.073C401.878,311.282,401.791,311.303,401.705,311.303z
			 M410.153,305.955c-0.159,0-0.316-0.076-0.413-0.218c-0.155-0.229-0.097-0.539,0.131-0.695c1.094-0.748,2.18-1.514,3.251-2.3
			c0.221-0.164,0.535-0.116,0.699,0.107c0.163,0.223,0.115,0.536-0.107,0.699c-1.081,0.792-2.175,1.565-3.278,2.319
			C410.349,305.927,410.251,305.955,410.153,305.955z M418.147,299.954c-0.143,0-0.285-0.061-0.384-0.18
			c-0.177-0.212-0.148-0.526,0.064-0.704c1.038-0.868,2.042-1.751,2.983-2.624c0.201-0.189,0.518-0.178,0.706,0.026
			c0.188,0.202,0.177,0.518-0.026,0.706c-0.953,0.885-1.971,1.779-3.023,2.659C418.375,299.916,418.26,299.954,418.147,299.954z
			 M425.355,293.036c-0.118,0-0.237-0.042-0.332-0.126c-0.207-0.184-0.225-0.5-0.042-0.706c0.593-0.666,1.171-1.346,1.732-2.041
			c0.27-0.334,0.536-0.671,0.797-1.011c0.169-0.219,0.483-0.259,0.701-0.092c0.219,0.169,0.26,0.482,0.092,0.701
			c-0.267,0.346-0.537,0.689-0.812,1.029c-0.572,0.708-1.16,1.399-1.763,2.077C425.629,292.98,425.493,293.036,425.355,293.036z
			 M431.301,285.02c-0.09,0-0.18-0.023-0.262-0.073c-0.235-0.145-0.309-0.452-0.165-0.689c0.679-1.105,1.336-2.266,1.955-3.448
			c0.13-0.244,0.434-0.336,0.676-0.211c0.244,0.129,0.339,0.431,0.211,0.676c-0.63,1.201-1.299,2.381-1.988,3.507
			C431.633,284.935,431.469,285.02,431.301,285.02z M435.801,276.106c-0.064,0-0.128-0.012-0.19-0.037
			c-0.255-0.105-0.377-0.397-0.272-0.653c0.493-1.198,0.966-2.448,1.404-3.714c0.091-0.26,0.375-0.398,0.637-0.309
			c0.261,0.091,0.399,0.376,0.309,0.637c-0.445,1.283-0.924,2.55-1.424,3.767C436.184,275.99,435.998,276.106,435.801,276.106z
			 M438.961,266.623c-0.042,0-0.085-0.005-0.128-0.017c-0.267-0.07-0.426-0.345-0.356-0.611c0.332-1.255,0.645-2.557,0.929-3.866
			c0.059-0.27,0.329-0.439,0.594-0.383c0.271,0.059,0.442,0.324,0.383,0.594c-0.287,1.325-0.603,2.642-0.938,3.911
			C439.384,266.475,439.182,266.623,438.961,266.623z M440.991,256.833c-0.026,0-0.052-0.002-0.078-0.006
			c-0.272-0.043-0.459-0.298-0.417-0.571c0.202-1.293,0.386-2.621,0.547-3.946c0.033-0.273,0.289-0.469,0.557-0.436
			c0.273,0.033,0.469,0.282,0.436,0.557c-0.162,1.336-0.348,2.675-0.551,3.979C441.446,256.658,441.233,256.833,440.991,256.833z
			 M442.127,246.897c-0.014,0-0.026,0-0.039-0.001c-0.275-0.021-0.481-0.261-0.46-0.537c0.101-1.325,0.184-2.652,0.253-3.98
			c0.014-0.275,0.219-0.487,0.524-0.474c0.276,0.014,0.488,0.25,0.474,0.525c-0.068,1.336-0.152,2.672-0.254,4.005
			C442.604,246.698,442.385,246.897,442.127,246.897z M350.839,238.274c-0.258,0-0.477-0.199-0.497-0.46
			c-0.022-0.275,0.184-0.516,0.458-0.538c1.231-0.098,2.505-0.286,3.893-0.575c0.265-0.058,0.535,0.117,0.591,0.387
			c0.057,0.27-0.117,0.535-0.388,0.591c-1.429,0.298-2.743,0.492-4.017,0.594C350.866,238.274,350.852,238.274,350.839,238.274z
			 M344.873,237.93c-0.035,0-0.072-0.004-0.108-0.012c-0.205-0.045-0.41-0.095-0.615-0.148c-1.123-0.293-2.219-0.713-3.257-1.249
			c-0.245-0.126-0.342-0.428-0.215-0.673c0.127-0.246,0.429-0.342,0.674-0.215c0.973,0.502,1.999,0.896,3.05,1.17
			c0.193,0.05,0.387,0.097,0.58,0.14c0.27,0.06,0.439,0.327,0.38,0.597C345.309,237.771,345.102,237.93,344.873,237.93z
			 M442.587,236.908c-0.003,0-0.006,0-0.01,0c-0.275-0.005-0.495-0.233-0.49-0.509c0.025-1.333,0.038-2.664,0.039-3.991
			c0-0.276,0.224-0.5,0.5-0.5l0,0c0.276,0,0.5,0.224,0.5,0.501c-0.001,1.333-0.014,2.67-0.039,4.009
			C443.082,236.69,442.858,236.908,442.587,236.908z M360.58,236.111c-0.21,0-0.405-0.133-0.475-0.343
			c-0.087-0.262,0.056-0.545,0.317-0.632c1.206-0.399,2.461-0.857,3.73-1.36c0.256-0.102,0.547,0.024,0.649,0.28
			c0.102,0.257-0.023,0.547-0.28,0.649c-1.287,0.511-2.56,0.975-3.784,1.38C360.684,236.103,360.632,236.111,360.58,236.111z
			 M336.4,232.929c-0.135,0-0.27-0.055-0.368-0.162c-0.902-0.984-1.726-2.087-2.446-3.279c-0.143-0.236-0.067-0.544,0.169-0.686
			c0.236-0.142,0.544-0.067,0.687,0.169c0.686,1.135,1.47,2.185,2.327,3.121c0.186,0.204,0.173,0.52-0.03,0.707
			C336.642,232.886,336.521,232.929,336.4,232.929z M369.836,232.342c-0.188,0-0.367-0.106-0.452-0.287
			c-0.118-0.249-0.011-0.548,0.238-0.665c1.201-0.567,2.395-1.153,3.581-1.752c0.245-0.126,0.547-0.026,0.672,0.221
			c0.124,0.247,0.025,0.547-0.221,0.671c-1.194,0.602-2.396,1.193-3.604,1.764C369.98,232.327,369.908,232.342,369.836,232.342z
			 M378.755,227.823c-0.179,0-0.352-0.097-0.442-0.266c-0.129-0.244-0.035-0.547,0.209-0.676c1.175-0.621,2.35-1.25,3.521-1.887
			c0.242-0.13,0.546-0.043,0.679,0.201c0.132,0.243,0.042,0.546-0.2,0.678c-1.175,0.639-2.353,1.269-3.532,1.892
			C378.915,227.804,378.835,227.823,378.755,227.823z M442.562,226.908c-0.271,0-0.494-0.217-0.5-0.49
			c-0.026-1.329-0.061-2.66-0.108-3.991c-0.01-0.276,0.206-0.508,0.482-0.517c0.273-0.021,0.508,0.206,0.518,0.482
			c0.047,1.336,0.082,2.672,0.108,4.006c0.005,0.276-0.214,0.504-0.49,0.51C442.569,226.908,442.565,226.908,442.562,226.908z
			 M331.621,224.245c-0.217,0-0.416-0.142-0.48-0.36c-0.38-1.303-0.653-2.648-0.814-3.997c-0.033-0.274,0.163-0.523,0.438-0.556
			c0.269-0.035,0.523,0.164,0.555,0.438c0.154,1.295,0.417,2.585,0.782,3.835c0.077,0.265-0.075,0.543-0.341,0.62
			C331.714,224.239,331.667,224.245,331.621,224.245z M387.52,223.007c-0.173,0-0.341-0.09-0.434-0.251
			c-0.138-0.24-0.055-0.545,0.185-0.683c1.153-0.663,2.3-1.338,3.439-2.024c0.232-0.142,0.543-0.067,0.686,0.17
			c0.142,0.236,0.067,0.544-0.17,0.687c-1.145,0.69-2.297,1.368-3.456,2.035C387.691,222.985,387.605,223.007,387.52,223.007z
			 M396.048,217.786c-0.162,0-0.322-0.08-0.418-0.226c-0.151-0.231-0.087-0.541,0.144-0.692c1.113-0.729,2.214-1.473,3.3-2.233
			c0.227-0.157,0.538-0.104,0.697,0.123c0.158,0.226,0.103,0.538-0.123,0.696c-1.096,0.766-2.204,1.516-3.325,2.251
			C396.238,217.76,396.143,217.786,396.048,217.786z M442.148,216.918c-0.261,0-0.48-0.202-0.499-0.465
			c-0.092-1.326-0.203-2.65-0.336-3.97c-0.028-0.275,0.172-0.52,0.447-0.548c0.253-0.023,0.52,0.172,0.547,0.447
			c0.135,1.331,0.246,2.665,0.34,4.001c0.019,0.275-0.189,0.514-0.464,0.534C442.171,216.917,442.159,216.918,442.148,216.918z
			 M330.889,214.346c-0.024,0-0.048-0.001-0.072-0.005c-0.273-0.039-0.463-0.293-0.424-0.566c0.191-1.325,0.481-2.662,0.861-3.973
			c0.077-0.265,0.35-0.421,0.62-0.341c0.265,0.077,0.418,0.354,0.341,0.619c-0.368,1.267-0.647,2.558-0.832,3.837
			C331.347,214.166,331.133,214.346,330.889,214.346z M404.187,211.982c-0.148,0-0.296-0.066-0.395-0.192
			c-0.17-0.218-0.131-0.532,0.087-0.702c1.054-0.822,2.094-1.666,3.089-2.508c0.211-0.177,0.527-0.152,0.705,0.059
			c0.178,0.211,0.152,0.526-0.059,0.705c-1.006,0.851-2.056,1.704-3.12,2.534C404.403,211.948,404.295,211.982,404.187,211.982z
			 M441.04,206.983c-0.241,0-0.453-0.175-0.493-0.421c-0.212-1.325-0.455-2.641-0.722-3.909c-0.057-0.271,0.116-0.536,0.387-0.592
			c0.266-0.055,0.534,0.116,0.592,0.386c0.271,1.284,0.517,2.615,0.731,3.956c0.043,0.273-0.143,0.529-0.415,0.573
			C441.093,206.981,441.066,206.983,441.04,206.983z M411.739,205.436c-0.131,0-0.261-0.051-0.359-0.152
			c-0.191-0.198-0.186-0.515,0.012-0.707c0.961-0.933,1.897-1.887,2.782-2.837c0.189-0.202,0.505-0.212,0.707-0.025
			c0.202,0.188,0.213,0.504,0.025,0.707c-0.897,0.962-1.846,1.929-2.819,2.873C411.99,205.389,411.864,205.436,411.739,205.436z
			 M333.933,204.868c-0.075,0-0.151-0.017-0.224-0.053c-0.247-0.124-0.347-0.424-0.224-0.671c0.585-1.17,1.256-2.355,1.994-3.522
			c0.149-0.233,0.459-0.302,0.69-0.155c0.233,0.148,0.303,0.456,0.155,0.689c-0.721,1.14-1.375,2.295-1.945,3.436
			C334.293,204.767,334.116,204.868,333.933,204.868z M418.449,198.033c-0.108,0-0.217-0.035-0.309-0.106
			c-0.217-0.17-0.255-0.485-0.085-0.702l0.401-0.514c0.667-0.859,1.325-1.761,1.955-2.679c0.156-0.229,0.467-0.286,0.695-0.129
			c0.228,0.156,0.285,0.467,0.129,0.695c-0.641,0.935-1.311,1.852-1.989,2.727l-0.404,0.518
			C418.744,197.967,418.597,198.033,418.449,198.033z M438.84,197.236c-0.215,0-0.414-0.14-0.478-0.357
			c-0.206-0.685-0.423-1.367-0.652-2.046c-0.193-0.574-0.397-1.145-0.609-1.714c-0.098-0.259,0.034-0.547,0.292-0.644
			c0.262-0.097,0.547,0.034,0.644,0.293c0.217,0.579,0.424,1.161,0.621,1.744c0.233,0.69,0.454,1.383,0.662,2.079
			c0.08,0.265-0.07,0.543-0.335,0.623C438.936,197.229,438.887,197.236,438.84,197.236z M339.422,196.534
			c-0.111,0-0.224-0.037-0.316-0.113c-0.214-0.175-0.245-0.49-0.07-0.704c0.823-1.006,1.717-2.027,2.656-3.034
			c0.188-0.202,0.506-0.213,0.706-0.025c0.202,0.189,0.213,0.505,0.024,0.707c-0.924,0.991-1.804,1.995-2.613,2.984
			C339.711,196.471,339.567,196.534,339.422,196.534z M423.962,189.702c-0.081,0-0.163-0.02-0.239-0.061
			c-0.243-0.132-0.332-0.436-0.199-0.679c0.63-1.155,1.23-2.347,1.781-3.543c0.115-0.252,0.416-0.36,0.663-0.245
			c0.251,0.116,0.36,0.413,0.245,0.664c-0.561,1.216-1.171,2.429-1.813,3.603C424.31,189.607,424.139,189.702,423.962,189.702z
			 M346.326,189.31c-0.135,0-0.269-0.055-0.368-0.162c-0.187-0.203-0.174-0.52,0.03-0.706c0.983-0.903,1.999-1.797,3.018-2.657
			c0.21-0.178,0.527-0.152,0.704,0.059c0.179,0.211,0.151,0.527-0.06,0.705c-1.008,0.852-2.013,1.736-2.986,2.629
			C346.568,189.266,346.447,189.31,346.326,189.31z M435.161,187.951c-0.182,0-0.357-0.1-0.446-0.274
			c-0.601-1.186-1.249-2.35-1.926-3.46c-0.143-0.236-0.069-0.543,0.166-0.687c0.236-0.145,0.544-0.07,0.688,0.167
			c0.691,1.132,1.352,2.32,1.965,3.529c0.125,0.246,0.026,0.547-0.22,0.672C435.314,187.934,435.237,187.951,435.161,187.951z
			 M354.03,182.942c-0.152,0-0.304-0.07-0.401-0.202c-0.165-0.222-0.118-0.535,0.103-0.7c1.065-0.792,2.168-1.576,3.275-2.33
			c0.227-0.154,0.539-0.097,0.694,0.131c0.155,0.229,0.097,0.54-0.132,0.695c-1.096,0.747-2.187,1.523-3.242,2.307
			C354.239,182.91,354.133,182.942,354.03,182.942z M427.983,180.559c-0.053,0-0.107-0.008-0.16-0.026
			c-0.262-0.089-0.402-0.372-0.313-0.634c0.226-0.664,0.438-1.336,0.638-2.009c-0.452-0.512-0.913-1.009-1.38-1.487
			c-0.192-0.198-0.188-0.514,0.01-0.707c0.197-0.192,0.514-0.189,0.707,0.009c0.332,0.341,0.661,0.691,0.986,1.048
			c0.059-0.217,0.116-0.433,0.172-0.649c0.069-0.267,0.339-0.432,0.609-0.359c0.268,0.069,0.429,0.342,0.359,0.609
			c-0.111,0.43-0.229,0.861-0.352,1.292c0.308,0.357,0.609,0.72,0.906,1.089c0.173,0.215,0.139,0.53-0.076,0.703
			c-0.216,0.172-0.53,0.139-0.703-0.076c-0.154-0.191-0.31-0.382-0.467-0.57c-0.148,0.479-0.303,0.956-0.463,1.43
			C428.386,180.428,428.191,180.559,427.983,180.559z M362.35,177.401c-0.17,0-0.336-0.087-0.43-0.245
			c-0.142-0.237-0.063-0.544,0.174-0.685c1.145-0.68,2.321-1.347,3.498-1.982c0.239-0.131,0.546-0.041,0.678,0.202
			c0.131,0.243,0.04,0.546-0.203,0.678c-1.165,0.629-2.329,1.289-3.461,1.961C362.526,177.379,362.437,177.401,362.35,177.401z
			 M371.195,172.745c-0.189,0-0.369-0.107-0.454-0.29c-0.115-0.251-0.007-0.548,0.244-0.664c1.211-0.56,2.45-1.102,3.685-1.611
			c0.256-0.104,0.548,0.016,0.652,0.272c0.105,0.255-0.016,0.547-0.272,0.653c-1.221,0.503-2.447,1.04-3.646,1.594
			C371.337,172.731,371.265,172.745,371.195,172.745z M422.617,172.602c-0.104,0-0.208-0.032-0.298-0.099
			c-1.061-0.787-2.168-1.515-3.292-2.162c-0.24-0.138-0.322-0.443-0.185-0.683c0.138-0.241,0.444-0.322,0.683-0.184
			c1.158,0.667,2.299,1.415,3.39,2.226c0.222,0.165,0.268,0.477,0.103,0.699C422.921,172.532,422.769,172.602,422.617,172.602z
			 M430.287,170.844c-0.022,0-0.045-0.001-0.068-0.004c-0.273-0.037-0.465-0.289-0.428-0.563c0.178-1.315,0.301-2.64,0.365-3.938
			c0.013-0.275,0.257-0.491,0.523-0.475c0.276,0.014,0.488,0.249,0.475,0.524c-0.065,1.327-0.19,2.68-0.373,4.024
			C430.748,170.662,430.533,170.844,430.287,170.844z M304.728,170.338c-0.106,0-0.213-0.034-0.304-0.103
			c-0.22-0.167-0.262-0.481-0.094-0.701c0.793-1.038,1.656-2.085,2.565-3.114c0.184-0.208,0.501-0.226,0.706-0.043
			c0.207,0.183,0.227,0.499,0.044,0.706c-0.893,1.011-1.742,2.041-2.521,3.06C305.027,170.27,304.879,170.338,304.728,170.338z
			 M380.477,169.041c-0.21,0-0.404-0.132-0.475-0.342c-0.087-0.262,0.055-0.545,0.316-0.632c1.285-0.427,2.581-0.821,3.852-1.17
			c0.271-0.072,0.541,0.083,0.615,0.35c0.073,0.266-0.084,0.542-0.35,0.614c-1.256,0.345-2.534,0.733-3.802,1.155
			C380.583,169.033,380.53,169.041,380.477,169.041z M413.839,167.89c-0.057,0-0.113-0.009-0.17-0.03
			c-1.214-0.439-2.484-0.818-3.776-1.129c-0.268-0.065-0.434-0.335-0.369-0.604c0.064-0.268,0.323-0.434,0.603-0.369
			c1.327,0.319,2.633,0.71,3.882,1.161c0.26,0.094,0.395,0.38,0.301,0.64C414.235,167.764,414.044,167.89,413.839,167.89z
			 M390.151,166.542c-0.236,0-0.447-0.169-0.491-0.411c-0.049-0.272,0.131-0.532,0.403-0.582c1.339-0.243,2.682-0.441,3.989-0.589
			c0.268-0.038,0.522,0.165,0.554,0.44c0.031,0.274-0.166,0.522-0.44,0.553c-1.286,0.146-2.606,0.341-3.925,0.58
			C390.211,166.539,390.181,166.542,390.151,166.542z M404.091,165.789c-0.016,0-0.03,0-0.045-0.002
			c-1.281-0.114-2.61-0.172-3.951-0.173c-0.275-0.001-0.499-0.225-0.499-0.501c0-0.276,0.224-0.499,0.5-0.499c0,0,0,0,0.001,0
			c1.369,0.001,2.728,0.061,4.037,0.177c0.275,0.025,0.478,0.267,0.454,0.542C404.565,165.593,404.347,165.789,404.091,165.789z
			 M311.446,162.945c-0.133,0-0.265-0.052-0.363-0.156c-0.19-0.2-0.181-0.517,0.02-0.707c0.934-0.885,1.938-1.792,2.985-2.696
			c0.208-0.179,0.523-0.159,0.706,0.052c0.18,0.209,0.157,0.525-0.052,0.705c-1.036,0.894-2.029,1.791-2.952,2.665
			C311.693,162.9,311.569,162.945,311.446,162.945z M430.539,160.868c-0.256,0-0.474-0.195-0.497-0.455
			c-0.119-1.318-0.304-2.634-0.55-3.909c-0.052-0.271,0.126-0.534,0.396-0.586c0.268-0.049,0.533,0.124,0.586,0.396
			c0.252,1.309,0.441,2.657,0.563,4.009c0.024,0.275-0.178,0.518-0.453,0.543C430.569,160.868,430.554,160.868,430.539,160.868z
			 M319.06,156.47c-0.148,0-0.296-0.066-0.395-0.193c-0.17-0.218-0.131-0.532,0.088-0.702c1.054-0.821,2.12-1.628,3.193-2.427
			c0.22-0.165,0.533-0.12,0.7,0.103c0.165,0.221,0.118,0.535-0.103,0.7c-1.067,0.794-2.128,1.597-3.178,2.413
			C319.276,156.435,319.168,156.47,319.06,156.47z M428.385,151.133c-0.204,0-0.395-0.126-0.47-0.329
			c-0.344-0.942-0.732-1.88-1.153-2.787c-0.131-0.279-0.265-0.558-0.402-0.835c-0.123-0.247-0.022-0.547,0.225-0.671
			c0.246-0.123,0.548-0.023,0.67,0.225c0.142,0.284,0.279,0.57,0.414,0.857c0.435,0.934,0.833,1.898,1.187,2.867
			c0.095,0.26-0.039,0.546-0.299,0.641C428.5,151.123,428.442,151.133,428.385,151.133z M327.091,150.512
			c-0.155,0-0.308-0.072-0.405-0.208c-0.162-0.224-0.111-0.537,0.113-0.698l3.248-2.337c0.223-0.16,0.536-0.11,0.697,0.116
			c0.161,0.225,0.109,0.537-0.115,0.698l-3.246,2.335C327.296,150.482,327.193,150.512,327.091,150.512z M335.253,144.734
			c-0.159,0-0.316-0.077-0.413-0.219c-0.155-0.229-0.097-0.54,0.132-0.695c1.108-0.752,2.223-1.492,3.351-2.211
			c0.23-0.148,0.542-0.081,0.69,0.152c0.148,0.233,0.08,0.542-0.153,0.69c-1.118,0.714-2.226,1.448-3.325,2.196
			C335.448,144.706,335.35,144.734,335.253,144.734z M423.591,142.41c-0.145,0-0.288-0.063-0.387-0.183
			c-0.855-1.042-1.781-1.968-2.752-2.751c-0.215-0.174-0.248-0.488-0.074-0.703c0.174-0.215,0.488-0.248,0.703-0.075
			c1.023,0.827,1.998,1.8,2.896,2.895c0.175,0.213,0.143,0.529-0.069,0.704C423.816,142.372,423.704,142.41,423.591,142.41z
			 M343.743,139.456c-0.176,0-0.347-0.093-0.438-0.259c-0.134-0.242-0.046-0.546,0.196-0.679c1.206-0.665,2.409-1.287,3.577-1.849
			c0.25-0.119,0.548-0.015,0.667,0.234c0.12,0.249,0.016,0.548-0.233,0.667c-1.151,0.553-2.338,1.167-3.528,1.823
			C343.908,139.436,343.825,139.456,343.743,139.456z M415.596,136.582c-0.064,0-0.13-0.012-0.193-0.039
			c-1.102-0.462-2.318-0.892-3.721-1.315c-0.264-0.079-0.414-0.358-0.334-0.622c0.08-0.265,0.355-0.415,0.623-0.335
			c1.436,0.433,2.685,0.874,3.818,1.35c0.255,0.107,0.375,0.4,0.268,0.654C415.977,136.467,415.792,136.582,415.596,136.582z
			 M352.815,135.272c-0.203,0-0.394-0.124-0.469-0.325c-0.097-0.259,0.035-0.547,0.294-0.644c1.243-0.463,2.526-0.899,3.814-1.296
			c0.268-0.081,0.545,0.067,0.625,0.331c0.082,0.264-0.066,0.543-0.33,0.625c-1.271,0.391-2.535,0.821-3.76,1.277
			C352.932,135.262,352.873,135.272,352.815,135.272z M406.025,133.727c-0.037,0-0.076-0.004-0.114-0.013
			c-1.292-0.304-2.59-0.588-3.894-0.852c-0.271-0.055-0.445-0.319-0.391-0.589c0.055-0.271,0.315-0.44,0.59-0.391
			c1.313,0.267,2.621,0.553,3.923,0.859c0.269,0.063,0.436,0.333,0.372,0.601C406.458,133.572,406.253,133.727,406.025,133.727z
			 M362.403,132.464c-0.23,0-0.437-0.159-0.487-0.393c-0.06-0.27,0.111-0.537,0.382-0.595c1.301-0.285,2.631-0.54,3.954-0.757
			c0.268-0.05,0.529,0.139,0.574,0.412c0.045,0.272-0.14,0.53-0.412,0.574c-1.306,0.215-2.619,0.466-3.903,0.747
			C362.475,132.46,362.439,132.464,362.403,132.464z M396.21,131.826c-0.025,0-0.051-0.002-0.075-0.005
			c-1.318-0.199-2.647-0.376-3.948-0.527c-0.274-0.032-0.471-0.28-0.439-0.554c0.031-0.274,0.288-0.475,0.555-0.439
			c1.313,0.151,2.652,0.33,3.982,0.531c0.273,0.042,0.461,0.296,0.42,0.569C396.666,131.648,396.453,131.826,396.21,131.826z
			 M372.281,130.956c-0.256,0-0.474-0.195-0.497-0.455c-0.024-0.275,0.178-0.518,0.453-0.543c1.315-0.119,2.666-0.21,4.013-0.27
			c0.298-0.028,0.51,0.202,0.521,0.477c0.013,0.276-0.201,0.51-0.477,0.522c-1.332,0.06-2.667,0.149-3.968,0.267
			C372.311,130.956,372.296,130.956,372.281,130.956z M386.268,130.772c-0.01,0-0.02,0-0.029-0.001
			c-1.328-0.078-2.666-0.131-3.978-0.156c-0.276-0.005-0.495-0.233-0.49-0.51c0.006-0.276,0.203-0.485,0.51-0.49
			c1.324,0.026,2.676,0.079,4.017,0.158c0.275,0.016,0.486,0.253,0.47,0.528C386.752,130.567,386.531,130.772,386.268,130.772z"/>
	</g>

		<linearGradient id="SVGID_00000067952532972675160460000006733186724610712508_" gradientUnits="userSpaceOnUse" x1="238.9394" y1="125.3252" x2="245.7219" y2="392.9773">
		<stop  offset="0" style="stop-color:#263681"/>
		<stop  offset="0.9959" style="stop-color:#1A1248"/>
	</linearGradient>
	<path style="fill:url(#SVGID_00000067952532972675160460000006733186724610712508_);" d="M306.973,398.579H177.891
		c-4.768,0-8.633-3.865-8.633-8.633V136.38c0-4.768,3.865-8.633,8.633-8.633h129.082c4.768,0,8.633,3.865,8.633,8.633v253.565
		C315.606,394.714,311.741,398.579,306.973,398.579z"/>

		<linearGradient id="SVGID_00000005269105000301569570000016027606452863176350_" gradientUnits="userSpaceOnUse" x1="153.9742" y1="211.3081" x2="290.1479" y2="291.134">
		<stop  offset="0" style="stop-color:#9571CB"/>
		<stop  offset="0.2434" style="stop-color:#8E69CA"/>
		<stop  offset="0.6169" style="stop-color:#7B54C5"/>
		<stop  offset="1" style="stop-color:#6237C0"/>
	</linearGradient>
	<path style="fill:url(#SVGID_00000005269105000301569570000016027606452863176350_);" d="M177.892,392.578
		c-1.452,0-2.634-1.181-2.634-2.633V136.381c0-1.452,1.182-2.633,2.634-2.633h129.081c1.452,0,2.633,1.181,2.633,2.633v253.565
		c0,1.452-1.181,2.633-2.633,2.633H177.892z"/>
	<g>
		<path style="fill:#50448C;" d="M142.932,344.953c-0.074,0-0.15-0.017-0.222-0.052c-1.195-0.593-2.389-1.24-3.546-1.925
			c-0.238-0.141-0.316-0.447-0.176-0.685c0.141-0.236,0.448-0.315,0.685-0.176c1.137,0.673,2.308,1.309,3.482,1.89
			c0.247,0.123,0.349,0.423,0.226,0.67C143.294,344.851,143.116,344.953,142.932,344.953z M134.428,339.718
			c-0.104,0-0.209-0.032-0.299-0.1c-1.072-0.801-2.129-1.651-3.144-2.526c-0.209-0.181-0.232-0.496-0.052-0.706
			c0.18-0.209,0.496-0.232,0.705-0.052c0.997,0.86,2.036,1.696,3.089,2.483c0.221,0.165,0.267,0.479,0.101,0.7
			C134.731,339.649,134.58,339.718,134.428,339.718z M126.984,333.062c-0.133,0-0.266-0.053-0.365-0.158
			c-0.917-0.978-1.811-1.999-2.656-3.035c-0.174-0.215-0.142-0.529,0.072-0.704c0.214-0.174,0.529-0.141,0.704,0.071
			c0.831,1.02,1.709,2.023,2.61,2.984c0.189,0.201,0.179,0.518-0.022,0.706C127.23,333.017,127.107,333.062,126.984,333.062z
			 M120.811,325.211c-0.163,0-0.323-0.08-0.419-0.227c-0.736-1.127-1.438-2.289-2.085-3.453c-0.134-0.241-0.047-0.546,0.194-0.68
			c0.243-0.136,0.546-0.047,0.68,0.193c0.636,1.144,1.325,2.285,2.048,3.393c0.151,0.232,0.086,0.541-0.145,0.692
			C120.999,325.185,120.904,325.211,120.811,325.211z M116.118,316.396c-0.195,0-0.38-0.115-0.461-0.307
			c-0.258-0.613-0.505-1.232-0.742-1.857c-0.24-0.635-0.469-1.274-0.687-1.917c-0.088-0.261,0.052-0.545,0.313-0.634
			c0.262-0.085,0.546,0.052,0.634,0.313c0.214,0.631,0.438,1.259,0.675,1.884c0.232,0.612,0.475,1.22,0.728,1.823
			c0.107,0.254-0.013,0.547-0.267,0.654C116.248,316.383,116.183,316.396,116.118,316.396z M113.054,306.89
			c-0.226,0-0.431-0.154-0.486-0.385c-0.3-1.263-0.578-2.588-0.824-3.939c-0.05-0.271,0.13-0.532,0.402-0.582
			c0.272-0.041,0.532,0.131,0.582,0.402c0.243,1.334,0.517,2.642,0.813,3.889c0.064,0.269-0.102,0.538-0.371,0.602
			C113.131,306.886,113.092,306.89,113.054,306.89z M111.359,297.04c-0.25,0-0.466-0.188-0.496-0.442
			c-0.149-1.274-0.282-2.619-0.395-3.997c-0.023-0.275,0.182-0.517,0.457-0.539c0.283-0.02,0.517,0.182,0.54,0.457
			c0.112,1.366,0.244,2.7,0.391,3.964c0.032,0.274-0.165,0.522-0.438,0.555C111.398,297.039,111.379,297.04,111.359,297.04z
			 M110.592,287.072c-0.266,0-0.487-0.209-0.499-0.478c-0.061-1.336-0.108-2.672-0.148-4.006c-0.008-0.275,0.209-0.506,0.485-0.515
			c0.263-0.002,0.506,0.208,0.515,0.485c0.039,1.328,0.087,2.658,0.147,3.99c0.013,0.275-0.201,0.51-0.477,0.521
			C110.608,287.072,110.6,287.072,110.592,287.072z M110.321,277.076c-0.274,0-0.497-0.221-0.5-0.495
			c-0.007-0.668-0.01-1.337-0.01-2.006c0-0.669,0.003-1.337,0.011-2.005c0.002-0.275,0.232-0.547,0.505-0.494
			c0.276,0.003,0.498,0.229,0.495,0.506c-0.007,0.664-0.011,1.328-0.011,1.993c0,0.665,0.003,1.331,0.01,1.996
			c0.003,0.276-0.219,0.502-0.495,0.505C110.325,277.076,110.323,277.076,110.321,277.076z M110.515,267.079
			c-0.009,0-0.019,0-0.028-0.001c-0.276-0.016-0.487-0.251-0.471-0.526c0.077-1.377,0.176-2.726,0.296-4.009
			c0.026-0.274,0.273-0.472,0.544-0.451c0.275,0.026,0.477,0.27,0.452,0.545c-0.119,1.271-0.218,2.607-0.294,3.97
			C110.999,266.873,110.778,267.079,110.515,267.079z M111.572,257.14c-0.027,0-0.054-0.002-0.082-0.007
			c-0.272-0.045-0.457-0.303-0.412-0.575c0.222-1.343,0.479-2.673,0.765-3.953c0.06-0.268,0.329-0.434,0.597-0.379
			c0.27,0.061,0.439,0.328,0.379,0.598c-0.281,1.261-0.535,2.572-0.754,3.897C112.024,256.966,111.812,257.14,111.572,257.14z
			 M113.913,247.428c-0.052,0-0.104-0.008-0.157-0.025c-0.262-0.087-0.405-0.37-0.318-0.632c0.422-1.278,0.895-2.551,1.407-3.784
			c0.106-0.255,0.398-0.376,0.654-0.27c0.255,0.106,0.376,0.399,0.27,0.654c-0.503,1.21-0.967,2.459-1.381,3.714
			C114.318,247.295,114.123,247.428,113.913,247.428z M166.268,245.021c-0.014,0-0.027-0.001-0.041-0.001
			c-1.33-0.109-2.683-0.337-4.023-0.678c-0.268-0.068-0.429-0.34-0.361-0.608c0.068-0.268,0.339-0.432,0.608-0.361
			c1.285,0.327,2.583,0.546,3.857,0.65c0.275,0.022,0.48,0.264,0.458,0.539C166.744,244.824,166.525,245.021,166.268,245.021z
			 M172.232,244.657c-0.224,0-0.427-0.151-0.484-0.378c-0.067-0.268,0.095-0.54,0.363-0.607c0.728-0.183,1.317-0.436,1.804-0.772
			c0.445-0.308,0.831-0.706,1.146-1.182c0.152-0.23,0.462-0.294,0.693-0.141c0.23,0.153,0.293,0.463,0.141,0.693
			c-0.386,0.582-0.86,1.07-1.411,1.451c-0.587,0.406-1.284,0.708-2.129,0.92C172.314,244.652,172.273,244.657,172.232,244.657z
			 M156.725,242.243c-0.075,0-0.152-0.017-0.224-0.053c-1.188-0.597-2.367-1.287-3.504-2.052c-0.23-0.154-0.29-0.465-0.136-0.694
			c0.154-0.229,0.465-0.29,0.694-0.136c1.103,0.741,2.246,1.41,3.396,1.988c0.247,0.124,0.346,0.424,0.222,0.671
			C157.084,242.143,156.908,242.243,156.725,242.243z M117.93,238.287c-0.084,0-0.168-0.021-0.246-0.064
			c-0.24-0.136-0.325-0.441-0.189-0.682c0.669-1.185,1.389-2.339,2.138-3.431c0.156-0.229,0.468-0.286,0.695-0.129
			c0.228,0.156,0.286,0.467,0.129,0.695c-0.733,1.068-1.436,2.198-2.091,3.358C118.274,238.196,118.105,238.287,117.93,238.287z
			 M176.491,236.705c-0.247,0-0.462-0.183-0.495-0.435c-0.168-1.275-0.502-2.529-0.993-3.727c-0.105-0.256,0.017-0.548,0.273-0.652
			c0.254-0.105,0.547,0.017,0.652,0.272c0.524,1.277,0.88,2.615,1.06,3.976c0.036,0.274-0.157,0.525-0.43,0.561
			C176.535,236.703,176.513,236.705,176.491,236.705z M148.613,236.456c-0.125,0-0.25-0.046-0.347-0.14
			c-0.31-0.298-0.614-0.601-0.912-0.909c-0.629-0.65-1.252-1.339-1.854-2.047c-0.179-0.211-0.153-0.526,0.058-0.705
			c0.212-0.179,0.526-0.152,0.705,0.058c0.587,0.692,1.196,1.364,1.81,1.999c0.289,0.299,0.585,0.593,0.886,0.883
			c0.199,0.191,0.205,0.508,0.014,0.707C148.875,236.405,148.744,236.456,148.613,236.456z M123.776,230.201
			c-0.122,0-0.243-0.044-0.339-0.133c-0.203-0.188-0.215-0.504-0.028-0.707c0.927-1.003,1.903-1.954,2.903-2.826
			c0.206-0.183,0.524-0.161,0.705,0.048c0.182,0.208,0.16,0.524-0.048,0.705c-0.972,0.849-1.923,1.775-2.826,2.752
			C124.045,230.147,123.91,230.201,123.776,230.201z M142.293,228.734c-0.162,0-0.321-0.079-0.417-0.224
			c-0.709-1.071-1.42-2.226-2.115-3.431c-0.138-0.239-0.056-0.545,0.184-0.683c0.24-0.138,0.545-0.055,0.683,0.184
			c0.684,1.188,1.385,2.324,2.083,3.378c0.152,0.23,0.089,0.541-0.141,0.693C142.483,228.707,142.388,228.734,142.293,228.734z
			 M172.258,227.821c-0.137,0-0.273-0.056-0.372-0.166c-0.84-0.935-1.806-1.825-2.871-2.645c-0.219-0.169-0.259-0.482-0.091-0.701
			c0.168-0.219,0.481-0.261,0.701-0.091c1.112,0.856,2.123,1.788,3.004,2.769c0.185,0.205,0.167,0.521-0.038,0.706
			C172.497,227.779,172.377,227.821,172.258,227.821z M131.479,223.879c-0.17,0-0.336-0.086-0.429-0.243
			c-0.142-0.236-0.066-0.543,0.171-0.686c0.516-0.31,1.041-0.606,1.576-0.888c0.656-0.346,1.338-0.676,2.029-0.981
			c0.255-0.111,0.549,0.003,0.66,0.255c0.111,0.252-0.003,0.548-0.255,0.66c-0.669,0.295-1.331,0.616-1.967,0.951
			c-0.519,0.273-1.027,0.56-1.527,0.86C131.655,223.856,131.566,223.879,131.479,223.879z M164.189,222.026
			c-0.07,0-0.142-0.015-0.21-0.047c-1.173-0.545-2.407-1.025-3.667-1.425c-0.263-0.084-0.409-0.365-0.325-0.628
			c0.083-0.263,0.363-0.41,0.628-0.325c1.3,0.413,2.574,0.908,3.786,1.472c0.251,0.116,0.359,0.413,0.242,0.664
			C164.558,221.919,164.377,222.026,164.189,222.026z M140.702,220.113c-0.225,0-0.429-0.153-0.485-0.381
			c-0.066-0.268,0.098-0.539,0.366-0.604c1.295-0.318,2.635-0.57,3.981-0.751c0.273-0.038,0.525,0.156,0.562,0.429
			c0.037,0.274-0.156,0.525-0.429,0.562c-1.311,0.175-2.616,0.421-3.876,0.73C140.781,220.109,140.741,220.113,140.702,220.113z
			 M137.387,220.027c-0.185,0-0.362-0.103-0.449-0.279c-0.59-1.201-1.16-2.413-1.717-3.628c-0.115-0.251-0.005-0.548,0.247-0.663
			c0.251-0.117,0.547-0.004,0.663,0.246c0.553,1.207,1.119,2.411,1.705,3.603c0.122,0.248,0.02,0.547-0.228,0.669
			C137.536,220.01,137.461,220.027,137.387,220.027z M154.605,219.309c-0.019,0-0.038-0.001-0.057-0.003l-0.167-0.019
			c-1.255-0.142-2.525-0.225-3.774-0.248c-0.276-0.005-0.496-0.233-0.491-0.509c0.005-0.276,0.206-0.52,0.509-0.491
			c1.28,0.024,2.582,0.11,3.869,0.255l0.167,0.02c0.274,0.031,0.471,0.279,0.44,0.553
			C155.072,219.121,154.856,219.309,154.605,219.309z M133.242,210.927c-0.194,0-0.378-0.113-0.459-0.303
			c-0.527-1.228-1.043-2.464-1.537-3.708c-0.102-0.257,0.024-0.547,0.28-0.649c0.255-0.101,0.547,0.023,0.649,0.28
			c0.49,1.235,1.003,2.463,1.526,3.683c0.109,0.254-0.008,0.548-0.262,0.657C133.375,210.913,133.308,210.927,133.242,210.927z
			 M129.672,201.589c-0.212,0-0.408-0.135-0.476-0.348c-0.424-1.324-0.797-2.628-1.109-3.875c-0.067-0.268,0.096-0.539,0.363-0.606
			c0.271-0.067,0.54,0.095,0.606,0.363c0.307,1.227,0.674,2.51,1.092,3.813c0.084,0.263-0.061,0.545-0.324,0.629
			C129.774,201.581,129.722,201.589,129.672,201.589z M127.468,191.851c-0.25,0-0.466-0.186-0.496-0.441
			c-0.162-1.364-0.255-2.723-0.276-4.04c-0.004-0.276,0.216-0.503,0.492-0.508c0.281-0.045,0.503,0.216,0.508,0.492
			c0.02,1.282,0.11,2.607,0.269,3.937c0.033,0.274-0.163,0.523-0.437,0.556C127.508,191.85,127.488,191.851,127.468,191.851z"/>
	</g>
	<g>
		<defs>
			<path id="SVGID_00000105412867093637404980000012448739411750671789_" d="M128.221,387.649l-13.743-275.667
				c53.217-14.87,192.494,21.765,192.494,21.765c1.452,0,2.633,1.181,2.633,2.633v253.565c0,1.452-1.181,2.633-2.633,2.633
				C306.973,392.578,204.216,429.331,128.221,387.649z"/>
		</defs>
		<clipPath id="SVGID_00000093169503498419269210000001568752975669996701_">
			<use xlink:href="#SVGID_00000105412867093637404980000012448739411750671789_"  style="overflow:visible;"/>
		</clipPath>
		<g style="clip-path:url(#SVGID_00000093169503498419269210000001568752975669996701_);">

				<linearGradient id="SVGID_00000157291237864512565890000001366687042077496708_" gradientUnits="userSpaceOnUse" x1="299.4946" y1="321.9362" x2="279.1468" y2="313.9144">
				<stop  offset="0" style="stop-color:#F5F0FF"/>
				<stop  offset="0.6951" style="stop-color:#D2C1F7"/>
				<stop  offset="1" style="stop-color:#DCCEF9"/>
			</linearGradient>
			<path style="fill:url(#SVGID_00000157291237864512565890000001366687042077496708_);" d="M287.69,286.466l-18.517,47.458
				c-2.715,6.957,1.308,14.715,8.559,16.505v0c5.939,1.466,12.058-1.63,14.395-7.284l21.229-51.358
				C313.356,291.787,294.414,278.532,287.69,286.466z"/>

				<linearGradient id="SVGID_00000178911836073244664900000018444925508709635240_" gradientUnits="userSpaceOnUse" x1="3479.5574" y1="610.7466" x2="3490.5913" y2="698.638" gradientTransform="matrix(-0.9709 -0.2396 -0.2396 0.9709 3787.2346 456.1563)">
				<stop  offset="0" style="stop-color:#F59513"/>
				<stop  offset="0.3699" style="stop-color:#FAAD1E"/>
				<stop  offset="0.9959" style="stop-color:#F2830B"/>
			</linearGradient>
			<path style="fill:url(#SVGID_00000178911836073244664900000018444925508709635240_);" d="M198.575,166.69l39.17,36.66
				c22.259,20.832,49.489,35.608,79.088,42.914l7.315,1.806l0,0c2.908,15.448-1.029,31.398-10.792,43.719l0,0l-7.315-1.806
				c-29.599-7.306-60.576-6.899-89.973,1.183l-51.73,14.222L198.575,166.69z"/>

				<linearGradient id="SVGID_00000008142641884325586370000006978432883278719392_" gradientUnits="userSpaceOnUse" x1="3568.6135" y1="650.1959" x2="3540.4578" y2="650.1959" gradientTransform="matrix(-0.9709 -0.2396 -0.2396 0.9709 3787.2346 456.1563)">
				<stop  offset="0" style="stop-color:#E6971C"/>
				<stop  offset="0.9959" style="stop-color:#DE6D0A"/>
			</linearGradient>
			<path style="fill:url(#SVGID_00000008142641884325586370000006978432883278719392_);" d="M168.159,232.756
				c-9.454,38.3-11.164,70.818-3.819,72.631c7.344,1.813,20.962-27.766,30.416-66.066s11.164-70.818,3.82-72.631
				C191.231,164.877,177.613,194.455,168.159,232.756z"/>
			<g>
				<defs>

						<ellipse id="SVGID_00000073694375660011120940000010497243147359244468_" transform="matrix(0.2396 -0.9709 0.9709 0.2396 -91.1885 355.6421)" cx="181.457" cy="236.038" rx="71.43" ry="13.698"/>
				</defs>
				<clipPath id="SVGID_00000090998705270596346580000007748309080711985574_">
					<use xlink:href="#SVGID_00000073694375660011120940000010497243147359244468_"  style="overflow:visible;"/>
				</clipPath>

					<radialGradient id="SVGID_00000099642269676168074520000010641935679981579430_" cx="3556.4929" cy="651.8433" r="23.0758" gradientTransform="matrix(-0.9709 -0.2396 -0.2396 0.9709 3787.2346 456.1563)" gradientUnits="userSpaceOnUse">
					<stop  offset="0" style="stop-color:#FFD042"/>
					<stop  offset="1" style="stop-color:#F2830B"/>
				</radialGradient>

					<path style="clip-path:url(#SVGID_00000090998705270596346580000007748309080711985574_);fill:url(#SVGID_00000099642269676168074520000010641935679981579430_);" d="
					M184.164,252.971l7.336,1.811c8.467,2.09,17.024-3.079,19.114-11.546v0c2.09-8.467-3.079-17.024-11.546-19.114l-7.336-1.811
					c-8.467-2.09-17.024,3.079-19.114,11.546v0C170.528,242.323,175.697,250.881,184.164,252.971z"/>
			</g>
		</g>
	</g>
	<g>
		<path style="fill:#50448C;" d="M253.568,170.657c-0.265,0-0.486-0.208-0.499-0.475c-0.066-1.322-0.162-2.658-0.284-3.969
			c-0.025-0.275,0.177-0.519,0.452-0.544c0.269-0.027,0.518,0.176,0.544,0.452c0.123,1.325,0.22,2.675,0.286,4.012
			c0.015,0.276-0.198,0.51-0.474,0.524C253.585,170.657,253.576,170.657,253.568,170.657z M252.534,160.714
			c-0.241,0-0.454-0.175-0.493-0.421c-0.209-1.321-0.449-2.637-0.712-3.913c-0.056-0.27,0.119-0.535,0.389-0.591
			c0.257-0.052,0.535,0.118,0.59,0.389c0.267,1.291,0.509,2.622,0.722,3.958c0.043,0.273-0.142,0.529-0.416,0.572
			C252.587,160.712,252.56,160.714,252.534,160.714z M130.109,151.757c-0.038,0-0.076-0.004-0.114-0.013
			c-0.269-0.063-0.437-0.331-0.374-0.6c0.068-0.293,0.14-0.585,0.214-0.876c0.068-0.268,0.339-0.431,0.608-0.361
			c0.268,0.068,0.429,0.34,0.361,0.608c-0.072,0.284-0.142,0.569-0.209,0.855C130.542,151.601,130.336,151.757,130.109,151.757z
			 M250.406,150.946c-0.218,0-0.419-0.145-0.481-0.365c-0.358-1.279-0.751-2.558-1.167-3.8c-0.088-0.262,0.053-0.545,0.315-0.633
			c0.262-0.087,0.545,0.053,0.633,0.315c0.421,1.258,0.819,2.553,1.182,3.848c0.075,0.266-0.08,0.542-0.347,0.616
			C250.496,150.94,250.451,150.946,250.406,150.946z M132.151,145.182c-0.061,0-0.122-0.011-0.181-0.034
			c-0.257-0.1-0.385-0.39-0.285-0.647c0.482-1.241,1.023-2.487,1.608-3.704c0.12-0.249,0.418-0.354,0.667-0.234
			c0.249,0.12,0.354,0.418,0.234,0.667c-0.573,1.193-1.104,2.415-1.577,3.632C132.54,145.06,132.351,145.182,132.151,145.182z
			 M247.1,141.512c-0.194,0-0.378-0.114-0.46-0.303c-0.522-1.222-1.083-2.435-1.665-3.604c-0.124-0.247-0.023-0.547,0.224-0.67
			c0.249-0.124,0.548-0.022,0.67,0.224c0.592,1.187,1.161,2.417,1.691,3.657c0.108,0.254-0.009,0.548-0.263,0.657
			C247.232,141.499,247.166,141.512,247.1,141.512z M136.642,136.264c-0.091,0-0.183-0.024-0.265-0.076
			c-0.234-0.147-0.305-0.456-0.158-0.689c0.708-1.129,1.471-2.253,2.266-3.339c0.163-0.223,0.476-0.271,0.699-0.108
			c0.223,0.163,0.271,0.476,0.108,0.699c-0.781,1.067-1.53,2.17-2.225,3.28C136.971,136.182,136.809,136.264,136.642,136.264z
			 M242.493,132.643c-0.167,0-0.33-0.083-0.424-0.235c-0.704-1.126-1.449-2.232-2.215-3.287c-0.162-0.224-0.112-0.537,0.111-0.699
			c0.224-0.163,0.536-0.112,0.699,0.111c0.779,1.074,1.538,2.2,2.253,3.346c0.146,0.234,0.075,0.543-0.159,0.689
			C242.675,132.619,242.584,132.643,242.493,132.643z M142.679,128.308c-0.12,0-0.24-0.042-0.335-0.129
			c-0.205-0.186-0.221-0.501-0.035-0.706c0.895-0.988,1.839-1.962,2.808-2.896c0.199-0.191,0.516-0.185,0.707,0.013
			c0.192,0.199,0.186,0.515-0.013,0.707c-0.952,0.918-1.881,1.876-2.761,2.848C142.951,128.253,142.816,128.308,142.679,128.308z
			 M236.471,124.678c-0.135,0-0.27-0.055-0.369-0.162c-0.896-0.979-1.834-1.923-2.788-2.808c-0.203-0.188-0.214-0.504-0.027-0.706
			c0.187-0.203,0.504-0.216,0.707-0.027c0.974,0.903,1.931,1.868,2.845,2.866c0.187,0.204,0.173,0.52-0.031,0.706
			C236.712,124.634,236.591,124.678,236.471,124.678z M149.985,121.495c-0.148,0-0.294-0.065-0.393-0.19
			c-0.171-0.217-0.134-0.532,0.083-0.702c1.05-0.827,2.144-1.63,3.25-2.389c0.229-0.155,0.539-0.098,0.695,0.13
			c0.156,0.228,0.098,0.539-0.13,0.695c-1.088,0.746-2.164,1.536-3.196,2.349C150.202,121.46,150.093,121.495,149.985,121.495z
			 M229.013,118.057c-0.1,0-0.202-0.03-0.29-0.093c-1.072-0.764-2.188-1.486-3.317-2.147c-0.238-0.14-0.318-0.446-0.179-0.684
			c0.14-0.239,0.445-0.318,0.685-0.179c1.154,0.676,2.296,1.416,3.392,2.196c0.225,0.16,0.277,0.472,0.117,0.697
			C229.323,117.984,229.17,118.057,229.013,118.057z M158.32,115.99c-0.177,0-0.349-0.094-0.44-0.26
			c-0.132-0.242-0.043-0.546,0.199-0.679c0.415-0.227,0.831-0.448,1.251-0.664c0.775-0.4,1.559-0.784,2.35-1.151
			c0.252-0.116,0.548-0.007,0.664,0.243c0.116,0.25,0.007,0.547-0.243,0.664c-0.778,0.361-1.549,0.739-2.313,1.132
			c-0.412,0.212-0.821,0.431-1.229,0.653C158.483,115.97,158.401,115.99,158.32,115.99z M220.299,113.196
			c-0.066,0-0.132-0.013-0.196-0.04c-1.186-0.506-2.431-0.983-3.7-1.418c-0.261-0.09-0.4-0.374-0.311-0.635
			c0.09-0.261,0.374-0.398,0.635-0.311c1.292,0.443,2.56,0.929,3.769,1.444c0.254,0.108,0.372,0.402,0.264,0.656
			C220.678,113.082,220.493,113.196,220.299,113.196z M167.441,111.921c-0.206,0-0.398-0.127-0.471-0.332
			c-0.092-0.26,0.043-0.546,0.303-0.639c1.253-0.446,2.543-0.862,3.835-1.237c0.266-0.078,0.543,0.076,0.619,0.341
			c0.077,0.265-0.076,0.543-0.341,0.619c-1.272,0.369-2.543,0.779-3.777,1.219C167.554,111.911,167.497,111.921,167.441,111.921z
			 M210.805,110.094c-0.039,0-0.079-0.004-0.118-0.014c-1.252-0.303-2.559-0.583-3.886-0.833c-0.271-0.051-0.45-0.313-0.398-0.584
			c0.051-0.271,0.309-0.449,0.584-0.398c1.342,0.253,2.666,0.537,3.936,0.844c0.269,0.065,0.433,0.335,0.368,0.604
			C211.235,109.94,211.031,110.094,210.805,110.094z M177.075,109.271c-0.234,0-0.442-0.164-0.49-0.402
			c-0.054-0.271,0.122-0.534,0.393-0.588c1.305-0.26,2.64-0.488,3.969-0.678c0.273-0.042,0.527,0.151,0.566,0.424
			c0.039,0.273-0.151,0.527-0.424,0.566c-1.312,0.187-2.629,0.412-3.915,0.668C177.14,109.268,177.107,109.271,177.075,109.271z
			 M200.963,108.36c-0.019,0-0.038-0.001-0.057-0.003c-1.315-0.15-2.648-0.269-3.96-0.353c-0.275-0.018-0.484-0.255-0.467-0.531
			c0.018-0.276,0.249-0.478,0.531-0.467c1.328,0.085,2.676,0.206,4.008,0.357c0.274,0.031,0.471,0.279,0.44,0.553
			C201.43,108.171,201.214,108.36,200.963,108.36z M186.984,107.989c-0.262,0-0.482-0.204-0.499-0.469
			c-0.017-0.275,0.192-0.513,0.468-0.53c1.329-0.083,2.682-0.132,4.023-0.146c0.259,0.013,0.502,0.218,0.505,0.495
			c0.003,0.276-0.218,0.502-0.495,0.505c-1.323,0.015-2.659,0.063-3.972,0.145C187.005,107.989,186.995,107.989,186.984,107.989z"/>
	</g>
	<g>

			<linearGradient id="SVGID_00000129165033799715766310000002942022178615638957_" gradientUnits="userSpaceOnUse" x1="296.4309" y1="162.7242" x2="314.7243" y2="203.3761">
			<stop  offset="0" style="stop-color:#9571CB"/>
			<stop  offset="0.9959" style="stop-color:#6237C0"/>
		</linearGradient>
		<circle style="fill:url(#SVGID_00000129165033799715766310000002942022178615638957_);" cx="305.575" cy="183.044" r="25.043"/>

			<linearGradient id="SVGID_00000084493937100247940870000016063596345467800735_" gradientUnits="userSpaceOnUse" x1="298.1454" y1="166.5341" x2="313.0088" y2="199.5638">
			<stop  offset="0" style="stop-color:#F5F0FF"/>
			<stop  offset="0.9959" style="stop-color:#D2C1F7"/>
		</linearGradient>
		<circle style="fill:url(#SVGID_00000084493937100247940870000016063596345467800735_);" cx="305.575" cy="183.044" r="20.348"/>

			<linearGradient id="SVGID_00000054224300483773738720000006540283788525769871_" gradientUnits="userSpaceOnUse" x1="302.2953" y1="175.0599" x2="310.5633" y2="193.4331">
			<stop  offset="0" style="stop-color:#FAAD1E"/>
			<stop  offset="0.9959" style="stop-color:#F2830B"/>
		</linearGradient>
		<polygon style="fill:url(#SVGID_00000054224300483773738720000006540283788525769871_);" points="305.575,172.213
			309.094,179.344 316.964,180.487 311.269,186.038 312.613,193.875 305.575,190.175 298.536,193.875 299.881,186.038
			294.186,180.487 302.056,179.344 		"/>
	</g>
	<g>

			<linearGradient id="SVGID_00000181061943460182948320000013286456890254823822_" gradientUnits="userSpaceOnUse" x1="247.358" y1="161.6824" x2="256.8381" y2="182.7494">
			<stop  offset="0" style="stop-color:#F5F0FF"/>
			<stop  offset="0.9959" style="stop-color:#D2C1F7"/>
		</linearGradient>
		<circle style="fill:url(#SVGID_00000181061943460182948320000013286456890254823822_);" cx="252.097" cy="172.213" r="12.978"/>
		<g>

				<linearGradient id="SVGID_00000081610425017883116980000007257627738231749513_" gradientUnits="userSpaceOnUse" x1="250.3089" y1="165.4169" x2="253.8855" y2="173.3651">
				<stop  offset="0" style="stop-color:#FAAD1E"/>
				<stop  offset="0.9959" style="stop-color:#F2830B"/>
			</linearGradient>
			<path style="fill:url(#SVGID_00000081610425017883116980000007257627738231749513_);" d="M252.097,174.586L252.097,174.586
				c-0.993,0-1.797-0.805-1.797-1.797v-6.799c0-0.993,0.805-1.797,1.797-1.797l0,0c0.993,0,1.797,0.805,1.797,1.797v6.799
				C253.894,173.782,253.089,174.586,252.097,174.586z"/>

				<linearGradient id="SVGID_00000107586882088191779240000004371853180841513874_" gradientUnits="userSpaceOnUse" x1="251.4404" y1="176.9767" x2="252.7533" y2="179.8942">
				<stop  offset="0" style="stop-color:#FAAD1E"/>
				<stop  offset="0.9959" style="stop-color:#F2830B"/>
			</linearGradient>
			<path style="fill:url(#SVGID_00000107586882088191779240000004371853180841513874_);" d="M253.894,178.435
				c0,0.993-0.805,1.797-1.797,1.797c-0.993,0-1.797-0.805-1.797-1.797s0.805-1.797,1.797-1.797
				C253.089,176.638,253.894,177.442,253.894,178.435z"/>
		</g>
	</g>
	<g>

			<linearGradient id="SVGID_00000142897694566144407550000001786490999909710249_" gradientUnits="userSpaceOnUse" x1="368.0481" y1="295.0157" x2="356.7466" y2="333.7515">
			<stop  offset="0" style="stop-color:#FFE14D"/>
			<stop  offset="1" style="stop-color:#F7A523"/>
		</linearGradient>
		<circle style="fill:url(#SVGID_00000142897694566144407550000001786490999909710249_);" cx="359.58" cy="324.039" r="16.049"/>

			<linearGradient id="SVGID_00000075153838599221384470000010449735742084291251_" gradientUnits="userSpaceOnUse" x1="366.7003" y1="299.6352" x2="357.1976" y2="332.2056">
			<stop  offset="0" style="stop-color:#FAAD1E"/>
			<stop  offset="0.9959" style="stop-color:#F2830B"/>
		</linearGradient>
		<circle style="fill:url(#SVGID_00000075153838599221384470000010449735742084291251_);" cx="359.58" cy="324.039" r="13.495"/>
		<g>
			<path style="fill:#FFC431;" d="M360.87,331.507v2.281h-2.037v-2.221c-2.017-0.122-3.952-0.753-5.072-1.629l1.12-2.485
				c1.019,0.754,2.485,1.304,3.952,1.446v-3.402c-2.261-0.55-4.787-1.304-4.787-4.217c0-2.159,1.568-4.013,4.787-4.379v-2.262h2.037
				v2.221c1.527,0.122,3.015,0.529,4.135,1.242l-1.018,2.506c-1.038-0.591-2.098-0.936-3.116-1.06v3.464
				c2.261,0.529,4.746,1.283,4.746,4.155C365.616,329.286,364.068,331.12,360.87,331.507z M358.833,322.503v-2.893
				c-1.079,0.244-1.508,0.835-1.508,1.508C357.325,321.831,357.936,322.218,358.833,322.503z M362.337,327.412
				c0-0.713-0.591-1.1-1.467-1.405v2.811C361.888,328.594,362.337,328.065,362.337,327.412z"/>
		</g>
	</g>
	<g>

			<linearGradient id="SVGID_00000170249194004360858220000015183742502223425966_" gradientUnits="userSpaceOnUse" x1="409.3785" y1="167.3129" x2="393.574" y2="221.4828">
			<stop  offset="0" style="stop-color:#FFE14D"/>
			<stop  offset="1" style="stop-color:#F7A523"/>
		</linearGradient>
		<circle style="fill:url(#SVGID_00000170249194004360858220000015183742502223425966_);" cx="397.537" cy="207.9" r="22.444"/>

			<linearGradient id="SVGID_00000162337930213555822580000008871980516127590579_" gradientUnits="userSpaceOnUse" x1="407.4937" y1="173.773" x2="394.2048" y2="219.3208">
			<stop  offset="0" style="stop-color:#FAAD1E"/>
			<stop  offset="0.9959" style="stop-color:#F2830B"/>
		</linearGradient>
		<circle style="fill:url(#SVGID_00000162337930213555822580000008871980516127590579_);" cx="397.537" cy="207.9" r="18.871"/>
		<g>
			<path style="fill:#FFC431;" d="M404.318,211.477l2.934,2.735c-1.88,2.308-4.728,3.561-8.204,3.561
				c-5.042,0-9.031-2.849-10.341-7.15h-3.22v-2.393h2.792c-0.028-0.256-0.028-0.513-0.028-0.769c0-0.256,0-0.513,0.028-0.77h-2.792
				v-2.393h3.22c1.31-4.302,5.299-7.151,10.341-7.151c3.476,0,6.324,1.253,8.204,3.533l-2.934,2.735
				c-1.367-1.539-3.049-2.336-5.043-2.336c-2.535,0-4.586,1.225-5.641,3.219h7.208v2.393h-7.92c-0.028,0.257-0.028,0.513-0.028,0.77
				c0,0.256,0,0.513,0.028,0.769h7.92v2.393h-7.208c1.055,1.994,3.105,3.219,5.641,3.219
				C401.269,213.842,402.951,213.044,404.318,211.477z"/>
		</g>
	</g>
	<g>

			<linearGradient id="SVGID_00000033343570187367437160000005784623981018834078_" gradientUnits="userSpaceOnUse" x1="121.1918" y1="240.7085" x2="105.3873" y2="294.8783">
			<stop  offset="0" style="stop-color:#FFE14D"/>
			<stop  offset="1" style="stop-color:#F7A523"/>
		</linearGradient>
		<circle style="fill:url(#SVGID_00000033343570187367437160000005784623981018834078_);" cx="109.35" cy="281.295" r="22.444"/>

			<linearGradient id="SVGID_00000054268226649842584640000011155210968456129188_" gradientUnits="userSpaceOnUse" x1="119.3071" y1="247.1685" x2="106.0181" y2="292.7163">
			<stop  offset="0" style="stop-color:#FAAD1E"/>
			<stop  offset="0.9959" style="stop-color:#F2830B"/>
		</linearGradient>
		<circle style="fill:url(#SVGID_00000054268226649842584640000011155210968456129188_);" cx="109.35" cy="281.295" r="18.871"/>
		<g>
			<path style="fill:#FFC431;" d="M97.215,276.155c0-3.361,2.051-5.498,4.957-5.498c2.905,0,4.928,2.108,4.928,5.498
				c0,3.391-2.022,5.498-4.928,5.498C99.266,281.653,97.215,279.517,97.215,276.155z M104.251,276.155
				c0-2.137-0.826-3.162-2.079-3.162c-1.226,0-2.08,1.055-2.08,3.162c0,2.108,0.854,3.162,2.08,3.162
				C103.425,279.317,104.251,278.291,104.251,276.155z M114.051,270.884h3.391l-13.617,19.942h-3.391L114.051,270.884z
				 M110.775,285.556c0-3.361,2.052-5.498,4.929-5.498c2.906,0,4.957,2.137,4.957,5.498c0,3.361-2.051,5.498-4.957,5.498
				C112.826,291.054,110.775,288.917,110.775,285.556z M117.783,285.556c0-2.108-0.826-3.162-2.08-3.162
				c-1.225,0-2.079,1.025-2.079,3.162s0.854,3.162,2.079,3.162C116.957,288.718,117.783,287.664,117.783,285.556z"/>
		</g>
	</g>
	<g>

			<linearGradient id="SVGID_00000085966628204431738350000004157989817404714175_" gradientUnits="userSpaceOnUse" x1="352.8412" y1="146.2392" x2="360.8327" y2="163.9982">
			<stop  offset="0" style="stop-color:#9571CB"/>
			<stop  offset="0.9959" style="stop-color:#6237C0"/>
		</linearGradient>
		<path style="fill:url(#SVGID_00000085966628204431738350000004157989817404714175_);" d="M356.836,143.116L356.836,143.116
			c1.131,6.098,5.902,10.869,12,12l0,0l0,0c-6.098,1.131-10.869,5.902-12,12l0,0l0,0c-1.131-6.098-5.902-10.869-12-12l0,0l0,0
			C350.934,153.985,355.705,149.214,356.836,143.116L356.836,143.116z"/>

			<linearGradient id="SVGID_00000109733605499578826980000009967011691045617541_" gradientUnits="userSpaceOnUse" x1="98.4844" y1="213.9566" x2="106.476" y2="231.7156">
			<stop  offset="0" style="stop-color:#9571CB"/>
			<stop  offset="0.9959" style="stop-color:#6237C0"/>
		</linearGradient>
		<path style="fill:url(#SVGID_00000109733605499578826980000009967011691045617541_);" d="M102.479,210.833L102.479,210.833
			c1.131,6.098,5.902,10.869,12,12l0,0l0,0c-6.098,1.131-10.869,5.902-12,12l0,0l0,0c-1.131-6.098-5.902-10.869-12-12l0,0l0,0
			C96.577,221.703,101.348,216.932,102.479,210.833L102.479,210.833z"/>

			<linearGradient id="SVGID_00000064323938308932737420000006963051060258417839_" gradientUnits="userSpaceOnUse" x1="335.2054" y1="369.5056" x2="340.6417" y2="381.5864">
			<stop  offset="0" style="stop-color:#263681"/>
			<stop  offset="0.9959" style="stop-color:#1A1248"/>
		</linearGradient>
		<path style="fill:url(#SVGID_00000064323938308932737420000006963051060258417839_);" d="M337.923,367.381L337.923,367.381
			c0.769,4.148,4.015,7.394,8.163,8.163l0,0l0,0c-4.148,0.769-7.394,4.015-8.163,8.163l0,0l0,0
			c-0.769-4.148-4.015-7.394-8.163-8.163l0,0l0,0C333.908,374.775,337.154,371.53,337.923,367.381L337.923,367.381z"/>

			<linearGradient id="SVGID_00000147184465904477207460000002022579723913161090_" gradientUnits="userSpaceOnUse" x1="145.4707" y1="94.5801" x2="150.907" y2="106.6609">
			<stop  offset="0" style="stop-color:#263681"/>
			<stop  offset="0.9959" style="stop-color:#1A1248"/>
		</linearGradient>
		<path style="fill:url(#SVGID_00000147184465904477207460000002022579723913161090_);" d="M148.188,92.455L148.188,92.455
			c0.769,4.148,4.015,7.394,8.163,8.163l0,0l0,0c-4.148,0.769-7.394,4.015-8.163,8.163l0,0l0,0
			c-0.769-4.148-4.015-7.394-8.163-8.163l0,0l0,0C144.173,99.85,147.419,96.604,148.188,92.455L148.188,92.455z"/>

			<linearGradient id="SVGID_00000113310592547881058090000004950316063067859121_" gradientUnits="userSpaceOnUse" x1="362.2816" y1="265.2307" x2="367.7179" y2="277.3115">
			<stop  offset="0" style="stop-color:#263681"/>
			<stop  offset="0.9959" style="stop-color:#1A1248"/>
		</linearGradient>
		<path style="fill:url(#SVGID_00000113310592547881058090000004950316063067859121_);" d="M364.999,263.106L364.999,263.106
			c0.769,4.148,4.015,7.394,8.163,8.163l0,0l0,0c-4.148,0.769-7.394,4.015-8.163,8.163l0,0l0,0
			c-0.769-4.148-4.015-7.394-8.163-8.163l0,0l0,0C360.984,270.5,364.23,267.254,364.999,263.106L364.999,263.106z"/>
	</g>
	<g>

			<linearGradient id="SVGID_00000089549634475586364090000003224311512668542398_" gradientUnits="userSpaceOnUse" x1="123.4922" y1="135.3117" x2="159.3912" y2="215.0874">
			<stop  offset="0.0041" style="stop-color:#FFFFFF"/>
			<stop  offset="1" style="stop-color:#F5F0FF"/>
		</linearGradient>
		<path style="fill:url(#SVGID_00000089549634475586364090000003224311512668542398_);" d="M182.013,210.833l-14.195-16.729h-61.341
			c-7.559,0-13.688-6.128-13.688-13.688v-28.389c0-7.559,6.128-13.688,13.688-13.688h61.848c7.56,0,13.688,6.128,13.688,13.688
			V210.833z"/>
		<g>
			<g>
				<path style="fill:#F0EBFF;" d="M165.453,150.992H109.35c-0.829,0-1.5-0.671-1.5-1.5s0.671-1.5,1.5-1.5h56.103
					c0.829,0,1.5,0.671,1.5,1.5S166.282,150.992,165.453,150.992z"/>
			</g>
			<g>
				<path style="fill:#F0EBFF;" d="M165.453,162.314H109.35c-0.829,0-1.5-0.671-1.5-1.5s0.671-1.5,1.5-1.5h56.103
					c0.829,0,1.5,0.671,1.5,1.5S166.282,162.314,165.453,162.314z"/>
			</g>
			<g>
				<path style="fill:#F0EBFF;" d="M165.453,173.636H109.35c-0.829,0-1.5-0.671-1.5-1.5c0-0.829,0.671-1.5,1.5-1.5h56.103
					c0.829,0,1.5,0.671,1.5,1.5C166.953,172.965,166.282,173.636,165.453,173.636z"/>
			</g>
			<g>
				<path style="fill:#F0EBFF;" d="M165.453,184.958H109.35c-0.829,0-1.5-0.671-1.5-1.5c0-0.829,0.671-1.5,1.5-1.5h56.103
					c0.829,0,1.5,0.671,1.5,1.5C166.953,184.286,166.282,184.958,165.453,184.958z"/>
			</g>
		</g>
	</g>
	<g>
		<g>

				<linearGradient id="SVGID_00000137839024186806048440000016612656053476069762_" gradientUnits="userSpaceOnUse" x1="159.673" y1="320.3963" x2="186.816" y2="380.7141">
				<stop  offset="0" style="stop-color:#9571CB"/>
				<stop  offset="0.0962" style="stop-color:#8A64C9"/>
				<stop  offset="0.3212" style="stop-color:#744BC4"/>
				<stop  offset="0.5271" style="stop-color:#673CC1"/>
				<stop  offset="0.6948" style="stop-color:#6237C0"/>
			</linearGradient>
			<circle style="fill:url(#SVGID_00000137839024186806048440000016612656053476069762_);" cx="172.707" cy="349.36" r="35.697"/>

				<linearGradient id="SVGID_00000139987277514669657240000010632221833697543552_" gradientUnits="userSpaceOnUse" x1="162.1169" y1="325.827" x2="183.3032" y2="372.9078">
				<stop  offset="0" style="stop-color:#F5F0FF"/>
				<stop  offset="0.9959" style="stop-color:#D2C1F7"/>
			</linearGradient>
			<circle style="fill:url(#SVGID_00000139987277514669657240000010632221833697543552_);" cx="172.707" cy="349.36" r="29.004"/>
		</g>
		<g>
			<g>

					<linearGradient id="SVGID_00000163050646333840437460000006766391598304446645_" gradientUnits="userSpaceOnUse" x1="206.0064" y1="335.7654" x2="213.5843" y2="367.0986" gradientTransform="matrix(0.9207 0.3903 -0.3903 0.9207 115.2307 -56.817)">
					<stop  offset="0" style="stop-color:#FFC085"/>
					<stop  offset="1" style="stop-color:#FA976E"/>
				</linearGradient>
				<path style="fill:url(#SVGID_00000163050646333840437460000006766391598304446645_);" d="M181.618,345.973
					c-7.531-1.359-10.541-6.79-10.769-10.409c-0.228-3.619-1.623-6.242-4.242-4.938c-2.619,1.305-3.238,8.835-1.694,12.794
					c-6.7-1.041-12.952-0.25-13.565,3.049c6.547,5.781,4.27,12.391,1.832,15.634c3.182,2.236,17.266,3.395,20.707,2.875
					c3.441-0.521,6.303-5.34,9.432-5.208c3.129,0.131,6.258,0.263,6.258,0.263l0.561-13.369
					C190.137,346.663,185.388,346.653,181.618,345.973z"/>
				<path style="fill:#F9E6E1;" d="M174.841,355.217c-3.52-1.076-6.399-4.968-7.01-6.479
					C167.862,351.935,171.945,355.284,174.841,355.217z"/>
				<path style="fill:#F9E6E1;" d="M157.399,363.515c4.772,0.616,7.989-0.1,9.199-1.807c1.209-1.707,0.214-3.204-1.148-4.163
					L157.399,363.515z"/>

					<linearGradient id="SVGID_00000066481704155707271210000005879817115825128369_" gradientUnits="userSpaceOnUse" x1="202.612" y1="371.477" x2="203.7037" y2="363.7621" gradientTransform="matrix(0.9207 0.3903 -0.3903 0.9207 115.2307 -56.817)">
					<stop  offset="0" style="stop-color:#FFC085"/>
					<stop  offset="1" style="stop-color:#FA976E"/>
				</linearGradient>
				<path style="fill:url(#SVGID_00000066481704155707271210000005879817115825128369_);" d="M164.779,357.998
					c1.592,0.38,2.792,3.19-0.424,4.491s-8.492,1.706-11.453-0.439c-1.308-0.947-1.646-3.323,2.154-4.186
					S162.536,357.463,164.779,357.998z"/>
				<path style="fill:#F9E6E1;" d="M153.99,359.216c3.095,0.852,9.305,1.539,11.761-0.632c2.456-2.171-0.907-5.146-0.907-5.146
					L153.99,359.216z"/>

					<linearGradient id="SVGID_00000060727312274966760000000000763734984761410743_" gradientUnits="userSpaceOnUse" x1="200.5229" y1="368.6727" x2="201.724" y2="360.1843" gradientTransform="matrix(0.9207 0.3903 -0.3903 0.9207 115.2307 -56.817)">
					<stop  offset="0" style="stop-color:#FFC085"/>
					<stop  offset="1" style="stop-color:#FA976E"/>
				</linearGradient>
				<path style="fill:url(#SVGID_00000060727312274966760000000000763734984761410743_);" d="M164.023,353.513
					c1.592,0.38,3.483,3.901,0.268,5.202c-3.216,1.301-11.841,0.944-12.711-0.417c-0.87-1.361-0.896-3.815,2.904-4.678
					C158.283,352.758,161.779,352.978,164.023,353.513z"/>
				<path style="fill:#F9E6E1;" d="M164.814,348.709c2.135,2.107,1.802,4.093,1.224,4.912c-0.578,0.818-2.358,2.399-10.521,1.266
					C156.05,354.82,164.814,348.709,164.814,348.709z"/>

					<linearGradient id="SVGID_00000078738630111100347460000014410685211461848762_" gradientUnits="userSpaceOnUse" x1="198.1715" y1="364.9641" x2="199.4374" y2="356.0187" gradientTransform="matrix(0.9207 0.3903 -0.3903 0.9207 115.2307 -56.817)">
					<stop  offset="0" style="stop-color:#FFC085"/>
					<stop  offset="1" style="stop-color:#FA976E"/>
				</linearGradient>
				<path style="fill:url(#SVGID_00000078738630111100347460000014410685211461848762_);" d="M163.692,348.751
					c1.713,0.409,3.874,4.563,0.288,5.598c-3.267,0.943-12.51,0.89-13.446-0.574c-0.936-1.464-0.964-4.105,3.125-5.034
					C157.748,347.812,161.277,348.174,163.692,348.751z"/>
				<path style="fill:#F9E6E1;" d="M165.437,345.16c1.178,1.7,1.25,3.002,0.6,3.882c-0.651,0.88-8.024,1.515-11.644,0.517
					L165.437,345.16z"/>

					<linearGradient id="SVGID_00000065057199163329377340000013811954193533090450_" gradientUnits="userSpaceOnUse" x1="189.9522" y1="354.4618" x2="204.6206" y2="354.4618" gradientTransform="matrix(0.9207 0.3903 -0.3903 0.9207 115.2307 -56.817)">
					<stop  offset="0" style="stop-color:#FFC085"/>
					<stop  offset="1" style="stop-color:#FA976E"/>
				</linearGradient>
				<path style="fill:url(#SVGID_00000065057199163329377340000013811954193533090450_);" d="M162.389,343.041
					c3.092,0.446,5.517,5.29,1.795,6.108c-3.359,0.738-11.805,0.922-12.741-0.542c-0.936-1.464-1.437-4.228,2.652-5.157
					C158.185,342.521,160.32,342.743,162.389,343.041z"/>
			</g>

				<linearGradient id="SVGID_00000044151297443242618010000017368594815425911469_" gradientUnits="userSpaceOnUse" x1="225.0685" y1="343.0787" x2="229.8187" y2="357.1807" gradientTransform="matrix(0.9207 0.3903 -0.3903 0.9207 115.2307 -56.817)">
				<stop  offset="0" style="stop-color:#F5F0FF"/>
				<stop  offset="0.9959" style="stop-color:#D2C1F7"/>
			</linearGradient>
			<path style="fill:url(#SVGID_00000044151297443242618010000017368594815425911469_);" d="M185.285,346.358
				c-0.24,0.566-1.371,12.706-0.516,13.493c0.854,0.787,6.21,0.145,6.21,0.145s1.137-12.472,0.81-13.369
				C191.462,345.73,185.983,346.047,185.285,346.358z"/>

				<linearGradient id="SVGID_00000051354283864022208110000014718332671566478260_" gradientUnits="userSpaceOnUse" x1="227.1999" y1="340.9085" x2="232.6917" y2="355.8513" gradientTransform="matrix(0.9207 0.3903 -0.3903 0.9207 115.2307 -56.817)">
				<stop  offset="0" style="stop-color:#263681"/>
				<stop  offset="0.9959" style="stop-color:#1A1248"/>
			</linearGradient>
			<path style="fill:url(#SVGID_00000051354283864022208110000014718332671566478260_);" d="M187.39,345.574
				c-0.274,0.647-1.284,14.646-0.224,15.581c1.06,0.935,7.541,0.353,7.541,0.353s1.007-14.381,0.584-15.428
				C194.867,345.034,188.227,345.236,187.39,345.574z"/>
		</g>
	</g>
</g>
</svg>
