<svg width="450" height="450" viewBox="0 0 450 450" fill="none" xmlns="http://www.w3.org/2000/svg">
<path d="M78.253 231.345C-1.69398 277.497 -1.68498 352.323 78.253 398.484C158.191 444.645 287.8 444.6 367.747 398.484C447.694 352.368 447.685 277.497 367.747 231.345C287.809 185.193 158.2 185.184 78.253 231.345Z" fill="#52C3FF" fill-opacity="0.25"/>
<path d="M195.624 417.771C216.953 417.771 234.243 407.79 234.243 395.478C234.243 383.166 216.953 373.185 195.624 373.185C174.295 373.185 157.005 383.166 157.005 395.478C157.005 407.79 174.295 417.771 195.624 417.771Z" fill="#E0E0E0"/>
<path d="M260.316 401.742C283.19 401.742 301.734 391.036 301.734 377.829C301.734 364.622 283.19 353.916 260.316 353.916C237.441 353.916 218.898 364.622 218.898 377.829C218.898 391.036 237.441 401.742 260.316 401.742Z" fill="#E0E0E0"/>
<path d="M66.96 367.488L58.572 372.33C58.5926 364.077 57.687 355.847 55.872 347.796C50.31 321.948 39.024 317.457 33.525 307.395C27.747 296.811 35.172 290.466 42.174 291.555C48.474 292.518 58.374 300.213 63.297 316.098C69.876 337.041 68.265 357.939 66.96 367.488Z" fill="#FF1F70"/>
<path opacity="0.5" d="M66.96 367.488L58.572 372.33C58.5926 364.077 57.687 355.847 55.872 347.796C50.31 321.948 39.024 317.457 33.525 307.395C27.747 296.811 35.172 290.466 42.174 291.555C48.474 292.518 58.374 300.213 63.297 316.098C69.876 337.041 68.265 357.939 66.96 367.488Z" fill="white"/>
<path d="M62.0279 365.445C61.9705 365.436 61.9155 365.416 61.8659 365.386C61.8163 365.356 61.7731 365.316 61.7388 365.27C61.7045 365.223 61.6798 365.17 61.6661 365.113C61.6524 365.057 61.6499 364.998 61.6589 364.941C66.1049 333.828 52.2269 307.017 40.9589 297.927C40.9139 297.89 40.8767 297.845 40.8492 297.794C40.8217 297.743 40.8045 297.687 40.7986 297.63C40.7928 297.572 40.7984 297.514 40.8151 297.458C40.8317 297.403 40.8592 297.351 40.8959 297.306C40.9303 297.26 40.9738 297.221 41.0237 297.192C41.0737 297.163 41.129 297.144 41.1863 297.138C41.2437 297.131 41.3018 297.136 41.3571 297.153C41.4124 297.169 41.4637 297.197 41.5079 297.234C52.9469 306.468 67.0229 333.612 62.5319 365.067C62.5141 365.183 62.4513 365.288 62.3571 365.359C62.2629 365.43 62.1447 365.46 62.0279 365.445Z" fill="white"/>
<path d="M62.757 369.9L58.572 372.312L57.888 372.708C56.511 366.453 52.83 359.928 45.855 352.908C37.674 344.709 26.271 337.05 28.287 330.165C30.303 323.28 39.501 325.098 45.855 329.175C51.822 333.054 64.53 347.193 62.757 369.9Z" fill="#FF1F70"/>
<path opacity="0.65" d="M62.757 369.9L58.572 372.312L57.888 372.708C56.511 366.453 52.83 359.928 45.855 352.908C37.674 344.709 26.271 337.05 28.287 330.165C30.303 323.28 39.501 325.098 45.855 329.175C51.822 333.054 64.53 347.193 62.757 369.9Z" fill="white"/>
<path d="M60.5341 367.983C60.4321 367.967 60.3389 367.916 60.27 367.839C60.2012 367.762 60.161 367.663 60.1561 367.56C59.5711 352.314 42.8401 332.577 34.8661 329.337C34.806 329.32 34.7502 329.291 34.7023 329.251C34.6543 329.211 34.6154 329.162 34.588 329.106C34.5607 329.05 34.5455 328.989 34.5434 328.926C34.5414 328.864 34.5526 328.802 34.5763 328.744C34.6 328.687 34.6357 328.635 34.6809 328.592C34.7262 328.549 34.78 328.516 34.8388 328.496C34.8977 328.475 34.9602 328.467 35.0223 328.473C35.0844 328.478 35.1446 328.497 35.1991 328.527C43.5511 331.92 60.3991 351.684 61.0291 367.524C61.0327 367.582 61.0246 367.641 61.0051 367.696C60.9856 367.751 60.9551 367.801 60.9156 367.844C60.8761 367.887 60.8283 367.921 60.7751 367.945C60.7219 367.969 60.6644 367.982 60.6061 367.983H60.5341Z" fill="white"/>
<path d="M298.242 64.7191L303.039 86.1931L322.767 97.7401L317.862 76.041L298.242 64.7191Z" fill="#FF1F70"/>
<path opacity="0.2" d="M298.242 64.7191L303.039 86.1931L322.767 97.7401L317.862 76.041L298.242 64.7191Z" fill="black"/>
<path d="M255.717 170.649L317.862 76.041L298.242 64.719L372.834 43.668L386.415 115.623L366.849 104.328L304.704 198.927L255.717 170.649Z" fill="#FF1F70"/>
<path opacity="0.2" d="M255.717 170.649L317.862 76.041L298.242 64.719L372.834 43.668L386.415 115.623L366.849 104.328L304.704 198.927L255.717 170.649Z" fill="white"/>
<path d="M366.849 104.328L304.731 198.927L315.729 211.437L371.826 126.054L391.347 137.331L386.415 115.623L366.849 104.328Z" fill="#FF1F70"/>
<path opacity="0.2" d="M366.849 104.328L304.731 198.927L315.729 211.437L371.826 126.054L391.347 137.331L386.415 115.623L366.849 104.328Z" fill="black"/>
<path d="M266.715 183.24L255.717 170.739L304.731 198.927L315.729 211.437L266.715 183.24Z" fill="#FF1F70"/>
<path opacity="0.4" d="M266.715 183.24L255.717 170.739L304.731 198.927L315.729 211.437L266.715 183.24Z" fill="black"/>
<path opacity="0.2" d="M371.826 126.054L366.849 104.328L386.415 115.623L391.347 137.331L371.826 126.054Z" fill="black"/>
<path d="M93.8339 414.108L166.455 303.831L117.468 275.553L44.8469 385.83L93.8339 414.108Z" fill="#FF1F70"/>
<path opacity="0.2" d="M93.8339 414.108L166.455 303.831L117.468 275.553L44.8469 385.83L93.8339 414.108Z" fill="white"/>
<path d="M166.455 303.831L93.834 414.108L123.219 397.143L176.184 317.034L166.455 303.831Z" fill="#FF1F70"/>
<path opacity="0.2" d="M166.455 303.831L93.834 414.108L123.219 397.143L176.184 317.034L166.455 303.831Z" fill="black"/>
<path d="M296.028 356.058C296.028 361.26 296.028 368.298 296.028 372.771C296.028 373.743 296.028 374.949 296.028 376.542C295.317 381.222 291.852 385.803 285.642 389.385C271.602 397.485 248.841 397.485 234.801 389.385C227.601 385.209 224.055 379.683 224.289 374.211C224.289 373.743 224.379 373.257 224.433 372.753C224.433 372.753 224.433 372.753 224.433 372.699C225.045 367.38 225.477 362.052 225.774 357.057C226.251 349.128 226.188 345.636 226.125 341.37C226.044 336.105 223.857 331.974 218.304 327.303C212.751 322.632 201.708 306.666 201.708 306.666L274.941 269.019L295.758 334.971C295.758 334.971 296.028 350.856 296.028 356.058Z" fill="#FFA8A7"/>
<path d="M275.508 255.357C275.508 255.357 274.131 260.901 267.588 253.557C261.045 246.213 250.335 234.999 239.049 224.208C233.649 219.033 211.977 201.609 197.442 188.433C192.807 183.654 186.228 180.333 181.701 183.789C177.174 187.245 177.201 195.804 180.018 200.034C182.538 203.787 187.938 208.989 192.06 212.724C192.06 212.949 192.015 213.174 191.988 213.399C191.205 220.212 189.81 227.871 189.153 236.124C188.757 241.047 182.853 247.239 182.907 252.324C184.653 259.524 194.184 267.237 200.907 272.619C207.63 278.001 210.582 280.188 210.51 281.889C210.393 284.49 199.476 275.022 194.625 271.692C194.895 287.145 185.013 289.008 185.013 289.008C186.498 291.978 194.913 298.53 206.892 313.857C211.617 319.914 259.713 280.098 259.713 280.098L271.134 272.763L279.171 259.47L275.508 255.357Z" fill="#FFA8A7"/>
<path d="M271.521 268.992C267.021 274.662 249.282 292.752 263.232 316.737C262.269 315.842 261.395 314.857 260.622 313.794C258.625 311.136 257.044 308.189 255.933 305.055C255.888 304.938 255.852 304.83 255.816 304.713C252.648 295.587 253.728 286.29 259.641 278.442C264.294 272.277 272.763 266.283 273.897 259.632C273.897 259.389 273.96 259.146 273.978 258.912C274.176 261 274.41 265.374 271.521 268.992Z" fill="#F28F8F"/>
<path opacity="0.5" d="M179.1 187.2C177.3 191.268 177.849 196.866 180 200.034C182.52 203.787 187.92 208.989 192.042 212.724L191.988 213.264C193.788 214.821 195.759 216.477 197.901 218.367C203.067 222.912 209.898 228.78 215.055 233.334C217.638 235.611 229.905 245.484 234.36 249.453C227.511 241.938 212.121 228.303 204.381 220.653C198.54 214.902 189.918 206.874 187.119 203.67C184.32 200.466 182.673 198.27 181.719 197.082C180.63 195.701 179.836 194.112 179.385 192.412C178.935 190.713 178.838 188.939 179.1 187.2Z" fill="#F28F8F"/>
<path d="M192.258 295.65C193.611 295.467 194.912 295.008 196.081 294.303C197.25 293.597 198.261 292.658 199.053 291.546C200.853 288.549 201.204 286.218 200.718 281.538C200.473 279.351 200.03 277.192 199.395 275.085C197.793 273.933 196.119 272.691 194.634 271.674C194.904 287.127 185.022 288.99 185.022 288.99C185.697 290.331 187.794 292.419 190.998 295.722C191.421 295.713 191.835 295.686 192.258 295.65Z" fill="#F28F8F"/>
<path d="M184.347 233.208C183.96 233.559 189.432 238.833 190.008 239.148C192.033 240.282 195.903 238.878 197.577 237.474C198.622 236.563 199.434 235.415 199.944 234.126C201.744 229.806 200.844 224.865 199.944 220.266C199.921 219.898 199.821 219.539 199.648 219.213C199.476 218.887 199.236 218.602 198.945 218.376C198.837 220.788 196.713 221.832 195.147 223.281L190.647 227.412L184.347 233.208Z" fill="#F28F8F"/>
<path d="M196.785 236.043L225.423 264.951L191.988 236.925L196.785 236.043Z" fill="#F28F8F"/>
<path d="M192.87 260.739C194.257 260.281 195.522 259.514 196.569 258.496C197.617 257.478 198.42 256.235 198.918 254.862C199.737 252.513 199.602 249.957 199.44 247.473C199.414 245.357 199.056 243.258 198.378 241.254L184.986 245.808C183.816 248.049 182.871 250.308 182.907 252.306C183.618 255.231 185.481 258.192 188.1 261.036C189.692 261.307 191.324 261.206 192.87 260.739Z" fill="#F28F8F"/>
<path d="M189.306 212.517C195.192 211.977 198.306 214.56 199.602 219.843C200.137 222.846 200.137 225.921 199.602 228.924C199.044 232.848 195.336 237.555 190.548 236.853H190.314C182.574 235.593 181.701 231.453 181.701 224.73C181.701 218.007 184.068 212.994 189.306 212.517Z" fill="#FFA8A7"/>
<path opacity="0.5" d="M196.254 214.074C196.686 214.443 199.179 216.891 199.206 223.659C199.206 231.057 195.516 232.587 191.412 233.253C187.308 233.919 181.8 231.354 181.8 227.7C182.151 232.677 183.798 235.8 190.323 236.862H190.557C195.345 237.564 199.053 232.857 199.611 228.933C200.147 225.93 200.147 222.855 199.611 219.852C199.188 217.598 198.003 215.558 196.254 214.074Z" fill="#F28F8F"/>
<path d="M189.441 236.106C194.841 235.611 197.64 237.969 198.846 242.793C199.331 245.538 199.331 248.346 198.846 251.091C198.342 254.691 194.94 258.975 190.575 258.291H190.359C183.294 257.139 182.493 253.341 182.493 247.221C182.493 241.101 184.653 236.538 189.441 236.106Z" fill="#FFA8A7"/>
<path opacity="0.5" d="M196.938 238.653C197.694 239.778 198.243 242.55 197.838 246.753C197.253 252.252 196.038 254.916 191.277 255.267C186.3 255.618 183.24 253.314 182.709 250.893C183.186 254.889 184.869 257.418 190.404 258.318H190.62C194.985 258.966 198.387 254.718 198.891 251.118C199.376 248.373 199.376 245.565 198.891 242.82C198.55 241.306 197.883 239.884 196.938 238.653Z" fill="#F28F8F"/>
<path d="M189.729 269.37C195.309 268.866 199.485 271.512 199.485 276.318V284.931C199.49 286.013 199.263 287.083 198.818 288.07C198.373 289.056 197.722 289.936 196.907 290.648C196.093 291.361 195.135 291.89 194.099 292.2C193.062 292.511 191.971 292.594 190.899 292.446H190.683C183.348 291.249 183.438 284.553 183.348 281.034C183.258 277.515 184.761 269.829 189.729 269.37Z" fill="#FFA8A7"/>
<path opacity="0.5" d="M196.767 270.9C199.206 273.447 198.252 278.64 198.072 283.761C197.937 287.316 196.092 290.259 191.232 290.259C186.372 290.259 184.194 287.298 183.537 284.391C183.942 287.748 185.337 291.537 190.683 292.41H190.899C191.971 292.558 193.062 292.475 194.099 292.164C195.135 291.854 196.093 291.325 196.907 290.612C197.722 289.9 198.373 289.02 198.818 288.034C199.263 287.047 199.49 285.977 199.485 284.895V276.3C199.517 275.245 199.285 274.198 198.811 273.255C198.336 272.313 197.634 271.503 196.767 270.9Z" fill="#F28F8F"/>
<path d="M127.863 267.678L247.914 176.652L296.937 204.939L176.85 295.965L127.863 267.678Z" fill="#FF1F70"/>
<path d="M296.937 204.939L307.935 217.44L186.579 309.159L176.85 295.965L296.937 204.939Z" fill="#FF1F70"/>
<path opacity="0.2" d="M296.937 204.939L307.935 217.44L186.579 309.159L176.85 295.965L296.937 204.939Z" fill="black"/>
<path d="M127.863 267.678L137.592 280.881L186.579 309.159L176.85 295.965L127.863 267.678Z" fill="#FF1F70"/>
<path opacity="0.4" d="M127.863 267.678L137.592 280.881L186.579 309.159L176.85 295.965L127.863 267.678Z" fill="black"/>
<path d="M295.767 334.953C295.796 320.017 296.809 305.098 298.8 290.295C300.915 275.526 300.501 262.89 299.862 259.317C299.223 255.744 299.025 250.56 293.517 243.972C290.925 240.867 285.228 236.349 280.476 230.769C275.724 225.189 271.215 218.889 268.677 215.469C266.139 212.049 259.848 217.548 260.154 228.447C260.406 237.348 266.454 245.133 268.839 248.463C271.71 252.522 273.744 256.446 273.969 258.894C274.167 260.964 274.401 265.356 271.503 268.992C267.003 274.653 249.273 292.743 263.223 316.692V338.697L295.767 334.953Z" fill="#FFA8A7"/>
<path d="M269.829 222.138C269.829 222.138 275.229 229.473 276.966 230.418C278.703 231.363 279.189 229.212 279.189 229.212C276.705 225.72 272.07 219.366 268.695 215.487C269.66 217.563 270.052 219.859 269.829 222.138Z" fill="#FFA8A7"/>
<path opacity="0.6" d="M269.829 222.138C269.829 222.138 275.229 229.473 276.966 230.418C278.703 231.363 279.189 229.212 279.189 229.212C276.705 225.72 272.07 219.366 268.695 215.487C269.66 217.563 270.052 219.859 269.829 222.138Z" fill="white"/>
<path d="M279.189 229.212C278.947 228.82 278.679 228.444 278.388 228.087C278.472 228.558 278.422 229.043 278.244 229.487C278.065 229.931 277.766 230.316 277.38 230.598C278.793 231.012 279.189 229.212 279.189 229.212Z" fill="#F28F8F"/>
<path opacity="0.2" d="M202.959 255.663C207.763 251.714 213.098 248.461 218.808 245.997C226.107 242.685 234.873 239.76 240.966 236.16C248.877 231.48 251.901 225.846 251.325 220.176C250.992 216.963 249.084 213.399 241.776 211.032C239.641 210.332 237.423 209.914 235.179 209.79C232.034 209.678 228.894 210.116 225.9 211.086C212.49 215.145 206.793 221.382 202.293 227.439C197.793 233.496 192.321 237.015 182.493 242.739C178.29 245.178 173.781 247.572 169.803 250.047L169.713 250.11C167.698 251.235 165.762 252.495 163.917 253.881C161.397 256.032 159.183 258.255 158.274 260.604C157.365 262.953 157.815 265.446 160.497 267.804C161.384 268.596 162.454 269.155 163.611 269.433C165.085 269.786 166.595 269.974 168.111 269.991C171.092 270.09 174.074 269.854 177.003 269.289C179.319 268.822 181.592 268.163 183.798 267.318C190.866 264.682 197.368 260.727 202.959 255.663Z" fill="black"/>
<path d="M161.82 136.215C161.082 138.168 158.94 142.308 159.075 142.83C159.462 144.122 159.506 145.494 159.201 146.808C159.012 147.807 150.372 151.2 150.372 151.2L150.165 149.832C150.024 148.918 150.142 147.982 150.507 147.132C152.157 143.428 153.391 139.552 154.188 135.576L161.82 136.215Z" fill="#FFA8A7"/>
<path d="M159.3 145.926L150.165 150.039L150.336 151.2C150.336 151.2 158.976 147.807 159.165 146.808C159.3 146.484 159.3 146.205 159.3 145.926Z" fill="#F28F8F"/>
<path d="M131.625 163.494L128.88 191.7C128.745 193.068 129.636 193.95 130.752 194.76L133.551 196.767C133.86 197.035 134.224 197.235 134.616 197.351C135.009 197.467 135.422 197.498 135.828 197.442C136.397 197.354 136.951 197.187 137.475 196.947H137.538L137.709 196.866L169.731 182.313C170.879 181.789 171.868 180.973 172.601 179.946C173.334 178.92 173.784 177.718 173.907 176.463L176.4 150.759C176.415 150.438 176.353 150.118 176.22 149.826C176.087 149.533 175.886 149.276 175.635 149.076L170.856 145.665C170.59 145.499 170.289 145.396 169.977 145.365C169.665 145.334 169.35 145.375 169.056 145.485L132.705 162C132.418 162.145 132.17 162.358 131.985 162.621C131.797 162.879 131.674 163.178 131.625 163.494Z" fill="#37474F"/>
<path d="M131.625 163.494L128.88 191.7C128.745 193.068 129.636 193.95 130.752 194.76L133.551 196.767C133.86 197.035 134.224 197.235 134.616 197.351C135.009 197.467 135.422 197.498 135.828 197.442C136.397 197.354 136.951 197.187 137.475 196.947C136.233 197.388 135.369 196.677 135.504 195.282L138.087 168.705C138.151 168.235 138.327 167.788 138.6 167.4L131.958 162.648C131.783 162.901 131.67 163.19 131.625 163.494Z" fill="#263238"/>
<path d="M138.087 168.696C138.163 168.216 138.349 167.76 138.632 167.365C138.915 166.969 139.286 166.646 139.716 166.419L174.042 150.822C175.401 150.201 176.4 150.912 176.247 152.397L173.916 176.445C173.793 177.701 173.341 178.903 172.606 179.93C171.872 180.957 170.88 181.772 169.731 182.295L137.7 196.848C136.341 197.469 135.351 196.758 135.495 195.273L138.087 168.696Z" fill="#455A64"/>
<path d="M174.933 151.947C174.927 152.052 174.927 152.157 174.933 152.262L172.593 176.31C172.492 177.331 172.126 178.307 171.531 179.142C170.935 179.978 170.132 180.643 169.2 181.071L137.178 195.624C137.075 195.672 136.966 195.705 136.854 195.723C136.854 195.723 136.854 195.57 136.854 195.408L139.437 168.831C139.475 168.582 139.572 168.345 139.719 168.14C139.866 167.935 140.059 167.768 140.283 167.652L174.6 152.046C174.703 151.998 174.812 151.965 174.924 151.947M174.924 150.597C174.611 150.607 174.304 150.683 174.024 150.822L139.689 166.419C139.259 166.646 138.888 166.969 138.605 167.365C138.322 167.76 138.136 168.216 138.06 168.696L135.504 195.3C135.396 196.416 135.927 197.1 136.782 197.1C137.094 197.088 137.401 197.012 137.682 196.875L169.704 182.322C170.853 181.799 171.845 180.984 172.579 179.957C173.314 178.93 173.766 177.728 173.889 176.472L176.22 152.424C176.337 151.308 175.797 150.624 174.942 150.624L174.924 150.597Z" fill="#37474F"/>
<path d="M172.413 146.772L136.008 163.503C135.494 163.74 135.051 164.107 134.723 164.568C134.394 165.029 134.192 165.568 134.136 166.131L131.31 195.156L131.805 195.516L134.658 166.185C134.707 165.714 134.876 165.263 135.151 164.876C135.425 164.49 135.795 164.181 136.224 163.98L172.908 147.123L172.413 146.772Z" fill="#FF1F70"/>
<path opacity="0.2" d="M134.721 164.574C134.392 165.032 134.19 165.569 134.136 166.131L131.31 195.156L131.805 195.516L134.658 166.185C134.709 165.715 134.88 165.266 135.153 164.88L134.721 164.574Z" fill="black"/>
<path opacity="0.2" d="M135.153 164.88C135.425 164.491 135.794 164.181 136.224 163.98L172.908 147.123L172.413 146.772L136.008 163.503C135.493 163.741 135.049 164.111 134.721 164.574" fill="black"/>
<path d="M159.822 149.184L159.399 153.549L161.01 154.701L161.577 148.905C161.577 148.608 161.406 148.464 161.136 148.59L159.822 149.184Z" fill="#FF1F70"/>
<path opacity="0.4" d="M159.822 149.184L159.399 153.549L161.01 154.701L161.577 148.905C161.577 148.608 161.406 148.464 161.136 148.59L159.822 149.184Z" fill="black"/>
<path d="M147.402 152.334L146.709 159.399L148.248 160.506L149.409 159.975L149.976 154.179C150 154.017 150.063 153.863 150.158 153.73C150.254 153.598 150.38 153.489 150.525 153.414L159.3 149.4L161.1 148.572C161.37 148.446 161.568 148.572 161.541 148.887L160.974 154.683L162.135 154.161L162.828 147.087V146.997C162.821 146.849 162.782 146.703 162.713 146.571C162.645 146.439 162.549 146.324 162.432 146.232L161.784 145.764C161.65 145.683 161.5 145.632 161.344 145.617C161.188 145.601 161.031 145.621 160.884 145.674L147.951 151.551C147.803 151.627 147.675 151.738 147.58 151.875C147.484 152.011 147.423 152.169 147.402 152.334Z" fill="#FF1F70"/>
<path opacity="0.2" d="M148.941 153.432L148.248 160.506L149.409 159.975L149.976 154.179C150.001 154.017 150.063 153.863 150.159 153.73C150.254 153.597 150.38 153.489 150.525 153.414L159.3 149.4L161.1 148.572C161.37 148.446 161.568 148.572 161.541 148.887L160.974 154.683L162.135 154.161L162.828 147.087V146.997C162.828 146.763 162.63 146.664 162.387 146.772L149.454 152.649C149.314 152.731 149.195 152.845 149.106 152.98C149.017 153.116 148.96 153.271 148.941 153.432Z" fill="black"/>
<path d="M157.932 148.86C158.12 148.861 158.302 148.921 158.454 149.031C158.574 148.834 158.744 148.671 158.946 148.559C159.148 148.447 159.375 148.39 159.606 148.392C159.708 148.379 159.811 148.4 159.9 148.45C159.989 148.5 160.059 148.578 160.101 148.671C160.115 148.736 160.115 148.804 160.101 148.869C160.041 149.523 159.951 150.171 159.831 150.813C159.809 151.291 159.621 151.746 159.3 152.1C159.151 152.225 158.973 152.309 158.783 152.346C158.592 152.382 158.395 152.369 158.211 152.307C158.075 152.615 157.822 152.858 157.509 152.982C157.437 152.982 156.528 153.09 156.609 152.982C156.431 153.364 156.134 153.677 155.762 153.875C155.39 154.073 154.964 154.145 154.548 154.08C154.548 154.08 154.305 154.782 153.018 154.629C152.606 154.538 152.223 154.347 151.902 154.075C151.58 153.802 151.33 153.454 151.173 153.063C151.245 152.676 151.38 152.514 151.821 152.343C152.037 152.253 152.271 152.163 152.487 152.055C152.768 151.849 153.009 151.592 153.198 151.299C153.406 151.027 153.678 150.81 153.99 150.669C154.149 150.603 154.322 150.582 154.492 150.607C154.661 150.633 154.821 150.704 154.953 150.813C155.009 150.549 155.148 150.309 155.349 150.129C155.506 149.937 155.726 149.806 155.97 149.76C156.042 149.76 156.627 149.85 156.555 150.003C156.711 149.614 156.981 149.281 157.329 149.049C157.51 148.934 157.718 148.869 157.932 148.86Z" fill="#FFA8A7"/>
<path d="M163.107 135.558C162.549 138.141 161.145 140.463 161.766 142.632C162.189 144.099 162.306 143.946 162.135 145.44C162.04 146.109 161.878 146.766 161.649 147.402C161.541 147.708 161.433 148.023 161.316 148.302C161.207 148.633 161.072 148.956 160.911 149.265C160.669 149.645 160.395 150.003 160.092 150.336C159.607 150.952 159.041 151.5 158.409 151.965L158.301 152.028C158.218 152.049 158.131 152.046 158.049 152.018C157.968 151.991 157.896 151.942 157.842 151.875C157.275 151.254 157.698 150.354 157.995 149.733C158.398 149.063 158.639 148.308 158.697 147.528C158.697 147.429 158.697 147.123 158.697 146.628L157.896 146.43C157.896 146.43 155.313 145.809 155.268 144.558C155.223 143.307 156.213 142.11 156.96 140.643C157.707 139.176 158.013 138.222 158.76 134.442L163.107 135.558Z" fill="#FFA8A7"/>
<path d="M160.911 149.301C160.31 150.255 159.573 151.116 158.724 151.857C158.58 151.956 158.463 152.145 158.202 152.163C157.005 151.938 157.572 150.363 157.977 149.652C158.365 149.016 158.61 148.304 158.697 147.564C158.683 148.32 158.478 149.059 158.103 149.715C157.788 150.363 157.203 151.695 158.202 151.992C159.242 151.244 160.154 150.332 160.902 149.292L160.911 149.301Z" fill="#F28F8F"/>
<path d="M158.499 146.421C158.184 146.259 157.842 146.142 157.545 145.953C157.314 145.798 157.115 145.599 156.96 145.368C156.525 144.814 156.31 144.118 156.357 143.415C156.357 143.415 156.357 143.298 156.294 143.415C156.179 143.803 156.15 144.211 156.211 144.611C156.271 145.011 156.42 145.392 156.645 145.728C156.846 146.041 157.117 146.303 157.437 146.493C157.599 146.592 157.775 146.665 157.959 146.709C158.138 146.781 158.338 146.781 158.517 146.709C158.589 146.601 158.553 146.448 158.499 146.421Z" fill="#F28F8F"/>
<path d="M178.443 83.745C172.872 83.313 168.417 84.42 165.528 91.755C162.279 100.044 159.066 106.434 157.428 112.455C155.79 118.476 153.432 137.547 153.432 137.547C153.432 137.547 157.644 141.219 162.279 139.545L169.299 117.873L178.416 100.332L178.443 83.745Z" fill="#00A7FF"/>
<path d="M241.776 220.581C242.163 220.311 242.739 221.31 242.748 221.94C242.748 223.74 241.578 226.377 238.95 228.717C236.322 231.057 230.013 233.532 228.195 234.45C226.377 235.368 223.821 237.987 222.21 239.265C219.267 241.578 216.567 241.92 214.929 241.47C214.637 241.359 214.371 241.188 214.149 240.968C213.927 240.748 213.755 240.483 213.642 240.192C212.985 238.95 212.958 238.644 213.093 238.581L241.776 220.581Z" fill="#37474F"/>
<path d="M211.5 234.81C211.998 236.435 212.732 237.979 213.678 239.391C214.135 239.684 214.648 239.878 215.185 239.959C215.722 240.039 216.269 240.005 216.792 239.859C219.247 239.263 221.497 238.02 223.308 236.259C224.587 235.04 226.029 234.004 227.592 233.181C229.491 232.281 233.766 230.409 235.62 229.41C237.36 228.475 238.892 227.195 240.12 225.648C241.02 224.406 242.163 222.129 242.046 220.959C241.218 218.529 240.246 217.359 238.572 217.305C236.898 217.251 234.783 218.205 232.029 219.456C231.201 219.834 230.175 220.356 229.725 220.536C228.015 221.256 226.449 221.976 225.225 222.579C224.195 223.163 223.049 223.511 221.868 223.596C221.327 223.639 220.787 223.496 220.338 223.191C219.771 222.768 219.321 221.94 218.799 222.165C218.799 222.165 210.582 228.771 209.898 229.257C209.214 229.743 210.213 230.733 211.5 234.81Z" fill="#455A64"/>
<path d="M230.301 220.086C230.698 220.144 231.078 220.286 231.417 220.5C231.784 220.735 232.123 221.013 232.425 221.328C232.803 221.724 232.281 222.129 231.759 221.724C231.347 221.37 230.894 221.068 230.409 220.824C230.063 220.663 229.674 220.621 229.302 220.707L228.816 220.914C228.753 220.5 229.824 220.05 230.301 220.086Z" fill="#FAFAFA"/>
<path d="M225.945 221.886C226.087 221.782 226.249 221.709 226.422 221.672C226.594 221.635 226.772 221.634 226.944 221.67C227.385 221.76 227.792 221.968 228.123 222.273C228.529 222.632 228.906 223.023 229.248 223.443C229.446 223.722 228.744 224.1 228.483 223.812C228.15 223.446 227.799 223.098 227.43 222.768C227.232 222.606 226.44 222.03 225.909 222.219L225.684 222.327C225.621 222.228 225.684 222.075 225.81 222.003C225.851 221.959 225.896 221.92 225.945 221.886Z" fill="#FAFAFA"/>
<path d="M223.506 223.2C223.733 223.119 223.981 223.119 224.208 223.2C224.492 223.325 224.753 223.495 224.982 223.704C225.389 224.101 225.734 224.556 226.008 225.054C226.233 225.432 225.477 225.72 225.315 225.477C224.962 224.793 224.434 224.216 223.785 223.803C223.491 223.632 223.161 223.53 222.822 223.506C222.822 223.434 222.903 223.362 222.975 223.335C223.047 223.308 223.38 223.2 223.506 223.2Z" fill="#FAFAFA"/>
<path d="M204.138 219.816C204.138 219.816 208.746 227.979 210.024 229.797C210.429 230.382 211.734 229.977 212.481 229.905C213.375 229.754 214.287 229.754 215.181 229.905C217.557 230.571 218.898 230.283 218.34 227.115C218.223 226.467 218.439 226.035 219.24 225.774C219.842 225.661 220.419 225.438 220.941 225.117C220.986 225.018 220.869 224.919 220.77 224.874C220.371 224.714 220.012 224.471 219.715 224.16C219.419 223.85 219.192 223.479 219.051 223.074C217.404 219.519 215.91 212.184 215.91 212.184L204.138 219.816Z" fill="#FFA8A7"/>
<path d="M169.2 238.068C170.613 235.809 171.378 231.462 174.483 222.615L186.012 231.066L179.406 243.9C179.175 244.482 179.001 245.085 178.884 245.7C177.345 247.959 169.2 238.068 169.2 238.068Z" fill="#FFA8A7"/>
<path d="M164.916 242.892C164.916 242.757 164.871 241.695 164.916 241.569C165.222 240.417 165.933 240.102 166.842 239.463C167.761 238.848 168.604 238.126 169.353 237.312C169.659 236.889 169.713 236.673 170.19 236.484C170.804 236.29 171.453 236.233 172.092 236.315C172.731 236.397 173.344 236.618 173.889 236.961C176.499 238.338 177.3 239.994 177.147 241.785C177.039 243.153 176.922 244.971 178.128 245.781C178.632 246.123 179.424 243.981 179.424 243.981C180.162 245.232 179.118 246.951 178.578 249.48C178.257 250.872 178.232 252.317 178.506 253.719C178.767 255.933 179.073 255.924 180.252 256.077C181.26 256.212 184.14 256.023 185.886 257.238C186.557 257.623 187.091 258.208 187.414 258.912C187.737 259.615 187.832 260.402 187.686 261.162C187.371 262.017 184.752 266.148 175.185 264.6C172.404 264.159 166.572 259.794 166.662 259.38C166.711 258.964 166.711 258.545 166.662 258.129C166.662 257.148 166.59 256.176 166.545 255.195C166.582 254.259 166.527 253.322 166.383 252.396C166.208 251.634 166.088 250.862 166.023 250.083C165.843 248.121 165.66 246.156 165.474 244.188C165.348 243.576 164.844 243.45 164.916 242.892Z" fill="#455A64"/>
<path d="M163.719 242.505C162.819 243.405 163.341 246.105 164.619 249.246C165.186 250.659 166.23 253.089 165.924 255.672C165.618 258.255 165.555 259.47 166.221 260.685C167.265 262.575 172.827 264.996 176.121 265.761C174.143 262.978 172.991 259.693 172.8 256.284C172.476 250.587 172.035 246.915 169.434 244.386C166.104 241.2 163.719 242.505 163.719 242.505Z" fill="#263238"/>
<path d="M187.632 261.117C187.632 261.117 185.715 264.717 178.308 264.6C175.392 264.555 173.808 263.133 173.754 258.696C173.673 253.359 173.241 247.968 171.513 245.313C169.785 242.658 167.013 241.38 164.898 241.569C164.404 241.707 163.983 242.029 163.719 242.469C163.719 242.469 165.852 241.767 169.173 244.521C171.63 246.555 172.287 250.821 172.251 256.095C172.251 258.363 172.098 260.946 172.764 262.665C173.067 263.425 173.546 264.104 174.16 264.645C174.775 265.186 175.508 265.574 176.301 265.779C180.324 266.913 185.841 265.05 187.227 263.349C187.452 263.029 187.605 262.663 187.675 262.278C187.745 261.892 187.73 261.496 187.632 261.117Z" fill="#37474F"/>
<path d="M178.731 255.069C179.035 255.285 179.249 255.605 179.334 255.969C179.37 256.423 179.284 256.879 179.084 257.289C178.885 257.699 178.58 258.048 178.2 258.3C177.759 258.57 177.372 258.48 178.074 257.544C178.523 256.798 178.751 255.94 178.731 255.069Z" fill="#FAFAFA"/>
<path d="M178.335 252.306C178.335 252.306 178.569 252.45 178.632 253.206C178.515 254.147 178.038 255.005 177.3 255.6C176.517 255.978 176.94 255.078 177.3 254.637C177.814 253.946 178.167 253.15 178.335 252.306Z" fill="#FAFAFA"/>
<path d="M178.596 249.246C178.596 249.246 178.848 249.318 178.596 250.344C178.234 250.983 177.666 251.481 176.985 251.757C176.481 251.82 176.238 251.568 176.859 251.118C177.3 250.767 178.506 249.741 178.596 249.246Z" fill="#FAFAFA"/>
<path d="M197.496 135.108C197.496 135.108 201.996 140.508 204.696 150.516C207.142 159.851 209.008 169.328 210.285 178.893C210.933 183.168 211.545 187.29 213.039 195.516C214.452 203.328 217.962 220.221 217.962 220.221C217.962 220.221 217.35 222.804 213.867 224.325C211.581 225.225 209.104 225.535 206.667 225.225C206.667 225.225 204.282 221.148 199.314 211.563C197.038 207.395 195.492 202.869 194.742 198.18C194.147 194.996 193.803 191.77 193.716 188.532L175.023 156.87C173.406 154.955 172.138 152.771 171.279 150.417C168.642 143.802 172.008 134.262 172.008 134.262L197.496 135.108Z" fill="#37474F"/>
<path d="M197.496 135.108C197.496 135.108 201.996 140.508 204.696 150.516C207.142 159.851 209.008 169.328 210.285 178.893C210.933 183.168 211.545 187.29 213.039 195.516C214.452 203.328 217.962 220.221 217.962 220.221C217.962 220.221 217.35 222.804 213.867 224.325C211.581 225.225 209.104 225.535 206.667 225.225C206.667 225.225 204.282 221.148 199.314 211.563C197.038 207.395 195.492 202.869 194.742 198.18C194.147 194.996 193.803 191.77 193.716 188.532L175.023 156.87C173.406 154.955 172.138 152.771 171.279 150.417C168.642 143.802 172.008 134.262 172.008 134.262L197.496 135.108Z" fill="#37474F"/>
<path d="M209.907 176.454C208.692 167.711 206.949 159.049 204.687 150.516C203.952 147.786 202.998 145.119 201.834 142.542L178.2 142.128C176.4 146.241 175.05 151.38 178.902 157.662L179.91 165.15L193.689 188.55C193.777 191.788 194.12 195.014 194.715 198.198C195.465 202.887 197.011 207.413 199.287 211.581L199.719 212.409C201.489 209.875 203.069 207.213 204.444 204.444C205.794 201.24 206.73 195.048 208.143 187.218C208.656 184.347 209.331 180.162 209.907 176.454Z" fill="#263238"/>
<path d="M181.944 135.108C179.222 138.307 177.622 142.308 177.39 146.502C177.206 150.567 178.483 154.564 180.99 157.77C181.89 171.486 184.635 197.901 184.635 197.901C181.035 201.636 180.072 204.039 177.975 210.735C176.706 214.794 172.989 227.07 171.549 231.651C180.342 232.029 181.998 239.562 181.998 239.562C181.998 239.562 192.654 222.381 198.036 212.679C202.014 205.479 202.536 203.796 203.598 199.521C204.66 195.246 204.885 191.286 206.19 182.367C207.495 173.448 209.79 161.145 210.456 152.361C211.122 143.577 211.212 134.262 211.212 134.262L181.944 135.108Z" fill="#37474F"/>
<path d="M170.316 145.854C171.366 145.514 172.286 144.861 172.953 143.982C173.267 143.371 173.497 142.72 173.637 142.047C173.905 140.915 174.275 139.809 174.744 138.744L175.419 139.05C174.976 140.081 174.618 141.147 174.348 142.236C174.197 142.983 173.94 143.704 173.583 144.378C172.79 145.451 171.663 146.23 170.379 146.592C170.361 146.349 170.334 146.106 170.316 145.854Z" fill="#263238"/>
<path d="M187.938 153.711C187.779 153.727 187.619 153.727 187.461 153.711C186.381 153.477 185.544 152.748 183.861 150.615C182.592 148.995 182.718 147.825 182.961 145.899C183.042 145.188 183.789 141.399 183.861 140.4L184.572 140.796C184.572 141.813 183.807 145.296 183.726 145.98C183.519 147.897 183.42 148.779 184.5 150.165C186.039 152.136 186.777 152.793 187.659 152.982C189.591 153.025 191.509 152.641 193.275 151.857C193.851 151.461 194.823 146.457 195.39 142.137L196.128 142.236C195.84 144.441 194.814 151.695 193.698 152.469C192.582 153.243 189.432 153.756 187.938 153.711Z" fill="#263238"/>
<path d="M171.819 87.723C169.308 92.52 169.614 96.822 170.343 103.563C171.009 109.782 171.477 113.625 172.053 121.311C172.496 126.089 172.324 130.905 171.54 135.639C171.54 135.639 171.783 139.356 182.736 142.146C201.978 147.051 211.212 141.462 211.212 141.462C211.212 141.462 211.68 130.662 210.933 116.451C210.096 100.566 209.817 98.244 208.593 94.464C207.62 92.2473 205.869 90.4639 203.67 89.451C201.753 88.551 197.181 87.093 194.463 86.04C190.086 84.5139 185.482 83.741 180.846 83.754C175.365 83.385 173.124 85.23 171.819 87.723Z" fill="#52C3FF"/>
<path d="M179.496 84.6C179.91 84.6 180.342 84.6 180.783 84.6H181.107C185.545 84.6148 189.949 85.3692 194.139 86.832C195.246 87.255 196.659 87.732 198.027 88.245C200.07 88.965 202.185 89.712 203.292 90.216C205.29 91.1179 206.89 92.718 207.792 94.716C208.953 98.316 209.223 100.269 210.078 116.424C210.717 128.664 210.456 138.519 210.375 140.832C209.097 141.453 204.858 143.19 197.613 143.19C192.669 143.172 187.747 142.537 182.961 141.3C173.898 138.996 172.611 136.125 172.458 135.666C173.217 130.905 173.383 126.068 172.953 121.266C172.467 114.759 172.053 110.997 171.54 106.236L171.234 103.482C170.514 96.759 170.226 92.736 172.62 88.182C173.52 86.436 175.059 84.654 179.496 84.654M179.496 83.754C174.996 83.754 173.016 85.491 171.819 87.768C169.308 92.565 169.614 96.867 170.343 103.608C171.009 109.827 171.477 113.67 172.053 121.356C172.496 126.134 172.324 130.95 171.54 135.684C171.54 135.684 171.783 139.401 182.736 142.191C187.577 143.477 192.559 144.154 197.568 144.207C206.757 144.207 211.212 141.507 211.212 141.507C211.212 141.507 211.68 130.707 210.933 116.496C210.096 100.611 209.817 98.289 208.593 94.509C207.62 92.2923 205.869 90.5089 203.67 89.496C201.753 88.596 197.181 87.138 194.463 86.085C190.17 84.5825 185.655 83.8098 181.107 83.799H180.846C180.369 83.799 179.946 83.799 179.496 83.799V83.754Z" fill="#00A7FF"/>
<path d="M194.94 80.604L194.4 86.445C191.196 87.138 183.429 86.643 181.971 84.645L182.277 79.245L194.94 80.604Z" fill="#FFA8A7"/>
<path d="M203.265 65.628C203.265 65.628 204.75 66.753 205.875 70.632L203.679 72.243C202.959 69.516 202.176 66.744 203.265 65.628Z" fill="#F28F8F"/>
<path d="M197.595 54.774C203.058 55.134 203.967 57.978 203.157 67.284C205.074 76.122 202.428 79.623 201.285 80.784C198.72 82.161 196.101 82.395 192.546 81.468C189.846 80.757 182.979 78.723 180.108 74.466C176.724 69.462 175.842 61.866 179.442 59.013C184.5 55.008 195.426 54.63 197.595 54.774Z" fill="#FFA8A7"/>
<path d="M201.285 80.775C200.655 81.414 197.01 82.575 194.76 82.323L194.94 80.604C197.037 80.9528 199.172 81.0103 201.285 80.775Z" fill="#F28F8F"/>
<path d="M198.171 61.2C198.056 61.6009 197.883 61.9829 197.658 62.334C197.021 63.2041 196.188 63.913 195.228 64.404C195.631 65.541 195.877 66.7281 195.957 67.932C195.989 68.321 195.901 68.7103 195.705 69.048C195.643 69.1709 195.547 69.2742 195.43 69.3464C195.312 69.4185 195.177 69.4567 195.039 69.4567C194.901 69.4567 194.766 69.4185 194.648 69.3464C194.531 69.2742 194.435 69.1709 194.373 69.048C194.082 68.3869 193.71 67.7642 193.266 67.194C192.694 66.5279 191.896 66.098 191.025 65.988C187.731 65.664 187.722 70.794 189.036 72.531C191.196 75.366 192.978 73.548 192.978 73.548C192.978 73.548 194.085 77.931 190.908 79.848C190.908 79.848 185.796 81.108 182.304 79.335C180.711 76.05 178.551 74.133 176.841 70.632C173.835 64.503 175.275 59.13 177.318 58.032C176.742 55.17 178.488 52.362 182.187 50.616C185.886 48.87 190.872 49.77 194.787 50.391C197.098 50.7612 199.463 50.6261 201.717 49.995C202.033 49.896 202.359 49.8356 202.689 49.815C202.859 49.8017 203.03 49.83 203.187 49.8974C203.344 49.9649 203.482 50.0694 203.589 50.202C203.697 50.3894 203.754 50.602 203.754 50.8185C203.754 51.0349 203.697 51.2475 203.589 51.435C203.361 51.7993 203.156 52.1781 202.977 52.569C203.387 52.5074 203.805 52.5847 204.165 52.7886C204.526 52.9925 204.808 53.3112 204.966 53.694C205.196 54.2292 205.284 54.8152 205.219 55.3944C205.154 55.9735 204.94 56.5258 204.597 56.997C203.896 57.9319 202.9 58.6039 201.771 58.905C200.647 59.2015 199.485 59.3289 198.324 59.283C198.433 59.9248 198.38 60.5836 198.171 61.2Z" fill="#263238"/>
<path d="M194.643 83.952C195.48 83.952 196.389 85.635 198.018 87.336C194.456 89.0813 190.433 89.6547 186.525 88.974C179.64 87.939 178.317 83.754 178.317 83.754C178.317 83.754 179.892 82.539 180.72 81.729C181.728 80.739 182.223 80.721 182.223 80.721L182.142 82.134C182.142 82.134 183.465 83.502 187.659 84.348C189.977 84.8889 192.401 84.7514 194.643 83.952Z" fill="#00A7FF"/>
<path d="M219.006 124.479C219.006 124.479 217.035 114.579 215.604 107.694C214.173 100.809 214.704 92.79 203.832 90.054C202.032 92.754 200.862 97.011 201.465 102.258C202.068 107.505 204.471 115.758 205.065 118.521C206.146 122.838 207.915 126.952 210.303 130.707C213.75 135.837 220.203 144.513 222.795 147.699C224.001 149.175 225.045 150.669 226.161 152.199C227.412 153.749 228.768 155.21 230.22 156.573C230.894 157.247 231.731 157.734 232.65 157.986C233.235 158.148 233.82 157.923 234.369 158.076C234.918 158.229 235.269 158.76 235.971 158.778C236.673 158.796 237.339 158.283 238.023 158.346C238.733 158.494 239.451 158.597 240.174 158.652C240.778 158.558 241.396 158.614 241.974 158.814C242.496 159.03 243.234 159.714 243.837 159.372C244.44 159.03 244.305 158.238 244.071 157.626C243.515 156.468 242.599 155.521 241.461 154.926C240.362 154.218 239.223 153.575 238.05 153C236.925 152.461 235.933 151.68 235.143 150.714C234.585 150.084 234.243 149.121 235.359 149.112C236.7 149.112 238.374 149.607 239.598 148.752C240.444 148.167 240.156 147.42 239.337 147.06C237.985 146.475 236.68 145.789 235.431 145.008C234.153 144.216 232.974 143.298 231.687 142.542C230.996 142.156 230.281 141.817 229.545 141.525C227.52 140.679 226.638 138.654 225.612 136.863C224.19 134.397 220.599 127.8 219.006 124.479Z" fill="#FFA8A7"/>
<path d="M203.31 113.931C203.31 113.931 201.402 106.434 200.907 103.293C200.412 100.152 200.142 92.007 203.391 89.334C205.731 89.901 212.004 91.017 213.813 96.921C215.622 102.825 218.313 118.35 218.313 118.35L226.485 137.637C226.485 137.637 226.485 139.437 223.092 141.75C219.699 144.063 217.926 143.28 217.926 143.28C217.926 143.28 211.185 133.074 207.918 128.043C205.74 124.668 205.2 122.4 203.31 113.931Z" fill="#00A7FF"/>
<path d="M226.08 387.135C224.161 384.149 221.513 381.702 218.385 380.025C205.785 372.771 185.427 372.771 172.854 380.025C169.727 381.7 167.08 384.147 165.168 387.135H163.431V393.714C163.665 398.286 166.797 402.822 172.836 406.314C185.436 413.568 205.794 413.568 218.367 406.314C224.415 402.822 227.565 398.286 227.799 393.714V387.135H226.08Z" fill="#FFD029"/>
<path opacity="0.25" d="M226.08 387.135C224.161 384.149 221.513 381.702 218.385 380.025C205.785 372.771 185.427 372.771 172.854 380.025C169.727 381.7 167.08 384.147 165.168 387.135H163.431V393.714C163.665 398.286 166.797 402.822 172.836 406.314C185.436 413.568 205.794 413.568 218.367 406.314C224.415 402.822 227.565 398.286 227.799 393.714V387.135H226.08Z" fill="black"/>
<path opacity="0.1" d="M195.624 374.58C187.38 374.58 179.145 376.38 172.854 380.025C169.727 381.7 167.08 384.147 165.168 387.135H163.431V393.714C163.665 398.286 166.797 402.822 172.836 406.314C179.136 409.914 187.362 411.759 195.606 411.759L195.624 374.58Z" fill="black"/>
<path opacity="0.1" d="M178.038 377.604C176.246 378.267 174.512 379.076 172.854 380.025C169.727 381.7 167.08 384.147 165.168 387.135H163.431V393.714C163.665 398.286 166.797 402.822 172.836 406.314C174.494 407.263 176.228 408.072 178.02 408.735L178.038 377.604Z" fill="black"/>
<path opacity="0.5" d="M213.201 377.604C214.993 378.267 216.727 379.076 218.385 380.025C221.513 381.702 224.161 384.149 226.08 387.135H227.817V393.714C227.583 398.286 224.433 402.822 218.385 406.314C216.727 407.263 214.993 408.072 213.201 408.735V377.604Z" fill="#FFD029"/>
<path d="M172.854 373.995C160.254 381.258 160.254 393.03 172.854 400.284C183.861 406.638 200.835 407.43 213.354 402.669L213.849 402.471C215.417 401.851 216.939 401.12 218.403 400.284C228.888 394.227 230.634 385.038 223.623 377.946C222.067 376.402 220.311 375.073 218.403 373.995C205.812 366.741 185.4 366.741 172.854 373.995Z" fill="#FFD029"/>
<path opacity="0.2" d="M172.854 373.995C160.254 381.258 160.254 393.03 172.854 400.284C183.861 406.638 200.835 407.43 213.354 402.669L213.849 402.471C215.417 401.851 216.939 401.12 218.403 400.284C228.888 394.227 230.634 385.038 223.623 377.946C222.067 376.402 220.311 375.073 218.403 373.995C205.812 366.741 185.4 366.741 172.854 373.995Z" fill="black"/>
<path opacity="0.5" d="M223.605 377.946C224.973 379.493 225.985 381.322 226.568 383.304C227.151 385.285 227.292 387.37 226.98 389.412C225.864 395.802 216.918 401.184 213.831 402.471C215.399 401.851 216.921 401.12 218.385 400.284C228.87 394.2 230.616 385.038 223.605 377.946Z" fill="#F5F5F5"/>
<path opacity="0.5" d="M167.634 396.333C166.264 394.787 165.253 392.958 164.671 390.976C164.089 388.994 163.952 386.908 164.268 384.867C165.384 378.477 174.33 373.104 177.408 371.808C175.841 372.43 174.319 373.16 172.854 373.995C162.369 380.052 160.632 389.241 167.634 396.333Z" fill="#F5F5F5"/>
<path d="M216.792 399.33C228.492 392.589 228.492 381.645 216.792 374.895C205.092 368.145 186.192 368.154 174.492 374.895C162.792 381.636 162.792 392.589 174.492 399.33C186.192 406.071 205.11 406.08 216.792 399.33Z" fill="#FFD029"/>
<path opacity="0.4" d="M216.792 399.33C228.492 392.589 228.492 381.645 216.792 374.895C205.092 368.145 186.192 368.154 174.492 374.895C162.792 381.636 162.792 392.589 174.492 399.33C186.192 406.071 205.11 406.08 216.792 399.33Z" fill="white"/>
<path opacity="0.2" d="M224.199 392.274C226.602 387.828 225.819 382.932 221.85 378.774C221.068 377.963 220.219 377.219 219.312 376.551C218.538 375.971 217.73 375.439 216.891 374.958C216.414 374.67 215.928 374.409 215.415 374.157C216.666 376.2 216.207 378.396 209.16 378.81C195.363 379.611 212.841 392.796 212.841 392.796C212.841 392.796 221.733 388.503 224.199 392.274Z" fill="white"/>
<path opacity="0.5" d="M222.777 388.629C224.847 388.395 225.873 386.271 225.072 383.877C224.271 381.483 221.931 379.728 219.861 379.962C217.791 380.196 216.765 382.32 217.575 384.714C218.385 387.108 220.707 388.863 222.777 388.629Z" fill="white"/>
<path d="M200.961 399.6C200.277 394.479 177.894 380.295 177.894 380.295C177.894 380.295 172.926 378.306 174.573 374.832C173.747 375.303 172.947 375.82 172.179 376.38C171.657 376.749 171.18 377.136 170.721 377.532C164.061 383.301 164.052 390.888 170.721 396.666C171.171 397.053 171.621 397.44 172.17 397.818C172.883 398.34 173.625 398.821 174.393 399.258C175.16 399.713 175.95 400.127 176.76 400.5C177.417 400.815 178.092 401.103 178.776 401.4C179.46 401.697 180.162 401.922 180.882 402.156C183.061 402.868 185.294 403.404 187.56 403.758L189.063 403.983C191.277 404.266 193.508 404.404 195.741 404.397C198.478 404.398 201.211 404.175 203.913 403.731C203.913 403.731 200.322 402.984 200.961 399.6Z" fill="#FFD029"/>
<path opacity="0.3" d="M200.961 399.6C200.277 394.479 177.894 380.295 177.894 380.295C177.894 380.295 172.926 378.306 174.573 374.832C173.747 375.303 172.947 375.82 172.179 376.38C171.657 376.749 171.18 377.136 170.721 377.532C164.061 383.301 164.052 390.888 170.721 396.666C171.171 397.053 171.621 397.44 172.17 397.818C172.883 398.34 173.625 398.821 174.393 399.258C175.16 399.713 175.95 400.127 176.76 400.5C177.417 400.815 178.092 401.103 178.776 401.4C179.46 401.697 180.162 401.922 180.882 402.156C183.061 402.868 185.294 403.404 187.56 403.758L189.063 403.983C191.277 404.266 193.508 404.404 195.741 404.397C198.478 404.398 201.211 404.175 203.913 403.731C203.913 403.731 200.322 402.984 200.961 399.6Z" fill="white"/>
<path d="M179.856 378C171.504 382.824 171.162 390.519 178.839 395.577C179.163 395.793 179.505 396 179.856 396.207C188.568 401.238 202.68 401.238 211.356 396.207C220.032 391.176 220.068 383.031 211.356 378L210.258 377.415C201.537 372.996 188.208 373.194 179.856 378Z" fill="#FFD029"/>
<path opacity="0.2" d="M179.856 378C171.504 382.824 171.162 390.519 178.839 395.577C179.163 395.793 179.505 396 179.856 396.207C188.568 401.238 202.68 401.238 211.356 396.207C220.032 391.176 220.068 383.031 211.356 378L210.258 377.415C201.537 372.996 188.208 373.194 179.856 378Z" fill="black"/>
<path d="M195.633 399.42C207.403 399.42 216.945 393.912 216.945 387.117C216.945 380.322 207.403 374.814 195.633 374.814C183.863 374.814 174.321 380.322 174.321 387.117C174.321 393.912 183.863 399.42 195.633 399.42Z" fill="#FFD029"/>
<path opacity="0.5" d="M195.633 399.42C207.403 399.42 216.945 393.912 216.945 387.117C216.945 380.322 207.403 374.814 195.633 374.814C183.863 374.814 174.321 380.322 174.321 387.117C174.321 393.912 183.863 399.42 195.633 399.42Z" fill="black"/>
<path d="M180.567 381.843C188.883 377.037 202.383 377.037 210.699 381.843C214.11 383.814 216.099 386.28 216.738 388.827C216.117 391.383 214.11 393.849 210.699 395.811C202.383 400.617 188.883 400.617 180.567 395.811C177.165 393.849 175.167 391.383 174.528 388.827C175.149 386.28 177.165 383.814 180.567 381.843Z" fill="#FFD029"/>
<path opacity="0.35" d="M180.567 381.843C188.883 377.037 202.383 377.037 210.699 381.843C214.11 383.814 216.099 386.28 216.738 388.827C216.117 391.383 214.11 393.849 210.699 395.811C202.383 400.617 188.883 400.617 180.567 395.811C177.165 393.849 175.167 391.383 174.528 388.827C175.149 386.28 177.165 383.814 180.567 381.843Z" fill="black"/>
<path d="M209.052 390.825C209.052 390.402 209.052 388.71 209.052 388.278C209.052 387.234 208.332 386.226 206.784 385.317H206.73C203.868 383.661 200.907 383.877 198.27 384.543C197.154 384.831 196.083 385.191 195.111 385.524C194.003 385.938 192.874 386.29 191.727 386.577C191.199 386.699 190.657 386.751 190.116 386.73C189.653 386.704 189.2 386.584 188.784 386.379L188.892 386.298L189.225 386.1C189.514 385.928 189.814 385.778 190.125 385.65C190.868 385.322 191.669 385.143 192.481 385.125C193.293 385.106 194.101 385.248 194.859 385.542L197.559 382.788V380.259C195.15 379.437 192.551 379.343 190.089 379.989C189.276 380.197 188.481 380.471 187.713 380.808L185.013 379.233L181.755 381.114V383.643L182.871 384.291C182.574 384.727 182.408 385.24 182.394 385.767V388.287C182.394 389.331 183.15 390.339 184.716 391.248C186.084 392.049 187.631 392.495 189.216 392.544H190.116C191.767 392.421 193.394 392.07 194.949 391.5L195.849 391.176L193.095 393.93V396.459C194.791 397.101 196.6 397.391 198.412 397.312C200.223 397.233 202 396.787 203.634 396L206.334 397.557L209.592 395.676V393.147L208.476 392.499C208.832 392.012 209.033 391.428 209.052 390.825ZM202.176 390.6C201.933 390.744 201.681 390.87 201.42 390.978C199.725 391.71 197.808 391.739 196.092 391.059C198.639 390.159 200.772 389.376 202.59 390.339C202.458 390.435 202.32 390.523 202.176 390.6Z" fill="#FFD029"/>
<path d="M198.27 384.507C197.154 384.795 196.083 385.155 195.111 385.488C194.003 385.902 192.874 386.254 191.727 386.541C191.199 386.663 190.657 386.715 190.116 386.694C189.57 386.664 189.039 386.504 188.568 386.226C187.515 385.623 187.362 384.741 188.892 383.733L189.225 383.526C189.516 383.361 189.816 383.213 190.125 383.085C190.868 382.757 191.669 382.578 192.481 382.56C193.293 382.541 194.101 382.683 194.859 382.977L197.559 380.223C195.15 379.401 192.551 379.307 190.089 379.953C189.276 380.161 188.481 380.435 187.713 380.772L185.013 379.197L181.755 381.078L184.455 382.635C181.755 384.714 181.665 386.874 184.743 388.656C186.111 389.457 187.658 389.903 189.243 389.952H190.143C191.795 389.831 193.423 389.476 194.976 388.899C198.108 387.855 200.646 386.622 202.752 387.837C204.165 388.656 203.769 389.682 202.221 390.537C201.978 390.681 201.726 390.807 201.465 390.915C200.613 391.281 199.697 391.473 198.769 391.481C197.842 391.488 196.923 391.311 196.065 390.96L193.194 393.831C194.89 394.473 196.699 394.763 198.511 394.684C200.322 394.605 202.099 394.159 203.733 393.372L206.433 394.929L209.691 393.048L206.991 391.491C209.691 389.394 210.024 387.108 206.856 385.254H206.802C203.868 383.625 200.907 383.841 198.27 384.507Z" fill="#FFD029"/>
<g opacity="0.3">
<path d="M198.27 384.507C197.154 384.795 196.083 385.155 195.111 385.488C194.003 385.902 192.874 386.254 191.727 386.541C191.199 386.663 190.657 386.715 190.116 386.694C189.57 386.664 189.039 386.504 188.568 386.226C187.515 385.623 187.362 384.741 188.892 383.733L189.225 383.526C189.516 383.361 189.816 383.213 190.125 383.085C190.868 382.757 191.669 382.578 192.481 382.56C193.293 382.541 194.101 382.683 194.859 382.977L197.559 380.223C195.15 379.401 192.551 379.307 190.089 379.953C189.276 380.161 188.481 380.435 187.713 380.772L185.013 379.197L181.755 381.078L184.455 382.635C181.755 384.714 181.665 386.874 184.743 388.656C186.111 389.457 187.658 389.903 189.243 389.952H190.143C191.795 389.831 193.423 389.476 194.976 388.899C198.108 387.855 200.646 386.622 202.752 387.837C204.165 388.656 203.769 389.682 202.221 390.537C201.978 390.681 201.726 390.807 201.465 390.915C200.613 391.281 199.697 391.473 198.769 391.481C197.842 391.488 196.923 391.311 196.065 390.96L193.194 393.831C194.89 394.473 196.699 394.763 198.511 394.684C200.322 394.605 202.099 394.159 203.733 393.372L206.433 394.929L209.691 393.048L206.991 391.491C209.691 389.394 210.024 387.108 206.856 385.254H206.802C203.868 383.625 200.907 383.841 198.27 384.507Z" fill="white"/>
</g>
<path opacity="0.45" d="M181.728 381.078L185.022 379.584L187.722 380.772L184.986 379.197L181.728 381.078Z" fill="#F5F5F5"/>
<path opacity="0.45" d="M189.72 380.052C192.044 379.589 194.444 379.672 196.731 380.295L194.832 382.995L197.532 380.241C195.008 379.381 192.282 379.315 189.72 380.052Z" fill="#F5F5F5"/>
<path opacity="0.45" d="M206.73 385.281H206.784C209.952 387.135 209.637 389.421 206.919 391.518C209.331 388.899 208.89 387.072 206.28 385.569C203.811 384.308 200.987 383.921 198.27 384.471C200.907 383.841 203.868 383.625 206.73 385.281Z" fill="#F5F5F5"/>
<path opacity="0.45" d="M206.919 391.554L208.989 393.147L206.361 394.992L209.619 393.111L206.919 391.554Z" fill="#F5F5F5"/>
<path opacity="0.45" d="M201.42 390.978C199.812 391.792 197.953 391.956 196.227 391.437L193.122 393.894L195.993 391.023C196.855 391.378 197.779 391.557 198.711 391.549C199.643 391.542 200.564 391.347 201.42 390.978Z" fill="#F5F5F5"/>
<path opacity="0.45" d="M191.7 386.541C191.067 386.8 190.382 386.901 189.701 386.837C189.021 386.773 188.367 386.544 187.794 386.172C186.894 385.362 187.452 384.489 188.865 383.733C187.335 384.741 187.488 385.623 188.541 386.226C189.012 386.504 189.543 386.664 190.089 386.694C190.63 386.715 191.172 386.663 191.7 386.541Z" fill="#F5F5F5"/>
<path opacity="0.45" d="M184.401 382.662C184.176 382.86 182.214 384.696 183.078 386.523C183.942 388.35 186.876 389.727 189.198 389.979C187.613 389.93 186.066 389.484 184.698 388.683C181.611 386.901 181.665 384.741 184.401 382.662Z" fill="#F5F5F5"/>
<path d="M232.2 377.874C230.289 374.885 227.643 372.436 224.514 370.764C211.914 363.501 191.556 363.501 178.983 370.764C175.854 372.436 173.207 374.885 171.297 377.874H169.551V384.453C169.785 389.025 172.908 393.561 178.956 397.053C191.556 404.316 211.914 404.316 224.487 397.053C230.535 393.57 233.685 389.034 233.91 384.453V377.874H232.2Z" fill="#FFD029"/>
<path opacity="0.25" d="M232.2 377.874C230.289 374.885 227.643 372.436 224.514 370.764C211.914 363.501 191.556 363.501 178.983 370.764C175.854 372.436 173.207 374.885 171.297 377.874H169.551V384.453C169.785 389.025 172.908 393.561 178.956 397.053C191.556 404.316 211.914 404.316 224.487 397.053C230.535 393.57 233.685 389.034 233.91 384.453V377.874H232.2Z" fill="black"/>
<path opacity="0.1" d="M201.717 365.319C193.473 365.319 185.238 367.119 178.947 370.719C175.818 372.391 173.171 374.84 171.261 377.829H169.515V384.408C169.749 388.98 172.872 393.516 178.92 397.008C185.22 400.608 193.446 402.408 201.69 402.408L201.717 365.319Z" fill="black"/>
<path opacity="0.1" d="M184.131 368.334C182.34 369.004 180.607 369.816 178.947 370.764C175.818 372.436 173.171 374.885 171.261 377.874H169.515V384.453C169.749 389.025 172.872 393.561 178.92 397.053C180.578 398.005 182.312 398.817 184.104 399.483L184.131 368.334Z" fill="black"/>
<path opacity="0.5" d="M219.294 368.334C221.084 369.004 222.818 369.816 224.478 370.764C227.607 372.436 230.254 374.885 232.164 377.874H233.901V384.453C233.676 389.025 230.517 393.561 224.478 397.053C222.82 398.005 221.086 398.817 219.294 399.483V368.334Z" fill="#FFD029"/>
<path d="M178.947 364.734C166.347 371.988 166.347 383.76 178.947 391.023C189.945 397.323 206.928 398.169 219.447 393.399L219.942 393.21C221.509 392.589 223.031 391.858 224.496 391.023C234.981 384.966 236.718 375.777 229.716 368.685C228.16 367.144 226.404 365.818 224.496 364.743C211.905 357.471 191.52 357.471 178.947 364.734Z" fill="#FFD029"/>
<path opacity="0.2" d="M178.947 364.734C166.347 371.988 166.347 383.76 178.947 391.023C189.945 397.323 206.928 398.169 219.447 393.399L219.942 393.21C221.509 392.589 223.031 391.858 224.496 391.023C234.981 384.966 236.718 375.777 229.716 368.685C228.16 367.144 226.404 365.818 224.496 364.743C211.905 357.471 191.52 357.471 178.947 364.734Z" fill="black"/>
<path opacity="0.5" d="M229.698 368.685C231.073 370.228 232.092 372.056 232.68 374.038C233.268 376.02 233.411 378.107 233.1 380.151C231.984 386.541 223.047 391.914 219.96 393.21C221.527 392.589 223.049 391.858 224.514 391.023C234.963 384.966 236.7 375.777 229.698 368.685Z" fill="#F5F5F5"/>
<path opacity="0.5" d="M173.7 387.072C172.332 385.525 171.321 383.696 170.739 381.714C170.157 379.733 170.019 377.647 170.334 375.606C171.441 369.216 180.387 363.834 183.474 362.547C181.906 363.167 180.384 363.898 178.92 364.734C168.462 370.8 166.725 379.98 173.7 387.072Z" fill="#F5F5F5"/>
<path d="M222.885 390.069C234.585 383.319 234.585 372.384 222.885 365.634C211.185 358.884 192.285 358.884 180.585 365.634C168.885 372.384 168.885 383.319 180.585 390.069C192.285 396.819 211.194 396.819 222.885 390.069Z" fill="#FFD029"/>
<path opacity="0.4" d="M222.885 390.069C234.585 383.319 234.585 372.384 222.885 365.634C211.185 358.884 192.285 358.884 180.585 365.634C168.885 372.384 168.885 383.319 180.585 390.069C192.285 396.819 211.194 396.819 222.885 390.069Z" fill="white"/>
<path opacity="0.2" d="M230.292 383.013C232.695 378.567 231.912 373.662 227.943 369.513C227.161 368.705 226.312 367.964 225.405 367.299C224.629 366.719 223.821 366.184 222.984 365.697C222.507 365.418 222.012 365.148 221.508 364.896C222.75 366.948 222.3 369.135 215.208 369.549C201.42 370.359 218.898 383.535 218.898 383.535C218.898 383.535 227.826 379.233 230.292 383.013Z" fill="white"/>
<path opacity="0.5" d="M228.87 379.368C230.94 379.134 231.966 377.001 231.156 374.607C230.346 372.213 228.024 370.467 225.954 370.692C223.884 370.917 222.858 373.059 223.659 375.453C224.46 377.847 226.8 379.593 228.87 379.368Z" fill="white"/>
<path d="M207.054 390.348C206.37 385.227 183.978 371.052 183.978 371.052C183.978 371.052 179.019 369.054 180.666 365.589C179.836 366.055 179.037 366.572 178.272 367.137C177.766 367.495 177.279 367.879 176.814 368.289C170.145 374.058 170.136 381.636 176.814 387.414C177.264 387.81 177.75 388.197 178.272 388.575C178.985 389.092 179.724 389.573 180.486 390.015C181.254 390.453 182.046 390.867 182.862 391.257C183.51 391.563 184.194 391.86 184.878 392.157C185.562 392.454 186.264 392.679 186.975 392.913C189.159 393.62 191.394 394.155 193.662 394.515C194.157 394.596 194.661 394.668 195.156 394.731C200.095 395.37 205.1 395.285 210.015 394.479C210.015 394.479 206.406 393.723 207.054 390.348Z" fill="#FFD029"/>
<path opacity="0.3" d="M207.054 390.348C206.37 385.227 183.978 371.052 183.978 371.052C183.978 371.052 179.019 369.054 180.666 365.589C179.836 366.055 179.037 366.572 178.272 367.137C177.766 367.495 177.279 367.879 176.814 368.289C170.145 374.058 170.136 381.636 176.814 387.414C177.264 387.81 177.75 388.197 178.272 388.575C178.985 389.092 179.724 389.573 180.486 390.015C181.254 390.453 182.046 390.867 182.862 391.257C183.51 391.563 184.194 391.86 184.878 392.157C185.562 392.454 186.264 392.679 186.975 392.913C189.159 393.62 191.394 394.155 193.662 394.515C194.157 394.596 194.661 394.668 195.156 394.731C200.095 395.37 205.1 395.285 210.015 394.479C210.015 394.479 206.406 393.723 207.054 390.348Z" fill="white"/>
<path d="M185.949 368.748C177.597 373.572 177.255 381.267 184.932 386.325C185.256 386.532 185.598 386.748 185.949 386.955C194.661 391.977 208.773 391.977 217.449 386.955C226.125 381.933 226.161 373.779 217.449 368.748C217.098 368.541 216.729 368.343 216.36 368.154C207.63 363.726 194.301 363.924 185.949 368.748Z" fill="#FFD029"/>
<path opacity="0.2" d="M185.949 368.748C177.597 373.572 177.255 381.267 184.932 386.325C185.256 386.532 185.598 386.748 185.949 386.955C194.661 391.977 208.773 391.977 217.449 386.955C226.125 381.933 226.161 373.779 217.449 368.748C217.098 368.541 216.729 368.343 216.36 368.154C207.63 363.726 194.301 363.924 185.949 368.748Z" fill="black"/>
<path d="M201.726 390.15C213.496 390.15 223.038 384.642 223.038 377.847C223.038 371.052 213.496 365.544 201.726 365.544C189.956 365.544 180.414 371.052 180.414 377.847C180.414 384.642 189.956 390.15 201.726 390.15Z" fill="#FFD029"/>
<path opacity="0.5" d="M201.726 390.15C213.496 390.15 223.038 384.642 223.038 377.847C223.038 371.052 213.496 365.544 201.726 365.544C189.956 365.544 180.414 371.052 180.414 377.847C180.414 384.642 189.956 390.15 201.726 390.15Z" fill="black"/>
<path d="M186.651 372.6C194.976 367.794 208.467 367.794 216.792 372.6C220.194 374.562 222.192 377.028 222.831 379.584C222.21 382.14 220.194 384.606 216.792 386.568C208.467 391.374 194.976 391.374 186.651 386.568C183.249 384.606 181.251 382.14 180.621 379.584C181.242 377.01 183.249 374.544 186.651 372.6Z" fill="#FFD029"/>
<path opacity="0.35" d="M186.651 372.6C194.976 367.794 208.467 367.794 216.792 372.6C220.194 374.562 222.192 377.028 222.831 379.584C222.21 382.14 220.194 384.606 216.792 386.568C208.467 391.374 194.976 391.374 186.651 386.568C183.249 384.606 181.251 382.14 180.621 379.584C181.242 377.01 183.249 374.544 186.651 372.6Z" fill="black"/>
<path d="M215.145 381.6V379.062C215.145 378.018 214.425 377.001 212.868 376.092H212.814C209.952 374.445 207 374.661 204.363 375.327C203.238 375.606 202.176 375.975 201.204 376.308C200.098 376.724 198.968 377.072 197.82 377.352C197.294 377.47 196.756 377.521 196.218 377.505C195.752 377.471 195.297 377.349 194.877 377.145L194.985 377.073L195.318 376.866C195.609 376.701 195.909 376.554 196.218 376.425C196.961 376.094 197.761 375.915 198.574 375.896C199.387 375.878 200.195 376.021 200.952 376.317L203.652 373.563V371.034C201.243 370.209 198.645 370.112 196.182 370.755C195.368 370.964 194.573 371.241 193.806 371.583L191.106 369.999L187.848 371.889V374.418L188.964 375.057C188.658 375.489 188.492 376.004 188.487 376.533V379.062C188.487 380.106 189.234 381.114 190.809 382.023C192.179 382.82 193.725 383.265 195.309 383.319C195.606 383.319 195.903 383.319 196.209 383.319C197.86 383.196 199.487 382.845 201.042 382.275L201.942 381.951L199.188 384.705V387.243C200.885 387.878 202.693 388.164 204.504 388.086C206.315 388.007 208.091 387.564 209.727 386.784L212.427 388.341L215.685 386.46V383.85L214.569 383.202C214.912 382.735 215.112 382.178 215.145 381.6ZM208.269 381.384C208.024 381.524 207.772 381.651 207.513 381.762C205.814 382.49 203.896 382.519 202.176 381.843C204.732 380.943 206.865 380.151 208.683 381.123C208.557 381.168 208.413 381.249 208.269 381.339V381.384Z" fill="#FFD029"/>
<path d="M204.363 375.246C203.238 375.525 202.176 375.894 201.204 376.227C200.098 376.643 198.968 376.991 197.82 377.271C197.294 377.389 196.756 377.44 196.218 377.424C195.669 377.394 195.135 377.234 194.661 376.956C193.617 376.353 193.464 375.462 194.985 374.463L195.318 374.256C195.609 374.091 195.909 373.944 196.218 373.815C196.961 373.484 197.761 373.305 198.574 373.286C199.387 373.268 200.195 373.411 200.952 373.707L203.652 370.953C201.243 370.128 198.645 370.031 196.182 370.674C195.368 370.883 194.573 371.16 193.806 371.502L191.106 369.918L187.848 371.808L190.548 373.365C187.848 375.453 187.749 377.613 190.836 379.395C192.206 380.192 193.752 380.637 195.336 380.691C195.636 380.709 195.936 380.709 196.236 380.691C197.887 380.568 199.514 380.217 201.069 379.647C204.201 378.603 206.73 377.37 208.845 378.585C210.249 379.404 209.862 380.43 208.314 381.285C208.069 381.425 207.817 381.552 207.558 381.663C206.703 382.02 205.785 382.205 204.858 382.205C203.931 382.205 203.013 382.02 202.158 381.663L199.296 384.534C200.992 385.174 202.8 385.465 204.611 385.387C206.423 385.31 208.2 384.867 209.835 384.084L212.535 385.641L215.793 383.76L213.093 382.203C215.793 380.097 216.117 377.811 212.949 375.957H212.895C209.952 374.4 207 374.58 204.363 375.246Z" fill="#FFD029"/>
<g opacity="0.3">
<path d="M204.363 375.246C203.238 375.525 202.176 375.894 201.204 376.227C200.098 376.643 198.968 376.991 197.82 377.271C197.294 377.389 196.756 377.44 196.218 377.424C195.669 377.394 195.135 377.234 194.661 376.956C193.617 376.353 193.464 375.462 194.985 374.463L195.318 374.256C195.609 374.091 195.909 373.944 196.218 373.815C196.961 373.484 197.761 373.305 198.574 373.286C199.387 373.268 200.195 373.411 200.952 373.707L203.652 370.953C201.243 370.128 198.645 370.031 196.182 370.674C195.368 370.883 194.573 371.16 193.806 371.502L191.106 369.918L187.848 371.808L190.548 373.365C187.848 375.453 187.749 377.613 190.836 379.395C192.206 380.192 193.752 380.637 195.336 380.691C195.636 380.709 195.936 380.709 196.236 380.691C197.887 380.568 199.514 380.217 201.069 379.647C204.201 378.603 206.73 377.37 208.845 378.585C210.249 379.404 209.862 380.43 208.314 381.285C208.069 381.425 207.817 381.552 207.558 381.663C206.703 382.02 205.785 382.205 204.858 382.205C203.931 382.205 203.013 382.02 202.158 381.663L199.296 384.534C200.992 385.174 202.8 385.465 204.611 385.387C206.423 385.31 208.2 384.867 209.835 384.084L212.535 385.641L215.793 383.76L213.093 382.203C215.793 380.097 216.117 377.811 212.949 375.957H212.895C209.952 374.4 207 374.58 204.363 375.246Z" fill="white"/>
</g>
<path opacity="0.45" d="M187.821 371.817L191.115 370.323L193.815 371.511L191.079 369.936L187.821 371.817Z" fill="#F5F5F5"/>
<path opacity="0.45" d="M195.813 370.8C198.133 370.335 200.53 370.416 202.815 371.034L200.925 373.734L203.625 370.98C201.1 370.123 198.374 370.06 195.813 370.8Z" fill="#F5F5F5"/>
<path opacity="0.45" d="M212.814 376.011H212.868C216.036 377.865 215.73 380.151 213.012 382.257C215.415 379.638 214.983 377.811 212.373 376.299C209.901 375.046 207.079 374.662 204.363 375.21C207 374.58 209.952 374.4 212.814 376.011Z" fill="#F5F5F5"/>
<path opacity="0.45" d="M213.012 382.293L215.082 383.877L212.454 385.731L215.712 383.85L213.012 382.293Z" fill="#F5F5F5"/>
<path opacity="0.45" d="M207.513 381.717C205.901 382.531 204.038 382.692 202.311 382.167L199.215 384.624L202.077 381.753C202.94 382.11 203.865 382.29 204.798 382.284C205.732 382.278 206.655 382.085 207.513 381.717Z" fill="#F5F5F5"/>
<path opacity="0.45" d="M197.793 377.28C197.159 377.535 196.473 377.634 195.794 377.568C195.114 377.502 194.46 377.274 193.887 376.902C192.987 376.092 193.554 375.228 194.958 374.472C193.437 375.471 193.59 376.362 194.634 376.965C195.108 377.243 195.642 377.403 196.191 377.433C196.729 377.449 197.267 377.398 197.793 377.28Z" fill="#F5F5F5"/>
<path opacity="0.45" d="M190.494 373.392C190.26 373.599 188.298 375.426 189.171 377.262C190.044 379.098 192.969 380.466 195.291 380.709C193.707 380.655 192.161 380.21 190.791 379.413C187.695 377.64 187.758 375.48 190.494 373.392Z" fill="#F5F5F5"/>
<path d="M224.856 367.038C222.939 364.05 220.29 361.603 217.161 359.928C204.561 352.674 184.212 352.674 171.639 359.928C168.509 361.603 165.86 364.05 163.944 367.038H162.207V373.617C162.441 378.189 165.573 382.725 171.621 386.217C184.221 393.471 204.57 393.471 217.143 386.217C223.191 382.725 226.341 378.189 226.575 373.617V367.038H224.856Z" fill="#FFD029"/>
<path opacity="0.25" d="M224.856 367.038C222.939 364.05 220.29 361.603 217.161 359.928C204.561 352.674 184.212 352.674 171.639 359.928C168.509 361.603 165.86 364.05 163.944 367.038H162.207V373.617C162.441 378.189 165.573 382.725 171.621 386.217C184.221 393.471 204.57 393.471 217.143 386.217C223.191 382.725 226.341 378.189 226.575 373.617V367.038H224.856Z" fill="black"/>
<path opacity="0.1" d="M194.4 354.483C186.165 354.483 177.921 356.283 171.639 359.928C168.509 361.603 165.86 364.05 163.944 367.038H162.207V373.617C162.441 378.189 165.573 382.725 171.621 386.217C177.921 389.817 186.147 391.662 194.382 391.662L194.4 354.483Z" fill="black"/>
<path opacity="0.1" d="M176.814 357.498C175.026 358.168 173.296 358.98 171.639 359.928C168.509 361.603 165.86 364.05 163.944 367.038H162.207V373.617C162.441 378.189 165.573 382.725 171.621 386.217C173.276 387.166 175.007 387.975 176.796 388.638L176.814 357.498Z" fill="black"/>
<path opacity="0.5" d="M211.986 357.498C213.773 358.168 215.504 358.98 217.161 359.928C220.291 361.603 222.94 364.05 224.856 367.038H226.593V373.617C226.359 378.189 223.209 382.725 217.161 386.217C215.506 387.166 213.775 387.975 211.986 388.638V357.498Z" fill="#FFD029"/>
<path d="M171.639 353.898C159.039 361.161 159.039 372.924 171.639 380.187C182.637 386.541 199.62 387.333 212.139 382.572L212.643 382.374C214.193 381.752 215.697 381.021 217.143 380.187C227.628 374.13 229.374 364.941 222.372 357.849C220.818 356.303 219.062 354.974 217.152 353.898C204.597 346.644 184.212 346.644 171.639 353.898Z" fill="#FFD029"/>
<path opacity="0.2" d="M171.639 353.898C159.039 361.161 159.039 372.924 171.639 380.187C182.637 386.541 199.62 387.333 212.139 382.572L212.643 382.374C214.193 381.752 215.697 381.021 217.143 380.187C227.628 374.13 229.374 364.941 222.372 357.849C220.818 356.303 219.062 354.974 217.152 353.898C204.597 346.644 184.212 346.644 171.639 353.898Z" fill="black"/>
<path opacity="0.5" d="M222.39 357.849C223.757 359.397 224.768 361.226 225.349 363.207C225.931 365.189 226.07 367.274 225.756 369.315C224.64 375.705 215.694 381.078 212.616 382.374C214.166 381.752 215.67 381.021 217.116 380.187C227.646 374.13 229.392 364.941 222.39 357.849Z" fill="#F5F5F5"/>
<path opacity="0.5" d="M166.41 376.2C165.043 374.652 164.032 372.823 163.451 370.842C162.869 368.86 162.73 366.775 163.044 364.734C164.16 358.344 173.106 352.971 176.184 351.675C174.635 352.299 173.131 353.029 171.684 353.862C161.154 360 159.408 369.144 166.41 376.2Z" fill="#F5F5F5"/>
<path d="M194.409 384.3C210.936 384.3 224.334 376.564 224.334 367.02C224.334 357.477 210.936 349.74 194.409 349.74C177.882 349.74 164.484 357.477 164.484 367.02C164.484 376.564 177.882 384.3 194.409 384.3Z" fill="#FFD029"/>
<path opacity="0.4" d="M194.409 384.3C210.936 384.3 224.334 376.564 224.334 367.02C224.334 357.477 210.936 349.74 194.409 349.74C177.882 349.74 164.484 357.477 164.484 367.02C164.484 376.564 177.882 384.3 194.409 384.3Z" fill="white"/>
<path opacity="0.2" d="M165.843 372.177C163.44 367.731 164.223 362.826 168.192 358.677C168.974 357.866 169.823 357.122 170.73 356.454C171.505 355.874 172.314 355.339 173.151 354.852C173.628 354.573 174.123 354.312 174.627 354.06C173.385 356.103 173.835 358.299 180.927 358.704C194.715 359.514 177.237 372.699 177.237 372.699C177.237 372.699 168.3 368.406 165.843 372.177Z" fill="white"/>
<path opacity="0.5" d="M167.265 368.532C165.195 368.298 164.169 366.174 164.979 363.78C165.789 361.386 168.111 359.631 170.181 359.865C172.251 360.099 173.277 362.223 172.476 364.617C171.675 367.011 169.335 368.766 167.265 368.532Z" fill="white"/>
<path d="M189.081 379.521C189.765 374.391 212.157 360.216 212.157 360.216C212.157 360.216 217.116 358.218 215.469 354.753C216.296 355.222 217.096 355.739 217.863 356.301C218.369 356.659 218.856 357.043 219.321 357.453C225.99 363.222 225.999 370.809 219.321 376.587C218.871 376.974 218.421 377.361 217.863 377.739C217.15 378.256 216.411 378.737 215.649 379.179C214.881 379.629 214.089 380.043 213.273 380.421C212.625 380.736 211.941 381.024 211.257 381.321C210.573 381.618 209.871 381.843 209.16 382.077C206.977 382.788 204.741 383.324 202.473 383.679L200.979 383.904C198.761 384.186 196.527 384.325 194.292 384.318C191.554 384.319 188.821 384.096 186.12 383.652C186.12 383.652 189.729 382.887 189.081 379.521Z" fill="#FFD029"/>
<path opacity="0.3" d="M189.081 379.521C189.765 374.391 212.157 360.216 212.157 360.216C212.157 360.216 217.116 358.218 215.469 354.753C216.296 355.222 217.096 355.739 217.863 356.301C218.369 356.659 218.856 357.043 219.321 357.453C225.99 363.222 225.999 370.809 219.321 376.587C218.871 376.974 218.421 377.361 217.863 377.739C217.15 378.256 216.411 378.737 215.649 379.179C214.881 379.629 214.089 380.043 213.273 380.421C212.625 380.736 211.941 381.024 211.257 381.321C210.573 381.618 209.871 381.843 209.16 382.077C206.977 382.788 204.741 383.324 202.473 383.679L200.979 383.904C198.761 384.186 196.527 384.325 194.292 384.318C191.554 384.319 188.821 384.096 186.12 383.652C186.12 383.652 189.729 382.887 189.081 379.521Z" fill="white"/>
<path d="M210.186 357.912C218.538 362.736 218.88 370.431 211.203 375.489C210.879 375.705 210.537 375.912 210.186 376.119C201.474 381.15 187.362 381.15 178.686 376.119C170.01 371.088 169.974 362.943 178.686 357.912C179.037 357.714 179.406 357.516 179.775 357.327C188.505 352.899 201.834 353.097 210.186 357.912Z" fill="#FFD029"/>
<path opacity="0.2" d="M210.186 357.912C218.538 362.736 218.88 370.431 211.203 375.489C210.879 375.705 210.537 375.912 210.186 376.119C201.474 381.15 187.362 381.15 178.686 376.119C170.01 371.088 169.974 362.943 178.686 357.912C179.037 357.714 179.406 357.516 179.775 357.327C188.505 352.899 201.834 353.097 210.186 357.912Z" fill="black"/>
<path d="M209.484 358.317C217.8 363.123 217.8 370.917 209.484 375.714C201.168 380.511 187.668 380.52 179.343 375.714C171.018 370.908 171.018 363.114 179.343 358.317C187.668 353.52 201.159 353.511 209.484 358.317Z" fill="#FFD029"/>
<path opacity="0.5" d="M209.484 358.317C217.8 363.123 217.8 370.917 209.484 375.714C201.168 380.511 187.668 380.52 179.343 375.714C171.018 370.908 171.018 363.114 179.343 358.317C187.668 353.52 201.159 353.511 209.484 358.317Z" fill="black"/>
<path d="M209.484 361.746C201.159 356.94 187.668 356.94 179.343 361.746C175.941 363.717 173.943 366.174 173.313 368.73C173.925 371.286 175.941 373.752 179.343 375.714C187.668 380.52 201.159 380.52 209.484 375.714C212.886 373.752 214.884 371.286 215.514 368.73C214.893 366.174 212.886 363.717 209.484 361.746Z" fill="#FFD029"/>
<path opacity="0.35" d="M209.484 361.746C201.159 356.94 187.668 356.94 179.343 361.746C175.941 363.717 173.943 366.174 173.313 368.73C173.925 371.286 175.941 373.752 179.343 375.714C187.668 380.52 201.159 380.52 209.484 375.714C212.886 373.752 214.884 371.286 215.514 368.73C214.893 366.174 212.886 363.717 209.484 361.746Z" fill="black"/>
<path d="M207.828 370.719C207.828 370.305 207.828 368.613 207.828 368.181C207.828 367.137 207.099 366.129 205.551 365.22H205.497C202.635 363.564 199.674 363.78 197.046 364.446C195.93 364.734 194.868 365.094 193.896 365.427C192.789 365.842 191.659 366.19 190.512 366.471C189.984 366.594 189.442 366.645 188.901 366.624C188.438 366.598 187.985 366.478 187.569 366.273L187.677 366.192L188.01 365.985C188.3 365.82 188.601 365.672 188.91 365.544C190.414 364.881 192.12 364.842 193.653 365.436L196.353 362.682V360.153C193.943 359.331 191.345 359.237 188.883 359.883C188.07 360.091 187.275 360.365 186.507 360.702L183.807 359.127L180.54 361.008V363.537L181.665 364.185C181.362 364.619 181.193 365.132 181.179 365.661C181.179 366.075 181.179 367.758 181.179 368.181C181.179 369.225 181.926 370.233 183.501 371.142C184.87 371.941 186.416 372.387 188.001 372.438C188.298 372.438 188.604 372.438 188.901 372.438C190.556 372.32 192.186 371.968 193.743 371.394L194.643 371.07L191.898 373.833V376.362C193.592 377.003 195.4 377.293 197.21 377.214C199.02 377.135 200.795 376.689 202.428 375.903L205.128 377.46L208.395 375.579V373.05L207.27 372.402C207.629 371.914 207.825 371.325 207.828 370.719ZM200.952 370.503C200.708 370.645 200.456 370.771 200.196 370.881C198.501 371.613 196.584 371.642 194.868 370.962C197.424 370.062 199.548 369.27 201.366 370.242C201.234 370.338 201.096 370.426 200.952 370.503Z" fill="#FFD029"/>
<path d="M197.1 364.41C195.984 364.698 194.922 365.058 193.95 365.391C192.844 365.806 191.714 366.154 190.566 366.435C190.038 366.558 189.496 366.609 188.955 366.588C188.409 366.557 187.878 366.397 187.407 366.12C186.354 365.517 186.201 364.626 187.731 363.627L188.064 363.42C188.355 363.255 188.655 363.107 188.964 362.979C190.468 362.316 192.174 362.277 193.707 362.871L196.407 360.117C193.998 359.295 191.399 359.201 188.937 359.847C188.124 360.055 187.329 360.329 186.561 360.666L183.861 359.091L180.594 360.972L183.294 362.529C180.594 364.608 180.495 366.768 183.582 368.55C184.951 369.349 186.498 369.795 188.082 369.846C188.379 369.846 188.685 369.846 188.982 369.846C190.637 369.728 192.267 369.376 193.824 368.802C196.947 367.758 199.485 366.525 201.591 367.74C203.004 368.559 202.617 369.585 201.06 370.44C200.816 370.582 200.564 370.708 200.304 370.818C199.452 371.184 198.536 371.376 197.609 371.384C196.681 371.391 195.762 371.214 194.904 370.863L192.042 373.734C193.737 374.375 195.544 374.665 197.354 374.586C199.164 374.507 200.94 374.061 202.572 373.275L205.272 374.832L208.539 372.951L205.839 371.394C208.539 369.297 208.863 367.011 205.695 365.157H205.641C202.644 363.528 199.683 363.744 197.1 364.41Z" fill="#FFD029"/>
<g opacity="0.3">
<path d="M197.1 364.41C195.984 364.698 194.922 365.058 193.95 365.391C192.844 365.806 191.714 366.154 190.566 366.435C190.038 366.558 189.496 366.609 188.955 366.588C188.409 366.557 187.878 366.397 187.407 366.12C186.354 365.517 186.201 364.626 187.731 363.627L188.064 363.42C188.355 363.255 188.655 363.107 188.964 362.979C190.468 362.316 192.174 362.277 193.707 362.871L196.407 360.117C193.998 359.295 191.399 359.201 188.937 359.847C188.124 360.055 187.329 360.329 186.561 360.666L183.861 359.091L180.594 360.972L183.294 362.529C180.594 364.608 180.495 366.768 183.582 368.55C184.951 369.349 186.498 369.795 188.082 369.846C188.379 369.846 188.685 369.846 188.982 369.846C190.637 369.728 192.267 369.376 193.824 368.802C196.947 367.758 199.485 366.525 201.591 367.74C203.004 368.559 202.617 369.585 201.06 370.44C200.816 370.582 200.564 370.708 200.304 370.818C199.452 371.184 198.536 371.376 197.609 371.384C196.681 371.391 195.762 371.214 194.904 370.863L192.042 373.734C193.737 374.375 195.544 374.665 197.354 374.586C199.164 374.507 200.94 374.061 202.572 373.275L205.272 374.832L208.539 372.951L205.839 371.394C208.539 369.297 208.863 367.011 205.695 365.157H205.641C202.644 363.528 199.683 363.744 197.1 364.41Z" fill="white"/>
</g>
<path opacity="0.45" d="M180.513 360.981L183.798 359.487L186.498 360.675L183.771 359.1L180.513 360.981Z" fill="#F5F5F5"/>
<path opacity="0.45" d="M188.496 360C190.82 359.537 193.22 359.62 195.507 360.243L193.617 362.943L196.317 360.189C193.791 359.327 191.061 359.261 188.496 360Z" fill="#F5F5F5"/>
<path opacity="0.45" d="M205.506 365.184H205.56C208.728 367.038 208.413 369.324 205.704 371.421C208.107 368.802 207.675 366.975 205.065 365.463C202.593 364.21 199.771 363.827 197.055 364.374C199.683 363.744 202.644 363.528 205.506 365.184Z" fill="#F5F5F5"/>
<path opacity="0.45" d="M205.704 371.457L207.774 373.05L205.137 374.895L208.404 373.014L205.704 371.457Z" fill="#F5F5F5"/>
<path opacity="0.45" d="M200.196 370.881C198.588 371.695 196.729 371.859 195.003 371.34L191.907 373.797L194.769 370.926C195.631 371.281 196.555 371.46 197.487 371.452C198.419 371.445 199.34 371.25 200.196 370.881Z" fill="#F5F5F5"/>
<path opacity="0.45" d="M190.485 366.444C189.852 366.701 189.167 366.802 188.487 366.737C187.807 366.673 187.152 366.446 186.579 366.075C185.634 365.265 186.246 364.392 187.65 363.636C186.12 364.635 186.273 365.526 187.326 366.129C187.797 366.406 188.328 366.566 188.874 366.597C189.415 366.618 189.957 366.567 190.485 366.444Z" fill="#F5F5F5"/>
<path opacity="0.45" d="M183.186 362.565C182.952 362.763 180.99 364.599 181.854 366.426C182.718 368.253 185.652 369.63 187.974 369.882C186.39 369.831 184.843 369.385 183.474 368.586C180.387 366.804 180.441 364.644 183.186 362.565Z" fill="#F5F5F5"/>
<path d="M165.969 363.771L166.779 357.606L167.589 363.771L178.254 364.239L167.589 364.707L166.779 370.863L165.969 364.707L155.295 364.239L165.969 363.771Z" fill="white"/>
<g opacity="0.3">
<path d="M358.893 376.272C358.849 376.284 358.802 376.284 358.758 376.272L341.334 366.21C341.293 366.186 341.259 366.152 341.235 366.111C341.211 366.07 341.199 366.023 341.199 365.976C341.2 365.93 341.212 365.885 341.236 365.845C341.26 365.806 341.294 365.773 341.334 365.751L363.123 353.151C363.163 353.129 363.208 353.117 363.253 353.117C363.299 353.117 363.344 353.129 363.384 353.151L380.817 363.213C380.858 363.237 380.892 363.271 380.916 363.312C380.94 363.353 380.952 363.4 380.952 363.447C380.951 363.494 380.938 363.541 380.915 363.581C380.891 363.622 380.857 363.657 380.817 363.681L359.028 376.281C358.983 376.291 358.936 376.288 358.893 376.272ZM342 365.94L358.884 375.696L380.133 363.429L363.249 353.7L342 365.94Z" fill="#FF1F70"/>
</g>
<path d="M358.893 373.491V283.284L345.825 275.742V365.949L358.893 373.491Z" fill="#FF1F70"/>
<path opacity="0.2" d="M358.893 373.491V283.284L345.825 275.742V365.949L358.893 373.491Z" fill="black"/>
<path d="M358.893 373.491L376.326 363.429V273.231L358.893 283.284V373.491Z" fill="#FF1F70"/>
<path d="M376.326 273.231L363.258 265.68L345.825 275.742L358.893 283.284L376.326 273.231Z" fill="#FF1F70"/>
<path opacity="0.25" d="M376.326 273.231L363.258 265.68L345.825 275.742L358.893 283.284L376.326 273.231Z" fill="white"/>
<path opacity="0.3" d="M376.326 273.231L358.722 282.933L353.007 279.738L345.807 275.742L352.863 279.963L358.641 283.41C358.506 285.372 358.47 365.517 358.497 367.479C358.506 369.489 358.633 371.496 358.875 373.491C359.121 371.496 359.25 369.489 359.262 367.479C359.262 365.58 359.262 285.498 359.118 283.599L376.326 273.231Z" fill="white"/>
<g opacity="0.3">
<path d="M326.223 395.145C326.179 395.155 326.133 395.155 326.088 395.145L308.7 385.038C308.66 385.016 308.626 384.983 308.602 384.944C308.579 384.904 308.566 384.859 308.565 384.813C308.565 384.766 308.578 384.719 308.601 384.678C308.625 384.637 308.659 384.603 308.7 384.579L330.489 371.979C330.531 371.957 330.577 371.945 330.624 371.945C330.671 371.945 330.718 371.957 330.759 371.979L348.183 382.041C348.223 382.066 348.256 382.1 348.28 382.141C348.303 382.182 348.317 382.228 348.318 382.275C348.318 382.322 348.306 382.369 348.282 382.41C348.258 382.451 348.224 382.485 348.183 382.509L326.394 395.109C326.342 395.138 326.283 395.15 326.223 395.145ZM309.33 384.813L326.223 394.56L347.463 382.293L330.579 372.546L309.33 384.813Z" fill="#FF1F70"/>
</g>
<path d="M326.223 392.355L326.214 338.238L313.146 330.687V384.813L326.223 392.355Z" fill="#FF1F70"/>
<path opacity="0.1" d="M326.223 392.355L326.214 338.238L313.146 330.687V384.813L326.223 392.355Z" fill="white"/>
<path d="M326.223 392.355L343.647 382.293V328.176L326.214 338.238L326.223 392.355Z" fill="#FF1F70"/>
<path opacity="0.3" d="M326.223 392.355L343.647 382.293V328.176L326.214 338.238L326.223 392.355Z" fill="white"/>
<path d="M343.647 328.176L330.579 320.625L313.146 330.687L326.214 338.238L343.647 328.176Z" fill="#FF1F70"/>
<path opacity="0.55" d="M343.647 328.176L330.579 320.625L313.146 330.687L326.214 338.238L343.647 328.176Z" fill="white"/>
<path opacity="0.3" d="M326.448 338.562L343.647 328.176L326.043 337.887C324.144 336.807 322.236 335.754 320.328 334.692L313.128 330.687L320.184 334.908C322.11 336.072 324.039 337.224 325.971 338.364C325.908 340.398 325.845 350.217 325.827 352.251C325.809 354.285 325.827 377.82 325.827 379.899C325.827 381.978 325.827 384.048 325.944 386.127C326.061 388.206 326.079 390.285 326.214 392.355C326.34 390.285 326.427 388.209 326.475 386.127C326.547 384.048 326.583 381.978 326.592 379.899C326.601 377.82 326.592 354.321 326.592 352.251C326.592 350.181 326.511 340.524 326.448 338.562Z" fill="white"/>
<g opacity="0.3">
<path d="M293.544 414C293.499 414.008 293.454 414.008 293.409 414L275.976 403.938C275.937 403.913 275.904 403.879 275.882 403.838C275.86 403.797 275.849 403.751 275.85 403.704C275.848 403.657 275.859 403.611 275.881 403.57C275.903 403.529 275.936 403.494 275.976 403.47L297.765 390.87C297.805 390.843 297.852 390.829 297.9 390.829C297.948 390.829 297.995 390.843 298.035 390.87L315.459 400.932C315.499 400.954 315.533 400.987 315.557 401.026C315.581 401.066 315.593 401.111 315.594 401.157C315.594 401.204 315.582 401.251 315.558 401.292C315.534 401.333 315.5 401.367 315.459 401.391L293.679 413.991C293.635 414.002 293.589 414.005 293.544 414ZM276.651 403.668L293.544 413.424L314.793 401.148L297.9 391.41L276.651 403.668Z" fill="#FF1F70"/>
</g>
<path d="M293.544 411.219L293.535 392.202L280.467 384.66V403.677L293.544 411.219Z" fill="#FF1F70"/>
<path opacity="0.45" d="M293.544 411.219L293.535 392.202L280.467 384.66V403.677L293.544 411.219Z" fill="black"/>
<path d="M293.544 411.219L310.968 401.166V382.14L293.535 392.202L293.544 411.219Z" fill="#FF1F70"/>
<path opacity="0.3" d="M293.544 411.219L310.968 401.166V382.14L293.535 392.202L293.544 411.219Z" fill="black"/>
<path d="M310.968 382.14L297.9 374.598L280.467 384.66L293.535 392.202L310.968 382.14Z" fill="#FF1F70"/>
<path opacity="0.15" d="M310.968 382.14L297.9 374.598L280.467 384.66L293.535 392.202L310.968 382.14Z" fill="black"/>
<path opacity="0.3" d="M310.968 382.14L293.4 391.851L287.685 388.656L280.485 384.66L287.541 388.881L293.319 392.328C293.184 393.516 293.148 406.323 293.175 407.52C293.188 408.762 293.318 410.001 293.562 411.219C293.804 410.001 293.93 408.762 293.94 407.52C293.94 406.386 293.94 393.642 293.814 392.508L310.968 382.14Z" fill="white"/>
<g opacity="0.3">
<path d="M391.572 357.408C391.528 357.42 391.481 357.42 391.437 357.408L374.013 347.31C373.972 347.286 373.938 347.252 373.914 347.211C373.891 347.17 373.878 347.123 373.878 347.076C373.88 347.029 373.893 346.983 373.917 346.942C373.94 346.901 373.973 346.867 374.013 346.842L395.793 334.242C395.835 334.22 395.881 334.208 395.928 334.208C395.975 334.208 396.022 334.22 396.063 334.242L413.496 344.304C413.536 344.328 413.569 344.363 413.591 344.404C413.613 344.445 413.624 344.491 413.622 344.538C413.622 344.584 413.611 344.63 413.589 344.671C413.567 344.712 413.535 344.747 413.496 344.772L391.707 357.372C391.666 357.396 391.62 357.409 391.572 357.408ZM374.679 347.076L391.572 356.832L412.821 344.565L395.928 334.8L374.679 347.076Z" fill="#FF1F70"/>
</g>
<path d="M391.572 354.627V229.761L378.504 222.21V347.076L391.572 354.627Z" fill="#FF1F70"/>
<path opacity="0.3" d="M391.572 354.627V229.761L378.504 222.21V347.076L391.572 354.627Z" fill="white"/>
<path d="M391.572 354.627L408.996 344.565L409.005 219.699L391.572 229.761V354.627Z" fill="#FF1F70"/>
<path opacity="0.55" d="M391.572 354.627L408.996 344.565L409.005 219.699L391.572 229.761V354.627Z" fill="white"/>
<path d="M409.005 219.699L395.928 212.148L378.504 222.21L391.572 229.761L409.005 219.699Z" fill="#FF1F70"/>
<path opacity="0.75" d="M409.005 219.699L395.928 212.148L378.504 222.21L391.572 229.761L409.005 219.699Z" fill="white"/>
<path opacity="0.3" d="M391.806 230.085L409.005 219.699L391.392 229.401C389.49 228.333 387.585 227.271 385.677 226.215L378.477 222.21L385.524 226.431C387.45 227.592 389.376 228.744 391.32 229.887C391.257 232.191 391.194 261.108 391.176 263.421C391.158 265.734 391.176 338.193 391.176 340.542C391.176 342.891 391.221 345.231 391.293 347.58C391.365 349.929 391.428 352.278 391.563 354.627C391.698 352.278 391.779 349.929 391.833 347.58C391.887 345.231 391.932 342.891 391.95 340.542C391.968 338.193 391.95 265.761 391.95 263.421C391.95 261.081 391.86 232.326 391.806 230.085Z" fill="white"/>
<path opacity="0.5" d="M88.1731 152.856L37.6831 182.007L62.9281 135.63L88.1731 152.856Z" fill="#FF1F70"/>
<path opacity="0.3" d="M88.1731 174.06L37.6831 203.211L62.9281 156.834L88.1731 174.06Z" fill="#FF1F70"/>
<path opacity="0.15" d="M88.1731 195.255L37.6831 224.406L62.9281 178.029L88.1731 195.255Z" fill="#FF1F70"/>
<path d="M141.615 81.693V70.092L151.371 69.066C151.565 69.0392 151.762 69.0806 151.929 69.183L157.041 72.144C157.165 72.2107 157.271 72.3054 157.352 72.4206C157.432 72.5358 157.485 72.6683 157.505 72.8074C157.525 72.9465 157.512 73.0884 157.467 73.2217C157.423 73.355 157.348 73.476 157.248 73.575L146.7 84.663L141.615 81.693Z" fill="#00A7FF"/>
<path d="M111.015 107.865V72C111.029 71.715 111.111 71.4375 111.253 71.1902C111.395 70.943 111.594 70.7331 111.834 70.578L141.102 53.712C141.354 53.5839 141.633 53.5172 141.916 53.5172C142.199 53.5172 142.478 53.5839 142.731 53.712L147.285 56.412C147.523 56.5681 147.72 56.7784 147.861 57.0256C148.002 57.2728 148.082 57.5498 148.095 57.834V93.726C148.081 94.0109 147.999 94.2885 147.857 94.5357C147.714 94.783 147.515 94.9928 147.276 95.148L118.008 112.005C117.755 112.133 117.476 112.2 117.193 112.2C116.91 112.2 116.631 112.133 116.379 112.005L111.825 109.305C111.585 109.147 111.386 108.934 111.245 108.683C111.104 108.433 111.025 108.152 111.015 107.865Z" fill="#00A7FF"/>
<path opacity="0.15" d="M117.9 112.041C117.513 112.194 117.216 111.978 117.216 111.51V75.5999C117.226 75.3135 117.309 75.0344 117.459 74.7899L111.267 71.1899C111.127 71.4275 111.049 71.697 111.042 71.9729V107.865C111.055 108.149 111.135 108.426 111.276 108.673C111.417 108.92 111.614 109.131 111.852 109.287L116.406 111.987C116.637 112.102 116.889 112.167 117.147 112.176C117.405 112.186 117.662 112.14 117.9 112.041Z" fill="black"/>
<path d="M156.51 72L148.095 72.9V57.807C148.095 57.285 147.726 57.078 147.276 57.339L118.008 74.205C117.77 74.3593 117.571 74.5677 117.429 74.8133C117.287 75.0588 117.204 75.3346 117.189 75.618V111.51C117.189 112.032 117.558 112.239 118.008 111.978L147.276 95.121C147.515 94.9658 147.715 94.756 147.857 94.5088C147.999 94.2615 148.081 93.984 148.095 93.699V83.232L157.266 73.575C157.421 73.4469 157.528 73.2707 157.572 73.0744C157.615 72.8781 157.591 72.673 157.504 72.4918C157.417 72.3106 157.272 72.1637 157.092 72.0746C156.912 71.9855 156.707 71.9592 156.51 72Z" fill="#52C3FF"/>
<path opacity="0.35" d="M156.51 72L148.095 72.9V57.807C148.095 57.285 147.726 57.078 147.276 57.339L118.008 74.205C117.77 74.3593 117.571 74.5677 117.429 74.8133C117.287 75.0588 117.204 75.3346 117.189 75.618V111.51C117.189 112.032 117.558 112.239 118.008 111.978L147.276 95.121C147.515 94.9658 147.715 94.756 147.857 94.5088C147.999 94.2615 148.081 93.984 148.095 93.699V83.232L157.266 73.575C157.421 73.4469 157.528 73.2707 157.572 73.0744C157.615 72.8781 157.591 72.673 157.504 72.4918C157.417 72.3106 157.272 72.1637 157.092 72.0746C156.912 71.9855 156.707 71.9592 156.51 72Z" fill="#52C3FF"/>
<path d="M141.165 88.254C141.2 88.1905 141.218 88.1193 141.218 88.047C141.218 87.9747 141.2 87.9035 141.165 87.84L139.914 86.445C139.763 86.206 139.67 85.9347 139.644 85.6533C139.617 85.3718 139.657 85.0881 139.761 84.825C139.912 84.1827 140.269 83.6074 140.778 83.187L142.785 81.729C142.912 81.6212 142.995 81.4708 143.019 81.306C143.127 80.4522 143.181 79.5925 143.181 78.732C143.181 77.9256 143.13 77.12 143.028 76.32C143.028 76.185 142.911 76.122 142.794 76.167L140.796 77.013C140.7 77.0607 140.595 77.0865 140.488 77.0885C140.382 77.0906 140.276 77.0688 140.178 77.0249C140.081 76.981 139.995 76.9159 139.926 76.8345C139.856 76.753 139.806 76.6572 139.779 76.554C139.779 76.554 139.779 76.554 139.779 76.509C139.6 75.9104 139.658 75.2661 139.941 74.709L141.192 71.883C141.225 71.8174 141.242 71.745 141.242 71.6715C141.242 71.598 141.225 71.5256 141.192 71.46C140.551 70.5359 139.648 69.8245 138.6 69.417C138.501 69.417 138.375 69.417 138.285 69.597L136.701 72.18C136.575 72.4276 136.393 72.6426 136.169 72.8081C135.946 72.9736 135.687 73.0851 135.414 73.134C134.973 73.134 134.667 72.783 134.622 72.234L134.397 69.687C134.397 69.534 134.298 69.471 134.181 69.507C132.822 70.0003 131.558 70.725 130.446 71.649C130.324 71.7619 130.247 71.9155 130.23 72.081L129.996 74.889C129.926 75.5569 129.649 76.1862 129.204 76.689C128.763 77.175 128.304 77.382 127.917 77.211L126.27 76.5C126.171 76.5 126.045 76.5 125.946 76.671C124.897 78.2485 124.011 79.928 123.3 81.684C123.266 81.7493 123.248 81.8219 123.248 81.8955C123.248 81.9691 123.266 82.0417 123.3 82.107L124.551 83.493C124.7 83.7328 124.791 84.0044 124.816 84.2858C124.841 84.5672 124.8 84.8506 124.695 85.113C124.699 85.1307 124.699 85.1492 124.695 85.167C124.542 85.8014 124.188 86.3695 123.687 86.787L121.671 88.254C121.543 88.3599 121.462 88.5119 121.446 88.677C121.335 89.5336 121.278 90.3963 121.275 91.26C121.271 92.0579 121.325 92.855 121.437 93.645C121.437 93.789 121.545 93.852 121.662 93.798L123.669 92.961C123.766 92.9135 123.872 92.8883 123.98 92.8874C124.088 92.8864 124.194 92.9097 124.292 92.9555C124.389 93.0013 124.476 93.0684 124.544 93.1519C124.612 93.2354 124.66 93.3332 124.686 93.438C124.861 94.037 124.803 94.6799 124.524 95.238L123.3 98.1C123.267 98.1671 123.249 98.2411 123.249 98.316C123.249 98.3909 123.267 98.4649 123.3 98.532C123.96 99.4457 124.878 100.141 125.937 100.53C126.036 100.53 126.162 100.53 126.252 100.341L127.827 97.758C127.96 97.5194 128.146 97.3144 128.371 97.1584C128.596 97.0025 128.853 96.8997 129.123 96.858C129.564 96.858 129.861 97.191 129.915 97.758L130.14 100.305C130.14 100.449 130.239 100.53 130.356 100.485C131.005 100.247 131.629 99.9453 132.219 99.585C132.875 99.2048 133.501 98.7745 134.091 98.298C134.211 98.1836 134.287 98.0308 134.307 97.866L134.541 95.058C134.613 94.3925 134.886 93.7648 135.324 93.258C135.774 92.763 136.224 92.556 136.62 92.727L138.186 93.501C138.276 93.501 138.411 93.501 138.501 93.33C139.556 91.731 140.448 90.0305 141.165 88.254ZM132.228 92.349C129.177 94.095 126.702 92.214 126.711 88.146C126.72 84.078 129.195 79.326 132.246 77.58C135.297 75.834 137.772 77.724 137.763 81.792C137.754 85.86 135.27 90.594 132.228 92.349Z" fill="white"/>
</svg>
