<svg viewBox="0 0 450 450" fill="none"
  xmlns="http://www.w3.org/2000/svg">
  <path d="M317.866 363.11L142.107 384.228L90.603 241.335L266.362 220.218L317.866 363.11Z" fill="#52C3FF" fill-opacity="0.25"/>
  <path d="M358.478 314.192L277.238 390.058L92.211 324.01L173.451 248.144L358.478 314.192Z" fill="#52C3FF" fill-opacity="0.25"/>
  <path d="M261.818 192.683L264.613 191.956C264.828 192.018 264.883 192.074 264.925 192.139C264.99 192.271 265.001 192.303 265.008 192.335C265.015 192.488 264.987 192.544 264.944 192.569L263.009 194.472C262.927 194.372 262.949 194.324 262.949 194.255C262.949 194.14 262.925 194.022 262.895 193.903C262.884 193.862 262.872 193.824 262.858 193.783C262.83 193.699 262.792 193.616 262.75 193.536C262.726 193.492 262.706 193.446 262.679 193.403C262.63 193.322 262.573 193.25 262.514 193.179C262.485 193.143 262.46 193.105 262.428 193.073C262.334 192.977 262.232 192.889 262.125 192.828C262.017 192.764 261.914 192.734 261.819 192.722V192.683H261.818Z" fill="#1D1D1D"/>
  <path d="M261.806 192.691L252.279 195.197C252.748 194.924 253.399 194.963 254.115 195.375L262.358 192.745C262.141 192.621 261.947 192.61 261.806 192.691Z" fill="#C6A899"/>
  <mask id="mask0_420_1112" style="mask-type:luminance" maskUnits="userSpaceOnUse" x="252" y="192" width="11" height="4">
    <path d="M261.806 192.691L252.279 195.197C252.748 194.924 253.399 194.963 254.115 195.375L262.358 192.745C262.141 192.621 261.947 192.61 261.806 192.691Z" fill="white"/>
  </mask>
  <g mask="url(#mask0_420_1112)">
    <path d="M254.114 195.376L262.357 192.746C262.338 192.736 254.05 195.341 254.05 195.341L254.114 195.376Z" fill="#DED0C8"/>
    <path d="M254.049 195.34L262.338 192.735C262.245 192.683 262.156 192.653 262.073 192.644L253.171 195.037C253.445 195.071 253.742 195.17 254.049 195.34Z" fill="#C6A899"/>
    <path d="M253.172 195.037L262.074 192.644C262.002 192.634 261.933 192.641 261.872 192.661L252.501 195.096C252.7 195.027 252.928 195.005 253.172 195.037Z" fill="#C6A899"/>
    <path d="M252.5 195.096L261.871 192.661C261.806 192.691 252.278 195.197 252.278 195.197C252.348 195.157 252.422 195.123 252.5 195.096Z" fill="#C6A899"/>
  </g>
  <path d="M255.932 201.473L262.903 194.574C263.041 194.495 263.127 194.323 263.127 194.08C263.129 193.588 262.783 192.991 262.357 192.745L254.114 195.375C255.533 196.196 256.687 198.186 256.682 199.826C256.681 200.636 256.394 201.206 255.932 201.473Z" fill="#C6A899"/>
  <mask id="mask1_420_1112" style="mask-type:luminance" maskUnits="userSpaceOnUse" x="254" y="192" width="10" height="10">
    <path d="M255.932 201.473L262.903 194.574C263.041 194.495 263.127 194.323 263.127 194.08C263.129 193.588 262.783 192.991 262.357 192.745L254.114 195.375C255.533 196.196 256.687 198.186 256.682 199.826C256.681 200.636 256.394 201.206 255.932 201.473Z" fill="white"/>
  </mask>
  <g mask="url(#mask1_420_1112)">
    <path d="M255.932 201.473L262.903 194.574C263.041 194.495 263.127 194.323 263.127 194.08C263.127 194.004 263.119 193.923 263.104 193.844L256.604 199.036C256.656 199.304 256.685 199.57 256.683 199.827C256.681 200.636 256.394 201.206 255.932 201.473Z" fill="#C6A899"/>
    <path d="M256.603 199.036L263.103 193.844C263.084 193.745 263.052 193.645 263.014 193.548L256.303 198.049C256.436 198.376 256.539 198.708 256.603 199.036Z" fill="#DED0C8"/>
    <path d="M256.303 198.049L263.014 193.548C262.968 193.438 262.913 193.332 262.849 193.233L255.752 197.003C255.969 197.332 256.155 197.688 256.303 198.049Z" fill="#E9DFD8"/>
    <path d="M255.752 197.002L262.849 193.232C262.714 193.028 262.544 192.853 262.357 192.745L254.114 195.375C254.736 195.735 255.307 196.32 255.752 197.002Z" fill="#DED0C8"/>
  </g>
  <path d="M254.114 195.376C252.693 194.555 251.531 195.211 251.527 196.851C251.522 198.482 252.676 200.475 254.097 201.294C255.516 202.115 256.679 201.461 256.682 199.828C256.687 198.187 255.533 196.197 254.114 195.376Z" fill="#DED0C8"/>
  <path d="M252.299 195.194L186.959 233.165C187.427 232.894 188.073 232.931 188.786 233.342L254.126 195.371C253.413 194.96 252.766 194.923 252.299 195.194Z" fill="#564750"/>
  <mask id="mask2_420_1112" style="mask-type:luminance" maskUnits="userSpaceOnUse" x="186" y="195" width="69" height="39">
    <path d="M252.299 195.194L186.959 233.165C187.427 232.894 188.073 232.931 188.786 233.342L254.126 195.371C253.413 194.96 252.766 194.923 252.299 195.194Z" fill="white"/>
  </mask>
  <g mask="url(#mask2_420_1112)">
    <path d="M188.785 233.342L254.125 195.371C254.063 195.335 188.722 233.307 188.722 233.307L188.785 233.342Z" fill="#7977ED"/>
    <path d="M188.723 233.307L254.063 195.336C253.754 195.168 253.461 195.068 253.19 195.035L187.85 233.006C188.121 233.038 188.416 233.138 188.723 233.307Z" fill="#564750"/>
    <path d="M187.85 233.005L253.19 195.034C252.946 195.003 252.72 195.024 252.519 195.093L187.179 233.064C187.381 232.995 187.607 232.973 187.85 233.005Z" fill="#564750"/>
    <path d="M187.179 233.064L252.519 195.093C252.441 195.12 252.367 195.154 252.298 195.194L186.958 233.165C187.029 233.125 187.102 233.091 187.179 233.064Z" fill="#564750"/>
  </g>
  <path d="M190.604 239.446L255.942 201.476C256.406 201.207 256.692 200.634 256.694 199.822C256.699 198.189 255.553 196.195 254.126 195.371L188.786 233.342C190.213 234.166 191.361 236.16 191.356 237.793C191.354 238.605 191.067 239.178 190.604 239.446Z" fill="#564750"/>
  <mask id="mask3_420_1112" style="mask-type:luminance" maskUnits="userSpaceOnUse" x="188" y="195" width="69" height="45">
    <path d="M190.604 239.446L255.942 201.476C256.406 201.207 256.692 200.634 256.694 199.822C256.699 198.189 255.553 196.195 254.126 195.371L188.786 233.342C190.213 234.166 191.361 236.16 191.356 237.793C191.354 238.605 191.067 239.178 190.604 239.446Z" fill="white"/>
  </mask>
  <g mask="url(#mask3_420_1112)">
    <path d="M190.604 239.446L255.942 201.476C256.406 201.207 256.692 200.634 256.694 199.822C256.696 199.566 256.667 199.301 256.615 199.033L191.276 237.004C191.328 237.272 191.355 237.537 191.355 237.792C191.354 238.605 191.067 239.178 190.604 239.446Z" fill="#FF1F70"/>
    <path d="M191.276 237.004L256.615 199.033C256.551 198.705 256.448 198.37 256.315 198.044L190.977 236.015C191.109 236.342 191.212 236.676 191.276 237.004Z" fill="#FF1F70"/>
    <path d="M190.977 236.015L256.315 198.044C256.167 197.682 255.981 197.327 255.764 196.995L190.426 234.967C190.641 235.299 190.828 235.652 190.977 236.015Z" fill="#564750"/>
    <path d="M190.425 234.967L255.763 196.995C255.32 196.316 254.749 195.731 254.125 195.371L188.785 233.342C189.41 233.703 189.98 234.287 190.425 234.967Z" fill="#7977ED"/>
  </g>
  <path d="M188.785 233.342C187.364 232.521 186.21 233.187 186.205 234.82C186.202 236.453 187.349 238.447 188.769 239.268C190.196 240.092 191.351 239.426 191.356 237.793C191.361 236.16 190.213 234.166 188.785 233.342Z" fill="#7977ED"/>
  <path d="M186.95 233.163L178.963 237.804C179.431 237.533 180.08 237.572 180.8 237.986L188.785 233.345C188.068 232.931 187.418 232.892 186.95 233.163Z" fill="#FF1F70"/>
  <mask id="mask4_420_1112" style="mask-type:luminance" maskUnits="userSpaceOnUse" x="178" y="232" width="11" height="6">
    <path d="M186.95 233.163L178.963 237.804C179.431 237.533 180.08 237.572 180.8 237.986L188.785 233.345C188.068 232.931 187.418 232.892 186.95 233.163Z" fill="white"/>
  </mask>
  <g mask="url(#mask4_420_1112)">
    <path d="M180.8 237.986L188.785 233.345C188.721 233.31 180.736 237.951 180.736 237.951L180.8 237.986Z" fill="#FF1F70"/>
    <path d="M180.736 237.952L188.721 233.31C188.411 233.14 188.114 233.038 187.839 233.005L179.854 237.646C180.128 237.68 180.426 237.781 180.736 237.952Z" fill="#1D1D1D"/>
    <path d="M179.855 237.646L187.84 233.005C187.598 232.973 187.371 232.995 187.169 233.064L179.184 237.705C179.385 237.637 179.611 237.615 179.855 237.646Z" fill="#1D1D1D"/>
    <path d="M179.184 237.704L187.169 233.063C187.093 233.09 187.019 233.122 186.95 233.162L178.963 237.803C179.033 237.763 179.107 237.729 179.184 237.704Z" fill="#FF1F70"/>
  </g>
  <path d="M182.619 244.084L190.606 239.443C191.068 239.175 191.354 238.605 191.356 237.796C191.361 236.156 190.207 234.166 188.786 233.345L180.801 237.986C182.222 238.807 183.375 240.797 183.369 242.437C183.367 243.246 183.081 243.816 182.619 244.084Z" fill="#FF1F70"/>
  <mask id="mask5_420_1112" style="mask-type:luminance" maskUnits="userSpaceOnUse" x="180" y="233" width="12" height="12">
    <path d="M182.619 244.084L190.606 239.443C191.068 239.175 191.354 238.605 191.356 237.796C191.361 236.156 190.207 234.166 188.786 233.345L180.801 237.986C182.222 238.807 183.375 240.797 183.369 242.437C183.367 243.246 183.081 243.816 182.619 244.084Z" fill="white"/>
  </mask>
  <g mask="url(#mask5_420_1112)">
    <path d="M182.619 244.084L190.606 239.443C191.068 239.175 191.354 238.605 191.356 237.796C191.356 237.54 191.329 237.275 191.277 237.008L183.291 241.648C183.343 241.916 183.372 242.182 183.37 242.438C183.367 243.246 183.081 243.816 182.619 244.084Z" fill="#1D1D1D"/>
    <path d="M183.29 241.647L191.276 237.007C191.212 236.678 191.109 236.345 190.976 236.02L182.989 240.661C183.123 240.987 183.225 241.319 183.29 241.647Z" fill="#1D1D1D"/>
    <path d="M182.99 240.661L190.977 236.02C190.828 235.658 190.643 235.304 190.426 234.971L182.441 239.612C182.656 239.945 182.843 240.299 182.99 240.661Z" fill="#564750"/>
    <path d="M182.44 239.613L190.425 234.972C189.98 234.292 189.409 233.707 188.785 233.346L180.8 237.987C181.423 238.347 181.996 238.932 182.44 239.613Z" fill="#564750"/>
  </g>
  <path d="M180.8 237.987C179.373 237.163 178.218 237.822 178.213 239.462C178.208 241.093 179.356 243.08 180.783 243.905C182.204 244.725 183.365 244.072 183.368 242.438C183.374 240.798 182.221 238.808 180.8 237.987Z" fill="#FF1F70"/>
  <path d="M178.871 238.312L176.067 239.945C176.482 239.704 177.057 239.74 177.693 240.107L180.499 238.472C179.862 238.105 179.287 238.069 178.871 238.312Z" fill="#F37874"/>
  <mask id="mask6_420_1112" style="mask-type:luminance" maskUnits="userSpaceOnUse" x="176" y="238" width="5" height="3">
    <path d="M178.871 238.312L176.067 239.945C176.482 239.704 177.057 239.74 177.693 240.107L180.499 238.472C179.862 238.105 179.287 238.069 178.871 238.312Z" fill="white"/>
  </mask>
  <g mask="url(#mask6_420_1112)">
    <path d="M177.693 240.107L180.499 238.472C180.442 238.44 177.638 240.074 177.638 240.074L177.693 240.107Z" fill="#F37874"/>
    <path d="M177.637 240.075L180.441 238.44C180.166 238.291 179.903 238.201 179.66 238.171L176.854 239.804C177.098 239.834 177.361 239.923 177.637 240.075Z" fill="#F37874"/>
    <path d="M176.855 239.803L179.661 238.17C179.444 238.141 179.243 238.162 179.066 238.222L176.26 239.855C176.439 239.795 176.639 239.777 176.855 239.803Z" fill="#F37874"/>
    <path d="M176.26 239.856L179.066 238.223C178.997 238.247 178.933 238.275 178.871 238.312L176.067 239.945C176.127 239.91 176.193 239.879 176.26 239.856Z" fill="#F37874"/>
  </g>
  <path d="M179.305 245.51L182.111 243.875C182.519 243.638 182.774 243.134 182.776 242.418C182.779 240.963 181.758 239.201 180.499 238.473L177.693 240.108C178.952 240.834 179.975 242.599 179.972 244.051C179.968 244.768 179.715 245.272 179.305 245.51Z" fill="#F37874"/>
  <mask id="mask7_420_1112" style="mask-type:luminance" maskUnits="userSpaceOnUse" x="177" y="238" width="6" height="8">
    <path d="M179.305 245.51L182.111 243.875C182.519 243.638 182.774 243.134 182.776 242.418C182.779 240.963 181.758 239.201 180.499 238.473L177.693 240.108C178.952 240.834 179.975 242.599 179.972 244.051C179.968 244.768 179.715 245.272 179.305 245.51Z" fill="white"/>
  </mask>
  <g mask="url(#mask7_420_1112)">
    <path d="M179.305 245.51L182.111 243.875C182.519 243.638 182.774 243.134 182.776 242.418C182.776 242.19 182.752 241.954 182.705 241.716L179.901 243.351C179.947 243.589 179.972 243.823 179.972 244.05C179.968 244.768 179.715 245.272 179.305 245.51Z" fill="#F37874"/>
    <path d="M179.901 243.351L182.705 241.716C182.648 241.427 182.559 241.131 182.44 240.842L179.634 242.477C179.752 242.765 179.843 243.059 179.901 243.351Z" fill="#F37874"/>
    <path d="M179.634 242.476L182.44 240.841C182.309 240.52 182.144 240.207 181.952 239.914L179.148 241.547C179.338 241.841 179.503 242.155 179.634 242.476Z" fill="#F37874"/>
    <path d="M179.147 241.548L181.951 239.915C181.557 239.31 181.05 238.791 180.498 238.472L177.692 240.107C178.246 240.425 178.753 240.944 179.147 241.548Z" fill="#F37874"/>
  </g>
  <path d="M177.693 240.107C176.429 239.375 175.404 239.959 175.401 241.413C175.398 242.859 176.414 244.62 177.678 245.35C178.937 246.078 179.966 245.498 179.971 244.05C179.975 242.598 178.952 240.833 177.693 240.107Z" fill="#F36B6B"/>
  <path d="M109.872 302.034L109.907 312.185C109.892 307.71 106.91 303.247 100.975 299.87C89.176 293.156 70.186 293.275 58.554 300.134C52.772 303.543 49.895 307.973 49.91 312.391L49.875 302.241C49.86 297.822 52.737 293.392 58.518 289.984C70.151 283.125 89.14 283.005 100.94 289.719C106.875 293.096 109.857 297.559 109.872 302.034Z" fill="#FF1F70"/>
  <mask id="mask8_420_1112" style="mask-type:luminance" maskUnits="userSpaceOnUse" x="49" y="284" width="61" height="29">
    <path d="M109.872 302.034L109.907 312.185C109.892 307.71 106.91 303.247 100.975 299.87C89.176 293.156 70.186 293.275 58.554 300.134C52.772 303.543 49.895 307.973 49.91 312.391L49.875 302.241C49.86 297.822 52.737 293.392 58.518 289.984C70.151 283.125 89.14 283.005 100.94 289.719C106.875 293.096 109.857 297.559 109.872 302.034Z" fill="white"/>
  </mask>
  <g mask="url(#mask8_420_1112)">
    <path d="M109.872 302.034L109.907 312.185C109.892 307.71 106.91 303.247 100.975 299.87C89.176 293.156 70.186 293.275 58.554 300.134C52.772 303.543 49.895 307.973 49.91 312.391L49.875 302.241C49.86 297.822 52.737 293.392 58.518 289.984C70.151 283.125 89.14 283.005 100.94 289.719C106.875 293.096 109.857 297.559 109.872 302.034Z" fill="#FF1F70"/>
  </g>
  <path d="M114.992 302.016L115.014 310.153C115.032 315.325 111.665 320.511 104.901 324.499C91.281 332.529 69.047 332.672 55.237 324.814C48.288 320.861 44.798 315.635 44.779 310.395L44.757 302.259C44.775 307.499 48.267 312.725 55.215 316.679C69.024 324.536 91.258 324.393 104.878 316.363C111.643 312.374 115.009 307.188 114.992 302.016Z" fill="#FF1F70"/>
  <mask id="mask9_420_1112" style="mask-type:luminance" maskUnits="userSpaceOnUse" x="44" y="302" width="72" height="29">
    <path d="M114.992 302.016L115.014 310.153C115.032 315.325 111.665 320.511 104.901 324.499C91.281 332.529 69.047 332.672 55.237 324.814C48.288 320.861 44.798 315.635 44.779 310.395L44.757 302.259C44.775 307.499 48.267 312.725 55.215 316.679C69.024 324.536 91.258 324.393 104.878 316.363C111.643 312.374 115.009 307.188 114.992 302.016Z" fill="white"/>
  </mask>
  <g mask="url(#mask9_420_1112)">
    <path d="M114.992 302.016L115.014 310.153C115.032 315.325 111.665 320.511 104.901 324.499C91.281 332.529 69.047 332.672 55.237 324.814C48.288 320.861 44.798 315.635 44.779 310.395L44.757 302.259C44.775 307.499 48.267 312.725 55.215 316.679C69.024 324.536 91.258 324.393 104.878 316.363C111.643 312.374 115.009 307.188 114.992 302.016Z" fill="#FF1F70"/>
  </g>
  <path d="M104.535 287.599C118.345 295.456 118.493 308.334 104.878 316.362C91.258 324.392 69.024 324.536 55.215 316.678C41.406 308.82 41.252 295.939 54.873 287.909C68.487 279.882 90.726 279.742 104.535 287.599ZM58.811 314.558C70.605 321.269 89.596 321.149 101.233 314.288C112.866 307.429 112.735 296.43 100.941 289.719C89.141 283.005 70.152 283.125 58.519 289.984C46.88 296.845 47.011 307.844 58.811 314.558Z" fill="#52C3FF"/>
  <path opacity="0.4" d="M109.62 304.355C108.787 307.971 105.991 311.476 101.23 314.285C89.599 321.152 70.609 321.272 58.813 314.559C53.916 311.773 51.029 308.257 50.158 304.605C50.983 300.98 53.779 297.476 58.548 294.667C70.18 287.807 89.17 287.688 100.973 294.401C105.862 297.187 108.748 300.702 109.62 304.355Z" fill="#52C3FF"/>
  <path d="M128.398 330.024L106.528 317.415C106.01 317.117 105.293 317.161 104.503 317.621L126.373 330.229C127.163 329.77 127.88 329.724 128.398 330.024Z" fill="#C5C8EE"/>
  <mask id="mask10_420_1112" style="mask-type:luminance" maskUnits="userSpaceOnUse" x="104" y="317" width="25" height="14">
    <path d="M128.398 330.024L106.528 317.415C106.01 317.117 105.293 317.161 104.503 317.621L126.373 330.229C127.163 329.77 127.88 329.724 128.398 330.024Z" fill="white"/>
  </mask>
  <g mask="url(#mask10_420_1112)">
    <path d="M128.398 330.024L106.528 317.415C106.01 317.117 105.293 317.161 104.503 317.621L126.373 330.229C127.163 329.77 127.88 329.724 128.398 330.024Z" fill="#C5C8EE"/>
  </g>
  <path d="M102.522 324.364L124.392 336.972C123.881 336.676 123.561 336.046 123.556 335.149C123.545 333.345 124.806 331.141 126.374 330.228L104.504 317.62C102.937 318.532 101.675 320.736 101.686 322.541C101.691 323.439 102.01 324.069 102.522 324.364Z" fill="#ACAFF1"/>
  <mask id="mask11_420_1112" style="mask-type:luminance" maskUnits="userSpaceOnUse" x="101" y="317" width="26" height="20">
    <path d="M102.522 324.364L124.392 336.972C123.881 336.676 123.561 336.046 123.556 335.149C123.545 333.345 124.806 331.141 126.374 330.228L104.504 317.62C102.937 318.532 101.675 320.736 101.686 322.541C101.691 323.439 102.01 324.069 102.522 324.364Z" fill="white"/>
  </mask>
  <g mask="url(#mask11_420_1112)">
    <path d="M123.556 335.15C123.552 334.547 123.693 333.901 123.937 333.272L102.073 320.648C101.825 321.282 101.682 321.934 101.686 322.542C101.692 323.439 102.011 324.069 102.523 324.364L124.392 336.972C123.88 336.677 123.561 336.047 123.556 335.15Z" fill="#C5C8EE"/>
    <path d="M126.373 330.229L104.503 317.621C103.463 318.226 102.561 319.4 102.072 320.648L123.936 333.272C124.423 332.018 125.329 330.837 126.373 330.229Z" fill="#E6E6F0"/>
  </g>
  <path d="M126.373 330.229C124.805 331.141 123.544 333.345 123.555 335.15C123.567 336.956 124.847 337.68 126.414 336.767C127.982 335.854 129.244 333.651 129.233 331.845C129.223 330.04 127.942 329.316 126.373 330.229Z" fill="#C5C8EE"/>
  <path d="M168.613 347.629L120.465 321.681C119.512 321.135 118.196 321.221 116.749 322.069L164.154 348.094C165.89 347.077 167.468 346.973 168.613 347.629Z" fill="#FF1F70"/>
  <mask id="mask12_420_1112" style="mask-type:luminance" maskUnits="userSpaceOnUse" x="116" y="321" width="53" height="28">
    <path d="M168.613 347.629L120.465 321.681C119.512 321.135 118.196 321.221 116.749 322.069L164.154 348.094C165.89 347.077 167.468 346.973 168.613 347.629Z" fill="white"/>
  </mask>
  <g mask="url(#mask12_420_1112)">
    <path d="M168.613 347.629L120.465 321.681C119.512 321.135 118.196 321.221 116.749 322.069L164.154 348.094C165.89 347.077 167.468 346.973 168.613 347.629Z" fill="#FF1F70"/>
  </g>
  <path d="M113.145 334.458L159.829 362.961C158.7 362.314 157.994 360.929 157.976 358.953C157.94 354.975 160.706 350.114 164.154 348.094L116.749 322.069C113.876 323.752 111.571 327.802 111.601 331.118C111.616 332.765 112.204 333.92 113.145 334.458Z" fill="#FF1F70"/>
  <mask id="mask13_420_1112" style="mask-type:luminance" maskUnits="userSpaceOnUse" x="111" y="322" width="54" height="41">
    <path d="M113.145 334.458L159.829 362.961C158.7 362.314 157.994 360.929 157.976 358.953C157.94 354.975 160.706 350.114 164.154 348.094L116.749 322.069C113.876 323.752 111.571 327.802 111.601 331.118C111.616 332.765 112.204 333.92 113.145 334.458Z" fill="white"/>
  </mask>
  <g mask="url(#mask13_420_1112)">
    <path d="M157.975 358.953C157.939 354.975 160.705 350.114 164.153 348.094L116.748 322.069C113.875 323.752 111.57 327.802 111.6 331.118L157.975 358.953Z" fill="#FF1F70"/>
    <path d="M111.601 331.118C111.616 332.765 112.204 333.92 113.145 334.458L159.829 362.961C158.7 362.314 157.994 360.929 157.976 358.953L111.601 331.118Z" fill="#FF1F70"/>
  </g>
  <path d="M164.154 348.094C160.706 350.114 157.939 354.975 157.976 358.953C158.013 362.931 160.838 364.516 164.286 362.496C167.735 360.475 170.502 355.614 170.466 351.636C170.43 347.658 167.604 346.073 164.154 348.094Z" fill="#1D6890"/>
  <mask id="mask14_420_1112" style="mask-type:luminance" maskUnits="userSpaceOnUse" x="92" y="185" width="149" height="91">
    <path d="M96.753 275.879L240.04 192.61C237.626 191.216 235.665 187.821 235.674 185.047L92.386 268.316C92.378 271.091 94.338 274.486 96.753 275.879Z" fill="white"/>
  </mask>
  <g mask="url(#mask14_420_1112)">
    <path d="M96.753 275.879L240.04 192.61C237.626 191.216 235.665 187.821 235.674 185.047L92.386 268.316C92.378 271.091 94.338 274.486 96.753 275.879Z" fill="#F39A00"/>
  </g>
  <path d="M92.386 268.316L235.673 185.047L235.699 175.822L92.412 259.091L92.386 268.316Z" fill="#F39A00"/>
  <path d="M92.412 259.061L235.699 175.792C235.703 174.414 236.192 173.443 236.979 172.985L93.692 256.254C92.905 256.712 92.416 257.683 92.412 259.061Z" fill="#F39A00"/>
  <path d="M92.412 259.091L235.699 175.822L233.532 174.57L90.244 257.84L92.412 259.091Z" fill="#F39A00"/>
  <path d="M198.277 334.495L341.565 251.225L240.04 192.61L96.753 275.879L198.277 334.495Z" fill="#F39A00"/>
  <path d="M198.27 336.985L341.557 253.716L341.565 251.225L198.277 334.495L198.27 336.985Z" fill="#F3AE00"/>
  <path d="M90.244 257.84L90.218 267.065C90.206 271.212 93.137 276.287 96.745 278.371L198.27 336.986L198.277 334.495L96.753 275.879C94.339 274.485 92.379 271.09 92.387 268.316L92.413 259.091L90.244 257.84Z" fill="#EFBD0D"/>
  <path d="M234.324 175.283L98.201 254.389C99.09 253.873 100.32 253.946 101.679 254.73L237.802 175.624C236.443 174.839 235.212 174.766 234.324 175.283Z" fill="#EDEDED"/>
  <mask id="mask15_420_1112" style="mask-type:luminance" maskUnits="userSpaceOnUse" x="98" y="174" width="140" height="81">
    <path d="M234.324 175.283L98.201 254.389C99.09 253.873 100.32 253.946 101.679 254.73L237.802 175.624C236.443 174.839 235.212 174.766 234.324 175.283Z" fill="white"/>
  </mask>
  <g mask="url(#mask15_420_1112)">
    <path d="M101.679 254.73L237.802 175.624C236.443 174.839 235.212 174.767 234.324 175.283L98.201 254.389C99.09 253.872 100.32 253.945 101.679 254.73Z" fill="#EDEDED"/>
  </g>
  <path d="M198.424 330.089L334.546 250.983L334.601 231.511L198.479 310.617L198.424 330.089Z" fill="#C5C8EE"/>
  <path d="M198.479 310.617L334.601 231.511L237.802 175.624L101.679 254.73L198.479 310.617Z" fill="#EDEDED"/>
  <path d="M101.679 254.73C98.979 253.171 96.785 254.422 96.776 257.524L96.752 265.765C96.744 268.867 98.923 272.643 101.623 274.202L198.423 330.089L198.478 310.617L101.679 254.73Z" fill="#E6E6F0"/>
  <path d="M235.445 170.345L92.158 253.615C93.35 252.922 94.999 253.017 96.815 254.066L240.102 170.797C238.286 169.748 236.637 169.653 235.445 170.345Z" fill="#F3CA35"/>
  <mask id="mask16_420_1112" style="mask-type:luminance" maskUnits="userSpaceOnUse" x="92" y="169" width="149" height="86">
    <path d="M235.445 170.345L92.158 253.615C93.35 252.922 94.999 253.017 96.815 254.066L240.102 170.797C238.286 169.748 236.637 169.653 235.445 170.345Z" fill="white"/>
  </mask>
  <g mask="url(#mask16_420_1112)">
    <path d="M96.815 254.065L240.102 170.796C238.286 169.748 236.637 169.653 235.446 170.345L92.159 253.615C93.349 252.922 94.998 253.017 96.815 254.065Z" fill="#F3CA35"/>
  </g>
  <path d="M198.332 315.172L341.619 231.902L341.626 229.411L198.339 312.681L198.332 315.172Z" fill="#F3AE00"/>
  <path d="M341.624 229.414L198.338 312.685L96.814 254.07L240.099 170.799L295.195 202.607L340.182 228.579L341.624 229.414Z" fill="#F3CA35"/>
  <path d="M96.815 254.065C93.206 251.982 90.257 253.663 90.245 257.809L92.413 259.061C92.421 256.287 94.394 255.162 96.808 256.556L198.333 315.172L198.34 312.681L96.815 254.065Z" fill="#EFBD0D"/>
  <path d="M194.991 297.21L338.278 213.941L236.753 155.325L93.466 238.595L194.991 297.21Z" fill="#E93F57"/>
  <path d="M198.113 297.514L341.4 214.245C340.602 214.709 339.496 214.644 338.278 213.941L194.991 297.21C196.21 297.914 197.315 297.978 198.113 297.514Z" fill="#E93F57"/>
  <mask id="mask17_420_1112" style="mask-type:luminance" maskUnits="userSpaceOnUse" x="194" y="213" width="148" height="85">
    <path d="M198.113 297.514L341.4 214.245C340.602 214.709 339.496 214.644 338.278 213.941L194.991 297.21C196.21 297.914 197.315 297.978 198.113 297.514Z" fill="white"/>
  </mask>
  <g mask="url(#mask17_420_1112)">
    <path d="M198.113 297.514L341.4 214.245C340.602 214.709 339.496 214.644 338.278 213.941L194.991 297.21C196.21 297.914 197.315 297.978 198.113 297.514Z" fill="#E93F57"/>
  </g>
  <path d="M199.64 300.152L342.927 216.883C344.104 216.2 344.835 214.748 344.84 212.688L201.553 295.957C201.547 298.017 200.817 299.468 199.64 300.152Z" fill="#E93F57"/>
  <mask id="mask18_420_1112" style="mask-type:luminance" maskUnits="userSpaceOnUse" x="199" y="212" width="146" height="89">
    <path d="M199.64 300.152L342.927 216.883C344.104 216.2 344.835 214.748 344.84 212.688L201.553 295.957C201.547 298.017 200.817 299.468 199.64 300.152Z" fill="white"/>
  </mask>
  <g mask="url(#mask18_420_1112)">
    <path d="M199.64 300.152L342.927 216.883C344.104 216.2 344.835 214.748 344.84 212.688L201.553 295.957C201.547 298.017 200.817 299.468 199.64 300.152Z" fill="#E93F57"/>
  </g>
  <path d="M201.553 295.957L344.84 212.688L342.679 211.44L199.392 294.709L201.553 295.957Z" fill="#E93F57"/>
  <path d="M194.991 297.21L93.466 238.595L93.459 241.086L194.983 299.701L194.991 297.21Z" fill="#F3566C"/>
  <path d="M200.786 296.243L102.645 239.581L102.718 214.993L200.786 271.613V296.243Z" fill="#E6E6F0"/>
  <path d="M201.545 295.957L344.832 212.688L344.858 195.63L201.571 278.899L201.545 295.957Z" fill="#E93F57"/>
  <path d="M338.331 184.325L195.046 267.595L183.1 260.693L138.102 234.722L93.522 208.98L236.807 125.71L338.331 184.325Z" fill="#F37874"/>
  <mask id="mask19_420_1112" style="mask-type:luminance" maskUnits="userSpaceOnUse" x="195" y="184" width="150" height="95">
    <path d="M201.571 278.899L344.858 195.63C344.87 191.476 341.939 186.408 338.331 184.324L195.044 267.593C198.652 269.677 201.583 274.745 201.571 278.899Z" fill="white"/>
  </mask>
  <g mask="url(#mask19_420_1112)">
    <path d="M201.571 278.899L344.858 195.63C344.87 191.476 341.939 186.408 338.331 184.324L195.044 267.593C198.652 269.677 201.583 274.745 201.571 278.899Z" fill="#F36379"/>
  </g>
  <path d="M93.52 208.979L93.513 211.462L195.038 270.077C197.459 271.475 199.419 274.87 199.411 277.652L199.385 294.71L201.546 295.958L201.572 278.9C201.584 274.746 198.653 269.678 195.045 267.594L93.52 208.979Z" fill="#F3566C"/>
  <path d="M194.983 299.701C198.592 301.784 201.541 300.103 201.553 295.957L199.392 294.709C199.384 297.483 197.411 298.607 194.99 297.21L194.983 299.701Z" fill="#F3566C"/>
  <path d="M265.671 174.071L265.655 179.652L170.378 235.021L170.394 229.44L265.671 174.071Z" fill="#52C3FF"/>
  <path d="M170.394 229.44L170.378 235.021L115.426 203.295L115.442 197.714L170.394 229.44Z" fill="#52C3FF"/>
  <path d="M265.671 174.071L170.394 229.44L115.442 197.714L210.72 142.344L265.671 174.071Z" fill="#FF1F70"/>
  <path d="M121.946 198.435C121.001 198.435 120.234 197.669 120.234 196.723L120.233 116.705C120.233 111.488 123.772 105.359 128.29 102.75L200.328 61.161C202.804 59.732 205.22 59.553 207.132 60.657C209.044 61.761 210.097 63.943 210.097 66.801L210.098 146.819C210.098 147.764 209.332 148.531 208.386 148.531C207.441 148.531 206.675 147.765 206.675 146.819L206.674 66.801C206.674 65.24 206.217 64.081 205.421 63.621C204.625 63.162 203.393 63.345 202.041 64.125L130.004 105.714C126.564 107.7 123.659 112.733 123.659 116.704L123.66 196.722C123.658 197.668 122.891 198.435 121.946 198.435Z" fill="#1D6890"/>
  <path d="M232.23 135.512C232.23 142.634 226.46 148.403 219.339 148.403C214.774 148.403 210.762 146.03 208.472 142.447C207.194 140.444 206.451 138.065 206.451 135.512C206.451 128.393 212.221 122.624 219.339 122.624C221.428 122.624 223.401 123.121 225.144 124C229.348 126.125 232.23 130.482 232.23 135.512Z" fill="#ACAFF1"/>
  <path d="M227.161 130.93C227.161 138.051 221.389 143.821 214.27 143.821C212.184 143.821 210.214 143.327 208.471 142.448C207.193 140.445 206.45 138.066 206.45 135.513C206.45 128.394 212.22 122.625 219.338 122.625C221.427 122.625 223.4 123.122 225.143 124.001C226.419 126 227.161 128.379 227.161 130.93Z" fill="#D1D2EC"/>
  <path d="M220.681 127.165C219.37 125.207 215.79 125.306 212.685 127.386C209.58 129.466 208.126 132.738 209.438 134.696C210.749 136.653 214.329 136.555 217.434 134.475C220.539 132.396 221.992 129.123 220.681 127.165Z" fill="#E6E6F0"/>
  <path d="M220.76 123.496C220.749 123.496 220.737 123.495 220.725 123.493C220.663 123.48 220.614 123.435 220.596 123.374L202.491 62.2129C202.464 62.1219 202.516 62.0269 202.606 61.9999C202.697 61.9719 202.792 62.0249 202.819 62.1149L220.833 122.97L249.205 89.0999C249.266 89.0279 249.374 89.0179 249.446 89.0789C249.518 89.1399 249.528 89.2479 249.467 89.3199L220.89 123.435C220.858 123.474 220.81 123.496 220.76 123.496Z" fill="#FF1F70"/>
  <path d="M221.346 124.541C221.251 124.541 221.175 124.464 221.175 124.37C221.175 124.04 220.934 123.622 220.648 123.457C220.541 123.395 220.446 123.379 220.386 123.414C220.326 123.448 220.292 123.539 220.292 123.662C220.292 123.757 220.215 123.833 220.121 123.833C220.026 123.833 219.95 123.757 219.95 123.662C219.95 123.409 220.044 123.216 220.215 123.117C220.386 123.018 220.6 123.034 220.819 123.16C221.211 123.386 221.517 123.917 221.517 124.369C221.517 124.465 221.441 124.541 221.346 124.541Z" fill="#FF1F70"/>
  <path d="M207.262 149.941C207.262 157.063 201.493 162.832 194.371 162.832C189.806 162.832 185.794 160.459 183.504 156.876C182.226 154.873 181.483 152.494 181.483 149.941C181.483 142.822 187.253 137.053 194.371 137.053C196.46 137.053 198.433 137.55 200.176 138.429C204.38 140.553 207.262 144.911 207.262 149.941Z" fill="#ACAFF1"/>
  <path d="M202.194 145.358C202.194 152.479 196.422 158.249 189.303 158.249C187.217 158.249 185.247 157.755 183.504 156.876C182.226 154.873 181.483 152.494 181.483 149.941C181.483 142.822 187.253 137.053 194.371 137.053C196.46 137.053 198.433 137.55 200.176 138.429C201.451 140.429 202.194 142.808 202.194 145.358Z" fill="#D1D2EC"/>
  <path d="M195.713 141.594C194.402 139.636 190.822 139.735 187.717 141.815C184.612 143.895 183.158 147.167 184.469 149.125C185.78 151.083 189.36 150.984 192.465 148.904C195.571 146.824 197.025 143.552 195.713 141.594Z" fill="#E6E6F0"/>
  <path d="M195.792 137.924C195.781 137.924 195.769 137.923 195.757 137.92C195.695 137.907 195.645 137.862 195.627 137.801L177.522 76.6399C177.495 76.5489 177.547 76.4539 177.637 76.4269C177.729 76.3989 177.823 76.4519 177.85 76.5419L195.864 137.397L224.237 103.527C224.298 103.455 224.406 103.445 224.478 103.506C224.551 103.567 224.56 103.675 224.499 103.747L195.921 137.862C195.89 137.902 195.842 137.924 195.792 137.924Z" fill="#FF1F70"/>
  <path d="M196.378 138.97C196.283 138.97 196.207 138.893 196.207 138.799C196.207 138.469 195.966 138.051 195.68 137.886C195.573 137.824 195.478 137.808 195.418 137.843C195.359 137.877 195.324 137.968 195.324 138.091C195.324 138.186 195.247 138.262 195.153 138.262C195.058 138.262 194.982 138.185 194.982 138.091C194.982 137.838 195.076 137.645 195.247 137.546C195.418 137.447 195.632 137.463 195.852 137.589C196.243 137.815 196.55 138.346 196.55 138.798C196.55 138.893 196.473 138.97 196.378 138.97Z" fill="#FF1F70"/>
  <path d="M182.294 164.626C182.294 171.748 176.524 177.517 169.403 177.517C164.838 177.517 160.826 175.144 158.536 171.561C157.258 169.558 156.515 167.179 156.515 164.626C156.515 157.507 162.285 151.738 169.403 151.738C171.492 151.738 173.465 152.235 175.208 153.114C179.413 155.239 182.294 159.597 182.294 164.626Z" fill="#ACAFF1"/>
  <path d="M177.226 160.044C177.226 167.165 171.454 172.935 164.335 172.935C162.249 172.935 160.279 172.441 158.536 171.562C157.258 169.559 156.515 167.18 156.515 164.627C156.515 157.508 162.285 151.739 169.403 151.739C171.492 151.739 173.465 152.236 175.208 153.115C176.483 155.114 177.226 157.493 177.226 160.044Z" fill="#D1D2EC"/>
  <path d="M170.746 156.279C169.435 154.322 165.855 154.42 162.75 156.5C159.645 158.579 158.191 161.852 159.502 163.81C160.813 165.768 164.393 165.669 167.498 163.589C170.603 161.51 172.057 158.237 170.746 156.279Z" fill="#E6E6F0"/>
  <path d="M170.825 152.609C170.813 152.609 170.802 152.608 170.79 152.606C170.728 152.593 170.679 152.547 170.66 152.487L152.555 91.326C152.528 91.235 152.58 91.14 152.671 91.113C152.762 91.085 152.857 91.138 152.883 91.228L170.897 152.083L199.27 118.213C199.331 118.141 199.439 118.131 199.511 118.192C199.583 118.253 199.593 118.361 199.532 118.433L170.955 152.548C170.923 152.587 170.874 152.609 170.825 152.609Z" fill="#FF1F70"/>
  <path d="M171.411 153.655C171.316 153.655 171.24 153.578 171.24 153.484C171.24 153.154 170.999 152.736 170.713 152.571C170.606 152.51 170.511 152.494 170.451 152.528C170.391 152.563 170.357 152.653 170.357 152.777C170.357 152.871 170.28 152.948 170.186 152.948C170.092 152.948 170.015 152.871 170.015 152.777C170.015 152.524 170.109 152.331 170.28 152.232C170.451 152.133 170.665 152.148 170.884 152.275C171.276 152.501 171.582 153.032 171.582 153.485C171.582 153.578 171.505 153.655 171.411 153.655Z" fill="#FF1F70"/>
  <path d="M157.326 179.312C157.326 186.433 151.556 192.203 144.435 192.203C139.87 192.203 135.858 189.83 133.568 186.247C132.29 184.244 131.547 181.865 131.547 179.312C131.547 172.193 137.316 166.424 144.435 166.424C146.524 166.424 148.497 166.921 150.24 167.8C154.445 169.924 157.326 174.282 157.326 179.312Z" fill="#ACAFF1"/>
  <path d="M152.258 174.729C152.258 181.85 146.486 187.62 139.367 187.62C137.281 187.62 135.311 187.126 133.568 186.247C132.29 184.244 131.547 181.865 131.547 179.312C131.547 172.193 137.316 166.424 144.435 166.424C146.524 166.424 148.497 166.921 150.24 167.8C151.516 169.8 152.258 172.178 152.258 174.729Z" fill="#D1D2EC"/>
  <path d="M145.778 170.965C144.467 169.007 140.887 169.106 137.782 171.186C134.677 173.265 133.223 176.538 134.535 178.496C135.846 180.454 139.426 180.355 142.531 178.275C145.635 176.195 147.089 172.922 145.778 170.965Z" fill="#E6E6F0"/>
  <path d="M145.857 167.295C145.845 167.295 145.834 167.294 145.822 167.291C145.76 167.278 145.711 167.232 145.693 167.172L127.588 106.011C127.561 105.92 127.613 105.825 127.704 105.798C127.795 105.771 127.89 105.823 127.917 105.914L145.931 166.769L174.304 132.899C174.365 132.827 174.473 132.817 174.545 132.878C174.617 132.939 174.627 133.047 174.566 133.119L145.989 167.234C145.955 167.273 145.907 167.295 145.857 167.295Z" fill="#FF1F70"/>
  <path d="M146.443 168.34C146.348 168.34 146.272 168.264 146.272 168.169C146.272 167.839 146.031 167.421 145.745 167.256C145.638 167.194 145.543 167.178 145.483 167.213C145.423 167.248 145.389 167.338 145.389 167.462C145.389 167.557 145.312 167.633 145.218 167.633C145.123 167.633 145.047 167.556 145.047 167.462C145.047 167.209 145.141 167.016 145.312 166.917C145.483 166.818 145.698 166.833 145.916 166.96C146.308 167.186 146.614 167.717 146.614 168.169C146.614 168.264 146.537 168.34 146.443 168.34Z" fill="#FF1F70"/>
  <path d="M170.356 226.261C169.411 226.261 168.644 225.495 168.644 224.549V144.531C168.644 139.314 172.183 133.184 176.701 130.576L248.738 88.986C251.214 87.557 253.63 87.378 255.542 88.482C257.454 89.586 258.507 91.768 258.507 94.626L258.508 174.644C258.508 175.589 257.742 176.356 256.796 176.356C255.851 176.356 255.084 175.59 255.084 174.644L255.083 94.626C255.083 93.065 254.626 91.906 253.83 91.446C253.034 90.986 251.801 91.17 250.45 91.95L178.413 133.54C174.974 135.525 172.067 140.559 172.067 144.53L172.068 224.548C172.068 225.495 171.301 226.261 170.356 226.261Z" fill="#1D6890"/>
  <path d="M358.08 316.521L354.762 318.449V321.307H336.921V318.569L333.375 316.522H330.208C332.136 320.175 334.441 324.518 335.776 326.938C335.964 327.28 336.211 327.731 336.536 328.172C336.788 328.607 337.206 329.015 337.802 329.36L341.953 331.756C342.207 331.903 342.481 332.03 342.769 332.141C342.868 332.179 342.978 332.203 343.08 332.237C343.276 332.301 343.469 332.368 343.674 332.417C343.798 332.446 343.929 332.461 344.056 332.485C344.25 332.521 344.441 332.562 344.64 332.585C344.775 332.601 344.913 332.602 345.049 332.611C345.228 332.623 345.405 332.644 345.585 332.645C345.601 332.645 345.618 332.643 345.634 332.643C345.823 332.644 346.01 332.628 346.199 332.617C346.35 332.608 346.502 332.608 346.651 332.592C346.855 332.57 347.051 332.53 347.249 332.494C347.378 332.471 347.511 332.457 347.637 332.428C347.862 332.376 348.073 332.304 348.286 332.234C348.377 332.204 348.475 332.183 348.563 332.15C348.859 332.038 349.139 331.908 349.397 331.757L353.522 329.359C353.678 329.268 353.818 329.172 353.95 329.073C353.988 329.045 354.023 329.016 354.059 328.987C354.155 328.909 354.244 328.83 354.327 328.748C354.354 328.721 354.384 328.695 354.409 328.667C354.509 328.561 354.598 328.452 354.674 328.34C354.688 328.319 354.698 328.298 354.712 328.277C354.771 328.184 354.823 328.089 354.866 327.994C354.874 327.977 354.887 327.96 354.894 327.943L361.438 316.523H358.08V316.521Z" fill="#1D6890"/>
  <path d="M361.387 305.943C365.496 308.315 365.518 312.198 361.439 314.569L353.188 319.364C349.108 321.735 342.405 321.735 338.295 319.362L329.994 314.57C325.885 312.197 325.863 308.314 329.942 305.944L338.193 301.149C342.272 298.778 348.975 298.778 353.086 301.151L361.387 305.943Z" fill="#FF1F70"/>
  <path d="M374.413 300.012L371.492 311.793C370.395 314.122 368.344 316.33 365.337 318.211L367.574 307.143C370.916 305.053 373.195 302.599 374.413 300.012Z" fill="#FF1F70"/>
  <path d="M367.574 307.142L365.337 318.21C365.113 318.35 364.884 318.488 364.65 318.624C359.941 321.361 353.899 322.861 347.721 323.127L348.001 312.606C354.865 312.311 361.578 310.643 366.81 307.602C367.071 307.451 367.325 307.298 367.574 307.142Z" fill="#FF1F70"/>
  <path d="M348.001 312.606L347.721 323.127C343.473 323.309 339.162 322.907 335.175 321.921L334.062 311.266C338.491 312.361 343.282 312.808 348.001 312.606Z" fill="#FF1F70"/>
  <path d="M334.062 311.266L335.175 321.921C332.119 321.166 329.255 320.067 326.757 318.624C321.474 315.574 319.309 311.544 318.847 307.574C318.483 304.446 315.919 295.324 315.919 295.324C315.907 299.766 318.838 304.214 324.708 307.603C327.484 309.205 330.667 310.427 334.062 311.266Z" fill="#FF1F70"/>
  <path d="M366.674 283.215C378.337 289.949 378.401 300.868 366.811 307.602C355.223 314.336 336.372 314.336 324.708 307.602C313.043 300.868 312.984 289.949 324.571 283.214C336.16 276.48 355.008 276.48 366.674 283.215Z" fill="#FF1F70"/>
  <path d="M377.066 291.793L377.054 296.136C377.041 300.755 374.005 305.368 367.937 308.894C355.729 315.989 335.87 315.983 323.582 308.889C317.393 305.316 314.303 300.629 314.316 295.949L314.328 291.606C314.315 296.285 317.405 300.973 323.594 304.546C335.882 311.64 355.741 311.645 367.949 304.551C374.016 301.025 377.053 296.412 377.066 291.793Z" fill="#FF1F70"/>
  <path d="M377.066 291.793L377.054 296.136C377.05 297.575 376.753 299.013 376.161 300.419L376.173 296.076C376.764 294.671 377.062 293.232 377.066 291.793Z" fill="#FF1F70"/>
  <path d="M367.805 278.854C380.093 285.948 380.166 297.452 367.949 304.551C355.741 311.645 335.882 311.641 323.594 304.546C311.297 297.447 311.233 285.949 323.44 278.854C335.657 271.755 355.508 271.755 367.805 278.854Z" fill="#FF1F70"/>
  <path d="M377.066 285.957L377.054 290.3C377.041 294.919 374.005 299.532 367.937 303.059C355.729 310.153 335.87 310.148 323.582 303.054C317.393 299.48 314.303 294.794 314.316 290.114L314.328 285.771C314.315 290.451 317.405 295.138 323.594 298.712C335.882 305.806 355.741 305.811 367.949 298.717C374.016 295.189 377.053 290.576 377.066 285.957Z" fill="#FF1F70"/>
  <path d="M377.066 285.958L377.054 290.301C377.05 291.74 376.753 293.179 376.161 294.584L376.173 290.242C376.764 288.836 377.062 287.397 377.066 285.958Z" fill="#FF1F70"/>
  <path d="M367.805 273.019C380.093 280.114 380.166 291.617 367.949 298.716C355.741 305.81 335.882 305.805 323.594 298.711C311.297 291.611 311.233 280.113 323.44 273.018C335.657 265.92 355.508 265.92 367.805 273.019Z" fill="#FF1F70"/>
  <path d="M377.066 280.123L377.054 284.466C377.041 289.085 374.005 293.699 367.937 297.225C355.729 304.319 335.87 304.314 323.582 297.22C317.393 293.647 314.303 288.96 314.316 284.28L314.328 279.937C314.315 284.616 317.405 289.304 323.594 292.877C335.882 299.971 355.741 299.976 367.949 292.882C374.016 289.355 377.053 284.742 377.066 280.123Z" fill="#FF1F70"/>
  <path d="M377.066 280.123L377.054 284.466C377.05 285.905 376.753 287.344 376.161 288.749L376.173 284.406C376.764 283 377.062 281.562 377.066 280.123Z" fill="#FF1F70"/>
  <path d="M367.805 267.184C380.093 274.278 380.166 285.781 367.949 292.881C355.741 299.975 335.882 299.971 323.594 292.876C311.297 285.776 311.233 274.279 323.44 267.185C335.657 260.085 355.508 260.085 367.805 267.184Z" fill="#FF1F70"/>
  <path d="M377.066 274.288L377.054 278.63C377.041 283.25 374.005 287.862 367.937 291.389C355.729 298.484 335.87 298.479 323.582 291.384C317.393 287.811 314.303 283.124 314.316 278.444L314.328 274.102C314.315 278.781 317.405 283.469 323.594 287.041C335.882 294.136 355.741 294.14 367.949 287.046C374.016 283.52 377.053 278.907 377.066 274.288Z" fill="#FF1F70"/>
  <path d="M377.066 274.288L377.054 278.63C377.05 280.069 376.753 281.508 376.161 282.914L376.173 278.571C376.764 277.166 377.062 275.727 377.066 274.288Z" fill="#FF1F70"/>
  <path d="M367.805 261.349C380.093 268.443 380.166 279.947 367.949 287.046C355.741 294.141 335.882 294.136 323.594 287.041C311.297 279.942 311.233 268.443 323.44 261.349C335.657 254.25 355.508 254.25 367.805 261.349Z" fill="#FF1F70"/>
  <path d="M377.066 268.453L377.054 272.796C377.041 277.415 374.005 282.028 367.937 285.554C355.729 292.649 335.87 292.644 323.582 285.549C317.393 281.976 314.303 277.289 314.316 272.609L314.328 268.266C314.315 272.946 317.405 277.633 323.594 281.206C335.882 288.3 355.741 288.305 367.949 281.211C374.016 277.685 377.053 273.072 377.066 268.453Z" fill="#FF1F70"/>
  <path d="M377.066 268.453L377.054 272.796C377.041 277.415 374.005 282.028 367.937 285.554C355.729 292.649 335.87 292.644 323.582 285.549C317.393 281.976 314.303 277.289 314.316 272.609L314.328 268.266C314.315 272.946 317.405 277.633 323.594 281.206C335.882 288.3 355.741 288.305 367.949 281.211C374.016 277.685 377.053 273.072 377.066 268.453Z" fill="#FF1F70"/>
  <mask id="mask20_420_1112" style="mask-type:luminance" maskUnits="userSpaceOnUse" x="314" y="268" width="64" height="23">
    <path d="M377.066 268.453L377.054 272.796C377.041 277.415 374.005 282.028 367.937 285.554C355.729 292.649 335.87 292.644 323.582 285.549C317.393 281.976 314.303 277.289 314.316 272.609L314.328 268.266C314.315 272.946 317.405 277.633 323.594 281.206C335.882 288.3 355.741 288.305 367.949 281.211C374.016 277.685 377.053 273.072 377.066 268.453Z" fill="white"/>
  </mask>
  <g mask="url(#mask20_420_1112)">
    <path d="M377.066 268.453L377.054 272.796C377.05 274.235 376.753 275.674 376.161 277.079L376.173 272.737C376.764 271.331 377.062 269.892 377.066 268.453Z" fill="#FF1F70"/>
    <path d="M376.173 272.736L376.161 277.078C374.854 280.183 372.114 283.126 367.937 285.553C361.691 289.183 353.442 290.955 345.228 290.869L345.24 286.526C353.453 286.613 361.703 284.841 367.949 281.211C372.126 278.784 374.866 275.841 376.173 272.736Z" fill="#FF1F70"/>
    <path d="M345.239 286.526L345.227 290.869C337.388 290.787 329.582 289.014 323.581 285.549C317.392 281.976 314.302 277.289 314.315 272.609L314.327 268.266C314.314 272.946 317.404 277.633 323.593 281.206C329.594 284.671 337.401 286.445 345.239 286.526Z" fill="#FF1F70"/>
  </g>
  <path d="M367.805 255.515C380.093 262.609 380.166 274.112 367.949 281.212C355.741 288.306 335.882 288.301 323.594 281.207C311.297 274.108 311.233 262.609 323.44 255.515C335.657 248.415 355.508 248.415 367.805 255.515Z" fill="#FF1F70"/>
  <path d="M377.066 268.453L377.054 272.796C377.041 277.415 374.005 282.028 367.937 285.554C355.729 292.649 335.87 292.644 323.582 285.549C317.393 281.976 314.303 277.289 314.316 272.609L314.328 268.266C314.315 272.946 317.405 277.633 323.594 281.206C335.882 288.3 355.741 288.305 367.949 281.211C374.016 277.685 377.053 273.072 377.066 268.453Z" fill="#FF1F70"/>
  <path d="M377.066 262.618L377.054 266.96C377.041 271.58 374.005 276.193 367.937 279.719C355.729 286.813 335.87 286.808 323.582 279.714C317.393 276.141 314.303 271.454 314.316 266.774L314.328 262.432C314.315 267.111 317.405 271.798 323.594 275.371C335.882 282.465 355.741 282.47 367.949 275.376C374.016 271.85 377.053 267.237 377.066 262.618Z" fill="#FF1F70"/>
  <path d="M377.066 262.618L377.054 266.96C377.041 271.58 374.005 276.193 367.937 279.719C355.729 286.813 335.87 286.808 323.582 279.714C317.393 276.141 314.303 271.454 314.316 266.774L314.328 262.432C314.315 267.111 317.405 271.798 323.594 275.371C335.882 282.465 355.741 282.47 367.949 275.376C374.016 271.85 377.053 267.237 377.066 262.618Z" fill="#FF1F70"/>
  <mask id="mask21_420_1112" style="mask-type:luminance" maskUnits="userSpaceOnUse" x="314" y="262" width="64" height="24">
    <path d="M377.066 262.618L377.054 266.96C377.041 271.58 374.005 276.193 367.937 279.719C355.729 286.813 335.87 286.808 323.582 279.714C317.393 276.141 314.303 271.454 314.316 266.774L314.328 262.432C314.315 267.111 317.405 271.798 323.594 275.371C335.882 282.465 355.741 282.47 367.949 275.376C374.016 271.85 377.053 267.237 377.066 262.618Z" fill="white"/>
  </mask>
  <g mask="url(#mask21_420_1112)">
    <path d="M377.066 262.618L377.054 266.96C377.05 268.399 376.753 269.838 376.161 271.243L376.173 266.9C376.764 265.496 377.062 264.058 377.066 262.618Z" fill="#FF1F70"/>
    <path d="M376.173 266.901L376.161 271.244C374.854 274.349 372.114 277.292 367.937 279.719C361.691 283.349 353.442 285.12 345.228 285.034L345.24 280.692C353.453 280.777 361.703 279.006 367.949 275.376C372.126 272.949 374.866 270.006 376.173 266.901Z" fill="#FF1F70"/>
    <path d="M345.239 280.693L345.227 285.035C337.388 284.953 329.582 283.179 323.581 279.715C317.392 276.142 314.302 271.455 314.315 266.775L314.327 262.433C314.314 267.112 317.404 271.799 323.593 275.372C329.594 278.837 337.401 280.61 345.239 280.693Z" fill="#FF1F70"/>
  </g>
  <path d="M367.805 249.68C380.093 256.774 380.166 268.278 367.949 275.377C355.741 282.471 335.882 282.467 323.594 275.372C311.297 268.273 311.233 256.775 323.44 249.681C335.657 242.581 355.508 242.58 367.805 249.68Z" fill="#FF1F70"/>
  <path d="M377.066 262.618L377.054 266.96C377.041 271.58 374.005 276.193 367.937 279.719C355.729 286.813 335.87 286.808 323.582 279.714C317.393 276.141 314.303 271.454 314.316 266.774L314.328 262.432C314.315 267.111 317.405 271.798 323.594 275.371C335.882 282.465 355.741 282.47 367.949 275.376C374.016 271.85 377.053 267.237 377.066 262.618Z" fill="#FF1F70"/>
  <path d="M377.066 256.783L377.054 261.126C377.041 265.746 374.005 270.359 367.937 273.885C355.729 280.98 335.87 280.975 323.582 273.88C317.393 270.307 314.303 265.62 314.316 260.941L314.328 256.598C314.315 261.278 317.405 265.965 323.594 269.538C335.882 276.632 355.741 276.637 367.949 269.543C374.016 266.015 377.053 261.402 377.066 256.783Z" fill="#FF1F70"/>
  <path d="M377.066 256.783L377.054 261.126C377.041 265.746 374.005 270.359 367.937 273.885C355.729 280.98 335.87 280.975 323.582 273.88C317.393 270.307 314.303 265.62 314.316 260.941L314.328 256.598C314.315 261.278 317.405 265.965 323.594 269.538C335.882 276.632 355.741 276.637 367.949 269.543C374.016 266.015 377.053 261.402 377.066 256.783Z" fill="#FF1F70"/>
  <mask id="mask22_420_1112" style="mask-type:luminance" maskUnits="userSpaceOnUse" x="314" y="256" width="64" height="24">
    <path d="M377.066 256.783L377.054 261.126C377.041 265.746 374.005 270.359 367.937 273.885C355.729 280.98 335.87 280.975 323.582 273.88C317.393 270.307 314.303 265.62 314.316 260.941L314.328 256.598C314.315 261.278 317.405 265.965 323.594 269.538C335.882 276.632 355.741 276.637 367.949 269.543C374.016 266.015 377.053 261.402 377.066 256.783Z" fill="white"/>
  </mask>
  <g mask="url(#mask22_420_1112)">
    <path d="M377.066 256.783L377.054 261.126C377.05 262.566 376.753 264.004 376.161 265.409L376.173 261.067C376.764 259.661 377.062 258.223 377.066 256.783Z" fill="#FF1F70"/>
    <path d="M376.173 261.067L376.161 265.409C374.854 268.514 372.114 271.457 367.937 273.884C361.691 277.514 353.442 279.286 345.228 279.199L345.24 274.857C353.453 274.943 361.703 273.172 367.949 269.542C372.126 267.114 374.866 264.172 376.173 261.067Z" fill="#FF1F70"/>
    <path d="M345.239 274.857L345.227 279.199C337.388 279.118 329.582 277.344 323.581 273.879C317.392 270.306 314.302 265.619 314.315 260.94L314.327 256.597C314.314 261.277 317.404 265.964 323.593 269.537C329.594 273.001 337.401 274.776 345.239 274.857Z" fill="#FF1F70"/>
  </g>
  <path d="M367.805 243.845C380.093 250.939 380.166 262.443 367.949 269.542C355.741 276.637 335.882 276.631 323.594 269.537C311.297 262.438 311.233 250.939 323.44 243.845C335.657 236.745 355.508 236.745 367.805 243.845Z" fill="#FF1F70"/>
  <path d="M377.066 256.783L377.054 261.126C377.041 265.746 374.005 270.359 367.937 273.885C355.729 280.98 335.87 280.975 323.582 273.88C317.393 270.307 314.303 265.62 314.316 260.941L314.328 256.598C314.315 261.278 317.405 265.965 323.594 269.538C335.882 276.632 355.741 276.637 367.949 269.543C374.016 266.015 377.053 261.402 377.066 256.783Z" fill="#FF1F70"/>
  <path d="M377.066 250.949L377.054 255.292C377.041 259.911 374.005 264.524 367.937 268.05C355.729 275.144 335.87 275.14 323.582 268.045C317.393 264.472 314.303 259.785 314.316 255.106L314.328 250.763C314.315 255.443 317.405 260.13 323.594 263.703C335.882 270.797 355.741 270.802 367.949 263.708C374.016 260.18 377.053 255.568 377.066 250.949Z" fill="#FF1F70"/>
  <path d="M377.066 250.949L377.054 255.292C377.041 259.911 374.005 264.524 367.937 268.05C355.729 275.144 335.87 275.14 323.582 268.045C317.393 264.472 314.303 259.785 314.316 255.106L314.328 250.763C314.315 255.443 317.405 260.13 323.594 263.703C335.882 270.797 355.741 270.802 367.949 263.708C374.016 260.18 377.053 255.568 377.066 250.949Z" fill="#FF1F70"/>
  <mask id="mask23_420_1112" style="mask-type:luminance" maskUnits="userSpaceOnUse" x="314" y="250" width="64" height="24">
    <path d="M377.066 250.949L377.054 255.292C377.041 259.911 374.005 264.524 367.937 268.05C355.729 275.144 335.87 275.14 323.582 268.045C317.393 264.472 314.303 259.785 314.316 255.106L314.328 250.763C314.315 255.443 317.405 260.13 323.594 263.703C335.882 270.797 355.741 270.802 367.949 263.708C374.016 260.18 377.053 255.568 377.066 250.949Z" fill="white"/>
  </mask>
  <g mask="url(#mask23_420_1112)">
    <path d="M377.066 250.949L377.054 255.292C377.05 256.731 376.753 258.17 376.161 259.575L376.173 255.233C376.764 253.826 377.062 252.388 377.066 250.949Z" fill="#FF1F70"/>
    <path d="M376.173 255.232L376.161 259.574C374.854 262.679 372.114 265.622 367.937 268.049C361.691 271.679 353.442 273.451 345.228 273.365L345.24 269.022C353.453 269.108 361.703 267.337 367.949 263.707C372.126 261.279 374.866 258.337 376.173 255.232Z" fill="#FF1F70"/>
    <path d="M345.239 269.022L345.227 273.365C337.388 273.283 329.582 271.509 323.581 268.044C317.392 264.471 314.302 259.784 314.315 255.105L314.327 250.762C314.314 255.442 317.404 260.129 323.593 263.702C329.594 267.167 337.401 268.94 345.239 269.022Z" fill="#FF1F70"/>
  </g>
  <path d="M367.805 238.01C380.093 245.104 380.166 256.607 367.949 263.707C355.741 270.801 335.882 270.796 323.594 263.702C311.297 256.602 311.233 245.104 323.44 238.009C335.657 230.911 355.508 230.911 367.805 238.01Z" fill="#FF1F70"/>
  <path d="M377.066 250.949L377.054 255.292C377.041 259.911 374.005 264.524 367.937 268.05C355.729 275.144 335.87 275.14 323.582 268.045C317.393 264.472 314.303 259.785 314.316 255.106L314.328 250.763C314.315 255.443 317.405 260.13 323.594 263.703C335.882 270.797 355.741 270.802 367.949 263.708C374.016 260.18 377.053 255.568 377.066 250.949Z" fill="#FF1F70"/>
  <path d="M397.841 230.471C397.422 231.666 383.378 258.8 379.16 273.53C378.913 274.392 378.355 276.816 378.265 277.233C377.429 281.148 374.929 285 370.427 287.715C356.385 296.144 335.164 296.111 321.106 287.715C316.919 285.214 314.443 281.749 313.393 278.159C313.181 277.436 312.618 274.81 312.454 274.195C308.295 258.677 293.981 231.568 293.601 230.535C329.103 230.518 362.34 230.486 397.841 230.471Z" fill="#C5C8EE"/>
  <path d="M405.243 201.713C405.243 212.024 402.618 221.733 398.001 230.177C396.34 233.245 394.411 236.155 392.245 238.859C389.983 241.121 387.2 243.223 383.911 245.137C373.791 251.019 360.27 254.245 345.849 254.245C331.443 254.245 317.891 251.019 307.707 245.137C303.991 243.002 300.892 240.598 298.472 238.005C296.669 235.665 295.025 233.166 293.601 230.573C288.841 222.033 286.137 212.182 286.137 201.714C286.137 168.839 312.798 142.161 345.69 142.161C378.582 142.161 405.243 168.838 405.243 201.713Z" fill="#52C3FF"/>
  <path d="M368.462 262.905C381.116 270.21 381.191 282.056 368.611 289.367C356.04 296.673 335.59 296.668 322.936 289.362C310.273 282.052 310.207 270.211 322.778 262.905C335.358 255.595 355.8 255.595 368.462 262.905Z" fill="#ACAFF1"/>
  <g opacity="0.5">
    <path d="M320.801 154.92C333.51 150.711 342.809 158.05 341.562 171.328C340.317 184.596 329 198.762 316.291 202.971C303.573 207.183 294.283 199.841 295.529 186.573C296.775 173.294 308.084 159.131 320.801 154.92Z" fill="#E6E6F0"/>
  </g>
  <path d="M348.5 278.986C347.561 278.986 346.557 278.689 345.545 278.105L340.1 274.961C337.771 273.617 335.682 270.843 334.776 267.895L318.451 214.808C318.235 214.102 318.63 213.355 319.335 213.139C320.039 212.916 320.786 213.319 321.004 214.023L337.328 267.111C338.037 269.415 339.685 271.64 341.435 272.649L346.88 275.793C347.665 276.248 348.421 276.417 348.946 276.254C349.282 276.15 349.535 275.908 349.723 275.517L366.048 241.28C366.366 240.615 367.161 240.331 367.826 240.65C368.494 240.967 368.775 241.763 368.457 242.43L352.132 276.667C351.621 277.737 350.792 278.477 349.738 278.804C349.342 278.925 348.928 278.986 348.5 278.986Z" fill="#FF1F70"/>
  <path d="M336.567 232.192C334.619 232.192 332.491 231.557 330.309 230.297C323.039 226.1 317.126 215.857 317.126 207.466C317.127 203.108 318.666 199.821 321.461 198.208C324.252 196.592 327.873 196.908 331.644 199.084C338.914 203.28 344.826 213.521 344.826 221.914C344.826 226.271 343.288 229.56 340.492 231.173C339.313 231.854 337.988 232.192 336.567 232.192ZM325.393 199.862C324.434 199.862 323.557 200.08 322.796 200.52C320.862 201.636 319.797 204.102 319.797 207.465C319.797 215.007 325.112 224.211 331.644 227.983C334.556 229.665 337.223 229.977 339.156 228.859C341.091 227.743 342.155 225.276 342.155 221.913C342.155 214.37 336.841 205.167 330.309 201.396C328.545 200.379 326.869 199.862 325.393 199.862Z" fill="#FF1F70"/>
  <path d="M361.596 246.64C359.645 246.64 357.518 246.005 355.335 244.745C348.067 240.549 342.155 230.307 342.155 221.914C342.155 217.558 343.694 214.271 346.486 212.656C349.284 211.04 352.902 211.356 356.672 213.532C363.94 217.729 369.852 227.972 369.852 236.364C369.852 240.72 368.313 244.008 365.52 245.622C364.343 246.302 363.018 246.64 361.596 246.64ZM350.422 214.311C349.46 214.311 348.583 214.529 347.822 214.969C345.889 216.085 344.826 218.551 344.826 221.914C344.826 229.457 350.141 238.662 356.67 242.433C359.586 244.116 362.259 244.428 364.186 243.309C366.119 242.192 367.183 239.727 367.183 236.364C367.183 228.822 361.868 219.617 355.338 215.845C353.572 214.827 351.898 214.311 350.422 214.311Z" fill="#FF1F70"/>
  <path d="M349.081 239.415C347.133 239.415 345.005 238.78 342.822 237.521C335.554 233.324 329.641 223.082 329.641 214.69C329.641 210.334 331.179 207.045 333.974 205.432C336.767 203.818 340.381 204.128 344.158 206.308C351.426 210.505 357.341 220.746 357.341 229.138C357.341 233.494 355.802 236.783 353.006 238.396C351.83 239.077 350.503 239.415 349.081 239.415ZM337.907 207.087C336.947 207.087 336.071 207.305 335.309 207.746C333.376 208.861 332.311 211.328 332.311 214.69C332.311 222.232 337.625 231.436 344.157 235.208C347.072 236.891 349.738 237.202 351.67 236.084C353.605 234.967 354.669 232.502 354.669 229.139C354.669 221.597 349.354 212.393 342.822 208.622C341.057 207.604 339.383 207.087 337.907 207.087Z" fill="#FF1F70"/>
  <path opacity="0.2" d="M405.243 201.713C405.243 172.133 383.654 147.582 355.368 142.956C378.158 156.158 392.725 184.733 386.855 210.168C381.984 233.711 373.054 258.876 351.947 270.242C337.299 277.41 323.729 275.36 310.867 269.064C311.485 270.868 312.027 272.596 312.455 274.195C312.619 274.809 313.182 277.435 313.394 278.159C314.444 281.749 316.92 285.214 321.107 287.715C335.165 296.111 356.386 296.144 370.428 287.715C374.93 285 377.43 281.148 378.266 277.233C378.355 276.816 378.913 274.392 379.161 273.53C383.379 258.801 397.423 231.667 397.842 230.471C397.839 230.471 397.837 230.471 397.835 230.471C397.889 230.372 397.948 230.277 398.002 230.178C402.619 221.733 405.243 212.024 405.243 201.713Z" fill="#52C3FF"/>
  <path d="M236.808 298.286C236.233 297.066 231.138 285.041 231.04 281.256C230.839 273.518 238.925 273.785 241.436 285.459C242.15 288.779 244.408 295.453 244.382 297.442C244.322 302.059 239.75 304.528 236.808 298.286Z" fill="#E7A07D"/>
  <path d="M240.936 295.818L243.587 293.414C243.69 293.748 245.022 296.639 245.366 296.784C248.483 298.099 250.53 298.886 253.525 298.758C254.15 298.731 254.879 299.079 255.369 299.462C255.994 299.95 255.521 300.546 255.859 302.554C256.277 305.03 255.113 303.967 247.197 304.019C245.147 304.176 242.872 304.325 240.936 303.217V295.818Z" fill="#E7A07D"/>
  <path d="M218.38 277.712C220.618 276.694 221.433 276.137 223.784 275.606C224.165 275.52 225.447 276.003 225.829 275.922C228.687 275.317 231.731 275.452 234.381 276.618C234.411 276.631 234.439 276.646 234.469 276.66V294.204H217.656L218.38 277.712Z" fill="#E7A07D"/>
  <path d="M218.38 277.712C218.013 277.934 220.503 288.407 228.702 284.886C232.87 283.096 230.718 279.99 232.29 277.15C232.59 276.608 233.159 276.347 233.766 276.302C237.528 276.021 238.152 280.745 239.44 283.316C241.022 286.471 243.131 290.165 242.913 293.833C242.829 295.25 242.413 296.629 242.101 298.007C241.843 299.149 241.624 300.327 241.321 301.456C241.102 302.272 240.767 302.925 240.708 303.788C240.542 306.219 240.76 308.718 241.201 311.11C241.498 312.719 241.92 314.327 241.858 315.962C241.723 319.481 238.412 321.91 235.577 323.471C233.23 324.763 230.588 325.704 227.979 326.308C224.734 327.06 221.539 326.719 218.349 325.837C217.388 325.571 216.428 325.267 215.538 324.814C214.808 324.443 213.641 323.79 213.302 322.989C212.947 322.149 213.328 320.705 213.519 319.842C213.759 318.755 214.113 317.697 214.478 316.646C216.329 311.309 219.178 307.077 216.226 298.08C211.822 284.654 204.245 286.257 218.38 277.712Z" fill="#FF1F70"/>
  <path d="M208.221 308.121C208.147 306.451 208.036 290.27 209.622 285.895C212.833 277.035 221.461 281.049 218.936 295.666C218.221 299.803 217.67 308.512 216.753 310.773C214.624 316.024 208.599 316.663 208.221 308.121Z" fill="#F3B69A"/>
  <path d="M220.176 278.561C219.99 284.863 230.987 284.97 230.829 279.043C230.609 270.783 230.142 269.835 226.521 268.554C225.53 268.203 224.493 267.933 223.445 267.913C219.624 267.837 221.104 269.923 221.247 271.379C221.672 275.695 220.243 276.293 220.176 278.561Z" fill="#E7A07D"/>
  <path d="M214.663 268.849C214.741 267.988 214.867 267.133 215.072 266.293C215.508 264.505 216.603 260.756 218.759 258.968C219.7 259.173 219.537 262.014 220.447 262.311C221.313 262.595 222.025 263.275 222.778 263.779C223.24 264.089 224.037 264.431 224.195 265.025C224.494 266.146 222.817 267.775 222.272 268.686C221.068 270.698 220.706 273.11 220.568 275.414C220.422 277.873 220.977 280.377 222.185 282.526C223.121 284.193 224.424 285.642 225.265 287.359C226.533 289.948 226.642 293.079 225.555 295.749C224.886 294.231 224.202 292.689 223.13 291.424C221.717 289.756 219.72 288.677 218.247 287.062C216.866 285.549 216.003 283.621 215.482 281.641C214.635 278.425 214.511 275.08 214.541 271.774C214.549 270.8 214.575 269.82 214.663 268.849Z" fill="#1D6891"/>
  <path d="M224.585 274.817C224.293 274.514 224.01 274.204 223.735 273.887C222.783 272.788 221.704 271.513 221.103 270.188C219.173 265.93 219.637 260.551 223.372 257.425C226.023 255.208 229.918 254.593 233.123 255.888C233.99 256.238 234.802 256.714 235.584 257.229C236.259 257.673 236.925 258.159 237.405 258.809C237.72 259.236 237.947 259.721 238.149 260.213C238.376 260.765 238.577 261.334 238.658 261.926C239.023 264.587 237.013 267.051 237.724 269.713C237.88 270.295 238.148 270.846 238.284 271.431C238.42 272.017 238.406 272.676 238.041 273.15C237.695 273.599 237.279 273.799 237.048 274.314C236.734 275.011 236.491 275.761 236.207 276.473C235.897 277.25 235.583 278.036 235.099 278.719C233.915 280.389 232.467 280.345 230.767 279.457C228.471 278.257 226.376 276.677 224.585 274.817Z" fill="#F3B69A"/>
  <path d="M217.929 261.79C218.65 256.763 220.228 256.068 222.317 254.666C224.343 253.307 226.922 252.874 229.327 253.207C231.786 253.548 234.107 254.652 236.05 256.176C236.128 256.237 236.206 256.299 236.282 256.362C237.286 257.18 238.155 258.087 238.602 259.322C239 260.418 239.095 261.493 239.069 262.643C239.064 262.873 239.052 263.121 238.91 263.301C238.766 263.483 238.525 263.552 238.297 263.596C236.472 263.95 234.354 263.329 233.085 261.958C232.792 263.207 231.75 264.118 230.763 264.939C229.73 265.8 228.473 266.611 227.567 267.602C226.958 268.267 226.681 268.982 225.821 269.43C225.035 269.837 224.519 269.818 223.772 269.376C223.102 268.979 222.438 268.355 221.61 268.751C220.844 269.119 221.203 269.97 221.3 270.664C221.319 270.784 221.316 272.366 221.316 272.366C221.316 272.366 220.717 271.75 220.54 271.566C219.56 270.549 217.196 266.907 217.929 261.79Z" fill="#1D6891"/>
  <path d="M222.24 266.909C220.531 266.608 219.865 268.698 220.869 270.475C221.162 270.994 221.726 271.487 222.136 271.919C224.937 274.877 226.018 272.118 225.134 271.119C223.081 268.797 224.39 267.288 222.24 266.909Z" fill="#F3B69A"/>
  <path d="M222.919 270.941C222.74 270.738 220.903 269.37 222.324 268.725C222.717 268.546 223.095 268.915 223.11 269.313C223.118 269.519 223.031 269.721 223.04 269.927C223.045 270.049 223.084 270.168 223.136 270.278C223.279 270.581 223.844 270.917 223.684 271.32C223.541 271.676 223.022 271.057 222.919 270.941Z" fill="#E7A07D"/>
  <path d="M283.065 333.792C282.14 333.722 281.447 334.067 280.609 334.441C278.654 335.311 276.74 336.284 274.804 337.199C273.225 337.945 271.385 338.722 269.641 338.35C268.245 338.053 267.454 337.651 266.532 339.161C266.005 340.026 266.399 340.575 266.386 341.461C266.374 342.274 266.14 342.958 266.304 343.796C266.646 345.546 267.843 347.014 269.392 347.719C270.389 348.172 271.587 348.198 272.613 347.715C273.772 347.169 274.627 346.1 275.634 345.281C277.336 343.897 279.478 343.623 281.385 342.701C282.145 342.334 282.879 341.948 283.577 341.462C284.337 340.933 285.183 340.327 285.605 339.441C286.125 338.348 285.57 336.95 285.145 335.968C284.842 335.267 283.892 333.863 283.086 333.793C283.079 333.793 283.072 333.793 283.065 333.792Z" fill="#F37874"/>
  <path d="M248.734 341.754C248.759 341.798 248.786 341.843 248.816 341.888C248.884 341.99 249.007 342.09 249.022 342.217C249.047 342.44 248.789 342.734 248.682 342.908C248.322 343.495 247.814 343.978 247.393 344.52C246.994 345.034 246.752 345.554 246.496 346.146C246.288 346.627 246.163 347.104 246.11 347.622C246.027 348.442 246.063 349.303 246.111 350.125C246.149 350.775 246.279 351.426 246.372 352.075C246.541 353.249 246.661 354.442 246.907 355.603C247.109 356.561 247.434 357.463 247.606 358.425C247.738 359.163 247.819 360.159 247.106 360.657C245.687 361.649 242.201 360.025 241.305 358.991C240.204 357.721 240.307 355.916 239.888 354.37C239.363 352.433 238.161 351.677 236.702 350.28C235.911 349.522 235.119 348.731 235.113 347.582C235.107 346.51 235.826 345.52 236.539 344.759C237.189 344.064 237.931 343.567 238.704 343.019C239.401 342.525 240.235 341.854 240.741 341.171C241.113 340.67 241.375 340.101 241.8 339.624C242.585 338.743 243.734 338.371 244.827 337.972C245.421 337.755 245.819 337.618 246.227 338.14C246.689 338.731 247.171 339.299 247.66 339.869C248.032 340.303 248.291 340.631 248.489 341.182C248.565 341.395 248.631 341.573 248.734 341.754Z" fill="#F37874"/>
  <path d="M238.539 311.691C242.072 310.295 258.128 306.253 263.16 305.888C264.378 305.8 265.493 305.904 266.636 306.385C267.585 306.784 268.243 307.582 268.803 308.442C269.467 309.462 269.626 310.823 269.741 312.002C269.886 313.484 269.228 315.253 268.634 316.582C268.098 317.782 267.432 318.748 266.452 319.636C264.703 321.222 262.914 322.508 260.729 323.429C258.275 324.464 221.303 326.106 219.729 324.336C215.131 319.162 227.014 316.246 238.539 311.691Z" fill="#1D6890"/>
  <path d="M266.937 308.026C269.116 306.249 270.043 311.286 270.166 312.472C270.714 317.772 268.124 323.42 264.873 327.568C259.642 334.242 248.78 348.347 245.573 348.546C244.507 348.612 242.372 346.956 241.761 346.506C240.74 345.753 239.858 344.789 239.602 343.549C239.289 342.037 240.325 340.726 241.054 339.45C241.75 338.231 248.314 326.773 251.012 323.483C253.764 320.129 256.47 316.351 258.482 312.594C260.232 309.326 262.515 307.677 266.937 308.026Z" fill="#1D6890"/>
  <path d="M225.907 335.642C222.383 336.453 216.886 335.722 214.893 332.754C213.467 330.631 211.655 325.186 213.897 322.333C216.884 318.532 226.864 315.77 236.185 313.557C238.983 312.892 241.907 312.559 244.78 312.402C247.144 312.273 249.719 312.28 251.928 313.213C253.722 313.971 254.987 315.164 256.1 316.702C256.944 317.868 257.363 319.2 257.389 320.637C257.423 322.496 256.385 323.589 254.973 324.623C253.767 325.505 252.269 326.111 250.938 326.783C247.821 328.353 229.559 334.801 225.907 335.642Z" fill="#52C3FF"/>
  <path d="M254.882 315.195C259.002 319.273 270.693 333.983 273.093 338.003C274.601 340.531 269.127 346.211 266.146 344.295C264.137 343.004 262.221 341.569 260.367 340.082C259.104 339.069 257.877 338.019 256.646 336.972C255.011 335.582 253.441 334.147 251.845 332.723C250.91 331.888 250.173 330.864 249.207 330.104C248.265 329.364 247.594 328.041 247.036 327.002C245.849 324.792 245.112 322.209 245.72 319.587C245.935 318.661 246.865 316.363 247.713 315.826C249.014 315.001 253.806 317.257 254.882 315.195Z" fill="#52C3FF"/>
  <path d="M259.934 298.331C260.362 298.461 260.781 298.618 261.189 298.794C262.135 299.202 262.997 299.841 263.575 300.695C263.612 300.749 263.649 300.814 263.629 300.876C263.603 300.956 263.503 300.979 263.419 300.988C262.221 301.112 260.996 300.965 259.861 300.56C259.766 300.527 259.666 300.491 259.567 300.492C259.464 299.772 259.657 299.051 259.934 298.331Z" fill="#E7A07D"/>
  <path d="M265.883 312.08L242.457 314.084L242.157 311.995L261.988 309.535L265.832 310.358L265.883 312.08Z" fill="#F37874"/>
  <path d="M274.587 300.013L275.355 300.933L265.883 312.08L265.77 308.487L274.587 300.013Z" fill="#F37874"/>
  <path d="M265.832 310.358L274.587 300.013L253.007 301.095L244.412 309.992L265.832 310.358Z" fill="#D8DAEE"/>
  <path d="M265.832 310.358L252.375 311.834L233.463 313.105L244.412 309.992L265.832 310.358Z" fill="#D8DAEE"/>
  <path d="M265.832 310.358L244.412 309.992L235.403 310.377L241.155 312.025L265.832 310.358Z" fill="#ECE7DF"/>
  <path d="M250.436 299.368C251.671 299.474 251.36 298.908 253.2 298.769C255.039 298.63 257.037 297.454 259.935 298.331C259.664 299.036 259.507 299.726 259.562 300.483C259.107 300.496 259.805 301.526 259.923 301.665C260.157 301.943 260.483 302.24 260.402 302.594C260.344 302.847 260.076 303.01 259.816 303.025C258.73 303.088 258.193 301.635 256.386 301.917C252.677 302.494 254.579 301.396 251.407 302.737C250.208 303.245 250.918 302.929 250.769 301.861C250.554 300.314 252.156 300.158 250.436 299.368Z" fill="#E7A07D"/>
  <path d="M233.479 310.644C234.644 310.611 236.452 309.759 236.452 309.759C236.896 309.738 235.361 310.75 235.381 311.261C235.479 313.731 235.89 315.935 234.15 315.534C232.077 315.055 217.317 316.701 214.674 316.238C212.817 315.913 210.977 315.036 209.733 313.443C208.46 311.813 216.137 307.62 216.965 307.964C217.933 308.365 229.84 310.748 233.479 310.644Z" fill="#F3B69A"/>
  <path d="M235.268 310.261C238.83 308.85 238.831 308.677 240.764 308.879C241.801 308.988 243.184 310.274 243.411 310.74C243.823 311.588 242.514 311.506 242.233 311.411C241.911 311.303 241.674 311.025 241.364 310.887C240.146 310.345 238.933 311.97 238.335 312.499C236.47 314.148 234.482 312.24 234.489 311.039C234.491 310.56 234.867 310.42 235.268 310.261Z" fill="#F3B69A"/>
  <path d="M233.768 311.453C233.94 310.996 235.37 310.706 235.771 310.65C240.006 310.058 237.252 309.809 240.936 311.482C242.011 311.97 243.356 312.029 244.041 311.864C244.461 311.763 244.95 311.569 245.285 311.843C245.542 312.053 245.547 312.462 245.374 312.747C245.952 312.561 245.925 313.59 245.464 314.021C244.573 314.854 245.926 315.174 244.154 316.212C247.306 318.87 233.65 316.331 232.65 314.591C232.137 313.697 233.412 312.401 233.768 311.453Z" fill="#F3B69A"/>
  <path d="M310.988 369.463C310.809 369.341 303.632 364.988 302.328 364.383C301.423 363.963 298.062 361.45 297.211 360.64C295.929 359.42 295.818 358.033 296.206 356.374C296.779 353.922 301.224 353.871 307.57 359.256C307.76 359.417 313.045 363.717 313.879 364.902C315.427 367.103 313.391 371.099 310.988 369.463Z" fill="#52C3FF"/>
  <path d="M307.567 349.993C305.324 352.591 307.27 355.369 308.792 357.41C311.195 360.631 314.543 363.239 317.426 364.024C319.966 364.715 321.94 364.019 322.623 363.254C323.984 361.73 324.931 359.08 323.856 357.199C322.598 354.998 320.006 353.033 318.101 351.412C312.193 346.381 308.824 348.539 307.567 349.993Z" fill="#52C3FF"/>
  <path d="M298.645 354.313C297.322 354.525 296.432 355.51 296.399 356.853C296.362 358.37 297.12 359.631 298.392 360.39C301.883 362.473 305.455 364.461 309.267 365.875C310.576 366.361 311.925 366.781 313.316 366.906C314.707 367.03 316.154 366.844 317.381 366.176C317.882 365.903 318.339 365.554 318.746 365.154C319.06 364.845 319.345 364.502 319.555 364.115C320.049 363.203 320.09 362.081 319.765 361.095C319.029 358.865 316.912 358.021 314.823 357.436C313.979 357.2 313.119 357.028 312.255 356.88C311.841 356.809 311.295 356.81 310.911 356.624C306.21 354.35 300.99 353.937 298.645 354.313Z" fill="#1D6890"/>
  <path d="M325.201 339.198C324.473 331.023 317.532 335.292 315.138 336.154C313.423 336.772 311.778 337.582 310.242 338.564C306.093 341.216 309.568 343.018 309.188 354.125C309.148 355.282 307.939 358.489 310.51 360.422C315.359 364.067 322.738 362.129 324.398 357.784C324.905 356.459 325.309 340.413 325.201 339.198Z" fill="#FF1F70"/>
  <path d="M307.775 341.608C308.485 340.441 309.388 339.28 310.188 339.121C312.192 338.721 314.191 340.863 314.207 342.086C314.229 343.783 314 343.719 311.916 347.023C309.512 350.833 308.486 352.841 306.498 352.974C305.741 353.025 304.405 353.228 303.929 352.638C302.774 351.208 303.771 350.219 303.87 350.012C306.878 343.633 307.698 341.735 307.775 341.608Z" fill="#D8DAE4"/>
  <path d="M291.291 355.681L291.292 356.067C291.293 356.41 291.519 356.753 291.969 357.015C292.876 357.542 294.352 357.542 295.266 357.015C295.726 356.75 295.955 356.401 295.954 356.054L295.953 355.668C295.954 356.016 295.725 356.364 295.265 356.63C294.351 357.157 292.875 357.157 291.968 356.63C291.517 356.367 291.292 356.024 291.291 355.681Z" fill="#4789C5"/>
  <mask id="mask24_420_1112" style="mask-type:luminance" maskUnits="userSpaceOnUse" x="291" y="355" width="5" height="3">
    <path d="M291.291 355.681L291.292 356.067C291.293 356.41 291.519 356.753 291.969 357.015C292.876 357.542 294.352 357.542 295.266 357.015C295.726 356.75 295.955 356.401 295.954 356.054L295.953 355.668C295.954 356.016 295.725 356.364 295.265 356.63C294.351 357.157 292.875 357.157 291.968 356.63C291.517 356.367 291.292 356.024 291.291 355.681Z" fill="white"/>
  </mask>
  <g mask="url(#mask24_420_1112)">
    <path d="M291.291 355.681L291.292 356.067C291.293 356.275 291.375 356.482 291.54 356.671L291.539 356.285C291.374 356.095 291.291 355.888 291.291 355.681Z" fill="#4789C5"/>
    <path d="M291.539 356.285L291.54 356.671C291.648 356.795 291.791 356.911 291.969 357.015C292.298 357.206 292.702 357.328 293.127 357.381L293.126 356.995C292.701 356.942 292.297 356.821 291.968 356.629C291.79 356.525 291.647 356.409 291.539 356.285Z" fill="#4789C5"/>
    <path d="M293.126 356.995L293.127 357.381C293.873 357.473 294.684 357.351 295.266 357.015C295.726 356.75 295.955 356.401 295.954 356.054L295.953 355.668C295.954 356.016 295.725 356.364 295.265 356.63C294.683 356.965 293.872 357.086 293.126 356.995Z" fill="#4789C5"/>
  </g>
  <path d="M291.979 354.719C291.065 355.246 291.06 356.102 291.968 356.629C292.875 357.156 294.351 357.156 295.265 356.629C296.178 356.102 296.183 355.246 295.276 354.719C294.369 354.192 292.892 354.192 291.979 354.719Z" fill="#4D4BCF"/>
  <path d="M298.608 352.932C296.95 352.968 294.168 353.714 293.492 354.771C292.714 355.987 292.437 356.049 292.488 356.484C292.619 357.596 293.325 356.869 293.562 357.004C293.828 357.155 293.626 357.328 294.022 357.983C294.344 358.515 294.551 358.069 294.756 358.162C294.925 358.238 294.866 358.466 295.076 358.5C295.152 358.513 295.226 358.457 295.306 358.48C295.503 358.538 295.374 358.711 295.952 358.797C296.501 358.879 296.196 357.53 297.309 356.986C297.587 356.85 297.887 356.766 298.175 356.654C298.526 356.518 298.859 356.339 299.166 356.122C299.427 355.938 299.926 355.536 300.067 355.461L298.608 352.932Z" fill="#E7A07D"/>
  <path d="M297.435 354.856C297.811 355.507 298.424 356.028 299.132 356.231C300.038 356.491 300.976 355.89 301.794 355.546C302.885 355.087 303.97 354.612 305.045 354.116C305.794 353.771 306.583 353.443 307.277 352.994C307.704 352.718 308.483 352.034 308.976 351.47C309.309 351.088 308.394 350.756 307.959 350.247C307.183 349.338 307.308 347.903 306.181 347.885C305.051 347.867 297.64 352.692 297.333 352.928C297.067 353.132 297.024 353.24 297.043 353.59C297.069 354.03 297.209 354.466 297.435 354.856Z" fill="#D8DAE4"/>
  <path d="M313.676 334.763C313.569 334.032 313.016 334.201 313.296 333.538C314.404 330.908 316.443 331.653 316.641 331.653C321.032 331.668 318.761 332.02 319.707 334.934C319.838 335.337 320.978 337.389 318.673 338.503C317.215 339.208 314.233 338.924 313.714 338.081C313.295 337.401 313.898 336.283 313.676 334.763Z" fill="#F3B69A"/>
  <path d="M310.536 324.989C310.14 325.471 309.831 326.013 309.736 326.649C309.524 328.066 310.095 329.521 309.787 330.927C309.489 332.289 310.073 335.381 312.758 336.174C314.117 336.575 316.797 336.105 317.66 335.692C318.818 335.137 319.582 334.016 320.266 332.93C325.875 324.023 314.34 320.359 310.536 324.989Z" fill="#F3B69A"/>
  <path d="M321.028 322.466C320.92 322.241 320.923 321.948 320.781 321.714C320.609 321.428 320.289 321.211 319.957 321.244C319.815 321.259 319.677 321.317 319.534 321.315C319.095 321.309 318.878 320.797 318.558 320.497C318.207 320.167 317.644 320.089 317.216 320.311C317.093 320.375 316.979 320.461 316.845 320.493C316.474 320.581 316.126 320.231 315.745 320.246C315.331 320.261 315.003 320.7 314.591 320.658C314.43 320.642 314.287 320.553 314.135 320.501C313.779 320.379 313.358 320.474 313.088 320.738C312.955 320.869 312.852 321.04 312.684 321.121C312.484 321.217 312.248 321.16 312.028 321.182C311.675 321.217 311.354 321.475 311.246 321.813C311.149 322.116 311.141 322.545 310.83 322.61C310.723 322.632 310.613 322.595 310.504 322.585C310.143 322.552 309.812 322.829 309.664 323.159C309.515 323.489 309.51 323.863 309.506 324.225C309.281 324.18 309.061 324.359 308.978 324.572C308.895 324.785 308.915 325.023 308.936 325.251C308.994 325.869 309.076 326.542 309.518 326.978C309.644 327.102 309.798 327.205 309.88 327.362C309.964 327.522 309.961 327.712 310.006 327.887C310.086 328.2 310.311 328.366 310.299 328.728C310.291 328.984 310.228 329.237 310.243 329.492C310.257 329.748 310.376 330.022 310.614 330.117C310.764 330.177 310.944 330.159 311.076 330.253C311.222 330.358 311.253 330.565 311.227 330.743C311.201 330.921 311.131 331.093 311.125 331.272C311.118 331.452 311.201 331.656 311.373 331.707C311.573 331.767 311.799 331.598 311.99 331.684C312.323 331.833 312.065 332.462 312.378 332.65C312.606 332.787 312.912 332.542 313.156 332.647C313.517 332.802 313.322 333.48 313.678 333.645C313.866 333.732 314.118 333.614 314.283 333.741C314.464 333.88 314.378 334.177 314.483 334.381C314.586 334.581 314.842 334.637 315.065 334.67C315.468 334.73 315.929 334.731 316.312 334.866C316.612 334.971 316.858 335.188 317.136 335.341C317.414 335.494 317.772 335.579 318.042 335.412C318.313 335.244 318.452 334.852 318.77 334.825C319.001 334.805 319.19 334.999 319.408 335.079C319.774 335.213 320.194 334.999 320.42 334.682C320.647 334.365 320.725 333.969 320.798 333.586C321.161 333.705 321.57 333.494 321.782 333.177C321.994 332.859 322.045 332.462 322.048 332.08C322.049 331.915 322.045 331.736 322.141 331.601C322.219 331.49 322.35 331.43 322.46 331.349C323 330.952 322.972 330.15 322.886 329.485C322.868 329.344 322.85 329.196 322.902 329.063C322.955 328.926 323.072 328.826 323.17 328.717C323.553 328.288 323.649 327.626 323.403 327.107C323.335 326.962 323.241 326.821 323.235 326.661C323.229 326.509 323.304 326.367 323.358 326.224C323.627 325.505 323.286 324.61 322.605 324.253C322.688 324.297 322.635 323.587 322.598 323.51C322.471 323.247 322.188 323.092 321.941 322.962C321.726 322.848 321.328 322.802 321.154 322.643C321.099 322.589 321.059 322.53 321.028 322.466Z" fill="#1D6890"/>
  <path d="M312.752 330.362C313.827 330.271 314.123 331.603 313.402 332.648C313.192 332.953 312.814 333.227 312.536 333.472C310.635 335.148 310.12 333.379 310.723 332.809C312.126 331.484 311.399 330.476 312.752 330.362Z" fill="#F3B69A"/>
  <path d="M312.462 332.398C312.584 332.282 313.799 331.537 312.954 331.058C312.72 330.926 312.466 331.132 312.435 331.378C312.419 331.505 312.461 331.635 312.444 331.762C312.434 331.837 312.404 331.909 312.365 331.974C312.259 332.153 311.89 332.33 311.967 332.588C312.035 332.818 312.392 332.463 312.462 332.398Z" fill="#E7A07D"/>
  <path d="M316.981 371.203C316.74 371.611 316.483 372.01 316.207 372.395C315.883 372.847 315.664 373.271 315.063 373.385C314.089 373.57 313.369 372.679 312.962 371.918C312.734 371.492 312.558 371.034 312.443 370.564C312.271 369.862 311.749 369.239 311.335 368.667C310.679 367.761 309.405 366.299 310.202 365.145C310.803 364.275 312.279 364.295 313.099 364.796C313.635 365.123 314.05 365.612 314.456 366.092C315.228 367.007 316.064 367.831 316.642 368.887C316.843 369.254 317.038 369.63 317.148 370.036C317.284 370.54 317.242 370.762 316.981 371.203Z" fill="#F3B69A"/>
  <path d="M321.43 368.572C318.715 370.813 319.046 368.79 318.841 368.23C318.782 368.065 316.861 365.572 320.032 363.969C321.964 362.992 321.088 362.848 322.952 361.628C324.825 360.402 325.904 361.828 325.869 362.867C325.822 364.26 324.753 364.815 323.993 365.812C323.25 366.784 322.395 367.775 321.43 368.572Z" fill="#F3B69A"/>
  <path d="M299.248 357.524C298.027 356.533 295.691 358.062 295.493 359.047C295.248 360.269 295.669 360.516 296.716 363.574C297.924 367.101 298.669 370.211 300.139 370.693C300.699 370.877 302.269 367.301 302.228 367.115C300.97 361.401 300.62 358.637 299.248 357.524Z" fill="#F3B69A"/>
  <path d="M301.585 376.457C301.585 376.822 301.461 377.469 301.601 377.888C301.888 378.746 302.552 378.711 303.311 378.733C303.852 378.748 304.371 378.836 304.922 378.836C305.624 378.836 306.245 378.603 306.93 378.56C307.264 378.539 307.645 378.368 307.905 378.161C307.984 378.098 308.117 377.986 308.083 377.869C308.036 377.709 307.713 377.624 307.574 377.581C307.392 377.525 307.208 377.521 307.018 377.521C306.838 377.52 306.666 377.511 306.49 377.5C306.32 377.489 306.15 377.534 305.998 377.428C305.567 377.125 305.86 376.669 306.07 376.318C306.231 376.048 306.823 374.793 306.129 374.868C305.626 374.923 305.466 375.728 304.867 375.727C304.738 375.325 305.276 374.356 304.558 374.318C303.771 374.276 303.854 375.62 303.292 375.662C302.807 375.698 303.209 374.753 302.952 374.559C302.503 374.219 302.309 375.333 302.138 375.533C301.93 375.778 301.226 376.196 301.585 376.457Z" fill="#F3B69A"/>
  <path d="M301.546 377.61C301.703 378.318 302.573 378.324 303.229 378.118C303.668 377.98 304.353 377.585 304.309 377.107C304.253 376.508 303.836 376.21 303.665 375.632C303.18 373.994 302.37 367.305 301.927 365.845C301.779 365.359 300.076 365.93 299.506 366.293C298.909 366.673 298.395 367.43 298.451 368.138C298.537 369.233 301.182 375.97 301.546 377.61Z" fill="#F3B69A"/>
  <path d="M287.39 366.73C287.424 365.771 285.233 365.397 284.544 365.377C282.849 365.328 281.82 366.283 281.113 367.715C279.924 370.125 281.691 372.991 284.408 373.351C286.008 373.563 287.829 372.424 288.457 370.941C289.036 369.576 288.723 368.486 287.39 366.73Z" fill="#F3B69A"/>
  <path d="M278.378 382.821L273.305 382.65C273.826 382.258 275.728 381.935 278.725 381.678C279.837 381.583 279.968 379.405 280.109 378.112C280.171 377.539 281.94 378.011 282.554 377.971C282.986 377.943 283.685 377.98 283.987 378.389C284.255 378.752 284.122 379.376 284.024 379.783C283.861 380.459 283.607 381.105 283.532 381.808C283.448 382.603 283.654 383.329 283.434 384.107C283.262 384.712 283.061 385.317 282.539 385.666C282.103 385.957 281.659 386.052 281.213 386.045L278.378 382.821Z" fill="#E7A07D"/>
  <path d="M275.285 382.183C271.665 382.482 273.365 383.739 273.619 384.3C273.693 384.465 274.07 387.69 277.569 386.592C279.701 385.922 279.157 386.659 281.413 386.219C283.68 385.776 283.45 383.945 282.676 383.203C281.638 382.207 280.448 382.566 279.168 382.377C277.918 382.193 276.572 382.077 275.285 382.183Z" fill="#F3B69A"/>
  <path d="M268.266 380.776C268.379 380.627 271.24 375.66 271.821 374.605C272.224 373.873 274.547 371.041 275.285 370.303C276.397 369.192 277.725 368.552 279.2 368.901C281.165 369.365 282.788 372.314 277.85 377.736C277.702 377.899 271.924 382.613 270.862 383.381C268.888 384.809 266.745 382.783 268.266 380.776Z" fill="#F3B69A"/>
  <path d="M286.373 384.852C285.114 384.375 283.946 383.687 282.978 382.815C282.269 382.175 281.629 381.462 281.018 380.729C280.305 379.875 279.619 379.036 279.016 378.098C278.601 377.453 278.041 376.901 277.638 376.258C277.021 375.272 276.39 373.728 276.712 372.548C277.415 369.977 280.93 368.078 283.256 367.398C285.351 366.785 287.55 365.919 289.777 366.191C292.947 366.579 296.441 369.218 297.812 372.073C297.959 372.38 298.031 372.867 298.246 373.124C298.461 373.381 298.841 373.391 299.037 373.616C299.429 374.066 299.337 374.754 299.34 375.336C299.346 377.167 299.172 379.083 298.456 380.786C296.442 385.582 290.83 386.539 286.373 384.852Z" fill="#FF1F70"/>
  <path d="M290.435 359.37C289.636 359.87 285.749 361.623 285.587 364.618C285.494 366.328 285.371 368.033 285.337 369.746C285.314 370.904 285.305 372.062 285.35 373.219C285.373 373.815 285.411 374.411 285.469 375.005C285.508 375.411 285.444 375.847 285.52 376.241C285.927 378.337 288.096 379.352 289.945 379.847C291.302 380.211 292.75 380.275 294.142 380.083C294.798 379.993 295.461 379.915 296.097 379.725C297.368 379.346 298.473 378.658 299.145 377.477C299.916 376.12 299.927 374.478 299.917 372.917C299.906 371.101 299.895 369.286 299.884 367.47C299.869 364.954 300.121 363.426 299.946 360.621C299.867 359.365 299.662 358.491 298.91 357.547C298.471 356.995 297.737 356.93 296.87 356.958C294.594 357.032 292.331 358.184 290.435 359.37Z" fill="#52C3FF"/>
  <path d="M295.312 354.255C295.335 354.774 295.358 355.293 295.38 355.811C295.398 356.242 295.42 356.683 295.584 357.082C295.777 357.551 296.026 357.781 295.985 358.31C295.941 358.874 295.672 359.356 295.293 359.769C294.578 360.549 293.609 361.092 292.57 361.294C291.869 361.431 291.079 361.387 290.444 361.037C289.538 360.538 289.796 359.862 289.861 358.964C289.931 358.004 289.896 356.79 289.068 355.956L295.312 354.255Z" fill="#F3B69A"/>
  <path d="M298.667 344.534C299.748 344.861 300.607 345.729 301.123 346.733C301.639 347.737 301.846 348.871 301.946 349.996C302.196 352.797 301.828 355.655 302.413 358.406C301.949 356.282 299.188 355.535 298.13 353.636C297.606 352.695 297.539 351.528 296.899 350.662C296.519 350.149 295.965 349.782 295.609 349.253C294.171 347.115 296.001 343.726 298.667 344.534Z" fill="#FF4286"/>
  <path d="M286.568 346.41C286.175 346.889 285.867 347.428 285.773 348.059C285.562 349.467 286.129 350.913 285.823 352.31C285.527 353.663 286.107 356.736 288.776 357.524C290.126 357.923 292.79 357.456 293.647 357.046C294.797 356.495 295.557 355.38 296.237 354.301C301.811 345.449 290.348 341.809 286.568 346.41Z" fill="#F3B69A"/>
  <path d="M296.861 343.965C296.133 343.626 296.649 343.255 295.419 342.57C293.932 341.743 292.129 341.703 290.444 341.945C287.023 342.437 284.519 345.782 285.566 347.637C286.056 348.505 285.656 347.219 286.835 350.096C287.414 351.507 288.156 350.737 289.014 350.999C291.289 351.693 288.625 357.346 294.306 356.087C295.603 355.8 296.116 355.545 297.307 353.847C297.78 353.173 298.259 352.483 298.509 351.698C298.65 351.255 298.714 350.792 298.778 350.332C299.128 347.804 299.197 345.053 296.861 343.965Z" fill="#FF639B"/>
  <path d="M289.617 350.394C290.686 350.304 290.98 351.626 290.263 352.665C290.054 352.968 289.679 353.24 289.403 353.484C287.514 355.149 287.002 353.391 287.602 352.825C288.994 351.509 288.273 350.508 289.617 350.394Z" fill="#F3B69A"/>
  <path d="M289.328 352.417C289.449 352.302 290.656 351.562 289.817 351.086C289.585 350.954 289.332 351.16 289.301 351.404C289.285 351.53 289.327 351.66 289.31 351.786C289.3 351.861 289.27 351.932 289.232 351.997C289.127 352.176 288.76 352.351 288.837 352.608C288.904 352.835 289.259 352.483 289.328 352.417Z" fill="#E7A07D"/>
  <path d="M288.51 353.093C288.926 354.948 289.955 356.597 290.877 358.26C291.799 359.923 292.649 361.715 292.646 363.617C293.751 362.307 294.321 360.558 294.199 358.848C294.112 357.635 293.673 356.457 293.676 355.237C293.679 354.067 294.189 353.166 294.578 352.099C295.129 350.585 295.024 349.084 293.685 348.023C290.193 345.256 287.827 350.048 288.51 353.093Z" fill="#FF4286"/>
  <path d="M268.699 386.495C267.453 386.788 266.57 385.976 265.667 385.338C264.946 384.828 264.09 385.102 263.309 384.877C262.687 384.697 262.097 384.427 261.509 384.161C261.117 383.984 260.431 383.883 260.147 383.552C259.747 383.085 259.919 382.489 260.262 381.974C260.519 381.588 260.718 381.186 261.122 381.028C261.553 380.86 262.064 380.793 262.49 380.877C262.892 380.956 263.289 381.055 263.686 381.153C264.474 381.349 265.262 381.554 266.079 381.634C267.989 381.821 268.981 381.088 270.493 379.658C270.912 379.262 270.824 379.116 271.413 379.294C271.828 379.42 272.469 379.699 272.609 380.189C272.733 380.623 272.389 381.16 272.154 381.507C271.764 382.083 271.3 382.599 270.984 383.231C270.626 383.946 270.565 384.699 270.086 385.35C269.711 385.855 269.311 386.351 268.699 386.495Z" fill="#F3B69A"/>
  <path d="M273.513 361.674C272.401 360.547 270.059 359.105 268.881 359.328C267.526 359.585 267.302 359.434 267.034 359.754C266.348 360.575 267.315 360.588 267.377 360.841C267.446 361.125 267.194 361.097 266.999 361.802C266.84 362.374 267.285 362.225 267.356 362.428C267.414 362.595 267.218 362.704 267.331 362.872C267.372 362.933 267.459 362.948 267.495 363.018C267.584 363.193 267.379 363.217 267.699 363.675C268.002 364.11 268.738 363.013 269.847 363.429C270.124 363.532 270.378 363.686 270.645 363.813C270.97 363.967 271.313 364.081 271.665 364.152C271.964 364.213 272.57 364.296 272.714 364.343L273.513 361.674Z" fill="#F3B69A"/>
  <path d="M290.103 361.74C289.698 361.46 289.227 361.28 288.749 361.167C288.1 361.012 287.394 361.164 286.744 361.276C284.852 361.603 282.921 362.422 281.114 363.061C280.756 363.188 273.938 361.609 273.079 361.222C272.699 361.051 272.389 360.663 272.033 361.02C271.735 361.318 271.528 361.721 271.409 362.122C271.282 362.549 271.219 363.027 271.291 363.47C271.323 363.665 271.38 363.947 271.555 364.068C271.71 364.175 271.972 364.171 272.153 364.233C273.876 364.828 275.478 365.669 277.161 366.349C277.967 366.675 278.773 367.001 279.591 367.296C280.3 367.552 281.109 367.951 281.867 367.863C283.419 367.685 284.956 367.368 286.441 366.88C287.19 366.634 287.924 366.344 288.637 366.009C289.274 365.71 289.914 365.45 290.383 364.904C290.77 364.454 291.098 363.853 291.003 363.247C290.91 362.663 290.596 362.08 290.103 361.74Z" fill="#F3B69A"/>
</svg>
