<svg width="164" height="55" viewBox="0 0 164 55" fill="none" xmlns="http://www.w3.org/2000/svg">
<path d="M163.133 11.5005C163.133 11.0857 163.133 10.6605 163.133 10.2457C163.102 9.33313 163.05 8.42056 162.884 7.51835C162.728 6.60578 162.459 5.75543 162.044 4.92582C161.629 4.10658 161.079 3.35993 160.436 2.71698C159.794 2.07403 159.047 1.52441 158.228 1.10961C157.388 0.684429 156.537 0.414806 155.625 0.259254C154.723 0.0933313 153.81 0.0414806 152.897 0.0207403C152.483 0.0207403 152.057 0.0103701 151.643 0C151.155 0 150.657 0 150.16 0H13.0042C12.5064 0 12.0086 0 11.5109 0C11.0961 0 10.6812 0.0103701 10.2561 0.0207403C9.35387 0.0414806 8.43093 0.103701 7.52872 0.259254C6.61615 0.414806 5.7658 0.6948 4.93619 1.10961C4.11695 1.52441 3.3703 2.07403 2.72735 2.71698C2.07403 3.35993 1.53478 4.10658 1.11998 4.92582C0.6948 5.75543 0.425176 6.60578 0.269624 7.51835C0.103701 8.42056 0.0518507 9.33313 0.0207403 10.2457C0.0103701 10.6605 0.0103701 11.0857 0 11.5005V43.0154C0 43.4405 0 43.8553 0.0207403 44.2701C0.0414806 45.1827 0.103701 46.0953 0.269624 46.9975C0.425176 47.9101 0.6948 48.7604 1.11998 49.59C1.53478 50.3989 2.07403 51.1455 2.72735 51.7885C3.3703 52.4418 4.11695 52.9811 4.93619 53.3959C5.7658 53.821 6.61615 54.0907 7.52872 54.2566C8.43093 54.4225 9.35387 54.4744 10.2561 54.5055C10.6812 54.5055 11.0961 54.5158 11.5109 54.5158C12.0086 54.5158 12.5064 54.5158 13.0042 54.5158H150.149C150.637 54.5158 151.134 54.5158 151.632 54.5158C152.047 54.5158 152.472 54.5158 152.887 54.5055C153.8 54.4744 154.712 54.4225 155.614 54.2566C156.527 54.0907 157.377 53.821 158.217 53.3959C159.037 52.9811 159.783 52.4418 160.426 51.7885C161.079 51.1455 161.619 50.3989 162.033 49.59C162.448 48.7604 162.728 47.9101 162.873 46.9975C163.039 46.0953 163.091 45.1827 163.122 44.2701C163.122 43.845 163.122 43.4302 163.122 43.0154C163.122 42.5176 163.122 42.0302 163.122 41.522V12.9938C163.122 12.496 163.122 11.9983 163.122 11.5005" fill="black"/>
<path d="M40.4746 26.9523C40.4435 23.6546 43.1812 22.0472 43.3056 21.9642C41.7605 19.7035 39.3546 19.3924 38.5146 19.3717C36.4925 19.1539 34.5429 20.5746 33.5162 20.5746C32.4896 20.5746 30.8822 19.3924 29.1815 19.4236C26.983 19.4547 24.9401 20.7302 23.8098 22.7005C21.4869 26.7241 23.2187 32.6247 25.4483 35.881C26.5579 37.4676 27.8645 39.2513 29.5652 39.189C31.2348 39.1164 31.857 38.1313 33.8688 38.1313C35.8806 38.1313 36.4406 39.189 38.1828 39.1579C39.9664 39.1268 41.0968 37.5609 42.1649 35.9536C43.4508 34.1284 43.9693 32.3344 43.9901 32.241C43.9486 32.2307 40.5161 30.9137 40.485 26.9523" fill="white"/>
<path d="M37.1977 17.2356C38.0895 16.1156 38.7014 14.5912 38.5354 13.046C37.2392 13.1082 35.6214 13.9482 34.6881 15.0371C33.8585 16.0015 33.1222 17.5881 33.3192 19.0711C34.7711 19.1748 36.2644 18.3348 37.2081 17.2356" fill="white"/>
<path d="M65.4252 35.4662H60.1364L58.8712 39.2098H56.6313L61.6401 25.345H63.963L68.9718 39.2098H66.6903L65.4252 35.4662ZM60.686 33.7344H64.8755L62.8119 27.6575H62.7497L60.686 33.7344Z" fill="white"/>
<path d="M79.7774 34.1597C79.7774 37.3018 78.0975 39.3137 75.5568 39.3137C74.1153 39.3137 72.9746 38.6707 72.3731 37.5404H72.3317V42.5491H70.2576V29.0991H72.2694V30.779H72.3109C72.8916 29.6902 74.1153 28.9954 75.5257 28.9954C78.0975 28.9954 79.7878 31.0279 79.7878 34.1597M77.6515 34.1597C77.6515 32.1168 76.5938 30.7687 74.976 30.7687C73.3583 30.7687 72.3213 32.1479 72.3213 34.1597C72.3213 36.1715 73.3894 37.5611 74.976 37.5611C76.5627 37.5611 77.6515 36.2234 77.6515 34.1597Z" fill="white"/>
<path d="M90.9046 34.1597C90.9046 37.3018 89.2246 39.3137 86.684 39.3137C85.2425 39.3137 84.1018 38.6707 83.5003 37.5404H83.4589V42.5491H81.3848V29.0991H83.3966V30.779H83.4381C84.0188 29.6902 85.2425 28.9954 86.6529 28.9954C89.2246 28.9954 90.915 31.0279 90.915 34.1597M88.7787 34.1597C88.7787 32.1168 87.721 30.7687 86.1032 30.7687C84.4855 30.7687 83.4485 32.1479 83.4485 34.1597C83.4485 36.1715 84.5166 37.5611 86.1032 37.5611C87.6899 37.5611 88.7787 36.2234 88.7787 34.1597Z" fill="white"/>
<path d="M98.257 35.3522C98.4126 36.7314 99.7503 37.6336 101.575 37.6336C103.401 37.6336 104.583 36.7314 104.583 35.487C104.583 34.4085 103.826 33.7655 102.021 33.33L100.227 32.8944C97.6763 32.2826 96.4941 31.09 96.4941 29.1612C96.4941 26.7657 98.5785 25.1272 101.534 25.1272C104.489 25.1272 106.47 26.7657 106.543 29.1612H104.448C104.324 27.782 103.183 26.942 101.503 26.942C99.8229 26.942 98.6926 27.7923 98.6926 29.016C98.6926 30.0012 99.4185 30.5715 101.213 31.0174L102.737 31.3908C105.578 32.0648 106.761 33.2055 106.761 35.2381C106.761 37.8306 104.697 39.4587 101.41 39.4587C98.3296 39.4587 96.2556 37.8721 96.1208 35.3625H98.2467L98.257 35.3522Z" fill="white"/>
<path d="M111.24 26.714V29.1095H113.159V30.748H111.24V36.3167C111.24 37.1878 111.624 37.5923 112.475 37.5923C112.682 37.5923 113.024 37.5612 113.159 37.5404V39.1789C112.931 39.2411 112.464 39.2722 112.008 39.2722C109.965 39.2722 109.166 38.5048 109.166 36.5449V30.748H107.694V29.1095H109.166V26.714H111.251H111.24Z" fill="white"/>
<path d="M114.279 34.1597C114.279 30.976 116.156 28.9746 119.07 28.9746C121.984 28.9746 123.861 30.976 123.861 34.1597C123.861 37.3433 122.005 39.3344 119.07 39.3344C116.135 39.3344 114.279 37.3433 114.279 34.1597ZM121.756 34.1597C121.756 31.982 120.76 30.6857 119.08 30.6857C117.4 30.6857 116.394 31.982 116.394 34.1597C116.394 36.3374 117.39 37.6233 119.08 37.6233C120.771 37.6233 121.756 36.3478 121.756 34.1597Z" fill="white"/>
<path d="M125.582 29.1094H127.563V30.8309H127.615C127.936 29.6902 128.859 29.0057 130.052 29.0057C130.353 29.0057 130.602 29.0472 130.757 29.0783V31.0175C130.591 30.9553 130.228 30.8931 129.824 30.8931C128.486 30.8931 127.667 31.7953 127.667 33.216V39.21H125.593V29.0991L125.582 29.1094Z" fill="white"/>
<path d="M140.308 36.2441C140.028 38.0796 138.244 39.3344 135.953 39.3344C133.007 39.3344 131.193 37.3641 131.193 34.2012C131.193 31.0383 133.028 28.9746 135.87 28.9746C138.711 28.9746 140.422 30.8931 140.422 33.9626V34.6678H133.287V34.7923C133.287 36.5241 134.376 37.6544 136.004 37.6544C137.155 37.6544 138.058 37.1048 138.338 36.2337H140.308V36.2441ZM133.298 33.2264H138.348C138.296 31.6812 137.311 30.6546 135.87 30.6546C134.428 30.6546 133.401 31.6916 133.298 33.2264Z" fill="white"/>
<path d="M60.4268 14.9126C62.3971 14.9126 63.5586 16.1259 63.5586 18.2207C63.5586 20.3154 62.4075 21.5702 60.4268 21.5702H58.0209V14.9022H60.4268V14.9126ZM59.0579 20.6369H60.3127C61.7023 20.6369 62.5112 19.7762 62.5112 18.2414C62.5112 16.7066 61.692 15.8563 60.3127 15.8563H59.0579V20.6369Z" fill="white"/>
<path d="M64.7303 19.0607C64.7303 17.4429 65.6326 16.4578 67.1051 16.4578C68.5777 16.4578 69.4799 17.4429 69.4799 19.0607C69.4799 20.6784 68.5777 21.6739 67.1051 21.6739C65.6326 21.6739 64.7303 20.6888 64.7303 19.0607ZM68.4532 19.0607C68.4532 17.9718 67.9658 17.3289 67.1051 17.3289C66.2444 17.3289 65.757 17.9614 65.757 19.0607C65.757 20.1599 66.2444 20.7925 67.1051 20.7925C67.9658 20.7925 68.4532 20.1599 68.4532 19.0607Z" fill="white"/>
<path d="M75.7746 21.5703H74.7479L73.7109 17.8682H73.6279L72.5909 21.5703H71.5747L70.1851 16.5511H71.191L72.0932 20.3777H72.1658L73.2028 16.5511H74.1568L75.1835 20.3777H75.2664L76.1583 16.5511H77.1538L75.7746 21.5703Z" fill="white"/>
<path d="M78.3153 16.5511H79.2694V17.3496H79.3419C79.5908 16.7896 80.0886 16.4578 80.8456 16.4578C81.9656 16.4578 82.5878 17.1318 82.5878 18.3244V21.5806H81.5923V18.5733C81.5923 17.7644 81.2397 17.3703 80.5034 17.3703C79.7671 17.3703 79.3005 17.8577 79.3005 18.6459V21.591H78.3049V16.5615L78.3153 16.5511Z" fill="white"/>
<path d="M85.1596 14.5808H84.1641V21.5703H85.1596V14.5808Z" fill="white"/>
<path d="M86.5388 19.0607C86.5388 17.4429 87.441 16.4578 88.9135 16.4578C90.3861 16.4578 91.2883 17.4429 91.2883 19.0607C91.2883 20.6784 90.3861 21.6739 88.9135 21.6739C87.441 21.6739 86.5388 20.6888 86.5388 19.0607ZM90.2616 19.0607C90.2616 17.9718 89.7742 17.3289 88.9135 17.3289C88.0528 17.3289 87.5654 17.9614 87.5654 19.0607C87.5654 20.1599 88.0528 20.7925 88.9135 20.7925C89.7742 20.7925 90.2616 20.1599 90.2616 19.0607Z" fill="white"/>
<path d="M92.3253 20.1495C92.3253 19.2473 92.9994 18.7184 94.1919 18.6459L95.5504 18.5733V18.1377C95.5504 17.6088 95.1978 17.3081 94.5238 17.3081C93.9742 17.3081 93.5801 17.5155 93.4764 17.8681H92.512C92.6157 17.0074 93.4246 16.4474 94.5653 16.4474C95.8304 16.4474 96.5356 17.0696 96.5356 18.1377V21.5702H95.5815V20.8651H95.509C95.2082 21.3732 94.6586 21.6532 93.9949 21.6532C93.0305 21.6532 92.3253 21.0725 92.3253 20.1495ZM95.5608 19.714V19.2992L94.3268 19.3718C93.632 19.4236 93.3209 19.6518 93.3209 20.0977C93.3209 20.5436 93.7149 20.8132 94.2542 20.8132C95.0008 20.8132 95.5608 20.3362 95.5608 19.714Z" fill="white"/>
<path d="M97.8526 19.0607C97.8526 17.4741 98.6718 16.4682 99.937 16.4682C100.621 16.4682 101.202 16.7897 101.472 17.3496H101.544V14.5912H102.54V21.5807H101.586V20.7822H101.503C101.202 21.3318 100.621 21.6533 99.9266 21.6533C98.6511 21.6533 97.8422 20.6473 97.8422 19.0607M98.8689 19.0607C98.8689 20.1288 99.3666 20.7718 100.217 20.7718C101.067 20.7718 101.565 20.1185 101.565 19.0711C101.565 18.0237 101.047 17.36 100.217 17.36C99.3874 17.36 98.8689 18.003 98.8689 19.0607Z" fill="white"/>
<path d="M106.646 19.0607C106.646 17.4429 107.549 16.4578 109.021 16.4578C110.494 16.4578 111.386 17.4429 111.386 19.0607C111.386 20.6784 110.483 21.6739 109.021 21.6739C107.559 21.6739 106.646 20.6888 106.646 19.0607ZM110.369 19.0607C110.369 17.9718 109.882 17.3289 109.021 17.3289C108.161 17.3289 107.673 17.9614 107.673 19.0607C107.673 20.1599 108.161 20.7925 109.021 20.7925C109.882 20.7925 110.369 20.1599 110.369 19.0607Z" fill="white"/>
<path d="M112.723 16.5511H113.677V17.3496H113.75C113.999 16.7896 114.497 16.4578 115.254 16.4578C116.374 16.4578 116.996 17.1318 116.996 18.3244V21.5806H116V18.5733C116 17.7644 115.648 17.3703 114.911 17.3703C114.175 17.3703 113.708 17.8577 113.708 18.6459V21.591H112.713V16.5615L112.723 16.5511Z" fill="white"/>
<path d="M122.596 15.2963V16.5718H123.685V17.4014H122.596V19.9836C122.596 20.5124 122.814 20.7406 123.311 20.7406C123.467 20.7406 123.55 20.7406 123.685 20.7198V21.5495C123.529 21.5806 123.342 21.6013 123.145 21.6013C122.046 21.6013 121.6 21.2176 121.6 20.2428V17.4014H120.802V16.5718H121.6V15.2963H122.596Z" fill="white"/>
<path d="M125.043 14.5808H126.028V17.3496H126.111C126.35 16.7897 126.889 16.4474 127.646 16.4474C128.714 16.4474 129.378 17.1215 129.378 18.3244V21.5703H128.382V18.5733C128.382 17.7644 128.009 17.36 127.304 17.36C126.485 17.36 126.039 17.8785 126.039 18.6355V21.5703H125.043V14.5808Z" fill="white"/>
<path d="M135.154 20.2117C134.926 21.114 134.127 21.6636 132.976 21.6636C131.535 21.6636 130.653 20.6784 130.653 19.071C130.653 17.4637 131.556 16.4474 132.976 16.4474C134.397 16.4474 135.216 17.4014 135.216 18.9777V19.3199H131.67V19.3718C131.701 20.2532 132.219 20.8132 133.007 20.8132C133.609 20.8132 134.013 20.5954 134.2 20.2014H135.154V20.2117ZM131.659 18.594H134.2C134.179 17.8059 133.702 17.2874 132.966 17.2874C132.23 17.2874 131.721 17.8059 131.659 18.594Z" fill="white"/>
</svg>
