<svg width="164" height="55" viewBox="0 0 164 55" fill="none" xmlns="http://www.w3.org/2000/svg">
<path d="M163.133 11.5005C163.133 11.0857 163.133 10.6605 163.133 10.2457C163.102 9.33313 163.05 8.42056 162.884 7.51835C162.728 6.60578 162.459 5.75543 162.044 4.92582C161.629 4.10658 161.079 3.35993 160.436 2.71698C159.794 2.07403 159.047 1.52441 158.228 1.10961C157.388 0.684429 156.537 0.414806 155.625 0.259254C154.723 0.0933313 153.81 0.0414806 152.897 0.0207403C152.483 0.0207403 152.057 0.0103701 151.643 0C151.155 0 150.657 0 150.16 0H13.0042C12.5064 0 12.0086 0 11.5109 0C11.0961 0 10.6812 0.0103701 10.2561 0.0207403C9.35387 0.0414806 8.43092 0.103701 7.52872 0.259254C6.61615 0.414806 5.76579 0.6948 4.93618 1.10961C4.11694 1.52441 3.3703 2.07403 2.72735 2.71698C2.07403 3.35993 1.53478 4.10658 1.11998 4.92582C0.694801 5.75543 0.42517 6.60578 0.269618 7.51835C0.103696 8.42056 0.0518551 9.33313 0.0207447 10.2457C0.0103746 10.6605 0.0103701 11.0857 0 11.5005V43.0154C0 43.4405 4.43107e-06 43.8553 0.0207447 44.2701C0.041485 45.1827 0.103696 46.0953 0.269618 46.9975C0.42517 47.9101 0.694801 48.7604 1.11998 49.59C1.53478 50.3989 2.07403 51.1455 2.72735 51.7885C3.3703 52.4418 4.11694 52.9811 4.93618 53.3959C5.76579 53.821 6.61615 54.0907 7.52872 54.2566C8.43092 54.4225 9.35387 54.4744 10.2561 54.5055C10.6812 54.5055 11.0961 54.5158 11.5109 54.5158C12.0086 54.5158 12.5064 54.5158 13.0042 54.5158H150.149C150.637 54.5158 151.134 54.5158 151.632 54.5158C152.047 54.5158 152.472 54.5158 152.887 54.5055C153.8 54.4744 154.712 54.4225 155.614 54.2566C156.527 54.0907 157.377 53.821 158.217 53.3959C159.037 52.9811 159.783 52.4418 160.426 51.7885C161.079 51.1455 161.619 50.3989 162.033 49.59C162.448 48.7604 162.728 47.9101 162.873 46.9975C163.039 46.0953 163.091 45.1827 163.122 44.2701C163.122 43.845 163.122 43.4302 163.122 43.0154C163.122 42.5176 163.122 42.0302 163.122 41.522V12.9938C163.122 12.496 163.122 11.9983 163.122 11.5005" fill="black"/>
<path d="M59.4831 15.7729C59.4831 16.7166 59.2031 17.4632 58.6534 18.0129C58.0209 18.6765 57.2016 19.0084 56.1853 19.0084C55.1691 19.0084 54.3913 18.6765 53.7069 18.0025C53.0328 17.3284 52.6906 16.4988 52.6906 15.5033C52.6906 14.5077 53.0328 13.6781 53.7069 13.0041C54.3913 12.33 55.2106 11.9982 56.1853 11.9982C56.6624 11.9982 57.129 12.0915 57.5646 12.2782C58.0001 12.4648 58.3527 12.7137 58.612 13.0248L58.0209 13.6159C57.5749 13.087 56.9631 12.8174 56.1853 12.8174C55.4802 12.8174 54.8683 13.0663 54.3498 13.5641C53.8313 14.0618 53.5721 14.7048 53.5721 15.5033C53.5721 16.3018 53.8313 16.9447 54.3498 17.4425C54.8683 17.9403 55.4802 18.1891 56.1853 18.1891C56.932 18.1891 57.5646 17.9403 58.0624 17.4425C58.3838 17.121 58.5705 16.6647 58.6223 16.084H56.1853V15.2751H59.4416C59.4727 15.4514 59.4934 15.6173 59.4934 15.7833" fill="white"/>
<path d="M64.6475 12.973H61.5883V15.0989H64.3467V15.9078H61.5883V18.0337H64.6475V18.8633H60.7275V12.1434H64.6475V12.973Z" fill="white"/>
<path d="M68.2874 18.8633H67.4267V12.973H65.5497V12.1434H70.1644V12.973H68.2874V18.8633Z" fill="white"/>
<path d="M74.3642 12.1434H73.5035V18.8633H74.3642V12.1434Z" fill="white"/>
<path d="M78.1909 18.8633H77.3302V12.973H75.4532V12.1434H80.0679V12.973H78.1909V18.8633Z" fill="white"/>
<path d="M88.8099 17.9921C88.1462 18.6765 87.3269 19.0084 86.3418 19.0084C85.3566 19.0084 84.5374 18.6662 83.8737 17.9921C83.21 17.3077 82.8885 16.4781 82.8885 15.5033C82.8885 14.5285 83.2203 13.6885 83.8737 13.0144C84.5374 12.3404 85.3566 11.9982 86.3418 11.9982C87.3269 11.9982 88.1358 12.3404 88.7995 13.0248C89.4632 13.7092 89.795 14.5389 89.795 15.5136C89.795 16.4884 89.4632 17.3284 88.8099 18.0025M84.5166 17.4425C85.0144 17.9506 85.6262 18.1995 86.3418 18.1995C87.0573 18.1995 87.6691 17.9506 88.1669 17.4425C88.6647 16.9344 88.9135 16.3018 88.9135 15.5136C88.9135 14.7255 88.6647 14.0929 88.1669 13.5848C87.6691 13.0767 87.0677 12.8278 86.3418 12.8278C85.6159 12.8278 85.0144 13.0767 84.5166 13.5848C84.0188 14.0929 83.77 14.7255 83.77 15.5136C83.77 16.3018 84.0188 16.9344 84.5166 17.4425Z" fill="white"/>
<path d="M91.0084 18.8633V12.1434H92.0557L95.3223 17.37H95.3638L95.3223 16.0737V12.1434H96.1831V18.8633H95.2912L91.8691 13.3878H91.838L91.8691 14.6841V18.8633H91.0084Z" fill="white"/>
<path d="M82.6811 28.6631C80.0471 28.6631 77.9005 30.6645 77.9005 33.423C77.9005 36.1814 80.0471 38.1829 82.6811 38.1829C85.3151 38.1829 87.4617 36.1607 87.4617 33.423C87.4617 30.6852 85.3151 28.6631 82.6811 28.6631ZM82.6811 36.3059C81.2397 36.3059 79.9953 35.1133 79.9953 33.423C79.9953 31.7326 81.2397 30.5401 82.6811 30.5401C84.1226 30.5401 85.367 31.7119 85.367 33.423C85.367 35.134 84.1226 36.3059 82.6811 36.3059ZM72.2591 28.6631C69.6251 28.6631 67.4785 30.6645 67.4785 33.423C67.4785 36.1814 69.6251 38.1829 72.2591 38.1829C74.8931 38.1829 77.0397 36.1607 77.0397 33.423C77.0397 30.6852 74.8931 28.6631 72.2591 28.6631ZM72.2591 36.3059C70.8177 36.3059 69.5732 35.1133 69.5732 33.423C69.5732 31.7326 70.8177 30.5401 72.2591 30.5401C73.7006 30.5401 74.945 31.7119 74.945 33.423C74.945 35.134 73.7006 36.3059 72.2591 36.3059ZM59.8564 30.1253V32.1474H64.6889C64.5437 33.2881 64.1704 34.1178 63.5897 34.6881C62.8845 35.3933 61.7853 36.171 59.8564 36.171C56.8802 36.171 54.5573 33.7755 54.5573 30.7993C54.5573 27.8231 56.8802 25.4276 59.8564 25.4276C61.4638 25.4276 62.6356 26.0602 63.4963 26.869L64.9171 25.4483C63.7038 24.2972 62.1068 23.4158 59.8461 23.4158C55.7706 23.4158 52.3381 26.7342 52.3381 30.8097C52.3381 34.8851 55.7602 38.2036 59.8461 38.2036C62.0445 38.2036 63.7037 37.4777 65 36.1296C66.3378 34.7918 66.7526 32.9252 66.7526 31.4008C66.7526 30.9341 66.7215 30.4986 66.6489 30.1356H59.8461L59.8564 30.1253ZM110.577 31.6911C110.183 30.623 108.969 28.6631 106.501 28.6631C104.033 28.6631 102.011 30.5919 102.011 33.423C102.011 36.0881 104.033 38.1829 106.74 38.1829C108.918 38.1829 110.183 36.8451 110.712 36.0673L109.083 34.9888C108.544 35.7873 107.808 36.3059 106.74 36.3059C105.672 36.3059 104.915 35.8185 104.427 34.8644L110.795 32.2304L110.577 31.6911ZM104.085 33.2778C104.033 31.4423 105.506 30.4986 106.574 30.4986C107.404 30.4986 108.109 30.9134 108.337 31.5045L104.075 33.2674L104.085 33.2778ZM98.9104 37.8925H101.005V23.8928H98.9104V37.8925ZM95.4779 29.7208H95.4053C94.9386 29.1608 94.0364 28.6631 92.8957 28.6631C90.5106 28.6631 88.3328 30.7578 88.3328 33.4437C88.3328 36.1296 90.5209 38.1932 92.8957 38.1932C94.0364 38.1932 94.9282 37.6851 95.4053 37.1147H95.4779V37.7992C95.4779 39.6139 94.5031 40.5887 92.9372 40.5887C91.6616 40.5887 90.8631 39.6658 90.5417 38.888L88.7165 39.645C89.2454 40.9102 90.6246 42.4554 92.9372 42.4554C95.3949 42.4554 97.4689 41.0139 97.4689 37.4984V28.9534H95.4882V29.7312L95.4779 29.7208ZM93.0824 36.3059C91.6409 36.3059 90.4276 35.0926 90.4276 33.4333C90.4276 31.7741 91.6409 30.5297 93.0824 30.5297C94.5238 30.5297 95.623 31.7534 95.623 33.4333C95.623 35.1133 94.5031 36.3059 93.0824 36.3059ZM120.377 23.9032H115.368V37.8925H117.452V32.5933H120.366C122.679 32.5933 124.96 30.9238 124.96 28.2483C124.96 25.5728 122.679 23.9032 120.366 23.9032M120.418 30.6438H117.452V25.8424H120.418C121.984 25.8424 122.865 27.1387 122.865 28.2379C122.865 29.3371 121.974 30.6334 120.418 30.6334M133.329 28.6216C131.815 28.6216 130.249 29.2853 129.606 30.7682L131.462 31.546C131.856 30.7682 132.593 30.5193 133.37 30.5193C134.449 30.5193 135.548 31.1726 135.569 32.3237V32.4689C135.196 32.2511 134.376 31.9297 133.391 31.9297C131.39 31.9297 129.357 33.0289 129.357 35.0822C129.357 36.9592 130.996 38.1621 132.831 38.1621C134.231 38.1621 135.009 37.5295 135.496 36.7933H135.569V37.8717H137.591V32.5104C137.591 30.0319 135.735 28.6423 133.339 28.6423M133.09 36.3162C132.406 36.3162 131.452 35.974 131.452 35.134C131.452 34.0555 132.644 33.6407 133.671 33.6407C134.584 33.6407 135.019 33.8378 135.579 34.1074C135.413 35.4037 134.304 36.3162 133.09 36.3162ZM144.933 28.9534L142.538 35.02H142.465L139.987 28.9534H137.736L141.459 37.4362L139.333 42.1546H141.511L147.256 28.9534H144.933ZM126.122 37.9029H128.206V23.9032H126.122V37.9029Z" fill="white"/>
<path d="M42.5591 28.1446L36.9385 31.3905L32.1786 26.6928L36.8866 21.9847L42.5591 25.2617C43.6687 25.9047 43.6687 27.512 42.5591 28.155V28.1446Z" fill="#FED400"/>
<path d="M36.9384 31.3903L20.0662 41.1279C19.361 41.5323 18.5418 41.3664 18.044 40.8479L32.1889 26.6823L36.9488 31.3799L36.9384 31.3903Z" fill="#F83345"/>
<path d="M32.1889 26.6928L18.044 40.8584C17.7537 40.568 17.567 40.1636 17.567 39.6866V13.7094C17.567 13.2842 17.7226 12.9212 17.9611 12.6309L32.1889 26.6824V26.6928Z" fill="#00D7FE"/>
<path d="M36.8866 21.9848L32.1785 26.6928L17.9507 12.6413C18.4381 12.0605 19.3092 11.8428 20.0558 12.2679L36.8762 21.9848H36.8866Z" fill="#00EF77"/>
</svg>
