<svg width="520" height="350" viewBox="0 0 520 350" fill="none" xmlns="http://www.w3.org/2000/svg">
<g clip-path="url(#clip0_106_780)">
<path style="mix-blend-mode:multiply" d="M473.521 185.912V167.821H293.115L114.661 284.8L90.3054 331.521H96.7743C117.604 319.482 154.347 309.666 193.236 299.277C249.634 284.207 307.94 268.619 328.263 244.207C355.637 211.327 417.867 197.023 475.128 187.368L473.51 185.922L473.521 185.912Z" fill="url(#paint0_linear_106_780)"/>
<path d="M133.485 36.8177V101.64L149.021 92.6645V27.8425L157.937 22.6861L141.248 0L124.558 41.9741L133.485 36.8177Z" fill="url(#paint1_linear_106_780)"/>
<path d="M67.729 98.4034V156.613L78.3488 150.464V92.2654L84.4511 88.7379L73.0335 73.2147L61.616 101.931L67.729 98.4034Z" fill="url(#paint2_linear_106_780)"/>
<path d="M211.586 59.9784V131.489L221.106 125.987V54.4768L226.583 51.3161L216.34 37.4002L206.109 63.1391L211.586 59.9784Z" fill="url(#paint3_linear_106_780)"/>
<path style="mix-blend-mode:multiply" d="M352.769 317.745C350.882 315.092 348.079 312.6 344.349 310.442C330.926 302.686 310.074 301.845 295.034 307.918L288.609 309.439C286.776 310.183 285.018 311.014 283.38 311.963C275.854 316.311 272.081 322.017 272.081 327.713C272.081 333.409 275.843 339.115 283.38 343.463C298.441 352.168 322.861 352.168 337.923 343.463C345.006 339.374 348.758 334.088 349.179 328.727C349.437 325.512 348.489 322.276 346.343 319.245L352.769 317.724V317.745Z" fill="url(#paint4_linear_106_780)"/>
<path d="M281.288 294.747L303.336 313.021L330.613 297.271C317.19 289.515 296.339 288.684 281.299 294.747H281.288Z" fill="#7DB0F9"/>
<path d="M330.602 297.271L303.325 313.02L339.012 304.563C337.125 301.909 334.322 299.417 330.591 297.26L330.602 297.271Z" fill="#FF1F70"/>
<path d="M303.325 319.968L281.277 301.694C279.444 302.438 277.687 303.269 276.048 304.218C268.523 308.565 264.749 314.272 264.749 319.968C264.749 325.663 268.512 331.37 276.048 335.717C291.11 344.423 315.53 344.423 330.592 335.717C337.675 331.629 341.427 326.343 341.847 320.982C342.106 317.767 341.157 314.531 339.012 311.51L303.325 319.968Z" fill="#F6F6FB"/>
<path d="M341.858 320.982C341.438 326.343 337.686 331.629 330.602 335.717C315.541 344.423 291.121 344.423 276.059 335.717C268.976 331.629 265.224 326.343 264.803 320.982H264.76V327.713C264.76 333.42 268.523 339.115 276.059 343.463C291.121 352.168 315.541 352.168 330.602 343.463C337.686 339.374 341.438 334.088 341.858 328.727C341.901 328.112 341.901 327.497 341.858 326.882V320.971V320.982Z" fill="url(#paint5_linear_106_780)"/>
<path d="M339.023 311.51L303.325 319.968V313.031L339.023 304.574V311.51Z" fill="#CE1963"/>
<path d="M303.325 319.968L281.288 301.683V294.746L303.325 313.031V319.968Z" fill="#547FCC"/>
<path style="mix-blend-mode:multiply" d="M340.37 313.754C339.993 312.999 339.54 312.255 339.023 311.51L303.336 319.968H314.29L340.37 313.754Z" fill="url(#paint6_linear_106_780)"/>
<path style="mix-blend-mode:multiply" d="M80.4403 231.435H25.7783V261.025H80.4403V231.435Z" fill="url(#paint7_linear_106_780)"/>
<path d="M0 216.731C0 212.923 2.51208 209.105 7.54701 206.203C12.582 203.301 19.1802 201.845 25.7784 201.845C32.3767 201.845 38.9642 203.301 43.9991 206.203C49.034 209.105 51.5461 212.923 51.5461 216.731C51.5461 220.539 49.034 224.358 43.9991 227.26C38.9642 230.173 32.3767 231.618 25.7784 231.618C19.1802 231.618 12.582 230.162 7.5578 227.26C2.51208 224.358 0 220.539 0 216.731Z" fill="#FFD07D"/>
<path d="M43.9991 227.26C38.9642 230.173 32.3767 231.618 25.7784 231.618C19.1802 231.618 12.582 230.162 7.5578 227.26C2.51208 224.358 0 220.539 0 216.731V224.078C0 227.886 2.51208 231.694 7.54701 234.606C12.582 237.519 19.1802 238.964 25.7677 238.964C32.3551 238.964 38.9642 237.508 43.9883 234.606C49.0232 231.704 51.5353 227.886 51.5353 224.078V216.731C51.5353 220.539 49.0232 224.358 43.9883 227.26H43.9991Z" fill="url(#paint8_linear_106_780)"/>
<path d="M43.9991 234.617C38.9642 237.53 32.3767 238.975 25.7784 238.975C19.1802 238.975 12.582 237.519 7.5578 234.617C2.51208 231.704 0 227.896 0 224.088V231.435C0 235.243 2.51208 239.051 7.54701 241.963C12.582 244.876 19.1802 246.321 25.7677 246.321C32.3551 246.321 38.9642 244.865 43.9883 241.963C49.0232 239.061 51.5353 235.243 51.5353 231.435V224.088C51.5353 227.896 49.0232 231.704 43.9883 234.617H43.9991Z" fill="url(#paint9_linear_106_780)"/>
<path d="M43.9991 241.963C38.9642 244.876 32.3767 246.321 25.7784 246.321C19.1802 246.321 12.582 244.865 7.5578 241.963C2.51208 239.061 0 235.243 0 231.435V238.781C0 242.589 2.51208 246.397 7.54701 249.31C12.582 252.222 19.1802 253.668 25.7677 253.668C32.3551 253.668 38.9642 252.211 43.9883 249.31C49.0232 246.408 51.5353 242.589 51.5353 238.781V231.435C51.5353 235.243 49.0232 239.051 43.9883 241.963H43.9991Z" fill="url(#paint10_linear_106_780)"/>
<path d="M43.9991 249.32C38.9642 252.233 32.3767 253.679 25.7784 253.679C19.1802 253.679 12.582 252.222 7.5578 249.32C2.51208 246.408 0 242.6 0 238.792V246.138C0 249.946 2.51208 253.754 7.54701 256.667C12.582 259.579 19.1802 261.025 25.7677 261.025C32.3551 261.025 38.9642 259.568 43.9883 256.667C49.0232 253.765 51.5353 249.946 51.5353 246.138V238.792C51.5353 242.6 49.0232 246.408 43.9883 249.32H43.9991Z" fill="url(#paint11_linear_106_780)"/>
<path d="M10.9756 225.286C15.0617 227.648 20.4201 228.824 25.7785 228.824C31.1369 228.824 36.4952 227.638 40.5814 225.286C44.3549 223.107 46.3818 220.302 46.6729 217.454C46.3818 214.606 44.3549 211.802 40.5814 209.622C36.4952 207.26 31.1369 206.084 25.7785 206.084C20.4201 206.084 15.0617 207.26 10.9756 209.622C7.20204 211.802 5.18591 214.606 4.88403 217.454C5.17513 220.302 7.20204 223.107 10.9756 225.286Z" fill="#FFAF6D"/>
<path d="M10.9755 209.622C15.0616 207.26 20.42 206.084 25.7784 206.084C31.1368 206.084 36.4952 207.26 40.5813 209.622C44.3548 211.802 46.3817 214.606 46.6728 217.454C46.7052 217.217 46.716 216.979 46.716 216.742C46.716 213.646 44.6783 210.55 40.5813 208.188C36.4952 205.825 31.1368 204.649 25.7784 204.649C20.42 204.649 15.0616 205.825 10.9755 208.188C6.8893 210.55 4.84082 213.646 4.84082 216.742C4.84082 216.979 4.8516 217.217 4.88395 217.454C5.17505 214.606 7.20196 211.802 10.9755 209.622Z" fill="url(#paint12_linear_106_780)"/>
<path d="M36.0854 213.657L38.0692 212.513V211.09L36.0854 212.222V213.657Z" fill="#E57139"/>
<path d="M26.9535 216.052C26.2204 215.631 25.8107 215.059 25.8107 214.455C25.8107 213.851 26.2204 213.29 26.9535 212.859C28.4737 211.974 30.9535 211.974 32.4844 212.859C34.0046 213.732 34.0046 215.167 32.4844 216.052L34.9965 217.497C37.4654 216.073 37.832 213.873 36.0962 212.222L38.08 211.079L35.5679 209.633L33.5841 210.777C30.7163 209.773 26.932 209.978 24.4522 211.413C23.0399 212.222 22.2636 213.301 22.2636 214.455C22.2636 215.609 23.0399 216.688 24.4522 217.508C25.9724 218.393 25.9832 219.817 24.4522 220.701C22.9321 221.586 20.4523 221.586 18.9214 220.701C17.4012 219.817 17.4012 218.393 18.9214 217.508L16.4201 216.063C13.9403 217.497 13.5845 219.687 15.3204 221.338L13.4983 222.395L16.0104 223.84L17.8324 222.783C20.7003 223.786 24.4954 223.581 26.9643 222.157C29.8753 220.475 29.8753 217.745 26.9643 216.063L26.9535 216.052Z" fill="#FFD07D"/>
<path d="M13.4875 223.819L15.9888 225.264V223.84L13.4875 222.384V223.819Z" fill="#FB944B"/>
<path d="M15.9888 225.264L17.8216 224.218V222.783L15.9888 223.84V225.264Z" fill="#E57139"/>
<path d="M32.4844 217.487L34.9965 218.943V217.508L32.4844 216.052V217.487Z" fill="#FB944B"/>
<path d="M18.9214 218.943V217.508C17.8432 218.134 17.5305 219.04 17.9834 219.817C18.1667 219.493 18.4793 219.191 18.9214 218.943Z" fill="#E57139"/>
<path d="M14.2315 219.029V220.647C14.253 221.025 14.3501 221.413 14.5441 221.769L15.2988 221.327C14.5657 220.626 14.2099 219.827 14.2207 219.029H14.2315Z" fill="#FB944B"/>
<path d="M24.4416 218.932C24.8836 219.191 25.1963 219.493 25.3796 219.817C25.8324 219.029 25.5197 218.123 24.4416 217.508C23.0292 216.699 22.2529 215.609 22.2529 214.455V215.89C22.2529 217.044 23.0292 218.123 24.4416 218.932Z" fill="#FB944B"/>
<path d="M37.1637 214.455C37.1637 215.556 36.4521 216.667 34.9966 217.508V218.943C36.4844 218.08 37.2068 216.947 37.1637 215.814V214.466V214.455Z" fill="#E57139"/>
<path d="M26.9537 222.147C24.4847 223.571 20.6896 223.776 17.8218 222.772V224.207C20.6896 225.21 24.4847 225.005 26.9537 223.571C28.3984 222.74 29.1207 221.65 29.1315 220.55V219.094C29.1315 220.194 28.3984 221.294 26.9537 222.136V222.147Z" fill="url(#paint13_linear_106_780)"/>
<path d="M32.4845 212.859C30.9643 211.974 28.4846 211.974 26.9536 212.859C26.2205 213.29 25.8108 213.851 25.8108 214.455C25.8108 214.703 25.8863 214.951 26.0156 215.178C26.2097 214.854 26.5224 214.552 26.9536 214.304C28.4738 213.42 30.9535 213.42 32.4845 214.304C32.9265 214.563 33.2392 214.865 33.4225 215.189C33.8753 214.401 33.5627 213.495 32.4845 212.88V212.859Z" fill="#E57139"/>
<path d="M333.589 141.176L324.414 146.472V194.412L333.589 189.115V141.176Z" fill="#20196F"/>
<path d="M324.414 146.472L260.782 109.709V157.659L324.414 194.412V146.472Z" fill="#362E94"/>
<path d="M333.589 141.176L269.957 104.412L260.782 109.709L324.414 146.472L333.589 141.176Z" fill="#6B67E9"/>
<path d="M317.945 159.245L308.77 164.542V203.452L317.945 198.155V159.245Z" fill="#20196F"/>
<path d="M308.77 164.542L245.138 127.789V166.699L308.77 203.452V164.542Z" fill="#362E94"/>
<path d="M317.945 159.245L254.313 122.492L245.138 127.789L308.77 164.542L317.945 159.245Z" fill="#6B67E9"/>
<path d="M302.29 172.341L293.126 177.638V212.492L302.29 207.195V172.341Z" fill="#BC0A5B"/>
<path d="M293.126 177.638L229.494 140.885V175.739L293.126 212.492V177.638Z" fill="#CE1963"/>
<path d="M302.29 172.341L238.669 135.577L229.494 140.885L293.126 177.638L302.29 172.341Z" fill="#FF1F70"/>
<path d="M286.646 182.621L277.471 187.918V221.532L286.646 216.235V182.621Z" fill="#2262A8"/>
<path d="M277.471 187.918L213.85 151.165V184.779L277.471 221.532V187.918Z" fill="#547FCC"/>
<path d="M286.646 182.621L223.025 145.868L213.85 151.165L277.471 187.918L286.646 182.621Z" fill="#7DB0F9"/>
<path d="M271.002 190.41L261.827 195.707V230.572L271.002 225.275V190.41Z" fill="#2262A8"/>
<path d="M261.827 195.707L198.206 158.954V193.808L261.827 230.572V195.707Z" fill="#547FCC"/>
<path d="M271.002 190.41L207.37 153.657L198.206 158.954L261.827 195.707L271.002 190.41Z" fill="#7DB0F9"/>
<path d="M255.359 197.896L246.184 203.193V239.601L255.359 234.304V197.896Z" fill="#E57139"/>
<path d="M246.184 203.193L182.562 166.44V202.848L246.184 239.601V203.193Z" fill="#FB944B"/>
<path d="M255.359 197.896L191.726 161.133L182.562 166.44L246.184 203.193L255.359 197.896Z" fill="#FFAF6D"/>
<path d="M239.715 202.88L230.54 208.177V248.641L239.715 243.344V202.88Z" fill="#2262A8"/>
<path d="M230.54 208.177L166.908 171.424V211.888L230.54 248.641V208.177Z" fill="#547FCC"/>
<path d="M239.715 202.88L176.083 166.127L166.908 171.424L230.54 208.177L239.715 202.88Z" fill="#7DB0F9"/>
<path d="M224.06 209.115L214.896 214.412V257.681L224.06 252.384V209.115Z" fill="#20196F"/>
<path d="M214.896 214.412L151.264 177.659V220.928L214.896 257.681V214.412Z" fill="#362E94"/>
<path d="M224.06 209.115L160.439 172.362L151.264 177.659L214.896 214.412L224.06 209.115Z" fill="#6B67E9"/>
<path d="M208.416 218.155L199.252 223.452V266.721L208.416 261.424V218.155Z" fill="#20196F"/>
<path d="M199.252 223.452L135.62 186.699V229.968L199.252 266.721V223.452Z" fill="#362E94"/>
<path d="M208.416 218.155L144.795 181.392L135.62 186.699L199.252 223.452L208.416 218.155Z" fill="#6B67E9"/>
<path d="M192.772 232.923L183.597 238.22V275.761L192.772 270.464V232.923Z" fill="#2262A8"/>
<path d="M183.597 238.22L119.976 201.456V239.008L183.597 275.761V238.22Z" fill="#547FCC"/>
<path d="M192.772 232.923L129.151 196.16L119.976 201.456L183.597 238.22L192.772 232.923Z" fill="#7DB0F9"/>
<path d="M177.128 248.641L167.953 253.937V284.8L177.128 279.504V248.641Z" fill="#E57139"/>
<path d="M167.953 253.937L104.332 217.184V248.037L167.953 284.8V253.937Z" fill="#FB944B"/>
<path d="M177.128 248.641L113.496 211.888L104.332 217.184L167.953 253.937L177.128 248.641Z" fill="#FFAF6D"/>
<path d="M161.485 268.015L152.31 273.312V293.84L161.485 288.533V268.015Z" fill="#BC0A5B"/>
<path d="M152.31 273.312L88.6882 236.559V257.077L152.31 293.84V273.312Z" fill="#CE1963"/>
<path d="M161.485 268.015L97.8525 231.262L88.6882 236.559L152.31 273.312L161.485 268.015Z" fill="#FF1F70"/>
<path d="M145.841 285.609L136.666 290.906V302.869L145.841 297.573V285.609Z" fill="#BC0A5B"/>
<path d="M136.666 290.906L73.0334 254.153V266.116L136.666 302.869V290.906Z" fill="#CE1963"/>
<path d="M145.841 285.609L82.2085 248.857L73.0334 254.153L136.666 290.906L145.841 285.609Z" fill="#FF1F70"/>
<path style="mix-blend-mode:multiply" d="M517.747 214.315L438.266 168.403C435.269 166.677 430.374 166.677 427.387 168.403L326.193 226.861C323.196 228.587 323.196 231.413 326.193 233.15L399.313 275.394V280.356H410.827C412.897 280.388 414.989 279.978 416.552 279.072L517.747 220.615C520.744 218.889 520.733 216.063 517.747 214.326V214.315Z" fill="url(#paint14_linear_106_780)"/>
<path d="M405.037 272.319C402.04 274.045 397.145 274.045 394.159 272.319L315.832 227.077C312.845 225.351 312.845 222.524 315.832 220.787L417.026 162.33C420.024 160.604 424.918 160.604 427.905 162.33L506.232 207.573C509.229 209.299 509.229 212.125 506.232 213.862L405.037 272.319Z" fill="white"/>
<path style="mix-blend-mode:multiply" d="M427.905 162.341C424.908 160.615 420.013 160.615 417.026 162.341L315.832 220.798C312.834 222.524 312.834 225.35 315.832 227.087L328.705 234.52C353.858 204.865 407.496 190.442 459.937 180.841L427.905 162.341Z" fill="url(#paint15_linear_106_780)"/>
<path d="M313.6 230.55C313.546 231.737 314.279 232.923 315.832 233.819L394.159 279.061C397.156 280.787 402.051 280.787 405.037 279.061L506.232 220.604C507.795 219.698 508.539 218.49 508.464 217.303V210.874C508.399 211.963 507.666 213.031 506.232 213.862L405.037 272.319C402.04 274.045 397.145 274.045 394.159 272.319L315.832 227.077C314.355 226.224 313.611 225.102 313.589 223.97V230.55H313.6Z" fill="url(#paint16_linear_106_780)"/>
<path d="M422.471 165.858L321.934 223.937L399.604 268.803L500.141 210.723L422.471 165.858ZM491.073 214.293L484.896 210.723L491.073 207.152L497.251 210.723L491.073 214.293ZM413.404 215.124L407.226 218.695L401.048 215.124L407.226 211.553L413.404 215.124ZM408.66 210.723L414.838 207.152L421.016 210.723L414.838 214.293L408.66 210.723ZM405.781 219.525L399.604 223.096L393.426 219.525L399.604 215.955L405.781 219.525ZM407.226 220.356L413.404 223.927L407.226 227.497L401.048 223.927L407.226 220.356ZM408.671 219.525L414.849 215.955L421.026 219.525L414.849 223.096L408.671 219.525ZM416.293 215.124L422.471 211.553L428.649 215.124L422.471 218.695L416.293 215.124ZM423.916 210.723L430.094 207.152L436.271 210.723L430.094 214.293L423.916 210.723ZM431.538 206.321L437.716 202.751L443.894 206.321L437.716 209.892L431.538 206.321ZM430.094 205.491L423.916 201.92L430.094 198.35L436.271 201.92L430.094 205.491ZM428.649 206.321L422.471 209.892L416.293 206.321L422.471 202.751L428.649 206.321ZM414.849 205.491L408.671 201.92L414.849 198.35L421.026 201.92L414.849 205.491ZM413.404 206.321L407.226 209.892L401.048 206.321L407.226 202.751L413.404 206.321ZM405.781 210.723L399.604 214.293L393.426 210.723L399.604 207.152L405.781 210.723ZM398.159 215.124L391.981 218.695L385.803 215.124L391.981 211.553L398.159 215.124ZM390.536 219.525L384.359 223.096L378.181 219.525L384.359 215.955L390.536 219.525ZM391.981 220.356L398.159 223.927L391.981 227.497L385.803 223.927L391.981 220.356ZM390.536 228.328L384.359 231.899L378.181 228.328L384.359 224.757L390.536 228.328ZM391.981 229.159L398.159 232.729L391.981 236.3L385.803 232.729L391.981 229.159ZM393.426 228.328L399.604 224.757L405.781 228.328L399.604 231.899L393.426 228.328ZM407.226 229.159L413.404 232.729L407.226 236.3L401.048 232.729L407.226 229.159ZM408.671 228.328L414.849 224.757L421.026 228.328L414.849 231.899L408.671 228.328ZM416.293 223.927L422.471 220.356L428.649 223.927L422.471 227.497L416.293 223.927ZM423.916 219.525L430.094 215.955L436.271 219.525L430.094 223.096L423.916 219.525ZM431.538 215.124L437.716 211.553L443.894 215.124L437.716 218.695L431.538 215.124ZM439.161 210.723L445.339 207.152L451.516 210.723L445.339 214.293L439.161 210.723ZM446.783 206.321L452.961 202.751L459.139 206.321L452.961 209.892L446.783 206.321ZM445.339 205.491L439.161 201.92L445.339 198.35L451.516 201.92L445.339 205.491ZM437.716 201.09L431.538 197.519L437.716 193.948L443.894 197.519L437.716 201.09ZM430.094 196.688L423.916 193.118L430.094 189.547L436.271 193.118L430.094 196.688ZM428.649 197.519L422.471 201.09L416.293 197.519L422.471 193.948L428.649 197.519ZM414.849 196.688L408.671 193.118L414.849 189.547L421.026 193.118L414.849 196.688ZM413.404 197.519L407.226 201.09L401.048 197.519L407.226 193.948L413.404 197.519ZM405.781 201.92L399.604 205.491L393.426 201.92L399.604 198.35L405.781 201.92ZM398.159 206.321L391.981 209.892L385.803 206.321L391.981 202.751L398.159 206.321ZM390.536 210.723L384.359 214.293L378.181 210.723L384.359 207.152L390.536 210.723ZM382.914 215.124L376.736 218.695L370.558 215.124L376.736 211.553L382.914 215.124ZM375.291 219.525L369.114 223.096L362.936 219.525L369.114 215.955L375.291 219.525ZM376.736 220.356L382.914 223.927L376.736 227.497L370.558 223.927L376.736 220.356ZM375.291 228.328L369.114 231.899L362.936 228.328L369.114 224.757L375.291 228.328ZM376.736 229.159L382.914 232.729L376.736 236.3L370.558 232.729L376.736 229.159ZM384.359 233.56L390.536 237.131L384.359 240.701L378.181 237.131L384.359 233.56ZM391.981 237.961L398.159 241.532L391.981 245.102L385.803 241.532L391.981 237.961ZM393.426 237.131L399.604 233.56L405.781 237.131L399.604 240.701L393.426 237.131ZM407.226 237.961L413.404 241.532L407.226 245.102L401.048 241.532L407.226 237.961ZM408.671 237.131L414.849 233.56L421.026 237.131L414.849 240.701L408.671 237.131ZM416.293 232.729L422.471 229.159L428.649 232.729L422.471 236.3L416.293 232.729ZM423.916 228.328L430.094 224.757L436.271 228.328L430.094 231.899L423.916 228.328ZM431.538 223.927L437.716 220.356L443.894 223.927L437.716 227.497L431.538 223.927ZM439.161 219.525L445.339 215.955L451.516 219.525L445.339 223.096L439.161 219.525ZM446.783 215.124L452.961 211.553L459.139 215.124L452.961 218.695L446.783 215.124ZM454.406 210.723L460.584 207.152L466.761 210.723L460.584 214.293L454.406 210.723ZM462.028 206.321L468.206 202.751L474.384 206.321L468.206 209.892L462.028 206.321ZM460.584 205.491L454.406 201.92L460.584 198.35L466.761 201.92L460.584 205.491ZM452.961 201.09L446.783 197.519L452.961 193.948L459.139 197.519L452.961 201.09ZM445.339 196.688L439.161 193.118L445.339 189.547L451.516 193.118L445.339 196.688ZM437.716 192.287L431.538 188.716L437.716 185.146L443.894 188.716L437.716 192.287ZM430.094 187.886L423.916 184.315L430.094 180.744L436.271 184.315L430.094 187.886ZM428.649 188.716L422.471 192.287L416.293 188.716L422.471 185.146L428.649 188.716ZM414.849 187.886L408.671 184.315L414.849 180.744L421.026 184.315L414.849 187.886ZM413.404 188.716L407.226 192.287L401.048 188.716L407.226 185.146L413.404 188.716ZM405.781 193.118L399.604 196.688L393.426 193.118L399.604 189.547L405.781 193.118ZM398.159 197.519L391.981 201.09L385.803 197.519L391.981 193.948L398.159 197.519ZM390.536 201.92L384.359 205.491L378.181 201.92L384.359 198.35L390.536 201.92ZM382.914 206.321L376.736 209.892L370.558 206.321L376.736 202.751L382.914 206.321ZM375.291 210.723L369.114 214.293L362.936 210.723L369.114 207.152L375.291 210.723ZM367.669 215.124L361.491 218.695L355.313 215.124L361.491 211.553L367.669 215.124ZM360.047 219.525L353.869 223.096L347.691 219.525L353.869 215.955L360.047 219.525ZM361.491 220.356L367.669 223.927L361.491 227.497L355.313 223.927L361.491 220.356ZM360.047 228.328L353.869 231.899L347.691 228.328L353.869 224.757L360.047 228.328ZM361.491 229.159L367.669 232.729L361.491 236.3L355.313 232.729L361.491 229.159ZM369.114 233.56L375.291 237.131L369.114 240.701L362.936 237.131L369.114 233.56ZM376.736 237.961L382.914 241.532L376.736 245.102L370.558 241.532L376.736 237.961ZM384.359 242.362L390.536 245.933L384.359 249.504L378.181 245.933L384.359 242.362ZM391.981 246.764L398.159 250.334L391.981 253.905L385.803 250.334L391.981 246.764ZM393.426 245.933L399.604 242.362L405.781 245.933L399.604 249.504L393.426 245.933ZM407.226 246.764L413.404 250.334L407.226 253.905L401.048 250.334L407.226 246.764ZM408.671 245.933L414.849 242.362L421.026 245.933L414.849 249.504L408.671 245.933ZM416.293 241.532L422.471 237.961L428.649 241.532L422.471 245.102L416.293 241.532ZM423.916 237.131L430.094 233.56L436.271 237.131L430.094 240.701L423.916 237.131ZM431.538 232.729L437.716 229.159L443.894 232.729L437.716 236.3L431.538 232.729ZM439.161 228.328L445.339 224.757L451.516 228.328L445.339 231.899L439.161 228.328ZM446.783 223.927L452.961 220.356L459.139 223.927L452.961 227.497L446.783 223.927ZM454.406 219.525L460.584 215.955L466.761 219.525L460.584 223.096L454.406 219.525ZM462.028 215.124L468.206 211.553L474.384 215.124L468.206 218.695L462.028 215.124ZM469.651 210.723L475.828 207.152L482.006 210.723L475.828 214.293L469.651 210.723ZM477.273 206.321L483.451 202.751L489.629 206.321L483.451 209.892L477.273 206.321ZM475.828 205.491L469.651 201.92L475.828 198.35L482.006 201.92L475.828 205.491ZM468.206 201.09L462.028 197.519L468.206 193.948L474.384 197.519L468.206 201.09ZM460.584 196.688L454.406 193.118L460.584 189.547L466.761 193.118L460.584 196.688ZM452.961 192.287L446.783 188.716L452.961 185.146L459.139 188.716L452.961 192.287ZM445.339 187.886L439.161 184.315L445.339 180.744L451.516 184.315L445.339 187.886ZM437.716 183.484L431.538 179.914L437.716 176.343L443.894 179.914L437.716 183.484ZM430.094 179.083L423.916 175.512L430.094 171.942L436.271 175.512L430.094 179.083ZM428.649 179.914L422.471 183.484L416.293 179.914L422.471 176.343L428.649 179.914ZM414.849 179.083L408.671 175.512L414.849 171.942L421.026 175.512L414.849 179.083ZM413.404 179.914L407.226 183.484L401.048 179.914L407.226 176.343L413.404 179.914ZM405.781 184.315L399.604 187.886L393.426 184.315L399.604 180.744L405.781 184.315ZM398.159 188.716L391.981 192.287L385.803 188.716L391.981 185.146L398.159 188.716ZM390.536 193.118L384.359 196.688L378.181 193.118L384.359 189.547L390.536 193.118ZM382.914 197.519L376.736 201.09L370.558 197.519L376.736 193.948L382.914 197.519ZM375.291 201.92L369.114 205.491L362.936 201.92L369.114 198.35L375.291 201.92ZM367.669 206.321L361.491 209.892L355.313 206.321L361.491 202.751L367.669 206.321ZM360.047 210.723L353.869 214.293L347.691 210.723L353.869 207.152L360.047 210.723ZM352.424 215.124L346.246 218.695L340.068 215.124L346.246 211.553L352.424 215.124ZM344.802 219.525L338.624 223.096L332.446 219.525L338.624 215.955L344.802 219.525ZM346.246 220.356L352.424 223.927L346.246 227.497L340.068 223.927L346.246 220.356ZM344.802 228.328L338.624 231.899L332.446 228.328L338.624 224.757L344.802 228.328ZM346.246 229.159L352.424 232.729L346.246 236.3L340.068 232.729L346.246 229.159ZM353.869 233.56L360.047 237.131L353.869 240.701L347.691 237.131L353.869 233.56ZM361.491 237.961L367.669 241.532L361.491 245.102L355.313 241.532L361.491 237.961ZM369.114 242.362L375.291 245.933L369.114 249.504L362.936 245.933L369.114 242.362ZM376.736 246.764L382.914 250.334L376.736 253.905L370.558 250.334L376.736 246.764ZM384.359 251.165L390.536 254.736L384.359 258.306L378.181 254.736L384.359 251.165ZM391.981 255.566L398.159 259.137L391.981 262.708L385.803 259.137L391.981 255.566ZM393.426 254.736L399.604 251.165L405.781 254.736L399.604 258.306L393.426 254.736ZM407.226 255.566L413.404 259.137L407.226 262.708L401.048 259.137L407.226 255.566ZM408.671 254.736L414.849 251.165L421.026 254.736L414.849 258.306L408.671 254.736ZM416.293 250.334L422.471 246.764L428.649 250.334L422.471 253.905L416.293 250.334ZM423.916 245.933L430.094 242.362L436.271 245.933L430.094 249.504L423.916 245.933ZM431.538 241.532L437.716 237.961L443.894 241.532L437.716 245.102L431.538 241.532ZM439.161 237.131L445.339 233.56L451.516 237.131L445.339 240.701L439.161 237.131ZM446.783 232.729L452.961 229.159L459.139 232.729L452.961 236.3L446.783 232.729ZM454.406 228.328L460.584 224.757L466.761 228.328L460.584 231.899L454.406 228.328ZM462.028 223.927L468.206 220.356L474.384 223.927L468.206 227.497L462.028 223.927ZM469.651 219.525L475.828 215.955L482.006 219.525L475.828 223.096L469.651 219.525ZM477.273 215.124L483.451 211.553L489.629 215.124L483.451 218.695L477.273 215.124ZM428.649 171.09L422.471 174.66L416.293 171.09L422.471 167.519L428.649 171.09ZM330.99 220.356L337.168 223.927L330.99 227.497L324.813 223.927L330.99 220.356ZM393.415 263.56L399.593 259.989L405.771 263.56L399.593 267.131L393.415 263.56Z" fill="#E8ECF7"/>
<path d="M387.054 252.621C388.768 248.878 390.903 244.218 403.463 240.583C415.183 237.195 418.46 232.114 414.094 224.121C412.682 221.521 412.822 219.364 414.536 217.497C416.854 214.973 422.094 213.031 430.536 211.575C434.083 210.96 436.563 209.827 437.878 208.188C441.382 203.851 436.099 196.796 430.999 189.968C428.39 186.472 425.932 183.172 424.638 180.324L429.048 179.666L419.69 172.416L417.533 181.381L421.684 180.766C423.032 183.743 425.533 187.109 428.196 190.669C433.026 197.141 438.029 203.83 435.107 207.443C434.158 208.619 432.379 209.417 429.662 209.881C420.39 211.478 414.558 213.7 411.83 216.667C409.738 218.943 409.523 221.629 411.172 224.649C415.097 231.845 412.466 236.009 402.094 239.008C388.305 242.988 385.868 248.296 384.1 252.168C383.723 252.999 383.356 253.786 382.925 254.455L385.793 255.07C386.278 254.326 386.655 253.495 387.054 252.621Z" fill="#FF1F70"/>
<path d="M359.421 117.131C352.64 84.164 335.648 32.9234 325.729 6.12729C324.802 6.66666 323.724 7.27076 322.872 7.85329C332.414 33.6354 349.319 85.8576 356.564 118.857C357.653 118.22 358.332 117.799 359.421 117.131Z" fill="#2262A8"/>
<path d="M356.564 118.856C349.782 85.8899 332.791 34.6602 322.872 7.85327C313.061 19.9245 281.525 50.0323 260.976 63.6246C265.482 66.2244 270.668 69.2233 276.253 72.4487C259.542 105.534 234.777 141.478 177.851 157.292C135.587 169.029 108.612 202.718 82.5212 235.297C64.5269 257.767 47.5354 278.986 26.6948 291.025L90.3269 327.778C111.157 315.739 128.159 294.52 146.153 272.05C172.244 239.471 199.22 205.793 241.483 194.045C298.409 178.231 323.174 142.287 339.885 109.202C339.885 109.202 344.629 111.942 356.575 118.846L356.564 118.856Z" fill="url(#paint17_linear_106_780)"/>
<path d="M90.3162 331.521V327.778C111.146 315.739 128.148 294.52 146.143 272.05C172.234 239.471 199.209 205.793 241.472 194.045C298.398 178.231 323.163 142.287 339.874 109.202L342.376 110.14C329.341 135.944 311.616 163.42 278.744 182.416C267.844 188.716 255.283 194.078 240.663 198.134C199.694 209.515 173.29 242.47 147.771 274.337C129.388 297.292 112.03 318.964 90.3162 331.51V331.521Z" fill="url(#paint18_linear_106_780)"/>
<path d="M90.3161 327.778L26.6948 291.025V294.757L90.3161 331.521V327.778Z" fill="#CE1963"/>
<path d="M199.349 108.447C202.831 106.753 218.216 105.21 224.179 103.754C230.141 102.298 227.715 107.584 225.429 108.447C223.144 109.31 211.607 112.665 203.931 115.415C196.977 117.907 193.538 111.284 199.349 108.447Z" fill="#2262A8"/>
<path style="mix-blend-mode:multiply" d="M301.697 145.178C276.673 148.015 252.48 153.981 240.534 160.885C233.677 164.844 231.93 168.501 234.561 171.424C235.628 172.611 241.472 177.789 243.952 179.072C249.655 182.039 261.137 183.862 277.234 183.862C285.115 183.862 293.406 183.42 301.686 182.632V145.189L301.697 145.178Z" fill="url(#paint19_linear_106_780)"/>
<path d="M221.311 143.981C221.311 128.867 231.92 110.496 244.987 102.934C258.065 95.3829 268.674 101.499 268.674 116.613C268.674 131.726 258.065 150.097 244.987 157.659C231.909 165.21 221.3 159.094 221.3 143.981H221.311Z" fill="#FFAF6D"/>
<path d="M247.014 96.5372C230.313 106.181 216.782 129.644 216.782 148.932C216.782 168.22 230.313 176.041 247.014 166.397C263.714 156.753 277.245 133.29 277.245 114.002C277.245 94.7141 263.714 86.8932 247.014 96.5372ZM247.014 158.824C233.936 166.375 223.338 160.259 223.338 145.146C223.338 130.032 233.936 111.661 247.014 104.099C260.092 96.548 270.7 102.664 270.7 117.778C270.7 132.891 260.102 151.262 247.014 158.824Z" fill="#FFC16B"/>
<path d="M262.712 101.92C266.42 104.606 268.674 109.655 268.674 116.624C268.674 131.737 258.065 150.108 244.987 157.67C238.96 161.154 233.461 161.726 229.289 159.86C233.623 163.01 239.952 162.913 247.014 158.846C260.092 151.294 270.701 132.913 270.701 117.799C270.701 109.644 267.606 104.121 262.712 101.931V101.92Z" fill="url(#paint20_linear_106_780)"/>
<path d="M258.313 88.63C252.814 85.1564 245.062 85.4908 236.469 90.4531C219.769 100.097 206.238 123.56 206.238 142.848C206.238 152.632 209.721 159.461 215.338 162.557L224.966 168.091C219.898 164.768 216.783 158.177 216.783 148.943C216.783 129.655 230.313 106.203 247.014 96.548C255.186 91.8339 262.582 91.3053 268.027 94.2395L258.313 88.63Z" fill="url(#paint21_linear_106_780)"/>
<path d="M247.014 129.256C245.817 129.946 244.685 130.065 243.833 129.579C242.982 129.094 242.518 128.058 242.518 126.677C242.518 123.819 244.534 120.334 247.014 118.9C249.494 117.465 251.521 118.619 251.521 121.478L255.607 119.115C255.607 114.477 252.814 112.201 249.062 113.312V109.601L244.976 111.963V115.674C241.235 118.9 238.443 124.401 238.443 129.04C238.443 131.683 239.327 133.635 240.955 134.574C242.572 135.502 244.728 135.286 247.025 133.959C249.504 132.524 251.531 133.679 251.531 136.537C251.531 139.396 249.515 142.88 247.035 144.315C244.556 145.75 242.529 144.595 242.529 141.737L238.453 144.099C238.453 148.738 241.246 151.014 244.987 149.903V153.323L249.073 150.96V147.54C252.825 144.315 255.617 138.813 255.617 134.175C255.617 128.727 251.768 126.526 247.025 129.256H247.014Z" fill="#FFD56E"/>
<path d="M249.019 118.296C249.321 118.813 249.493 119.493 249.493 120.313L251.51 121.478C251.51 119.45 250.496 118.285 249.019 118.285V118.296Z" fill="#E57139"/>
<path d="M251.445 127.745C249.871 126.591 247.564 126.602 244.998 128.091C244.286 128.501 243.618 128.684 243.003 128.684C243.219 129.061 243.488 129.374 243.833 129.579C244.685 130.065 245.817 129.957 247.014 129.256C249.31 127.929 251.391 127.778 252.933 128.576L251.456 127.735L251.445 127.745Z" fill="#FB934B"/>
<path d="M249.019 133.344C249.321 133.862 249.493 134.542 249.493 135.361C249.493 138.22 247.477 141.704 244.998 143.139C244.275 143.56 243.596 143.743 242.992 143.743C243.725 145.027 245.256 145.318 247.024 144.304C249.504 142.869 251.52 139.385 251.52 136.526C251.52 134.498 250.507 133.333 249.03 133.344H249.019Z" fill="#FB934B"/>
<path d="M242.949 150.173V152.157L244.976 153.323V149.903C244.265 150.119 243.585 150.205 242.949 150.173Z" fill="#E57139"/>
<path d="M249.052 111.888V113.323C250.453 112.902 251.725 112.967 252.771 113.441L251.283 112.567C250.647 112.147 249.892 111.92 249.052 111.877V111.888Z" fill="#FB934B"/>
<path d="M247.035 108.447L242.949 110.809L244.965 111.974L249.052 109.612L247.035 108.447Z" fill="#FB934B"/>
<path d="M236.405 127.875C236.405 130.518 237.3 132.47 238.917 133.409L240.75 134.444C239.251 133.474 238.421 131.575 238.421 129.04C238.421 124.401 241.213 118.9 244.955 115.674L242.938 114.509C239.197 117.724 236.405 123.236 236.394 127.875H236.405Z" fill="url(#paint22_linear_106_780)"/>
<path d="M242.949 110.809V114.509L244.965 115.685V111.974L242.949 110.809Z" fill="#E57139"/>
<path d="M238.432 144.088L236.405 142.923C236.405 145.405 237.213 147.206 238.529 148.177L238.561 148.198C238.798 148.371 239.057 148.522 239.327 148.641L240.534 149.331C239.23 148.36 238.432 146.559 238.432 144.088Z" fill="#E57139"/>
<path d="M242.518 141.737L240.491 140.572L236.416 142.923L238.432 144.088L242.518 141.737Z" fill="#FB934B"/>
<path d="M235.596 112.913C236.071 112.589 235.51 111.241 236.168 110.539C236.825 109.849 238.173 108.328 238.507 108.803C238.788 109.202 237.418 110.227 237.753 110.27C238.734 110.399 238.992 109.115 239.424 108.522C239.984 107.735 241.278 107.433 241.634 107.95C241.99 108.468 241.957 110.421 240.599 112.352C239.251 114.283 236.976 115.674 236.976 115.674L235.585 112.902L235.596 112.913Z" fill="#FCD1A9"/>
<path style="mix-blend-mode:multiply" d="M239.822 187.271H207.262V193.258H239.822V187.271Z" fill="url(#paint23_linear_106_780)"/>
<path style="mix-blend-mode:multiply" d="M213.181 184.315H185.214V189.396H213.181V184.315Z" fill="url(#paint24_linear_106_780)"/>
<path d="M177.042 186.117C178.142 181.543 181.074 182.114 181.074 182.114C181.074 182.114 182.929 184.272 184.913 184.488C187.716 183.884 191.133 185.038 188.266 188.209C188.233 188.252 188.201 188.285 188.169 188.328C187.996 188.49 187.748 188.63 187.392 188.738L185.247 189.137L180.686 188.759C179.587 189.072 176.837 187.066 177.042 186.117Z" fill="url(#paint25_linear_106_780)"/>
<path d="M177.161 185.717C176.988 186.667 178.929 187.929 180.794 188.328C180.794 188.328 184.578 189.191 185.322 188.964C186.066 188.738 187.5 188.306 187.5 188.306C187.737 188.231 188.158 188.08 188.546 187.875C188.46 187.983 188.373 188.091 188.276 188.209C188.244 188.252 188.212 188.285 188.179 188.328C188.007 188.49 187.759 188.63 187.403 188.738C187.403 188.738 185.915 189.202 185.225 189.396C184.535 189.59 180.665 188.889 180.665 188.889C179.231 188.673 177.182 187.303 177.042 186.3C177.042 186.224 177.042 186.16 177.053 186.106C177.074 185.965 177.117 185.836 177.161 185.707V185.717Z" fill="#121047"/>
<path d="M179.5 181.1C180.244 181.284 182.713 182.578 182.713 182.578C182.713 182.578 182.638 182.945 182.789 183.312C182.81 183.344 182.821 183.376 182.843 183.42C183.274 183.905 183.662 184.606 182.25 185.081C181.085 185.469 180.374 184.865 180.072 184.39C179.986 184.056 179.835 183.668 179.554 183.409C179.263 183.139 179.091 182.999 178.94 182.956C178.94 182.934 178.94 182.891 178.94 182.891C178.94 182.891 179.188 181.025 179.5 181.1Z" fill="white"/>
<path d="M185.667 135.016C188.611 135.07 195.813 135.2 198.756 135.253C197.656 144.11 195.457 152.147 193.991 160.723C192.406 169.051 185.851 176.451 182.713 182.826C181.861 183.948 179.446 182.859 179.22 181.532C180.32 175.232 183.813 167.842 185.71 160.464C185.398 152.524 185.495 143.042 185.678 135.016H185.667Z" fill="#131147"/>
<path d="M203.92 191.413C203.92 186.71 206.896 186.57 206.896 186.57C206.896 186.57 208.513 186.57 211.133 185.48C213.721 184.401 217.365 184.822 215.327 188.576C215.305 188.619 215.284 188.673 215.251 188.716C215.122 188.921 214.917 189.105 214.594 189.299L208.082 193.118C207.09 193.679 203.942 192.373 203.92 191.402V191.413Z" fill="url(#paint26_linear_106_780)"/>
<path d="M203.942 190.992C203.996 191.953 207.112 193.247 208.093 192.675L214.605 188.857C214.82 188.727 215.187 188.479 215.521 188.188C215.456 188.317 215.413 188.447 215.338 188.576C215.316 188.619 215.295 188.673 215.262 188.716C215.133 188.921 214.928 189.105 214.605 189.299L208.093 193.118C207.165 193.646 204.341 192.535 203.963 191.597C203.942 191.521 203.931 191.456 203.931 191.402C203.92 191.251 203.931 191.122 203.931 190.982L203.942 190.992Z" fill="#121047"/>
<path d="M205.138 185.955C205.904 185.955 208.61 186.645 208.61 186.645C208.61 186.645 208.632 187.023 208.847 187.346C208.88 187.379 208.901 187.411 208.923 187.433C209.462 187.799 210.001 188.393 208.739 189.18C207.704 189.827 206.863 189.417 206.465 189.018C206.303 188.716 206.066 188.371 205.731 188.188C205.386 187.994 205.182 187.896 205.031 187.896C205.031 187.875 205.031 187.832 205.031 187.832C205.031 187.832 204.837 185.955 205.16 185.955H205.138Z" fill="white"/>
<path d="M194.853 156.063C191.748 152.578 185.15 150 185.764 136.807C188.675 136.375 202.982 143.29 205.893 142.859C208.578 152.168 210.928 156.71 210.659 162.265C210.26 170.734 209.074 179.612 208.675 186.71C208.33 188.08 205.678 188.026 204.955 186.882C203.511 180.647 201.775 173.053 202.432 165.469C201.57 161.273 198.271 159.622 194.853 156.063Z" fill="url(#paint27_linear_106_780)"/>
<path d="M235.488 112.46C232.071 116.019 226.896 116.71 224.114 117.476C222.119 117.454 217.71 115.89 213.483 114.628V114.606C212.071 114.067 210.152 113.128 208.276 111.402C206.249 109.547 204.869 107.789 203.823 107.573C195.198 105.814 186.724 122.093 185.301 137.476C185.969 141.834 188.514 143.549 191.619 145.297C197.538 148.457 204.632 148.145 206.885 143.786C208.06 135.685 208.804 129.579 212.082 122.384C216.136 123.398 221.958 124.196 225.149 124.088C228.146 123.981 233.418 120.712 237.99 115.253C237.99 115.253 238.044 112.276 235.499 112.449L235.488 112.46Z" fill="url(#paint28_linear_106_780)"/>
<path d="M199.036 108.565C200.901 107.206 200.761 104.412 200.6 102.557C200.308 101.575 200.179 100.485 200.255 99.3527C200.535 95.2643 203.37 91.8986 206.551 92.3409C212.955 93.2147 211.575 96.5264 211.306 100.615C211.047 104.401 209.16 106.893 206.249 107.141C206.206 107.767 206.465 109.655 207.241 110.442C205.139 111.704 202.066 111.111 200.848 110.561C199.554 109.978 198.163 109.471 199.036 108.565Z" fill="#FCD1A9"/>
<path d="M209.106 90.3344C208.955 89.8274 207.974 89.493 204.654 90.7659C204.632 90.7659 203.845 91.0787 203.791 91.1003C197.635 93.7648 199.123 100.874 200.039 102.751C200.363 103.42 200.589 103.959 200.524 104.984C202.939 104.887 203.705 106.246 205.257 104.887C206.368 103.916 208.028 102.772 208.308 102.298C208.589 101.823 208.535 101.51 208.535 101.122C208.535 97.7238 210.109 99.795 210.066 100.583C210.713 100.27 210.67 98.8997 210.626 97.3786C215.855 93.4843 213.042 90.7875 209.106 90.3236V90.3344Z" fill="#131147"/>
<g style="mix-blend-mode:multiply">
<path d="M220.977 122.988C217.721 122.47 212.33 120.755 209.516 119.644C206.724 118.533 208.233 122.492 207.759 126.03C207.511 127.875 205.322 138.134 206.206 144.8C206.465 144.488 206.691 144.164 206.885 143.797C208.06 135.696 208.804 129.59 212.082 122.395C216.136 123.409 221.958 124.207 225.149 124.099C225.861 124.078 226.712 123.862 227.64 123.495C227.014 123.711 224.189 123.495 220.987 122.999L220.977 122.988Z" fill="#CED3F8"/>
</g>
</g>
<defs>
<linearGradient id="paint0_linear_106_780" x1="90.3162" y1="249.666" x2="475.149" y2="249.666" gradientUnits="userSpaceOnUse">
<stop stop-color="#D1D7F3" stop-opacity="0.35"/>
<stop offset="1" stop-color="white" stop-opacity="0"/>
</linearGradient>
<linearGradient id="paint1_linear_106_780" x1="-1261.16" y1="810.317" x2="-1219.09" y2="883.157" gradientUnits="userSpaceOnUse">
<stop stop-color="#E8ECF7"/>
<stop offset="0.76" stop-color="#F8F9FC"/>
<stop offset="1" stop-color="white"/>
</linearGradient>
<linearGradient id="paint2_linear_106_780" x1="-1314.75" y1="875.078" x2="-1279.96" y2="935.3" gradientUnits="userSpaceOnUse">
<stop stop-color="#E8ECF7"/>
<stop offset="0.76" stop-color="#F8F9FC"/>
<stop offset="1" stop-color="white"/>
</linearGradient>
<linearGradient id="paint3_linear_106_780" x1="-1151.11" y1="827.52" x2="-1111.54" y2="896.007" gradientUnits="userSpaceOnUse">
<stop stop-color="#E8ECF7"/>
<stop offset="0.76" stop-color="#F8F9FC"/>
<stop offset="1" stop-color="white"/>
</linearGradient>
<linearGradient id="paint4_linear_106_780" x1="272.091" y1="326.958" x2="352.769" y2="326.958" gradientUnits="userSpaceOnUse">
<stop offset="0.42" stop-color="#C6CBE7"/>
<stop offset="0.59" stop-color="#D2D6EC"/>
<stop offset="0.9" stop-color="#F2F3F9"/>
<stop offset="1" stop-color="white"/>
</linearGradient>
<linearGradient id="paint5_linear_106_780" x1="264.76" y1="335.491" x2="341.89" y2="335.491" gradientUnits="userSpaceOnUse">
<stop stop-color="#CED3F8"/>
<stop offset="1" stop-color="#BBC0E6"/>
</linearGradient>
<linearGradient id="paint6_linear_106_780" x1="303.325" y1="315.739" x2="340.37" y2="315.739" gradientUnits="userSpaceOnUse">
<stop stop-color="#C4CAE9"/>
<stop offset="0.56" stop-color="#D4DAF1"/>
<stop offset="1" stop-color="#DAE0F5"/>
</linearGradient>
<linearGradient id="paint7_linear_106_780" x1="25.7783" y1="246.235" x2="80.4403" y2="246.235" gradientUnits="userSpaceOnUse">
<stop offset="0.45" stop-color="#C4C9E4" stop-opacity="0.34"/>
<stop offset="1" stop-color="white" stop-opacity="0.4"/>
</linearGradient>
<linearGradient id="paint8_linear_106_780" x1="0" y1="227.853" x2="51.5461" y2="227.853" gradientUnits="userSpaceOnUse">
<stop stop-color="#FB944B"/>
<stop offset="1" stop-color="#E57139"/>
</linearGradient>
<linearGradient id="paint9_linear_106_780" x1="0" y1="235.21" x2="51.5461" y2="235.21" gradientUnits="userSpaceOnUse">
<stop stop-color="#FF5A72"/>
<stop offset="1" stop-color="#B72C4E"/>
</linearGradient>
<linearGradient id="paint10_linear_106_780" x1="0" y1="242.557" x2="1.07814" y2="242.557" gradientUnits="userSpaceOnUse">
<stop stop-color="#FB944B"/>
<stop offset="1" stop-color="#E57139"/>
</linearGradient>
<linearGradient id="paint11_linear_106_780" x1="0" y1="249.903" x2="1.07814" y2="249.903" gradientUnits="userSpaceOnUse">
<stop stop-color="#FF5A72"/>
<stop offset="1" stop-color="#B72C4E"/>
</linearGradient>
<linearGradient id="paint12_linear_106_780" x1="4.84082" y1="211.046" x2="46.7052" y2="211.046" gradientUnits="userSpaceOnUse">
<stop stop-color="#FB944B"/>
<stop offset="1" stop-color="#E57139"/>
</linearGradient>
<linearGradient id="paint13_linear_106_780" x1="17.8218" y1="221.974" x2="29.1315" y2="221.974" gradientUnits="userSpaceOnUse">
<stop stop-color="#FB944B"/>
<stop offset="1" stop-color="#E57139"/>
</linearGradient>
<linearGradient id="paint14_linear_106_780" x1="323.95" y1="223.732" x2="520" y2="223.732" gradientUnits="userSpaceOnUse">
<stop stop-color="#C4C9E4"/>
<stop offset="0.25" stop-color="#CDD1E8"/>
<stop offset="0.68" stop-color="#E7E9F4"/>
<stop offset="1" stop-color="white"/>
</linearGradient>
<linearGradient id="paint15_linear_106_780" x1="313.589" y1="197.778" x2="459.947" y2="197.778" gradientUnits="userSpaceOnUse">
<stop stop-color="#F6F6FB"/>
<stop offset="0.66" stop-color="#F8F8FC"/>
<stop offset="1" stop-color="white"/>
</linearGradient>
<linearGradient id="paint16_linear_106_780" x1="508.726" y1="245.75" x2="313.843" y2="245.748" gradientUnits="userSpaceOnUse">
<stop stop-color="#FF1F70"/>
<stop offset="1" stop-color="#52C3FF"/>
</linearGradient>
<linearGradient id="paint17_linear_106_780" x1="113.14" y1="340.96" x2="309.895" y2="0.354287" gradientUnits="userSpaceOnUse">
<stop stop-color="#FF1F70"/>
<stop offset="1" stop-color="#52C3FF"/>
</linearGradient>
<linearGradient id="paint18_linear_106_780" x1="90.3162" y1="220.367" x2="342.376" y2="220.367" gradientUnits="userSpaceOnUse">
<stop stop-color="#B72C4E"/>
<stop offset="0.52" stop-color="#5652CC"/>
<stop offset="1" stop-color="#423EAF"/>
</linearGradient>
<linearGradient id="paint19_linear_106_780" x1="233.397" y1="164.52" x2="301.697" y2="164.52" gradientUnits="userSpaceOnUse">
<stop stop-color="#D1D7F3"/>
<stop offset="0.03" stop-color="#D2D8F3"/>
<stop offset="0.66" stop-color="#F2F4FB"/>
<stop offset="1" stop-color="white"/>
</linearGradient>
<linearGradient id="paint20_linear_106_780" x1="238.141" y1="165.027" x2="271.645" y2="107.017" gradientUnits="userSpaceOnUse">
<stop stop-color="#FB934B"/>
<stop offset="0.5" stop-color="#EA7A3D"/>
<stop offset="0.8" stop-color="#E57139"/>
</linearGradient>
<linearGradient id="paint21_linear_106_780" x1="209.505" y1="159.18" x2="252.279" y2="85.134" gradientUnits="userSpaceOnUse">
<stop stop-color="#E57139"/>
<stop offset="0.39" stop-color="#EE864B"/>
<stop offset="1" stop-color="#FFAF6D"/>
</linearGradient>
<linearGradient id="paint22_linear_106_780" x1="236.815" y1="132.19" x2="246.008" y2="116.283" gradientUnits="userSpaceOnUse">
<stop stop-color="#E57139"/>
<stop offset="0.62" stop-color="#F58946"/>
<stop offset="1" stop-color="#FB934B"/>
</linearGradient>
<linearGradient id="paint23_linear_106_780" x1="207.262" y1="190.259" x2="239.822" y2="190.259" gradientUnits="userSpaceOnUse">
<stop stop-color="#C4CAE8"/>
<stop offset="0.09" stop-color="#CDD2EB"/>
<stop offset="0.41" stop-color="#E8EAF6"/>
<stop offset="0.69" stop-color="#F9F9FC"/>
<stop offset="0.9" stop-color="white"/>
</linearGradient>
<linearGradient id="paint24_linear_106_780" x1="185.214" y1="186.861" x2="213.181" y2="186.861" gradientUnits="userSpaceOnUse">
<stop stop-color="#C4CAE8"/>
<stop offset="0.09" stop-color="#CDD2EB"/>
<stop offset="0.41" stop-color="#E8EAF6"/>
<stop offset="0.69" stop-color="#F9F9FC"/>
<stop offset="0.9" stop-color="white"/>
</linearGradient>
<linearGradient id="paint25_linear_106_780" x1="189.159" y1="188.392" x2="177.494" y2="185.574" gradientUnits="userSpaceOnUse">
<stop stop-color="#423EAF"/>
<stop offset="0.3" stop-color="#39359F"/>
<stop offset="0.89" stop-color="#231D77"/>
<stop offset="1" stop-color="#1F196F"/>
</linearGradient>
<linearGradient id="paint26_linear_106_780" x1="215.92" y1="189.126" x2="203.92" y2="189.126" gradientUnits="userSpaceOnUse">
<stop stop-color="#423EAF"/>
<stop offset="0.3" stop-color="#39359F"/>
<stop offset="0.89" stop-color="#231D77"/>
<stop offset="1" stop-color="#1F196F"/>
</linearGradient>
<linearGradient id="paint27_linear_106_780" x1="210.669" y1="162.265" x2="185.71" y2="162.265" gradientUnits="userSpaceOnUse">
<stop stop-color="#423EAF"/>
<stop offset="0.3" stop-color="#353097"/>
<stop offset="0.75" stop-color="#251F7A"/>
<stop offset="1" stop-color="#1F196F"/>
</linearGradient>
<linearGradient id="paint28_linear_106_780" x1="185.301" y1="127.433" x2="237.979" y2="127.433" gradientUnits="userSpaceOnUse">
<stop stop-color="#807DFB"/>
<stop offset="0.97" stop-color="#5652CC"/>
</linearGradient>
<clipPath id="clip0_106_780">
<rect width="520" height="350" fill="white"/>
</clipPath>
</defs>
</svg>
