<svg width="17" height="17" viewBox="0 0 17 17" fill="none"
  xmlns="http://www.w3.org/2000/svg">
  <path opacity="0.18" d="M8.19079 16.3816C12.7144 16.3816 16.3816 12.7144 16.3816 8.19079C16.3816 3.66714 12.7144 0 8.19079 0C3.66714 0 0 3.66714 0 8.19079C0 12.7144 3.66714 16.3816 8.19079 16.3816Z" fill="#52C3FF"/>
  <path d="M6.94111 11.7571C6.79325 11.7571 6.64539 11.7017 6.55298 11.6093L3.79908 8.85538C3.59577 8.65207 3.63274 8.44876 3.68819 8.31938C3.7806 8.09759 4.00239 7.94973 4.2057 7.94973C4.33507 7.94973 4.44597 8.00518 4.55687 8.09759L6.71932 10.26C6.71932 10.26 6.83022 10.334 6.88566 10.334C6.88566 10.334 7.01504 10.297 7.05201 10.26L12.0238 4.65984C12.1162 4.54895 12.2271 4.4935 12.3565 4.4935C12.5413 4.4935 12.7631 4.64136 12.8555 4.86315C12.911 4.97405 12.9664 5.21432 12.7631 5.43611L7.2738 11.6093C7.1629 11.7387 7.01504 11.7571 6.92263 11.7571H6.94111Z" fill="#52C3FF"/>
</svg>
