<?xml version="1.0" encoding="UTF-8"?><svg xmlns="http://www.w3.org/2000/svg" xmlns:xlink="http://www.w3.org/1999/xlink" viewBox="0 0 1168.02 199.63"><defs><linearGradient id="Nepojmenovaný_přechod_8" x1="171.21" y1="26.58" x2="171.85" y2="26.58" gradientTransform="translate(0 197.71) scale(1 -1)" gradientUnits="userSpaceOnUse"><stop offset="0" stop-color="#ff1f70"/><stop offset="1" stop-color="#52c3ff"/></linearGradient><linearGradient id="Nepojmenovaný_přechod_8-2" x1="149.51" y1="90.51" x2="152.89" y2="90.51" xlink:href="#Nepojmenovaný_přechod_8"/><linearGradient id="Nepojmenovaný_přechod_8-3" x1="153.94" y1="86.3" x2="156.17" y2="86.3" xlink:href="#Nepojmenovaný_přechod_8"/><linearGradient id="Nepojmenovaný_přechod_8-4" x1="171.95" y1="29.84" x2="172.11" y2="29.84" xlink:href="#Nepojmenovaný_přechod_8"/><linearGradient id="Nepojmenovaný_přechod_8-5" x1="170.67" y1="35.48" x2="171.37" y2="35.48" xlink:href="#Nepojmenovaný_přechod_8"/><linearGradient id="Nepojmenovaný_přechod_8-6" x1="157.22" y1="63.41" x2="292.99" y2="63.41" xlink:href="#Nepojmenovaný_přechod_8"/><linearGradient id="Nepojmenovaný_přechod_8-7" x1="171.46" y1="32.44" x2="171.91" y2="32.44" xlink:href="#Nepojmenovaný_přechod_8"/><linearGradient id="Nepojmenovaný_přechod_8-8" x1="171.9" y1="27.84" x2="172.1" y2="27.84" xlink:href="#Nepojmenovaný_přechod_8"/></defs><g id="Vrstva_1-2"><g><path d="M53.06,129.37c-7.76,1.17-21.4,4.55-32.55,15.67-6.82,6.8-18.48,22.25-13.26,31.35,2.14,3.73,6.86,5.92,10.85,6.03,5.21,.14,7.67-3.3,16.88-9.65,10.8-7.44,12.46-6.18,15.67-9.65,3.13-3.37,8.4-11.93,2.41-33.75Z" style="fill:#ff1f70;"/><path d="M159.54,126.17c-.29-3.98-.08-7.45,.24-10.22-2.95-2.62-6.57-6.16-10.27-10.7-10.18-12.48-15.17-25.34-19.29-36.17-5.7-15-4.03-15.98-8.44-22.91-7.53-11.83-18.02-17.79-22.91-20.5-6.71-3.72-16.06-8.88-27.73-8.44-11.6,.44-17.32,6.11-33.76,15.67-8.32,4.84-20.87,11.54-37.38,18.09,4.48,3.46,11.86,8.15,21.7,9.65,12.44,1.9,17.49-3.03,24.11,1.21,8.54,5.46,6.75,17.85,15.67,20.5,.91,.27,3.43,1.02,6.03,0,5.81-2.27,4.52-10.45,9.65-15.67,5.04-5.14,14.42-5.51,20.5-3.62,10.64,3.32,11.5,13.68,24.11,30.14,12.87,16.8,15.9,11.13,22.91,22.91,11.12,18.69,4.65,34.93,19.29,50.64,1.27,1.36,5.41,5.8,7.23,4.82,2.47-1.33-.56-11.88-3.96-21.66-6.88-12.77-7.7-23.74-7.7-23.74Z" style="fill:#ff1f70;"/><g><path d="M171.21,171.56c.29-.16,.49-.46,.64-.86-.14,.4-.35,.71-.64,.86Z" style="fill:url(#Nepojmenovaný_přechod_8);"/><path d="M152.89,109.15c-1.11-1.22-2.24-2.49-3.38-3.89,1.15,1.4,2.27,2.67,3.38,3.89Z" style="fill:url(#Nepojmenovaný_přechod_8-2);"/><path d="M156.17,112.55c-.73-.72-1.47-1.48-2.23-2.28,.76,.8,1.5,1.56,2.23,2.28Z" style="fill:url(#Nepojmenovaný_přechod_8-3);"/><path d="M172.11,168.87c0-.59-.06-1.26-.15-2,.09,.74,.14,1.41,.15,2Z" style="fill:url(#Nepojmenovaný_přechod_8-4);"/><path d="M171.37,163.66c-.2-.91-.43-1.86-.7-2.86,.27,1,.5,1.95,.7,2.86Z" style="fill:url(#Nepojmenovaný_přechod_8-5);"/><path d="M285.75,129.37c-31.79-38.68-115.08-13.35-122.98-10.85-1.52-1.24-3.44-2.9-5.55-4.92,.89,.85,1.75,1.65,2.56,2.37-.33,2.77-.53,6.24-.24,10.22,0,0,.82,10.97,7.72,23.73,1.25,3.6,2.44,7.29,3.34,10.6-1.1-4.06-2.65-8.71-4.2-13.04,3.26-1.53,8.7-3.91,15.67-6.03,21.28-6.47,37.58-4.67,91.63-1.21,9.11,.58,16.27,1.02,19.29,1.21-2.01-4.77-4.49-8.74-7.24-12.08Z" style="fill:url(#Nepojmenovaný_přechod_8-6);"/><path d="M171.91,166.5c-.11-.76-.26-1.58-.44-2.45,.18,.88,.33,1.7,.44,2.45Z" style="fill:url(#Nepojmenovaný_přechod_8-7);"/><path d="M171.9,170.61c.13-.4,.19-.9,.2-1.48-.02,.57-.07,1.08-.2,1.48Z" style="fill:url(#Nepojmenovaný_přechod_8-8);"/></g></g><g><g><path d="M339.53,69.9c-.17-21.75,16.93-35.84,36.78-36,11.17-.09,20.77,4.39,26.85,11.55l-9.49,9.04c-4-4.38-10.05-7.12-16.97-7.07-12.79,.1-22.87,9.29-22.77,22.37s10.32,22.11,23.11,22.01c6.91-.05,12.92-2.89,16.85-7.33l9.63,8.89c-5.97,7.25-15.49,11.88-26.67,11.96-19.84,.16-37.15-13.67-37.32-35.42Z" style="fill:#ff1f70;"/><path d="M420.1,69.13c-.17-21.75,16.19-35.69,35.75-35.84s36.28,13.53,36.45,35.28c.17,21.75-16.34,36.13-35.89,36.29-19.56,.15-36.14-13.98-36.31-35.73Zm57.79-.45c-.1-13.23-10.17-21.97-21.93-21.87-11.76,.09-21.55,8.98-21.44,22.21,.1,13.37,10.02,22.26,21.79,22.17,11.75-.09,21.68-9.13,21.58-22.51Z" style="fill:#ff1f70;"/><path d="M513.59,9.33c-.04-5.29,4.49-9.29,9.78-9.33,5.44-.04,9.88,3.89,9.92,9.18s-4.34,9.29-9.78,9.33c-5.29,.04-9.88-3.89-9.92-9.18Zm2.84,24.96l14.41-.11,.53,68.63-14.41,.11-.53-68.63Z" style="fill:#ff1f70;"/><path d="M624.29,62.85l.3,39.24-14.41,.11-.3-38.21c-.09-11.17-6.9-17.58-15.72-17.51-8.97,.07-19.81,5.15-19.7,19.4l.28,36.59-14.41,.11-.53-68.63,14.41-.11,.08,10.58c3.91-8.41,14.9-12.17,22.26-12.22,17.35-.14,27.73,11.1,27.74,30.65Z" style="fill:#ff1f70;"/><path d="M719.92,32.71l.45,58.34c.25,31.89-14.36,44.64-37.44,44.82-12.94,.1-25.05-6.57-31.61-18.71l12.16-6.12c3.88,7.32,11.85,11.52,19.35,11.46,14.41-.11,23.31-8.41,23.15-30.16v-.88c-4.66,7.53-14.48,11.58-23.59,11.65-18.67,.14-34.22-13.84-34.39-35.59-.17-21.9,15.16-35.83,33.69-35.97,9.56-.07,19.14,3.67,23.91,11.28l-.08-9.99,14.4-.13Zm-14.29,34.21c-.11-13.81-11.49-21.81-22.08-21.73-11.76,.09-21.25,9.13-21.15,22.06,.1,12.79,9.73,22.26,21.49,22.17,11.62-.08,21.84-8.69,21.74-22.5Z" style="fill:#ff1f70;"/><path d="M816.66,31.96l.53,68.63-14.41,.11-.08-10.29c-4.5,7.82-14.32,11.87-23.58,11.94-18.67,.14-34.22-13.84-34.39-35.59-.17-21.9,15.16-35.83,33.69-35.97,9.7-.08,19.29,3.67,23.91,11.42l-.08-10.14,14.41-.11Zm-14.29,34.21c-.11-13.81-11.49-21.81-22.08-21.73-11.76,.09-21.25,9.13-21.15,22.06,.1,12.79,9.73,22.26,21.49,22.17,11.62-.09,21.84-8.69,21.74-22.5Z" style="fill:#ff1f70;"/><path d="M891.06,32.41l-2.39,13.69c-3.83-1.73-7.37-2.29-10.16-2.27-12.5,.1-18.28,13.22-18.13,31.74l.19,24.69-14.56,.11-.53-68.63,14.56-.11,.12,15.43c3.44-12.08,10.31-16.98,19.13-17.05,4.69-.04,9.55,1.1,11.77,2.4Z" style="fill:#ff1f70;"/><path d="M976.77,30.72l.53,68.63-14.41,.11-.08-10.29c-4.5,7.82-14.32,11.87-23.58,11.94-18.67,.14-34.22-13.84-34.39-35.59-.17-21.9,15.16-35.83,33.69-35.97,9.7-.08,19.29,3.67,23.91,11.42l-.08-10.14,14.41-.11Zm-14.3,34.21c-.11-13.81-11.49-21.81-22.08-21.73-11.76,.09-21.25,9.13-21.15,22.06,.1,12.79,9.73,22.26,21.49,22.17,11.63-.09,21.85-8.69,21.74-22.5Z" style="fill:#ff1f70;"/><path d="M1073.51,32.71l.45,58.34c.25,31.89-14.36,44.64-37.44,44.82-12.94,.1-25.05-6.57-31.61-18.71l12.16-6.12c3.88,7.32,11.85,11.52,19.35,11.46,14.41-.11,23.31-8.41,23.14-30.16v-.88c-4.66,7.53-14.48,11.58-23.59,11.65-18.68,.15-34.22-13.84-34.39-35.59-.17-21.9,15.16-35.83,33.69-35.97,9.56-.07,19.14,3.67,23.91,11.28l-.08-9.99,14.41-.13Zm-14.3,34.21c-.11-13.81-11.49-21.81-22.08-21.73-11.76,.09-21.25,9.13-21.15,22.06,.1,12.79,9.73,22.26,21.49,22.17,11.62-.09,21.85-8.69,21.74-22.5Z" style="fill:#ff1f70;"/><path d="M1167.77,70.87l-54.7,.42c2,11.15,10.27,16.53,21.45,16.44,7.94-.06,15.41-3.5,19.19-9.85l11.51,5.64c-5.94,11.51-18.24,17.48-31.33,17.58-19.85,.15-35.55-13.98-35.71-35.73-.17-21.75,15.6-35.69,35.16-35.84,19.55-.15,34.51,13.55,34.68,35.15,0,1.93-.13,3.99-.25,6.19Zm-14.21-11.5c-1.41-10.72-9.39-16.53-19.98-16.45s-18.49,5.43-20.46,16.76l40.44-.31Z" style="fill:#ff1f70;"/></g><g><path d="M353.87,156.17v5.42h9.09v4.39h-9.09v32.86h-4.89v-32.86h-7.03v-4.39h7.03v-4.87c0-9.33,3.51-16.11,12.83-16.11h3.36v4.87h-2.67c-6.72,0-8.63,4.71-8.63,10.69Z" style="fill:#52c3ff;"/><path d="M387.46,147.88c0-2.15,1.76-3.67,3.74-3.67,2.14,0,3.82,1.51,3.82,3.67s-1.68,3.59-3.82,3.59c-1.98,0-3.74-1.52-3.74-3.59Zm1.3,13.71h4.89v37.25h-4.89v-37.25Z" style="fill:#52c3ff;"/><path d="M452.92,177.15v21.69h-4.89v-21.46c0-7.18-4.35-11.56-10.08-11.56s-11.76,3.35-11.92,12.36v20.66h-4.89v-37.25h4.89v6.7c2.14-5.34,7.94-7.5,12.37-7.5,8.64,.01,14.52,6.07,14.52,16.36Z" style="fill:#52c3ff;"/><path d="M514.64,161.59v37.25h-4.89v-7.26c-2.67,5.1-8.25,8.05-14.21,8.05-9.93,0-18.1-8.13-18.1-19.46s8.1-19.38,18.1-19.38c6.03,0,11.53,2.95,14.21,7.98v-7.18h4.89Zm-4.89,18.75c0-9.01-6.72-14.68-13.83-14.68-7.49,0-13.6,6.22-13.6,14.44s6.11,14.67,13.6,14.67,13.83-5.82,13.83-14.43Z" style="fill:#52c3ff;"/><path d="M573.91,177.15v21.69h-4.89v-21.46c0-7.18-4.35-11.56-10.08-11.56s-11.76,3.35-11.92,12.36v20.66h-4.89v-37.25h4.89v6.7c2.14-5.34,7.94-7.5,12.37-7.5,8.63,.01,14.52,6.07,14.52,16.36Z" style="fill:#52c3ff;"/><path d="M598.42,180.18c0-11.8,8.71-19.38,18.87-19.38,5.12,0,9.62,1.99,12.83,5.11l-3.05,3.51c-2.44-2.31-5.81-3.75-9.62-3.75-7.79,0-14.13,5.74-14.13,14.52s6.34,14.52,14.13,14.52c3.82,0,7.18-1.36,9.62-3.67l3.05,3.43c-3.21,3.19-7.71,5.1-12.83,5.1-10.16-.01-18.87-7.59-18.87-19.39Z" style="fill:#52c3ff;"/><path d="M686.56,182.33h-30.71c.84,7.98,6.19,12.44,13.37,12.44,4.89,0,9.24-2.31,11.61-6.38l4.2,1.91c-3.13,5.98-9.24,9.33-15.96,9.33-10.08,0-18.18-7.74-18.18-19.54s8.1-19.3,18.18-19.3,17.57,7.5,17.57,19.3c0,.73,0,1.52-.08,2.24Zm-4.73-4.38c-.69-7.74-5.81-12.28-12.76-12.28s-12.22,4.31-13.14,12.28h25.9Z" style="fill:#52c3ff;"/></g></g></g></svg>
