<svg width="53" height="53" viewBox="0 0 53 53" fill="none" xmlns="http://www.w3.org/2000/svg">
<path opacity="0.18" d="M26.3314 52.586C40.7825 52.586 52.4975 40.8142 52.4975 26.293C52.4975 11.7718 40.7825 0 26.3314 0C11.8802 0 0.165222 11.7718 0.165222 26.293C0.165222 40.8142 11.8802 52.586 26.3314 52.586Z" fill="#52C3FF"/>
<path d="M38.0347 14.0557C34.8947 11.2762 30.8577 9.74152 26.6711 9.74152C25.2079 9.74152 23.7554 9.92396 22.3457 10.2888C21.8971 10.4069 21.4592 10.5464 20.9786 10.7074C19.4727 11.2332 18.0523 11.9845 16.7386 12.9181C16.3969 13.165 16.0658 13.4118 15.7454 13.6801C11.7617 16.9748 9.4762 21.8363 9.4762 27.009C9.4762 33.3516 12.9259 39.1789 18.4795 42.2053C18.7465 42.3556 19.0455 42.5058 19.3873 42.6668C21.6728 43.74 24.1186 44.2873 26.6604 44.2873C28.3479 44.2873 30.014 44.0405 31.616 43.5575C31.648 43.5575 31.68 43.5683 31.7121 43.5683C31.7762 43.5683 31.8402 43.5683 31.9043 43.5361C32.1606 43.4502 32.4063 43.3751 32.6626 43.2785C35.3967 42.2697 37.8424 40.5634 39.7648 38.3311C39.9678 38.095 40.16 37.8589 40.3415 37.6228C40.4163 37.5262 40.4484 37.4189 40.4697 37.3116C42.6912 34.3174 43.866 30.7652 43.866 27.0198C43.866 22.5017 42.1358 18.2304 39.0065 14.9894C38.6968 14.6674 38.3764 14.3562 38.0453 14.0664L38.0347 14.0557ZM26.6711 11.0293C30.5159 11.0293 34.2326 12.4245 37.1269 14.9679C36.8919 14.9787 36.6676 14.9679 36.4861 14.9143C36.0802 14.8069 35.6851 14.6889 35.2472 14.5494C33.4743 14.0021 31.8082 13.4977 29.8431 14.1201C29.3625 14.2704 28.9353 14.4635 28.5294 14.646H28.4974C28.0168 14.8821 27.5789 15.0752 27.1303 15.1611C26.9808 15.1933 26.8313 15.204 26.6818 15.204C26.1691 15.204 25.6351 15.0001 25.0477 14.5923C24.439 14.163 24.0545 13.5406 23.6486 12.8752C23.3496 12.3815 23.0506 11.9093 22.6661 11.523C23.969 11.1903 25.304 11.0186 26.6604 11.0186L26.6711 11.0293ZM19.1951 41.1214C19.1951 41.1214 19.131 41.0892 19.1096 41.0677C13.9725 38.2667 10.7792 32.8794 10.7792 27.009C10.7792 22.2226 12.8938 17.726 16.5784 14.6782C16.8134 14.485 17.059 14.2918 17.3154 14.0986C18.2552 14.1308 18.5436 14.1738 18.7785 15.5689C18.8319 15.8909 18.7999 16.2343 18.7785 16.5992C18.7358 17.0821 18.6931 17.5865 18.864 18.0909C19.0028 18.488 19.2591 18.767 19.5155 19.0353C19.8465 19.3894 20.0494 19.6255 20.0708 19.969C20.1562 21.246 18.7785 21.5895 16.9629 21.9114C16.8027 21.9436 16.6425 21.9651 16.4823 21.9973C16.0124 22.0831 15.5745 22.1797 15.2221 22.33C14.3143 22.7056 13.7696 23.21 13.556 23.8968C13.1929 25.0773 13.9939 26.3651 14.7308 27.2237C15.8095 28.5008 16.4182 30.5184 16.1406 31.9028C16.0765 32.2462 15.9483 32.6003 15.8308 32.9437C15.457 34.0384 15.0298 35.2726 16.3435 36.3779C16.792 36.7536 17.2086 36.9682 17.5717 37.1614C17.7853 37.2687 17.9775 37.376 18.1484 37.494C18.5329 37.7516 18.8213 38.095 19.0135 38.7819C19.2271 39.576 19.2912 40.338 19.2164 41.0999L19.1951 41.1214ZM38.793 37.4833C37.0201 39.5546 34.7452 41.1321 32.2247 42.0658C32.1393 42.098 32.0645 42.1302 31.9791 42.1517C30.7082 40.3487 28.5294 38.1916 26.1264 37.5155C25.0904 37.2258 24.8128 36.8609 24.3001 36.2062C24.1506 36.0131 23.969 35.7877 23.7554 35.5301C23.0719 34.7574 22.3563 34.4355 21.5233 34.0599C21.3311 33.974 21.1388 33.8882 20.9359 33.7916C19.6223 33.1691 19.0776 32.0745 19.3552 30.6364C19.7824 28.4256 21.9291 27.653 23.7768 27.653C23.8836 27.653 24.0011 27.653 24.1079 27.653C24.5992 27.6744 25.037 27.7603 25.4429 27.8247C26.575 28.0286 27.5575 28.2003 28.8391 27.0198C29.7363 26.1827 29.8965 25.2919 30.0353 24.4227C30.1207 23.9183 30.2062 23.4353 30.4198 22.9202C30.5907 22.5017 30.9538 21.9329 31.3276 21.6539C31.6587 21.4178 31.8936 21.45 32.182 21.4929C32.417 21.5251 32.6733 21.568 32.9616 21.4607C33.5063 21.246 33.816 20.8275 34.1151 20.4197C34.5103 19.8831 34.8947 19.3787 35.8346 19.3358C36.9773 19.2821 39.1347 19.9475 39.7755 21.0958C40.0532 21.5895 39.9998 22.0939 39.626 22.6412C39.3483 23.0597 39.0172 23.3495 38.6968 23.6392C38.1201 24.1651 37.522 24.7017 37.3511 25.8607C37.1803 27.0305 37.6288 27.492 38.056 27.9534C38.323 28.2325 38.5687 28.5008 38.7395 28.9622C38.9852 29.6169 38.7502 30.3145 38.5046 31.0549C38.2696 31.7418 38.0347 32.4501 38.1628 33.1798C38.1949 33.373 38.2162 33.6199 38.2483 33.8667C38.291 34.3282 38.7502 35.9165 39.1133 37.054C39.0065 37.1828 38.8997 37.3116 38.7823 37.4511L38.793 37.4833ZM40.0318 35.6804C39.7435 34.7252 39.5512 33.9525 39.5405 33.7701C39.5192 33.5018 39.4871 33.2228 39.4444 32.9652C39.3697 32.5574 39.5512 32.0423 39.7328 31.4842C40.0319 30.6042 40.3629 29.6169 39.9571 28.5222C39.6901 27.8139 39.3056 27.4061 38.9959 27.0842C38.6328 26.7086 38.5473 26.612 38.6328 26.0754C38.7396 25.3778 39.0279 25.1095 39.5619 24.6266C39.6367 24.5622 39.7114 24.4871 39.7862 24.4227C39.893 24.3261 39.9998 24.2188 40.1173 24.1007C40.2134 24.0041 40.3095 23.8968 40.4056 23.7788C40.5017 23.6607 40.5979 23.5319 40.694 23.4031C41.5698 22.1153 41.2066 21.0314 40.9076 20.4948C40.6085 19.9582 40.1386 19.5182 39.5726 19.1641C38.3657 18.3699 36.7531 17.9836 35.7064 18.0372C34.1578 18.1123 33.4743 19.0246 33.015 19.6363C32.7801 19.9475 32.6306 20.1407 32.449 20.2265C32.4063 20.2265 32.3315 20.2158 32.2888 20.2051C31.9257 20.1514 31.2421 20.0441 30.4839 20.6021C29.8644 21.0529 29.3945 21.8256 29.1489 22.4051C28.8712 23.0597 28.7751 23.6607 28.6789 24.1973C28.5401 24.9915 28.4547 25.5173 27.8779 26.0539C27.0663 26.8051 26.6284 26.73 25.5817 26.5368C25.1545 26.4617 24.6632 26.3651 24.0865 26.3437C21.6621 26.2256 18.6183 27.2022 18.0096 30.3574C17.6678 32.1496 18.2872 33.6521 19.7077 34.5857C19.9106 34.7252 20.1349 34.854 20.3699 34.9721C20.5835 35.0687 20.7864 35.1652 20.9786 35.2511C21.4165 35.4443 21.7903 35.616 22.1214 35.8306C22.3243 35.9701 22.5165 36.1418 22.6981 36.3457C22.901 36.5711 23.0612 36.775 23.2001 36.9682C23.5525 37.4297 23.8836 37.8482 24.439 38.1916C24.77 38.417 25.1866 38.6102 25.7633 38.7711C26.3827 38.9428 27.0022 39.2541 27.6003 39.6404C28.743 40.4024 29.7897 41.4541 30.5907 42.5058C29.3091 42.8385 27.9954 42.9995 26.6604 42.9995C24.4817 42.9995 22.3777 42.5702 20.3912 41.7117C20.4126 41.5721 20.4339 41.4434 20.4446 41.3039V41.2824C20.466 41.1429 20.4767 41.0034 20.4767 40.8638C20.4767 40.8102 20.4767 40.7673 20.4767 40.7243C20.4767 40.6277 20.4767 40.5312 20.4767 40.4346C20.4767 40.3809 20.4767 40.3273 20.4767 40.2629C20.4767 40.1663 20.4767 40.0804 20.466 39.9838C20.466 39.9302 20.466 39.8658 20.4553 39.8121C20.4553 39.7155 20.4339 39.6297 20.4233 39.5331C20.4233 39.4794 20.4126 39.415 20.4019 39.3614C20.3912 39.2648 20.3699 39.1575 20.3485 39.0609C20.3485 39.0072 20.3271 38.9643 20.3165 38.9107C20.2844 38.7604 20.2524 38.6102 20.2097 38.4599C19.7825 36.9038 18.9067 36.4423 18.127 36.0345C17.7853 35.8521 17.4649 35.6911 17.1338 35.4013C16.5571 34.9184 16.5998 34.5643 17.0163 33.373C17.1445 32.9867 17.2833 32.6003 17.3688 32.1711C17.7212 30.3788 17.027 28.0071 15.6813 26.4081C14.9551 25.5495 14.6133 24.7554 14.7628 24.2832C14.7735 24.251 14.7842 24.208 14.8055 24.1758C14.8589 24.0793 14.9444 23.9827 15.0512 23.8861C15.1687 23.7895 15.3182 23.6929 15.4997 23.6071C15.5531 23.5749 15.6172 23.5534 15.6813 23.5212C16.0231 23.3817 16.5998 23.2744 17.1658 23.1778C18.7785 22.888 21.4913 22.4051 21.3311 19.8831C21.2777 19.046 20.7864 18.5202 20.4233 18.1445C20.2524 17.9621 20.1029 17.8119 20.0601 17.6831C19.9747 17.4255 20.0067 17.0928 20.0388 16.7065C20.0708 16.3094 20.1135 15.8479 20.0388 15.3543C20.0174 15.204 19.9854 15.0752 19.964 14.9465C19.964 14.9035 19.9427 14.8713 19.932 14.8284C19.9106 14.7426 19.8893 14.6567 19.8679 14.5816C19.8572 14.5386 19.8465 14.4957 19.8252 14.4528C19.8038 14.3777 19.7718 14.3133 19.7504 14.2489C19.7397 14.2167 19.7184 14.1738 19.7077 14.1416C19.6757 14.0772 19.6436 14.0128 19.6116 13.9484C19.6009 13.9269 19.5902 13.8947 19.5689 13.8733C19.5261 13.7874 19.4727 13.7123 19.4193 13.6479C19.4193 13.6372 19.398 13.6264 19.398 13.6157C19.3553 13.562 19.3019 13.5084 19.2591 13.4547C19.2378 13.4333 19.2164 13.4118 19.1951 13.4011C19.1523 13.3689 19.1096 13.3259 19.0669 13.2938C19.0455 13.2723 19.0135 13.2616 18.9921 13.2401C18.9494 13.2079 18.9067 13.1864 18.8533 13.1542C18.8426 13.1542 18.8212 13.1328 18.8106 13.122C19.5475 12.7035 20.3165 12.3386 21.1068 12.0381C21.1388 12.0489 21.1709 12.0596 21.2029 12.0703C21.7903 12.2742 22.1427 12.843 22.5913 13.562C23.0292 14.2596 23.5205 15.0645 24.3428 15.644C25.1438 16.2128 25.9235 16.4918 26.7138 16.4918C27.5896 16.4918 28.3372 16.1592 29.0527 15.8265L28.7857 15.2362L29.0848 15.805C29.4586 15.6333 29.8431 15.4616 30.2489 15.3328C31.8402 14.8284 33.1859 15.2469 34.8947 15.7728C35.3433 15.9123 35.7385 16.0304 36.1763 16.1484C36.2618 16.1699 36.3579 16.1913 36.4433 16.2021C36.4754 16.2021 36.5074 16.2021 36.5394 16.2128C36.6035 16.2128 36.6569 16.2235 36.721 16.2343C36.7531 16.2343 36.7958 16.2343 36.8278 16.2343C36.8812 16.2343 36.9453 16.2343 36.9987 16.2343C37.0414 16.2343 37.0735 16.2343 37.1162 16.2343C37.1696 16.2343 37.2337 16.2343 37.2871 16.2343C37.3298 16.2343 37.3725 16.2343 37.4045 16.2343C37.4579 16.2343 37.5113 16.2343 37.5754 16.2235C37.6181 16.2235 37.6609 16.2235 37.7036 16.2128C37.757 16.2128 37.8211 16.2021 37.8745 16.1914L38.0026 16.1699C38.056 16.1699 38.1201 16.1484 38.1735 16.1377C38.2162 16.1377 38.2589 16.127 38.3017 16.1162H38.3444C41.0998 19.0782 42.6164 22.9309 42.6164 26.9983C42.6164 30.1105 41.7407 33.0833 40.0639 35.6696L40.0318 35.6804Z" fill="#52C3FF" stroke="#52C3FF" stroke-width="0.257775" stroke-miterlimit="10"/>
</svg>
