<svg width="53" height="53" viewBox="0 0 53 53" fill="none" xmlns="http://www.w3.org/2000/svg">
<path opacity="0.18" d="M26.6899 52.8445C41.1411 52.8445 52.8561 41.0727 52.8561 26.5515C52.8561 12.0303 41.1411 0.258484 26.6899 0.258484C12.2388 0.258484 0.523804 12.0303 0.523804 26.5515C0.523804 41.0727 12.2388 52.8445 26.6899 52.8445Z" fill="#52C3FF"/>
<path d="M19.3634 28.4188C14.0234 28.4188 9.66592 24.051 9.66592 18.6743C9.66592 13.2977 14.0127 8.92981 19.3634 8.92981C24.7141 8.92981 29.0609 13.2977 29.0609 18.6743C29.0609 24.051 24.7141 28.4188 19.3634 28.4188ZM19.3634 10.0567C14.6321 10.0567 10.7873 13.9201 10.7873 18.6743C10.7873 23.4285 14.6321 27.292 19.3634 27.292C24.0947 27.292 27.9395 23.4285 27.9395 18.6743C27.9395 13.9201 24.0947 10.0567 19.3634 10.0567Z" fill="#52C3FF"/>
<path d="M19.4595 24.0832C17.676 24.0832 15.8817 23.0315 15.8817 21.0031C15.8817 20.6919 16.1274 20.4451 16.4371 20.4451C16.7468 20.4451 16.9925 20.6919 16.9925 21.0031C16.9925 22.2802 18.2313 22.9563 19.4489 22.9563C20.079 22.9563 20.6557 22.7846 21.0722 22.4734C21.5101 22.1407 21.7344 21.6792 21.7344 21.089C21.7344 20.1231 20.8266 19.7046 19.3207 19.1143C17.8789 18.5563 16.2555 17.9124 16.2555 16.1738C16.2555 14.2743 17.9003 13.2762 19.5236 13.2762C21.147 13.2762 22.6956 14.2313 22.6956 16.0665C22.6956 16.3777 22.45 16.6245 22.1402 16.6245C21.8305 16.6245 21.5849 16.3777 21.5849 16.0665C21.5849 15.5514 21.382 15.1436 20.9975 14.8431C20.6237 14.564 20.0897 14.4031 19.5343 14.4031C18.4983 14.4031 17.3876 14.9611 17.3876 16.1738C17.3876 17.0753 18.2741 17.4938 19.7479 18.0626C21.2111 18.6421 22.8772 19.286 22.8772 21.089C22.8772 22.0334 22.4927 22.8168 21.7771 23.3641C21.1684 23.8256 20.3567 24.0832 19.4809 24.0832H19.4595Z" fill="#52C3FF"/>
<path d="M19.3634 25.5212C19.0537 25.5212 18.8081 25.2744 18.8081 24.9632V23.6754C18.8081 23.3641 19.0537 23.1173 19.3634 23.1173C19.6731 23.1173 19.9188 23.3641 19.9188 23.6754V24.9632C19.9188 25.2744 19.6731 25.5212 19.3634 25.5212Z" fill="#52C3FF"/>
<path d="M19.3634 14.2957C19.0537 14.2957 18.8081 14.0489 18.8081 13.7377V12.4069C18.8081 12.0957 19.0537 11.8489 19.3634 11.8489C19.6731 11.8489 19.9188 12.0957 19.9188 12.4069V13.7377C19.9188 14.0489 19.6731 14.2957 19.3634 14.2957Z" fill="#52C3FF"/>
<path d="M35.8107 44.9351C30.4707 44.9351 26.1132 40.5673 26.1132 35.1906C26.1132 29.814 30.46 25.4461 35.8107 25.4461C41.1614 25.4461 45.5082 29.814 45.5082 35.1906C45.5082 40.5673 41.1614 44.9351 35.8107 44.9351ZM35.8107 26.573C31.0794 26.573 27.2346 30.4364 27.2346 35.1906C27.2346 39.9448 31.0794 43.8083 35.8107 43.8083C40.542 43.8083 44.3868 39.9448 44.3868 35.1906C44.3868 30.4364 40.542 26.573 35.8107 26.573Z" fill="#52C3FF"/>
<path d="M36.5049 41.2648C35.7893 41.2648 35.0311 41.1253 34.3262 40.7712C33.098 40.1487 31.6241 38.6785 31.6241 35.1262C31.6241 31.574 33.4397 30.2218 34.5291 29.6637C36.0457 28.891 37.904 28.934 39.0468 29.7818C39.2924 29.9642 39.3458 30.3184 39.1642 30.5652C38.9827 30.812 38.6302 30.8657 38.3846 30.6832C37.6904 30.1788 36.3234 30.0071 35.0417 30.6618C34.1873 31.1018 32.7455 32.2608 32.7455 35.1155C32.7455 37.4658 33.4611 39.0648 34.8281 39.7516C36.3127 40.4921 38.0642 39.9877 38.6302 39.5585C38.8759 39.376 39.2283 39.419 39.4099 39.6658C39.5914 39.9126 39.5487 40.2668 39.3031 40.4492C38.7477 40.8678 37.6797 41.2541 36.5049 41.2541V41.2648Z" fill="#52C3FF"/>
<path d="M37.7972 34.2569H30.7377C30.428 34.2569 30.1823 34.0101 30.1823 33.6989C30.1823 33.3877 30.428 33.1408 30.7377 33.1408H37.7972C38.1069 33.1408 38.3526 33.3877 38.3526 33.6989C38.3526 34.0101 38.1069 34.2569 37.7972 34.2569Z" fill="#52C3FF"/>
<path d="M37.7972 37.0258H30.7377C30.428 37.0258 30.1823 36.7789 30.1823 36.4677C30.1823 36.1565 30.428 35.9097 30.7377 35.9097H37.7972C38.1069 35.9097 38.3526 36.1565 38.3526 36.4677C38.3526 36.7789 38.1069 37.0258 37.7972 37.0258Z" fill="#52C3FF"/>
<path d="M26.0064 42.4453C26.0064 42.4453 25.9637 42.4453 25.953 42.4453C18.3702 41.6834 12.3787 35.3409 12.0155 27.7105C12.0049 27.3993 12.2398 27.1417 12.5496 27.1203C12.8486 27.1203 13.1156 27.3457 13.137 27.6569C13.4787 34.7399 19.0323 40.6209 26.0705 41.3292C26.3802 41.3614 26.6045 41.6405 26.5725 41.941C26.5404 42.2307 26.2948 42.4453 26.0171 42.4453H26.0064Z" fill="#52C3FF"/>
<path d="M42.4217 26.5837C42.1226 26.5837 41.877 26.3583 41.8663 26.0578C41.4391 18.9533 36.0029 13.2762 28.9434 12.5572C28.6337 12.525 28.4094 12.2459 28.4415 11.9454C28.4735 11.6342 28.7405 11.4089 29.0502 11.441C36.6651 12.2137 42.5178 18.3309 42.977 25.9934C42.9984 26.3046 42.7634 26.5729 42.4537 26.5837H42.4217Z" fill="#52C3FF"/>
<path d="M31.1542 15.2079C30.994 15.2079 30.8338 15.1328 30.7163 15.004L28.559 12.3533C28.3667 12.1172 28.3988 11.763 28.6337 11.5591L31.2717 9.39128C31.5067 9.1981 31.8591 9.2303 32.062 9.4664C32.2543 9.7025 32.2222 10.0567 31.9873 10.2606L29.7872 12.0742L31.5921 14.2957C31.7843 14.5318 31.7523 14.886 31.5173 15.0899C31.4105 15.1757 31.2931 15.2187 31.1649 15.2187L31.1542 15.2079Z" fill="#52C3FF"/>
<path d="M23.3684 44.6132C23.2082 44.6132 23.048 44.5381 22.9306 44.4093C22.7383 44.1732 22.7704 43.819 23.0053 43.6151L25.2054 41.8014L23.4005 39.5799C23.2082 39.3438 23.2403 38.9897 23.4752 38.7858C23.7102 38.5926 24.0626 38.6248 24.2656 38.8609L26.4229 41.5117C26.6152 41.7478 26.5831 42.1019 26.3482 42.3058L23.7102 44.4737C23.6034 44.5595 23.4859 44.6024 23.3578 44.6024L23.3684 44.6132Z" fill="#52C3FF"/>
</svg>
