<svg width="54" height="53" viewBox="0 0 54 53" fill="none" xmlns="http://www.w3.org/2000/svg">
<path opacity="0.18" d="M27.0684 52.586C41.5196 52.586 53.2346 40.8142 53.2346 26.293C53.2346 11.7718 41.5196 0 27.0684 0C12.6173 0 0.902313 11.7718 0.902313 26.293C0.902313 40.8142 12.6173 52.586 27.0684 52.586Z" fill="#52C3FF"/>
<path d="M27.9336 31.4228H23.6615C23.3411 31.4228 23.0742 31.1545 23.0742 30.8326V22.0325C23.0742 21.7105 23.3411 21.4422 23.6615 21.4422C23.9819 21.4422 24.2489 21.7105 24.2489 22.0325V25.4989H28.1792C29.5783 25.4989 30.9987 26.4325 30.9987 28.5252C30.9987 30.3067 29.8239 31.4228 27.9336 31.4228ZM24.2489 30.2423H27.9336C28.7987 30.2423 29.8239 29.9418 29.8239 28.5252C29.8239 26.8081 28.5637 26.6794 28.1792 26.6794H24.2489V30.2423Z" fill="#52C3FF" stroke="#52C3FF" stroke-width="0.257775" stroke-miterlimit="10"/>
<path d="M27.6452 26.6794C27.3248 26.6794 27.0578 26.4111 27.0578 26.0891C27.0578 25.7672 27.3248 25.4989 27.6452 25.4989C28.0511 25.4989 28.6064 25.4237 28.9482 25.0803C29.1832 24.8442 29.3006 24.5008 29.3006 24.0608C29.3006 23.3954 29.087 22.6227 27.4423 22.6227C26.385 22.6227 23.6722 22.6227 23.6722 22.6227V21.4422C23.6722 21.4422 26.385 21.4422 27.4423 21.4422C30.0696 21.4422 30.4647 23.0842 30.4647 24.0608C30.4647 24.812 30.2298 25.4559 29.7705 25.9067C29.2686 26.4111 28.5317 26.6794 27.6345 26.6794H27.6452Z" fill="#52C3FF" stroke="#52C3FF" stroke-width="0.257775" stroke-miterlimit="10"/>
<path d="M26.5558 33.3438C26.2354 33.3438 25.9684 33.0755 25.9684 32.7536V31.0472C25.9684 30.7253 26.2354 30.457 26.5558 30.457C26.8762 30.457 27.1433 30.7253 27.1433 31.0472V32.7536C27.1433 33.0755 26.8762 33.3438 26.5558 33.3438Z" fill="#52C3FF" stroke="#52C3FF" stroke-width="0.257775" stroke-miterlimit="10"/>
<path d="M26.5558 22.6227C26.2354 22.6227 25.9684 22.3544 25.9684 22.0325V20.1007C25.9684 19.7788 26.2354 19.5105 26.5558 19.5105C26.8762 19.5105 27.1433 19.7788 27.1433 20.1007V22.0325C27.1433 22.3544 26.8762 22.6227 26.5558 22.6227Z" fill="#52C3FF" stroke="#52C3FF" stroke-width="0.257775" stroke-miterlimit="10"/>
<path d="M26.7481 38.3878C20.1905 38.3878 14.8505 33.0219 14.8505 26.4325C14.8505 19.8432 20.1905 14.4773 26.7481 14.4773C33.3056 14.4773 38.6456 19.8432 38.6456 26.4325C38.6456 33.0219 33.3056 38.3878 26.7481 38.3878ZM26.7481 15.6578C20.8313 15.6578 16.0253 20.4871 16.0253 26.4325C16.0253 32.378 20.8313 37.2073 26.7481 37.2073C32.6648 37.2073 37.4708 32.378 37.4708 26.4325C37.4708 20.4871 32.6648 15.6578 26.7481 15.6578Z" fill="#52C3FF" stroke="#52C3FF" stroke-width="0.257775" stroke-miterlimit="10"/>
<path d="M26.7481 42.7342C17.8089 42.7342 10.5251 35.4258 10.5251 26.4325C10.5251 19.3817 15 13.168 21.6537 10.9572C21.9634 10.8499 22.2945 11.0216 22.3906 11.3328C22.4974 11.6441 22.3265 11.9767 22.0168 12.0733C15.8437 14.1231 11.6999 19.8968 11.6999 26.4325C11.6999 34.7712 18.4497 41.5537 26.7481 41.5537C27.0685 41.5537 27.3355 41.822 27.3355 42.1439C27.3355 42.4659 27.0685 42.7342 26.7481 42.7342Z" fill="#52C3FF" stroke="#52C3FF" stroke-width="0.257775" stroke-miterlimit="10"/>
<path d="M31.6822 41.94C31.4366 41.94 31.2123 41.779 31.1269 41.5322C31.0201 41.221 31.1909 40.8883 31.5007 40.7917C37.6631 38.7312 41.7963 32.9682 41.7963 26.4432C41.7963 18.1046 35.0465 11.3221 26.7481 11.3221C26.4277 11.3221 26.1606 11.0538 26.1606 10.7318C26.1606 10.4099 26.4277 10.1416 26.7481 10.1416C35.6873 10.1416 42.9711 17.45 42.9711 26.4432C42.9711 33.4833 38.5068 39.6971 31.8745 41.9186C31.8104 41.94 31.7463 41.9508 31.6929 41.9508L31.6822 41.94Z" fill="#52C3FF" stroke="#52C3FF" stroke-width="0.257775" stroke-miterlimit="10"/>
<path d="M29.2686 13.8441C29.119 13.8441 28.9695 13.7904 28.8521 13.6724L26.3315 11.1397C26.1073 10.9143 26.1073 10.5387 26.3315 10.3026L28.8521 7.76986C29.0763 7.54449 29.4501 7.54449 29.6851 7.76986C29.9094 7.99523 29.9094 8.37084 29.6851 8.60694L27.5811 10.7211L29.6851 12.8353C29.9094 13.0607 29.9094 13.4363 29.6851 13.6724C29.5676 13.7904 29.4181 13.8441 29.2686 13.8441Z" fill="#52C3FF" stroke="#52C3FF" stroke-width="0.257775" stroke-miterlimit="10"/>
<path d="M24.2276 45.2669C24.078 45.2669 23.9285 45.2132 23.8111 45.0952C23.5868 44.8698 23.5868 44.4942 23.8111 44.2581L25.915 42.1439L23.8111 40.0298C23.5868 39.8044 23.5868 39.4288 23.8111 39.1927C24.0353 38.9673 24.4091 38.9673 24.6441 39.1927L27.1646 41.7254C27.3889 41.9508 27.3889 42.3264 27.1646 42.5625L24.6441 45.0952C24.5266 45.2132 24.3771 45.2669 24.2276 45.2669Z" fill="#52C3FF" stroke="#52C3FF" stroke-width="0.257775" stroke-miterlimit="10"/>
</svg>
