<svg width="53" height="53" viewBox="0 0 53 53" fill="none" xmlns="http://www.w3.org/2000/svg">
<path opacity="0.18" d="M26.6308 52.586C41.082 52.586 52.7969 40.8142 52.7969 26.293C52.7969 11.7718 41.082 0 26.6308 0C12.1796 0 0.464661 11.7718 0.464661 26.293C0.464661 40.8142 12.1796 52.586 26.6308 52.586Z" fill="#52C3FF"/>
<path d="M40.5255 42.4015C40.2799 42.4015 40.0556 42.219 40.0129 41.9615C39.1158 36.4882 37.6526 28.053 37.3322 27.2696L37.236 27.0228C36.8302 26.0247 36.4457 25.0803 35.6554 24.7476C34.6194 24.3183 30.8387 23.0413 30.8066 23.0305C30.5289 22.9339 30.3901 22.6442 30.4755 22.3651C30.5717 22.0969 30.86 21.9466 31.1377 22.0325C31.2979 22.0861 34.9826 23.331 36.0506 23.7818C37.236 24.2754 37.7487 25.5203 38.1973 26.6257L38.2933 26.8618C38.7739 28.0208 40.8138 40.3839 41.0381 41.7898C41.0808 42.0795 40.8886 42.3478 40.611 42.3908C40.5789 42.3908 40.5575 42.3908 40.5255 42.3908V42.4015Z" fill="#52C3FF" stroke="#52C3FF" stroke-width="0.257775" stroke-miterlimit="10"/>
<path d="M33.0389 42.9381C32.9641 42.9381 32.8787 42.9166 32.8039 42.8844C32.7505 42.863 31.5757 42.2512 30.6999 41.1029C29.8562 39.9868 29.5251 38.86 29.2902 37.5078C29.194 36.939 29.2154 36.2736 29.2475 35.6297C29.2795 34.8141 29.3222 33.9555 29.0872 33.4619C28.895 33.0648 28.1047 31.616 27.1969 29.9311C26.7697 29.1477 26.3211 28.3213 25.8939 27.5272C24.623 25.1769 23.9822 23.932 23.8113 23.5135C23.4054 22.5261 23.5764 21.8071 23.79 21.3778C24.057 20.852 24.5375 20.4334 25.1997 20.1544C25.9366 19.8432 27.0687 19.811 28.2862 21.3456C28.9057 22.1291 34.5661 29.2872 34.5661 29.2872L33.7544 29.9418C33.7544 29.9418 28.0833 22.773 27.4745 22.0003C26.8231 21.1739 26.193 20.8734 25.5949 21.1203C25.2959 21.2383 24.9114 21.4637 24.7191 21.85C24.5483 22.1934 24.5696 22.612 24.7725 23.1164C24.9754 23.6208 26.0327 25.5954 26.8124 27.0335C27.2396 27.8277 27.6882 28.654 28.1047 29.4374C29.0232 31.1223 29.8135 32.5819 30.0164 33.0111C30.3688 33.7409 30.3261 34.7282 30.2834 35.6726C30.2514 36.2843 30.23 36.8639 30.3048 37.3146C30.5184 38.5488 30.7961 39.5039 31.5223 40.459C32.2486 41.4142 33.2525 41.94 33.2632 41.9508C33.5195 42.0795 33.6263 42.4015 33.4874 42.6591C33.3913 42.8415 33.2097 42.9488 33.0282 42.9488L33.0389 42.9381Z" fill="#52C3FF" stroke="#52C3FF" stroke-width="0.257775" stroke-miterlimit="10"/>
<path d="M29.5144 35.0931H29.4716C29.3114 35.0824 26.8551 34.5673 26.3958 33.7087C26.2997 33.5263 26.0968 33.2472 25.8938 32.9468C25.5094 32.3994 25.0822 31.7662 24.8579 31.2404C24.7511 30.9721 24.8792 30.6716 25.1355 30.5535C25.4025 30.4462 25.7016 30.575 25.8191 30.8326C25.99 31.2511 26.4065 31.8521 26.7482 32.335C26.9832 32.6677 27.1861 32.9682 27.3143 33.1936C27.5386 33.4833 29.1513 33.9877 29.5571 34.0307C29.8455 34.0629 30.0591 34.3097 30.027 34.5995C30.0057 34.8678 29.7814 35.0824 29.5144 35.0824V35.0931Z" fill="#52C3FF" stroke="#52C3FF" stroke-width="0.257775" stroke-miterlimit="10"/>
<path d="M28.5745 37.5507C27.923 37.5507 27.1861 37.5078 26.8123 37.3575C26.0006 37.0141 23.7471 34.256 23.416 33.7624C22.882 32.9682 22.9995 31.9809 23.7044 31.3048C24.4413 30.6072 25.3277 30.7038 25.7443 30.8755C26.0113 30.9828 26.1394 31.2941 26.0219 31.5623C25.9151 31.8306 25.6054 31.9594 25.3384 31.8414C25.2957 31.8199 24.8258 31.6589 24.4093 32.056C24.0675 32.378 24.0141 32.7965 24.2598 33.1721C24.687 33.816 26.7269 36.177 27.1968 36.3917C27.5065 36.5205 28.7454 36.5312 29.7066 36.4668C29.9949 36.4453 30.2406 36.6707 30.262 36.9497C30.2833 37.2395 30.059 37.4863 29.7813 37.5078C29.6105 37.5185 29.1192 37.5507 28.5638 37.5507H28.5745Z" fill="#52C3FF" stroke="#52C3FF" stroke-width="0.257775" stroke-miterlimit="10"/>
<path d="M25.0608 31.6053C24.7084 31.6053 24.3559 31.5087 24.0462 31.3262L8.74164 22.1827C7.79111 21.6139 7.48137 20.3798 8.04741 19.4246L13.3554 10.4528C13.9215 9.49767 15.1497 9.18645 16.1002 9.75524L31.4047 18.8988C32.3552 19.4676 32.665 20.7017 32.0989 21.6568L30.4435 24.4471C30.294 24.694 29.9736 24.7798 29.728 24.6296C29.4823 24.4793 29.3968 24.1574 29.5464 23.9105L31.2018 21.1203C31.4688 20.6588 31.3192 20.0685 30.8707 19.7895L15.5662 10.646C15.107 10.3777 14.5196 10.5279 14.2419 10.9787L8.93387 19.9505C8.66687 20.412 8.81639 21.0022 9.26495 21.2812L24.5695 30.4248C24.7938 30.5535 25.0501 30.5965 25.2957 30.5321C25.5414 30.4677 25.755 30.3067 25.8831 30.0921L26.6628 28.7721C26.8123 28.5252 27.1327 28.4394 27.3783 28.5896C27.624 28.7399 27.7094 29.0618 27.5599 29.3086L26.7803 30.6287C26.5026 31.0901 26.0754 31.4121 25.552 31.5516C25.3812 31.5945 25.221 31.616 25.0501 31.616L25.0608 31.6053Z" fill="#52C3FF" stroke="#52C3FF" stroke-width="0.257775" stroke-miterlimit="10"/>
<path d="M15.9828 19.2851C15.8012 19.2851 15.6196 19.2315 15.4488 19.1349L13.537 17.9973C13.302 17.8578 13.1311 17.6217 13.0564 17.3534C12.9923 17.0851 13.0244 16.8061 13.1739 16.5592L14.0283 15.1104C14.1671 14.8743 14.4021 14.7026 14.6691 14.6275C14.9361 14.5631 15.2137 14.5953 15.4594 14.7456L17.3711 15.8831C17.8624 16.1729 18.0226 16.8168 17.7342 17.3212L16.8798 18.77C16.741 19.0061 16.5061 19.1778 16.2391 19.2529C16.1536 19.2744 16.0682 19.2851 15.9828 19.2851ZM15.9828 18.2441L16.8371 16.7953L14.9254 15.6578L14.071 17.1066L15.9828 18.2441Z" fill="#52C3FF" stroke="#52C3FF" stroke-width="0.257775" stroke-miterlimit="10"/>
<path d="M18.0013 24.1574C17.9158 24.1574 17.8197 24.1359 17.7343 24.0823L11.4865 20.3476C11.2408 20.1973 11.1554 19.8754 11.3049 19.6285C11.4545 19.3817 11.7748 19.2959 12.0205 19.4461L18.2683 23.1808C18.5139 23.331 18.5994 23.653 18.4499 23.8998C18.3538 24.0608 18.1828 24.1574 18.0013 24.1574Z" fill="#52C3FF" stroke="#52C3FF" stroke-width="0.257775" stroke-miterlimit="10"/>
<path d="M21.0985 26.014C21.013 26.014 20.9169 25.9925 20.8315 25.9389L19.0158 24.8549C18.7702 24.7047 18.6848 24.3827 18.8343 24.1359C18.9838 23.8891 19.3042 23.8032 19.5498 23.9535L21.3655 25.0374C21.6111 25.1876 21.6965 25.5096 21.547 25.7564C21.4509 25.9174 21.28 26.014 21.0985 26.014Z" fill="#52C3FF" stroke="#52C3FF" stroke-width="0.257775" stroke-miterlimit="10"/>
</svg>
