<svg width="527" height="384" viewBox="0 0 527 384" fill="none" xmlns="http://www.w3.org/2000/svg">
<g clip-path="url(#clip0_5_36)">
<g style="mix-blend-mode:multiply" opacity="0.22">
<path opacity="0.02" d="M319.038 377.639L9.19704 195.864C0.146868 190.554 0.20336 177.437 9.29872 172.206L174.62 76.748C184.461 71.0764 196.584 71.1216 206.38 76.8723L517.735 259.529C526.785 264.839 526.729 277.956 517.633 283.187L353.838 377.775C343.059 383.989 329.783 383.932 319.05 377.639H319.038Z" fill="#0071BC"/>
<path opacity="0.03" d="M318.247 375.967L11.8635 196.225C2.49697 190.723 2.56476 177.166 11.9991 171.765L175.06 77.6293C184.947 71.935 197.126 71.9915 206.967 77.7649L514.99 258.478C524.356 263.98 524.288 277.538 514.854 282.938L353.465 376.125C342.551 382.396 329.105 382.339 318.247 375.967V375.967Z" fill="#0071BC"/>
<path opacity="0.05" d="M317.456 374.295L14.5413 196.576C4.8584 190.893 4.94878 176.872 14.6995 171.313L175.49 78.5105C185.421 72.805 197.646 72.8615 207.532 78.6574L512.244 257.439C521.927 263.122 521.837 277.143 512.086 282.701L353.092 374.487C342.042 380.825 328.439 380.757 317.445 374.306L317.456 374.295Z" fill="#0071BC"/>
<path opacity="0.07" d="M316.665 372.634L17.2077 196.937C7.21978 191.074 7.32147 176.601 17.3885 170.873L175.93 79.3918C185.907 73.6749 198.189 73.7314 208.109 79.55L509.51 256.388C519.498 262.252 519.396 276.724 509.329 282.453L352.742 372.826C341.556 379.232 327.795 379.153 316.665 372.623V372.634Z" fill="#0071BC"/>
<path opacity="0.08" d="M315.875 370.962L19.8742 197.288C9.5699 191.243 9.69419 176.307 20.0889 170.421L176.371 80.273C186.393 74.5336 198.731 74.6014 208.685 80.4538L506.764 255.337C517.069 261.382 516.944 276.318 506.55 282.204L352.369 371.177C341.037 377.639 327.117 377.56 315.863 370.951L315.875 370.962Z" fill="#0071BC"/>
<path opacity="0.1" d="M315.084 369.29L22.5407 197.649C11.9313 191.412 12.0556 176.024 22.7779 169.98L176.812 81.1543C186.879 75.4036 199.262 75.4713 209.272 81.3464L504.03 254.298C514.639 260.534 514.515 275.922 503.793 281.967L352.007 369.538C340.539 376.069 326.461 375.978 315.084 369.29V369.29Z" fill="#0071BC"/>
<path opacity="0.11" d="M314.293 367.618L25.2071 198.011C14.2814 191.593 14.4283 175.753 25.467 169.539L177.252 82.0355C187.364 76.2622 199.804 76.3413 209.849 82.2389L501.284 253.247C512.21 259.664 512.063 275.504 501.025 281.718L351.646 367.889C340.042 374.487 325.795 374.385 314.293 367.618Z" fill="#0071BC"/>
<path opacity="0.13" d="M313.502 365.957L27.8736 198.361C16.6428 191.763 16.801 175.46 28.1674 169.087L177.682 82.9281C187.85 77.1435 200.324 77.2225 210.414 83.1427L498.539 252.208C509.77 258.806 509.611 275.109 498.245 281.481L351.273 366.239C339.534 372.894 325.128 372.792 313.491 365.957H313.502Z" fill="#0071BC"/>
<path opacity="0.15" d="M312.711 364.285L30.5401 198.722C18.9929 191.944 19.1737 175.188 30.8564 168.647L178.122 83.8093C188.336 78.0021 200.866 78.0925 210.99 84.0353L495.805 251.157C507.352 257.936 507.171 274.691 495.488 281.232L350.912 364.59C339.037 371.312 324.473 371.188 312.7 364.285H312.711Z" fill="#0071BC"/>
<path opacity="0.16" d="M311.92 362.613L33.2066 199.073C21.343 192.102 21.5351 174.895 33.5455 168.195L178.563 84.6906C188.822 78.8721 201.397 78.9625 211.577 84.9391L493.07 250.117C504.934 257.088 504.742 274.295 492.731 280.995L350.561 362.952C338.54 369.742 323.818 369.606 311.92 362.624V362.613Z" fill="#0071BC"/>
<path opacity="0.18" d="M311.129 360.952L35.8843 199.434C23.7157 192.282 23.9191 174.612 36.2572 167.754L179.015 85.5718C189.319 79.7307 201.951 79.8324 212.165 85.8317L490.347 249.078C502.516 256.23 502.313 273.9 489.975 280.758L350.211 361.313C338.054 368.16 323.173 368.024 311.141 360.963L311.129 360.952Z" fill="#0071BC"/>
<path opacity="0.2" d="M310.338 359.28L38.5508 199.784C26.0658 192.452 26.2918 174.33 38.9462 167.302L179.444 86.4531C189.794 80.6007 202.482 80.7024 212.73 86.7242L487.591 248.027C500.075 255.36 499.849 273.482 487.195 280.509L349.827 359.653C337.534 366.567 322.496 366.42 310.327 359.28H310.338Z" fill="#0071BC"/>
<path opacity="0.21" d="M309.536 357.608L41.2172 200.146C28.4272 192.621 28.6645 174.047 41.6353 166.862L179.873 87.3343C190.268 81.4593 203.002 81.5723 213.295 87.6168L484.834 246.977C497.624 254.501 497.386 273.075 484.416 280.261L349.454 358.003C337.026 364.974 321.818 364.827 309.536 357.608V357.608Z" fill="#0071BC"/>
<path opacity="0.23" d="M308.745 355.936L43.8837 200.496C30.7773 192.791 31.0259 173.765 44.3357 166.41L180.325 88.2156C190.765 82.3293 203.555 82.4423 213.894 88.5093L482.122 245.926C495.228 253.631 494.98 272.657 481.67 280.012L349.115 356.354C336.551 363.392 321.185 363.234 308.768 355.936H308.745Z" fill="#0071BC"/>
<path opacity="0.25" d="M307.954 354.275L46.5502 200.858C33.1388 192.972 33.3986 173.482 47.0247 165.969L180.755 89.0969C191.24 83.1992 204.075 83.3122 214.458 89.4132L479.365 244.886C492.777 252.773 492.517 272.262 478.891 279.775L348.731 354.715C336.031 361.822 320.507 361.652 307.954 354.275V354.275Z" fill="#0071BC"/>
<path opacity="0.26" d="M307.163 352.603L49.2167 201.219C35.4889 193.152 35.7713 173.2 49.7138 165.529L181.184 89.9894C191.714 84.0692 204.606 84.1935 215.023 90.3171L476.62 243.847C490.347 251.914 490.065 271.866 476.122 279.538L348.369 353.066C335.523 360.229 319.84 360.059 307.163 352.603Z" fill="#0071BC"/>
<path opacity="0.28" d="M306.373 350.93L51.8831 201.569C37.839 193.311 38.144 172.917 52.4142 165.077L181.636 90.8594C192.212 84.9278 205.148 85.0521 215.611 91.1983L473.885 242.796C487.93 251.055 487.624 271.448 473.354 279.289L348.008 351.416C335.026 358.647 319.185 358.466 306.373 350.942V350.93Z" fill="#0071BC"/>
<path opacity="0.3" d="M305.582 349.27L54.5496 201.931C40.2004 193.491 40.5054 172.635 55.1032 164.625L182.065 91.7406C192.697 85.7865 205.679 85.9221 216.187 92.0909L471.14 241.746C485.489 250.185 485.184 271.042 470.586 279.052L347.635 349.778C334.517 357.077 318.518 356.885 305.57 349.281L305.582 349.27Z" fill="#0071BC"/>
<path opacity="0.31" d="M304.791 347.598L57.2273 202.281C42.5618 193.661 42.8894 172.353 57.8036 164.173L182.506 92.6106C193.183 86.6452 206.222 86.7807 216.763 92.9721L468.406 240.684C483.071 249.304 482.743 270.612 467.829 278.792L347.285 348.106C334.031 355.461 317.863 355.269 304.791 347.586V347.598Z" fill="#0071BC"/>
<path opacity="0.33" d="M304 345.925L59.8938 202.643C44.9232 193.842 45.2621 172.07 60.5039 163.732L182.958 93.5031C193.68 87.5151 206.764 87.662 217.351 93.8873L465.671 239.655C480.642 248.457 480.303 270.228 465.061 278.566L346.923 346.479C333.534 353.902 317.208 353.698 304.011 345.937L304 345.925Z" fill="#0071BC"/>
<path opacity="0.34" d="M303.209 344.253L62.5603 202.993C47.2733 194 47.6348 171.776 63.193 163.28L183.387 94.3731C194.155 88.3738 207.295 88.5207 217.916 94.7685L462.926 238.593C478.213 247.587 477.851 269.81 462.293 278.306L346.55 344.818C333.015 352.309 316.541 352.094 303.209 344.253V344.253Z" fill="#0071BC"/>
<path opacity="0.36" d="M302.418 342.592L65.2268 203.355C49.6347 194.181 49.9963 171.505 65.8821 162.84L183.817 95.2656C194.629 89.2437 207.815 89.4019 218.492 95.6723L460.18 237.554C475.772 246.728 475.411 269.403 459.525 278.069L346.189 343.18C332.517 350.727 315.875 350.512 302.418 342.592V342.592Z" fill="#0071BC"/>
<path opacity="0.38" d="M301.627 340.92L67.8932 203.705C51.9848 194.35 52.369 171.211 68.5824 162.388L184.269 96.1356C195.127 90.1024 208.369 90.2606 219.08 96.5536L457.457 236.503C473.366 245.858 472.981 268.997 456.768 277.82L345.838 341.519C332.032 349.134 315.231 348.908 301.638 340.909L301.627 340.92Z" fill="#0071BC"/>
<path opacity="0.39" d="M300.836 339.248L70.5597 204.066C54.3462 194.519 54.7417 170.94 71.2715 161.947L184.698 97.0281C195.601 90.9836 208.888 91.1418 219.645 97.4575L454.7 235.464C470.914 245.011 470.518 268.59 453.989 277.583L345.454 339.881C331.512 347.564 314.553 347.326 300.825 339.248H300.836Z" fill="#0071BC"/>
<path opacity="0.41" d="M300.045 337.587L73.2261 204.428C56.6963 194.7 57.1144 170.658 73.9606 161.506L185.127 97.9094C196.076 91.8423 209.419 92.0118 220.209 98.3613L451.943 234.424C468.473 244.152 468.055 268.194 451.209 277.346L345.081 338.243C331.003 345.982 313.875 345.745 300.023 337.587H300.045Z" fill="#0071BC"/>
<path opacity="0.43" d="M299.254 335.915L75.9039 204.778C59.0577 194.87 59.4871 170.375 76.6722 161.054L185.591 98.7906C196.584 92.7122 209.984 92.8817 220.82 99.2538L449.243 233.374C466.089 243.282 465.66 267.776 448.475 277.097L344.754 336.593C330.54 344.4 313.253 344.14 299.266 335.927L299.254 335.915Z" fill="#0071BC"/>
<path opacity="0.44" d="M298.452 334.243L78.5704 205.14C61.4191 195.05 61.8597 170.093 79.3613 160.614L186.02 99.6719C197.059 93.5709 210.504 93.7517 221.385 100.146L446.486 232.323C463.638 242.412 463.197 267.37 445.695 276.849L344.37 334.932C330.009 342.807 312.575 342.536 298.463 334.243H298.452Z" fill="#0071BC"/>
<path opacity="0.46" d="M297.661 332.571L81.2368 205.49C63.7692 195.209 64.2325 169.799 82.0503 160.162L186.449 100.553C197.533 94.4409 211.035 94.6216 221.949 101.039L443.741 231.272C461.208 241.553 460.745 266.963 442.927 276.6L344.008 333.283C329.512 341.214 311.909 340.943 297.673 332.571H297.661Z" fill="#0071BC"/>
<path opacity="0.48" d="M296.87 330.91L83.9033 205.851C66.1306 195.389 66.6052 169.528 84.7394 159.721L186.89 101.434C198.03 95.2995 211.566 95.4916 222.526 101.943L440.995 230.244C458.768 240.706 458.293 266.567 440.148 276.374L343.635 331.656C329.004 339.655 311.242 339.372 296.87 330.921V330.91Z" fill="#0071BC"/>
<path opacity="0.49" d="M296.079 329.238L86.5698 206.202C68.4807 195.559 68.9666 169.234 87.4398 159.269L187.331 102.316C198.516 96.1695 212.108 96.3615 223.113 102.835L438.261 229.193C456.35 239.836 455.864 266.161 437.391 276.126L343.274 330.006C328.506 338.073 310.587 337.779 296.079 329.249V329.238Z" fill="#0071BC"/>
<path opacity="0.51" d="M295.289 327.566L89.2362 206.563C70.8421 195.74 71.3393 168.963 90.1288 158.829L187.76 103.197C198.991 97.0281 212.628 97.2315 223.678 103.728L435.515 228.143C453.909 238.966 453.412 265.743 434.623 275.877L342.912 328.346C328.009 336.469 309.92 336.175 295.289 327.566Z" fill="#0071BC"/>
<path opacity="0.52" d="M294.498 325.905L91.9027 206.913C73.1922 195.898 73.712 168.669 92.8179 158.377L188.201 104.078C199.477 97.8981 213.17 98.1014 224.254 104.62L432.77 227.092C451.48 238.108 450.96 265.336 431.855 275.629L342.551 326.696C327.501 334.887 309.265 334.582 294.498 325.894V325.905Z" fill="#0071BC"/>
<path opacity="0.54" d="M293.707 324.233L94.5692 207.275C75.5423 196.079 76.0847 168.387 95.5182 157.936L188.641 104.959C199.962 98.7567 213.713 98.9714 224.831 105.513L430.036 226.041C449.062 237.238 448.52 264.929 429.086 275.38L342.178 325.046C326.992 333.305 308.598 332.989 293.695 324.222L293.707 324.233Z" fill="#0071BC"/>
<path opacity="0.56" d="M292.916 322.561L97.2469 207.637C77.915 196.259 78.4574 168.116 98.2186 157.496L189.082 105.852C200.448 99.638 214.244 99.8526 225.418 106.428L427.301 225.013C446.633 236.39 446.091 264.534 426.33 275.154L341.827 323.42C326.507 331.735 307.943 331.419 292.916 322.572V322.561Z" fill="#0071BC"/>
<path opacity="0.57" d="M292.125 320.889L99.9134 207.987C80.2652 196.418 80.8301 167.822 100.908 157.044L189.523 106.722C200.934 100.497 214.786 100.711 225.994 107.309L424.567 223.962C444.215 235.532 443.65 264.127 423.573 274.905L341.477 321.759C326.021 330.142 307.299 329.814 292.148 320.9L292.125 320.889Z" fill="#0071BC"/>
<path opacity="0.59" d="M291.334 319.228L102.58 208.348C82.6266 196.598 83.2028 167.551 103.608 156.603L189.963 107.614C201.42 101.367 215.317 101.593 226.571 108.213L421.821 222.923C441.775 234.673 441.199 263.72 420.793 274.668L341.093 320.121C325.501 328.56 306.621 328.233 291.334 319.239V319.228Z" fill="#0071BC"/>
<path opacity="0.61" d="M290.543 317.556L105.246 208.699C84.9767 196.768 85.5755 167.257 106.297 156.151L190.392 108.484C201.894 102.225 215.848 102.451 227.135 109.094L419.065 221.861C439.334 233.792 438.735 263.302 418.014 274.408L340.72 318.46C324.993 326.967 305.943 326.628 290.532 317.556H290.543Z" fill="#0071BC"/>
<path opacity="0.62" d="M289.752 315.884L107.913 209.06C87.3381 196.949 87.9369 166.975 108.986 155.71L190.833 109.377C202.38 103.095 216.379 103.332 227.723 109.998L416.342 220.821C436.916 232.933 436.318 262.907 415.268 274.171L340.381 316.81C324.507 325.385 305.31 325.035 289.764 315.884H289.752Z" fill="#0071BC"/>
<path opacity="0.64" d="M288.961 314.223L110.579 209.41C89.6882 197.107 90.3096 166.692 111.687 155.259L191.274 110.247C202.866 103.954 216.922 104.191 228.299 110.891L413.596 219.771C434.487 232.074 433.866 262.489 412.489 273.923L339.997 315.161C323.987 323.792 304.633 323.442 288.95 314.212L288.961 314.223Z" fill="#0071BC"/>
<path opacity="0.66" d="M288.17 312.551L113.246 209.772C92.0383 197.288 92.6823 166.41 114.376 154.818L191.703 111.139C203.352 104.824 217.453 105.072 228.864 111.795L410.851 218.731C432.058 231.216 431.414 262.093 409.721 273.685L339.636 313.522C323.49 322.222 303.966 321.86 288.159 312.551H288.17Z" fill="#0071BC"/>
<path opacity="0.67" d="M287.368 310.879L115.923 210.122C94.411 197.457 95.0663 166.127 117.076 154.366L192.144 112.009C203.838 105.682 217.984 105.931 229.44 112.676L408.105 217.681C429.617 230.346 428.962 261.675 406.952 273.437L339.274 311.873C322.993 320.64 303.311 320.267 287.368 310.879V310.879Z" fill="#0071BC"/>
<path opacity="0.69" d="M286.577 309.207L118.59 210.484C96.7611 197.638 97.4277 165.845 119.776 153.925L192.596 112.902C204.335 106.552 218.537 106.812 230.039 113.58L405.382 216.641C427.211 229.487 426.544 261.28 404.196 273.199L338.912 310.223C322.496 319.047 302.655 318.663 286.589 309.207H286.577Z" fill="#0071BC"/>
<path opacity="0.7" d="M285.786 307.546L121.256 210.845C99.1225 197.807 99.8004 165.562 122.465 153.485L193.025 113.783C204.81 107.422 219.057 107.682 230.604 114.472L402.636 215.59C424.77 228.628 424.093 260.873 401.428 272.951L338.551 308.574C321.998 317.465 301.989 317.07 285.798 307.534L285.786 307.546Z" fill="#0071BC"/>
<path opacity="0.72" d="M284.996 305.874L123.923 211.195C101.473 197.977 102.173 165.28 125.154 153.033L193.454 114.664C205.284 108.292 219.588 108.552 231.169 115.376L399.88 214.551C422.33 227.77 421.629 260.467 398.648 272.714L338.178 306.936C321.479 315.895 301.322 315.488 284.996 305.885V305.874Z" fill="#0071BC"/>
<path opacity="0.74" d="M284.205 304.201L126.589 211.557C103.834 198.157 104.546 164.998 127.855 152.592L193.906 115.546C205.781 109.151 220.13 109.422 231.757 116.269L397.157 213.5C419.912 226.9 419.2 260.06 395.891 272.465L337.816 305.286C320.982 314.302 300.667 313.895 284.205 304.213V304.201Z" fill="#0071BC"/>
<path opacity="0.75" d="M283.414 302.541L129.256 211.907C106.184 198.316 106.907 164.715 130.544 152.14L194.336 116.427C206.256 110.021 220.661 110.292 232.333 117.161L394.411 212.45C417.483 226.041 416.76 259.642 393.123 272.217L337.455 303.625C320.484 312.709 300 312.291 283.414 302.529V302.541Z" fill="#0071BC"/>
<path opacity="0.77" d="M282.623 300.869L131.922 212.269C108.534 198.496 109.28 164.433 133.233 151.7L194.765 117.308C206.73 110.88 221.192 111.162 232.898 118.054L391.666 211.41C415.054 225.183 414.308 259.246 390.355 271.979L337.093 301.987C319.987 311.139 299.345 310.709 282.623 300.869V300.869Z" fill="#0071BC"/>
<path opacity="0.79" d="M281.832 299.196L134.589 212.619C110.896 198.666 111.653 164.15 135.933 151.236L195.217 118.178C207.227 111.738 221.735 112.021 233.485 118.946L388.931 210.359C412.624 224.313 411.867 258.828 387.587 271.742L336.72 300.349C319.479 309.557 298.678 309.127 281.821 299.208L281.832 299.196Z" fill="#0071BC"/>
<path opacity="0.8" d="M281.041 297.524L137.267 212.969C113.257 198.835 114.037 163.856 138.634 150.785L195.658 119.048C207.713 112.586 222.277 112.879 234.062 119.828L386.186 209.297C410.195 223.431 409.416 258.41 384.819 271.482L336.359 298.688C318.97 307.964 298.012 307.523 281.041 297.524V297.524Z" fill="#0071BC"/>
<path opacity="0.82" d="M280.25 295.863L139.933 213.342C115.618 199.016 116.398 163.585 141.323 150.355L196.087 119.952C208.199 113.478 222.797 113.772 234.638 120.743L383.451 208.269C407.766 222.595 406.986 258.026 382.062 271.256L336.009 297.05C318.485 306.393 297.367 305.941 280.261 295.863H280.25Z" fill="#0071BC"/>
<path opacity="0.84" d="M279.459 294.191L142.599 213.692C117.969 199.186 118.771 163.303 144.023 149.903L196.539 120.822C208.696 114.326 223.35 114.631 235.225 121.624L380.717 207.207C405.348 221.714 404.546 257.597 379.294 270.996L335.636 295.389C317.976 304.789 296.701 304.337 279.459 294.18V294.191Z" fill="#0071BC"/>
<path opacity="0.85" d="M278.668 292.519L145.266 214.043C120.33 199.355 121.143 163.009 146.712 149.451L196.968 121.703C209.171 115.195 223.882 115.501 235.79 122.517L377.972 206.157C402.908 220.844 402.094 257.19 376.525 270.748L335.274 293.739C317.479 303.207 296.034 302.744 278.668 292.508V292.519Z" fill="#0071BC"/>
<path opacity="0.87" d="M277.877 290.858L147.932 214.415C122.68 199.547 123.516 162.749 149.401 149.022L197.398 122.596C209.645 116.077 224.401 116.382 236.355 123.432L375.215 205.14C400.467 220.008 399.631 256.806 373.746 270.533L334.901 292.124C316.971 301.659 295.368 301.185 277.866 290.881L277.877 290.858Z" fill="#0071BC"/>
<path opacity="0.89" d="M277.087 289.186L150.61 214.766C125.053 199.705 125.889 162.455 152.113 148.57L197.861 123.477C210.154 116.935 224.966 117.252 236.965 124.324L372.503 204.089C398.061 219.149 397.224 256.399 371 270.285L334.551 290.463C316.485 300.055 294.724 299.581 277.087 289.198V289.186Z" fill="#0071BC"/>
<path opacity="0.9" d="M276.296 287.514L153.277 215.116C127.403 199.875 128.262 162.162 154.802 148.118L198.29 124.347C210.628 117.794 225.486 118.11 237.53 125.206L369.758 203.027C395.631 218.268 394.773 255.981 368.232 270.025L334.19 288.802C315.976 298.462 294.057 297.976 276.296 287.514V287.514Z" fill="#0071BC"/>
<path opacity="0.92" d="M275.493 285.842L155.932 215.466C129.742 200.044 130.623 161.879 157.48 147.666L198.708 125.228C211.091 118.653 226.006 118.98 238.084 126.098L366.989 201.976C393.18 217.398 392.298 255.563 365.441 269.776L333.805 287.153C315.457 296.88 293.379 296.383 275.493 285.842V285.842Z" fill="#0071BC"/>
<path opacity="0.93" d="M274.703 284.181L158.598 215.839C132.103 200.225 132.996 161.608 160.18 147.237L199.16 126.121C211.589 119.534 226.548 119.862 238.671 127.002L364.266 200.937C390.762 216.551 389.869 255.168 362.685 269.539L333.444 285.503C314.959 295.287 292.724 294.79 274.703 284.17V284.181Z" fill="#0071BC"/>
<path opacity="0.95" d="M273.912 282.509L161.265 216.189C134.453 200.394 135.357 161.326 162.869 146.785L199.59 127.002C212.063 120.393 227.079 120.732 239.248 127.906L361.521 199.897C388.332 215.692 387.429 254.761 359.916 269.302L333.082 283.865C314.462 293.717 292.057 293.197 273.912 282.509Z" fill="#0071BC"/>
<path opacity="0.97" d="M273.121 280.837L163.942 216.539C136.826 200.564 137.741 161.032 165.569 146.333L200.03 127.872C212.549 121.251 227.621 121.59 239.824 128.787L358.787 198.847C385.903 214.822 384.988 254.354 357.16 269.053L332.732 282.215C313.976 292.135 291.413 291.604 273.132 280.837H273.121Z" fill="#0071BC"/>
<path opacity="0.98" d="M272.33 279.165L166.609 216.89C139.176 200.733 140.114 160.738 168.27 145.881L200.482 128.753C213.046 122.11 228.164 122.46 240.411 129.68L356.052 197.796C383.485 213.952 382.548 253.948 354.392 268.805L332.359 280.566C313.457 290.542 290.747 290.011 272.33 279.165V279.165Z" fill="#0071BC"/>
<path d="M271.539 277.504L169.275 217.263C141.537 200.914 142.486 160.478 170.959 145.452L200.911 129.646C213.532 122.991 228.695 123.341 240.976 130.583L353.296 196.756C381.034 213.105 380.084 253.541 351.612 268.567L331.986 278.916C312.948 288.96 290.069 288.418 271.528 277.493L271.539 277.504Z" fill="#0071BC"/>
</g>
<path opacity="0.84" d="M323.874 329.656L40.6071 161.789C33.7828 157.744 33.7828 147.858 40.6071 143.814L201.036 48.8756C210.041 43.5429 221.238 43.5542 230.243 48.8756L514.899 217.556C521.724 221.601 521.724 231.487 514.899 235.532L355.86 329.656C345.997 335.486 333.749 335.486 323.885 329.656H323.874Z" fill="#500982"/>
<path opacity="0.84" d="M323.874 329.17L40.6071 161.303C33.7828 157.258 33.7828 147.372 40.6071 143.328L201.036 48.3898C210.041 43.0571 221.238 43.0684 230.243 48.3898L514.899 217.07C521.724 221.115 521.724 231.001 514.899 235.046L355.86 329.17C345.997 335 333.749 335 323.885 329.17H323.874Z" fill="url(#paint0_linear_5_36)"/>
<path opacity="0.85" d="M323.874 328.684L40.6071 160.829C33.7828 156.784 33.7828 146.898 40.6071 142.853L201.036 47.904C210.041 42.5712 221.238 42.5825 230.243 47.904L514.899 216.585C521.724 220.629 521.724 230.515 514.899 234.56L355.86 328.684C345.997 334.514 333.749 334.514 323.885 328.684H323.874Z" fill="url(#paint1_linear_5_36)"/>
<path opacity="0.85" d="M323.874 328.199L40.6071 160.343C33.7828 156.298 33.7828 146.412 40.6071 142.367L201.036 47.4181C210.041 42.0854 221.238 42.0967 230.243 47.4181L514.899 216.099C521.724 220.144 521.724 230.029 514.899 234.074L355.86 328.199C345.997 334.028 333.749 334.028 323.885 328.199H323.874Z" fill="url(#paint2_linear_5_36)"/>
<path opacity="0.85" d="M323.874 327.713L40.6071 159.857C33.7828 155.812 33.7828 145.926 40.6071 141.882L201.036 46.9323C210.041 41.5996 221.238 41.6109 230.243 46.9323L514.899 215.613C521.724 219.658 521.724 229.544 514.899 233.588L355.86 327.713C345.997 333.543 333.749 333.543 323.885 327.713H323.874Z" fill="url(#paint3_linear_5_36)"/>
<path opacity="0.85" d="M323.874 327.227L40.6071 159.371C33.7828 155.326 33.7828 145.44 40.6071 141.396L201.036 46.4465C210.041 41.1138 221.238 41.1251 230.243 46.4465L514.899 215.127C521.724 219.172 521.724 229.058 514.899 233.102L355.86 327.227C345.997 333.057 333.749 333.057 323.885 327.227H323.874Z" fill="url(#paint4_linear_5_36)"/>
<path opacity="0.86" d="M323.874 326.741L40.6071 158.885C33.7828 154.841 33.7828 144.955 40.6071 140.91L201.036 45.9607C210.041 40.628 221.238 40.6393 230.243 45.9607L514.899 214.641C521.724 218.686 521.724 228.572 514.899 232.617L355.86 326.741C345.997 332.571 333.749 332.571 323.885 326.741H323.874Z" fill="url(#paint5_linear_5_36)"/>
<path opacity="0.86" d="M323.874 326.255L40.6071 158.399C33.7828 154.355 33.7828 144.469 40.6071 140.424L201.036 45.4749C210.041 40.1422 221.238 40.1535 230.243 45.4749L514.899 214.156C521.724 218.2 521.724 228.086 514.899 232.131L355.86 326.255C345.997 332.085 333.749 332.085 323.885 326.255H323.874Z" fill="url(#paint6_linear_5_36)"/>
<path opacity="0.86" d="M323.874 325.77L40.6071 157.914C33.7828 153.869 33.7828 143.983 40.6071 139.938L201.036 45.0004C210.041 39.6677 221.238 39.679 230.243 45.0004L514.899 213.681C521.724 217.726 521.724 227.612 514.899 231.656L355.86 325.781C345.997 331.611 333.749 331.611 323.885 325.781L323.874 325.77Z" fill="url(#paint7_linear_5_36)"/>
<path opacity="0.86" d="M323.874 325.295L40.6071 157.428C33.7828 153.383 33.7828 143.497 40.6071 139.452L201.036 44.5145C210.041 39.1818 221.238 39.1931 230.243 44.5145L514.899 213.195C521.724 217.24 521.724 227.126 514.899 231.171L355.86 325.295C345.997 331.125 333.749 331.125 323.885 325.295H323.874Z" fill="url(#paint8_linear_5_36)"/>
<path opacity="0.87" d="M323.874 324.809L40.6071 156.942C33.7828 152.897 33.7828 143.011 40.6071 138.967L201.036 44.0287C210.041 38.696 221.238 38.7073 230.243 44.0287L514.899 212.709C521.724 216.754 521.724 226.64 514.899 230.685L355.86 324.809C345.997 330.639 333.749 330.639 323.885 324.809H323.874Z" fill="url(#paint9_linear_5_36)"/>
<path opacity="0.87" d="M323.874 324.323L40.6071 156.456C33.7828 152.411 33.7828 142.526 40.6071 138.481L201.036 43.5429C210.041 38.2102 221.238 38.2215 230.243 43.5429L514.899 212.224C521.724 216.268 521.724 226.154 514.899 230.199L355.86 324.323C345.997 330.153 333.749 330.153 323.885 324.323H323.874Z" fill="url(#paint10_linear_5_36)"/>
<path opacity="0.87" d="M323.874 323.838L40.6071 155.982C33.7828 151.937 33.7828 142.051 40.6071 138.006L201.036 43.0571C210.041 37.7244 221.238 37.7357 230.243 43.0571L514.899 211.738C521.724 215.782 521.724 225.668 514.899 229.713L355.86 323.838C345.997 329.667 333.749 329.667 323.885 323.838H323.874Z" fill="url(#paint11_linear_5_36)"/>
<path opacity="0.87" d="M323.874 323.352L40.6071 155.496C33.7828 151.451 33.7828 141.565 40.6071 137.521L201.036 42.5713C210.041 37.2385 221.238 37.2498 230.243 42.5713L514.899 211.252C521.724 215.297 521.724 225.183 514.899 229.227L355.86 323.352C345.997 329.182 333.749 329.182 323.885 323.352H323.874Z" fill="url(#paint12_linear_5_36)"/>
<path opacity="0.88" d="M323.874 322.866L40.6071 155.01C33.7828 150.965 33.7828 141.079 40.6071 137.035L201.036 42.0854C210.041 36.7527 221.238 36.764 230.243 42.0854L514.899 210.766C521.724 214.811 521.724 224.697 514.899 228.741L355.86 322.866C345.997 328.696 333.749 328.696 323.885 322.866H323.874Z" fill="url(#paint13_linear_5_36)"/>
<path opacity="0.88" d="M323.874 322.38L40.6071 154.524C33.7828 150.479 33.7828 140.594 40.6071 136.549L201.036 41.5996C210.041 36.2669 221.238 36.2782 230.243 41.5996L514.899 210.28C521.724 214.325 521.724 224.211 514.899 228.256L355.86 322.38C345.997 328.21 333.749 328.21 323.885 322.38H323.874Z" fill="url(#paint14_linear_5_36)"/>
<path opacity="0.88" d="M323.874 321.894L40.6071 154.038C33.7828 149.994 33.7828 140.108 40.6071 136.063L201.036 41.1138C210.041 35.7811 221.238 35.7924 230.243 41.1138L514.899 209.795C521.724 213.839 521.724 223.725 514.899 227.77L355.86 321.894C345.997 327.724 333.749 327.724 323.885 321.894H323.874Z" fill="url(#paint15_linear_5_36)"/>
<path opacity="0.88" d="M323.874 321.409L40.6071 153.553C33.7828 149.508 33.7828 139.622 40.6071 135.577L201.036 40.6393C210.041 35.3066 221.238 35.3179 230.243 40.6393L514.899 209.32C521.724 213.365 521.724 223.251 514.899 227.295L355.86 321.42C345.997 327.25 333.749 327.25 323.885 321.42L323.874 321.409Z" fill="url(#paint16_linear_5_36)"/>
<path opacity="0.89" d="M323.874 320.934L40.6071 153.067C33.7828 149.022 33.7828 139.136 40.6071 135.091L201.036 40.1535C210.041 34.8208 221.238 34.8321 230.243 40.1535L514.899 208.834C521.724 212.879 521.724 222.765 514.899 226.809L355.86 320.934C345.997 326.764 333.749 326.764 323.885 320.934H323.874Z" fill="url(#paint17_linear_5_36)"/>
<path opacity="0.89" d="M323.874 320.448L40.6071 152.581C33.7828 148.536 33.7828 138.65 40.6071 134.606L201.036 39.6676C210.041 34.3349 221.238 34.3462 230.243 39.6676L514.899 208.348C521.724 212.393 521.724 222.279 514.899 226.324L355.86 320.448C345.997 326.278 333.749 326.278 323.885 320.448H323.874Z" fill="url(#paint18_linear_5_36)"/>
<path opacity="0.89" d="M323.874 319.962L40.6071 152.095C33.7828 148.05 33.7828 138.165 40.6071 134.12L201.036 39.1818C210.041 33.8491 221.238 33.8604 230.243 39.1818L514.899 207.863C521.724 211.907 521.724 221.793 514.899 225.838L355.86 319.962C345.997 325.792 333.749 325.792 323.885 319.962H323.874Z" fill="url(#paint19_linear_5_36)"/>
<path opacity="0.9" d="M323.874 319.477L40.6071 151.621C33.7828 147.576 33.7828 137.69 40.6071 133.645L201.036 38.696C210.041 33.3633 221.238 33.3746 230.243 38.696L514.899 207.377C521.724 211.421 521.724 221.307 514.899 225.352L355.86 319.477C345.997 325.306 333.749 325.306 323.885 319.477H323.874Z" fill="url(#paint20_linear_5_36)"/>
<path opacity="0.9" d="M323.874 318.991L40.6071 151.135C33.7828 147.09 33.7828 137.204 40.6071 133.159L201.036 38.2102C210.041 32.8775 221.238 32.8888 230.243 38.2102L514.899 206.891C521.724 210.936 521.724 220.821 514.899 224.866L355.86 318.991C345.997 324.821 333.749 324.821 323.885 318.991H323.874Z" fill="url(#paint21_linear_5_36)"/>
<path opacity="0.9" d="M323.874 318.505L40.6071 150.649C33.7828 146.604 33.7828 136.718 40.6071 132.674L201.036 37.7244C210.041 32.3917 221.238 32.403 230.243 37.7244L514.899 206.405C521.724 210.45 521.724 220.336 514.899 224.38L355.86 318.505C345.997 324.335 333.749 324.335 323.885 318.505H323.874Z" fill="url(#paint22_linear_5_36)"/>
<path opacity="0.9" d="M323.874 318.019L40.6071 150.163C33.7828 146.118 33.7828 136.233 40.6071 132.188L201.036 37.2385C210.041 31.9058 221.238 31.9171 230.243 37.2385L514.899 205.919C521.724 209.964 521.724 219.85 514.899 223.895L355.86 318.019C345.997 323.849 333.749 323.849 323.885 318.019H323.874Z" fill="url(#paint23_linear_5_36)"/>
<path opacity="0.91" d="M323.874 317.533L40.6071 149.677C33.7828 145.633 33.7828 135.747 40.6071 131.702L201.036 36.7527C210.041 31.42 221.238 31.4313 230.243 36.7527L514.899 205.433C521.724 209.478 521.724 219.364 514.899 223.409L355.86 317.533C345.997 323.363 333.749 323.363 323.885 317.533H323.874Z" fill="url(#paint24_linear_5_36)"/>
<path opacity="0.91" d="M323.874 317.047L40.6071 149.191C33.7828 145.147 33.7828 135.261 40.6071 131.216L201.036 36.2669C210.041 30.9342 221.238 30.9455 230.243 36.2669L514.899 204.948C521.724 208.992 521.724 218.878 514.899 222.923L355.86 317.047C345.997 322.877 333.749 322.877 323.885 317.047H323.874Z" fill="url(#paint25_linear_5_36)"/>
<path opacity="0.91" d="M323.874 316.573L40.6071 148.706C33.7828 144.661 33.7828 134.775 40.6071 130.73L201.036 35.7924C210.041 30.4597 221.238 30.471 230.243 35.7924L514.899 204.473C521.724 208.518 521.724 218.404 514.899 222.448L355.86 316.573C345.997 322.403 333.749 322.403 323.885 316.573H323.874Z" fill="url(#paint26_linear_5_36)"/>
<path opacity="0.91" d="M323.874 316.087L40.6071 148.22C33.7828 144.175 33.7828 134.289 40.6071 130.245L201.036 35.3066C210.041 29.9739 221.238 29.9852 230.243 35.3066L514.899 203.987C521.724 208.032 521.724 217.918 514.899 221.963L355.86 316.087C345.997 321.917 333.749 321.917 323.885 316.087H323.874Z" fill="url(#paint27_linear_5_36)"/>
<path opacity="0.92" d="M323.874 315.601L40.6071 147.734C33.7828 143.689 33.7828 133.803 40.6071 129.759L201.036 34.8208C210.041 29.4881 221.238 29.4994 230.243 34.8208L514.899 203.501C521.724 207.546 521.724 217.432 514.899 221.477L355.86 315.601C345.997 321.431 333.749 321.431 323.885 315.601H323.874Z" fill="url(#paint28_linear_5_36)"/>
<path opacity="0.92" d="M323.874 315.115L40.6071 147.248C33.7828 143.203 33.7828 133.318 40.6071 129.273L201.036 34.3349C210.041 29.0022 221.238 29.0135 230.243 34.3349L514.899 203.016C521.724 207.06 521.724 216.946 514.899 220.991L355.86 315.115C345.997 320.945 333.749 320.945 323.885 315.115H323.874Z" fill="url(#paint29_linear_5_36)"/>
<path opacity="0.92" d="M323.874 314.63L40.6071 146.774C33.7828 142.729 33.7828 132.843 40.6071 128.798L201.036 33.8491C210.041 28.5164 221.238 28.5277 230.243 33.8491L514.899 202.53C521.724 206.575 521.724 216.46 514.899 220.505L355.86 314.63C345.997 320.459 333.749 320.459 323.885 314.63H323.874Z" fill="url(#paint30_linear_5_36)"/>
<path opacity="0.92" d="M323.874 314.144L40.6071 146.288C33.7828 142.243 33.7828 132.357 40.6071 128.313L201.036 33.3633C210.041 28.0306 221.238 28.0419 230.243 33.3633L514.899 202.044C521.724 206.089 521.724 215.975 514.899 220.019L355.86 314.144C345.997 319.974 333.749 319.974 323.885 314.144H323.874Z" fill="url(#paint31_linear_5_36)"/>
<path opacity="0.93" d="M323.874 313.658L40.6071 145.802C33.7828 141.757 33.7828 131.871 40.6071 127.827L201.036 32.8775C210.041 27.5448 221.238 27.5561 230.243 32.8775L514.899 201.558C521.724 205.603 521.724 215.489 514.899 219.533L355.86 313.658C345.997 319.488 333.749 319.488 323.885 313.658H323.874Z" fill="url(#paint32_linear_5_36)"/>
<path opacity="0.93" d="M323.874 313.172L40.6071 145.316C33.7828 141.271 33.7828 131.386 40.6071 127.341L201.036 32.3917C210.041 27.059 221.238 27.0702 230.243 32.3917L514.899 201.072C521.724 205.117 521.724 215.003 514.899 219.048L355.86 313.172C345.997 319.002 333.749 319.002 323.885 313.172H323.874Z" fill="url(#paint33_linear_5_36)"/>
<path opacity="0.93" d="M323.874 312.686L40.6071 144.83C33.7828 140.786 33.7828 130.9 40.6071 126.855L201.036 31.9058C210.041 26.5731 221.238 26.5844 230.243 31.9058L514.899 200.587C521.724 204.631 521.724 214.517 514.899 218.562L355.86 312.686C345.997 318.516 333.749 318.516 323.885 312.686H323.874Z" fill="url(#paint34_linear_5_36)"/>
<path opacity="0.93" d="M323.874 312.201L40.6071 144.345C33.7828 140.3 33.7828 130.414 40.6071 126.369L201.036 31.4313C210.041 26.0986 221.238 26.1099 230.243 31.4313L514.899 200.112C521.724 204.157 521.724 214.043 514.899 218.087L355.86 312.212C345.997 318.042 333.749 318.042 323.885 312.212L323.874 312.201Z" fill="url(#paint35_linear_5_36)"/>
<path opacity="0.94" d="M323.874 311.726L40.6071 143.859C33.7828 139.814 33.7828 129.928 40.6071 125.883L201.036 30.9455C210.041 25.6128 221.238 25.6241 230.243 30.9455L514.899 199.626C521.724 203.671 521.724 213.557 514.899 217.601L355.86 311.726C345.997 317.556 333.749 317.556 323.885 311.726H323.874Z" fill="url(#paint36_linear_5_36)"/>
<path opacity="0.94" d="M323.874 311.24L40.6071 143.373C33.7828 139.328 33.7828 129.442 40.6071 125.398L201.036 30.4597C210.041 25.127 221.238 25.1383 230.243 30.4597L514.899 199.14C521.724 203.185 521.724 213.071 514.899 217.116L355.86 311.24C345.997 317.07 333.749 317.07 323.885 311.24H323.874Z" fill="url(#paint37_linear_5_36)"/>
<path opacity="0.94" d="M323.874 310.754L40.6071 142.887C33.7828 138.842 33.7828 128.957 40.6071 124.912L201.036 29.9739C210.041 24.6412 221.238 24.6525 230.243 29.9739L514.899 198.655C521.724 202.699 521.724 212.585 514.899 216.63L355.86 310.754C345.997 316.584 333.749 316.584 323.885 310.754H323.874Z" fill="url(#paint38_linear_5_36)"/>
<path opacity="0.94" d="M323.874 310.269L40.6071 142.413C33.7828 138.368 33.7828 128.482 40.6071 124.437L201.036 29.4881C210.041 24.1554 221.238 24.1667 230.243 29.4881L514.899 198.169C521.724 202.213 521.724 212.099 514.899 216.144L355.86 310.269C345.997 316.098 333.749 316.098 323.885 310.269H323.874Z" fill="url(#paint39_linear_5_36)"/>
<path opacity="0.95" d="M323.874 309.783L40.6071 141.927C33.7828 137.882 33.7828 127.996 40.6071 123.951L201.036 29.0022C210.041 23.6695 221.238 23.6808 230.243 29.0022L514.899 197.683C521.724 201.728 521.724 211.613 514.899 215.658L355.86 309.783C345.997 315.613 333.749 315.613 323.885 309.783H323.874Z" fill="url(#paint40_linear_5_36)"/>
<path opacity="0.95" d="M323.874 309.297L40.6071 141.441C33.7828 137.396 33.7828 127.51 40.6071 123.466L201.036 28.5164C210.041 23.1837 221.238 23.195 230.243 28.5164L514.899 197.197C521.724 201.242 521.724 211.128 514.899 215.172L355.86 309.297C345.997 315.127 333.749 315.127 323.885 309.297H323.874Z" fill="url(#paint41_linear_5_36)"/>
<path opacity="0.95" d="M323.874 308.811L40.6071 140.955C33.7828 136.91 33.7828 127.025 40.6071 122.98L201.036 28.0306C210.041 22.6979 221.238 22.7092 230.243 28.0306L514.899 196.711C521.724 200.756 521.724 210.642 514.899 214.687L355.86 308.811C345.997 314.641 333.749 314.641 323.885 308.811H323.874Z" fill="url(#paint42_linear_5_36)"/>
<path opacity="0.96" d="M323.874 308.325L40.6071 140.469C33.7828 136.425 33.7828 126.539 40.6071 122.494L201.036 27.5448C210.041 22.2121 221.238 22.2234 230.243 27.5448L514.899 196.225C521.724 200.27 521.724 210.156 514.899 214.201L355.86 308.325C345.997 314.155 333.749 314.155 323.885 308.325H323.874Z" fill="url(#paint43_linear_5_36)"/>
<path opacity="0.96" d="M323.874 307.839L40.6071 139.984C33.7828 135.939 33.7828 126.053 40.6071 122.008L201.036 27.0702C210.041 21.7375 221.238 21.7488 230.243 27.0702L514.899 195.751C521.724 199.796 521.724 209.682 514.899 213.726L355.86 307.851C345.997 313.681 333.749 313.681 323.885 307.851L323.874 307.839Z" fill="url(#paint44_linear_5_36)"/>
<path opacity="0.96" d="M323.874 307.365L40.6071 139.498C33.7828 135.453 33.7828 125.567 40.6071 121.522L201.036 26.5844C210.041 21.2517 221.238 21.263 230.243 26.5844L514.899 195.265C521.724 199.31 521.724 209.196 514.899 213.24L355.86 307.365C345.997 313.195 333.749 313.195 323.885 307.365H323.874Z" fill="url(#paint45_linear_5_36)"/>
<path opacity="0.96" d="M323.874 306.879L40.6071 139.012C33.7828 134.967 33.7828 125.081 40.6071 121.037L201.036 26.0986C210.041 20.7659 221.238 20.7772 230.243 26.0986L514.899 194.779C521.724 198.824 521.724 208.71 514.899 212.755L355.86 306.879C345.997 312.709 333.749 312.709 323.885 306.879H323.874Z" fill="url(#paint46_linear_5_36)"/>
<path opacity="0.97" d="M323.874 306.393L40.6071 138.526C33.7828 134.481 33.7828 124.595 40.6071 120.551L201.036 25.6128C210.041 20.2801 221.238 20.2914 230.243 25.6128L514.899 194.293C521.724 198.338 521.724 208.224 514.899 212.269L355.86 306.393C345.997 312.223 333.749 312.223 323.885 306.393H323.874Z" fill="url(#paint47_linear_5_36)"/>
<path opacity="0.97" d="M323.874 305.907L40.6071 138.052C33.7828 134.007 33.7828 124.121 40.6071 120.076L201.036 25.127C210.041 19.7943 221.238 19.8056 230.243 25.127L514.899 193.808C521.724 197.852 521.724 207.738 514.899 211.783L355.86 305.907C345.997 311.737 333.749 311.737 323.885 305.907H323.874Z" fill="url(#paint48_linear_5_36)"/>
<path opacity="0.97" d="M323.874 305.422L40.6071 137.566C33.7828 133.521 33.7828 123.635 40.6071 119.59L201.036 24.6412C210.041 19.3085 221.238 19.3198 230.243 24.6412L514.899 193.322C521.724 197.367 521.724 207.252 514.899 211.297L355.86 305.422C345.997 311.252 333.749 311.252 323.885 305.422H323.874Z" fill="url(#paint49_linear_5_36)"/>
<path opacity="0.97" d="M323.874 304.936L40.6071 137.08C33.7828 133.035 33.7828 123.149 40.6071 119.105L201.036 24.1553C210.041 18.8226 221.238 18.8339 230.243 24.1553L514.899 192.836C521.724 196.881 521.724 206.767 514.899 210.811L355.86 304.936C345.997 310.766 333.749 310.766 323.885 304.936H323.874Z" fill="url(#paint50_linear_5_36)"/>
<path opacity="0.98" d="M323.874 304.45L40.6071 136.594C33.7828 132.549 33.7828 122.664 40.6071 118.619L201.036 23.6695C210.041 18.3368 221.238 18.3481 230.243 23.6695L514.899 192.35C521.724 196.395 521.724 206.281 514.899 210.325L355.86 304.45C345.997 310.28 333.749 310.28 323.885 304.45H323.874Z" fill="url(#paint51_linear_5_36)"/>
<path opacity="0.98" d="M323.874 303.964L40.6071 136.108C33.7828 132.064 33.7828 122.178 40.6071 118.133L201.036 23.1837C210.041 17.851 221.238 17.8623 230.243 23.1837L514.899 191.864C521.724 195.909 521.724 205.795 514.899 209.84L355.86 303.964C345.997 309.794 333.749 309.794 323.885 303.964H323.874Z" fill="url(#paint52_linear_5_36)"/>
<path opacity="0.98" d="M323.874 303.478L40.6071 135.622C33.7828 131.578 33.7828 121.692 40.6071 117.647L201.036 22.6979C210.041 17.3652 221.238 17.3765 230.243 22.6979L514.899 191.379C521.724 195.423 521.724 205.309 514.899 209.354L355.86 303.478C345.997 309.308 333.749 309.308 323.885 303.478H323.874Z" fill="url(#paint53_linear_5_36)"/>
<path opacity="0.98" d="M323.874 302.993L40.6071 135.137C33.7828 131.092 33.7828 121.206 40.6071 117.161L201.036 22.2234C210.041 16.8906 221.238 16.9019 230.243 22.2234L514.899 190.904C521.724 194.949 521.724 204.835 514.899 208.879L355.86 303.004C345.997 308.834 333.749 308.834 323.885 303.004L323.874 302.993Z" fill="url(#paint54_linear_5_36)"/>
<path opacity="0.99" d="M323.874 302.518L40.6071 134.651C33.7828 130.606 33.7828 120.72 40.6071 116.676L201.036 21.7375C210.041 16.4048 221.238 16.4161 230.243 21.7375L514.899 190.418C521.724 194.463 521.724 204.349 514.899 208.394L355.86 302.518C345.997 308.348 333.749 308.348 323.885 302.518H323.874Z" fill="url(#paint55_linear_5_36)"/>
<path opacity="0.99" d="M323.874 302.032L40.6071 134.165C33.7828 130.12 33.7828 120.234 40.6071 116.19L201.036 21.2517C210.041 15.919 221.238 15.9303 230.243 21.2517L514.899 189.932C521.724 193.977 521.724 203.863 514.899 207.908L355.86 302.032C345.997 307.862 333.749 307.862 323.885 302.032H323.874Z" fill="url(#paint56_linear_5_36)"/>
<path opacity="0.99" d="M323.874 301.546L40.6071 133.679C33.7828 129.634 33.7828 119.749 40.6071 115.704L201.036 20.7659C210.041 15.4332 221.238 15.4445 230.243 20.7659L514.899 189.447C521.724 193.491 521.724 203.377 514.899 207.422L355.86 301.546C345.997 307.376 333.749 307.376 323.885 301.546H323.874Z" fill="url(#paint57_linear_5_36)"/>
<path opacity="0.99" d="M323.874 301.061L40.6071 133.205C33.7828 129.16 33.7828 119.274 40.6071 115.229L201.036 20.2801C210.041 14.9474 221.238 14.9587 230.243 20.2801L514.899 188.961C521.724 193.005 521.724 202.891 514.899 206.936L355.86 301.061C345.997 306.89 333.749 306.89 323.885 301.061H323.874Z" fill="url(#paint58_linear_5_36)"/>
<path d="M323.874 300.575L40.6071 132.719C33.7828 128.674 33.7828 118.788 40.6071 114.744L201.036 19.7943C210.041 14.4616 221.238 14.4729 230.243 19.7943L514.899 188.475C521.724 192.52 521.724 202.406 514.899 206.45L355.86 300.575C345.997 306.405 333.749 306.405 323.885 300.575H323.874Z" fill="url(#paint59_linear_5_36)"/>
<path d="M323.874 300.089L40.6071 132.233C33.7828 128.188 33.7828 118.302 40.6071 114.258L201.036 19.3085C210.041 13.9758 221.238 13.9871 230.243 19.3085L514.899 187.989C521.724 192.034 521.724 201.92 514.899 205.964L355.86 300.089C345.997 305.919 333.749 305.919 323.885 300.089H323.874Z" fill="url(#paint60_linear_5_36)"/>
<path d="M339.873 302.529C334.596 302.529 329.41 301.106 324.868 298.417L41.5901 130.561C38.9801 129.013 37.4209 126.279 37.4209 123.24C37.4209 120.201 38.9801 117.466 41.5901 115.919L202.03 20.9806C206.143 18.5402 210.854 17.2522 215.634 17.2522C220.413 17.2522 225.136 18.5402 229.248 20.9806L513.905 189.661C516.515 191.209 518.074 193.943 518.074 196.982C518.074 200.022 516.515 202.756 513.905 204.304L354.866 298.428C350.335 301.117 345.149 302.529 339.873 302.529V302.529Z" fill="url(#paint61_linear_5_36)"/>
<path d="M215.634 19.1955C220.074 19.1955 224.435 20.3931 228.265 22.6527L512.922 191.333C514.933 192.531 516.142 194.644 516.142 196.982C516.142 199.321 514.933 201.434 512.922 202.632L353.883 296.756C349.646 299.264 344.81 300.586 339.884 300.586C334.958 300.586 330.111 299.253 325.874 296.745L42.5844 128.889C40.5732 127.691 39.3643 125.578 39.3643 123.24C39.3643 120.901 40.5732 118.788 42.5844 117.591L203.013 22.6527C206.832 20.3931 211.193 19.1955 215.634 19.1955M215.634 15.3089C210.583 15.3089 205.544 16.6421 201.036 19.3085L40.6071 114.258C33.7715 118.302 33.7715 128.188 40.6071 132.233L323.885 300.089C328.811 303.015 334.348 304.473 339.884 304.473C345.42 304.473 350.934 303.015 355.86 300.1L514.899 205.976C521.735 201.931 521.735 192.045 514.899 188L230.243 19.3198C225.734 16.6534 220.684 15.3202 215.634 15.3202V15.3089Z" fill="#F4F4F4"/>
<g style="mix-blend-mode:multiply" opacity="0.4">
<path d="M192.743 189.017L333.274 109.049L381.791 136.605L241.846 217.161L192.743 189.017Z" fill="#202E99"/>
</g>
<path d="M286.295 16.3032L316.191 0L348.019 18.2464L318.134 34.5496L286.295 16.3032Z" fill="#F4F4F4"/>
<path d="M286.295 134.673V16.3032L318.134 34.5496V152.909L286.295 134.673Z" fill="url(#paint62_linear_5_36)"/>
<path d="M318.134 34.527L348.019 18.2238V136.605L318.134 152.909V34.527Z" fill="url(#paint63_linear_5_36)"/>
<path d="M239.338 84.6793L269.223 68.3761L301.062 86.6226L271.166 102.926L239.338 84.6793Z" fill="#F4F4F4"/>
<path d="M239.338 159.382V84.6793L271.166 102.926V177.618L239.338 159.382Z" fill="url(#paint64_linear_5_36)"/>
<path d="M271.166 102.903L301.062 86.6V161.314L271.166 177.618V102.903Z" fill="url(#paint65_linear_5_36)"/>
<path d="M192.743 146.017L222.639 129.714L254.467 147.96L224.571 164.263L192.743 146.017Z" fill="#F4F4F4"/>
<path d="M192.743 189.029V146.017L224.571 164.263V207.275L192.743 189.029Z" fill="url(#paint66_linear_5_36)"/>
<path d="M224.571 164.241L254.467 147.937V190.972L224.571 207.275V164.241Z" fill="url(#paint67_linear_5_36)"/>
</g>
<defs>
<linearGradient id="paint0_linear_5_36" x1="74.4351" y1="176.092" x2="516.47" y2="204.103" gradientUnits="userSpaceOnUse">
<stop stop-color="#530982"/>
<stop offset="1" stop-color="#500C84"/>
</linearGradient>
<linearGradient id="paint1_linear_5_36" x1="74.4351" y1="175.606" x2="516.47" y2="203.617" gradientUnits="userSpaceOnUse">
<stop stop-color="#560A81"/>
<stop offset="1" stop-color="#500F86"/>
</linearGradient>
<linearGradient id="paint2_linear_5_36" x1="74.4351" y1="175.121" x2="516.47" y2="203.131" gradientUnits="userSpaceOnUse">
<stop stop-color="#590A81"/>
<stop offset="1" stop-color="#501288"/>
</linearGradient>
<linearGradient id="paint3_linear_5_36" x1="74.4351" y1="174.646" x2="516.47" y2="202.645" gradientUnits="userSpaceOnUse">
<stop stop-color="#5B0A81"/>
<stop offset="1" stop-color="#50158A"/>
</linearGradient>
<linearGradient id="paint4_linear_5_36" x1="74.4351" y1="174.16" x2="516.47" y2="202.159" gradientUnits="userSpaceOnUse">
<stop stop-color="#5E0B81"/>
<stop offset="1" stop-color="#50188C"/>
</linearGradient>
<linearGradient id="paint5_linear_5_36" x1="74.4351" y1="173.674" x2="516.47" y2="201.674" gradientUnits="userSpaceOnUse">
<stop stop-color="#610B80"/>
<stop offset="1" stop-color="#501B8E"/>
</linearGradient>
<linearGradient id="paint6_linear_5_36" x1="74.4351" y1="173.189" x2="516.47" y2="201.188" gradientUnits="userSpaceOnUse">
<stop stop-color="#640C80"/>
<stop offset="1" stop-color="#501E90"/>
</linearGradient>
<linearGradient id="paint7_linear_5_36" x1="74.4351" y1="172.703" x2="516.47" y2="200.702" gradientUnits="userSpaceOnUse">
<stop stop-color="#670C80"/>
<stop offset="1" stop-color="#502192"/>
</linearGradient>
<linearGradient id="paint8_linear_5_36" x1="74.4351" y1="172.217" x2="516.47" y2="200.216" gradientUnits="userSpaceOnUse">
<stop stop-color="#6A0C7F"/>
<stop offset="1" stop-color="#502494"/>
</linearGradient>
<linearGradient id="paint9_linear_5_36" x1="74.4351" y1="171.731" x2="516.47" y2="199.742" gradientUnits="userSpaceOnUse">
<stop stop-color="#6D0D7F"/>
<stop offset="1" stop-color="#502796"/>
</linearGradient>
<linearGradient id="paint10_linear_5_36" x1="74.4351" y1="171.245" x2="516.47" y2="199.256" gradientUnits="userSpaceOnUse">
<stop stop-color="#700D7F"/>
<stop offset="1" stop-color="#502B99"/>
</linearGradient>
<linearGradient id="paint11_linear_5_36" x1="74.4351" y1="170.76" x2="516.47" y2="198.77" gradientUnits="userSpaceOnUse">
<stop stop-color="#720D7E"/>
<stop offset="1" stop-color="#502E9B"/>
</linearGradient>
<linearGradient id="paint12_linear_5_36" x1="74.4351" y1="170.285" x2="516.47" y2="198.284" gradientUnits="userSpaceOnUse">
<stop stop-color="#750E7E"/>
<stop offset="1" stop-color="#50319D"/>
</linearGradient>
<linearGradient id="paint13_linear_5_36" x1="74.4351" y1="169.799" x2="516.47" y2="197.798" gradientUnits="userSpaceOnUse">
<stop stop-color="#780E7E"/>
<stop offset="1" stop-color="#50349F"/>
</linearGradient>
<linearGradient id="paint14_linear_5_36" x1="74.4351" y1="169.313" x2="516.47" y2="197.312" gradientUnits="userSpaceOnUse">
<stop stop-color="#7B0E7E"/>
<stop offset="1" stop-color="#5037A1"/>
</linearGradient>
<linearGradient id="paint15_linear_5_36" x1="74.4351" y1="168.828" x2="516.47" y2="196.827" gradientUnits="userSpaceOnUse">
<stop stop-color="#7E0F7D"/>
<stop offset="1" stop-color="#513AA3"/>
</linearGradient>
<linearGradient id="paint16_linear_5_36" x1="74.4351" y1="168.342" x2="516.47" y2="196.341" gradientUnits="userSpaceOnUse">
<stop stop-color="#810F7D"/>
<stop offset="1" stop-color="#513DA5"/>
</linearGradient>
<linearGradient id="paint17_linear_5_36" x1="74.4351" y1="167.856" x2="516.47" y2="195.855" gradientUnits="userSpaceOnUse">
<stop stop-color="#840F7D"/>
<stop offset="1" stop-color="#5140A7"/>
</linearGradient>
<linearGradient id="paint18_linear_5_36" x1="74.4351" y1="167.37" x2="516.47" y2="195.38" gradientUnits="userSpaceOnUse">
<stop stop-color="#87107C"/>
<stop offset="1" stop-color="#5143A9"/>
</linearGradient>
<linearGradient id="paint19_linear_5_36" x1="74.4351" y1="166.884" x2="516.47" y2="194.895" gradientUnits="userSpaceOnUse">
<stop stop-color="#89107C"/>
<stop offset="1" stop-color="#5146AB"/>
</linearGradient>
<linearGradient id="paint20_linear_5_36" x1="74.4351" y1="166.398" x2="516.47" y2="194.409" gradientUnits="userSpaceOnUse">
<stop stop-color="#8C117C"/>
<stop offset="1" stop-color="#5149AD"/>
</linearGradient>
<linearGradient id="paint21_linear_5_36" x1="74.4351" y1="165.924" x2="516.47" y2="193.923" gradientUnits="userSpaceOnUse">
<stop stop-color="#8F117C"/>
<stop offset="1" stop-color="#514CAF"/>
</linearGradient>
<linearGradient id="paint22_linear_5_36" x1="74.4351" y1="165.438" x2="516.47" y2="193.437" gradientUnits="userSpaceOnUse">
<stop stop-color="#92117B"/>
<stop offset="1" stop-color="#514FB1"/>
</linearGradient>
<linearGradient id="paint23_linear_5_36" x1="74.4351" y1="164.952" x2="516.47" y2="192.951" gradientUnits="userSpaceOnUse">
<stop stop-color="#95127B"/>
<stop offset="1" stop-color="#5152B3"/>
</linearGradient>
<linearGradient id="paint24_linear_5_36" x1="74.4351" y1="164.467" x2="516.47" y2="192.466" gradientUnits="userSpaceOnUse">
<stop stop-color="#98127B"/>
<stop offset="1" stop-color="#5155B5"/>
</linearGradient>
<linearGradient id="paint25_linear_5_36" x1="74.4351" y1="163.981" x2="516.47" y2="191.98" gradientUnits="userSpaceOnUse">
<stop stop-color="#9B127A"/>
<stop offset="1" stop-color="#5158B7"/>
</linearGradient>
<linearGradient id="paint26_linear_5_36" x1="74.4351" y1="163.495" x2="516.47" y2="191.494" gradientUnits="userSpaceOnUse">
<stop stop-color="#9D137A"/>
<stop offset="1" stop-color="#515BB9"/>
</linearGradient>
<linearGradient id="paint27_linear_5_36" x1="74.4351" y1="163.009" x2="516.47" y2="191.008" gradientUnits="userSpaceOnUse">
<stop stop-color="#A0137A"/>
<stop offset="1" stop-color="#515EBB"/>
</linearGradient>
<linearGradient id="paint28_linear_5_36" x1="74.4351" y1="162.523" x2="516.47" y2="190.534" gradientUnits="userSpaceOnUse">
<stop stop-color="#A31379"/>
<stop offset="1" stop-color="#5161BD"/>
</linearGradient>
<linearGradient id="paint29_linear_5_36" x1="74.4351" y1="162.037" x2="516.47" y2="190.048" gradientUnits="userSpaceOnUse">
<stop stop-color="#A61479"/>
<stop offset="1" stop-color="#5164BF"/>
</linearGradient>
<linearGradient id="paint30_linear_5_36" x1="74.4351" y1="161.552" x2="516.47" y2="189.562" gradientUnits="userSpaceOnUse">
<stop stop-color="#A91479"/>
<stop offset="1" stop-color="#5168C2"/>
</linearGradient>
<linearGradient id="paint31_linear_5_36" x1="74.4351" y1="161.077" x2="516.47" y2="189.076" gradientUnits="userSpaceOnUse">
<stop stop-color="#AC1579"/>
<stop offset="1" stop-color="#516BC4"/>
</linearGradient>
<linearGradient id="paint32_linear_5_36" x1="74.4351" y1="160.591" x2="516.47" y2="188.59" gradientUnits="userSpaceOnUse">
<stop stop-color="#AF1578"/>
<stop offset="1" stop-color="#516EC6"/>
</linearGradient>
<linearGradient id="paint33_linear_5_36" x1="74.4351" y1="160.105" x2="516.47" y2="188.105" gradientUnits="userSpaceOnUse">
<stop stop-color="#B21578"/>
<stop offset="1" stop-color="#5171C8"/>
</linearGradient>
<linearGradient id="paint34_linear_5_36" x1="74.4351" y1="159.62" x2="516.47" y2="187.619" gradientUnits="userSpaceOnUse">
<stop stop-color="#B41678"/>
<stop offset="1" stop-color="#5174CA"/>
</linearGradient>
<linearGradient id="paint35_linear_5_36" x1="74.4351" y1="159.134" x2="516.47" y2="187.133" gradientUnits="userSpaceOnUse">
<stop stop-color="#B71677"/>
<stop offset="1" stop-color="#5177CC"/>
</linearGradient>
<linearGradient id="paint36_linear_5_36" x1="74.4351" y1="158.648" x2="516.47" y2="186.647" gradientUnits="userSpaceOnUse">
<stop stop-color="#BA1677"/>
<stop offset="1" stop-color="#517ACE"/>
</linearGradient>
<linearGradient id="paint37_linear_5_36" x1="74.4351" y1="158.162" x2="516.47" y2="186.173" gradientUnits="userSpaceOnUse">
<stop stop-color="#BD1777"/>
<stop offset="1" stop-color="#517DD0"/>
</linearGradient>
<linearGradient id="paint38_linear_5_36" x1="74.4351" y1="157.676" x2="516.47" y2="185.687" gradientUnits="userSpaceOnUse">
<stop stop-color="#C01776"/>
<stop offset="1" stop-color="#5180D2"/>
</linearGradient>
<linearGradient id="paint39_linear_5_36" x1="74.4351" y1="157.191" x2="516.47" y2="185.201" gradientUnits="userSpaceOnUse">
<stop stop-color="#C31776"/>
<stop offset="1" stop-color="#5183D4"/>
</linearGradient>
<linearGradient id="paint40_linear_5_36" x1="74.4351" y1="156.716" x2="516.47" y2="184.715" gradientUnits="userSpaceOnUse">
<stop stop-color="#C61876"/>
<stop offset="1" stop-color="#5186D6"/>
</linearGradient>
<linearGradient id="paint41_linear_5_36" x1="74.4351" y1="156.23" x2="516.47" y2="184.229" gradientUnits="userSpaceOnUse">
<stop stop-color="#C81876"/>
<stop offset="1" stop-color="#5189D8"/>
</linearGradient>
<linearGradient id="paint42_linear_5_36" x1="74.4351" y1="155.744" x2="516.47" y2="183.743" gradientUnits="userSpaceOnUse">
<stop stop-color="#CB1975"/>
<stop offset="1" stop-color="#518CDA"/>
</linearGradient>
<linearGradient id="paint43_linear_5_36" x1="74.4351" y1="155.259" x2="516.47" y2="183.258" gradientUnits="userSpaceOnUse">
<stop stop-color="#CE1975"/>
<stop offset="1" stop-color="#518FDC"/>
</linearGradient>
<linearGradient id="paint44_linear_5_36" x1="74.4351" y1="154.773" x2="516.47" y2="182.772" gradientUnits="userSpaceOnUse">
<stop stop-color="#D11975"/>
<stop offset="1" stop-color="#5192DE"/>
</linearGradient>
<linearGradient id="paint45_linear_5_36" x1="74.4351" y1="154.287" x2="516.47" y2="182.286" gradientUnits="userSpaceOnUse">
<stop stop-color="#D41A74"/>
<stop offset="1" stop-color="#5295E0"/>
</linearGradient>
<linearGradient id="paint46_linear_5_36" x1="74.4351" y1="153.801" x2="516.47" y2="181.811" gradientUnits="userSpaceOnUse">
<stop stop-color="#D71A74"/>
<stop offset="1" stop-color="#5298E2"/>
</linearGradient>
<linearGradient id="paint47_linear_5_36" x1="74.4351" y1="153.315" x2="516.47" y2="181.326" gradientUnits="userSpaceOnUse">
<stop stop-color="#DA1A74"/>
<stop offset="1" stop-color="#529BE4"/>
</linearGradient>
<linearGradient id="paint48_linear_5_36" x1="74.4351" y1="152.829" x2="516.47" y2="180.84" gradientUnits="userSpaceOnUse">
<stop stop-color="#DD1B74"/>
<stop offset="1" stop-color="#529EE6"/>
</linearGradient>
<linearGradient id="paint49_linear_5_36" x1="74.4351" y1="152.344" x2="516.47" y2="180.354" gradientUnits="userSpaceOnUse">
<stop stop-color="#DF1B73"/>
<stop offset="1" stop-color="#52A1E8"/>
</linearGradient>
<linearGradient id="paint50_linear_5_36" x1="74.4351" y1="151.869" x2="516.47" y2="179.868" gradientUnits="userSpaceOnUse">
<stop stop-color="#E21B73"/>
<stop offset="1" stop-color="#52A5EB"/>
</linearGradient>
<linearGradient id="paint51_linear_5_36" x1="74.4351" y1="151.383" x2="516.47" y2="179.382" gradientUnits="userSpaceOnUse">
<stop stop-color="#E51C73"/>
<stop offset="1" stop-color="#52A8ED"/>
</linearGradient>
<linearGradient id="paint52_linear_5_36" x1="74.4351" y1="150.897" x2="516.47" y2="178.897" gradientUnits="userSpaceOnUse">
<stop stop-color="#E81C72"/>
<stop offset="1" stop-color="#52ABEF"/>
</linearGradient>
<linearGradient id="paint53_linear_5_36" x1="74.4351" y1="150.412" x2="516.47" y2="178.411" gradientUnits="userSpaceOnUse">
<stop stop-color="#EB1C72"/>
<stop offset="1" stop-color="#52AEF1"/>
</linearGradient>
<linearGradient id="paint54_linear_5_36" x1="74.4351" y1="149.926" x2="516.47" y2="177.925" gradientUnits="userSpaceOnUse">
<stop stop-color="#EE1D72"/>
<stop offset="1" stop-color="#52B1F3"/>
</linearGradient>
<linearGradient id="paint55_linear_5_36" x1="74.4351" y1="149.44" x2="516.47" y2="177.439" gradientUnits="userSpaceOnUse">
<stop stop-color="#F11D71"/>
<stop offset="1" stop-color="#52B4F5"/>
</linearGradient>
<linearGradient id="paint56_linear_5_36" x1="74.4351" y1="148.954" x2="516.47" y2="176.965" gradientUnits="userSpaceOnUse">
<stop stop-color="#F41E71"/>
<stop offset="1" stop-color="#52B7F7"/>
</linearGradient>
<linearGradient id="paint57_linear_5_36" x1="74.4351" y1="148.468" x2="516.47" y2="176.479" gradientUnits="userSpaceOnUse">
<stop stop-color="#F61E71"/>
<stop offset="1" stop-color="#52BAF9"/>
</linearGradient>
<linearGradient id="paint58_linear_5_36" x1="74.4351" y1="147.983" x2="516.47" y2="175.993" gradientUnits="userSpaceOnUse">
<stop stop-color="#F91E71"/>
<stop offset="1" stop-color="#52BDFB"/>
</linearGradient>
<linearGradient id="paint59_linear_5_36" x1="74.4351" y1="147.508" x2="516.47" y2="175.507" gradientUnits="userSpaceOnUse">
<stop stop-color="#FC1F70"/>
<stop offset="1" stop-color="#52C0FD"/>
</linearGradient>
<linearGradient id="paint60_linear_5_36" x1="74.4351" y1="147.022" x2="516.47" y2="175.021" gradientUnits="userSpaceOnUse">
<stop stop-color="#FF1F70"/>
<stop offset="1" stop-color="#52C3FF"/>
</linearGradient>
<linearGradient id="paint61_linear_5_36" x1="180.292" y1="50.9206" x2="390.503" y2="286.461" gradientUnits="userSpaceOnUse">
<stop stop-color="#FF1F70"/>
<stop offset="1" stop-color="#52C3FF"/>
</linearGradient>
<linearGradient id="paint62_linear_5_36" x1="302.215" y1="27.2397" x2="302.215" y2="145.644" gradientUnits="userSpaceOnUse">
<stop stop-color="#7DD6F8"/>
<stop offset="1" stop-color="#797EF6"/>
</linearGradient>
<linearGradient id="paint63_linear_5_36" x1="358.911" y1="130.324" x2="307.234" y2="40.8182" gradientUnits="userSpaceOnUse">
<stop stop-color="#52C3FF"/>
<stop offset="1" stop-color="#92ECFF"/>
</linearGradient>
<linearGradient id="paint64_linear_5_36" x1="255.246" y1="92.1134" x2="255.246" y2="172.68" gradientUnits="userSpaceOnUse">
<stop stop-color="#7DD6F8"/>
<stop offset="1" stop-color="#797EF6"/>
</linearGradient>
<linearGradient id="paint65_linear_5_36" x1="302.497" y1="160.49" x2="269.733" y2="103.727" gradientUnits="userSpaceOnUse">
<stop stop-color="#52C3FF"/>
<stop offset="1" stop-color="#92ECFF"/>
</linearGradient>
<linearGradient id="paint66_linear_5_36" x1="208.662" y1="150.92" x2="208.662" y2="204.021" gradientUnits="userSpaceOnUse">
<stop stop-color="#7DD6F8"/>
<stop offset="1" stop-color="#797EF6"/>
</linearGradient>
<linearGradient id="paint67_linear_5_36" x1="249.043" y1="194.101" x2="229.995" y2="161.11" gradientUnits="userSpaceOnUse">
<stop stop-color="#52C3FF"/>
<stop offset="1" stop-color="#92ECFF"/>
</linearGradient>
<clipPath id="clip0_5_36">
<rect width="527" height="384" fill="white"/>
</clipPath>
</defs>
</svg>
