<svg width="53" height="53" viewBox="0 0 53 53" fill="none" xmlns="http://www.w3.org/2000/svg">
<path opacity="0.18" d="M26.4655 52.586C40.9167 52.586 52.6316 40.8142 52.6316 26.293C52.6316 11.7718 40.9167 0 26.4655 0C12.0144 0 0.299377 11.7718 0.299377 26.293C0.299377 40.8142 12.0144 52.586 26.4655 52.586Z" fill="#52C3FF"/>
<path d="M33.6639 45.5459H19.5021C17.8788 45.5459 16.5544 44.2152 16.5544 42.5839V10.5709C16.5544 8.93963 17.8788 7.60889 19.5021 7.60889H33.6639C35.2873 7.60889 36.6116 8.93963 36.6116 10.5709V42.5839C36.6116 44.2152 35.2873 45.5459 33.6639 45.5459ZM19.5021 8.78939C18.5303 8.78939 17.7293 9.58354 17.7293 10.5709V42.5839C17.7293 43.5605 18.5196 44.3654 19.5021 44.3654H33.6639C34.6358 44.3654 35.4368 43.5713 35.4368 42.5839V10.5709C35.4368 9.59428 34.6465 8.78939 33.6639 8.78939H19.5021Z" fill="#52C3FF" stroke="#52C3FF" stroke-width="0.257775" stroke-miterlimit="10"/>
<path d="M36.4727 12.3524H16.7039V13.5329H36.4727V12.3524Z" fill="#52C3FF" stroke="#52C3FF" stroke-width="0.257775" stroke-miterlimit="10"/>
<path d="M36.462 39.6219H17.2593V40.8025H36.462V39.6219Z" fill="#52C3FF" stroke="#52C3FF" stroke-width="0.257775" stroke-miterlimit="10"/>
<path d="M28.4948 11.1611H24.6606C24.3296 11.1611 24.0732 10.8928 24.0732 10.5709C24.0732 10.2489 24.3402 9.98062 24.6606 9.98062H28.4948C28.8259 9.98062 29.0822 10.2489 29.0822 10.5709C29.0822 10.8928 28.8152 11.1611 28.4948 11.1611Z" fill="#52C3FF" stroke="#52C3FF" stroke-width="0.257775" stroke-miterlimit="10"/>
<path d="M26.583 41.9937C26.2626 41.9937 25.9956 42.262 25.9956 42.5839C25.9956 42.9059 26.2626 43.1742 26.583 43.1742C26.9034 43.1742 27.1704 42.9059 27.1704 42.5839C27.1704 42.262 26.9034 41.9937 26.583 41.9937Z" fill="#52C3FF" stroke="#52C3FF" stroke-width="0.257775" stroke-miterlimit="10"/>
<path d="M21.841 29.0618C21.7235 29.0618 21.606 29.0296 21.4992 28.9545C21.2322 28.7613 21.1682 28.3965 21.3604 28.1282C21.7449 27.5808 21.9479 26.9477 21.9479 26.2823C21.9479 25.6169 21.7449 24.973 21.3711 24.4364C21.1788 24.1681 21.2429 23.8032 21.5099 23.6101C21.7769 23.4169 22.1401 23.4813 22.3323 23.7496C22.8556 24.4901 23.1333 25.3701 23.1333 26.2823C23.1333 27.1945 22.8556 28.0745 22.3323 28.815C22.2148 28.976 22.0333 29.0618 21.8517 29.0618H21.841Z" fill="#52C3FF" stroke="#52C3FF" stroke-width="0.257775" stroke-miterlimit="10"/>
<path d="M24.3509 30.3604C24.2441 30.3604 24.1372 30.3282 24.0411 30.2745C23.7634 30.1028 23.678 29.7379 23.8489 29.4589C24.4363 28.5038 24.746 27.4091 24.746 26.2823C24.746 25.1554 24.4363 24.0608 23.8489 23.1057C23.678 22.8266 23.7634 22.4618 24.0411 22.29C24.3188 22.1183 24.6819 22.2042 24.8528 22.4832C25.5577 23.6208 25.9315 24.9408 25.9315 26.2823C25.9315 27.6238 25.5577 28.9438 24.8528 30.0814C24.746 30.2638 24.5431 30.3604 24.3509 30.3604Z" fill="#52C3FF" stroke="#52C3FF" stroke-width="0.257775" stroke-miterlimit="10"/>
<path d="M26.9674 31.7126C26.8713 31.7126 26.7645 31.6911 26.6684 31.6267C26.3907 31.4657 26.2946 31.1009 26.4548 30.8111C27.2558 29.4374 27.683 27.8706 27.683 26.2715C27.683 24.6725 27.2558 23.1056 26.4655 21.732C26.3053 21.4529 26.3907 21.0881 26.6791 20.9164C26.9568 20.7554 27.3199 20.8412 27.4908 21.131C28.3986 22.6871 28.8792 24.4579 28.8792 26.2608C28.8792 28.0638 28.3986 29.8452 27.4908 31.4014C27.384 31.5945 27.181 31.6911 26.9781 31.6911L26.9674 31.7126Z" fill="#52C3FF" stroke="#52C3FF" stroke-width="0.257775" stroke-miterlimit="10"/>
<path d="M29.6803 33.1185C29.5841 33.1185 29.4773 33.097 29.3919 33.0434C29.1035 32.8824 29.0074 32.5175 29.1676 32.2385C30.1929 30.4355 30.7269 28.375 30.7269 26.293C30.7269 24.211 30.1822 22.1505 29.1676 20.3476C29.0074 20.0578 29.1035 19.7037 29.3919 19.5427C29.6802 19.3817 30.0327 19.4783 30.1929 19.7681C31.3143 21.7535 31.9124 24.0071 31.9124 26.3038C31.9124 28.6004 31.3143 30.8541 30.1929 32.8394C30.0861 33.0326 29.8832 33.1399 29.6803 33.1399V33.1185Z" fill="#52C3FF" stroke="#52C3FF" stroke-width="0.257775" stroke-miterlimit="10"/>
</svg>
