<svg width="33" height="33" viewBox="0 0 33 33" fill="none" xmlns="http://www.w3.org/2000/svg">
<path opacity="0.18" d="M16.5 33C25.6127 33 33 25.6127 33 16.5C33 7.3873 25.6127 0 16.5 0C7.3873 0 0 7.3873 0 16.5C0 25.6127 7.3873 33 16.5 33Z" fill="#52C3FF"/>
<path d="M16.7914 27.415C16.7914 27.415 16.7064 27.415 16.67 27.4029C16.1115 27.2572 15.5287 26.8686 15.0066 26.5166C14.8488 26.4194 14.7031 26.3223 14.5695 26.2252C13.2219 25.3753 12.0684 24.5254 11.0364 23.6269C10.1137 22.8135 8.98455 21.7086 8.34106 20.3366C7.80685 19.1954 7.84327 17.9084 7.86755 16.6578C7.86755 16.3543 7.87969 16.0508 7.87969 15.7594V9.9437C7.87969 9.76158 8.03753 9.59161 8.23179 9.59161C9.79802 9.56732 11.4128 8.88741 12.8212 8.29249C13.6954 7.91611 14.4724 7.53973 15.1645 7.13907C15.6744 6.84768 16.1965 6.54414 16.4757 6.19205C16.5121 6.14348 16.5486 6.10706 16.5971 6.08278L16.7064 6.03421H16.84L17.0099 6.08278C17.0099 6.08278 17.0949 6.14348 17.1192 6.19205C17.3985 6.56843 17.9327 6.87196 18.3698 7.12693C19.1104 7.56401 19.8389 7.92825 20.7009 8.29249C22.1943 8.93598 23.7969 9.57946 25.3631 9.59161C25.5574 9.59161 25.7152 9.74944 25.7152 9.9437V16.8035C25.7152 17.0585 25.7152 17.3135 25.7395 17.5684C25.7638 18.2483 25.7881 18.9525 25.6424 19.5839C25.521 20.106 25.2417 20.6523 24.8046 21.2594C23.1534 23.5055 20.6523 25.2053 18.4183 26.5773C18.3333 26.6258 18.2241 26.6987 18.1148 26.7837C17.7263 27.0508 17.1921 27.415 16.7914 27.415V27.415ZM16.7914 26.6987C16.7914 26.6987 16.9007 26.7472 16.9249 26.7472C16.9735 26.7472 17.0099 26.7351 17.0342 26.6987C17.0585 26.6622 17.0828 26.6258 17.0828 26.5773C17.0828 26.5651 17.0828 26.553 17.0828 26.5287C17.1556 26.4923 17.2285 26.4558 17.2892 26.4194C17.3985 26.3587 17.5077 26.3101 17.6049 26.2494C18.0541 25.9823 18.4912 25.7152 18.9161 25.436C20.1788 24.6104 21.2472 23.809 22.1943 22.9956C23.1656 22.1578 24.1369 21.223 24.7197 20.0938C25.011 19.5232 25.0353 19.0132 25.0353 18.4062V10.4051C25.0353 10.3201 24.9746 10.2594 24.8896 10.2472C23.3477 10.1137 21.7815 9.51876 20.3245 8.88741L20.0938 8.79028C18.989 8.31677 17.7506 7.78255 16.9007 6.95695C16.8642 6.93267 16.8278 6.90838 16.7914 6.90838C16.755 6.90838 16.7185 6.92052 16.6821 6.94481C16.3786 7.21191 16.0386 7.45474 15.6865 7.67328C14.9945 8.08609 14.2174 8.47461 13.234 8.88741C11.8013 9.50662 10.2715 10.1137 8.74173 10.2472C8.65674 10.2472 8.59603 10.3201 8.59603 10.4051V16.0508C8.59603 16.33 8.59603 16.6214 8.58389 16.9128C8.55961 17.5563 8.54747 18.2241 8.62031 18.8675C8.69316 19.4625 8.93599 20.0574 9.39735 20.7616C10.8786 23.0441 13.319 24.6832 15.5166 25.9823C15.8808 26.2009 16.245 26.4073 16.6214 26.6015L16.7307 26.6622C16.7307 26.6622 16.7671 26.6744 16.7793 26.6744C16.7793 26.6744 16.8035 26.6865 16.8157 26.6987H16.7914Z" fill="#52C3FF"/>
<path d="M16.767 25.1932C16.597 25.1932 16.4878 25.0353 16.4635 24.8896C16.4392 24.7439 16.4878 24.5618 16.6942 24.489C16.7185 24.489 16.7427 24.4647 16.7549 24.4525C16.7913 24.4404 16.8156 24.4283 16.8399 24.4161C16.9734 24.3433 17.0948 24.2704 17.2162 24.1854C17.6048 23.9426 17.9933 23.6755 18.3697 23.4205C19.8752 22.3642 21.9271 20.9073 22.9226 19.0132C23.3112 18.2726 23.2626 17.3985 23.2262 16.5364C23.2262 16.2815 23.2019 16.0386 23.2019 15.8079V11.7528C23.2019 11.4856 23.4204 11.4249 23.554 11.4249C23.6876 11.4249 23.9061 11.4978 23.9061 11.7528V16.8521C23.9061 17.8962 23.9061 18.7947 23.3355 19.7053C22.7041 20.7009 21.8299 21.5265 21.0529 22.2064C20.2516 22.9106 19.341 23.6026 18.3697 24.2704L18.0661 24.4768C17.6776 24.7561 17.2891 25.0353 16.8763 25.1689L16.767 25.1932V25.1932Z" fill="#52C3FF"/>
<path d="M10.0286 18.8433C9.89506 18.8433 9.67651 18.7704 9.67651 18.5154V11.7527C9.67651 11.5706 9.83435 11.4007 10.0286 11.4007C11.2549 11.3885 12.5054 10.8907 13.6103 10.4536C14.3023 10.1744 14.9094 9.89513 15.4558 9.5916C15.6864 9.47019 15.905 9.33663 16.1235 9.19094C16.1964 9.14237 16.2692 9.08167 16.3421 9.02096L16.4392 8.92383C16.4392 8.92383 16.4756 8.89955 16.4878 8.88741C16.5849 8.76599 16.7063 8.72957 16.7913 8.72957C16.9491 8.72957 17.0948 8.81456 17.1555 8.93597C17.2041 9.02096 17.1798 9.11809 17.107 9.20308C16.4756 10.0408 15.2494 10.5386 14.2781 10.9271L13.9988 11.0364C12.8818 11.4856 11.7041 11.9227 10.5264 12.0441C10.4414 12.0441 10.3807 12.117 10.3807 12.202V18.5154C10.3807 18.6247 10.3443 18.7097 10.2836 18.7583C10.2229 18.8068 10.1257 18.8433 10.0408 18.8433H10.0286Z" fill="#52C3FF"/>
<path d="M15.905 18.8675C15.8079 18.8675 15.7108 18.8311 15.6501 18.7704L13.841 16.9614C13.7075 16.8278 13.7318 16.6943 13.7682 16.6093C13.8289 16.4636 13.9746 16.3664 14.1081 16.3664C14.1931 16.3664 14.266 16.4029 14.3388 16.4636L15.7593 17.8841C15.7593 17.8841 15.8322 17.9327 15.8686 17.9327C15.8686 17.9327 15.9536 17.9084 15.9779 17.8841L19.2439 14.2053C19.3046 14.1324 19.3775 14.096 19.4624 14.096C19.5839 14.096 19.7295 14.1932 19.7903 14.3389C19.8267 14.4117 19.8631 14.5695 19.7295 14.7152L16.1236 18.7704C16.0507 18.8554 15.9536 18.8675 15.8929 18.8675H15.905Z" fill="#52C3FF"/>
</svg>
