<svg width="35" height="35" viewBox="0 0 35 35" fill="none" xmlns="http://www.w3.org/2000/svg">
<g clip-path="url(#clip0_106_1100)">
<path opacity="0.18" d="M17.5 35C27.165 35 35 27.165 35 17.5C35 7.83502 27.165 0 17.5 0C7.83502 0 0 7.83502 0 17.5C0 27.165 7.83502 35 17.5 35Z" fill="#52C3FF"/>
<path d="M24.4664 26.6685H9.10403C8.93663 26.6685 8.80786 26.5268 8.80786 26.3466V9.43892C8.80786 9.25864 8.93663 9.11699 9.10403 9.11699H14.6927C14.8601 9.11699 14.9889 9.25864 14.9889 9.43892C14.9889 9.6192 14.8601 9.76084 14.6927 9.76084H9.41309V26.0375H24.4793C25.1876 26.0375 25.7541 25.4323 25.7541 24.6854V23.1917C25.7541 23.0114 25.8829 22.8697 26.0503 22.8697C26.2177 22.8697 26.3465 23.0114 26.3465 23.1917V24.6854C26.3465 25.78 25.5095 26.6814 24.4664 26.6814V26.6685Z" fill="#52C3FF"/>
<path d="M26.0504 16.3926C25.883 16.3926 25.7542 16.2509 25.7542 16.0706V11.1129C25.7542 10.3661 25.1876 9.76084 24.4794 9.76084H20.3201C20.1527 9.76084 20.0239 9.6192 20.0239 9.43892C20.0239 9.25864 20.1527 9.11699 20.3201 9.11699H24.4794C25.5096 9.11699 26.3595 10.0055 26.3595 11.1129V16.0706C26.3595 16.2509 26.2307 16.3926 26.0633 16.3926H26.0504Z" fill="#52C3FF"/>
<path d="M27.8145 23.153H20.3715C18.5429 23.153 17.0492 21.582 17.0234 19.6376V19.599C17.0363 17.6416 18.5301 16.0706 20.3715 16.0706H27.8145C27.9819 16.0706 28.1106 16.2123 28.1106 16.3926V22.8311C28.1106 23.0114 27.9819 23.153 27.8145 23.153ZM17.6287 19.6118C17.6287 21.2086 18.8649 22.5092 20.3715 22.5092H27.5183V16.7145H20.3715C18.8649 16.7145 17.6415 18.0151 17.6287 19.6118Z" fill="#52C3FF"/>
<path d="M20.3714 21.0283C19.6375 21.0283 19.0322 20.3973 19.0322 19.6118C19.0322 18.8263 19.6375 18.1954 20.3714 18.1954C21.1054 18.1954 21.7107 18.8263 21.7107 19.6118C21.7107 20.3973 21.1054 21.0283 20.3714 21.0283ZM20.3714 18.8263C19.9723 18.8263 19.6375 19.174 19.6375 19.599C19.6375 20.0239 19.9723 20.3716 20.3714 20.3716C20.7706 20.3716 21.1054 20.0239 21.1054 19.599C21.1054 19.174 20.7706 18.8263 20.3714 18.8263Z" fill="#52C3FF"/>
<path d="M26.0504 14.8473C25.883 14.8473 25.7542 14.7057 25.7542 14.5254C25.7542 13.7785 25.1876 13.1733 24.4794 13.1733H9.41315V14.2163C9.41315 14.3966 9.28438 14.5383 9.11697 14.5383C8.94957 14.5383 8.8208 14.3966 8.8208 14.2163V12.8514C8.8208 12.6711 8.94957 12.5294 9.11697 12.5294H24.4794C25.5095 12.5294 26.3594 13.418 26.3594 14.5254C26.3594 14.7057 26.2307 14.8473 26.0633 14.8473H26.0504Z" fill="#52C3FF"/>
<path d="M20.4617 13.1733C20.3845 13.1733 20.3072 13.1475 20.2428 13.0832L16.032 8.61479L11.8212 13.0832C11.7053 13.2119 11.5121 13.2119 11.3962 13.0832C11.2804 12.9544 11.2804 12.7612 11.3962 12.6325L15.8131 7.94518C15.929 7.82929 16.1221 7.82929 16.238 7.94518L20.6549 12.6325C20.7708 12.7612 20.7708 12.9544 20.6549 13.0832C20.5905 13.1475 20.5132 13.1733 20.436 13.1733H20.4617Z" fill="#52C3FF"/>
<path d="M23.4233 13.1733C23.346 13.1733 23.2688 13.1475 23.2044 13.0831L18.9935 8.61479L17.7316 9.95401C17.6157 10.0828 17.4225 10.0828 17.3066 9.95401C17.1908 9.82524 17.1908 9.63208 17.3066 9.50331L18.7875 7.9323C18.7875 7.9323 18.9163 7.84216 19.0064 7.84216C19.0837 7.84216 19.161 7.88079 19.2253 7.9323L23.6422 12.6196C23.7581 12.7483 23.7581 12.9415 23.6422 13.0703C23.5778 13.1347 23.5005 13.1604 23.4233 13.1604V13.1733Z" fill="#52C3FF"/>
</g>
<defs>
<clipPath id="clip0_106_1100">
<rect width="35" height="35" fill="white"/>
</clipPath>
</defs>
</svg>
