<svg width="92" height="150" viewBox="0 0 92 150" fill="none" xmlns="http://www.w3.org/2000/svg">
<g clip-path="url(#clip0_294_142)">
<path d="M33.7168 120.273C23.5131 118.899 12.8656 111.625 8.68272 104.752C3.04212 95.474 3.1055 85.5085 4.88007 75.3139C9.50663 48.5102 4.81669 45.0738 0 39.7474C8.30245 42.9547 16.0345 45.6465 21.1047 51.3738C27.3157 34.0201 29.0269 20.7901 53.4272 0C52.6033 4.8682 51.0823 9.7364 51.0189 14.7191C50.702 30.1828 64.5183 44.3865 67.3703 47.8802C75.2925 57.3875 79.4754 67.7539 79.2853 79.1512L79.2219 80.8121C83.3414 77.6048 85.9399 72.0493 86.7004 65.0048C91.834 70.8466 93.1649 81.4421 91.0101 88.773C85.623 106.642 73.8982 116.035 55.3286 120.216C49.9415 121.419 39.4842 121.075 33.7168 120.273Z" fill="url(#paint0_linear_294_142)"/>
<path style="mix-blend-mode:multiply" opacity="0.4" d="M33.7168 120.273C23.5131 118.899 12.8656 111.625 8.68272 104.752C3.04212 95.474 3.1055 85.5085 4.88007 75.3139C9.50663 48.5102 4.81669 45.0738 0 39.7474C8.30245 42.9547 16.0345 45.6465 21.1047 51.3738C27.3157 34.0201 29.0269 20.7901 53.4272 0C52.6033 4.8682 51.0823 9.7364 51.0189 14.7191C50.702 30.1828 64.5183 44.3865 67.3703 47.8802C75.2925 57.3875 79.4754 67.7539 79.2853 79.1512L79.2219 80.8121C83.3414 77.6048 85.9399 72.0493 86.7004 65.0048C91.834 70.8466 93.1649 81.4421 91.0101 88.773C85.623 106.642 73.8982 116.035 55.3286 120.216C49.9415 121.419 39.4842 121.075 33.7168 120.273Z" fill="url(#paint1_linear_294_142)"/>
<path d="M33.6534 120.388C26.2382 119.185 18.5062 112.942 15.4641 107.1C11.3445 99.0821 11.3445 90.5485 12.6755 81.7857C16.0345 58.8193 12.6755 55.8984 9.12631 51.3165C15.1472 54.0656 20.7878 56.3565 24.4637 61.282C28.9635 46.3911 30.231 35.051 47.9767 17.2391C47.343 21.4201 46.2655 25.601 46.2022 29.8392C46.012 43.1265 56.2792 52.462 58.3706 55.4402C64.138 63.6302 71.8701 71.0184 71.9334 79.0366C71.9334 86.4821 66.4196 95.2449 66.4196 93.813C71.2997 92.6103 81.8837 86.9403 84.5456 80.7548C86.9539 91.293 81.9471 99.3112 78.7148 103.836C73.2644 111.339 66.4196 116.722 55.3285 120.216C51.4625 121.361 37.8363 121.075 33.6534 120.388Z" fill="url(#paint2_linear_294_142)"/>
<path style="mix-blend-mode:multiply" opacity="0.4" d="M33.6534 120.388C26.2382 119.185 18.5062 112.942 15.4641 107.1C11.3445 99.0821 11.3445 90.5485 12.6755 81.7857C16.0345 58.8193 12.6755 55.8984 9.12631 51.3165C15.1472 54.0656 20.7878 56.3565 24.4637 61.282C28.9635 46.3911 30.231 35.051 47.9767 17.2391C47.343 21.4201 46.2655 25.601 46.2022 29.8392C46.012 43.1265 56.2792 52.462 58.3706 55.4402C64.138 63.6302 71.8701 71.0184 71.9334 79.0366C71.9334 86.4821 66.4196 95.2449 66.4196 93.813C71.2997 92.6103 81.8837 86.9403 84.5456 80.7548C86.9539 91.293 81.9471 99.3112 78.7148 103.836C73.2644 111.339 66.4196 116.722 55.3285 120.216C51.4625 121.361 37.8363 121.075 33.6534 120.388Z" fill="url(#paint3_linear_294_142)"/>
<path d="M37.0759 120.273C32.1959 119.357 27.2524 116.55 23.8934 112.427C20.9147 108.704 19.7739 102.633 20.9147 96.734C22.816 87.4558 23.2596 74.913 20.9147 71.2475C24.9074 73.4812 28.5833 75.2566 31.0551 79.1512C34.0338 67.353 33.1465 59.6784 44.8714 45.532C44.4277 48.7965 43.7306 52.1756 43.6672 55.5547C43.5404 66.093 50.1951 71.0757 53.4273 74.5694C59.7651 81.3276 63.5677 88.4867 63.5677 94.9012C63.5677 100.8 60.9059 102.519 57.737 105.382C62.3636 104.294 65.5958 103.149 68.5112 99.9985C69.5886 108.475 57.737 118.612 48.8641 120.502C44.5545 121.419 39.8645 120.846 37.0759 120.273Z" fill="url(#paint4_linear_294_142)"/>
<path style="mix-blend-mode:multiply" opacity="0.4" d="M37.0759 120.273C32.1959 119.357 27.2524 116.55 23.8934 112.427C20.9147 108.704 19.7739 102.633 20.9147 96.734C22.816 87.4558 23.2596 74.913 20.9147 71.2475C24.9074 73.4812 28.5833 75.2566 31.0551 79.1512C34.0338 67.353 33.1465 59.6784 44.8714 45.532C44.4277 48.7965 43.7306 52.1756 43.6672 55.5547C43.5404 66.093 50.1951 71.0757 53.4273 74.5694C59.7651 81.3276 63.5677 88.4867 63.5677 94.9012C63.5677 100.8 60.9059 102.519 57.737 105.382C62.3636 104.294 65.5958 103.149 68.5112 99.9985C69.5886 108.475 57.737 118.612 48.8641 120.502C44.5545 121.419 39.8645 120.846 37.0759 120.273Z" fill="url(#paint5_linear_294_142)"/>
<path d="M39.0405 120.502C35.935 119.815 32.4492 118.097 30.2944 115.29C28.3931 112.828 27.7593 108.131 28.8367 104.294C30.8014 97.0776 30.2944 89.6894 28.8367 87.284C31.3718 88.7158 33.7168 89.9185 35.2379 92.5531C37.1392 84.6494 36.6322 79.4948 44.0473 70.0448C43.7938 72.2784 43.3502 74.5121 43.3502 76.7457C43.2234 83.7903 47.4697 87.1121 49.4978 89.4603C53.554 93.9849 54.8215 98.7958 54.8215 103.034C54.8215 106.986 53.1103 109.162 51.0822 111.052C54.4413 110.88 58.1805 109.105 60.0185 107.043C60.7156 112.656 52.8568 119.414 47.2162 120.674C44.491 121.304 40.8151 120.846 39.0405 120.502Z" fill="url(#paint6_linear_294_142)"/>
</g>
<g filter="url(#filter0_f_294_142)">
<ellipse cx="45" cy="137.5" rx="36" ry="7.5" fill="#D9D9D9"/>
</g>
<defs>
<filter id="filter0_f_294_142" x="4" y="125" width="82" height="25" filterUnits="userSpaceOnUse" color-interpolation-filters="sRGB">
<feFlood flood-opacity="0" result="BackgroundImageFix"/>
<feBlend mode="normal" in="SourceGraphic" in2="BackgroundImageFix" result="shape"/>
<feGaussianBlur stdDeviation="2.5" result="effect1_foregroundBlur_294_142"/>
</filter>
<linearGradient id="paint0_linear_294_142" x1="143.429" y1="0" x2="143.429" y2="120.996" gradientUnits="userSpaceOnUse">
<stop stop-color="#E65100"/>
<stop offset="1" stop-color="#FF8F00"/>
</linearGradient>
<linearGradient id="paint1_linear_294_142" x1="143.429" y1="0" x2="143.429" y2="120.996" gradientUnits="userSpaceOnUse">
<stop stop-color="#FF0000"/>
<stop offset="1" stop-color="#FFFF00"/>
</linearGradient>
<linearGradient id="paint2_linear_294_142" x1="133.83" y1="17.2426" x2="133.83" y2="120.996" gradientUnits="userSpaceOnUse">
<stop stop-color="#FF8F00"/>
<stop offset="1" stop-color="#FFB300"/>
</linearGradient>
<linearGradient id="paint3_linear_294_142" x1="133.83" y1="17.2426" x2="133.83" y2="120.996" gradientUnits="userSpaceOnUse">
<stop stop-color="#FF0000"/>
<stop offset="1" stop-color="#FFFF00"/>
</linearGradient>
<linearGradient id="paint4_linear_294_142" x1="117.047" y1="45.5119" x2="117.047" y2="120.996" gradientUnits="userSpaceOnUse">
<stop stop-color="#FFB300"/>
<stop offset="1" stop-color="#FFE287"/>
</linearGradient>
<linearGradient id="paint5_linear_294_142" x1="117.047" y1="45.5119" x2="117.047" y2="120.996" gradientUnits="userSpaceOnUse">
<stop stop-color="#FFD54F"/>
<stop offset="1" stop-color="#FFFF00"/>
</linearGradient>
<linearGradient id="paint6_linear_294_142" x1="94.2081" y1="70.0477" x2="94.2081" y2="120.996" gradientUnits="userSpaceOnUse">
<stop stop-color="#FFD54F"/>
<stop offset="1" stop-color="#FFECF4"/>
</linearGradient>
<clipPath id="clip0_294_142">
<rect width="92" height="121" fill="white"/>
</clipPath>
</defs>
</svg>
