<svg width="1240" height="503" viewBox="0 0 1240 503" fill="none" xmlns="http://www.w3.org/2000/svg">
<mask id="path-1-outside-1_564_31" maskUnits="userSpaceOnUse" x="0" y="1" width="1240" height="502" fill="black">
<rect fill="white" y="1" width="1240" height="502"/>
<path d="M151 248C151 257.941 142.941 266 133 266C123.059 266 115 257.941 115 248C115 238.059 123.059 230 133 230C142.941 230 151 238.059 151 248Z"/>
<path d="M393 248C393 257.941 384.941 266 375 266C365.059 266 357 257.941 357 248C357 238.059 365.059 230 375 230C384.941 230 393 238.059 393 248Z"/>
<path d="M635 248C635 257.941 626.941 266 617 266C607.059 266 599 257.941 599 248C599 238.059 607.059 230 617 230C626.941 230 635 238.059 635 248Z"/>
<path d="M877 248C877 257.941 868.941 266 859 266C849.059 266 841 257.941 841 248C841 238.059 849.059 230 859 230C868.941 230 877 238.059 877 248Z"/>
<path d="M1119 250C1119 259.941 1110.94 268 1101 268C1091.06 268 1083 259.941 1083 250C1083 240.059 1091.06 232 1101 232C1110.94 232 1119 240.059 1119 250Z"/>
<path d="M151 477C151 486.941 142.941 495 133 495C123.059 495 115 486.941 115 477C115 467.059 123.059 459 133 459C142.941 459 151 467.059 151 477Z"/>
<path d="M393 477C393 486.941 384.941 495 375 495C365.059 495 357 486.941 357 477C357 467.059 365.059 459 375 459C384.941 459 393 467.059 393 477Z"/>
<path d="M635 477C635 486.941 626.941 495 617 495C607.059 495 599 486.941 599 477C599 467.059 607.059 459 617 459C626.941 459 635 467.059 635 477Z"/>
<path d="M877 477C877 486.941 868.941 495 859 495C849.059 495 841 486.941 841 477C841 467.059 849.059 459 859 459C868.941 459 877 467.059 877 477Z"/>
</mask>
<path d="M101.906 25L125 48.094L148.094 25L125 1.90599L101.906 25ZM1129 476.99L1088.98 453.937L1089.02 500.125L1129 476.99ZM4 362H8H4ZM125 29L1110 29.0001V21.0001L125 21V29ZM136 254L1110 254V246L136 246V254ZM136.004 482L1093 481.026L1093 473.026L135.996 474L136.004 482ZM1124 30C1138.18 30 1152.23 32.7935 1165.33 38.221L1168.39 30.83C1154.32 25.0004 1139.23 22 1124 22V30ZM1165.33 38.221C1178.43 43.6485 1190.34 51.6037 1200.37 61.6325L1206.02 55.9756C1195.25 45.204 1182.47 36.6595 1168.39 30.83L1165.33 38.221ZM1200.37 61.6325C1210.4 71.6612 1218.35 83.567 1223.78 96.6702L1231.17 93.6087C1225.34 79.535 1216.8 66.7472 1206.02 55.9756L1200.37 61.6325ZM1223.78 96.6702C1229.21 109.773 1232 123.817 1232 138H1240C1240 122.767 1237 107.682 1231.17 93.6087L1223.78 96.6702ZM1232 138C1232 152.183 1229.21 166.227 1223.78 179.33L1231.17 182.391C1237 168.318 1240 153.233 1240 138H1232ZM1223.78 179.33C1218.35 192.433 1210.4 204.339 1200.37 214.368L1206.02 220.024C1216.8 209.253 1225.34 196.465 1231.17 182.391L1223.78 179.33ZM1200.37 214.368C1190.34 224.396 1178.43 232.352 1165.33 237.779L1168.39 245.17C1182.47 239.34 1195.25 230.796 1206.02 220.024L1200.37 214.368ZM1165.33 237.779C1152.23 243.207 1138.18 246 1124 246V254C1139.23 254 1154.32 251 1168.39 245.17L1165.33 237.779ZM116 470C101.817 470 87.7734 467.207 74.6702 461.779L71.6087 469.17C85.6825 475 100.767 478 116 478V470ZM74.6702 461.779C61.567 456.352 49.6612 448.396 39.6325 438.368L33.9756 444.024C44.7472 454.796 57.535 463.34 71.6087 469.17L74.6702 461.779ZM39.6325 438.368C29.6037 428.339 21.6485 416.433 16.221 403.33L8.82998 406.391C14.6595 420.465 23.204 433.253 33.9756 444.024L39.6325 438.368ZM16.221 403.33C10.7935 390.227 8 376.183 8 362H0C4.76837e-07 377.233 3.00043 392.318 8.82998 406.391L16.221 403.33ZM8 362C8 347.817 10.7935 333.773 16.221 320.67L8.82997 317.609C3.00043 331.682 -4.76837e-07 346.767 0 362H8ZM16.221 320.67C21.6485 307.567 29.6037 295.661 39.6325 285.632L33.9756 279.976C23.204 290.747 14.6595 303.535 8.82997 317.609L16.221 320.67ZM39.6325 285.632C49.6612 275.604 61.567 267.649 74.6702 262.221L71.6087 254.83C57.535 260.66 44.7472 269.204 33.9756 279.976L39.6325 285.632ZM74.6702 262.221C87.7733 256.793 101.817 254 116 254V246C100.767 246 85.6825 249 71.6087 254.83L74.6702 262.221ZM143 248C143 253.523 138.523 258 133 258V274C147.359 274 159 262.359 159 248H143ZM133 258C127.477 258 123 253.523 123 248H107C107 262.359 118.641 274 133 274V258ZM123 248C123 242.477 127.477 238 133 238V222C118.641 222 107 233.641 107 248H123ZM133 238C138.523 238 143 242.477 143 248H159C159 233.641 147.359 222 133 222V238ZM385 248C385 253.523 380.523 258 375 258V274C389.359 274 401 262.359 401 248H385ZM375 258C369.477 258 365 253.523 365 248H349C349 262.359 360.641 274 375 274V258ZM365 248C365 242.477 369.477 238 375 238V222C360.641 222 349 233.641 349 248H365ZM375 238C380.523 238 385 242.477 385 248H401C401 233.641 389.359 222 375 222V238ZM627 248C627 253.523 622.523 258 617 258V274C631.359 274 643 262.359 643 248H627ZM617 258C611.477 258 607 253.523 607 248H591C591 262.359 602.641 274 617 274V258ZM607 248C607 242.477 611.477 238 617 238V222C602.641 222 591 233.641 591 248H607ZM617 238C622.523 238 627 242.477 627 248H643C643 233.641 631.359 222 617 222V238ZM869 248C869 253.523 864.523 258 859 258V274C873.359 274 885 262.359 885 248H869ZM859 258C853.477 258 849 253.523 849 248H833C833 262.359 844.641 274 859 274V258ZM849 248C849 242.477 853.477 238 859 238V222C844.641 222 833 233.641 833 248H849ZM859 238C864.523 238 869 242.477 869 248H885C885 233.641 873.359 222 859 222V238ZM1111 250C1111 255.523 1106.52 260 1101 260V276C1115.36 276 1127 264.359 1127 250H1111ZM1101 260C1095.48 260 1091 255.523 1091 250H1075C1075 264.359 1086.64 276 1101 276V260ZM1091 250C1091 244.477 1095.48 240 1101 240V224C1086.64 224 1075 235.641 1075 250H1091ZM1101 240C1106.52 240 1111 244.477 1111 250H1127C1127 235.641 1115.36 224 1101 224V240ZM143 477C143 482.523 138.523 487 133 487V503C147.359 503 159 491.359 159 477H143ZM133 487C127.477 487 123 482.523 123 477H107C107 491.359 118.641 503 133 503V487ZM123 477C123 471.477 127.477 467 133 467V451C118.641 451 107 462.641 107 477H123ZM133 467C138.523 467 143 471.477 143 477H159C159 462.641 147.359 451 133 451V467ZM385 477C385 482.523 380.523 487 375 487V503C389.359 503 401 491.359 401 477H385ZM375 487C369.477 487 365 482.523 365 477H349C349 491.359 360.641 503 375 503V487ZM365 477C365 471.477 369.477 467 375 467V451C360.641 451 349 462.641 349 477H365ZM375 467C380.523 467 385 471.477 385 477H401C401 462.641 389.359 451 375 451V467ZM627 477C627 482.523 622.523 487 617 487V503C631.359 503 643 491.359 643 477H627ZM617 487C611.477 487 607 482.523 607 477H591C591 491.359 602.641 503 617 503V487ZM607 477C607 471.477 611.477 467 617 467V451C602.641 451 591 462.641 591 477H607ZM617 467C622.523 467 627 471.477 627 477H643C643 462.641 631.359 451 617 451V467ZM869 477C869 482.523 864.523 487 859 487V503C873.359 503 885 491.359 885 477H869ZM859 487C853.477 487 849 482.523 849 477H833C833 491.359 844.641 503 859 503V487ZM849 477C849 471.477 853.477 467 859 467V451C844.641 451 833 462.641 833 477H849ZM859 467C864.523 467 869 471.477 869 477H885C885 462.641 873.359 451 859 451V467Z" fill="url(#paint0_linear_564_31)" mask="url(#path-1-outside-1_564_31)"/>
<circle cx="375" cy="26" r="22" fill="#FF1F70" stroke="#FF1F70" stroke-width="8"/>
<path d="M373.25 32.4288C373.094 32.5854 372.881 32.6729 372.66 32.6729C372.44 32.6729 372.227 32.5854 372.071 32.4288L367.366 27.7229C366.878 27.2346 366.878 26.4429 367.366 25.9554L367.955 25.3663C368.444 24.8779 369.235 24.8779 369.723 25.3663L372.66 28.3038L380.598 20.3663C381.086 19.8779 381.878 19.8779 382.365 20.3663L382.955 20.9554C383.443 21.4438 383.443 22.2354 382.955 22.7229L373.25 32.4288Z" fill="white"/>
<circle cx="617" cy="26" r="22" fill="#FF1F70" stroke="#FF1F70" stroke-width="8"/>
<path d="M615.25 32.4288C615.094 32.5854 614.881 32.6729 614.66 32.6729C614.44 32.6729 614.227 32.5854 614.071 32.4288L609.366 27.7229C608.878 27.2346 608.878 26.4429 609.366 25.9554L609.955 25.3663C610.444 24.8779 611.235 24.8779 611.723 25.3663L614.66 28.3038L622.598 20.3663C623.086 19.8779 623.878 19.8779 624.365 20.3663L624.955 20.9554C625.443 21.4438 625.443 22.2354 624.955 22.7229L615.25 32.4288Z" fill="white"/>
<circle cx="859" cy="26" r="22" fill="#FF1F70" stroke="#FF1F70" stroke-width="8"/>
<path d="M857.25 32.4288C857.094 32.5854 856.881 32.6729 856.66 32.6729C856.44 32.6729 856.227 32.5854 856.071 32.4288L851.366 27.7229C850.878 27.2346 850.878 26.4429 851.366 25.9554L851.955 25.3663C852.444 24.8779 853.235 24.8779 853.723 25.3663L856.66 28.3038L864.598 20.3663C865.086 19.8779 865.878 19.8779 866.365 20.3663L866.955 20.9554C867.443 21.4438 867.443 22.2354 866.955 22.7229L857.25 32.4288Z" fill="white"/>
<circle cx="1101" cy="26" r="22" fill="#FF1F70" stroke="#FF1F70" stroke-width="8"/>
<path d="M1099.25 32.4288C1099.09 32.5854 1098.88 32.6729 1098.66 32.6729C1098.44 32.6729 1098.23 32.5854 1098.07 32.4288L1093.37 27.7229C1092.88 27.2346 1092.88 26.4429 1093.37 25.9554L1093.96 25.3663C1094.44 24.8779 1095.23 24.8779 1095.72 25.3663L1098.66 28.3038L1106.6 20.3663C1107.09 19.8779 1107.88 19.8779 1108.37 20.3663L1108.95 20.9554C1109.44 21.4438 1109.44 22.2354 1108.95 22.7229L1099.25 32.4288Z" fill="white"/>
<defs>
<linearGradient id="paint0_linear_564_31" x1="620" y1="25" x2="620" y2="495" gradientUnits="userSpaceOnUse">
<stop stop-color="#FF1F70"/>
<stop offset="1" stop-color="#52C3FF"/>
</linearGradient>
</defs>
</svg>
