<svg width="64" height="64" viewBox="0 0 64 64" fill="none" xmlns="http://www.w3.org/2000/svg">
<g clip-path="url(#clip0_311_39)">
<path d="M61.4824 49.0043V10.8733C61.4795 8.34539 59.4308 6.29673 56.9029 6.29395H6.96447C4.43654 6.29686 2.38801 8.34539 2.38509 10.8733V49.0298C0.994186 49.3335 0.00198758 50.5641 0 51.9877V56.9109C0 57.35 0.355909 57.706 0.795031 57.706H63.205C63.6441 57.706 64 57.35 64 56.9109V51.9877C63.9979 50.5133 62.9355 49.2542 61.4824 49.0043ZM6.96447 7.88401H56.9029C58.5531 7.88586 59.8904 9.2231 59.8923 10.8733V48.9606H3.97516V10.8733C3.97701 9.2231 5.31425 7.88586 6.96447 7.88401ZM43.7267 50.5507C43.7237 52.1981 42.3251 52.9358 40.9389 52.9358H22.9287C21.5426 52.9358 20.144 52.1981 20.1409 50.5507H43.7267ZM62.4099 56.1159H1.59006V51.9877C1.59099 51.1944 2.23377 50.5516 3.02708 50.5507H18.5507C18.5535 52.8543 20.3937 54.5258 22.9286 54.5258H40.9388C43.4736 54.5258 45.3139 52.8543 45.3166 50.5507H60.9729C61.7662 50.5516 62.409 51.1944 62.4099 51.9877V56.1159Z" fill="black"/>
<path d="M54.9896 15.9668C56.746 15.9668 58.1698 14.543 58.1698 12.7867C58.1698 11.0303 56.746 9.60657 54.9896 9.60657C53.2333 9.60657 51.8095 11.0303 51.8095 12.7867C51.8115 14.5421 53.2342 15.9648 54.9896 15.9668ZM54.9896 11.1966C55.8678 11.1966 56.5797 11.9086 56.5797 12.7867C56.5797 13.6648 55.8678 14.3768 54.9896 14.3768C54.1115 14.3768 53.3996 13.6648 53.3996 12.7867C53.4005 11.909 54.1119 11.1976 54.9896 11.1966Z" fill="black"/>
<path d="M46.3768 13.5818H49.9545C50.3936 13.5818 50.7495 13.2259 50.7495 12.7867C50.7495 12.3476 50.3936 11.9917 49.9545 11.9917H46.3768C45.9377 11.9917 45.5818 12.3476 45.5818 12.7867C45.5818 13.2259 45.9377 13.5818 46.3768 13.5818Z" fill="black"/>
<path d="M46.3768 15.9668H49.9545C50.3936 15.9668 50.7495 15.6109 50.7495 15.1717C50.7495 14.7326 50.3936 14.3767 49.9545 14.3767H46.3768C45.9377 14.3767 45.5818 14.7326 45.5818 15.1717C45.5818 15.6109 45.9377 15.9668 46.3768 15.9668Z" fill="black"/>
<path d="M46.3768 11.1966H49.9545C50.3936 11.1966 50.7495 10.8407 50.7495 10.4016C50.7495 9.96248 50.3936 9.60657 49.9545 9.60657H46.3768C45.9377 9.60657 45.5818 9.96248 45.5818 10.4016C45.5818 10.8407 45.9377 11.1966 46.3768 11.1966Z" fill="black"/>
<path d="M15.4052 24.7652L21.1346 27.5444V32.1166C21.1368 33.6272 22.0906 34.9723 23.5153 35.4743C26.1981 36.4212 29.0225 36.9048 31.8675 36.9041C31.9585 36.9041 32.0496 36.9036 32.1406 36.9027C34.8963 36.8733 37.6282 36.3898 40.2266 35.4716C41.649 34.9694 42.6002 33.625 42.6004 32.1166V27.5444L43.6605 27.0301V40.6128C43.6605 41.0519 44.0164 41.4079 44.4555 41.4079C44.8946 41.4079 45.2505 41.0519 45.2505 40.6128V26.2588L48.3298 24.7652C48.7249 24.5739 48.8902 24.0983 48.6988 23.7032C48.6208 23.5422 48.4908 23.4122 48.3298 23.3342L32.2144 15.5163C31.9952 15.4101 31.7396 15.4101 31.5205 15.5163L15.4052 23.3342C15.0101 23.5255 14.8448 24.0011 15.0362 24.3962C15.1142 24.5572 15.2442 24.6873 15.4052 24.7652ZM41.0104 32.1166C41.0105 32.9505 40.4848 33.6939 39.6986 33.9717C34.6333 35.7604 29.1085 35.7612 24.0427 33.9741C23.2543 33.6966 22.7262 32.9524 22.7246 32.1166V28.3163L31.5205 32.583C31.7396 32.6893 31.9952 32.6893 32.2144 32.583L41.0104 28.3163V32.1166ZM31.8675 17.1154L46.1615 24.0497L31.8675 30.9839L17.5735 24.0497L31.8675 17.1154Z" fill="black"/>
</g>
<defs>
<clipPath id="clip0_311_39">
<rect width="64" height="64" fill="white"/>
</clipPath>
</defs>
</svg>
