<svg width="64" height="64" viewBox="0 0 64 64" xmlns="http://www.w3.org/2000/svg">
<path d="M51.4225 32.7425C50.8518 32.7425 50.3901 32.2808 50.3901 31.7102V29.4318C50.3901 28.8612 50.8519 28.3995 51.4225 28.3995C51.9931 28.3995 52.4548 28.8612 52.4548 29.4318V31.7102C52.4548 32.2808 51.9931 32.7425 51.4225 32.7425ZM64 34.7801V40.7004C64 42.7804 62.3099 44.4704 60.2399 44.4704H56.4197C54.9997 46.9705 53.0596 49.2106 50.6595 51.1207L50.0195 58.2309C49.7995 60.6411 47.8194 62.4611 45.3994 62.4611C43.2292 62.4611 41.3692 60.971 40.8792 58.8509L40.2792 56.2108C35.339 57.4809 30.0388 57.4809 25.0887 56.2108L24.4886 58.8509C24.0086 60.971 22.1485 62.4611 19.9684 62.4611C17.5584 62.4611 15.5683 60.6411 15.3583 58.2309L14.7182 51.1207C9.67136 47.1059 6.67321 41.5485 6.36827 35.6975C5.936 35.8029 5.4908 35.8601 5.0379 35.8601H4.89795C3.49788 35.8301 2.23782 35.2901 1.33783 34.3401C-0.182242 32.7401 -0.432252 30.17 0.717748 28.0899C0.997788 27.5898 1.61781 27.4098 2.11782 27.6799C2.61784 27.9599 2.79784 28.5899 2.51786 29.0899C1.7978 30.39 1.92781 31.96 2.83788 32.92C3.34785 33.46 4.11789 33.7801 4.94794 33.8001C5.45516 33.7893 5.94157 33.6892 6.39501 33.5075C6.95887 24.4826 13.7975 16.8626 23.2653 13.7579C23.0587 12.968 22.9386 12.1436 22.9386 11.2893C22.9386 5.9191 27.3087 1.53894 32.6889 1.53894C38.0691 1.53894 42.4392 5.9191 42.4392 11.2893C42.4392 12.1382 42.3201 12.9584 42.1149 13.7446C44.0757 14.3873 45.9506 15.2213 47.7094 16.2595C48.3194 15.8394 48.9395 15.4794 49.5995 15.1894C50.9995 14.5594 53.3096 14.0994 54.8397 14.4994C55.4397 14.6494 55.9097 15.0394 56.1997 15.6194C57.1697 17.5895 55.8197 21.6496 55.2597 23.1297C56.9797 25.5598 58.1198 28.1999 58.6698 31.01H60.2398C62.3099 31.01 64 32.7001 64 34.7801ZM24.9986 11.2893C24.9986 13.8353 26.2556 16.08 28.1699 17.4828C31.1378 16.9655 34.2314 16.9651 37.2064 17.4841C39.1239 16.0862 40.3792 13.8416 40.3792 11.2893C40.3792 7.05915 36.929 3.60902 32.6889 3.60902C28.4488 3.60902 24.9986 7.05915 24.9986 11.2893ZM61.9399 34.7801C61.9399 33.8401 61.1699 33.08 60.2399 33.08H57.7898C57.2798 33.08 56.8497 32.7001 56.7698 32.2001C56.3297 29.2199 55.1497 26.4198 53.2696 23.8997C53.0496 23.5997 52.9996 23.2097 53.1496 22.8797C54.1796 20.4596 54.8097 16.9895 54.3097 16.4795C53.4296 16.2595 51.6496 16.5295 50.4495 17.0695C49.7295 17.3995 49.0595 17.7995 48.3995 18.3096C48.0594 18.5795 47.5794 18.5996 47.2194 18.3696C45.4088 17.2315 43.4503 16.339 41.3893 15.6746C40.9463 16.5506 40.3756 17.3498 39.7019 18.0501C40.5896 18.3004 41.4609 18.5944 42.3048 18.9431C42.8331 19.1599 43.0831 19.7638 42.8654 20.291C42.6496 20.8183 42.0488 21.0703 41.5185 20.8505C36.0262 18.5822 29.318 18.5883 23.863 20.8505C23.7339 20.904 23.5998 20.9292 23.4678 20.9292C23.0635 20.9292 22.6784 20.6892 22.5141 20.292C22.2963 19.7658 22.5463 19.1619 23.0726 18.9431C23.9135 18.5946 24.7829 18.3007 25.6693 18.0503C25.0014 17.3541 24.4367 16.5617 23.9966 15.6947C14.8889 18.6301 8.40802 26.0438 8.40802 34.7101C8.40802 40.4103 11.2981 45.9005 16.3283 49.7607C16.5583 49.9407 16.7084 50.2007 16.7383 50.4907L17.4083 58.0509C17.5284 59.391 18.6284 60.391 19.9684 60.391C21.1785 60.391 22.2086 59.571 22.4785 58.391L23.3186 54.7009C23.3786 54.4208 23.5586 54.1808 23.8086 54.0308C24.0486 53.8908 24.3486 53.8608 24.6186 53.9408C29.8388 55.4808 35.539 55.4808 40.7592 53.9408C40.8492 53.9108 40.9492 53.8908 41.0492 53.8908C41.2292 53.8908 41.4092 53.9408 41.5692 54.0308C41.8192 54.1808 41.9892 54.4208 42.0592 54.7009L42.8993 58.391C43.1593 59.571 44.1993 60.391 45.3994 60.391C46.7394 60.391 47.8395 59.381 47.9694 58.0509L48.6395 50.4907C48.6695 50.2007 48.8095 49.9407 49.0395 49.7607C51.5496 47.8306 53.5197 45.5405 54.8897 42.9504C55.0697 42.6104 55.4197 42.4004 55.8097 42.4004H60.2399C61.1699 42.4004 61.94 41.6404 61.94 40.7004L61.9399 34.7801ZM27.2302 11.2934C27.2302 8.28307 29.6789 5.83426 32.6892 5.83426C35.6995 5.83426 38.1493 8.28308 38.1493 11.2934C38.1493 14.3037 35.6995 16.7534 32.6892 16.7534C29.6789 16.7534 27.2302 14.3037 27.2302 11.2934ZM29.2948 11.2934C29.2948 13.1655 30.8171 14.6888 32.6892 14.6888C34.5623 14.6888 36.0846 13.1654 36.0846 11.2934C36.0846 9.42123 34.5623 7.89896 32.6892 7.89896C30.8171 7.89897 29.2948 9.42124 29.2948 11.2934Z" />
</svg>
