<svg width="64" height="64" viewBox="0 0 64 64" fill="none" xmlns="http://www.w3.org/2000/svg">
<g clip-path="url(#clip0_287_66)">
<path d="M26.7733 55.9755C29.374 56.0464 31.8942 55.0694 33.7675 53.264C38.1344 48.896 37.12 40.7765 31.5051 35.1616C25.8901 29.5467 17.7685 28.5323 13.4027 32.8992C9.0368 37.2661 10.0512 45.3856 15.6661 51.0005C18.5763 54.0463 22.5631 55.832 26.7733 55.9755ZM14.9109 34.4075C16.3861 32.9944 18.3678 32.2344 20.4096 32.2987C24.0521 32.4559 27.4904 34.0243 29.9968 36.672C34.7787 41.4549 35.7952 48.2219 32.2592 51.7579C28.7232 55.2939 21.9573 54.2752 17.1733 49.4933C12.3893 44.7115 11.3771 37.9424 14.9109 34.4075Z" fill="black"/>
<path d="M8.87787 57.7888C12.5919 61.6323 17.6701 63.8587 23.0133 63.9861C26.739 64.0679 30.3415 62.6511 33.0133 60.0533L36.784 56.2826C39.7879 53.1731 41.2099 48.8636 40.6464 44.577C40.0947 39.8528 37.9317 35.463 34.5216 32.1472C31.2056 28.7373 26.8159 26.5743 22.0917 26.0224C17.8053 25.4586 13.4958 26.8802 10.3861 29.8837L6.61334 33.6533C0.58454 39.68 1.60001 50.5109 8.87787 57.7888ZM20.3733 28.0672C20.8753 28.0673 21.3769 28.0925 21.8763 28.1429C26.1117 28.6449 30.0448 30.5909 33.0133 33.6533C36.0745 36.6214 38.0204 40.5531 38.5237 44.7872C39.0181 48.4365 37.8224 52.1121 35.2757 54.7722C32.6161 57.319 28.9407 58.5147 25.2917 58.0202C21.0576 57.5162 17.1258 55.5705 14.1568 52.5098C11.0962 49.5408 9.15045 45.6091 8.64641 41.3749C8.15191 37.7256 9.34758 34.0498 11.8944 31.3898C14.1596 29.1883 17.2155 27.9908 20.3733 28.0672ZM6.72001 36.9152C6.4281 38.4547 6.36092 40.0284 6.52054 41.5872C7.07337 46.3114 9.23623 50.7012 12.6453 54.0181C15.9623 57.4272 20.352 59.5901 25.0763 60.1429C25.6587 60.2005 26.2333 60.2293 26.8 60.2293C27.7828 60.2299 28.7635 60.1381 29.7291 59.9552C24.3445 63.4528 16.1557 62.0522 10.3829 56.2805C4.61014 50.5088 3.20961 42.2986 6.72001 36.9152Z" fill="black"/>
<path d="M12.2528 4.54929C9.54456 3.89436 7.21389 4.37329 5.68962 5.89863C4.16535 7.42396 3.68642 9.75356 4.34029 12.4618C5.10024 15.2406 6.59732 17.7623 8.67309 19.76C11.6758 22.7637 15.231 24.3872 18.207 24.3861C19.8123 24.445 21.3734 23.8526 22.5355 22.7434C25.584 19.6928 24.2742 13.6042 19.5488 8.88209C17.5524 6.80586 15.0313 5.30866 12.2528 4.54929ZM21.0272 21.2352C18.8939 23.3632 13.9307 22 10.1814 18.2485C8.38228 16.528 7.08103 14.3537 6.41495 11.9552C5.94029 9.99676 6.21975 8.37969 7.19789 7.40156C7.95829 6.70572 8.96651 6.3448 9.99575 6.39996C10.5882 6.40553 11.1779 6.48107 11.7526 6.62503C14.1513 7.29136 16.3256 8.59298 18.0459 10.3925C21.791 14.1376 23.1574 19.105 21.0272 21.2352Z" fill="black"/>
<path d="M59.3238 9.48043L56.1238 6.28043C52.3168 2.4703 44.6678 4.1599 38.7104 10.1183C36.0772 12.6499 34.1777 15.8465 33.2128 19.3695C32.3968 22.7487 32.9846 25.6458 34.8683 27.5306H34.8736L38.0736 30.7306C39.5141 32.1024 41.4481 32.8334 43.4358 32.7572C47.1798 32.7572 51.6779 30.6943 55.4891 26.8906C61.44 20.9332 63.1296 13.2852 59.3238 9.48043ZM35.2864 19.8698C36.1596 16.7286 37.8635 13.8809 40.2187 11.6266C43.5488 8.29643 47.6278 6.41163 50.8107 6.41163C52.2114 6.3412 53.5816 6.83664 54.6134 7.78656C55.9488 9.12523 56.336 11.3066 55.7014 13.9348C54.8302 17.0765 53.1277 19.925 50.7734 22.1802C45.8294 27.1231 39.2384 28.881 36.3734 26.0202C35.039 24.6836 34.6507 22.4991 35.2864 19.8698ZM39.9723 29.5466C40.0576 29.5466 40.1419 29.5562 40.2294 29.5562C43.9744 29.5562 48.4726 27.4932 52.2827 23.6842C54.9149 21.1524 56.814 17.9563 57.7792 14.434C58.0274 13.4241 58.1414 12.3858 58.1184 11.346C60.5227 14.3668 58.7254 20.626 53.9776 25.3802C49.2438 30.1162 43.007 31.9199 39.9723 29.5466Z" fill="black"/>
<path d="M28.592 0C28.0029 0 27.5253 0.477563 27.5253 1.06667V4.26667C27.5253 4.85577 28.0029 5.33333 28.592 5.33333C29.1811 5.33333 29.6587 4.85577 29.6587 4.26667V1.06667C29.6587 0.477563 29.1811 0 28.592 0Z" fill="black"/>
<path d="M27.5253 11.7332C27.5253 12.3223 28.0029 12.7999 28.592 12.7999C29.1811 12.7999 29.6587 12.3223 29.6587 11.7332V8.53322C29.6587 7.94412 29.1811 7.46655 28.592 7.46655C28.0029 7.46655 27.5253 7.94412 27.5253 8.53322V11.7332Z" fill="black"/>
<path d="M30.7254 7.46659H33.9254C34.5145 7.46659 34.992 6.98902 34.992 6.39992C34.992 5.81081 34.5145 5.33325 33.9254 5.33325H30.7254C30.1363 5.33325 29.6587 5.81081 29.6587 6.39992C29.6587 6.98902 30.1363 7.46659 30.7254 7.46659Z" fill="black"/>
<path d="M26.4587 5.33325H23.2587C22.6696 5.33325 22.192 5.81081 22.192 6.39992C22.192 6.98902 22.6696 7.46659 23.2587 7.46659H26.4587C27.0478 7.46659 27.5254 6.98902 27.5254 6.39992C27.5254 5.81081 27.0478 5.33325 26.4587 5.33325Z" fill="black"/>
<path d="M53.5542 38.7126C53.1376 38.2962 52.4624 38.2962 52.0459 38.7126L49.9126 40.8459C49.6353 41.1137 49.5241 41.5103 49.6217 41.8832C49.7193 42.2562 50.0105 42.5474 50.3835 42.6451C50.7564 42.7427 51.153 42.6315 51.4208 42.3542L53.5542 40.2208C53.9706 39.8043 53.9706 39.1291 53.5542 38.7126Z" fill="black"/>
<path d="M46.7125 44.0459L44.5792 46.1792C44.3019 46.447 44.1907 46.8436 44.2883 47.2166C44.3859 47.5895 44.6772 47.8807 45.0501 47.9784C45.4231 48.076 45.8197 47.9648 46.0875 47.6875L48.2208 45.5542C48.625 45.1356 48.6193 44.4703 48.2078 44.0589C47.7964 43.6474 47.1311 43.6416 46.7125 44.0459Z" fill="black"/>
<path d="M51.4208 44.0459C51.0023 43.6416 50.337 43.6474 49.9255 44.0589C49.5141 44.4703 49.5083 45.1356 49.9126 45.5542L52.0459 47.6875C52.4644 48.0917 53.1297 48.0859 53.5412 47.6745C53.9526 47.263 53.9584 46.5978 53.5542 46.1792L51.4208 44.0459Z" fill="black"/>
<path d="M48.2208 40.8458L46.0875 38.7125C45.6689 38.3083 45.0037 38.3141 44.5922 38.7255C44.1808 39.137 44.175 39.8022 44.5792 40.2208L46.7125 42.3541C47.1311 42.7584 47.7964 42.7526 48.2078 42.3411C48.6193 41.9297 48.6251 41.2644 48.2208 40.8458Z" fill="black"/>
<path d="M19.2565 45.7599C19.5097 45.8865 19.8028 45.9073 20.0713 45.8176C20.3398 45.728 20.5616 45.5353 20.688 45.2821L24.9547 36.7487C25.218 36.2215 25.0041 35.5806 24.4768 35.3173C23.9496 35.0539 23.3087 35.2679 23.0453 35.7951L18.7787 44.3285C18.6521 44.5816 18.6313 44.8747 18.721 45.1432C18.8106 45.4117 19.0033 45.6336 19.2565 45.7599Z" fill="black"/>
<path d="M23.5232 48.9601C23.7764 49.0866 24.0695 49.1074 24.338 49.0178C24.6065 48.9281 24.8283 48.7355 24.9547 48.4822L27.088 44.2155C27.3513 43.6883 27.1374 43.0474 26.6101 42.7841C26.0829 42.5207 25.442 42.7347 25.1787 43.2619L23.0453 47.5286C22.9188 47.7818 22.898 48.0749 22.9876 48.3434C23.0773 48.6118 23.2699 48.8337 23.5232 48.9601Z" fill="black"/>
<path d="M41.184 16.8842C41.299 16.8844 41.4133 16.8657 41.5222 16.8287L50.5728 13.8122C51.1325 13.6257 51.435 13.0209 51.2486 12.4612C51.0621 11.9016 50.4573 11.5991 49.8976 11.7855L40.847 14.8052C40.3502 14.9703 40.0465 15.4715 40.1303 15.9882C40.2141 16.505 40.6605 16.8846 41.184 16.8842Z" fill="black"/>
<path d="M46.1259 18.576L41.6 20.0853C41.238 20.2059 40.9678 20.5105 40.8913 20.8843C40.8147 21.2582 40.9434 21.6444 41.2289 21.8977C41.5143 22.1509 41.9132 22.2326 42.2752 22.112L46.8 20.6037C47.3597 20.4172 47.6622 19.8124 47.4758 19.2528C47.2893 18.6931 46.6845 18.3906 46.1248 18.577L46.1259 18.576Z" fill="black"/>
</g>
<defs>
<clipPath id="clip0_287_66">
<rect width="64" height="64" fill="white"/>
</clipPath>
</defs>
</svg>
