<svg width="50" height="62" viewBox="0 0 50 62" fill="none" xmlns="http://www.w3.org/2000/svg">
<path d="M5.00297 -0.00341514C5.00297 -0.00341514 3.79069 -0.00997641 2.55218 0.609282C1.31367 1.22854 -0.00195312 2.52115 -0.00195312 5.00151V50.9981C-0.00195312 53.472 1.31367 54.7784 2.55218 55.3977C3.79069 56.0169 5.00297 56.003 5.00297 56.003H33.999V54.0025H5.00297C5.00297 54.0025 4.20687 53.9847 3.44539 53.6039C2.6839 53.2231 1.99854 52.5124 1.99854 50.9981V5.00151C1.99854 3.48186 2.6839 2.77644 3.44539 2.3957C4.20687 2.01496 5.00297 1.99708 5.00297 1.99708H44.998C44.998 1.99708 45.7941 2.01495 46.5556 2.3957C47.3171 2.77644 48.0025 3.49821 48.0025 5.00151V50.9981C48.0025 52.51 47.3171 53.2231 46.5556 53.6039C45.7941 53.9846 44.998 54.0025 44.998 54.0025H42.001V56.003H44.998C44.998 56.003 46.2103 56.017 47.4488 55.3977C48.6873 54.7784 50.003 53.4861 50.003 50.9981V5.00151C50.003 2.5345 48.6873 1.22854 47.4488 0.609282C46.2103 -0.00997585 44.998 -0.00341514 44.998 -0.00341514H5.00297Z" fill="black"/>
<path d="M10.9011 13.0034C10.6496 13.0331 10.4186 13.157 10.2549 13.3503C10.0912 13.5436 10.007 13.7918 10.0192 14.0448C10.0313 14.2977 10.1391 14.5367 10.3206 14.7133C10.5021 14.89 10.7438 14.9912 10.9971 14.9965H38.9966C39.1345 15.0082 39.2734 14.9911 39.4043 14.9463C39.5353 14.9015 39.6556 14.83 39.7575 14.7363C39.8594 14.6426 39.9408 14.5288 39.9964 14.4021C40.0521 14.2753 40.0808 14.1384 40.0808 14C40.0808 13.8616 40.0521 13.7246 39.9964 13.5979C39.9408 13.4711 39.8594 13.3573 39.7575 13.2637C39.6556 13.17 39.5353 13.0985 39.4043 13.0537C39.2734 13.0089 39.1345 12.9918 38.9966 13.0034H10.9971C10.9651 13.0019 10.9331 13.0019 10.9011 13.0034Z" fill="black"/>
<path d="M10.9011 20.0015C10.6358 20.0142 10.3865 20.1318 10.2079 20.3284C10.0293 20.525 9.93612 20.7845 9.94884 21.0497C9.96157 21.315 10.0792 21.5644 10.2757 21.743C10.4723 21.9216 10.7318 22.0147 10.9971 22.002H38.9966C39.2619 22.002 39.5163 21.8966 39.7039 21.709C39.8914 21.5215 39.9968 21.267 39.9968 21.0018C39.9968 20.7365 39.8914 20.4821 39.7039 20.2945C39.5163 20.1069 39.2619 20.0015 38.9966 20.0015H10.9971C10.9651 20 10.9331 20 10.9011 20.0015Z" fill="black"/>
<path d="M10.9971 26.9995C10.7318 26.9995 10.4774 27.1049 10.2898 27.2925C10.1022 27.4801 9.99683 27.7345 9.99683 27.9998C9.99683 28.265 10.1022 28.5195 10.2898 28.707C10.4774 28.8946 10.7318 29 10.9971 29H38.9966C39.2619 29 39.5163 28.8946 39.7039 28.707C39.8914 28.5195 39.9968 28.265 39.9968 27.9998C39.9968 27.7345 39.8914 27.4801 39.7039 27.2925C39.5163 27.1049 39.2619 26.9995 38.9966 26.9995H10.9971Z" fill="black"/>
<path d="M23.9523 37.0021C23.7358 37.0123 23.5286 37.0927 23.3617 37.2309L18.2092 41.5198L16.8287 39.4455C16.752 39.3303 16.6523 39.2323 16.5358 39.1577C16.4193 39.0831 16.2885 39.0334 16.1518 39.0119C16.0152 38.9904 15.8755 38.9975 15.7417 39.0327C15.6079 39.068 15.4829 39.1306 15.3745 39.2166L10.377 43.2176C10.2742 43.2995 10.1886 43.4009 10.125 43.5159C10.0614 43.6309 10.0211 43.7573 10.0064 43.8878C9.99164 44.0184 10.0028 44.1506 10.0391 44.2769C10.0755 44.4032 10.1363 44.5211 10.2183 44.6238C10.3002 44.7266 10.4015 44.8122 10.5165 44.8758C10.6315 44.9394 10.7579 44.9797 10.8885 44.9944C11.0191 45.0092 11.1513 44.998 11.2776 44.9617C11.4039 44.9253 11.5218 44.8645 11.6245 44.7826L15.7731 41.4607L17.1683 43.5572C17.2461 43.6734 17.3475 43.7721 17.4658 43.8467C17.5841 43.9214 17.7168 43.9704 17.8552 43.9906C17.9937 44.0108 18.1348 44.0017 18.2695 43.9639C18.4043 43.9261 18.5295 43.8605 18.6373 43.7712L23.5167 39.7038L25.0522 44.3175C25.0936 44.4423 25.1593 44.5577 25.2455 44.6572C25.3316 44.7566 25.4365 44.838 25.5542 44.8968C25.6718 44.9557 25.7999 44.9907 25.9311 44.9999C26.0624 45.0092 26.1941 44.9925 26.3188 44.9507C26.4436 44.909 26.5589 44.843 26.6581 44.7567C26.7573 44.6703 26.8385 44.5653 26.8971 44.4475C26.9557 44.3297 26.9904 44.2015 26.9994 44.0703C27.0083 43.939 26.9913 43.8073 26.9493 43.6827L24.9488 37.6812C24.8792 37.475 24.7443 37.2971 24.5644 37.1745C24.3846 37.0519 24.1696 36.9914 23.9523 37.0021Z" fill="black"/>
<path d="M38 37.002C34.1459 37.002 31.002 40.1458 31.002 44C31.002 47.8541 34.1459 50.998 38 50.998C41.8542 50.998 44.9981 47.8541 44.9981 44C44.9981 40.1458 41.8542 37.002 38 37.002ZM38 39.0024C40.7733 39.0024 42.9976 41.2267 42.9976 44C42.9976 46.7733 40.7733 48.9975 38 48.9975C35.2268 48.9975 33.0025 46.7733 33.0025 44C33.0025 41.2267 35.2268 39.0024 38 39.0024Z" fill="black"/>
<path d="M33.0025 48.001V61.0005C33.0028 61.1708 33.0465 61.3382 33.1296 61.4868C33.2127 61.6355 33.3323 61.7605 33.4772 61.8499C33.6221 61.9394 33.7875 61.9904 33.9576 61.998C34.1277 62.0057 34.297 61.9698 34.4494 61.8937L38 60.1147L41.5507 61.8937C41.7031 61.9698 41.8723 62.0057 42.0425 61.998C42.2126 61.9904 42.3779 61.9394 42.5228 61.8499C42.6677 61.7605 42.7874 61.6355 42.8705 61.4868C42.9536 61.3382 42.9973 61.1708 42.9976 61.0005V48.001H40.9971V59.3838L38.4503 58.1068C38.3107 58.0364 38.1565 57.9997 38 57.9997C37.8436 57.9997 37.6894 58.0364 37.5497 58.1068L35.003 59.3838V48.001H33.0025Z" fill="black"/>
</svg>
