<svg width="64" height="64" viewBox="0 0 64 64" fill="none" xmlns="http://www.w3.org/2000/svg">
<path d="M38.5091 37.675V36.7601C38.5091 36.5612 38.4301 36.3705 38.2895 36.2298C38.1488 36.0891 37.9581 36.0101 37.7591 36.0101C37.5602 36.0101 37.3695 36.0891 37.2288 36.2298C37.0882 36.3705 37.0091 36.5612 37.0091 36.7601V37.6733H36.4216V36.7601C36.4216 36.5612 36.3426 36.3705 36.202 36.2298C36.0613 36.0891 35.8706 36.0101 35.6716 36.0101C35.4727 36.0101 35.282 36.0891 35.1413 36.2298C35.0007 36.3705 34.9216 36.5612 34.9216 36.7601V37.6733H34.4055C34.2066 37.6733 34.0158 37.7523 33.8752 37.8929C33.7345 38.0336 33.6555 38.2243 33.6555 38.4233V44.9363C33.6555 45.1352 33.7345 45.3259 33.8752 45.4666C34.0158 45.6072 34.2066 45.6863 34.4055 45.6863H34.9216V46.6C34.9216 46.7989 35.0007 46.9897 35.1413 47.1303C35.282 47.271 35.4727 47.35 35.6716 47.35C35.8706 47.35 36.0613 47.271 36.202 47.1303C36.3426 46.9897 36.4216 46.7989 36.4216 46.6V45.6863H37.0091V46.6C37.0091 46.7989 37.0882 46.9897 37.2288 47.1303C37.3695 47.271 37.5602 47.35 37.7591 47.35C37.9581 47.35 38.1488 47.271 38.2895 47.1303C38.4301 46.9897 38.5091 46.7989 38.5091 46.6V45.6851C38.9706 45.6795 39.4203 45.5396 39.8034 45.2824C40.1866 45.0252 40.4864 44.6619 40.6663 44.237C40.8462 43.812 40.8983 43.3439 40.8163 42.8898C40.7344 42.4357 40.5218 42.0153 40.2046 41.6801C40.5218 41.3449 40.7344 40.9246 40.8163 40.4705C40.8983 40.0164 40.8462 39.5482 40.6663 39.1233C40.4864 38.6984 40.1866 38.3351 39.8034 38.0779C39.4203 37.8207 38.9706 37.6807 38.5091 37.6751V37.675ZM38.4758 44.1868H35.1549V42.4295H38.4758C38.7087 42.4295 38.9321 42.5221 39.0969 42.6868C39.2616 42.8515 39.3541 43.0749 39.3541 43.3079C39.3541 43.5408 39.2616 43.7643 39.0969 43.929C38.9321 44.0937 38.7087 44.1863 38.4758 44.1863V44.1868ZM38.4758 40.93H35.1549V39.1728H38.4758C38.7087 39.1728 38.9321 39.2653 39.0969 39.43C39.2616 39.5948 39.3541 39.8182 39.3541 40.0511C39.3541 40.2841 39.2616 40.5075 39.0969 40.6722C38.9321 40.837 38.7087 40.9295 38.4758 40.9295V40.93Z" fill="black"/>
<path d="M37.25 30.0797C34.9029 30.0797 32.6085 30.7757 30.657 32.0797C28.7054 33.3837 27.1844 35.237 26.2862 37.4055C25.388 39.5739 25.153 41.96 25.6109 44.262C26.0688 46.564 27.199 48.6785 28.8587 50.3382C30.5183 51.9978 32.6328 53.128 34.9348 53.5859C37.2368 54.0438 39.6229 53.8088 41.7914 52.9106C43.9598 52.0124 45.8132 50.4914 47.1172 48.5399C48.4211 46.5883 49.1171 44.2939 49.1171 41.9468C49.1136 38.8006 47.8622 35.7842 45.6374 33.5594C43.4127 31.3347 40.3963 30.0833 37.25 30.0797ZM37.25 52.314C35.1996 52.314 33.1952 51.7059 31.4903 50.5668C29.7855 49.4276 28.4567 47.8085 27.672 45.9142C26.8874 44.0198 26.6821 41.9353 27.0821 39.9243C27.4821 37.9133 28.4695 36.066 29.9193 34.6162C31.3692 33.1663 33.2165 32.1789 35.2275 31.7789C37.2385 31.3789 39.323 31.5842 41.2173 32.3689C43.1117 33.1535 44.7308 34.4823 45.87 36.1872C47.0091 37.892 47.6171 39.8964 47.6171 41.9468C47.614 44.6954 46.5208 47.3305 44.5772 49.2741C42.6337 51.2176 39.9986 52.3109 37.25 52.314Z" fill="black"/>
<path d="M16.8272 8.1947H9.29285C9.09393 8.1947 8.90317 8.27372 8.76252 8.41437C8.62186 8.55502 8.54285 8.74579 8.54285 8.9447C8.54285 9.14361 8.62186 9.33438 8.76252 9.47503C8.90317 9.61569 9.09393 9.6947 9.29285 9.6947H16.8272C17.0261 9.6947 17.2169 9.61569 17.3576 9.47503C17.4982 9.33438 17.5772 9.14361 17.5772 8.9447C17.5772 8.74579 17.4982 8.55502 17.3576 8.41437C17.2169 8.27372 17.0261 8.1947 16.8272 8.1947Z" fill="black"/>
<path d="M5.85315 8.1947H4.66565C4.46674 8.1947 4.27597 8.27372 4.13532 8.41437C3.99467 8.55502 3.91565 8.74579 3.91565 8.9447C3.91565 9.14361 3.99467 9.33438 4.13532 9.47503C4.27597 9.61569 4.46674 9.6947 4.66565 9.6947H5.85315C6.05206 9.6947 6.24283 9.61569 6.38348 9.47503C6.52413 9.33438 6.60315 9.14361 6.60315 8.9447C6.60315 8.74579 6.52413 8.55502 6.38348 8.41437C6.24283 8.27372 6.05206 8.1947 5.85315 8.1947Z" fill="black"/>
<path d="M58.5304 25.25H52.25V8.46963C52.2486 7.35095 51.8036 6.2785 51.0125 5.48747C50.2215 4.69645 49.1491 4.25142 48.0304 4.25H5.46938C4.35072 4.25129 3.27826 4.69624 2.48725 5.48725C1.69624 6.27826 1.25129 7.35072 1.25 8.46937V34.5375C1.25 36.8601 2.90762 38.75 4.94525 38.75H11.75V55.5304C11.75 56.6495 12.1946 57.7227 12.9859 58.5141C13.7773 59.3054 14.8505 59.75 15.9696 59.75H58.5304C59.6495 59.75 60.7227 59.3054 61.5141 58.5141C62.3054 57.7227 62.75 56.6495 62.75 55.5304V29.4696C62.75 28.3505 62.3054 27.2773 61.5141 26.4859C60.7227 25.6946 59.6495 25.25 58.5304 25.25ZM2.75 8.46937C2.75079 7.7484 3.03755 7.05717 3.54736 6.54736C4.05717 6.03755 4.7484 5.75079 5.46938 5.75H48.0304C48.7514 5.75079 49.4427 6.03758 49.9526 6.54744C50.4624 7.05729 50.7492 7.74858 50.75 8.46963V12.2393H2.75V8.46937ZM2.75 13.7393H50.75V18.2393H2.75V13.7393ZM15.9696 58.25C15.2486 58.2492 14.5573 57.9624 14.0474 57.4526C13.5376 56.9427 13.2508 56.2514 13.25 55.5304V51.5326C14.9698 51.7084 16.5761 52.4731 17.7968 53.6972C19.0175 54.9213 19.7777 56.5297 19.9486 58.25H15.9696ZM61.25 55.5304C61.2492 56.2514 60.9624 56.9427 60.4526 57.4526C59.9427 57.9624 59.2514 58.2492 58.5304 58.25H54.5514C54.7223 56.5297 55.4825 54.9213 56.7032 53.6972C57.9239 52.4731 59.5302 51.7084 61.25 51.5326V55.5304ZM61.25 50.0288C59.1318 50.209 57.1459 51.1335 55.6444 52.6384C54.1428 54.1434 53.2228 56.1314 53.0474 58.25H21.4526C21.2772 56.1314 20.3572 54.1434 18.8556 52.6384C17.3541 51.1335 15.3682 50.209 13.25 50.0288V34.951C15.3647 34.7711 17.3478 33.8493 18.8485 32.3485C20.3493 30.8478 21.2711 28.8647 21.451 26.75H40.1041C40.303 26.75 40.4938 26.671 40.6345 26.5303C40.7751 26.3897 40.8541 26.1989 40.8541 26C40.8541 25.8011 40.7751 25.6103 40.6345 25.4697C40.4938 25.329 40.303 25.25 40.1041 25.25H15.1469C14.246 25.25 13.382 25.6079 12.7449 26.2449C12.1079 26.882 11.75 27.746 11.75 28.6469V37.25H4.94525C3.75525 37.25 2.75 36.0077 2.75 34.5375V19.7393H50.75V25.25H46.3541C46.1552 25.25 45.9644 25.329 45.8238 25.4697C45.6831 25.6103 45.6041 25.8011 45.6041 26C45.6041 26.1989 45.6831 26.3897 45.8238 26.5303C45.9644 26.671 46.1552 26.75 46.3541 26.75H53.049C53.2289 28.8647 54.1507 30.8478 55.6515 32.3485C57.1522 33.8493 59.1353 34.7711 61.25 34.951V50.0288ZM13.25 33.447V28.647C13.2506 28.1441 13.4506 27.6619 13.8062 27.3063C14.1618 26.9507 14.644 26.7506 15.1469 26.75H19.9469C19.7715 28.4664 19.0096 30.0697 17.7896 31.2897C16.5697 32.5097 14.9663 33.2716 13.25 33.447ZM61.25 33.447C59.5336 33.2717 57.9302 32.5097 56.7102 31.2898C55.4902 30.0698 54.7283 28.4664 54.5529 26.75H58.5304C59.2514 26.7508 59.9427 27.0376 60.4526 27.5474C60.9624 28.0573 61.2492 28.7486 61.25 29.4696V33.447Z" fill="black"/>
</svg>
