<svg width="64" height="64" viewBox="0 0 64 64"  xmlns="http://www.w3.org/2000/svg">
<path d="M15.6125 2.30005C7 2.30005 0.25 5.90005 0.25 10.4875V53.5C0.25 58.1 7 61.6875 15.6125 61.6875C24.225 61.6875 30.975 58.0876 30.975 53.5V10.4875C30.975 5.90005 24.225 2.30005 15.6125 2.30005ZM28.925 53.5126C28.925 56.4751 23.575 59.6625 15.6125 59.6625C7.65 59.6625 2.3 56.4751 2.3 53.5126V51.5C4.925 53.9501 9.85 55.5625 15.6125 55.5625C21.375 55.5625 26.3 53.9501 28.925 51.5V53.5126ZM28.925 47.3625C28.925 50.3251 23.575 53.5126 15.6125 53.5126C7.65 53.5126 2.3 50.3251 2.3 47.3625V45.35C4.925 47.8 9.85 49.4125 15.6125 49.4125C21.375 49.4125 26.3 47.8 28.925 45.35V47.3625ZM28.925 41.2126C28.925 44.1751 23.575 47.3625 15.6125 47.3625C7.65 47.3625 2.3 44.1875 2.3 41.2126V39.2001C4.925 41.6501 9.85 43.2626 15.6125 43.2626C21.375 43.2626 26.3 41.6501 28.925 39.2001V41.2126ZM28.925 35.0751C28.925 38.0376 23.575 41.225 15.6125 41.225C7.65 41.225 2.3 38.0376 2.3 35.0751V33.0625C4.925 35.5 9.85 37.125 15.6125 37.125C21.375 37.125 26.3 35.5126 28.925 33.0625V35.0751ZM28.925 28.925C28.925 31.8875 23.575 35.0751 15.6125 35.0751C7.65 35.0751 2.3 31.9 2.3 28.925V26.9125C4.925 29.3626 9.85 30.975 15.6125 30.975C21.375 30.975 26.3 29.3626 28.925 26.9125V28.925ZM28.925 22.7875C28.925 25.75 23.575 28.9375 15.6125 28.9375C7.65 28.9375 2.3 25.75 2.3 22.7875V20.775C4.925 23.225 9.85 24.8375 15.6125 24.8375C21.375 24.8375 26.3 23.225 28.925 20.775V22.7875ZM28.925 16.6375C28.925 19.6 23.575 22.7875 15.6125 22.7875C7.65 22.7875 2.3 19.6 2.3 16.6375V14.625C4.925 17.075 9.85 18.6875 15.6125 18.6875C21.375 18.6875 26.3 17.075 28.925 14.625V16.6375ZM15.6125 16.6375C7.65 16.6375 2.3 13.4625 2.3 10.4875C2.3 7.52505 7.65 4.33755 15.6125 4.33755C23.575 4.33755 28.925 7.51255 28.925 10.4875C28.925 13.4625 23.575 16.6375 15.6125 16.6375Z" />
<path d="M48.3875 26.875C39.775 26.875 33.025 30.475 33.025 35.0625V53.5C33.025 58.1 39.775 61.6875 48.3875 61.6875C57 61.6875 63.75 58.1 63.75 53.5125V35.075C63.75 30.475 57 26.875 48.3875 26.875ZM61.7 53.5125C61.7 56.475 56.35 59.6625 48.3875 59.6625C40.425 59.6625 35.075 56.4875 35.075 53.5125V51.5C37.7 53.95 42.625 55.5625 48.3875 55.5625C54.15 55.5625 59.075 53.95 61.7 51.5V53.5125ZM61.7 47.3625C61.7 50.325 56.35 53.5125 48.3875 53.5125C40.425 53.5125 35.075 50.3375 35.075 47.3625V45.35C37.7 47.8 42.625 49.4125 48.3875 49.4125C54.15 49.4125 59.075 47.8 61.7 45.35V47.3625ZM61.7 41.2125C61.7 44.175 56.35 47.3625 48.3875 47.3625C40.425 47.3625 35.075 44.1875 35.075 41.2125V39.2C37.7 41.65 42.625 43.2625 48.3875 43.2625C54.15 43.2625 59.075 41.65 61.7 39.2V41.2125ZM48.3875 41.2125C40.425 41.2125 35.075 38.0375 35.075 35.0625C35.075 32.1 40.425 28.9125 48.3875 28.9125C56.35 28.9125 61.7 32.0875 61.7 35.0625C61.7 38.0375 56.35 41.2125 48.3875 41.2125Z" />
</svg>
