<svg width="24" height="24" viewBox="0 0 24 24" fill="none" xmlns="http://www.w3.org/2000/svg">
<path d="M22.9874 10.9997C22.7222 10.9997 22.4679 11.1051 22.2803 11.2926C22.0928 11.4801 21.9874 11.7345 21.9874 11.9997C21.9956 14.3249 21.1959 16.5808 19.725 18.3817C18.2542 20.1826 16.2035 21.4168 13.9235 21.8733C11.6436 22.3297 9.27582 21.9802 7.22501 20.8843C5.1742 19.7885 3.56766 18.0144 2.67997 15.8653C1.79228 13.7162 1.67857 11.3254 2.35826 9.10178C3.03795 6.87811 4.46886 4.95953 6.40639 3.67398C8.34393 2.38842 10.6678 1.81571 12.9808 2.05372C15.2938 2.29173 17.4524 3.32569 19.0875 4.97887C19.0546 4.98785 19.0212 4.99486 18.9875 4.99987H15.9876C15.7224 4.99987 15.468 5.10523 15.2805 5.29276C15.093 5.48029 14.9876 5.73464 14.9876 5.99985C14.9876 6.26506 15.093 6.51941 15.2805 6.70694C15.468 6.89447 15.7224 6.99982 15.9876 6.99982H18.9875C19.7832 6.99982 20.5462 6.68376 21.1088 6.12117C21.6714 5.55857 21.9874 4.79553 21.9874 3.9999V0.999975C21.9874 0.734765 21.8821 0.480417 21.6946 0.292886C21.507 0.105354 21.2527 0 20.9875 0C20.7223 0 20.4679 0.105354 20.2804 0.292886C20.0929 0.480417 19.9875 0.734765 19.9875 0.999975V3.06492C17.9401 1.2345 15.3265 0.162162 12.5835 0.0271019C9.84054 -0.107959 7.13427 0.702439 4.91696 2.32288C2.69965 3.94331 1.10561 6.27563 0.401219 8.93008C-0.303172 11.5845 -0.0752498 14.4003 1.0469 16.9069C2.16905 19.4135 4.11745 21.4591 6.56652 22.7018C9.01559 23.9445 11.817 24.3091 14.5025 23.7347C17.1881 23.1602 19.5952 21.6815 21.3215 19.5456C23.0479 17.4097 23.9889 14.746 23.9874 11.9997C23.9874 11.7345 23.882 11.4801 23.6945 11.2926C23.507 11.1051 23.2526 10.9997 22.9874 10.9997Z" fill="#D288FF"/>
<path d="M11.9877 5.99976C11.7225 5.99976 11.4681 6.10511 11.2806 6.29264C11.0931 6.48017 10.9877 6.73452 10.9877 6.99973V11.9996C10.9878 12.2648 11.0932 12.5191 11.2807 12.7066L14.2806 15.7065C14.4692 15.8887 14.7218 15.9895 14.984 15.9872C15.2462 15.9849 15.497 15.8797 15.6824 15.6943C15.8678 15.5089 15.973 15.2581 15.9753 14.9959C15.9776 14.7337 15.8768 14.4811 15.6946 14.2925L12.9877 11.5856V6.99973C12.9877 6.73452 12.8823 6.48017 12.6948 6.29264C12.5073 6.10511 12.2529 5.99976 11.9877 5.99976Z" fill="#D288FF"/>
</svg>
