<svg width="52" height="62" viewBox="0 0 52 62" fill="none" xmlns="http://www.w3.org/2000/svg">
<path d="M29.5865 4.93422H30.6297C31.0282 4.93422 31.3515 4.61097 31.3515 4.21247C31.3515 3.81397 31.0282 3.49072 30.6297 3.49072H29.5865C29.188 3.49072 28.8647 3.81397 28.8647 4.21247C28.8647 4.61097 29.188 4.93422 29.5865 4.93422Z" fill="black"/>
<path d="M14.4685 4.93422H25.8948C26.2933 4.93422 26.6165 4.61097 26.6165 4.21247C26.6165 3.81397 26.2933 3.49072 25.8948 3.49072H14.4685C14.07 3.49072 13.7467 3.81397 13.7467 4.21247C13.7467 4.61097 14.07 4.93422 14.4685 4.93422Z" fill="black"/>
<path d="M22.5521 52.9878C21.163 52.9878 20.0334 54.1175 20.0334 55.5057C20.0334 56.8948 21.1631 58.0244 22.5521 58.0244C23.9375 58.0244 25.0649 56.8947 25.0649 55.5057C25.0649 54.1175 23.9375 52.9878 22.5521 52.9878ZM22.5521 56.5808C21.9591 56.5808 21.4769 56.0987 21.4769 55.5055C21.4769 54.9134 21.959 54.4313 22.5521 54.4313C23.1414 54.4313 23.6213 54.9134 23.6213 55.5055C23.6213 56.0987 23.1415 56.5808 22.5521 56.5808Z" fill="black"/>
<path d="M22.5451 10.0686C20.2599 10.0686 18.4009 11.9314 18.4009 14.2209C18.4009 16.5066 20.2599 18.3656 22.5451 18.3656C24.8351 18.3656 26.6979 16.5066 26.6979 14.2209C26.6979 11.9314 24.835 10.0686 22.5451 10.0686ZM22.5451 16.922C21.0559 16.922 19.8445 15.7105 19.8445 14.2209C19.8445 12.7275 21.056 11.5122 22.5451 11.5122C24.039 11.5122 25.2543 12.7275 25.2543 14.2209C25.2543 15.7105 24.039 16.922 22.5451 16.922Z" fill="black"/>
<path d="M15.3323 28.1213C15.3323 28.5198 15.6555 28.843 16.054 28.843H29.0441H29.0634C29.4619 28.843 29.7851 28.5198 29.7851 28.1213C29.7851 28.062 29.7781 28.0048 29.7645 27.9493C29.6902 23.1044 26.4787 19.1918 22.5417 19.1918C18.5662 19.1918 15.3323 23.1974 15.3323 28.1213ZM28.2956 27.3994H16.8026C17.0828 23.609 19.5498 20.6353 22.5419 20.6353C25.5414 20.6354 28.0146 23.609 28.2956 27.3994Z" fill="black"/>
<path d="M9.21475 34.7894H35.8835C36.282 34.7894 36.6053 34.4662 36.6053 34.0677C36.6053 33.6692 36.282 33.3459 35.8835 33.3459H9.21475C8.81625 33.3459 8.493 33.6692 8.493 34.0677C8.493 34.4661 8.81625 34.7894 9.21475 34.7894Z" fill="black"/>
<path d="M9.21475 41.4079H35.8835C36.282 41.4079 36.6053 41.0846 36.6053 40.6861C36.6053 40.2876 36.282 39.9644 35.8835 39.9644H9.21475C8.81625 39.9644 8.493 40.2876 8.493 40.6861C8.493 41.0846 8.81625 41.4079 9.21475 41.4079Z" fill="black"/>
<path d="M29.1616 46.5836H15.9365C15.538 46.5836 15.2147 46.9069 15.2147 47.3054C15.2147 47.7039 15.538 48.0271 15.9365 48.0271H29.1616C29.5601 48.0271 29.8834 47.7039 29.8834 47.3054C29.8835 46.907 29.5601 46.5836 29.1616 46.5836Z" fill="black"/>
<path d="M0 4.57137V56.5414C0 59.062 2.05075 61.1127 4.57137 61.1127H40.5267C43.0474 61.1127 45.0981 59.062 45.0981 56.5414V22.4608C48.8969 22.0983 51.8786 18.8875 51.8786 14.9906C51.8786 11.0981 48.8969 7.892 45.0981 7.52975V4.57137C45.0981 2.05075 43.0474 0 40.5267 0H4.57137C2.05075 0 0 2.05075 0 4.57137ZM44.3816 8.937C47.7195 8.937 50.4352 11.6523 50.4352 14.9906C50.4352 18.3336 47.7195 21.0536 44.3816 21.0536C41.0381 21.0536 38.3181 18.3338 38.3181 14.9906C38.3181 11.6523 41.038 8.937 44.3816 8.937ZM1.44362 4.57137C1.44362 2.84675 2.84687 1.4435 4.5715 1.4435H40.5269C42.2515 1.4435 43.6547 2.84675 43.6547 4.57137V7.53013C39.8552 7.8965 36.8746 11.1013 36.8746 14.9905C36.8746 18.8843 39.8551 22.0933 43.6547 22.4603V56.5414C43.6547 58.266 42.2515 59.6693 40.5269 59.6693H4.57137C2.84675 59.6693 1.4435 58.266 1.4435 56.5414L1.44362 4.57137Z" fill="black"/>
<path d="M42.82 17.2952C43.102 17.5772 43.5588 17.5772 43.8406 17.2952L47.4205 13.7153C47.7025 13.4333 47.7025 12.9765 47.4205 12.6947C47.1385 12.4127 46.6818 12.4127 46.3999 12.6947L43.3304 15.7642L42.3534 14.7877C42.0714 14.5057 41.6146 14.5057 41.3328 14.7877C41.0508 15.0697 41.0508 15.5264 41.3328 15.8083L42.82 17.2952Z" fill="black"/>
</svg>
