<svg width="64" height="64" viewBox="0 0 64 64"  xmlns="http://www.w3.org/2000/svg">
<g clip-path="url(#clip0_287_60)">
<path d="M29.25 49H19.75C19.5511 49 19.3603 49.079 19.2197 49.2197C19.079 49.3603 19 49.5511 19 49.75C19 49.9489 19.079 50.1397 19.2197 50.2803C19.3603 50.421 19.5511 50.5 19.75 50.5H29.25C29.4489 50.5 29.6397 50.421 29.7803 50.2803C29.921 50.1397 30 49.9489 30 49.75C30 49.5511 29.921 49.3603 29.7803 49.2197C29.6397 49.079 29.4489 49 29.25 49Z" />
<path d="M20.3435 34.357C20.9026 34.9224 21.6616 35.2454 22.4567 35.2561C23.2518 35.2669 24.0193 34.9646 24.5935 34.4145L32.4105 27.005C32.705 26.731 32.9424 26.4013 33.1088 26.035C33.2752 25.6688 33.3674 25.2732 33.38 24.8711C33.3927 24.469 33.3256 24.0684 33.1825 23.6923C33.0395 23.3163 32.8234 22.9724 32.5466 22.6804C32.2699 22.3884 31.9381 22.1541 31.5703 21.9911C31.2025 21.828 30.8061 21.7395 30.4039 21.7305C30.0017 21.7215 29.6017 21.7923 29.2271 21.9388C28.8524 22.0853 28.5104 22.3046 28.221 22.584L22.5535 27.955L20.84 26.241C20.5576 25.9565 20.2219 25.7305 19.852 25.576C19.4821 25.4216 19.0854 25.3417 18.6846 25.3409C18.2837 25.3401 17.8867 25.4185 17.5162 25.5715C17.1457 25.7246 16.8091 25.9492 16.5257 26.2326C16.2422 26.5161 16.0175 26.8526 15.8644 27.2231C15.7114 27.5936 15.6329 27.9906 15.6337 28.3914C15.6344 28.7923 15.7143 29.189 15.8687 29.5589C16.0231 29.9288 16.249 30.2646 16.5335 30.547L20.3435 34.357ZM17.5935 27.302C17.8878 27.0208 18.2792 26.8639 18.6862 26.8639C19.0933 26.8639 19.4847 27.0208 19.779 27.302L22.009 29.5315C22.1471 29.6697 22.3337 29.7485 22.529 29.7512C22.7244 29.7539 22.9131 29.6803 23.055 29.546L29.255 23.673C29.4017 23.5305 29.5752 23.4186 29.7655 23.3438C29.9558 23.2689 30.159 23.2326 30.3635 23.2368C30.5679 23.2411 30.7695 23.2859 30.9565 23.3687C31.1435 23.4514 31.3122 23.5705 31.4528 23.7189C31.5934 23.8674 31.7032 24.0422 31.7757 24.2334C31.8483 24.4246 31.8821 24.6283 31.8754 24.8327C31.8686 25.037 31.8213 25.238 31.7363 25.424C31.6512 25.6099 31.5301 25.7772 31.38 25.916L23.5595 33.3255C23.268 33.604 22.8789 33.757 22.4758 33.7516C22.0727 33.7462 21.6878 33.5828 21.404 33.2965L17.594 29.4865C17.3043 29.1964 17.1415 28.8032 17.1415 28.3932C17.1415 27.9833 17.3043 27.59 17.594 27.3L17.5935 27.302Z" />
<path d="M13.75 57H21.766C24.9185 63.891 33.6825 62.9415 35.916 62.575C36.8605 63.534 37.81 64 38.786 64H56.586C57.3272 63.9993 58.0516 63.7791 58.6677 63.367C59.2837 62.9549 59.7639 62.3694 60.0474 61.6846C60.331 60.9998 60.4052 60.2463 60.2608 59.5193C60.1164 58.7923 59.7598 58.1244 59.236 57.6L49.9735 48.333C49.331 39.3 48.365 36.7895 45.5 33.469V24.583C45.5106 24.1174 45.4278 23.6543 45.2565 23.2212C45.0852 22.7881 44.8289 22.3937 44.5027 22.0613C44.1764 21.7289 43.7869 21.4652 43.357 21.2858C42.9272 21.1065 42.4658 21.0151 42 21.017V6.75C41.998 4.9604 41.2862 3.24466 40.0208 1.97922C38.7553 0.713781 37.0396 0.00198514 35.25 0L13.75 0C11.9604 0.00198514 10.2447 0.713781 8.97922 1.97922C7.71378 3.24466 7.00198 4.9604 7 6.75V16.4265C6.27849 16.4238 5.57659 16.6613 5.00493 17.1015C4.43326 17.5417 4.02434 18.1596 3.8426 18.8578C3.66086 19.5561 3.71664 20.295 4.00115 20.958C4.28566 21.6211 4.78272 22.1706 5.414 22.52C4.895 22.7869 4.45758 23.1888 4.14779 23.6834C3.838 24.178 3.66731 24.747 3.6537 25.3305C3.64009 25.9139 3.78405 26.4903 4.07043 26.9988C4.35681 27.5073 4.77501 27.9292 5.281 28.22L5.502 28.3475C4.94892 28.6306 4.48922 29.0672 4.178 29.605C3.7512 30.3524 3.63673 31.2381 3.85948 32.0694C4.08223 32.9008 4.62419 33.6106 5.3675 34.0445L5.484 34.1115C4.96395 34.3774 4.52529 34.7787 4.2143 35.2732C3.90331 35.7676 3.73151 36.3368 3.71702 36.9207C3.70254 37.5046 3.84589 38.0816 4.13198 38.5908C4.41807 39.1 4.83627 39.5226 5.3425 39.814L7 40.771V50.25C7.00198 52.0396 7.71378 53.7553 8.97922 55.0208C10.2447 56.2862 11.9604 56.998 13.75 57ZM44 24.6V33.75C44.0001 33.932 44.0664 34.1078 44.1865 34.2445C46.8455 37.2755 47.8365 39.186 48.497 48.717C48.5095 48.8976 48.587 49.0675 48.715 49.1955L58.178 58.659C58.4926 58.9736 58.7069 59.3745 58.7938 59.8109C58.8806 60.2473 58.8361 60.6997 58.6658 61.1108C58.4956 61.5219 58.2073 61.8733 57.8374 62.1206C57.4674 62.3679 57.0325 62.4999 56.5875 62.5H38.8825C38.2065 62.5275 37.5085 62.124 36.745 61.266C36.6582 61.1685 36.5475 61.0954 36.4237 61.0538C36.3 61.0123 36.1675 61.0037 36.0395 61.029C35.045 61.225 26.675 62.685 23.4495 56.9995H35.25C35.5286 56.9975 35.8068 56.978 36.083 56.941C36.2515 57.4442 36.4538 57.9355 36.6885 58.4115C36.7779 58.5892 36.9343 58.7241 37.1232 58.7865C37.3121 58.8489 37.5181 58.8337 37.6957 58.7443C37.8734 58.6548 38.0083 58.4984 38.0707 58.3095C38.1331 58.1206 38.1179 57.9147 38.0285 57.737C35.4885 52.693 37.4465 46.1035 39.8945 41.993C39.9635 41.8771 39.9999 41.7448 40 41.61V24.5295C40.0046 24.2669 40.0609 24.0077 40.1657 23.7668C40.2705 23.5259 40.4217 23.3081 40.6107 23.1256C40.7997 22.9432 41.0228 22.7997 41.2672 22.7035C41.5116 22.6073 41.7726 22.5601 42.0352 22.5648C42.2979 22.5694 42.5571 22.6257 42.7979 22.7305C43.0388 22.8353 43.2567 22.9865 43.4391 23.1755C43.6216 23.3645 43.765 23.5875 43.8612 23.8319C43.9575 24.0764 44.0046 24.3374 44 24.6ZM32.0555 1.5L31.0165 3.4355C30.7897 3.89183 30.4436 4.27823 30.0148 4.55369C29.5861 4.82914 29.0908 4.98337 28.5815 5H20.034C19.5249 4.98314 19.0298 4.82881 18.6013 4.55337C18.1728 4.27793 17.8268 3.89165 17.6 3.4355L16.5605 1.5H32.0555ZM8.5 6.75C8.50159 5.3581 9.05522 4.02367 10.0394 3.03944C11.0237 2.05522 12.3581 1.50159 13.75 1.5H14.8585L16.278 4.1445C16.6323 4.84023 17.1688 5.42677 17.8303 5.84159C18.4918 6.25642 19.2534 6.48397 20.034 6.5H28.584C29.3647 6.4839 30.1263 6.25632 30.7878 5.84151C31.4494 5.4267 31.986 4.8402 32.3405 4.1445L33.757 1.5H35.25C36.6419 1.50159 37.9763 2.05522 38.9606 3.03944C39.9448 4.02367 40.4984 5.3581 40.5 6.75V21.344C39.8998 21.6238 39.3923 22.0698 39.0378 22.6291C38.6834 23.1885 38.4967 23.8378 38.5 24.5V41.4055C36.35 45.0945 34.6205 50.5695 35.6735 55.476C35.5315 55.488 35.3895 55.5 35.25 55.5H13.75C12.3581 55.4984 11.0237 54.9448 10.0394 53.9606C9.05522 52.9763 8.50159 51.6419 8.5 50.25V41.637C8.5 41.637 9.3155 42.1045 9.5855 42.2635C9.95536 42.4837 10.3653 42.6282 10.7914 42.6887C11.2176 42.7491 11.6515 42.7243 12.0681 42.6157C12.4846 42.5071 12.8753 42.3168 13.2177 42.056C13.5601 41.7951 13.8472 41.4688 14.0625 41.096C14.2777 40.7233 14.4167 40.3115 14.4715 39.8845C14.5263 39.4576 14.4957 39.024 14.3816 38.609C14.2675 38.194 14.072 37.8058 13.8066 37.4669C13.5412 37.128 13.2111 36.8453 12.8355 36.635L12.7215 36.569C13.2406 36.302 13.6782 35.9001 13.9883 35.4055C14.2984 34.9109 14.4696 34.342 14.4839 33.7584C14.4982 33.1748 14.355 32.5982 14.0694 32.089C13.7839 31.5799 13.3664 31.1571 12.861 30.865L12.642 30.739C13.1643 30.4687 13.6034 30.0617 13.9126 29.5614C14.2218 29.0612 14.3895 28.4864 14.3978 27.8984C14.406 27.3103 14.2546 26.731 13.9596 26.2223C13.6645 25.7136 13.237 25.2944 12.7225 25.0095C13.2402 24.7414 13.6763 24.339 13.985 23.8444C14.2937 23.3498 14.4637 22.7813 14.4771 22.1985C14.4906 21.6156 14.347 21.0399 14.0614 20.5316C13.7758 20.0233 13.3588 19.6012 12.854 19.3095L8.611 16.8595C8.5745 16.8385 8.537 16.822 8.5 16.8025V6.75ZM5.47 18.8C5.70459 18.4007 6.08683 18.1096 6.53418 17.9897C6.98153 17.8697 7.4581 17.9306 7.861 18.159L12.104 20.609C12.3046 20.7231 12.4807 20.8757 12.6221 21.0581C12.7635 21.2405 12.8674 21.4491 12.9279 21.6718C12.9884 21.8945 13.0042 22.127 12.9745 22.3559C12.9447 22.5847 12.87 22.8055 12.7546 23.0053C12.6392 23.2052 12.4854 23.3803 12.3021 23.5205C12.1187 23.6606 11.9095 23.7632 11.6864 23.8222C11.4632 23.8812 11.2306 23.8954 11.002 23.8642C10.7733 23.8329 10.5531 23.7567 10.354 23.64L6.111 21.19C5.71083 20.9564 5.41903 20.5744 5.299 20.1268C5.17897 19.6793 5.24042 19.2025 5.47 18.8ZM5.3895 24.529C5.62318 24.1285 6.00552 23.8365 6.45337 23.7165C6.90122 23.5964 7.37836 23.6581 7.781 23.888L12.0235 26.338C12.2241 26.4521 12.4002 26.6047 12.5416 26.7871C12.683 26.9695 12.7869 27.1781 12.8474 27.4008C12.9079 27.6235 12.9237 27.856 12.894 28.0849C12.8642 28.3137 12.7895 28.5345 12.6741 28.7343C12.5587 28.9342 12.4049 29.1093 12.2216 29.2495C12.0382 29.3896 11.829 29.4922 11.6059 29.5512C11.3827 29.6102 11.1501 29.6244 10.9215 29.5932C10.6928 29.5619 10.4726 29.4857 10.2735 29.369L6.031 26.919C5.62964 26.6865 5.33678 26.3045 5.21654 25.8565C5.0963 25.4086 5.15849 24.9312 5.3895 24.529ZM5.477 30.355C5.71158 29.9558 6.09377 29.6648 6.54103 29.545C6.98829 29.4252 7.46474 29.486 7.8675 29.7145L12.111 32.1645C12.513 32.3966 12.8063 32.7788 12.9265 33.2272C13.0467 33.6755 12.9838 34.1532 12.7517 34.5552C12.6368 34.7543 12.4839 34.9288 12.3015 35.0687C12.1192 35.2086 11.9111 35.3113 11.6891 35.3708C11.2407 35.4909 10.763 35.4281 10.361 35.196L6.1175 32.746C5.71735 32.5121 5.42563 32.1299 5.3057 31.6822C5.18578 31.2345 5.24733 30.7576 5.477 30.355ZM6.0925 38.515C5.89187 38.4009 5.71578 38.2483 5.57438 38.0659C5.43298 37.8835 5.32905 37.6749 5.26858 37.4522C5.20811 37.2295 5.1923 36.997 5.22204 36.7681C5.25179 36.5393 5.32651 36.3185 5.44191 36.1187C5.55731 35.9188 5.7111 35.7437 5.89443 35.6035C6.07777 35.4634 6.28702 35.3608 6.51014 35.3018C6.73327 35.2428 6.96585 35.2286 7.19452 35.2598C7.42318 35.2911 7.6434 35.3673 7.8425 35.484L12.0855 37.934C12.4875 38.1661 12.7808 38.5483 12.901 38.9967C13.0212 39.445 12.9583 39.9227 12.7262 40.3247C12.4942 40.7267 12.1119 41.0201 11.6636 41.1403C11.2152 41.2604 10.7375 41.1976 10.3355 40.9655C9.281 40.341 6.0925 38.515 6.0925 38.515Z" />
</g>
<defs>
<clipPath id="clip0_287_60">
<rect width="64" height="64" fill="white"/>
</clipPath>
</defs>
</svg>
