<svg width="74" height="74" viewBox="0 0 74 74"  xmlns="http://www.w3.org/2000/svg">
<path d="M37.1301 1.58404C35.6322 1.30799 34.0287 1.60217 32.68 2.53361L27.2124 6.30009C27.0508 6.41147 26.9401 6.58244 26.9046 6.77542C26.8691 6.9684 26.9117 7.16757 27.023 7.32915C27.1344 7.4907 27.3054 7.60139 27.4983 7.6369C27.6913 7.6724 27.8905 7.62981 28.0521 7.51849L33.5211 3.75201C35.5598 2.34408 38.3275 2.85561 39.7288 4.8938C39.7288 4.89428 39.7288 4.89477 39.7288 4.89525L41.4082 7.32915C41.4634 7.40934 41.5338 7.47786 41.6155 7.53079C41.6972 7.58372 41.7885 7.62002 41.8842 7.6376C41.9799 7.65519 42.0782 7.65372 42.1733 7.63328C42.2685 7.61284 42.3587 7.57383 42.4387 7.51849C42.6 7.40689 42.7104 7.23581 42.7457 7.04285C42.7809 6.84989 42.7381 6.65083 42.6266 6.48943L40.9486 4.05552L40.9471 4.05408C40.0198 2.7062 38.6273 1.85997 37.1301 1.58404Z" />
<path d="M32.1091 66.3658C31.9161 66.3304 31.717 66.373 31.5555 66.4843C31.3942 66.5959 31.2838 66.767 31.2486 66.96C31.2133 67.1529 31.2562 67.352 31.3676 67.5134L33.0471 69.9487C34.9095 72.6455 38.6233 73.3232 41.3201 71.4692L46.7819 67.7027C46.9434 67.5913 47.0541 67.4204 47.0896 67.2274C47.1251 67.0344 47.0825 66.8352 46.9712 66.6737C46.8598 66.5121 46.6889 66.4014 46.4959 66.3659C46.3029 66.3304 46.1037 66.373 45.9422 66.4843L40.4803 70.2508C38.4412 71.6518 35.6736 71.1464 34.2655 69.1076L32.5846 66.6737C32.5294 66.5936 32.459 66.5253 32.3775 66.4724C32.2959 66.4196 32.2047 66.3834 32.1091 66.3658Z" />
<path d="M15.3724 14.4546L6.32181 20.6926C6.32133 20.6931 6.32085 20.6936 6.32037 20.694C3.63174 22.5567 2.94542 26.2687 4.80134 28.9598L15.183 44.0257C15.2944 44.1872 15.4654 44.2979 15.6583 44.3334C15.8513 44.3689 16.0505 44.3264 16.2121 44.215C16.3736 44.1037 16.4843 43.9327 16.5198 43.7397C16.5553 43.5467 16.5127 43.3475 16.4014 43.186L6.01974 28.12C4.61967 26.0899 5.13041 23.3191 7.16298 21.911L16.2121 15.673C16.3736 15.5616 16.4843 15.3906 16.5198 15.1977C16.5553 15.0047 16.5127 14.8055 16.4014 14.6439C16.29 14.4824 16.1191 14.3717 15.9261 14.3362C15.7331 14.3007 15.5339 14.3433 15.3724 14.4546Z" />
<path d="M58.3429 29.6766C58.15 29.6412 57.9509 29.6838 57.7894 29.7951C57.6278 29.9065 57.5171 30.0775 57.4816 30.2704C57.4461 30.4634 57.4887 30.6626 57.6 30.8242L67.9745 45.8757C67.9745 45.8762 67.9745 45.8766 67.9745 45.8771C69.3824 47.9158 68.8709 50.6821 66.8327 52.0833L57.7894 58.314C57.7092 58.3692 57.6407 58.4396 57.5877 58.5213C57.5348 58.603 57.4985 58.6943 57.4809 58.79C57.4633 58.8857 57.4648 58.984 57.4853 59.0791C57.5057 59.1743 57.5447 59.2645 57.6 59.3445C57.7114 59.5061 57.8824 59.6168 58.0754 59.6523C58.2684 59.6878 58.4675 59.6452 58.6291 59.5339L67.671 53.3031C70.3688 51.4484 71.0558 47.7333 69.1929 45.0359L58.8184 29.9845C58.7633 29.9044 58.6929 29.836 58.6113 29.7832C58.5297 29.7304 58.4385 29.6942 58.3429 29.6766Z" />
<path d="M20.9946 6.17004C17.7229 6.17004 15.0529 8.84001 15.0529 12.1117V61.8839C15.0529 65.162 17.7229 67.8343 20.9946 67.8343H53.0069C56.2786 67.8343 58.9485 65.162 58.9485 61.8839V24.6845C58.9485 24.4882 58.8706 24.3 58.7318 24.1612C58.593 24.0225 58.4048 23.9445 58.2085 23.9445C58.0123 23.9445 57.824 24.0225 57.6853 24.1612C57.5465 24.3 57.4685 24.4882 57.4685 24.6845V61.8839C57.4685 64.3631 55.4775 66.3543 53.0069 66.3543H20.9946C18.5239 66.3543 16.5329 64.3631 16.5329 61.8839V12.1117C16.5329 9.64104 18.5239 7.65004 20.9946 7.65004H53.0069C55.4775 7.65004 57.4685 9.64104 57.4685 12.1117V13.2C57.4685 13.3963 57.5465 13.5845 57.6853 13.7233C57.824 13.8621 58.0123 13.94 58.2085 13.94C58.4048 13.94 58.593 13.8621 58.7318 13.7233C58.8706 13.5845 58.9485 13.3963 58.9485 13.2V12.1117C58.9485 8.84001 56.2786 6.17004 53.0069 6.17004H20.9946Z" />
<path d="M22.9082 13.2853C22.712 13.2853 22.5237 13.3633 22.385 13.502C22.2462 13.6408 22.1682 13.829 22.1682 14.0253V45.1718C22.1682 45.368 22.2462 45.5562 22.385 45.695C22.5237 45.8338 22.712 45.9117 22.9082 45.9118H51.0904C51.2866 45.9117 51.4748 45.8338 51.6136 45.695C51.7524 45.5562 51.8303 45.368 51.8304 45.1718V14.0253C51.8303 13.829 51.7524 13.6408 51.6136 13.502C51.4748 13.3633 51.2866 13.2853 51.0904 13.2853H22.9082ZM23.6482 14.7653H50.3504V44.4318H23.6482V14.7653Z" />
<path d="M31.1306 51.959C30.9343 51.959 30.7461 52.0369 30.6073 52.1757C30.4686 52.3145 30.3906 52.5027 30.3906 52.699V57.4613L27.0071 52.2929C26.9197 52.1598 26.7916 52.0584 26.642 52.0039C26.4924 51.9494 26.3292 51.9446 26.1766 51.9902C26.0241 52.0358 25.8903 52.1294 25.7951 52.2571C25.7 52.3848 25.6486 52.5397 25.6485 52.699V59.9443C25.6485 60.1406 25.7265 60.3288 25.8653 60.4676C26.004 60.6064 26.1923 60.6843 26.3885 60.6843C26.5848 60.6843 26.773 60.6064 26.9118 60.4676C27.0506 60.3288 27.1285 60.1406 27.1285 59.9443V55.1791L30.512 60.349C30.5994 60.482 30.7273 60.5833 30.8768 60.6379C31.0262 60.6924 31.1893 60.6973 31.3418 60.6519C31.4943 60.6065 31.6281 60.5131 31.7233 60.3857C31.8186 60.2582 31.8702 60.1035 31.8706 59.9443V52.699C31.8706 52.5027 31.7926 52.3145 31.6539 52.1757C31.5151 52.0369 31.3269 51.959 31.1306 51.959Z" />
<path d="M42.4619 51.959C42.2656 51.959 42.0774 52.0369 41.9386 52.1757C41.7998 52.3145 41.7219 52.5027 41.7219 52.699C41.7219 52.8952 41.7998 53.0835 41.9386 53.2222C42.0774 53.361 42.2656 53.439 42.4619 53.439H47.6115C47.8078 53.439 47.996 53.361 48.1348 53.2222C48.2735 53.0835 48.3515 52.8952 48.3515 52.699C48.3515 52.5027 48.2735 52.3145 48.1348 52.1757C47.996 52.0369 47.8078 51.959 47.6115 51.959H42.4619Z" />
<path d="M45.036 51.959C44.8397 51.959 44.6515 52.0369 44.5127 52.1757C44.3739 52.3145 44.296 52.5027 44.296 52.699V59.9443C44.296 60.1406 44.3739 60.3288 44.5127 60.4676C44.6515 60.6064 44.8397 60.6843 45.036 60.6843C45.2322 60.6843 45.4204 60.6064 45.5592 60.4676C45.698 60.3288 45.776 60.1406 45.776 59.9443V52.699C45.776 52.5027 45.698 52.3145 45.5592 52.1757C45.4204 52.0369 45.2322 51.959 45.036 51.959Z" />
<path d="M35.3581 51.959C35.1619 51.959 34.9737 52.037 34.8349 52.1757C34.6961 52.3145 34.6182 52.5027 34.6181 52.699V59.9443C34.6181 60.1406 34.6961 60.3288 34.8349 60.4676C34.9737 60.6064 35.1619 60.6843 35.3581 60.6843C35.5544 60.6843 35.7426 60.6064 35.8814 60.4676C36.0202 60.3288 36.0981 60.1406 36.0981 59.9443V53.439H38.9859C39.1821 53.439 39.3704 53.361 39.5091 53.2222C39.6479 53.0835 39.7259 52.8952 39.7259 52.699C39.7259 52.5027 39.6479 52.3145 39.5091 52.1757C39.3704 52.0369 39.1821 51.959 38.9859 51.959H35.3581Z" />
<path d="M35.3581 55.5809C35.1619 55.5809 34.9737 55.6589 34.8349 55.7977C34.6961 55.9364 34.6181 56.1247 34.6181 56.3209C34.6181 56.5172 34.6961 56.7054 34.8349 56.8442C34.9737 56.983 35.1619 57.0609 35.3581 57.0609H38.9859C39.1821 57.0609 39.3704 56.983 39.5091 56.8442C39.6479 56.7054 39.7259 56.5172 39.7259 56.3209C39.7259 56.1247 39.6479 55.9364 39.5091 55.7977C39.3704 55.6589 39.1821 55.5809 38.9859 55.5809H35.3581Z" />
<path d="M29.1577 24.3463C29.0421 24.4103 28.9458 24.5041 28.8787 24.618C28.8116 24.7319 28.7762 24.8616 28.7762 24.9938V34.2033C28.7762 34.3283 28.8079 34.4513 28.8683 34.5607C28.9287 34.6701 29.0159 34.7625 29.1216 34.8291L36.6069 39.5279C36.7247 39.6017 36.861 39.6409 37 39.6409C37.1391 39.6409 37.2753 39.6017 37.3931 39.5279L44.8784 34.8291C44.9844 34.7627 45.0718 34.6704 45.1325 34.5609C45.1932 34.4515 45.2251 34.3285 45.2253 34.2033V24.9938C45.2251 24.8617 45.1895 24.7321 45.1223 24.6184C45.0551 24.5047 44.9586 24.4111 44.843 24.3472C44.7274 24.2834 44.5968 24.2516 44.4648 24.2553C44.3327 24.2589 44.2041 24.2978 44.0922 24.368L37 28.8181L29.9093 24.368C29.7974 24.2975 29.6687 24.2584 29.5365 24.2546C29.4043 24.2508 29.2735 24.2824 29.1577 24.3463ZM43.7453 26.3322V33.7943L37 38.0276L30.2562 33.7943V26.3336L36.6069 30.3198C36.7247 30.3936 36.861 30.4328 37 30.4328C37.1391 30.4328 37.2753 30.3936 37.3931 30.3198L43.7453 26.3322Z" />
<path d="M36.6069 19.6692L29.1216 24.3679C29.0156 24.4345 28.9283 24.527 28.8678 24.6365C28.8072 24.7461 28.7755 24.8693 28.7755 24.9945C28.7755 25.1196 28.8072 25.2428 28.8678 25.3524C28.9283 25.4619 29.0156 25.5544 29.1216 25.621L36.6069 30.3197C36.7247 30.3936 36.861 30.4328 37 30.4328C37.1391 30.4328 37.2753 30.3936 37.3932 30.3197L44.8784 25.621C44.9844 25.5544 45.0718 25.4619 45.1323 25.3524C45.1928 25.2428 45.2246 25.1196 45.2246 24.9945C45.2246 24.8693 45.1928 24.7461 45.1323 24.6365C45.0718 24.527 44.9844 24.4345 44.8784 24.3679L37.3932 19.6692C37.2753 19.5953 37.1391 19.5562 37 19.5562C36.861 19.5562 36.7247 19.5953 36.6069 19.6692ZM37 21.1694L43.0935 24.9937L37 28.818L30.908 24.9937L37 21.1694Z" />
<path d="M37 28.9525C36.8037 28.9525 36.6155 29.0305 36.4768 29.1693C36.338 29.308 36.26 29.4963 36.26 29.6925V38.9006C36.26 39.0969 36.338 39.2851 36.4768 39.4239C36.6155 39.5626 36.8037 39.6406 37 39.6406C37.1963 39.6406 37.3845 39.5626 37.5233 39.4239C37.662 39.2851 37.74 39.0969 37.74 38.9006V29.6925C37.74 29.4963 37.662 29.308 37.5233 29.1693C37.3845 29.0305 37.1963 28.9525 37 28.9525Z" />
<path d="M29.1577 24.3463C29.0421 24.4103 28.9458 24.5041 28.8787 24.618C28.8116 24.7319 28.7762 24.8616 28.7762 24.9938V34.2033C28.7762 34.3283 28.8079 34.4513 28.8683 34.5607C28.9287 34.6701 29.0159 34.7625 29.1216 34.8291L36.6069 39.5279C36.7247 39.6017 36.861 39.6409 37 39.6409C37.1391 39.6409 37.2753 39.6017 37.3931 39.5279L44.8784 34.8291C44.9844 34.7627 45.0718 34.6704 45.1325 34.5609C45.1932 34.4515 45.2251 34.3285 45.2253 34.2033V24.9938C45.2251 24.8617 45.1895 24.7321 45.1223 24.6184C45.0551 24.5047 44.9586 24.4111 44.843 24.3472C44.7274 24.2834 44.5968 24.2516 44.4648 24.2553C44.3327 24.2589 44.2041 24.2978 44.0922 24.368L37 28.8181L29.9093 24.368C29.7974 24.2975 29.6687 24.2584 29.5365 24.2546C29.4043 24.2508 29.2735 24.2824 29.1577 24.3463ZM43.7453 26.3322V33.7943L37 38.0276L30.2562 33.7943V26.3336L36.6069 30.3198C36.7247 30.3936 36.861 30.4328 37 30.4328C37.1391 30.4328 37.2753 30.3936 37.3931 30.3198L43.7453 26.3322Z" />
<path d="M36.6069 19.6692L29.1216 24.3679C29.0156 24.4345 28.9283 24.527 28.8678 24.6365C28.8072 24.7461 28.7755 24.8693 28.7755 24.9945C28.7755 25.1196 28.8072 25.2428 28.8678 25.3524C28.9283 25.4619 29.0156 25.5544 29.1216 25.621L36.6069 30.3197C36.7247 30.3936 36.861 30.4328 37 30.4328C37.1391 30.4328 37.2753 30.3936 37.3932 30.3197L44.8784 25.621C44.9844 25.5544 45.0718 25.4619 45.1323 25.3524C45.1928 25.2428 45.2246 25.1196 45.2246 24.9945C45.2246 24.8693 45.1928 24.7461 45.1323 24.6365C45.0718 24.527 44.9844 24.4345 44.8784 24.3679L37.3932 19.6692C37.2753 19.5953 37.1391 19.5562 37 19.5562C36.861 19.5562 36.7247 19.5953 36.6069 19.6692ZM37 21.1694L43.0935 24.9937L37 28.818L30.908 24.9937L37 21.1694Z" />
<path d="M37 28.9525C36.8037 28.9525 36.6155 29.0305 36.4768 29.1693C36.338 29.308 36.26 29.4963 36.26 29.6925V38.9006C36.26 39.0969 36.338 39.2851 36.4768 39.4239C36.6155 39.5626 36.8037 39.6406 37 39.6406C37.1963 39.6406 37.3845 39.5626 37.5233 39.4239C37.662 39.2851 37.74 39.0969 37.74 38.9006V29.6925C37.74 29.4963 37.662 29.308 37.5233 29.1693C37.3845 29.0305 37.1963 28.9525 37 28.9525Z" />
<path d="M61.5964 11.5306C57.5129 11.5306 54.1877 14.8573 54.1877 18.9408C54.1877 23.0242 57.5129 26.3509 61.5964 26.3509C65.6798 26.3509 69.0065 23.0242 69.0065 18.9408C69.0065 14.8573 65.6798 11.5306 61.5964 11.5306ZM61.5964 13.0106C64.88 13.0106 67.5265 15.6572 67.5265 18.9408C67.5265 22.2244 64.88 24.8709 61.5964 24.8709C58.3128 24.8709 55.6677 22.2244 55.6677 18.9408C55.6677 15.6572 58.3128 13.0106 61.5964 13.0106Z" />
<path d="M63.6718 16.7382C63.4756 16.7382 63.2874 16.8162 63.1486 16.955L60.7465 19.3571L60.0455 18.6561C59.9068 18.5173 59.7186 18.4394 59.5223 18.4394C59.3261 18.4394 59.1379 18.5173 58.9991 18.6561C58.8604 18.7949 58.7824 18.9831 58.7824 19.1793C58.7824 19.3755 58.8604 19.5637 58.9991 19.7025L60.2233 20.9267C60.3621 21.0654 60.5503 21.1433 60.7465 21.1433C60.9427 21.1433 61.1309 21.0654 61.2697 20.9267L64.195 18.0014C64.3338 17.8626 64.4117 17.6744 64.4117 17.4782C64.4117 17.2819 64.3338 17.0937 64.195 16.955C64.0563 16.8162 63.8681 16.7382 63.6718 16.7382Z" />
</svg>
