<svg width="64" height="64" viewBox="0 0 64 64" fill="none" xmlns="http://www.w3.org/2000/svg">
<path d="M60.9301 13.9112L15.0911 5.73472C13.0823 5.37342 11.1308 6.77884 10.7825 8.77678L7.83019 25.713H3.6129C1.62064 25.713 0 27.3342 0 29.3259V54.7092C0 56.7009 1.62064 58.3221 3.6129 58.3221H50.3675C52.3597 58.3221 53.9804 56.7009 53.9804 54.7092V45.7837C55.3197 46.0227 56.6126 46.3045 57.8508 45.5639C58.7799 45.008 59.4462 44.0496 59.6325 42.9817L63.9432 18.2508C64.2978 16.2168 62.9461 14.2699 60.9301 13.9112ZM12.8165 9.13136C12.9714 8.24413 13.8323 7.60672 14.7288 7.76672L60.5677 15.9432C61.4673 16.1037 62.0692 16.9796 61.9097 17.8957L61.1984 21.9783L12.1032 13.2217L12.8165 9.13136ZM51.9159 54.7092C51.9159 55.5628 51.2212 56.2576 50.3675 56.2576H3.6129C2.75923 56.2576 2.06452 55.5628 2.06452 54.7092V29.3259C2.06452 28.4723 2.75923 27.7776 3.6129 27.7776H50.3675C51.2212 27.7776 51.9159 28.4723 51.9159 29.3259V54.7092ZM57.599 42.6271C57.2779 44.463 55.2392 43.9112 53.9804 43.6867V29.3259C53.9804 27.3342 52.3597 25.713 50.3675 25.713H9.92619L11.7486 15.2552L14.7391 15.7884L60.8433 24.0119L57.599 42.6271Z" fill="black"/>
<path d="M24.3195 52.1306H18.384C17.8142 52.1306 17.3517 51.6681 17.3517 51.0983C17.3517 50.5285 17.8142 50.066 18.384 50.066H24.3195C24.8893 50.066 25.3517 50.5285 25.3517 51.0983C25.3517 51.6681 24.8898 52.1306 24.3195 52.1306Z" fill="black"/>
<path d="M13.0431 52.1306H7.10761C6.5378 52.1306 6.07535 51.6681 6.07535 51.0983C6.07535 50.5285 6.5378 50.066 7.10761 50.066H13.0431C13.6129 50.066 14.0753 50.5285 14.0753 51.0983C14.0753 51.6681 13.6129 52.1306 13.0431 52.1306Z" fill="black"/>
<path d="M35.5959 52.1306H29.6604C29.0906 52.1306 28.6281 51.6681 28.6281 51.0983C28.6281 50.5285 29.0906 50.066 29.6604 50.066H35.5959C36.1657 50.066 36.6281 50.5285 36.6281 51.0983C36.6281 51.6681 36.1662 52.1306 35.5959 52.1306Z" fill="black"/>
<path d="M46.8728 52.1306H40.9373C40.3675 52.1306 39.905 51.6681 39.905 51.0983C39.905 50.5285 40.3675 50.066 40.9373 50.066H46.8728C47.4426 50.066 47.905 50.5285 47.905 51.0983C47.905 51.6681 47.4426 52.1306 46.8728 52.1306Z" fill="black"/>
<path d="M15.7099 46.7752H8.23329C6.81033 46.7752 5.65265 45.6175 5.65265 44.1946V41.2299C5.65265 39.807 6.81033 38.6493 8.23329 38.6493H15.7099C17.1329 38.6493 18.2906 39.807 18.2906 41.2299V44.1946C18.2906 45.617 17.1324 46.7752 15.7099 46.7752ZM8.23329 40.7133C7.94891 40.7133 7.71716 40.9445 7.71716 41.2294V44.1941C7.71716 44.479 7.94891 44.7102 8.23329 44.7102H15.7099C15.9943 44.7102 16.2261 44.479 16.2261 44.1941V41.2294C16.2261 40.9445 15.9943 40.7133 15.7099 40.7133H8.23329Z" fill="black"/>
</svg>
