<svg width="64" height="48" viewBox="0 0 64 48" fill="none" xmlns="http://www.w3.org/2000/svg">
<path d="M14.4883 6.26868C9.59226 6.26868 5.60889 10.2438 5.60889 15.1296C5.60889 20.0921 9.62539 23.9997 14.4883 23.9997C19.3889 23.9997 23.3584 20.0427 23.3584 15.1296C23.3584 10.2438 19.3794 6.26868 14.4883 6.26868ZM11.0804 21.0869C11.8793 19.9923 13.1189 19.3326 14.4883 19.3326C15.8538 19.3326 17.0906 19.9932 17.8885 21.0888C16.8664 21.6784 15.7111 21.9997 14.4883 21.9997C13.268 21.9998 12.1101 21.6779 11.0804 21.0869ZM19.4595 19.8572C18.2889 18.2816 16.484 17.3328 14.4884 17.3328C12.4879 17.3328 10.6795 18.2818 9.50739 19.8578C8.29526 18.5894 7.60876 16.9212 7.60876 15.1294C7.60876 11.3462 10.6949 8.26843 14.4884 8.26843C18.2765 8.26843 21.3588 11.3462 21.3588 15.1294C21.3586 16.9201 20.6729 18.5872 19.4595 19.8572Z" fill="black"/>
<path d="M14.4834 10.4928C12.7321 10.4928 11.307 11.9179 11.307 13.6692C11.307 15.4204 12.7321 16.8455 14.4834 16.8455C16.2346 16.8455 17.6598 15.4204 17.6598 13.6692C17.6598 11.9179 16.2346 10.4928 14.4834 10.4928ZM14.4834 14.8458C13.8345 14.8458 13.3068 14.318 13.3068 13.6692C13.3068 13.0095 13.8238 12.4925 14.4834 12.4925C15.1323 12.4925 15.66 13.0203 15.66 13.6692C15.66 14.318 15.1323 14.8458 14.4834 14.8458Z" fill="black"/>
<path d="M27.2261 10.0919H28.7425C29.2946 10.0919 29.7424 9.64416 29.7424 9.09204C29.7424 8.53991 29.2946 8.09216 28.7425 8.09216H27.2261C26.674 8.09216 26.2263 8.53991 26.2263 9.09204C26.2263 9.64416 26.6739 10.0919 27.2261 10.0919Z" fill="black"/>
<path d="M34.302 10.0919H35.8184C36.3705 10.0919 36.8182 9.64416 36.8182 9.09204C36.8182 8.53991 36.3705 8.09216 35.8184 8.09216H34.302C33.7499 8.09216 33.3021 8.53991 33.3021 9.09204C33.3021 9.64416 33.7497 10.0919 34.302 10.0919Z" fill="black"/>
<path d="M41.3779 10.0919H42.8942C43.4464 10.0919 43.8941 9.64416 43.8941 9.09204C43.8941 8.53991 43.4464 8.09216 42.8942 8.09216H41.3779C40.8257 8.09216 40.378 8.53991 40.378 9.09204C40.378 9.64416 40.8256 10.0919 41.3779 10.0919Z" fill="black"/>
<path d="M27.2261 14.6691H55.429C55.9811 14.6691 56.4289 14.2213 56.4289 13.6692C56.4289 13.1171 55.9811 12.6693 55.429 12.6693H27.2261C26.674 12.6693 26.2263 13.1171 26.2263 13.6692C26.2263 14.2213 26.6739 14.6691 27.2261 14.6691Z" fill="black"/>
<path d="M27.2261 20.3013H42.8943C43.4464 20.3013 43.8941 19.8535 43.8941 19.3014C43.8941 18.7493 43.4464 18.3015 42.8943 18.3015H27.2261C26.674 18.3015 26.2263 18.7493 26.2263 19.3014C26.2263 19.8535 26.6739 20.3013 27.2261 20.3013Z" fill="black"/>
<path d="M27.2261 25.934H55.429C55.9811 25.934 56.4289 25.4862 56.4289 24.9341C56.4289 24.382 55.9811 23.9342 55.429 23.9342H27.2261C26.674 23.9342 26.2263 24.382 26.2263 24.9341C26.2263 25.4862 26.6739 25.934 27.2261 25.934Z" fill="black"/>
<path d="M42.8943 29.5663H27.2261C26.674 29.5663 26.2263 30.014 26.2263 30.5662C26.2263 31.1183 26.674 31.566 27.2261 31.566H42.8943C43.4464 31.566 43.8941 31.1183 43.8941 30.5662C43.8941 30.014 43.4465 29.5663 42.8943 29.5663Z" fill="black"/>
<path d="M18.1339 30.2357H10.8334C10.2812 30.2357 9.8335 30.6835 9.8335 31.2356C9.8335 31.7877 10.2812 32.2355 10.8334 32.2355H18.1339C18.686 32.2355 19.1337 31.7877 19.1337 31.2356C19.1337 30.6835 18.686 30.2357 18.1339 30.2357Z" fill="black"/>
<path d="M60.5881 31.1058V3.93242C60.5881 1.76567 58.8256 0.00317383 56.6594 0.00317383H3.93288C1.76613 0.00317383 0.00363159 1.76567 0.00363159 3.93242V34.5721C0.00363159 36.7388 1.76613 38.5013 3.93288 38.5013H44.8346C44.8775 43.7441 49.156 47.9968 54.4136 47.9968C59.6978 47.9968 63.9965 43.7019 63.9965 38.4227C63.9964 35.4904 62.6695 32.8649 60.5881 31.1058ZM2.00338 34.5722V3.93242C2.00338 2.86855 2.86901 2.00292 3.93288 2.00292H56.6594C57.7233 2.00292 58.5884 2.86855 58.5884 3.93242V29.8103C57.3244 29.1951 55.9113 28.8398 54.4135 28.8398C49.7873 28.8398 45.9166 32.1351 45.0245 36.5016H3.93288C2.86901 36.5016 2.00338 35.6359 2.00338 34.5722ZM54.4135 45.9972C50.2324 45.9972 46.8304 42.5992 46.8304 38.4228C46.8304 34.2417 50.2324 30.8397 54.4135 30.8397C58.5946 30.8397 61.9966 34.2417 61.9966 38.4228C61.9966 42.5991 58.5948 45.9972 54.4135 45.9972Z" fill="black"/>
<path d="M54.4135 36.8781C53.8614 36.8781 53.4136 37.3258 53.4136 37.8779V41.8008C53.4136 42.3529 53.8614 42.8007 54.4135 42.8007C54.9656 42.8007 55.4134 42.3529 55.4134 41.8008V37.8779C55.4134 37.3257 54.9658 36.8781 54.4135 36.8781Z" fill="black"/>
<path d="M55.2474 34.4789C54.8324 33.9577 54.281 33.9266 53.8574 34.2089C53.3561 34.5087 53.2529 35.2943 53.7075 35.7488C53.9951 35.9801 54.335 36.1505 54.7973 35.9588C55.3118 35.7433 55.5871 35.1638 55.2474 34.4789Z" fill="black"/>
</svg>
