<svg width="66" height="66" viewBox="0 0 66 66" fill="none" xmlns="http://www.w3.org/2000/svg">
<g clip-path="url(#clip0_285_50)">
<path d="M31.9688 29.9062H34.0312V41.25H31.9688V29.9062Z" fill="black"/>
<path d="M22.1645 46.5289L32.4711 40.3353L33.5333 42.1029L23.2267 48.2965L22.1645 46.5289Z" fill="black"/>
<path d="M33 27.8438C24.5664 27.8438 22.1997 25.7214 21.9584 25.4791C21.765 25.2857 21.6563 25.0235 21.6562 24.75V20.625C21.6584 18.7111 22.4197 16.8763 23.773 15.523C25.1263 14.1697 26.9611 13.4084 28.875 13.4062H37.125C39.0389 13.4084 40.8737 14.1697 42.227 15.523C43.5803 16.8763 44.3416 18.7111 44.3438 20.625V24.75C44.3437 25.0235 44.235 25.2857 44.0416 25.4791C43.8003 25.7214 41.4336 27.8438 33 27.8438ZM23.7188 24.2189C24.52 24.6788 27.0579 25.7812 33 25.7812C38.9153 25.7812 41.4562 24.6881 42.2812 24.2137V20.625C42.2796 19.258 41.7358 17.9474 40.7692 16.9808C39.8026 16.0142 38.492 15.4704 37.125 15.4688H28.875C27.508 15.4704 26.1974 16.0142 25.2308 16.9808C24.2642 17.9474 23.7204 19.258 23.7188 20.625V24.2189Z" fill="black"/>
<path d="M33 15.4688C31.5723 15.4688 30.1766 15.0454 28.9895 14.2522C27.8024 13.459 26.8771 12.3316 26.3307 11.0125C25.7844 9.69345 25.6414 8.242 25.92 6.8417C26.1985 5.44139 26.886 4.15514 27.8956 3.14558C28.9051 2.13602 30.1914 1.4485 31.5917 1.16996C32.992 0.891422 34.4434 1.03438 35.7625 1.58075C37.0816 2.12712 38.209 3.05236 39.0022 4.23948C39.7954 5.4266 40.2188 6.82227 40.2188 8.25C40.2166 10.1639 39.4553 11.9987 38.102 13.352C36.7487 14.7053 34.9139 15.4666 33 15.4688ZM33 3.09375C31.9802 3.09375 30.9833 3.39616 30.1353 3.96274C29.2874 4.52931 28.6265 5.33461 28.2362 6.27679C27.846 7.21897 27.7439 8.25572 27.9428 9.25594C28.1418 10.2562 28.6329 11.1749 29.354 11.896C30.0751 12.6171 30.9939 13.1082 31.9941 13.3072C32.9943 13.5061 34.031 13.404 34.9732 13.0138C35.9154 12.6235 36.7207 11.9626 37.2873 11.1147C37.8538 10.2667 38.1563 9.26981 38.1563 8.25C38.1546 6.88298 37.6108 5.57242 36.6442 4.60579C35.6776 3.63916 34.367 3.09539 33 3.09375Z" fill="black"/>
<path d="M32.4316 42.1337L33.4917 40.3661L43.7984 46.5477L42.7382 48.3153L32.4316 42.1337Z" fill="black"/>
<path d="M54.6562 64.9688C46.2227 64.9688 43.856 62.8454 43.6147 62.6041C43.4212 62.4107 43.3126 62.1485 43.3125 61.875V57.75C43.315 55.8362 44.0763 54.0015 45.4295 52.6483C46.7828 51.295 48.6175 50.5337 50.5312 50.5312H58.7812C60.695 50.5337 62.5297 51.295 63.883 52.6483C65.2362 54.0015 65.9975 55.8362 66 57.75V61.875C65.9999 62.1485 65.8913 62.4107 65.6978 62.6041C65.4565 62.8454 63.0898 64.9688 54.6562 64.9688ZM45.375 61.3429C46.1763 61.8038 48.7142 62.9062 54.6562 62.9062C60.5715 62.9062 63.1125 61.8131 63.9375 61.3387V57.75C63.9359 56.383 63.3921 55.0724 62.4255 54.1058C61.4588 53.1392 60.1483 52.5954 58.7812 52.5938H50.5312C49.1642 52.5954 47.8537 53.1392 46.887 54.1058C45.9204 55.0724 45.3766 56.383 45.375 57.75V61.3429Z" fill="black"/>
<path d="M54.6563 52.5938C53.2285 52.5938 51.8328 52.1704 50.6457 51.3772C49.4586 50.584 48.5334 49.4566 47.987 48.1375C47.4406 46.8184 47.2977 45.367 47.5762 43.9667C47.8547 42.5664 48.5423 41.2801 49.5518 40.2706C50.5614 39.261 51.8476 38.5735 53.2479 38.295C54.6482 38.0164 56.0997 38.1594 57.4187 38.7057C58.7378 39.2521 59.8652 40.1774 60.6584 41.3645C61.4516 42.5516 61.875 43.9473 61.875 45.375C61.8725 47.2888 61.1112 49.1235 59.758 50.4767C58.4047 51.83 56.57 52.5913 54.6563 52.5938ZM54.6563 40.2188C53.6364 40.2188 52.6395 40.5212 51.7916 41.0877C50.9437 41.6543 50.2828 42.4596 49.8925 43.4018C49.5022 44.344 49.4001 45.3807 49.5991 46.3809C49.798 47.3812 50.2891 48.2999 51.0102 49.021C51.7313 49.7421 52.6501 50.2332 53.6503 50.4322C54.6505 50.6311 55.6873 50.529 56.6295 50.1388C57.5716 49.7485 58.3769 49.0876 58.9435 48.2397C59.5101 47.3917 59.8125 46.3948 59.8125 45.375C59.8109 44.008 59.2671 42.6974 58.3005 41.7308C57.3338 40.7642 56.0233 40.2204 54.6563 40.2188Z" fill="black"/>
<path d="M11.3438 64.9688C2.91019 64.9688 0.543469 62.8454 0.302156 62.6041C0.108746 62.4107 5.84073e-05 62.1485 0 61.875L0 57.75C0.00245584 55.8362 0.763789 54.0015 2.11704 52.6483C3.47028 51.295 5.30497 50.5337 7.21875 50.5312H15.4688C17.3825 50.5337 19.2172 51.295 20.5705 52.6483C21.9237 54.0015 22.685 55.8362 22.6875 57.75V61.875C22.6874 62.1485 22.5788 62.4107 22.3853 62.6041C22.144 62.8454 19.7773 64.9688 11.3438 64.9688ZM2.0625 61.3429C2.86378 61.8038 5.40169 62.9062 11.3438 62.9062C17.259 62.9062 19.8 61.8131 20.625 61.3387V57.75C20.6234 56.383 20.0796 55.0724 19.113 54.1058C18.1463 53.1392 16.8358 52.5954 15.4688 52.5938H7.21875C5.85173 52.5954 4.54117 53.1392 3.57454 54.1058C2.60791 55.0724 2.06414 56.383 2.0625 57.75V61.3429Z" fill="black"/>
<path d="M11.3438 52.5938C9.91602 52.5938 8.52035 52.1704 7.33323 51.3772C6.14611 50.584 5.22087 49.4566 4.6745 48.1375C4.12813 46.8184 3.98517 45.367 4.26371 43.9667C4.54225 42.5664 5.22977 41.2801 6.23933 40.2706C7.24889 39.261 8.53514 38.5735 9.93545 38.295C11.3357 38.0164 12.7872 38.1594 14.1062 38.7057C15.4253 39.2521 16.5527 40.1774 17.3459 41.3645C18.1391 42.5516 18.5625 43.9473 18.5625 45.375C18.56 47.2888 17.7987 49.1235 16.4455 50.4767C15.0922 51.83 13.2575 52.5913 11.3438 52.5938ZM11.3438 40.2188C10.3239 40.2188 9.32704 40.5212 8.47909 41.0877C7.63115 41.6543 6.97026 42.4596 6.58 43.4018C6.18974 44.344 6.08762 45.3807 6.28658 46.3809C6.48553 47.3812 6.97662 48.2999 7.69773 49.021C8.41885 49.7421 9.3376 50.2332 10.3378 50.4322C11.338 50.6311 12.3748 50.529 13.317 50.1388C14.2591 49.7485 15.0644 49.0876 15.631 48.2397C16.1976 47.3917 16.5 46.3948 16.5 45.375C16.4984 44.008 15.9546 42.6974 14.988 41.7308C14.0213 40.7642 12.7108 40.2204 11.3438 40.2188Z" fill="black"/>
</g>
<defs>
<clipPath id="clip0_285_50">
<rect width="66" height="66" fill="white"/>
</clipPath>
</defs>
</svg>
