<svg width="64" height="64" viewBox="0 0 64 64"  xmlns="http://www.w3.org/2000/svg">
<g clip-path="url(#clip0_287_158)">
<path d="M47.9625 13.5831L34.756 0.295C34.6631 0.201505 34.5526 0.12731 34.4308 0.0766825C34.3091 0.026055 34.1786 -5.62758e-06 34.0467 9.11522e-10L5.125 9.11522e-10C4.03137 0.00125716 2.98289 0.436258 2.20957 1.20957C1.43626 1.98289 1.00126 3.03137 1 4.125V59.875C1.00126 60.9686 1.43626 62.0171 2.20957 62.7904C2.98289 63.5637 4.03137 63.9987 5.125 64H44.1286C45.2223 63.9987 46.2707 63.5637 47.0441 62.7904C47.8174 62.0171 48.2524 60.9686 48.2536 59.875V40.35L61.2895 27.3139C62.3885 26.2149 63.0059 24.7243 63.0059 23.1701C63.0059 21.6159 62.3885 20.1254 61.2895 19.0264C60.1905 17.9274 58.7 17.31 57.1457 17.31C55.5915 17.31 54.101 17.9274 53.002 19.0264L48.2533 23.7751V14.2876C48.2531 14.0236 48.1486 13.7704 47.9625 13.5831ZM49.805 25.052L55.2639 30.5109L36.1264 49.6484L30.6675 44.1895L49.805 25.052ZM52.563 22.2939L58.0219 27.7528L56.678 29.0966L51.2195 23.6375L52.563 22.2939ZM29.7635 46.1125L34.1835 50.5326L28.6675 51.5611L29.7635 46.1125ZM35.5409 3.92188L44.2784 12.7128H35.5409V3.92188ZM46.2536 59.875C46.253 60.4384 46.0289 60.9785 45.6305 61.3769C45.2322 61.7753 44.692 61.9994 44.1286 62H5.125C4.56161 61.9994 4.02147 61.7753 3.62309 61.3769C3.22471 60.9785 3.00063 60.4384 3 59.875V4.125C3.00063 3.56161 3.22471 3.02147 3.62309 2.62309C4.02147 2.22471 4.56161 2.00063 5.125 2H33.5409V13.7125C33.5409 13.9777 33.6462 14.2321 33.8338 14.4196C34.0213 14.6071 34.2757 14.7125 34.5409 14.7125H46.2534V25.775L28.3923 43.6366C28.2529 43.7759 28.1579 43.9533 28.119 44.1465L26.4147 52.6189C26.3825 52.7793 26.3901 52.9451 26.4368 53.1019C26.4836 53.2587 26.5681 53.4016 26.683 53.5181C26.7979 53.6346 26.9396 53.7212 27.0957 53.7702C27.2518 53.8192 27.4175 53.8291 27.5784 53.7991L36.1558 52.2C36.3542 52.163 36.5369 52.0669 36.6796 51.9241L46.2536 42.35V59.875ZM59.875 20.4408C60.5954 21.1665 60.9997 22.1476 60.9997 23.1702C60.9997 24.1928 60.5954 25.1739 59.875 25.8996L59.436 26.3386L53.9772 20.8797L54.4161 20.4408C55.1406 19.7179 56.1222 19.312 57.1456 19.312C58.1689 19.312 59.1505 19.7179 59.875 20.4408ZM25.255 46.8759C25.255 47.1411 25.1496 47.3954 24.9621 47.583C24.7746 47.7705 24.5202 47.8759 24.255 47.8759H8.64213C8.37691 47.8759 8.12255 47.7705 7.93502 47.583C7.74748 47.3954 7.64213 47.1411 7.64213 46.8759C7.64213 46.6107 7.74748 46.3563 7.93502 46.1688C8.12255 45.9812 8.37691 45.8759 8.64213 45.8759H24.2546C24.386 45.8758 24.5161 45.9017 24.6374 45.9519C24.7588 46.0021 24.8691 46.0758 24.962 46.1686C25.0549 46.2615 25.1286 46.3718 25.1788 46.4931C25.2291 46.6145 25.255 46.7445 25.255 46.8759ZM7.6425 38.1609C7.6425 37.8957 7.74786 37.6413 7.93539 37.4538C8.12293 37.2662 8.37728 37.1609 8.6425 37.1609H29.2719C29.5371 37.1609 29.7914 37.2662 29.979 37.4538C30.1665 37.6413 30.2719 37.8957 30.2719 38.1609C30.2719 38.4261 30.1665 38.6804 29.979 38.868C29.7914 39.0555 29.5371 39.1609 29.2719 39.1609H8.64213C8.37691 39.1609 8.12255 39.0555 7.93502 38.868C7.74748 38.6804 7.64213 38.4261 7.64213 38.1609H7.6425ZM7.6425 29.4459C7.6425 29.1807 7.74786 28.9263 7.93539 28.7388C8.12293 28.5512 8.37728 28.4459 8.6425 28.4459H40.6115C40.8767 28.4459 41.1311 28.5512 41.3186 28.7388C41.5061 28.9263 41.6115 29.1807 41.6115 29.4459C41.6115 29.7111 41.5061 29.9654 41.3186 30.153C41.1311 30.3405 40.8767 30.4459 40.6115 30.4459H8.64213C8.37691 30.4459 8.12255 30.3405 7.93502 30.153C7.74748 29.9654 7.64213 29.7111 7.64213 29.4459H7.6425ZM7.6425 20.731C7.6425 20.4658 7.74786 20.2114 7.93539 20.0239C8.12293 19.8364 8.37728 19.731 8.6425 19.731H40.6115C40.8767 19.731 41.1311 19.8364 41.3186 20.0239C41.5061 20.2114 41.6115 20.4658 41.6115 20.731C41.6115 20.9962 41.5061 21.2506 41.3186 21.4381C41.1311 21.6256 40.8767 21.731 40.6115 21.731H8.64213C8.37691 21.731 8.12255 21.6256 7.93502 21.4381C7.74748 21.2506 7.64213 20.9962 7.64213 20.731H7.6425ZM7.6425 12.016C7.6425 11.7508 7.74786 11.4964 7.93539 11.3089C8.12293 11.1214 8.37728 11.016 8.6425 11.016H29.8115C30.0767 11.016 30.3311 11.1214 30.5186 11.3089C30.7061 11.4964 30.8115 11.7508 30.8115 12.016C30.8115 12.2812 30.7061 12.5356 30.5186 12.7231C30.3311 12.9106 30.0767 13.016 29.8115 13.016H8.64213C8.37691 13.016 8.12255 12.9106 7.93502 12.7231C7.74748 12.5356 7.64213 12.2812 7.64213 12.016H7.6425Z" />
</g>
<defs>
<clipPath id="clip0_287_158">
<rect width="64" height="64" fill="white"/>
</clipPath>
</defs>
</svg>
