<svg width="63" height="63" viewBox="0 0 63 63" xmlns="http://www.w3.org/2000/svg">
<g clip-path="url(#clip0_285_24)">
<path d="M3.4351 17.208C3.4351 25.5964 10.2594 32.4207 18.6478 32.4207C27.0361 32.4207 33.8604 25.5964 33.8604 17.208C33.8604 8.81966 27.0361 1.99536 18.6478 1.99536C10.2594 1.99536 3.4351 8.81966 3.4351 17.208ZM18.6478 3.9582C25.9537 3.9582 31.8974 9.90198 31.8974 17.2079C31.8974 24.5138 25.9537 30.4576 18.6478 30.4576C11.3419 30.4576 5.39807 24.5139 5.39807 17.208C5.39807 9.90211 11.3419 3.9582 18.6478 3.9582Z" />
<path d="M16.1941 25.0596H17.6662V26.5318C17.6662 27.0738 18.1056 27.5132 18.6476 27.5132C19.1897 27.5132 19.6291 27.0738 19.6291 26.5318V25.0596H21.1012C22.7248 25.0596 24.0456 23.7387 24.0456 22.1152V19.6616C24.0456 17.7674 22.5045 16.2265 20.6105 16.2265H16.6847C15.8729 16.2265 15.2125 15.5661 15.2125 14.7543V12.3007C15.2125 11.7595 15.6528 11.3192 16.194 11.3192H21.1013C21.6425 11.3192 22.0827 11.7596 22.0827 12.3007V13.2821C22.0827 13.8241 22.5221 14.2635 23.0642 14.2635C23.6062 14.2635 24.0456 13.8241 24.0456 13.2821V12.3007C24.0456 10.6772 22.7248 9.35627 21.1012 9.35627H19.6291V7.88413C19.6291 7.34211 19.1897 6.90271 18.6476 6.90271C18.1056 6.90271 17.6662 7.34211 17.6662 7.88413V9.35627H16.1941C14.5705 9.35627 13.2497 10.6772 13.2497 12.3007V14.7543C13.2497 16.6485 14.7907 18.1894 16.6848 18.1894H20.6106C21.4223 18.1894 22.0827 18.8498 22.0827 19.6616V22.1152C22.0827 22.6564 21.6425 23.0967 21.1013 23.0967H16.194C15.6528 23.0967 15.2125 22.6563 15.2125 22.1152V21.1338C15.2125 20.5918 14.7731 20.1524 14.2311 20.1524C13.6891 20.1524 13.2497 20.5918 13.2497 21.1338V22.1152C13.2497 23.7387 14.5706 25.0596 16.1941 25.0596Z" />
<path d="M59.2473 1.20266C58.6551 0.354253 58.0096 0.601946 56.7111 1.09942C55.8335 1.43571 54.9558 1.77188 54.0782 2.10816C52.3979 2.75194 50.7177 3.39573 49.0374 4.03951C48.8777 4.10066 48.718 4.16194 48.5581 4.22309C48.052 4.41714 47.7988 4.98463 47.9927 5.49072C48.1866 5.99706 48.7543 6.25004 49.2603 6.05624L56.7629 3.18175C54.5247 8.91265 49.5271 17.3054 41.6012 24.7428C30.5206 35.14 16.4604 40.9771 0.940695 41.6226C0.399043 41.6452 -0.0216542 42.1025 0.000863363 42.644C0.0228888 43.1717 0.457613 43.5847 0.980809 43.5847C0.99459 43.5847 1.00837 43.5844 1.02228 43.5838C9.71098 43.2223 17.9277 41.3172 25.4441 37.9212C31.8184 35.0413 37.7062 31.089 42.9443 26.1739C50.905 18.7042 56.0159 10.2542 58.4229 4.31562L61.1018 11.3075C61.2514 11.6983 61.6236 11.9381 62.0185 11.9381C62.1352 11.9381 62.2538 11.9172 62.3694 11.8729C62.8755 11.6789 63.1287 11.1114 62.9348 10.6053C62.3867 9.17487 61.8388 7.74457 61.2908 6.31415C60.7646 4.9407 60.2601 3.38477 59.6566 1.97589C59.518 1.65289 59.384 1.39855 59.2473 1.20266Z" />
<path d="M59.3784 21.1338H51.5266C49.903 21.1338 48.5822 22.4547 48.5822 24.0782V60.3923H46.1285V38.3093C46.1285 36.6858 44.8078 35.3649 43.1842 35.3649H35.3324C33.7088 35.3649 32.388 36.6858 32.388 38.3093V60.3921H29.9343V45.6703C29.9343 44.0468 28.6136 42.7259 26.99 42.7259H19.1382C17.5146 42.7259 16.1938 44.0468 16.1938 45.6703V60.3923H13.7402V48.6147C13.7402 46.9912 12.4194 45.6703 10.7958 45.6703H2.94439C1.32079 45.6703 0 46.9912 0 48.6147V61.3737C0 61.9157 0.4394 62.3551 0.981422 62.3551H61.3413C61.8833 62.3551 62.3227 61.9157 62.3227 61.3737V24.0782C62.3227 22.4547 61.002 21.1338 59.3784 21.1338ZM50.5453 24.0782C50.5453 23.537 50.9856 23.0968 51.5267 23.0968H59.3785C59.9196 23.0968 60.3599 23.5371 60.3599 24.0782V60.3923H50.5453V24.0782ZM34.3511 38.3093C34.3511 37.7681 34.7914 37.3279 35.3325 37.3279H43.1843C43.7254 37.3279 44.1657 37.7682 44.1657 38.3093V60.3921H34.3511V38.3093ZM18.157 45.6703C18.157 45.1292 18.5973 44.6889 19.1385 44.6889H26.9902C27.5314 44.6889 27.9716 45.1293 27.9716 45.6703V60.3923H18.157V45.6703ZM2.94439 47.6333H10.7961C11.3373 47.6333 11.7776 48.0737 11.7776 48.6147V60.3923H1.96297V48.6147C1.96297 48.0736 2.40323 47.6333 2.94439 47.6333Z" />
</g>
<defs>
<clipPath id="clip0_285_24">
<rect width="63" height="63" fill="white"/>
</clipPath>
</defs>
</svg>
