<svg width="64" height="64" viewBox="0 0 64 64"  xmlns="http://www.w3.org/2000/svg">
<path fill-rule="evenodd" clip-rule="evenodd" d="M28.5714 9.91961C28.5714 8.02606 30.1065 6.49104 32 6.49104C33.8935 6.49104 35.4286 8.02606 35.4286 9.91961C35.4286 11.8132 33.8935 13.3482 32 13.3482C30.1065 13.3482 28.5714 11.8132 28.5714 9.91961ZM32 4.20532C28.844 4.20532 26.2857 6.76369 26.2857 9.91961C26.2857 12.6841 28.2488 14.9901 30.8571 15.5196V20.9372H12.1905C9.87614 20.9372 8 22.8135 8 25.1277V30.1738C7.77598 30.1127 7.54023 30.0801 7.29686 30.0801H2.72544C1.25268 30.0801 0.0587769 31.274 0.0587769 32.7467V47.9848C0.0587769 49.4576 1.25268 50.6515 2.72544 50.6515H7.29686C7.54023 50.6515 7.77598 50.6189 8 50.5578V55.6039C8 57.9182 9.87614 59.7944 12.1905 59.7944H51.8095C54.1239 59.7944 56 57.9182 56 55.6039V50.5579C56.224 50.619 56.4597 50.6516 56.7032 50.6516H61.2747C62.7474 50.6516 63.9413 49.4577 63.9413 47.985V32.7469C63.9413 31.2741 62.7474 30.0802 61.2747 30.0802H56.7032C56.4597 30.0802 56.224 30.1128 56 30.1739V25.1277C56 22.8135 54.1239 20.9372 51.8095 20.9372H33.1429V15.5196C35.7512 14.9901 37.7143 12.6841 37.7143 9.91961C37.7143 6.76369 35.156 4.20532 32 4.20532ZM2.72544 32.3658C2.51504 32.3658 2.34448 32.5363 2.34448 32.7467V47.9848C2.34448 48.1953 2.51504 48.3658 2.72544 48.3658H7.29686C7.50727 48.3658 7.67782 48.1953 7.67782 47.9848V32.7467C7.67782 32.5363 7.50727 32.3658 7.29686 32.3658H2.72544ZM56.7032 32.3659C56.4928 32.3659 56.3223 32.5364 56.3223 32.7469V47.985C56.3223 48.1953 56.4928 48.3659 56.7032 48.3659H61.2747C61.4849 48.3659 61.6556 48.1953 61.6556 47.985V32.7469C61.6556 32.5364 61.4849 32.3659 61.2747 32.3659H56.7032ZM12.1905 23.2229C11.1385 23.2229 10.2857 24.0758 10.2857 25.1277V55.6039C10.2857 56.6559 11.1385 57.5086 12.1905 57.5086H51.8095C52.8616 57.5086 53.7143 56.6559 53.7143 55.6039V25.1277C53.7143 24.0758 52.8616 23.2229 51.8095 23.2229H12.1905ZM22.8571 40.3659C22.8571 41.6283 21.8337 42.6516 20.5714 42.6516C19.3089 42.6516 18.2857 41.6283 18.2857 40.3659C18.2857 39.1035 19.3089 38.0802 20.5714 38.0802C21.8337 38.0802 22.8571 39.1035 22.8571 40.3659ZM25.1429 40.3659C25.1429 42.8906 23.0961 44.9374 20.5714 44.9374C18.0466 44.9374 16 42.8906 16 40.3659C16 37.8411 18.0466 35.7945 20.5714 35.7945C23.0961 35.7945 25.1429 37.8411 25.1429 40.3659ZM43.4286 42.6516C44.6909 42.6516 45.7143 41.6283 45.7143 40.3659C45.7143 39.1035 44.6909 38.0802 43.4286 38.0802C42.1661 38.0802 41.1429 39.1035 41.1429 40.3659C41.1429 41.6283 42.1661 42.6516 43.4286 42.6516ZM43.4286 44.9374C45.9532 44.9374 48 42.8906 48 40.3659C48 37.8411 45.9532 35.7945 43.4286 35.7945C40.9038 35.7945 38.8571 37.8411 38.8571 40.3659C38.8571 42.8906 40.9038 44.9374 43.4286 44.9374Z" />
</svg>
