<svg width="67" height="64" viewBox="0 0 67 64"  xmlns="http://www.w3.org/2000/svg">
<path d="M63.4056 0H3.5982C1.61416 0 0 1.59917 0 3.56478V46.4225C0 48.3883 1.61416 49.9874 3.5982 49.9874H26.9788V56.3671H20.5504C20.0444 56.3671 19.6341 56.7735 19.6341 57.2748V63.0923C19.6341 63.5937 20.0444 64 20.5504 64H46.4534C46.9594 64 47.3697 63.5936 47.3697 63.0923V57.2748C47.3697 56.7734 46.9594 56.3671 46.4534 56.3671H40.025V49.9874H63.4056C65.3877 49.9874 67 48.3883 67 46.4225V3.56478C67 1.59917 65.3875 0 63.4056 0ZM45.5372 62.1844H21.4666V58.1825H45.5372V62.1844ZM38.1925 56.367H28.8113V49.9873H38.1925V56.367ZM63.4056 48.1717H3.5982C2.62454 48.1717 1.83247 47.387 1.83247 46.4224V40.9175H11.0802C11.5862 40.9175 11.9964 40.511 11.9964 40.0097C11.9964 39.5085 11.5862 39.102 11.0802 39.102H1.83247V3.56478C1.83247 2.60029 2.62454 1.81558 3.5982 1.81558H63.4056C64.3772 1.81558 65.1677 2.60029 65.1677 3.56478V39.1019H15.5945C15.0885 39.1019 14.6782 39.5083 14.6782 40.0096C14.6782 40.5109 15.0885 40.9173 15.5945 40.9173H65.1675V46.4223C65.1675 47.387 64.377 48.1717 63.4056 48.1717ZM12.3524 28.2791H7.29658C6.7906 28.2791 6.38034 28.6855 6.38034 29.1868V34.387C6.38034 34.8884 6.7906 35.2947 7.29658 35.2947H12.3524C12.8584 35.2947 13.2686 34.8883 13.2686 34.387V29.1868C13.2686 28.6854 12.8585 28.2791 12.3524 28.2791ZM11.4362 33.4791H8.21268V30.0945H11.4362V33.4791ZM20.8917 20.9364H15.8357C15.3298 20.9364 14.9195 21.3428 14.9195 21.8441V34.3869C14.9195 34.8883 15.3298 35.2946 15.8357 35.2946H20.8917C21.3976 35.2946 21.8079 34.8881 21.8079 34.3869V21.8441C21.8079 21.3427 21.3976 20.9364 20.8917 20.9364ZM19.9754 33.4791H16.752V22.7518H19.9754V33.4791ZM29.4307 26.673H24.3748C23.8688 26.673 23.4585 27.0795 23.4585 27.5808V34.3869C23.4585 34.8883 23.8688 35.2946 24.3748 35.2946H29.4307C29.9367 35.2946 30.3469 34.8881 30.3469 34.3869V27.5808C30.3469 27.0795 29.9368 26.673 29.4307 26.673ZM28.5146 33.4791H25.2911V28.4886H28.5146V33.4791ZM31.9977 17.6142V34.3869C31.9977 34.8883 32.4079 35.2946 32.9139 35.2946H37.9699C38.4758 35.2946 38.8861 34.8881 38.8861 34.3869V17.6142C38.8861 17.1128 38.4758 16.7065 37.9699 16.7065H32.9139C32.4079 16.7065 31.9977 17.113 31.9977 17.6142ZM33.8302 18.5221H37.0536V33.4791H33.8302V18.5221ZM8.47321 21.3122L17.5021 11.1031C17.6821 10.8996 17.946 10.786 18.2174 10.794C18.4904 10.8016 18.7458 10.9298 18.9138 11.1431L26.467 20.7391L34.12 9.10608L31.9896 9.389C31.4876 9.45537 31.0269 9.1066 30.9598 8.60987C30.8926 8.11314 31.2447 7.65629 31.7462 7.58965L36.064 7.01642C36.5653 6.94978 37.0266 7.29881 37.0937 7.79554L37.6725 12.0732C37.7397 12.5701 37.3876 13.0268 36.8861 13.0934C36.8448 13.0989 36.8037 13.1015 36.7632 13.1015C36.3112 13.1015 35.9179 12.7702 35.8563 12.3143L35.5732 10.2222L27.3013 22.7957C27.1396 23.0414 26.8682 23.1945 26.5724 23.207C26.5594 23.2075 26.5464 23.2079 26.5336 23.2079C26.2519 23.2079 25.9851 23.0794 25.8111 22.8583L18.1501 13.1254L9.85149 22.5086C9.51807 22.8856 8.93932 22.9237 8.55856 22.5932C8.17793 22.2626 8.13965 21.6891 8.47321 21.3122ZM47.5069 8.03728C47.5069 7.53588 47.9172 7.12956 48.4232 7.12956H59.2176C59.7236 7.12956 60.1339 7.53601 60.1339 8.03728C60.1339 8.53869 59.7236 8.94501 59.2176 8.94501H48.4232C47.9171 8.94501 47.5069 8.53856 47.5069 8.03728ZM47.5069 12.1679C47.5069 11.6665 47.9172 11.2602 48.4232 11.2602H59.2176C59.7236 11.2602 60.1339 11.6666 60.1339 12.1679C60.1339 12.6693 59.7236 13.0756 59.2176 13.0756H48.4232C47.9171 13.0757 47.5069 12.6693 47.5069 12.1679ZM47.5069 16.3023C47.5069 15.8009 47.9172 15.3945 48.4232 15.3945H59.2176C59.7236 15.3945 60.1339 15.801 60.1339 16.3023C60.1339 16.8035 59.7236 17.21 59.2176 17.21H48.4232C47.9171 17.21 47.5069 16.8037 47.5069 16.3023ZM47.5069 20.4329C47.5069 19.9315 47.9172 19.5252 48.4232 19.5252H59.2176C59.7236 19.5252 60.1339 19.9316 60.1339 20.4329C60.1339 20.9342 59.7236 21.3406 59.2176 21.3406H48.4232C47.9171 21.3407 47.5069 20.9343 47.5069 20.4329Z" />
</svg>
