<svg width="241" height="36" viewBox="0 0 241 36" fill="none" xmlns="http://www.w3.org/2000/svg">
<path d="M10.9421 24.0861C9.34322 24.3228 6.52027 25.0205 4.22194 27.3129C2.81047 28.7083 0.412207 31.8977 1.48643 33.7666C1.92361 34.539 2.8979 34.9875 3.7223 35.0124C4.79652 35.0374 5.30865 34.3272 7.20727 33.0315C9.43066 31.4991 9.7804 31.7607 10.4424 31.0505C11.092 30.3529 12.1787 28.5962 10.9421 24.0985V24.0861Z" fill="#FF1F70"/>
<path d="M32.9136 23.4256C32.8511 22.6034 32.9011 21.8932 32.9636 21.3201C32.3515 20.7844 31.6145 20.0493 30.8401 19.1149C28.7416 16.5484 27.7049 13.8947 26.8555 11.6646C25.6814 8.57478 26.0186 8.37544 25.1193 6.95514C23.5704 4.52567 21.397 3.29226 20.3977 2.73161C19.0112 1.97163 17.0876 0.912629 14.6768 0.999841C12.2786 1.08705 11.1044 2.25818 7.7069 4.22666C5.98316 5.22337 3.39753 6.60629 0 7.95184C0.924329 8.66199 2.44822 9.63377 4.48424 9.93278C7.05737 10.319 8.09412 9.30984 9.45563 10.182C11.2169 11.3032 10.8421 13.8573 12.6908 14.4055C12.8781 14.4553 13.4028 14.6173 13.9399 14.4055C15.139 13.932 14.8767 12.2501 15.9259 11.1787C16.9627 10.1197 18.8988 10.0449 20.1604 10.4311C22.3588 11.1164 22.5336 13.2468 25.1318 16.6356C27.7923 20.0867 28.4169 18.928 29.8533 21.345C32.1517 25.1948 30.8151 28.5337 33.8379 31.773C34.1002 32.0596 34.9496 32.9691 35.3243 32.7697C35.8365 32.4956 35.2119 30.3278 34.5124 28.3095C33.0885 25.6807 32.9261 23.4256 32.9261 23.4256H32.9136Z" fill="#FF1F70"/>
<path d="M35.3244 32.7699C35.3244 32.7699 35.4247 32.6702 35.4623 32.5954C35.4372 32.6826 35.3871 32.7449 35.3244 32.7699Z" fill="url(#paint0_linear_5_183)"/>
<path d="M31.5521 19.9249C31.3273 19.6757 31.0899 19.4141 30.8526 19.1275C31.0899 19.4141 31.3273 19.6757 31.5521 19.9249Z" fill="url(#paint1_linear_5_183)"/>
<path d="M32.2266 20.6225C32.0767 20.473 31.9268 20.3235 31.7644 20.1491C31.9268 20.3111 32.0767 20.473 32.2266 20.6225Z" fill="url(#paint2_linear_5_183)"/>
<path d="M35.5118 32.2092C35.5118 32.0846 35.5118 31.9476 35.4867 31.7981C35.5118 31.9476 35.5118 32.0846 35.5118 32.2092Z" fill="url(#paint3_linear_5_183)"/>
<path d="M35.3624 31.1377C35.3248 30.9509 35.2746 30.7515 35.2119 30.5522C35.2621 30.764 35.3123 30.9509 35.3624 31.1377Z" fill="url(#paint4_linear_5_183)"/>
<path d="M58.9572 24.0861C52.3995 16.1249 35.2119 21.3452 33.5756 21.856C33.2633 21.5943 32.8636 21.258 32.4265 20.8468C32.6138 21.0212 32.7887 21.1832 32.9511 21.3327C32.8886 21.9058 32.8387 22.616 32.9011 23.4382C32.9011 23.4382 33.076 25.6933 34.4875 28.3221C34.7498 29.0571 34.9871 29.8171 35.1745 30.5024C34.9496 29.6676 34.6249 28.7083 34.3126 27.8237C34.9871 27.5123 36.1113 27.0139 37.5477 26.5778C41.9445 25.2448 45.3046 25.6185 56.459 26.3287C58.3326 26.4533 59.8191 26.5405 60.4436 26.5778C60.0314 25.6061 59.5193 24.7838 58.9572 24.0986V24.0861Z" fill="url(#paint5_linear_5_183)"/>
<path d="M35.4746 31.7233C35.4495 31.5614 35.4244 31.3994 35.3868 31.2125C35.4244 31.3869 35.4621 31.5614 35.4746 31.7233Z" fill="url(#paint6_linear_5_183)"/>
<path d="M35.4617 32.5705C35.4868 32.4833 35.4994 32.3837 35.4994 32.2591C35.4994 32.3837 35.4868 32.4833 35.4617 32.5705Z" fill="url(#paint7_linear_5_183)"/>
<path d="M70.0616 18.4049C70.0241 13.9322 73.5591 11.0293 77.6436 10.9919C79.9544 10.9795 81.928 11.9014 83.1896 13.3715L81.2285 15.2279C80.4041 14.3309 79.155 13.7578 77.7311 13.7702C75.0955 13.7951 73.0095 15.6764 73.0345 18.38C73.0594 21.0711 75.1579 22.9274 77.806 22.915C79.23 22.915 80.4666 22.3169 81.2785 21.4074L83.2645 23.2389C82.0279 24.7339 80.0669 25.6808 77.756 25.7057C73.659 25.7431 70.0866 22.89 70.0491 18.4173L70.0616 18.4049Z" fill="#FF1F70"/>
<path d="M86.6871 18.2429C86.6496 13.7702 90.0221 10.8923 94.0692 10.8673C98.1038 10.83 101.551 13.6581 101.589 18.1308C101.626 22.6035 98.2162 25.5687 94.1816 25.5936C90.147 25.631 86.7245 22.7156 86.6871 18.2429ZM98.6159 18.1557C98.5909 15.4397 96.5174 13.6332 94.0942 13.6581C91.6709 13.683 89.6474 15.502 89.6724 18.2305C89.6974 20.9839 91.7459 22.8153 94.1691 22.7904C96.5924 22.7655 98.6409 20.9091 98.6284 18.1557H98.6159Z" fill="#FF1F70"/>
<path d="M105.973 5.93367C105.973 4.84975 106.897 4.01501 107.997 4.01501C109.121 4.01501 110.033 4.81238 110.045 5.90875C110.058 7.00512 109.146 7.81494 108.022 7.8274C106.935 7.8274 105.986 7.03004 105.973 5.93367ZM106.56 11.0667L109.533 11.0418L109.645 25.17L106.673 25.1949L106.56 11.0667Z" fill="#FF1F70"/>
<path d="M128.819 16.9472L128.881 25.0205L125.909 25.0454L125.846 17.1839C125.834 14.8915 124.422 13.5709 122.598 13.5834C120.75 13.5958 118.514 14.6424 118.539 17.5826L118.601 25.1077L115.629 25.1326L115.516 11.0044L118.489 10.9795V13.1598C119.313 11.428 121.587 10.6555 123.098 10.6431C126.683 10.6182 128.819 12.923 128.819 16.9472Z" fill="#FF1F70"/>
<path d="M148.542 10.7552L148.63 22.7655C148.68 29.3312 145.669 31.9476 140.898 31.985C138.225 32.0099 135.726 30.6394 134.377 28.1352L136.888 26.8769C137.688 28.3844 139.336 29.244 140.885 29.2316C143.858 29.2067 145.694 27.4998 145.657 23.0271V22.8402C144.695 24.3851 142.671 25.2199 140.785 25.2323C136.938 25.2572 133.728 22.3793 133.69 17.9066C133.653 13.3965 136.813 10.531 140.648 10.506C142.621 10.4936 144.595 11.266 145.582 12.8234V10.7677L148.542 10.7428V10.7552ZM145.594 17.7944C145.569 14.9538 143.221 13.3093 141.035 13.3217C138.612 13.3466 136.651 15.203 136.676 17.8567C136.701 20.4855 138.687 22.4415 141.11 22.4166C143.508 22.4042 145.619 20.6226 145.594 17.782V17.7944Z" fill="#FF1F70"/>
<path d="M168.503 10.5932L168.615 24.7215L165.642 24.7464V22.6284C164.693 24.2356 162.669 25.0703 160.758 25.0828C156.911 25.1077 153.701 22.2297 153.663 17.757C153.626 13.247 156.786 10.3815 160.621 10.3565C162.619 10.3441 164.605 11.1165 165.555 12.7112V10.6306L168.515 10.6057L168.503 10.5932ZM165.555 17.6325C165.53 14.7919 163.182 13.1473 160.996 13.1598C158.572 13.1847 156.611 15.041 156.636 17.6948C156.661 20.3236 158.647 22.2796 161.071 22.2547C163.469 22.2422 165.58 20.4606 165.555 17.62V17.6325Z" fill="#FF1F70"/>
<path d="M183.854 10.6929L183.354 13.5086C182.567 13.1473 181.83 13.0352 181.256 13.0352C178.683 13.0601 177.484 15.7512 177.509 19.5636L177.546 24.6467L174.548 24.6717L174.436 10.5434L177.434 10.5185L177.459 13.6955C178.171 11.2037 179.582 10.1946 181.406 10.1821C182.38 10.1821 183.379 10.4064 183.841 10.6804L183.854 10.6929Z" fill="#FF1F70"/>
<path d="M201.541 10.3441L201.654 24.4723L198.681 24.4972V22.3793C197.731 23.9864 195.708 24.8212 193.797 24.8336C189.95 24.8585 186.739 21.9806 186.702 17.5079C186.664 12.9978 189.825 10.1323 193.647 10.1074C195.645 10.0949 197.631 10.8673 198.581 12.4621V10.3814L201.541 10.3565V10.3441ZM198.593 17.3833C198.568 14.5427 196.22 12.8981 194.034 12.9106C191.611 12.9355 189.65 14.7919 189.675 17.4456C189.7 20.0744 191.686 22.0304 194.109 22.0055C196.507 21.993 198.618 20.2114 198.593 17.3708V17.3833Z" fill="#FF1F70"/>
<path d="M221.502 10.7552L221.589 22.7655C221.639 29.3312 218.629 31.9476 213.857 31.985C211.184 32.0099 208.686 30.6394 207.337 28.1352L209.848 26.8769C210.647 28.3844 212.296 29.244 213.845 29.2316C216.818 29.2067 218.654 27.4998 218.616 23.0271V22.8402C217.654 24.3851 215.631 25.2199 213.745 25.2323C209.898 25.2572 206.687 22.3793 206.65 17.9066C206.612 13.3965 209.773 10.531 213.607 10.506C215.581 10.4936 217.555 11.266 218.541 12.8234V10.7677L221.502 10.7428V10.7552ZM218.554 17.7944C218.529 14.9538 216.181 13.3093 213.995 13.3217C211.571 13.3466 209.61 15.203 209.635 17.8567C209.66 20.4855 211.646 22.4415 214.07 22.4166C216.468 22.4042 218.579 20.6226 218.554 17.782V17.7944Z" fill="#FF1F70"/>
<path d="M240.95 18.6043L229.658 18.6915C230.07 20.9839 231.782 22.0927 234.08 22.0803C235.716 22.0678 237.265 21.3576 238.04 20.0495L240.413 21.2081C239.189 23.5753 236.653 24.8087 233.943 24.8212C229.846 24.8586 226.61 21.9432 226.573 17.4705C226.535 12.9978 229.796 10.1198 233.83 10.0949C237.865 10.0575 240.95 12.8857 240.987 17.3335C240.987 17.7321 240.963 18.1557 240.938 18.6043H240.95ZM238.015 16.2371C237.727 14.0319 236.079 12.8358 233.893 12.8483C231.707 12.8608 230.083 13.9696 229.671 16.2994L238.015 16.2371Z" fill="#FF1F70"/>
<defs>
<linearGradient id="paint0_linear_5_183" x1="35.3244" y1="32.6826" x2="35.4623" y2="32.6826" gradientUnits="userSpaceOnUse">
<stop stop-color="#FF1F70"/>
<stop offset="1" stop-color="#52C3FF"/>
</linearGradient>
<linearGradient id="paint1_linear_5_183" x1="30.8526" y1="19.5262" x2="31.5521" y2="19.5262" gradientUnits="userSpaceOnUse">
<stop stop-color="#FF1F70"/>
<stop offset="1" stop-color="#52C3FF"/>
</linearGradient>
<linearGradient id="paint2_linear_5_183" x1="31.7644" y1="20.3858" x2="32.2266" y2="20.3858" gradientUnits="userSpaceOnUse">
<stop stop-color="#FF1F70"/>
<stop offset="1" stop-color="#52C3FF"/>
</linearGradient>
<linearGradient id="paint3_linear_5_183" x1="35.4742" y1="32.0099" x2="35.5118" y2="32.0099" gradientUnits="userSpaceOnUse">
<stop stop-color="#FF1F70"/>
<stop offset="1" stop-color="#52C3FF"/>
</linearGradient>
<linearGradient id="paint4_linear_5_183" x1="35.2119" y1="30.8512" x2="35.3624" y2="30.8512" gradientUnits="userSpaceOnUse">
<stop stop-color="#FF1F70"/>
<stop offset="1" stop-color="#52C3FF"/>
</linearGradient>
<linearGradient id="paint5_linear_5_183" x1="32.4389" y1="25.0953" x2="60.4561" y2="25.0953" gradientUnits="userSpaceOnUse">
<stop stop-color="#FF1F70"/>
<stop offset="1" stop-color="#52C3FF"/>
</linearGradient>
<linearGradient id="paint6_linear_5_183" x1="35.3743" y1="31.4742" x2="35.4746" y2="31.4742" gradientUnits="userSpaceOnUse">
<stop stop-color="#FF1F70"/>
<stop offset="1" stop-color="#52C3FF"/>
</linearGradient>
<linearGradient id="paint7_linear_5_183" x1="35.4617" y1="32.421" x2="35.5119" y2="32.421" gradientUnits="userSpaceOnUse">
<stop stop-color="#FF1F70"/>
<stop offset="1" stop-color="#52C3FF"/>
</linearGradient>
</defs>
</svg>
