<?xml version="1.0" standalone="no"?>
<!DOCTYPE svg PUBLIC "-//W3C//DTD SVG 20010904//EN"
 "http://www.w3.org/TR/2001/REC-SVG-20010904/DTD/svg10.dtd">
<svg version="1.0" xmlns="http://www.w3.org/2000/svg"
 width="700.000000pt" height="700.000000pt" viewBox="0 0 700.000000 700.000000"
 preserveAspectRatio="xMidYMid meet">
<metadata>
Created by potrace 1.14, written by Peter Selinger 2001-2017
</metadata>
<g transform="translate(0.000000,700.000000) scale(0.100000,-0.100000)"
fill="#000000" stroke="none">
<path d="M1802 5288 c-123 -14 -211 -53 -451 -201 -314 -194 -607 -347 -891
-467 -69 -29 -127 -55 -130 -57 -11 -10 71 -66 165 -113 146 -72 254 -101 395
-105 63 -2 137 1 164 6 145 27 227 8 307 -71 45 -45 64 -75 103 -165 51 -118
74 -156 118 -196 54 -50 151 -63 218 -29 43 22 62 52 110 177 52 135 106 193
213 230 71 24 252 25 320 0 116 -41 165 -93 291 -303 211 -352 342 -513 516
-633 126 -87 177 -144 238 -267 68 -136 91 -207 133 -416 17 -84 32 -162 34
-173 41 -202 138 -383 271 -504 157 -143 170 -19 40 366 l-34 102 126 50 c107
41 218 79 282 96 66 18 194 45 233 49 26 3 68 9 95 13 98 15 657 8 942 -12
149 -10 223 -15 310 -20 52 -3 118 -7 145 -10 28 -2 104 -7 170 -10 66 -4 136
-9 155 -10 19 -2 92 -6 163 -10 l127 -7 -9 24 c-13 34 -78 146 -109 189 -61
83 -175 191 -271 258 -98 68 -321 160 -468 192 -32 7 -60 13 -63 14 -3 1 -25
5 -50 9 -168 27 -231 31 -465 31 -235 0 -316 -5 -500 -29 -22 -3 -62 -8 -90
-11 -27 -4 -57 -8 -65 -10 -8 -3 -33 -7 -55 -10 -100 -15 -305 -60 -465 -102
-231 -60 -223 -59 -248 -33 -12 13 -25 19 -33 15 -7 -5 -10 -4 -6 2 4 6 -27
44 -69 84 -183 178 -361 444 -473 709 -77 184 -142 363 -196 545 -33 108 -58
159 -121 245 -131 179 -294 309 -553 440 -223 113 -386 150 -569 128z"/>
<path d="M1370 2839 c-315 -71 -548 -222 -746 -484 -149 -198 -210 -391 -158
-500 52 -110 226 -179 334 -132 19 8 98 61 175 117 147 107 214 149 335 212
107 55 158 117 197 237 28 89 23 305 -11 466 -12 54 -29 105 -35 104 -3 0 -44
-9 -91 -20z"/>
</g>
</svg>
