<svg width="230" height="62" viewBox="0 0 230 62" fill="none" xmlns="http://www.w3.org/2000/svg">
<path d="M96.3239 0H0V61.6772H96.3239V0Z" fill="#003399"/>
<path d="M46.9045 11.4482L44.871 10.0219H47.3861L48.162 7.70898L48.938 10.0219H51.4531L49.4196 11.4482L50.1955 13.7739L48.162 12.3348L46.1285 13.7739L46.9045 11.4482ZM49.4196 51.654L50.1955 53.9669L48.162 52.5406L46.1285 53.9669L46.9045 51.654L44.871 50.2277H47.3861L48.162 47.902L48.938 50.2277H51.4531L49.4196 51.654ZM27.3721 32.3799L25.3386 33.819L26.1146 31.5061L24.0811 30.1184H26.5962L27.3721 27.8055L28.1481 30.1184H30.6766L28.6297 31.5575L29.4056 33.8704L27.3721 32.4313V32.3799ZM39.0246 14.1337L39.8006 16.4466L37.7671 15.0332L35.7336 16.4594L36.5095 14.1465L34.476 12.7203H36.9911L37.7671 10.4074L38.543 12.7203H41.0581L39.0246 14.1337ZM29.4324 20.0701L30.2083 17.7572L30.9976 20.0701H33.4459L31.4124 21.5093L32.1883 23.8222L30.1414 22.383L28.0945 23.8222L28.8705 21.5093L26.837 20.0701H29.4324ZM26.8637 40.1666H29.4324L30.2083 37.8537L30.9976 40.1666H33.4459L31.4124 41.6058L32.1883 43.9187L30.1414 42.4924L28.0945 43.9187L28.8705 41.6058L26.837 40.1666H26.8637ZM36.5095 48.9556L34.476 47.5422H36.9911L37.7671 45.2293L38.543 47.5422H41.0581L39.0246 48.9556L39.8006 51.2685L37.7671 49.8422L35.7336 51.2685L36.5095 48.9556ZM70.2095 31.5575L70.9854 33.8704L68.9519 32.4313L66.8917 33.8704L67.6676 31.5575L65.6207 30.1184H68.2295L69.0054 27.8055L69.7814 30.1184H72.243L70.2095 31.5575ZM57.2994 14.1337L55.2659 12.7203H57.781L58.557 10.4074L59.3329 12.7203H61.848L59.8145 14.1337L60.5905 16.4466L58.557 15.0332L56.5235 16.4594L57.2994 14.1465V14.1337ZM65.3264 20.0573L66.1157 17.7444L66.8917 20.0573H69.4068L67.4268 21.5093L68.2027 23.8222L66.1692 22.383L64.1224 23.8222L64.8983 21.5093L62.8782 20.0701L65.3264 20.0573ZM66.8917 40.1666H69.4068L67.4268 41.6058L68.2027 43.9187L66.1692 42.4924L64.1224 43.9187L64.8983 41.6058L62.8782 40.1666H65.3933L66.1826 37.8537L66.9586 40.1666H66.8917ZM61.848 47.5422L59.8145 48.9556L60.5905 51.2685L58.557 49.8422L56.5235 51.2685L57.2994 48.9556L55.2659 47.5422H57.781L58.557 45.2293L59.3329 47.5422H61.848Z" fill="#FFCC00"/>
<path d="M112.378 35.5801H116.244V45.5384C116.214 46.5684 116.264 47.5991 116.391 48.6222C116.541 49.3437 116.959 49.988 117.569 50.434C118.321 50.9218 119.218 51.1608 120.124 51.115C121.004 51.1694 121.879 50.9436 122.612 50.4726C123.158 50.0674 123.525 49.4806 123.642 48.8278C123.773 47.792 123.827 46.7486 123.803 45.7054V35.5801H127.683V45.2428C127.733 46.8082 127.626 48.3746 127.361 49.92C127.183 50.7706 126.788 51.5653 126.211 52.2329C125.591 52.8985 124.817 53.4137 123.95 53.7363C122.77 54.1391 121.522 54.3265 120.271 54.2888C118.856 54.354 117.442 54.1487 116.11 53.6849C115.244 53.3328 114.474 52.7917 113.863 52.1044C113.353 51.5254 112.983 50.8453 112.779 50.1128C112.471 48.559 112.337 46.9782 112.378 45.397V35.5801Z" fill="white"/>
<path d="M143.549 53.9665H139.87V47.1564C139.918 46.2214 139.841 45.2844 139.643 44.368C139.5 43.9712 139.234 43.6259 138.88 43.3786C138.483 43.1313 138.015 43.01 137.542 43.0317C136.931 43.0256 136.333 43.2006 135.83 43.5328C135.351 43.8431 134.99 44.2939 134.8 44.8178C134.564 45.8204 134.469 46.849 134.519 47.8759V53.9665H130.893V40.6417H134.305V42.6077C135.355 41.1829 137.063 40.3391 138.88 40.3462C139.643 40.3365 140.4 40.4809 141.101 40.7702C141.695 40.9954 142.22 41.3625 142.626 41.8367C142.963 42.2786 143.204 42.7811 143.335 43.3144C143.502 44.0961 143.574 44.8938 143.549 45.6915V53.9665Z" fill="white"/>
<path d="M146.6 38.8438V35.5801H150.265V38.8438H146.6ZM146.6 53.9804V40.6427H150.265V53.9676L146.6 53.9804Z" fill="white"/>
<path d="M152.513 47.1181C152.519 45.9325 152.832 44.767 153.423 43.7259C153.973 42.6373 154.861 41.7394 155.964 41.156C157.102 40.5801 158.371 40.2843 159.657 40.2951C161.588 40.2301 163.46 40.9428 164.821 42.2611C166.165 43.5829 166.89 45.3742 166.828 47.2209C166.892 49.0857 166.162 50.895 164.807 52.2322C163.463 53.5526 161.606 54.2744 159.684 54.2239C158.42 54.2286 157.173 53.9469 156.045 53.4015C154.904 52.8899 153.965 52.0381 153.369 50.973C152.757 49.7756 152.463 48.4513 152.513 47.1181ZM156.272 47.3109C156.195 48.4051 156.549 49.4871 157.262 50.3433C157.869 51.011 158.747 51.3941 159.67 51.3941C160.593 51.3941 161.471 51.011 162.078 50.3433C162.79 49.4768 163.138 48.3859 163.055 47.2852C163.133 46.2009 162.784 45.128 162.078 44.2784C161.471 43.6108 160.593 43.2277 159.67 43.2277C158.747 43.2277 157.869 43.6108 157.262 44.2784C156.549 45.1346 156.195 46.2167 156.272 47.3109Z" fill="white"/>
<path d="M181.664 53.9665H177.931V47.1564C177.979 46.2214 177.903 45.2844 177.704 44.368C177.561 43.9712 177.295 43.6259 176.941 43.3786C176.544 43.1313 176.076 43.01 175.604 43.0317C174.993 43.0256 174.395 43.2006 173.891 43.5328C173.412 43.8431 173.051 44.2939 172.861 44.8178C172.625 45.8204 172.531 46.849 172.58 47.8759V53.9665H168.901V40.6417H172.313V42.6077C173.363 41.1829 175.07 40.3391 176.888 40.3462C177.651 40.3365 178.408 40.4809 179.109 40.7702C179.703 40.9954 180.228 41.3625 180.634 41.8367C180.97 42.281 181.215 42.7824 181.356 43.3144C181.511 44.0976 181.579 44.8945 181.557 45.6915L181.664 53.9665Z" fill="white"/>
<path d="M112.378 26.1222V7.70898H126.626V10.8314H116.284V14.9175H125.903V17.9885H116.284V22.9869H126.987V26.0965L112.378 26.1222Z" fill="white"/>
<path d="M139.001 26.1211V24.1166C138.494 24.8296 137.809 25.4085 137.007 25.7999C136.183 26.2153 135.263 26.4272 134.332 26.4166C133.454 26.432 132.588 26.2283 131.817 25.8256C131.102 25.4626 130.537 24.8785 130.211 24.168C129.862 23.225 129.712 22.2247 129.77 21.2255V12.8477H133.449V18.9768C133.395 20.1283 133.462 21.282 133.65 22.4205C133.767 22.8261 134.027 23.1802 134.385 23.4227C134.78 23.6775 135.248 23.8077 135.723 23.7954C136.322 23.8011 136.907 23.6258 137.395 23.2942C137.869 23.0068 138.231 22.5779 138.426 22.0735C138.666 20.8891 138.756 19.681 138.693 18.4757V12.8477H142.372V26.1211H139.001Z" fill="white"/>
<path d="M149.316 26.1222H145.65V12.8487H149.061V14.7504C149.454 14.0608 149.992 13.457 150.64 12.9772C151.112 12.6911 151.661 12.5437 152.219 12.5532C153.075 12.5552 153.913 12.7866 154.64 13.2213L153.503 16.2923C152.999 15.9424 152.399 15.7415 151.777 15.7141C151.295 15.6986 150.822 15.8439 150.439 16.1253C150.011 16.5261 149.718 17.0407 149.597 17.603C149.33 19.0746 149.227 20.5692 149.289 22.0617L149.316 26.1222Z" fill="white"/>
<path d="M154.974 19.2737C154.976 18.0892 155.284 16.9236 155.871 15.8815C156.43 14.7949 157.322 13.8982 158.426 13.3116C159.56 12.7268 160.831 12.4305 162.119 12.4507C164.037 12.4118 165.887 13.1374 167.229 14.4552C168.573 15.7771 169.298 17.5683 169.236 19.4151C169.298 21.2733 168.574 23.0766 167.229 24.4135C165.889 25.7332 164.037 26.4552 162.119 26.4052C160.855 26.4099 159.608 26.1282 158.48 25.5828C157.343 25.0651 156.406 24.215 155.804 23.1543C155.197 21.9467 154.912 20.6133 154.974 19.2737ZM158.734 19.4665C158.652 20.5592 159.001 21.6415 159.71 22.499C160.32 23.1672 161.2 23.5503 162.125 23.5503C163.05 23.5503 163.93 23.1672 164.54 22.499C165.252 21.6324 165.6 20.5415 165.517 19.4408C165.594 18.3565 165.246 17.2836 164.54 16.434C163.93 15.7658 163.05 15.3826 162.125 15.3826C161.2 15.3826 160.32 15.7658 159.71 16.434C159.004 17.2881 158.655 18.3653 158.734 19.4536V19.4665Z" fill="white"/>
<path d="M171.604 12.8488H175.029V14.8148C175.479 14.1342 176.1 13.5731 176.835 13.1829C177.598 12.758 178.467 12.5404 179.35 12.5533C180.935 12.5374 182.443 13.2075 183.457 14.3779C184.657 15.8044 185.258 17.6101 185.143 19.4406C185.239 21.2944 184.636 23.1194 183.444 24.5803C182.41 25.7641 180.878 26.4389 179.269 26.4178C178.548 26.4286 177.834 26.279 177.182 25.9809C176.456 25.588 175.805 25.0797 175.256 24.4775V31.1849H171.59L171.604 12.8488ZM175.256 19.2735C175.16 20.4533 175.491 21.6288 176.192 22.6015C176.731 23.2766 177.568 23.6711 178.453 23.668C179.282 23.6763 180.067 23.3157 180.581 22.6915C181.229 21.7322 181.525 20.5928 181.423 19.4534C181.517 18.3515 181.209 17.2526 180.554 16.3439C180.04 15.6943 179.236 15.3176 178.387 15.3287C177.524 15.315 176.702 15.6791 176.152 16.3182C175.5 17.1708 175.182 18.2177 175.256 19.2735Z" fill="white"/>
<path d="M195.819 21.843L199.471 22.4212C199.087 23.6096 198.307 24.6437 197.25 25.3637C196.12 26.0743 194.787 26.4291 193.437 26.3788C191.37 26.5264 189.362 25.6732 188.086 24.1045C187.142 22.7516 186.673 21.1442 186.748 19.5172C186.646 17.6454 187.292 15.8068 188.554 14.3774C189.719 13.1456 191.384 12.4609 193.116 12.5014C194.967 12.4131 196.761 13.1306 197.999 14.4545C199.324 16.187 199.934 18.3292 199.712 20.4681H190.521C190.488 21.3592 190.802 22.23 191.404 22.9095C191.944 23.48 192.715 23.7985 193.518 23.7832C194.042 23.7956 194.556 23.6371 194.976 23.3335C195.408 22.9307 195.702 22.4107 195.819 21.843ZM196.033 18.2708C196.067 17.4234 195.772 16.5941 195.203 15.9451C194.718 15.431 194.026 15.141 193.303 15.1484C192.543 15.1314 191.814 15.4369 191.31 15.9836C190.761 16.6246 190.488 17.4429 190.548 18.2708H196.033Z" fill="white"/>
<path d="M205.411 16.8571L202.08 16.2789C202.353 15.1368 203.035 14.1229 204.006 13.4135C205.219 12.7311 206.616 12.4092 208.02 12.4883C209.264 12.4267 210.508 12.6149 211.672 13.0408C212.382 13.3306 212.977 13.8302 213.371 14.4671C213.776 15.4685 213.945 16.5436 213.866 17.6152V21.7399C213.841 22.5998 213.9 23.4601 214.04 24.3098C214.18 24.9332 214.4 25.5374 214.695 26.1087H211.07C210.981 25.8688 210.86 25.5219 210.709 25.0679C210.709 24.8495 210.602 24.721 210.588 24.6439C210.004 25.1893 209.319 25.625 208.568 25.9288C207.845 26.2247 207.066 26.3735 206.28 26.3657C205.047 26.4334 203.836 26.0318 202.909 25.2478C201.567 23.9715 201.292 21.9853 202.24 20.4164C202.615 19.8276 203.158 19.3548 203.805 19.0544C204.739 18.6674 205.719 18.3912 206.722 18.232C207.938 18.0538 209.134 17.7656 210.294 17.3711V17.0113C210.349 16.4813 210.158 15.9549 209.772 15.5722C209.187 15.2174 208.494 15.0634 207.806 15.1353C207.265 15.1072 206.729 15.2372 206.267 15.5079C205.841 15.8601 205.542 16.3322 205.411 16.8571ZM210.321 19.7225C209.852 19.8639 209.103 20.0438 208.086 20.2622C207.394 20.3648 206.722 20.5684 206.093 20.8661C205.635 21.1441 205.362 21.631 205.371 22.1511C205.366 22.638 205.575 23.1042 205.946 23.436C206.336 23.7978 206.862 23.9924 207.404 23.9757C208.091 23.9647 208.756 23.7442 209.304 23.3461C209.722 23.0609 210.028 22.6491 210.174 22.1768C210.297 21.6109 210.346 21.0325 210.321 20.455V19.7225Z" fill="white"/>
<path d="M230 26.1221H226.335V19.2733C226.387 18.3377 226.306 17.3996 226.094 16.485C225.961 16.0831 225.693 15.7351 225.331 15.4956C224.936 15.2442 224.467 15.1225 223.993 15.1487C223.382 15.1426 222.784 15.3176 222.281 15.6498C221.795 15.9529 221.432 16.4062 221.251 16.9347C221.015 17.9374 220.92 18.966 220.97 19.9929V26.0321H217.291V12.8486H220.742V14.8146C221.791 13.3882 223.5 12.5438 225.318 12.5531C226.081 12.5445 226.837 12.689 227.539 12.9771C228.133 13.2023 228.658 13.5694 229.064 14.0436C229.401 14.4856 229.642 14.9881 229.773 15.5213C229.928 16.3045 229.995 17.1015 229.973 17.8985L230 26.1221Z" fill="white"/>
</svg>
