<svg width="230" height="62" viewBox="0 0 230 62" fill="none" xmlns="http://www.w3.org/2000/svg">
<path d="M96.3239 0H0V61.6772H96.3239V0Z" fill="#003399"/>
<path d="M46.9044 11.4491L44.8709 10.0229H47.386L48.162 7.70996L48.9379 10.0229H51.453L49.4195 11.4491L50.1955 13.7749L48.162 12.3358L46.1285 13.7749L46.9044 11.4491ZM49.4195 51.655L50.1955 53.9679L48.162 52.5416L46.1285 53.9679L46.9044 51.655L44.8709 50.2287H47.386L48.162 47.903L48.9379 50.2287H51.453L49.4195 51.655ZM27.3721 32.3809L25.3386 33.82L26.1145 31.5071L24.081 30.1194H26.5961L27.3721 27.8065L28.148 30.1194H30.6765L28.6296 31.5585L29.4056 33.8714L27.3721 32.4322V32.3809ZM39.0246 14.1347L39.8005 16.4476L37.767 15.0341L35.7335 16.4604L36.5094 14.1475L34.4759 12.7212H36.9911L37.767 10.4083L38.543 12.7212H41.0581L39.0246 14.1347ZM29.4323 20.0711L30.2083 17.7582L30.9976 20.0711H33.4458L31.4123 21.5102L32.1883 23.8231L30.1414 22.384L28.0945 23.8231L28.8704 21.5102L26.8369 20.0711H29.4323ZM26.8637 40.1676H29.4323L30.2083 37.8547L30.9976 40.1676H33.4458L31.4123 41.6067L32.1883 43.9196L30.1414 42.4933L28.0945 43.9196L28.8704 41.6067L26.8369 40.1676H26.8637ZM36.5094 48.9566L34.4759 47.5432H36.9911L37.767 45.2303L38.543 47.5432H41.0581L39.0246 48.9566L39.8005 51.2695L37.767 49.8432L35.7335 51.2695L36.5094 48.9566ZM70.2094 31.5585L70.9854 33.8714L68.9519 32.4322L66.8916 33.8714L67.6675 31.5585L65.6207 30.1194H68.2294L69.0054 27.8065L69.7813 30.1194H72.2429L70.2094 31.5585ZM57.2994 14.1347L55.2658 12.7212H57.781L58.5569 10.4083L59.3329 12.7212H61.848L59.8145 14.1347L60.5904 16.4476L58.5569 15.0341L56.5234 16.4604L57.2994 14.1475V14.1347ZM65.3263 20.0583L66.1157 17.7454L66.8916 20.0583H69.4067L67.4267 21.5102L68.2027 23.8231L66.1692 22.384L64.1223 23.8231L64.8982 21.5102L62.8781 20.0711L65.3263 20.0583ZM66.8916 40.1676H69.4067L67.4267 41.6067L68.2027 43.9196L66.1692 42.4933L64.1223 43.9196L64.8982 41.6067L62.8781 40.1676H65.3932L66.1826 37.8547L66.9585 40.1676H66.8916ZM61.848 47.5432L59.8145 48.9566L60.5904 51.2695L58.5569 49.8432L56.5234 51.2695L57.2994 48.9566L55.2658 47.5432H57.781L58.5569 45.2303L59.3329 47.5432H61.848Z" fill="#FFCC00"/>
<path d="M112.378 35.5801H116.244V45.5384C116.215 46.5684 116.264 47.5991 116.391 48.6222C116.541 49.3437 116.96 49.988 117.569 50.434C118.321 50.9218 119.218 51.1608 120.124 51.115C121.004 51.1694 121.879 50.9436 122.612 50.4726C123.158 50.0674 123.525 49.4806 123.642 48.8278C123.773 47.792 123.827 46.7486 123.803 45.7054V35.5801H127.683V45.2428C127.733 46.8082 127.626 48.3746 127.362 49.92C127.183 50.7706 126.788 51.5653 126.211 52.2329C125.592 52.8985 124.817 53.4137 123.95 53.7363C122.77 54.1391 121.523 54.3265 120.271 54.2888C118.856 54.354 117.442 54.1487 116.11 53.6849C115.244 53.3328 114.474 52.7917 113.863 52.1044C113.353 51.5254 112.983 50.8453 112.779 50.1128C112.471 48.559 112.337 46.9782 112.378 45.397V35.5801Z" fill="#515560"/>
<path d="M143.549 53.9675H139.87V47.1573C139.918 46.2224 139.841 45.2854 139.643 44.369C139.5 43.9721 139.234 43.6269 138.88 43.3796C138.483 43.1323 138.015 43.011 137.542 43.0327C136.932 43.0266 136.334 43.2016 135.83 43.5338C135.351 43.8441 134.99 44.2949 134.8 44.8187C134.564 45.8214 134.469 46.85 134.519 47.8769V53.9675H130.893V40.6427H134.305V42.6086C135.355 41.1839 137.063 40.3401 138.88 40.3471C139.643 40.3375 140.4 40.4819 141.101 40.7712C141.696 40.9964 142.22 41.3634 142.626 41.8377C142.963 42.2796 143.204 42.7821 143.335 43.3154C143.502 44.0971 143.574 44.8948 143.549 45.6925V53.9675Z" fill="#515560"/>
<path d="M146.6 38.8438V35.5801H150.265V38.8438H146.6ZM146.6 53.9804V40.6427H150.265V53.9676L146.6 53.9804Z" fill="#515560"/>
<path d="M152.513 47.1186C152.519 45.933 152.832 44.7675 153.422 43.7264C153.972 42.6378 154.861 41.7398 155.964 41.1565C157.102 40.5806 158.371 40.2847 159.657 40.2956C161.588 40.2306 163.46 40.9433 164.821 42.2615C166.165 43.5834 166.89 45.3746 166.828 47.2214C166.892 49.0862 166.162 50.8955 164.807 52.2327C163.463 53.553 161.606 54.2749 159.684 54.2244C158.42 54.2291 157.173 53.9474 156.045 53.402C154.904 52.8903 153.965 52.0386 153.369 50.9735C152.757 49.7761 152.463 48.4517 152.513 47.1186ZM156.272 47.3114C156.195 48.4056 156.549 49.4876 157.262 50.3438C157.869 51.0115 158.747 51.3945 159.67 51.3945C160.593 51.3945 161.471 51.0115 162.078 50.3438C162.79 49.4773 163.138 48.3864 163.055 47.2857C163.133 46.2014 162.784 45.1285 162.078 44.2789C161.471 43.6113 160.593 43.2282 159.67 43.2282C158.747 43.2282 157.869 43.6113 157.262 44.2789C156.549 45.1351 156.195 46.2172 156.272 47.3114Z" fill="#515560"/>
<path d="M181.664 53.9675H177.932V47.1573C177.979 46.2224 177.903 45.2854 177.704 44.369C177.561 43.9721 177.295 43.6269 176.942 43.3796C176.544 43.1323 176.077 43.011 175.604 43.0327C174.993 43.0266 174.395 43.2016 173.891 43.5338C173.413 43.8441 173.051 44.2949 172.861 44.8187C172.625 45.8214 172.531 46.85 172.58 47.8769V53.9675H168.901V40.6427H172.313V42.6086C173.363 41.1839 175.07 40.3401 176.888 40.3471C177.651 40.3375 178.408 40.4819 179.109 40.7712C179.703 40.9964 180.228 41.3634 180.634 41.8377C180.97 42.2819 181.215 42.7834 181.356 43.3154C181.511 44.0986 181.579 44.8955 181.557 45.6925L181.664 53.9675Z" fill="#515560"/>
<path d="M112.378 26.1232V7.70996H126.626V10.8324H116.284V14.9185H125.903V17.9895H116.284V22.9879H126.987V26.0975L112.378 26.1232Z" fill="#515560"/>
<path d="M139.001 26.1231V24.1186C138.494 24.8315 137.808 25.4104 137.007 25.8018C136.182 26.2172 135.263 26.4292 134.332 26.4186C133.454 26.434 132.588 26.2303 131.817 25.8275C131.102 25.4646 130.537 24.8805 130.211 24.1699C129.862 23.227 129.712 22.2267 129.77 21.2274V12.8496H133.449V18.9788C133.395 20.1302 133.462 21.284 133.649 22.4224C133.767 22.828 134.027 23.1821 134.385 23.4247C134.78 23.6794 135.248 23.8097 135.723 23.7973C136.321 23.8031 136.906 23.6277 137.395 23.2962C137.869 23.0087 138.231 22.5798 138.425 22.0755C138.666 20.891 138.756 19.6829 138.693 18.4777V12.8496H142.372V26.1231H139.001Z" fill="#515560"/>
<path d="M149.315 26.1231H145.65V12.8497H149.061V14.7514C149.454 14.0618 149.992 13.4579 150.64 12.9782C151.112 12.6921 151.66 12.5447 152.218 12.5541C153.075 12.5562 153.913 12.7876 154.64 13.2223L153.503 16.2933C152.998 15.9434 152.399 15.7424 151.777 15.7151C151.295 15.6996 150.822 15.8449 150.439 16.1263C150.011 16.5271 149.718 17.0417 149.596 17.604C149.33 19.0756 149.227 20.5702 149.289 22.0627L149.315 26.1231Z" fill="#515560"/>
<path d="M154.974 19.2742C154.976 18.0897 155.284 16.9241 155.871 15.882C156.43 14.7953 157.322 13.8987 158.426 13.3121C159.56 12.7273 160.831 12.4309 162.118 12.4512C164.037 12.4123 165.887 13.1379 167.229 14.4557C168.573 15.7776 169.298 17.5688 169.236 19.4156C169.298 21.2738 168.574 23.077 167.229 24.414C165.889 25.7337 164.037 26.4557 162.118 26.4057C160.855 26.4104 159.608 26.1287 158.479 25.5833C157.343 25.0656 156.406 24.2155 155.804 23.1548C155.197 21.9472 154.912 20.6138 154.974 19.2742ZM158.734 19.467C158.652 20.5597 159 21.642 159.71 22.4994C160.32 23.1676 161.2 23.5508 162.125 23.5508C163.05 23.5508 163.93 23.1676 164.54 22.4994C165.251 21.6329 165.6 20.542 165.516 19.4413C165.594 18.357 165.246 17.2841 164.54 16.4345C163.93 15.7663 163.05 15.3831 162.125 15.3831C161.2 15.3831 160.32 15.7663 159.71 16.4345C159.004 17.2886 158.655 18.3658 158.734 19.4541V19.467Z" fill="#515560"/>
<path d="M171.604 12.8498H175.029V14.8157C175.479 14.1352 176.1 13.5741 176.835 13.1839C177.598 12.759 178.467 12.5414 179.35 12.5542C180.935 12.5384 182.443 13.2085 183.457 14.3789C184.657 15.8054 185.258 17.6111 185.143 19.4415C185.239 21.2954 184.636 23.1204 183.443 24.5813C182.41 25.7651 180.878 26.4398 179.269 26.4188C178.548 26.4295 177.834 26.28 177.182 25.9819C176.456 25.589 175.805 25.0806 175.256 24.4785V31.1859H171.59L171.604 12.8498ZM175.256 19.2745C175.16 20.4543 175.491 21.6298 176.192 22.6025C176.731 23.2776 177.568 23.6721 178.453 23.669C179.282 23.6772 180.067 23.3166 180.581 22.6924C181.229 21.7332 181.525 20.5937 181.423 19.4544C181.517 18.3525 181.209 17.2536 180.554 16.3448C180.04 15.6953 179.236 15.3185 178.386 15.3297C177.524 15.316 176.702 15.6801 176.152 16.3191C175.5 17.1718 175.182 18.2187 175.256 19.2745Z" fill="#515560"/>
<path d="M195.818 21.8439L199.471 22.4222C199.087 23.6106 198.306 24.6446 197.25 25.3647C196.12 26.0753 194.787 26.4301 193.437 26.3798C191.37 26.5274 189.362 25.6742 188.086 24.1054C187.142 22.7526 186.673 21.1452 186.748 19.5182C186.646 17.6464 187.292 15.8078 188.554 14.3784C189.719 13.1466 191.384 12.4619 193.116 12.5024C194.967 12.4141 196.761 13.1315 197.999 14.4555C199.324 16.188 199.934 18.3302 199.711 20.4691H190.521C190.487 21.3602 190.802 22.231 191.404 22.9104C191.944 23.481 192.714 23.7995 193.517 23.7842C194.042 23.7966 194.556 23.6381 194.976 23.3345C195.408 22.9317 195.702 22.4116 195.818 21.8439ZM196.032 18.2718C196.067 17.4244 195.771 16.595 195.203 15.9461C194.717 15.4319 194.026 15.142 193.303 15.1494C192.543 15.1323 191.814 15.4379 191.31 15.9846C190.761 16.6256 190.488 17.4439 190.547 18.2718H196.032Z" fill="#515560"/>
<path d="M205.411 16.8586L202.079 16.2804C202.353 15.1382 203.035 14.1243 204.006 13.4149C205.219 12.7326 206.616 12.4106 208.019 12.4898C209.264 12.4282 210.507 12.6164 211.672 13.0423C212.382 13.332 212.977 13.8317 213.371 14.4686C213.776 15.47 213.945 16.5451 213.866 17.6167V21.7414C213.841 22.6013 213.899 23.4616 214.04 24.3112C214.18 24.9346 214.4 25.5389 214.695 26.1102H211.07C210.98 25.8703 210.86 25.5234 210.708 25.0694C210.708 24.8509 210.601 24.7224 210.588 24.6453C210.004 25.1907 209.319 25.6265 208.568 25.9303C207.845 26.2262 207.066 26.3749 206.28 26.3672C205.047 26.4349 203.836 26.0332 202.909 25.2493C201.566 23.973 201.291 21.9867 202.24 20.4179C202.615 19.8291 203.158 19.3562 203.805 19.0558C204.739 18.6689 205.718 18.3927 206.722 18.2335C207.938 18.0553 209.134 17.767 210.294 17.3726V17.0128C210.349 16.4827 210.158 15.9564 209.772 15.5736C209.187 15.2188 208.493 15.0648 207.805 15.1368C207.265 15.1087 206.729 15.2386 206.267 15.5094C205.841 15.8616 205.541 16.3337 205.411 16.8586ZM210.32 19.724C209.852 19.8653 209.103 20.0452 208.086 20.2637C207.394 20.3663 206.721 20.5699 206.093 20.8676C205.635 21.1455 205.361 21.6325 205.371 22.1525C205.366 22.6394 205.575 23.1057 205.946 23.4375C206.336 23.7992 206.862 23.9939 207.404 23.9772C208.091 23.9661 208.756 23.7456 209.304 23.3475C209.722 23.0624 210.028 22.6506 210.173 22.1782C210.296 21.6124 210.346 21.034 210.32 20.4564V19.724Z" fill="#515560"/>
<path d="M230 26.1231H226.334V19.2743C226.387 18.3387 226.306 17.4005 226.094 16.486C225.961 16.0841 225.692 15.7361 225.331 15.4966C224.936 15.2452 224.466 15.1234 223.993 15.1497C223.382 15.1436 222.784 15.3186 222.281 15.6508C221.795 15.9538 221.432 16.4072 221.251 16.9357C221.015 17.9384 220.92 18.967 220.97 19.9939V26.0331H217.291V12.8496H220.742V14.8156C221.791 13.3892 223.499 12.5448 225.318 12.5541C226.081 12.5455 226.837 12.6899 227.538 12.9781C228.133 13.2033 228.658 13.5704 229.064 14.0446C229.401 14.4865 229.642 14.9891 229.773 15.5223C229.928 16.3055 229.995 17.1024 229.973 17.8994L230 26.1231Z" fill="#515560"/>
</svg>
