<?xml version="1.0" encoding="utf-8"?>
<!-- Generator: Adobe Illustrator 26.2.1, SVG Export Plug-In . SVG Version: 6.00 Build 0)  -->
<svg version="1.1" id="Vrstva_1" xmlns="http://www.w3.org/2000/svg" xmlns:xlink="http://www.w3.org/1999/xlink" x="0px" y="0px"
	 viewBox="0 0 1080 600" style="enable-background:new 0 0 1080 600;" xml:space="preserve">
<g>
	<g>
		<path d="M463.8,239.88c-6.33,0.95-17.45,3.71-26.55,12.78c-5.56,5.54-15.07,18.15-10.82,25.56c1.75,3.05,5.59,4.83,8.85,4.92
			c4.25,0.11,6.25-2.69,13.77-7.87c8.81-6.07,10.16-5.04,12.78-7.87C464.39,264.66,468.68,257.68,463.8,239.88z"/>
		<path d="M550.63,237.28c-0.23-3.24-0.07-6.08,0.2-8.33c-2.41-2.14-5.36-5.02-8.38-8.73c-8.3-10.18-12.37-20.67-15.73-29.5
			c-4.65-12.24-3.28-13.03-6.88-18.68c-6.14-9.65-14.7-14.51-18.68-16.71c-5.48-3.03-13.09-7.25-22.61-6.88
			c-9.46,0.36-14.13,4.99-27.53,12.78c-6.79,3.95-17.02,9.41-30.48,14.75c3.65,2.82,9.67,6.64,17.7,7.87
			c10.15,1.55,14.26-2.47,19.66,0.98c6.96,4.45,5.5,14.56,12.78,16.71c0.74,0.22,2.8,0.83,4.92,0c4.74-1.85,3.68-8.52,7.87-12.78
			c4.11-4.19,11.76-4.5,16.71-2.95c8.68,2.71,9.38,11.16,19.66,24.58c10.5,13.7,12.97,9.08,18.68,18.68
			c9.07,15.24,3.79,28.49,15.73,41.3c1.04,1.11,4.41,4.73,5.9,3.93c2.01-1.08-0.46-9.69-3.23-17.67
			C551.3,246.22,550.63,237.28,550.63,237.28z"/>
		<g>
			<path d="M560.16,274.29c0.24-0.13,0.4-0.38,0.52-0.7C560.56,273.92,560.39,274.17,560.16,274.29z"/>
			<path d="M545.22,223.39c-0.91-0.99-1.83-2.03-2.76-3.18C543.39,221.36,544.31,222.4,545.22,223.39z"/>
			<path d="M547.88,226.17c-0.59-0.58-1.2-1.21-1.82-1.86C546.69,224.96,547.29,225.58,547.88,226.17z"/>
			<path d="M560.88,272.1c0-0.48-0.05-1.03-0.12-1.63C560.84,271.07,560.88,271.62,560.88,272.1z"/>
			<path d="M560.29,267.85c-0.16-0.74-0.35-1.52-0.57-2.33C559.93,266.33,560.12,267.11,560.29,267.85z"/>
			<path d="M653.56,239.88c-25.92-31.54-93.85-10.89-100.29-8.85c-1.24-1.01-2.81-2.37-4.53-4.01c0.73,0.7,1.43,1.35,2.09,1.93
				c-0.27,2.26-0.43,5.09-0.2,8.33c0,0,0.67,8.95,6.29,19.35c1.02,2.93,1.99,5.94,2.72,8.64c-0.9-3.31-2.16-7.11-3.43-10.64
				c2.66-1.25,7.1-3.19,12.78-4.92c17.36-5.27,30.64-3.81,74.73-0.98c7.43,0.48,13.27,0.83,15.73,0.98
				C657.83,245.84,655.8,242.61,653.56,239.88z"/>
			<path d="M560.72,270.17c-0.09-0.62-0.21-1.29-0.36-2C560.51,268.88,560.63,269.55,560.72,270.17z"/>
			<path d="M560.71,273.51c0.1-0.32,0.15-0.74,0.16-1.21C560.87,272.77,560.82,273.19,560.71,273.51z"/>
		</g>
	</g>
	<g>
		<path d="M202.19,397.78c-0.14-17.74,13.8-29.23,29.99-29.36c9.11-0.07,16.94,3.58,21.9,9.42l-7.74,7.37
			c-3.27-3.57-8.2-5.81-13.83-5.77c-10.43,0.08-18.65,7.58-18.56,18.24c0.08,10.67,8.41,18.03,18.85,17.95
			c5.64-0.04,10.53-2.36,13.74-5.98l7.85,7.25c-4.87,5.91-12.64,9.69-21.75,9.76C216.44,426.79,202.33,415.52,202.19,397.78z"/>
		<path d="M267.89,397.15c-0.14-17.74,13.2-29.11,29.15-29.23c15.95-0.12,29.58,11.04,29.72,28.77
			c0.14,17.74-13.32,29.47-29.27,29.59C281.55,426.41,268.03,414.89,267.89,397.15z M315.02,396.78
			c-0.08-10.79-8.29-17.91-17.89-17.84c-9.59,0.07-17.57,7.33-17.49,18.11c0.08,10.91,8.18,18.15,17.77,18.08
			C307,415.06,315.1,407.69,315.02,396.78z"/>
		<path d="M344.13,348.38c-0.03-4.31,3.66-7.58,7.98-7.61c4.44-0.03,8.06,3.17,8.09,7.49c0.03,4.31-3.54,7.58-7.98,7.61
			C347.91,355.9,344.17,352.69,344.13,348.38z M346.45,368.74l11.75-0.09l0.43,55.97l-11.75,0.09L346.45,368.74z"/>
		<path d="M434.4,392.02l0.25,32l-11.75,0.09l-0.24-31.16c-0.07-9.11-5.63-14.34-12.82-14.28c-7.31,0.06-16.16,4.2-16.07,15.82
			l0.23,29.84l-11.75,0.09l-0.43-55.97l11.75-0.09l0.07,8.63c3.19-6.86,12.15-9.92,18.15-9.97
			C425.94,366.92,434.4,376.08,434.4,392.02z"/>
		<path d="M512.39,367.45l0.37,47.58c0.2,26.01-11.71,36.41-30.53,36.55c-10.55,0.08-20.43-5.36-25.78-15.26l9.91-4.99
			c3.16,5.97,9.67,9.39,15.78,9.35c11.75-0.09,19.01-6.86,18.88-24.6l-0.01-0.72c-3.79,6.14-11.8,9.44-19.23,9.5
			c-15.23,0.12-27.91-11.29-28.05-29.03c-0.14-17.86,12.36-29.22,27.47-29.34c7.79-0.06,15.61,2.99,19.5,9.2l-0.06-8.15
			L512.39,367.45z M500.74,395.35c-0.09-11.27-9.37-17.79-18-17.72c-9.59,0.07-17.33,7.45-17.25,17.99
			c0.08,10.43,7.93,18.16,17.53,18.08C492.49,413.63,500.82,406.61,500.74,395.35z"/>
		<path d="M591.28,366.84l0.43,55.97l-11.75,0.09l-0.06-8.39c-3.67,6.38-11.68,9.68-19.23,9.74c-15.23,0.12-27.91-11.29-28.04-29.03
			c-0.14-17.86,12.36-29.22,27.47-29.34c7.91-0.06,15.73,2.99,19.5,9.32l-0.06-8.27L591.28,366.84z M579.63,394.73
			c-0.09-11.27-9.37-17.79-18-17.72c-9.59,0.07-17.33,7.45-17.25,17.99c0.08,10.43,7.94,18.15,17.53,18.08
			C571.38,413.01,579.72,406,579.63,394.73z"/>
		<path d="M651.96,367.21L650,378.37c-3.13-1.41-6.01-1.87-8.29-1.85c-10.19,0.08-14.9,10.78-14.79,25.88l0.16,20.13l-11.87,0.09
			l-0.43-55.97l11.87-0.09l0.1,12.58c2.8-9.85,8.41-13.85,15.6-13.9C646.18,365.21,650.15,366.14,651.96,367.21z"/>
		<path d="M721.85,365.83l0.43,55.97l-11.75,0.09l-0.06-8.39c-3.67,6.38-11.68,9.68-19.23,9.74c-15.23,0.12-27.91-11.29-28.04-29.03
			c-0.14-17.86,12.36-29.22,27.47-29.34c7.91-0.06,15.73,2.99,19.5,9.32l-0.06-8.27L721.85,365.83z M710.2,393.72
			c-0.09-11.27-9.37-17.79-18-17.72c-9.59,0.07-17.33,7.45-17.25,17.99c0.08,10.43,7.94,18.15,17.53,18.08
			C701.94,412,710.28,404.99,710.2,393.72z"/>
		<path d="M800.74,367.45l0.37,47.58c0.2,26.01-11.71,36.41-30.54,36.55c-10.55,0.08-20.43-5.36-25.78-15.26l9.91-4.99
			c3.16,5.97,9.67,9.39,15.78,9.35c11.75-0.09,19.01-6.86,18.87-24.6l-0.01-0.72c-3.79,6.14-11.8,9.44-19.23,9.5
			c-15.23,0.12-27.91-11.29-28.05-29.03c-0.14-17.86,12.36-29.22,27.47-29.34c7.79-0.06,15.61,2.99,19.5,9.2l-0.06-8.15
			L800.74,367.45z M789.09,395.35c-0.09-11.27-9.37-17.79-18-17.72c-9.59,0.07-17.33,7.45-17.25,17.99
			c0.08,10.43,7.94,18.15,17.53,18.08C780.84,413.63,789.17,406.61,789.09,395.35z"/>
		<path d="M877.61,398.57L833,398.92c1.63,9.1,8.38,13.48,17.49,13.41c6.48-0.05,12.57-2.85,15.65-8.03l9.39,4.6
			c-4.84,9.39-14.88,14.26-25.55,14.34c-16.19,0.13-28.99-11.4-29.13-29.14c-0.14-17.74,12.73-29.1,28.67-29.23
			c15.95-0.12,28.14,11.05,28.28,28.66C877.82,395.09,877.72,396.77,877.61,398.57z M866.03,389.19
			c-1.15-8.74-7.66-13.48-16.29-13.42c-8.63,0.07-15.08,4.43-16.68,13.67L866.03,389.19z"/>
	</g>
</g>
</svg>
