<?xml version="1.0" encoding="utf-8"?>
<!-- Generator: Adobe Illustrator 26.2.1, SVG Export Plug-In . SVG Version: 6.00 Build 0)  -->
<svg version="1.1" id="Vrstva_1" xmlns="http://www.w3.org/2000/svg" xmlns:xlink="http://www.w3.org/1999/xlink" x="0px" y="0px"
	 viewBox="0 0 1080 600" style="enable-background:new 0 0 1080 600;" xml:space="preserve">
<g>
	<path d="M392.42,346.67c-12.26,1.84-33.8,7.19-51.42,24.75c-10.77,10.73-29.19,35.15-20.96,49.51c3.39,5.91,10.83,9.36,17.14,9.53
		c8.23,0.21,12.11-5.21,26.67-15.24c17.06-11.76,19.68-9.76,24.75-15.24C393.56,394.66,401.87,381.15,392.42,346.67z"/>
	<path d="M560.6,341.63c-0.45-6.28-0.14-11.78,0.39-16.13c-4.67-4.14-10.38-9.72-16.23-16.91c-16.08-19.72-23.96-40.04-30.47-57.14
		c-9.01-23.71-6.35-25.24-13.33-36.18c-11.89-18.69-28.47-28.1-36.18-32.37c-10.61-5.87-25.35-14.04-43.79-13.33
		c-18.32,0.7-27.37,9.67-53.32,24.75c-13.15,7.65-32.97,18.23-59.04,28.57c7.07,5.46,18.73,12.86,34.28,15.24
		c19.66,3,27.62-4.78,38.08,1.9c13.48,8.62,10.65,28.2,24.75,32.37c1.43,0.43,5.42,1.61,9.53,0c9.18-3.58,7.13-16.5,15.24-24.75
		c7.96-8.12,22.78-8.72,32.37-5.71c16.81,5.25,18.17,21.62,38.08,47.61c20.34,26.54,25.12,17.59,36.18,36.18
		c17.57,29.52,7.34,55.18,30.47,79.99c2.01,2.15,8.54,9.16,11.43,7.61c3.89-2.09-0.89-18.77-6.26-34.22
		C561.9,358.95,560.6,341.63,560.6,341.63z"/>
	<g>
		<path d="M579.06,413.32c0.46-0.25,0.77-0.74,1.01-1.36C579.83,412.6,579.5,413.08,579.06,413.32z"/>
		<path d="M550.12,314.73c-1.76-1.92-3.54-3.93-5.35-6.16C546.58,310.8,548.36,312.81,550.12,314.73z"/>
		<path d="M555.27,320.11c-1.14-1.12-2.32-2.34-3.53-3.6C552.97,317.77,554.13,318.97,555.27,320.11z"/>
		<path d="M580.45,409.08c0-0.93-0.1-1.99-0.23-3.16C580.37,407.08,580.45,408.15,580.45,409.08z"/>
		<path d="M579.31,400.84c-0.31-1.43-0.68-2.94-1.1-4.51C578.61,397.9,578.98,399.41,579.31,400.84z"/>
		<path d="M759.96,346.67c-50.2-61.09-181.78-21.09-194.25-17.14c-2.4-1.96-5.44-4.59-8.77-7.77c1.41,1.36,2.77,2.61,4.05,3.74
			c-0.52,4.38-0.83,9.86-0.39,16.13c0,0,1.3,17.34,12.18,37.48c1.98,5.68,3.85,11.51,5.27,16.73c-1.74-6.41-4.18-13.77-6.64-20.61
			c5.15-2.42,13.75-6.18,24.75-9.53c33.62-10.21,59.35-7.38,144.74-1.9c14.39,0.93,25.7,1.61,30.47,1.9
			C768.23,358.21,764.3,351.96,759.96,346.67z"/>
		<path d="M580.14,405.34c-0.17-1.2-0.41-2.5-0.7-3.87C579.74,402.84,579.97,404.14,580.14,405.34z"/>
		<path d="M580.12,411.81c0.19-0.62,0.29-1.43,0.31-2.34C580.43,410.37,580.34,411.19,580.12,411.81z"/>
	</g>
</g>
</svg>
