<?xml version="1.0" encoding="UTF-8" standalone="no"?>
<!DOCTYPE svg PUBLIC "-//W3C//DTD SVG 1.1//EN" "http://www.w3.org/Graphics/SVG/1.1/DTD/svg11.dtd">
<svg width="100%" height="100%" viewBox="0 0 56 56" version="1.1" xmlns="http://www.w3.org/2000/svg" xmlns:xlink="http://www.w3.org/1999/xlink" xml:space="preserve" xmlns:serif="http://www.serif.com/" style="fill-rule:evenodd;clip-rule:evenodd;stroke-linejoin:round;stroke-miterlimit:2;">
    <g transform="matrix(0.11003,0,0,0.11003,24.9191,24.9191)">
        <g transform="matrix(1,0,0,1,-512,-271.996)">
            <path d="M392.42,346.67C380.16,348.51 358.62,353.86 341,371.42C330.23,382.15 311.81,406.57 320.04,420.93C323.43,426.84 330.87,430.29 337.18,430.46C345.41,430.67 349.29,425.25 363.85,415.22C380.91,403.46 383.53,405.46 388.6,399.98C393.56,394.66 401.87,381.15 392.42,346.67Z" style="fill:rgb(255,31,112);fill-rule:nonzero;"/>
        </g>
        <g transform="matrix(1,0,0,1,-512,-271.996)">
            <path d="M560.6,341.63C560.15,335.35 560.46,329.85 560.99,325.5C556.32,321.36 550.61,315.78 544.76,308.59C528.68,288.87 520.8,268.55 514.29,251.45C505.28,227.74 507.94,226.21 500.96,215.27C489.07,196.58 472.49,187.17 464.78,182.9C454.17,177.03 439.43,168.86 420.99,169.57C402.67,170.27 393.62,179.24 367.67,194.32C354.52,201.97 334.7,212.55 308.63,222.89C315.7,228.35 327.36,235.75 342.91,238.13C362.57,241.13 370.53,233.35 380.99,240.03C394.47,248.65 391.64,268.23 405.74,272.4C407.17,272.83 411.16,274.01 415.27,272.4C424.45,268.82 422.4,255.9 430.51,247.65C438.47,239.53 453.29,238.93 462.88,241.94C479.69,247.19 481.05,263.56 500.96,289.55C521.3,316.09 526.08,307.14 537.14,325.73C554.71,355.25 544.48,380.91 567.61,405.72C569.62,407.87 576.15,414.88 579.04,413.33C582.93,411.24 578.15,394.56 572.78,379.11C561.9,358.95 560.6,341.63 560.6,341.63Z" style="fill:rgb(255,31,112);fill-rule:nonzero;"/>
        </g>
        <g transform="matrix(1,0,0,1,-512,-271.996)">
            <path d="M579.06,413.32C579.52,413.07 579.83,412.58 580.07,411.96C579.83,412.6 579.5,413.08 579.06,413.32Z" style="fill:rgb(255,31,112);fill-rule:nonzero;"/>
            <path d="M550.12,314.73C548.36,312.81 546.58,310.8 544.77,308.57C546.58,310.8 548.36,312.81 550.12,314.73Z" style="fill:rgb(255,31,112);fill-rule:nonzero;"/>
            <path d="M555.27,320.11C554.13,318.99 552.95,317.77 551.74,316.51C552.97,317.77 554.13,318.97 555.27,320.11Z" style="fill:rgb(255,31,112);fill-rule:nonzero;"/>
            <path d="M580.45,409.08C580.45,408.15 580.35,407.09 580.22,405.92C580.37,407.08 580.45,408.15 580.45,409.08Z" style="fill:rgb(255,31,112);fill-rule:nonzero;"/>
            <path d="M579.31,400.84C579,399.41 578.63,397.9 578.21,396.33C578.61,397.9 578.98,399.41 579.31,400.84Z" style="fill:rgb(255,31,112);fill-rule:nonzero;"/>
            <path d="M759.96,346.67C709.76,285.58 578.18,325.58 565.71,329.53C563.31,327.57 560.27,324.94 556.94,321.76C558.35,323.12 559.71,324.37 560.99,325.5C560.47,329.88 560.16,335.36 560.6,341.63C560.6,341.63 561.9,358.97 572.78,379.11C574.76,384.79 576.63,390.62 578.05,395.84C576.31,389.43 573.87,382.07 571.41,375.23C576.56,372.81 585.16,369.05 596.16,365.7C629.78,355.49 655.51,358.32 740.9,363.8C755.29,364.73 766.6,365.41 771.37,365.7C768.23,358.21 764.3,351.96 759.96,346.67Z" style="fill:rgb(255,31,112);fill-rule:nonzero;"/>
            <path d="M580.14,405.34C579.97,404.14 579.73,402.84 579.44,401.47C579.74,402.84 579.97,404.14 580.14,405.34Z" style="fill:rgb(255,31,112);fill-rule:nonzero;"/>
            <path d="M580.12,411.81C580.31,411.19 580.41,410.38 580.43,409.47C580.43,410.37 580.34,411.19 580.12,411.81Z" style="fill:rgb(255,31,112);fill-rule:nonzero;"/>
        </g>
    </g>
</svg>
