<svg width="280" height="73" viewBox="0 0 280 73" fill="none" xmlns="http://www.w3.org/2000/svg">
<g clip-path="url(#clip0_795_92)">
<path opacity="0.873" fill-rule="evenodd" clip-rule="evenodd" d="M250.833 -0.231018C251.922 -0.231018 253.011 -0.231018 254.1 -0.231018C256.377 1.47607 256.533 3.40117 254.566 5.5443C250.712 6.80013 248.924 5.49103 249.2 1.61708C249.522 0.76223 250.066 0.146196 250.833 -0.231018Z" fill="black"/>
<path opacity="0.889" fill-rule="evenodd" clip-rule="evenodd" d="M97.2969 1.6171C99.3189 1.6171 101.341 1.6171 103.364 1.6171C103.364 11.0116 103.364 20.4061 103.364 29.8006C101.341 29.8006 99.3189 29.8006 97.2969 29.8006C97.2969 20.4061 97.2969 11.0116 97.2969 1.6171Z" fill="black"/>
<path opacity="0.886" fill-rule="evenodd" clip-rule="evenodd" d="M154.703 1.6171C156.725 1.6171 158.748 1.6171 160.77 1.6171C160.692 6.39384 160.77 11.1681 161.003 15.9399C163.004 13.595 164.948 11.2079 166.836 8.77849C169.17 8.47046 171.503 8.47046 173.836 8.77849C171.03 12.1718 168.23 15.5601 165.436 18.943C168.319 22.3364 171.119 25.8016 173.836 29.3386C171.503 29.9546 169.17 29.9546 166.836 29.3386C165.005 26.7908 163.06 24.3266 161.003 21.9462C160.77 24.5598 160.692 27.178 160.77 29.8006C158.748 29.8006 156.725 29.8006 154.703 29.8006C154.703 20.4061 154.703 11.0116 154.703 1.6171Z" fill="black"/>
<path opacity="0.907" fill-rule="evenodd" clip-rule="evenodd" d="M199.031 1.6171C201.053 1.6171 203.076 1.6171 205.098 1.6171C205.02 4.85492 205.098 8.0891 205.331 11.3196C209.98 6.91542 214.491 7.06946 218.865 11.7817C219.176 12.7057 219.487 13.6298 219.798 14.5538C220.031 19.6338 220.109 24.7161 220.031 29.8006C218.165 29.8006 216.298 29.8006 214.431 29.8006C214.509 25.4856 214.431 21.1734 214.198 16.8639C212.982 13.2084 210.571 12.2074 206.965 13.8608C206.245 14.5904 205.701 15.4375 205.331 16.4019C205.098 20.8655 205.02 25.3317 205.098 29.8006C203.076 29.8006 201.053 29.8006 199.031 29.8006C199.031 20.4061 199.031 11.0116 199.031 1.6171Z" fill="black"/>
<path opacity="0.941" fill-rule="evenodd" clip-rule="evenodd" d="M-0.234375 3.00317C8.96498 2.801 18.1427 3.03201 27.299 3.69621C37.6353 7.59316 42.8464 15.0626 42.9323 26.1044C49.6859 32.7323 51.708 40.5868 48.999 49.6677C44.6532 59.6396 36.9532 64.4142 25.899 63.9905C25.899 61.5265 25.899 59.0621 25.899 56.5981C35.66 56.5482 41.26 51.7741 42.699 42.2753C42.5366 39.5594 41.681 37.0953 40.1323 34.8829C34.7111 43.4559 26.8556 47.152 16.5656 45.9715C16.5656 43.5074 16.5656 41.0432 16.5656 38.5791C24.6296 39.5932 30.5408 36.59 34.299 29.5696C33.3656 29.2616 32.4323 28.9536 31.499 28.6456C26.5236 28.4147 21.5458 28.3376 16.5656 28.4146C16.5656 25.7964 16.5656 23.1783 16.5656 20.5601C21.2349 20.4832 25.9016 20.5602 30.5656 20.7911C31.7491 20.9479 32.9158 21.1789 34.0656 21.4842C34.299 21.3302 34.5323 21.1761 34.7656 21.0222C32.8631 15.365 28.9742 11.8998 23.099 10.6266C17.968 10.3957 12.8346 10.3186 7.69896 10.3956C7.69896 25.7964 7.69896 41.1973 7.69896 56.5981C10.8101 56.5981 13.9212 56.5981 17.0323 56.5981C17.0323 59.0621 17.0323 61.5265 17.0323 63.9905C11.2768 63.9905 5.52117 63.9905 -0.234375 63.9905C-0.234375 43.6614 -0.234375 23.3323 -0.234375 3.00317Z" fill="#FE3B3A"/>
<path opacity="0.91" fill-rule="evenodd" clip-rule="evenodd" d="M73.5 3.00317C78.4803 2.92624 83.4582 3.00324 88.4333 3.23418C93.6143 5.37216 94.9363 8.99134 92.4 14.0918C91.742 14.6866 91.042 15.2257 90.3 15.7089C92.9423 17.1666 94.1864 19.3998 94.0333 22.4082C94.0165 26.9688 91.6832 29.3559 87.0333 29.5696C82.5249 29.8005 78.0136 29.8776 73.5 29.8006C73.5 20.8682 73.5 11.9356 73.5 3.00317ZM79.5667 7.62342C81.5948 7.54686 83.6169 7.62388 85.6333 7.85443C88.3596 9.53685 88.5155 11.385 86.1 13.3987C83.9692 14.0036 81.7913 14.2346 79.5667 14.0918C79.5667 11.9356 79.5667 9.77955 79.5667 7.62342ZM79.5667 18.25C81.7502 18.1734 83.9277 18.2504 86.1 18.481C89.2113 20.4831 89.2113 22.4853 86.1 24.4873C83.9277 24.718 81.7502 24.795 79.5667 24.7184C79.5667 22.5622 79.5667 20.4061 79.5667 18.25Z" fill="black"/>
<path opacity="0.922" fill-rule="evenodd" clip-rule="evenodd" d="M115.969 8.08545C123.588 7.85277 127.788 11.472 128.569 18.943C127.591 27.1421 122.925 30.6843 114.569 29.5696C107.968 27.3621 105.401 22.8189 106.869 15.9399C108.2 11.325 111.233 8.70682 115.969 8.08545ZM116.436 13.1677C119.529 13.038 121.473 14.4241 122.269 17.326C122.861 23.212 120.294 25.4451 114.569 24.0253C112.113 21.4583 111.725 18.6091 113.403 15.4779C114.245 14.4033 115.256 13.6333 116.436 13.1677Z" fill="black"/>
<path opacity="0.911" fill-rule="evenodd" clip-rule="evenodd" d="M139.766 8.08544C144.647 7.71069 148.303 9.55879 150.732 13.6297C151.188 14.6647 151.421 15.7427 151.432 16.8639C149.41 16.8639 147.388 16.8639 145.366 16.8639C144.308 13.6098 142.13 12.6088 138.832 13.8608C135.893 17.1099 135.737 20.4981 138.366 24.0253C139.86 24.7106 141.416 24.8646 143.032 24.4873C144.214 24.0099 144.992 23.1629 145.366 21.9462C147.364 21.4878 149.386 21.3337 151.432 21.4842C150.883 25.6503 148.55 28.3454 144.432 29.5696C132.799 30.2005 128.521 24.8872 131.599 13.6297C133.407 10.3633 136.129 8.51522 139.766 8.08544Z" fill="black"/>
<path opacity="0.918" fill-rule="evenodd" clip-rule="evenodd" d="M184.566 8.08545C189.741 7.83267 193.397 9.9888 195.532 14.5538C195.763 15.3088 195.84 16.0789 195.766 16.8639C193.744 16.8639 191.721 16.8639 189.699 16.8639C188.676 13.509 186.498 12.508 183.166 13.8608C179.925 17.5906 180.081 21.1328 183.632 24.4873C186.446 25.3621 188.468 24.5151 189.699 21.9462C191.698 21.4878 193.72 21.3337 195.766 21.4842C195.217 25.6503 192.883 28.3454 188.766 29.5696C177.526 30.2131 173.248 25.0538 175.932 14.0918C177.755 10.5382 180.633 8.53606 184.566 8.08545Z" fill="black"/>
<path opacity="0.926" fill-rule="evenodd" clip-rule="evenodd" d="M231.697 8.08544C234.999 7.91089 237.565 9.14297 239.397 11.7816C239.629 10.7145 239.706 9.63637 239.63 8.54747C241.497 8.54747 243.363 8.54747 245.23 8.54747C245.23 15.6318 245.23 22.7163 245.23 29.8006C243.363 29.8006 241.497 29.8006 239.63 29.8006C239.706 28.7117 239.629 27.6336 239.397 26.5665C236.389 29.8455 232.733 30.6926 228.43 29.1076C224.683 26.8482 222.972 23.537 223.297 19.1741C222.972 13.0037 225.772 9.3075 231.697 8.08544ZM233.563 13.1677C237.292 13.4708 239.314 15.4729 239.63 19.1741C239.412 22.5442 237.622 24.3923 234.263 24.7184C230.817 24.4629 229.028 22.6148 228.897 19.1741C229.088 16.0656 230.644 14.0635 233.563 13.1677Z" fill="black"/>
<path opacity="0.92" fill-rule="evenodd" clip-rule="evenodd" d="M279.77 12.2437C279.77 18.096 279.77 23.9483 279.77 29.8006C278.059 29.8006 276.348 29.8006 274.636 29.8006C274.714 25.1778 274.636 20.5575 274.403 15.9399C272.82 13.1831 270.564 12.4901 267.636 13.8608C266.914 14.4217 266.369 15.1147 266.003 15.9399C265.366 20.534 265.133 25.1542 265.303 29.8006C263.436 29.8006 261.57 29.8006 259.703 29.8006C259.703 22.7163 259.703 15.6318 259.703 8.54747C261.57 8.54747 263.436 8.54747 265.303 8.54747C265.227 9.63638 265.305 10.7145 265.536 11.7817C267.119 9.41802 269.375 8.18594 272.303 8.08545C275.521 8.28962 278.01 9.67569 279.77 12.2437Z" fill="black"/>
<path opacity="0.884" fill-rule="evenodd" clip-rule="evenodd" d="M249.43 8.54747C251.452 8.54747 253.474 8.54747 255.496 8.54747C255.496 15.6318 255.496 22.7163 255.496 29.8006C253.474 29.8006 251.452 29.8006 249.43 29.8006C249.43 22.7163 249.43 15.6318 249.43 8.54747Z" fill="black"/>
<path opacity="0.889" fill-rule="evenodd" clip-rule="evenodd" d="M164.969 35.807C166.991 35.807 169.013 35.807 171.035 35.807C171.035 45.2015 171.035 54.5961 171.035 63.9905C169.013 63.9905 166.991 63.9905 164.969 63.9905C164.969 54.5961 164.969 45.2015 164.969 35.807Z" fill="black"/>
<path opacity="0.881" fill-rule="evenodd" clip-rule="evenodd" d="M73.5 37.193C75.5221 37.193 77.5446 37.193 79.5667 37.193C79.5667 44.5854 79.5667 51.9778 79.5667 59.3703C82.5221 59.3703 85.4779 59.3703 88.4333 59.3703C88.4333 60.9102 88.4333 62.4506 88.4333 63.9905C83.4554 63.9905 78.4779 63.9905 73.5 63.9905C73.5 55.0582 73.5 46.1255 73.5 37.193Z" fill="black"/>
<path opacity="0.909" fill-rule="evenodd" clip-rule="evenodd" d="M97.3037 42.7373C105.293 41.4451 109.96 44.6793 111.304 52.4399C110.926 53.1657 110.77 53.9359 110.837 54.75C105.859 54.75 100.882 54.75 95.9037 54.75C96.3727 58.6065 98.5506 60.0698 102.437 59.1392C104.516 56.4655 107.316 55.4643 110.837 56.1361C110.117 59.8554 107.94 62.3965 104.304 63.7595C94.5872 65.2236 89.8426 61.1426 90.0703 51.5158C90.7167 47.1081 93.1275 44.1818 97.3037 42.7373ZM98.7037 47.3576C102.59 46.6548 104.767 48.1948 105.237 51.9778C102.126 51.9778 99.0149 51.9778 95.9037 51.9778C95.8892 49.8465 96.8225 48.3061 98.7037 47.3576Z" fill="black"/>
<path opacity="0.915" fill-rule="evenodd" clip-rule="evenodd" d="M131.37 72.769C127.014 72.769 122.659 72.769 118.303 72.769C116.205 71.0821 114.805 68.9259 114.103 66.3006C117.301 65.2578 119.945 65.9509 122.037 68.3797C128.115 69.7543 130.526 67.367 129.27 61.2183C126.624 63.8574 123.435 64.7043 119.703 63.7595C115.737 62.3097 113.637 59.4603 113.403 55.212C112.599 46.1521 116.721 42.0709 125.77 42.9683C127.199 43.4585 128.365 44.3055 129.27 45.5095C129.501 44.598 129.579 43.674 129.503 42.7373C131.525 42.7373 133.548 42.7373 135.57 42.7373C135.648 50.4393 135.57 58.1399 135.337 65.8386C135.056 67.288 134.589 68.674 133.937 69.9968C132.985 70.8608 132.129 71.7849 131.37 72.769ZM122.503 47.8196C128.013 47.6265 130.269 50.2443 129.27 55.674C127.869 58.4841 125.614 59.4853 122.503 58.6772C119.267 56.5939 118.411 53.7446 119.937 50.1297C120.744 49.251 121.599 48.4808 122.503 47.8196Z" fill="black"/>
<path opacity="0.928" fill-rule="evenodd" clip-rule="evenodd" d="M145.37 42.7373C147.75 42.587 150.083 42.818 152.37 43.4304C153.537 43.9694 154.392 44.8165 154.937 45.9715C155.169 44.9043 155.246 43.8262 155.17 42.7373C157.037 42.7373 158.904 42.7373 160.77 42.7373C160.77 49.8216 160.77 56.9063 160.77 63.9905C158.904 63.9905 157.037 63.9905 155.17 63.9905C155.246 62.9015 155.169 61.8236 154.937 60.7563C154.208 62.2477 153.041 63.249 151.437 63.7595C143.326 65.0633 139.126 61.6748 138.837 53.5949C138.467 48.3874 140.645 44.7681 145.37 42.7373ZM147.704 47.8196C152.956 47.2449 155.367 49.555 154.937 54.75C153.868 58.3991 151.457 59.708 147.704 58.6772C144.8 56.6554 143.944 53.9604 145.137 50.5918C145.772 49.4261 146.627 48.502 147.704 47.8196Z" fill="black"/>
</g>
<defs>
<clipPath id="clip0_795_92">
<rect width="280" height="73" fill="white"/>
</clipPath>
</defs>
</svg>
