<svg width="218" height="54" viewBox="0 0 218 54" fill="none" xmlns="http://www.w3.org/2000/svg">
<path opacity="0.987" fill-rule="evenodd" clip-rule="evenodd" d="M30.3863 16.8326C30.9972 16.1318 31.4889 15.4539 31.8618 14.7991C31.9558 14.9025 32.0693 14.9778 32.2023 15.0251C33.8674 13.4054 35.8348 12.3133 38.1043 11.7489C38.4732 11.5563 38.5488 11.3304 38.3313 11.0711C41.2823 10.9205 44.2333 10.9205 47.1843 11.0711C46.6189 11.2125 46.6189 11.4008 47.1843 11.636C48.4932 12.0412 49.7794 12.6437 51.0433 13.4435C51.1189 13.6694 51.2703 13.8201 51.4973 13.8954C51.6583 14.0996 51.8853 14.1749 52.1783 14.1213C52.798 14.8472 53.479 15.525 54.2213 16.1548C54.4011 16.5518 54.7037 16.8531 55.1293 17.0586C55.0819 17.191 55.0061 17.3039 54.9023 17.3975C55.6773 18.132 56.2448 18.9981 56.6048 19.9958C56.7533 20.2659 56.8668 20.2659 56.9453 19.9958C56.7467 17.0345 56.6711 14.022 56.7183 10.9581C62.3938 10.9205 68.0688 10.9581 73.7433 11.0711C73.4407 11.1464 73.1379 11.2218 72.8353 11.2971C76.6178 12.1743 79.6067 13.9441 81.8018 16.6067C82.18 16.4168 82.2179 16.5298 81.9153 16.9456C82.5321 17.7814 83.1375 18.4216 83.7313 18.8661C83.7313 16.2301 83.7313 13.5941 83.7313 10.9581C92.0547 10.9581 100.378 10.9581 108.701 10.9581C108.686 13.0323 108.686 15.0658 108.701 17.0586C110.576 14.486 113.073 12.7162 116.192 11.7489C116.495 11.523 116.495 11.2971 116.192 11.0711C119.37 10.9205 122.548 10.9205 125.726 11.0711C125.348 11.1464 124.97 11.2218 124.591 11.2971C126.149 11.6723 127.587 12.1242 128.904 12.6527C128.829 12.728 128.753 12.8033 128.677 12.8786C129.665 13.2217 130.497 13.7866 131.174 14.5732C131.456 14.9686 131.797 15.3452 132.196 15.7029C132.271 15.6276 132.347 15.5523 132.423 15.477C132.475 15.7566 132.589 15.9825 132.763 16.1548C133.044 16.7064 133.385 17.2336 133.785 17.7364C133.86 17.6611 133.936 17.5858 134.012 17.5104C134.124 17.7475 134.086 17.9734 133.898 18.1883C134.177 18.4346 134.366 18.7359 134.466 19.092C134.84 18.7778 134.954 18.4389 134.806 18.0753C135.061 18.019 135.288 17.906 135.487 17.7364C135.702 17.0761 136.08 16.5489 136.622 16.1548C137.001 15.7782 137.379 15.4017 137.757 15.0251C137.984 14.9498 138.136 14.7991 138.211 14.5732C139.172 14.073 140.08 13.4705 140.935 12.7657C142.093 12.3281 143.228 11.8385 144.34 11.2971C144.113 11.2218 143.886 11.1464 143.659 11.0711C146.689 10.883 149.715 10.9206 152.739 11.1841C152.815 11.3347 152.891 11.4853 152.966 11.636C154.44 12.1615 155.839 12.8393 157.166 13.6694C157.71 14.1763 158.278 14.6281 158.868 15.0251C159.64 15.6266 160.169 16.3044 160.457 17.0586C160.713 17.2308 160.978 17.3814 161.252 17.5104C161.33 17.8987 161.444 18.2752 161.592 18.6402C161.768 18.9138 161.957 18.9138 162.16 18.6402C162.271 18.8772 162.234 19.1031 162.046 19.318C162.222 19.5916 162.411 19.5916 162.614 19.318C162.694 19.5827 162.656 19.8463 162.5 20.1088C162.746 20.4185 162.935 20.7574 163.068 21.1255C163.143 21.0502 163.219 20.9749 163.295 20.8996C163.45 21.1897 163.412 21.4532 163.181 21.6904C163.305 21.8524 163.456 21.9654 163.635 22.0293C163.855 23.1782 164.157 24.3079 164.543 25.4184C164.54 27.5621 164.54 29.7086 164.543 31.8577C164.443 32.2558 164.329 32.2181 164.203 31.7448C164.09 32.1905 164.053 32.6424 164.089 33.1004C163.685 33.4371 163.534 33.8889 163.635 34.4561C163.456 34.52 163.305 34.633 163.181 34.795C163.412 35.032 163.45 35.2957 163.295 35.5858C163.219 35.5105 163.143 35.4351 163.068 35.3598C162.791 35.9958 162.451 36.5982 162.046 37.1674C162.234 37.3822 162.271 37.6082 162.16 37.8452C161.606 37.5365 161.493 37.6495 161.819 38.1841C161.336 38.5515 160.882 38.9658 160.457 39.4268C160.505 39.5592 160.581 39.6721 160.684 39.7657C158.052 42.4232 155.025 44.2307 151.604 45.1883C151.907 45.2635 152.21 45.339 152.512 45.4142C149.634 45.6024 146.759 45.5647 143.886 45.3012C143.811 45.1505 143.735 45.0001 143.659 44.8494C143.111 44.7201 142.619 44.4942 142.184 44.1715C142.09 44.2748 141.976 44.3503 141.843 44.3975C140.46 43.3518 139.022 42.4103 137.53 41.5732C137.606 41.498 137.682 41.4225 137.757 41.3473C137.335 41.0386 136.956 40.6997 136.622 40.3305C136.449 40.157 136.222 40.044 135.941 39.9916C136.017 39.9164 136.093 39.8409 136.168 39.7657C135.88 39.5623 135.653 39.2989 135.487 38.9749C135.395 39.2137 135.395 39.5151 135.487 39.8786C135.232 40.0702 135.232 40.2962 135.487 40.5565C135.487 40.6317 135.487 40.7072 135.487 40.7824C135.185 41.7614 135.185 42.7406 135.487 43.7197C135.44 44.2664 135.516 44.7936 135.714 45.3012C132.843 45.527 129.968 45.6022 127.088 45.5272C127.04 45.1557 127.116 44.8168 127.315 44.5104C127.202 44.3975 127.088 44.2845 126.975 44.1715C126.216 44.5658 125.422 44.9047 124.591 45.1883C124.97 45.2635 125.348 45.339 125.726 45.4142C122.775 45.5649 119.824 45.5649 116.873 45.4142C117.025 45.339 117.176 45.2635 117.327 45.1883C116.637 44.9074 115.994 44.5685 115.398 44.1715C115.322 44.2468 115.246 44.3222 115.171 44.3975C114.756 44.0418 114.264 43.8536 113.695 43.8326C113.771 43.7574 113.847 43.6819 113.922 43.6067C112.889 43.2074 111.981 42.6426 111.198 41.9121C111.123 41.6862 110.971 41.5355 110.744 41.4602C110.493 41.2817 110.19 41.1688 109.836 41.1213C109.912 41.0461 109.988 40.9706 110.063 40.8954C109.7 40.5321 109.398 40.1179 109.155 39.6527C108.971 41.4794 108.896 43.287 108.928 45.0753C108.777 45.226 108.626 45.3765 108.474 45.5272C100.378 45.5272 92.2817 45.5272 84.1853 45.5272C84.0339 45.3012 83.8827 45.0753 83.7313 44.8494C83.7395 42.1507 83.7395 39.5147 83.7313 36.9414C83.3511 37.9606 82.7457 38.8267 81.9153 39.5397C82.2179 39.9555 82.18 40.0684 81.8018 39.8786C80.4128 41.7982 78.4833 43.1916 76.0133 44.0586C76.0889 44.1338 76.1647 44.2093 76.2403 44.2845C75.0456 44.4185 73.9106 44.7199 72.8353 45.1883C73.1379 45.2635 73.4407 45.339 73.7433 45.4142C68.0688 45.5272 62.3938 45.5649 56.7183 45.5272C56.7562 42.7395 56.7183 39.953 56.6048 37.1674C56.3567 37.7259 55.9783 38.1778 55.4698 38.523C55.4698 38.8242 55.4698 39.1256 55.4698 39.4268C55.3942 39.3515 55.3184 39.2761 55.2428 39.2008C54.8719 39.5537 54.5314 39.9304 54.2213 40.3305C53.6917 40.8577 53.1619 41.385 52.6323 41.9121C51.3573 42.7237 50.0711 43.5522 48.7733 44.3975C48.6403 44.3503 48.5268 44.2748 48.4328 44.1715C47.8369 44.5685 47.1939 44.9074 46.5033 45.1883C46.7303 45.2635 46.9573 45.339 47.1843 45.4142C44.1577 45.5649 41.1309 45.5649 38.1043 45.4142C38.4827 45.339 38.8609 45.2635 39.2393 45.1883C36.3807 44.4813 33.9593 43.2009 31.9753 41.3473C31.7599 41.2079 31.5708 41.2454 31.4078 41.4602C31.2678 41.2458 31.3054 41.0576 31.5213 40.8954C31.0103 40.5764 30.6319 40.162 30.3863 39.6527C30.3863 39.3515 30.2349 39.2008 29.9323 39.2008C29.8306 38.7568 29.6036 38.6816 29.2513 38.9749C29.143 39.1959 28.9919 39.3841 28.7973 39.5397C29.0999 39.9555 29.062 40.0684 28.6838 39.8786C28.2223 40.4503 27.7304 40.9774 27.2083 41.4602C24.9694 43.2339 22.548 44.4766 19.9443 45.1883C20.1713 45.2635 20.3983 45.339 20.6253 45.4142C17.6743 45.5649 14.7233 45.5649 11.7723 45.4142C12.075 45.339 12.3777 45.2635 12.6803 45.1883C12.1335 44.8026 11.5282 44.6144 10.8643 44.6234C10.8894 44.1381 10.7381 44.0629 10.4103 44.3975C9.48128 43.841 8.53544 43.3139 7.57282 42.8159C7.00412 42.4004 6.51227 41.911 6.09732 41.3473C5.87032 41.272 5.64332 41.1966 5.41632 41.1213C5.49198 41.0461 5.56766 40.9706 5.64332 40.8954C5.42812 40.7863 5.20112 40.7487 4.96232 40.7824C4.99625 40.5447 4.95841 40.3188 4.84882 40.1046C4.31916 39.7279 3.86516 39.2761 3.48682 38.7489C3.41116 38.8242 3.33548 38.8996 3.25982 38.9749C3.14809 38.7379 3.18591 38.5119 3.37332 38.2971C3.14139 38.1041 2.95221 37.8782 2.80582 37.6192C2.73016 37.6945 2.65448 37.7699 2.57882 37.8452C2.5099 37.4066 2.32074 37.0302 2.01132 36.7155C2.05883 36.5831 2.13449 36.4701 2.23832 36.3766C2.01799 36.1045 1.79099 35.9916 1.55732 36.0376C1.63298 35.8869 1.70866 35.7365 1.78432 35.5858C1.25668 34.7597 0.916179 33.856 0.762818 32.8745C0.690791 33.2814 0.53945 33.3566 0.308818 33.1004C0.157477 29.7865 0.157477 26.4729 0.308818 23.159C0.384477 23.3097 0.460159 23.4602 0.535818 23.6109C0.757597 23.1048 0.871097 22.5776 0.876318 22.0293C1.13716 21.9635 1.2885 21.7752 1.33032 21.4644C1.22805 21.1143 1.19024 20.7754 1.21682 20.4477C1.37969 20.6625 1.56887 20.7001 1.78432 20.5607C1.55344 20.3235 1.5156 20.0599 1.67082 19.7699C1.74648 19.8452 1.82216 19.9205 1.89782 19.9958C1.97348 19.6946 2.04916 19.3933 2.12482 19.092C2.20048 19.1673 2.27616 19.2427 2.35182 19.318C2.49821 19.059 2.68739 18.8331 2.91932 18.6402C2.84366 18.4895 2.76798 18.3389 2.69232 18.1883C3.48362 17.978 3.82412 17.5261 3.71382 16.8326C3.78948 16.9079 3.86516 16.9833 3.94082 17.0586C4.18707 16.7794 4.37623 16.4781 4.50832 16.1548C5.46285 15.4619 6.33301 14.6334 7.11882 13.6694C7.19448 13.7447 7.27016 13.8201 7.34582 13.8954C8.0539 13.2609 8.8484 12.7713 9.72932 12.4268C9.65366 12.3515 9.57798 12.2761 9.50232 12.2008C9.74044 12.0896 9.96744 12.1273 10.1833 12.3138C10.9386 11.975 11.6953 11.6361 12.4533 11.2971C12.2263 11.2218 11.9993 11.1464 11.7723 11.0711C14.9503 10.9205 18.1283 10.9205 21.3063 11.0711C20.7409 11.2125 20.7409 11.4008 21.3063 11.636C23.2488 12.2767 24.9133 13.1428 26.3003 14.2343C26.2247 14.3096 26.1489 14.3849 26.0733 14.4602C27.4859 15.556 28.5833 16.7987 29.3648 18.1883C29.4783 17.9247 29.6674 17.7364 29.9323 17.6234C29.6229 17.1423 29.6987 17.0293 30.1593 17.2845C30.3405 17.1813 30.4161 17.0306 30.3863 16.8326ZM83.7313 18.8661C84.021 19.0664 84.021 19.2923 83.7313 19.5439C83.4902 19.335 83.4902 19.1091 83.7313 18.8661ZM22.2143 34.682C22.1676 35.1449 21.9785 35.2204 21.6468 34.9079C21.5068 35.1224 21.5444 35.3106 21.7603 35.4728C20.7207 35.907 19.7371 36.4342 18.8093 37.0544C17.4226 37.4848 16.0606 37.4471 14.7233 36.9414C14.5719 37.0166 14.4207 37.0921 14.2693 37.1674C13.604 36.8562 12.9987 36.4796 12.4533 36.0376C12.2263 35.9624 12.075 35.8117 11.9993 35.5858C11.1852 35.0318 10.4663 34.3539 9.84282 33.5523C9.84282 33.2511 9.84282 32.9497 9.84282 32.6485C9.30009 32.8975 9.18658 32.747 9.50232 32.1966C9.26865 32.2427 9.04165 32.1298 8.82132 31.8577C8.92515 31.7642 9.00081 31.6512 9.04832 31.5188C8.73204 30.7827 8.46722 30.0294 8.25382 29.2594C8.21598 28.9205 8.17816 28.5816 8.14032 28.2427C8.16965 27.7951 8.32097 27.4187 8.59432 27.113C8.51866 27.0377 8.44298 26.9623 8.36732 26.887C8.46527 26.0097 8.69227 25.3319 9.04832 24.8535C9.02898 24.6034 8.9533 24.3775 8.82132 24.1757C9.36285 24.1116 9.51419 23.8856 9.27532 23.4979C9.81633 23.4832 9.96767 23.295 9.72932 22.933C10.0003 22.6395 10.2273 22.3383 10.4103 22.0293C12.4989 19.357 15.185 18.5286 18.4688 19.5439C18.5444 19.4686 18.6202 19.3933 18.6958 19.318C19.7536 19.9822 20.7751 20.6977 21.7603 21.4644C21.6847 21.5397 21.6089 21.6151 21.5333 21.6904C21.865 21.9956 22.1676 22.3345 22.4413 22.7071C22.1337 22.9726 22.1716 23.1985 22.5548 23.3849C22.6304 23.3097 22.7062 23.2342 22.7818 23.159C22.8935 23.396 22.8558 23.6219 22.6683 23.8368C22.8672 24.0065 23.0942 24.1195 23.3493 24.1757C23.0842 24.4934 23.1598 24.7568 23.5763 24.9665C24.2882 24.8608 24.9313 24.8608 25.5058 24.9665C25.8447 24.5011 26.2608 24.4258 26.7543 24.7406C26.6408 24.9665 26.5273 25.1925 26.4138 25.4184C26.3759 26.3974 26.3382 27.3766 26.3003 28.3556C26.308 29.4298 26.4594 30.4465 26.7543 31.4058C26.0036 31.4894 25.3226 31.3012 24.7113 30.841C24.4893 30.9488 24.3002 31.0992 24.1438 31.2929C23.7656 31.1031 23.7277 31.2161 24.0303 31.6318C23.6973 31.8799 23.508 32.2188 23.4628 32.6485C23.3872 32.5733 23.3114 32.4978 23.2358 32.4226C23.1602 32.7238 23.0844 33.0252 23.0088 33.3263C22.9332 33.2511 22.8574 33.1756 22.7818 33.1004C22.6701 33.3374 22.7078 33.5634 22.8953 33.7782C22.6243 34.0717 22.3973 34.3729 22.2143 34.682ZM48.7733 22.7071C48.9563 23.0162 49.1833 23.3174 49.4543 23.6109C49.2668 23.8257 49.2291 24.0517 49.3408 24.2887C49.8241 23.9807 49.9376 24.0562 49.6813 24.5146C50.8867 26.9555 50.8867 29.4033 49.6813 31.8577C50.0077 32.3923 49.8942 32.5053 49.3408 32.1966C49.2291 32.4337 49.2668 32.6596 49.4543 32.8745C49.3737 33.1054 49.2223 33.2561 49.0003 33.3263C48.6153 33.5579 48.3883 33.9346 48.3193 34.4561C46.2189 36.8725 43.6084 37.7763 40.4878 37.1674C39.3363 36.5905 38.3527 35.9879 37.5368 35.3598C37.0776 34.5986 36.5101 33.9208 35.8343 33.3263C35.9099 33.1756 35.9857 33.0252 36.0613 32.8745C35.9828 32.6042 35.8693 32.6042 35.7208 32.8745C35.6759 32.4492 35.5624 32.0728 35.3803 31.7448C34.2131 29.3929 34.1752 26.9828 35.2668 24.5146C35.4743 24.7754 35.6634 24.7376 35.8343 24.4017C35.7789 23.922 35.7789 23.5078 35.8343 23.159C36.3853 22.6881 36.8392 22.161 37.1963 21.5774C37.5139 20.9244 38.0435 20.5854 38.7853 20.5607C38.7097 20.4853 38.6339 20.41 38.5583 20.3347C40.4899 19.1463 42.6085 18.8827 44.9143 19.5439C45.5822 19.7862 46.1497 20.1628 46.6168 20.6736C46.6924 20.5983 46.7682 20.523 46.8438 20.4477C47.5466 21.1821 48.1897 21.9352 48.7733 22.7071ZM128.45 25.1925C125.869 25.253 123.296 25.1775 120.732 24.9665C120.891 27.6464 120.967 30.3577 120.959 33.1004C120.836 33.114 120.76 33.1892 120.732 33.3263C120.904 33.614 121.055 33.614 121.186 33.3263C123.231 33.2888 125.274 33.3263 127.315 33.4393C127.013 33.816 127.013 34.1924 127.315 34.569C122.34 38.6452 118.027 38.1933 114.376 33.2134C114.132 32.4459 113.791 31.7303 113.355 31.0669C113.183 30.5543 113.221 30.0647 113.468 29.5983C113.009 28.8791 112.896 28.0883 113.128 27.2259C113.276 27.4962 113.39 27.4962 113.468 27.2259C113.349 27.0696 113.198 26.9566 113.014 26.887C113.303 26.3915 113.379 25.9019 113.241 25.4184C113.322 25.1875 113.473 25.0368 113.695 24.9665C114.005 24.4005 114.27 23.6472 114.49 22.7071C114.565 22.7823 114.641 22.8578 114.717 22.933C115.784 20.6107 117.827 19.3304 120.846 19.092C122.455 19.176 123.931 19.5902 125.272 20.3347C125.197 20.41 125.121 20.4853 125.045 20.5607C125.705 20.912 126.31 21.3639 126.861 21.9163C126.71 22.1422 126.559 22.3682 126.407 22.5941C126.623 22.7335 126.812 22.696 126.975 22.4812C127.05 22.7823 127.126 23.0837 127.202 23.3849C127.404 23.0713 127.517 23.1088 127.542 23.4979C127.386 23.7604 127.349 24.0239 127.429 24.2887C127.523 24.1854 127.636 24.11 127.769 24.0627C127.955 24.4737 128.182 24.8504 128.45 25.1925ZM143.659 20.8996C145.661 19.2199 148.006 18.768 150.696 19.5439C151.547 20.0411 152.38 20.5307 153.193 21.0125C153.303 21.2404 153.34 21.504 153.307 21.8033C153.725 21.5021 153.838 21.5398 153.647 21.9163C154.101 22.2929 154.555 22.6694 155.009 23.046C154.906 23.1396 154.83 23.2525 154.782 23.3849C155.236 24.138 155.69 24.8913 156.144 25.6443C156.441 27.3457 156.441 29.0402 156.144 30.728C155.917 30.8033 155.69 30.8787 155.463 30.954C155.778 31.538 155.626 31.9899 155.009 32.3096C155.009 32.6863 155.009 33.0627 155.009 33.4393C154.171 33.973 153.565 34.6508 153.193 35.4728C149.156 38.3479 145.448 37.896 142.07 34.1171C142.146 34.0419 142.222 33.9664 142.297 33.8912C141.995 33.4294 141.692 33.1282 141.389 32.9874C141.545 32.7249 141.583 32.4614 141.503 32.1966C141.198 32.5134 141.009 32.4382 140.935 31.9707C140.086 29.7341 140.048 27.4747 140.822 25.1925C141.024 25.5061 141.137 25.4686 141.162 25.0795C140.925 24.7229 140.925 24.384 141.162 24.0627C141.656 24.2896 141.732 24.1391 141.389 23.6109C141.619 23.0767 141.922 22.7753 142.297 22.7071C142.25 22.5747 142.174 22.4617 142.07 22.3682C142.645 21.9089 143.174 21.4193 143.659 20.8996ZM65.3443 19.318C66.9333 19.318 68.5223 19.318 70.1113 19.318C70.5068 19.3523 70.9231 19.3523 71.3598 19.318C72.6013 19.8815 73.6984 20.4086 74.6513 20.8996C74.8325 21.0028 74.9081 21.1534 74.8783 21.3515C75.4533 21.9099 75.9829 22.4747 76.4673 23.046C76.3488 23.1728 76.2732 23.3235 76.2403 23.4979C76.5899 23.7055 76.8548 24.1199 77.0348 24.7406C77.2382 26.1875 77.4275 27.5807 77.6023 28.9205C77.3413 29.8523 77.0387 30.756 76.6943 31.6318C76.7699 31.707 76.8457 31.7825 76.9213 31.8577C76.8271 32.3155 76.6001 32.6544 76.2403 32.8745C76.2208 33.0995 76.2966 33.2877 76.4673 33.4393C76.2403 33.5146 76.0133 33.59 75.7863 33.6653C75.8619 33.7405 75.9377 33.816 76.0133 33.8912C75.6926 34.3804 75.3144 34.7947 74.8783 35.1339C74.8783 35.4351 74.7269 35.5858 74.4243 35.5858C74.2931 36.0248 74.0661 36.1002 73.7433 35.8117C73.4718 35.8899 73.4718 36.0028 73.7433 36.1506C72.9109 36.4895 72.0787 36.8284 71.2463 37.1674C70.7862 37.1612 70.3322 37.1612 69.8843 37.1674C68.3301 37.1359 66.8166 37.1359 65.3443 37.1674C65.1541 37.0901 65.0783 36.9396 65.1173 36.7155C65.4199 36.3388 65.4199 35.9624 65.1173 35.5858C65.1173 30.6903 65.1173 25.795 65.1173 20.8996C65.4199 20.523 65.4199 20.1464 65.1173 19.7699C65.0783 19.5458 65.1541 19.3952 65.3443 19.318ZM92.3573 19.318C97.1597 19.3351 101.927 19.3351 106.658 19.318C107.145 19.3624 107.183 19.5883 106.772 19.9958C106.564 19.7351 106.375 19.7728 106.204 20.1088C106.323 20.2356 106.398 20.3862 106.431 20.5607C106.152 21.3016 105.849 21.8665 105.523 22.2552C105.564 22.4933 105.64 22.7193 105.75 22.933C105.5 23.0456 105.273 23.1208 105.069 23.159C105.145 23.3097 105.221 23.4602 105.296 23.6109C100.931 23.7629 96.58 23.9134 92.2438 24.0627C92.1533 24.0112 92.1156 23.9358 92.1303 23.8368C92.2223 22.3847 92.2223 20.9537 92.1303 19.5439C92.1303 19.3933 92.2059 19.318 92.3573 19.318ZM107.112 37.1674C102.595 37.1337 98.0548 37.1337 93.4923 37.1674C92.985 37.234 92.531 37.1585 92.1303 36.9414C92.2345 35.4147 92.2345 33.9086 92.1303 32.4226C96.4821 32.1225 100.871 32.1225 105.296 32.4226C105.249 32.555 105.173 32.668 105.069 32.7615C105.572 34.0121 106.178 35.2172 106.885 36.3766C106.81 36.4518 106.734 36.5273 106.658 36.6025C106.913 36.6588 107.14 36.7717 107.339 36.9414C107.311 37.0786 107.236 37.1538 107.112 37.1674ZM56.4913 36.4895C56.9083 36.5209 56.9839 36.6716 56.7183 36.9414C56.5372 36.8382 56.4616 36.6875 56.4913 36.4895Z" fill="black"/>
<path opacity="0.983" fill-rule="evenodd" clip-rule="evenodd" d="M203.816 19.5439C205.817 20.9763 207.898 22.3319 210.058 23.6109C210.476 23.3097 210.589 23.3474 210.399 23.7239C210.984 23.9742 211.514 24.3131 211.988 24.7406C212.121 24.6934 212.234 24.6179 212.328 24.5146C212.566 24.8777 212.907 25.0282 213.35 24.9665C213.35 26.8493 213.35 28.7323 213.35 30.6151C212.395 30.7933 211.6 31.2452 210.966 31.9707C210.204 32.0419 209.523 32.4183 208.923 33.1004C208.848 33.0252 208.772 32.9497 208.696 32.8745C206.021 34.6807 203.335 36.4127 200.638 38.0711C199.448 38.5797 198.313 39.1823 197.233 39.8787C196.202 40.533 195.256 41.0601 194.395 41.4603C193.388 42.207 192.366 42.8848 191.331 43.4937C190.926 43.7694 190.472 43.9199 189.969 43.9456C189.969 40.7824 189.969 37.6192 189.969 34.4561C192.3 33.2861 194.57 32.006 196.779 30.6151C197.946 29.9137 199.006 29.2359 199.957 28.5816C200.374 28.3371 200.828 28.1489 201.319 28.0167C198.975 26.4006 196.554 24.932 194.055 23.6109C192.714 22.6567 191.39 21.8282 190.082 21.1255C189.931 17.9623 189.931 14.7992 190.082 11.636C192.873 13.2144 195.597 14.8713 198.254 16.6067C198.33 16.5314 198.406 16.4561 198.481 16.3808C199.852 17.3631 201.252 18.3045 202.681 19.205C203.027 19.4329 203.405 19.5459 203.816 19.5439Z" fill="black"/>
<path fill-rule="evenodd" clip-rule="evenodd" d="M51.0391 13.2176C51.3417 13.3682 51.3417 13.3682 51.0391 13.2176V13.2176Z" fill="black"/>
<path opacity="0.01" fill-rule="evenodd" clip-rule="evenodd" d="M51.4922 13.6694C51.7948 13.8201 51.7948 13.8201 51.4922 13.6694V13.6694Z" fill="black"/>
<path opacity="0.01" fill-rule="evenodd" clip-rule="evenodd" d="M52.1797 13.8954C52.4823 14.046 52.4823 14.046 52.1797 13.8954V13.8954Z" fill="black"/>
<path fill-rule="evenodd" clip-rule="evenodd" d="M131.172 14.3473C131.474 14.4979 131.474 14.4979 131.172 14.3473V14.3473Z" fill="black"/>
<path opacity="0.01" fill-rule="evenodd" clip-rule="evenodd" d="M138.207 14.5732C138.056 14.272 138.056 14.272 138.207 14.5732V14.5732Z" fill="black"/>
<path opacity="0.97" fill-rule="evenodd" clip-rule="evenodd" d="M174.53 14.3473C177.311 14.5685 180.111 14.6439 182.929 14.5732C182.967 17.9632 182.929 21.3523 182.815 24.7406C182.645 24.5992 182.456 24.4862 182.248 24.4017C179.891 24.2189 177.546 24.2566 175.211 24.5147C174.266 24.3807 174.115 24.004 174.757 23.3849C174.824 20.4061 174.749 17.3936 174.53 14.3473Z" fill="black"/>
<path opacity="0.01" fill-rule="evenodd" clip-rule="evenodd" d="M137.754 15.0251C137.603 14.7239 137.603 14.7239 137.754 15.0251V15.0251Z" fill="black"/>
<path opacity="0.01" fill-rule="evenodd" clip-rule="evenodd" d="M158.867 14.7992C159.17 14.9498 159.17 14.9498 158.867 14.7992V14.7992Z" fill="black"/>
<path opacity="0.012" fill-rule="evenodd" clip-rule="evenodd" d="M4.50413 16.1548C4.35279 15.8536 4.35279 15.8536 4.50413 16.1548V16.1548Z" fill="black"/>
<path opacity="0.01" fill-rule="evenodd" clip-rule="evenodd" d="M54.2188 15.9289C54.5213 16.0795 54.5213 16.0795 54.2188 15.9289V15.9289Z" fill="black"/>
<path opacity="0.01" fill-rule="evenodd" clip-rule="evenodd" d="M132.758 15.9289C133.06 16.0795 133.06 16.0795 132.758 15.9289V15.9289Z" fill="black"/>
<path opacity="0.01" fill-rule="evenodd" clip-rule="evenodd" d="M136.621 16.1548C136.47 15.8536 136.47 15.8536 136.621 16.1548V16.1548Z" fill="black"/>
<path opacity="0.161" fill-rule="evenodd" clip-rule="evenodd" d="M30.387 16.8326C30.2356 16.5314 30.2356 16.5314 30.387 16.8326V16.8326Z" fill="black"/>
<path opacity="0.283" fill-rule="evenodd" clip-rule="evenodd" d="M65.3438 19.318C66.9328 19.0167 68.5218 19.0167 70.1108 19.318C68.5218 19.318 66.9328 19.318 65.3438 19.318Z" fill="black"/>
<path opacity="0.264" fill-rule="evenodd" clip-rule="evenodd" d="M92.3594 19.318C97.1264 19.0167 101.893 19.0167 106.66 19.318C101.929 19.3351 97.1618 19.3351 92.3594 19.318Z" fill="black"/>
<path opacity="0.01" fill-rule="evenodd" clip-rule="evenodd" d="M203.812 19.318C204.115 19.4686 204.115 19.4686 203.812 19.318V19.318Z" fill="black"/>
<path opacity="0.133" fill-rule="evenodd" clip-rule="evenodd" d="M65.1145 19.7699C65.4171 20.1465 65.4171 20.523 65.1145 20.8996C64.8889 20.4851 64.8889 20.1086 65.1145 19.7699Z" fill="black"/>
<path opacity="0.147" fill-rule="evenodd" clip-rule="evenodd" d="M92.1254 19.5439C92.2173 20.9537 92.2173 22.3847 92.1254 23.8368C91.8228 22.4059 91.8228 20.9749 92.1254 19.5439Z" fill="black"/>
<path opacity="0.412" fill-rule="evenodd" clip-rule="evenodd" d="M0.871318 22.0293C0.719977 21.728 0.719977 21.728 0.871318 22.0293V22.0293Z" fill="black"/>
<path opacity="0.01" fill-rule="evenodd" clip-rule="evenodd" d="M163.633 21.8033C163.935 21.954 163.935 21.954 163.633 21.8033V21.8033Z" fill="black"/>
<path opacity="0.01" fill-rule="evenodd" clip-rule="evenodd" d="M194.051 23.6109C193.9 23.7616 193.9 23.7616 194.051 23.6109V23.6109Z" fill="black"/>
<path opacity="0.298" fill-rule="evenodd" clip-rule="evenodd" d="M65.1176 20.8996C65.1176 25.7951 65.1176 30.6903 65.1176 35.5858C64.815 30.6878 64.815 25.7924 65.1176 20.8996Z" fill="black"/>
<path opacity="0.01" fill-rule="evenodd" clip-rule="evenodd" d="M199.957 28.5816C199.806 28.2804 199.806 28.2804 199.957 28.5816V28.5816Z" fill="black"/>
<path opacity="0.01" fill-rule="evenodd" clip-rule="evenodd" d="M196.778 30.615C196.626 30.3139 196.626 30.3139 196.778 30.615V30.615Z" fill="black"/>
<path opacity="0.943" fill-rule="evenodd" clip-rule="evenodd" d="M174.76 31.5189C177.484 31.5189 180.208 31.5189 182.932 31.5189C183.007 31.6696 183.083 31.82 183.159 31.9707C183.196 34.156 183.159 36.3402 183.045 38.523C182.737 38.92 182.699 39.3719 182.932 39.8787C182.618 41.5364 182.315 43.0428 182.024 44.3975C179.677 44.36 177.331 44.3975 174.987 44.5105C174.623 44.5722 174.283 44.6851 173.965 44.8494C173.981 44.2922 173.943 43.7649 173.852 43.2678C174.242 42.1749 174.469 41.0452 174.533 39.8787C174.516 37.2998 174.516 34.7392 174.533 32.1967C174.546 31.9461 174.621 31.7202 174.76 31.5189Z" fill="black"/>
<path opacity="0.014" fill-rule="evenodd" clip-rule="evenodd" d="M182.93 31.5189C183.366 31.5665 183.442 31.717 183.157 31.9707C183.081 31.82 183.005 31.6696 182.93 31.5189Z" fill="black"/>
<path opacity="0.012" fill-rule="evenodd" clip-rule="evenodd" d="M174.753 31.5189C174.615 31.7202 174.539 31.9461 174.526 32.1967C174.212 31.8697 174.287 31.6438 174.753 31.5189Z" fill="#595959"/>
<path opacity="0.171" fill-rule="evenodd" clip-rule="evenodd" d="M92.1254 32.4226C92.2296 33.9086 92.2296 35.4147 92.1254 36.9414C91.8228 35.4351 91.8228 33.929 92.1254 32.4226Z" fill="black"/>
<path opacity="0.01" fill-rule="evenodd" clip-rule="evenodd" d="M120.961 33.1004C120.961 33.2511 121.037 33.3263 121.188 33.3263C121.057 33.614 120.906 33.614 120.734 33.3263C120.763 33.1892 120.838 33.114 120.961 33.1004Z" fill="black"/>
<path opacity="0.01" fill-rule="evenodd" clip-rule="evenodd" d="M164.086 33.1004C164.389 33.2511 164.389 33.2511 164.086 33.1004V33.1004Z" fill="black"/>
<path opacity="0.01" fill-rule="evenodd" clip-rule="evenodd" d="M163.633 34.4561C163.935 34.6068 163.935 34.6068 163.633 34.4561V34.4561Z" fill="black"/>
<path opacity="0.128" fill-rule="evenodd" clip-rule="evenodd" d="M65.1145 35.5858C65.4171 35.9624 65.4171 36.3388 65.1145 36.7155C64.8889 36.3768 64.8889 36.0001 65.1145 35.5858Z" fill="black"/>
<path opacity="0.304" fill-rule="evenodd" clip-rule="evenodd" d="M69.8837 37.1674C68.3703 37.4685 66.8572 37.4685 65.3438 37.1674C66.8161 37.1359 68.3295 37.1359 69.8837 37.1674Z" fill="black"/>
<path opacity="0.31" fill-rule="evenodd" clip-rule="evenodd" d="M107.112 37.1673C102.572 37.4685 98.0322 37.4685 93.4922 37.1673C98.0547 37.1337 102.595 37.1337 107.112 37.1673Z" fill="black"/>
<path opacity="0.01" fill-rule="evenodd" clip-rule="evenodd" d="M200.633 38.0711C200.935 38.2218 200.935 38.2218 200.633 38.0711V38.0711Z" fill="black"/>
<path opacity="0.01" fill-rule="evenodd" clip-rule="evenodd" d="M29.9339 39.2008C29.7825 39.3515 29.7825 39.3515 29.9339 39.2008V39.2008Z" fill="black"/>
<path opacity="0.361" fill-rule="evenodd" clip-rule="evenodd" d="M30.387 39.6527C30.2356 39.8034 30.2356 39.8034 30.387 39.6527V39.6527Z" fill="black"/>
<path opacity="0.012" fill-rule="evenodd" clip-rule="evenodd" d="M197.227 39.8787C197.529 40.0294 197.529 40.0294 197.227 39.8787V39.8787Z" fill="black"/>
<path opacity="0.016" fill-rule="evenodd" clip-rule="evenodd" d="M135.488 39.8787C135.744 40.1389 135.744 40.3649 135.488 40.5565C135.233 40.2962 135.233 40.0703 135.488 39.8787Z" fill="black"/>
<path opacity="0.012" fill-rule="evenodd" clip-rule="evenodd" d="M54.2188 40.3306C54.5213 40.4813 54.5213 40.4813 54.2188 40.3306V40.3306Z" fill="black"/>
<path opacity="0.02" fill-rule="evenodd" clip-rule="evenodd" d="M136.621 40.3306C136.47 40.4813 136.47 40.4813 136.621 40.3306V40.3306Z" fill="black"/>
<path opacity="0.01" fill-rule="evenodd" clip-rule="evenodd" d="M27.2031 41.4603C27.5057 41.611 27.5057 41.611 27.2031 41.4603V41.4603Z" fill="black"/>
<path opacity="0.01" fill-rule="evenodd" clip-rule="evenodd" d="M110.746 41.4603C110.595 41.611 110.595 41.611 110.746 41.4603V41.4603Z" fill="black"/>
<path opacity="0.01" fill-rule="evenodd" clip-rule="evenodd" d="M52.6328 41.9121C52.9354 42.0628 52.9354 42.0628 52.6328 41.9121V41.9121Z" fill="black"/>
<path opacity="0.157" fill-rule="evenodd" clip-rule="evenodd" d="M111.199 41.9121C111.048 42.0628 111.048 42.0628 111.199 41.9121V41.9121Z" fill="black"/>
<path opacity="0.18" fill-rule="evenodd" clip-rule="evenodd" d="M135.485 40.7824C135.732 41.7817 135.732 42.7608 135.485 43.7196C135.182 42.7406 135.182 41.7614 135.485 40.7824Z" fill="black"/>
<path opacity="0.01" fill-rule="evenodd" clip-rule="evenodd" d="M191.328 43.4937C191.631 43.6444 191.631 43.6444 191.328 43.4937V43.4937Z" fill="black"/>
<path opacity="0.01" fill-rule="evenodd" clip-rule="evenodd" d="M10.8635 44.6234C10.7122 44.7741 10.7122 44.7741 10.8635 44.6234V44.6234Z" fill="black"/>
<path opacity="0.195" fill-rule="evenodd" clip-rule="evenodd" d="M108.923 45.0753C109.046 45.0889 109.122 45.1641 109.15 45.3013C108.962 45.5014 108.735 45.5767 108.469 45.5272C108.62 45.3765 108.771 45.226 108.923 45.0753Z" fill="black"/>
<path opacity="0.302" fill-rule="evenodd" clip-rule="evenodd" d="M83.7277 44.8494C83.8792 45.0753 84.0303 45.3012 84.1817 45.5272C83.6027 45.4892 83.4513 45.2633 83.7277 44.8494Z" fill="black"/>
</svg>
