<svg width="104" height="104" viewBox="0 0 104 104" fill="none" xmlns="http://www.w3.org/2000/svg">
<path fill-rule="evenodd" clip-rule="evenodd" d="M49.224 0.003418C52.2159 -0.0242262 55.2 0.115815 58.1767 0.423542C61.2593 1.41487 62.6114 3.51549 62.2334 6.7254C61.6073 8.56555 60.3483 9.73265 58.4565 10.2264C55.1012 10.1587 51.7439 10.1587 48.3847 10.2264C44.5001 11.2336 43.0078 13.7079 43.9084 17.6486C43.7917 19.4227 43.0456 20.8699 41.6702 21.9899C28.0931 27.2742 20.9122 37.2172 20.1278 51.8187C20.6112 66.0018 27.3257 75.9448 40.2713 81.6475C54.2658 86.188 66.3427 83.1535 76.5018 72.5448C81.2615 66.7942 83.733 60.1655 83.9157 52.659C76.1745 50.7866 72.071 45.8384 71.6058 37.8146C72.8594 28.296 78.2685 23.4878 87.8325 23.3903C93.2526 24.151 97.3093 26.9051 100.003 31.6528C105.92 46.8607 105.268 61.7984 98.0442 76.466C85.6366 97.3103 67.3116 106.32 43.069 103.494C24.746 99.7126 11.7366 89.3028 4.04087 72.2648C-3.37859 52.5976 -0.580873 34.5791 12.434 18.2088C22.2462 7.15869 34.5097 1.09022 49.224 0.003418Z" fill="#222222"/>
<path fill-rule="evenodd" clip-rule="evenodd" d="M69.9298 4.76484C74.5541 4.67905 76.7456 6.91971 76.5044 11.4868C75.0471 14.8069 72.5758 15.974 69.0904 14.9879C66.3797 13.2886 65.4937 10.9079 66.4326 7.84575C67.3133 6.44797 68.4789 5.42099 69.9298 4.76484Z" fill="#242424"/>
</svg>
