<svg xmlns="http://www.w3.org/2000/svg" version="1.1" viewBox="0.00 0.00 512.00 512.00">
<path fill="#FFFFFF" d="
  M 350.95 131.06
  Q 353.40 131.25 355.32 130.36
  Q 359.24 130.71 360.93 133.58
  Q 369.96 148.95 373.76 169.36
  C 388.22 247.03 326.47 317.19 247.51 311.67
  C 167.10 306.05 114.98 223.50 144.08 148.60
  C 169.88 82.21 247.58 52.70 311.30 85.39
  Q 315.13 87.35 316.52 89.44
  C 319.20 93.48 317.31 98.99 312.97 100.89
  C 309.98 102.19 307.68 101.50 304.66 99.95
  Q 279.22 86.83 250.95 88.13
  C 169.63 91.90 124.11 184.10 170.80 251.34
  A 0.28 0.28 0.0 0 0 171.23 251.38
  Q 187.99 234.52 210.09 225.51
  Q 216.03 223.09 222.08 220.94
  Q 222.65 220.73 222.17 220.36
  C 178.19 186.01 204.76 116.58 259.98 120.18
  C 290.67 122.18 314.14 149.41 311.75 180.23
  Q 310.07 201.81 293.37 217.14
  Q 291.59 218.77 289.80 220.44
  Q 289.32 220.88 289.94 221.06
  Q 319.09 229.75 340.56 251.22
  Q 340.99 251.64 341.33 251.15
  C 363.50 219.68 365.78 178.94 348.74 144.71
  C 345.96 139.13 344.89 134.43 350.95 131.06
  Z
  M 295.96 175.99
  A 39.96 39.96 0.0 0 0 256.00 136.03
  A 39.96 39.96 0.0 0 0 216.04 175.99
  A 39.96 39.96 0.0 0 0 256.00 215.95
  A 39.96 39.96 0.0 0 0 295.96 175.99
  Z
  M 330.54 263.81
  C 289.61 221.89 222.43 220.97 181.49 263.84
  A 0.41 0.40 44.5 0 0 181.50 264.40
  C 222.43 306.23 289.51 306.68 330.54 264.49
  A 0.49 0.49 0.0 0 0 330.54 263.81
  Z"
/>
<path fill="#ff1f70" d="
  M 87.44 115.73
  Q 86.60 116.60 85.59 117.58
  C 81.29 121.75 74.30 120.13 72.44 114.51
  C 71.14 110.57 72.77 107.98 75.70 105.04
  Q 81.68 99.07 87.64 93.08
  C 92.06 88.63 96.71 85.37 101.91 90.59
  Q 109.65 98.35 117.24 106.26
  C 125.72 115.09 112.30 125.92 104.75 115.93
  Q 104.00 114.93 104.00 116.18
  Q 104.00 152.61 104.00 189.44
  Q 104.00 193.78 102.91 195.85
  C 99.78 201.80 91.01 201.09 88.57 194.84
  Q 88.01 193.40 88.01 190.58
  Q 87.99 153.27 88.00 115.95
  A 0.32 0.32 0.0 0 0 87.44 115.73
  Z"
/>
<path fill="#ff1f70" d="
  M 407.44 115.73
  Q 406.60 116.60 405.59 117.58
  C 401.28 121.75 394.30 120.13 392.44 114.51
  C 391.14 110.57 392.77 107.98 395.70 105.04
  Q 401.68 99.07 407.64 93.08
  C 412.06 88.63 416.71 85.37 421.91 90.59
  Q 429.65 98.35 437.24 106.26
  C 445.72 115.09 432.30 125.92 424.75 115.93
  Q 424.00 114.93 424.00 116.18
  Q 424.00 152.61 424.00 189.44
  Q 424.00 193.78 422.91 195.85
  C 419.78 201.80 411.01 201.09 408.57 194.84
  Q 408.01 193.40 408.01 190.58
  Q 407.99 153.27 408.00 115.95
  A 0.32 0.32 0.0 0 0 407.44 115.73
  Z"
/>

<path fill="#FFFFFF" d="
  M 56.69 386.25
  Q 72.04 362.80 98.25 352.85
  A 0.41 0.41 0.0 0 0 98.37 352.15
  C 75.05 332.68 76.41 296.91 100.79 279.29
  C 133.33 255.77 179.40 282.38 173.90 322.46
  Q 171.64 338.96 158.15 352.09
  Q 157.51 352.72 158.34 353.04
  Q 184.02 363.06 199.18 386.04
  Q 199.49 386.52 199.82 386.05
  Q 215.93 363.31 215.95 335.59
  Q 215.95 330.14 217.00 328.11
  C 220.15 322.00 229.57 323.63 231.66 330.48
  Q 232.28 332.53 231.81 340.51
  Q 229.16 385.90 196.34 414.35
  C 140.72 462.56 54.05 439.48 29.71 370.27
  C 7.49 307.06 50.68 239.87 116.86 232.61
  Q 121.26 232.12 123.58 233.01
  C 130.95 235.83 129.45 247.51 121.74 248.17
  C 54.12 253.95 16.15 329.47 56.25 386.26
  A 0.27 0.26 -45.7 0 0 56.69 386.25
  Z
  M 158.37 316.80
  A 30.37 30.37 0.0 0 0 128.00 286.43
  A 30.37 30.37 0.0 0 0 97.63 316.80
  A 30.37 30.37 0.0 0 0 128.00 347.17
  A 30.37 30.37 0.0 0 0 158.37 316.80
  Z
  M 68.01 400.07
  C 102.07 432.02 154.00 431.84 188.11 400.01
  Q 188.42 399.71 188.22 399.33
  C 162.20 351.88 93.77 350.68 67.88 399.29
  Q 67.65 399.73 68.01 400.07
  Z"
/>
<path fill="#ff1f70" d="
  M 312.83 386.00
  Q 325.94 366.28 347.12 355.87
  C 348.86 355.02 351.92 353.93 354.28 352.80
  Q 354.90 352.51 354.38 352.06
  C 325.70 327.86 335.89 282.83 370.68 272.37
  C 396.63 264.57 423.92 280.95 429.43 307.34
  C 433.00 324.43 426.77 340.41 413.65 352.15
  Q 413.18 352.57 413.77 352.81
  C 431.18 359.89 444.98 370.41 455.26 386.23
  A 0.34 0.33 -44.3 0 0 455.82 386.23
  Q 476.84 355.61 470.52 319.98
  C 466.34 296.38 451.98 275.19 432.05 262.17
  Q 413.77 250.23 390.49 248.26
  C 384.60 247.76 381.57 240.30 385.10 235.59
  C 387.51 232.38 390.99 232.07 395.06 232.57
  Q 435.12 237.51 461.33 266.58
  C 492.81 301.50 496.68 352.85 471.35 392.34
  C 446.13 431.66 397.60 449.12 352.99 435.22
  C 311.43 422.27 282.45 384.55 280.08 340.87
  C 279.85 336.72 279.51 331.14 281.66 327.76
  C 284.57 323.16 292.80 323.31 295.23 328.53
  Q 296.07 330.32 296.02 334.57
  Q 295.72 362.92 312.14 386.01
  Q 312.49 386.51 312.83 386.00
  Z
  M 414.39 316.80
  A 30.39 30.39 0.0 0 0 384.00 286.41
  A 30.39 30.39 0.0 0 0 353.61 316.80
  A 30.39 30.39 0.0 0 0 384.00 347.19
  A 30.39 30.39 0.0 0 0 414.39 316.80
  Z
  M 381.40 363.28
  C 357.16 364.12 335.19 377.95 323.75 399.38
  Q 323.58 399.70 323.84 399.94
  C 358.32 431.95 409.67 432.05 444.12 399.98
  Q 444.43 399.69 444.23 399.32
  C 431.22 375.96 408.01 362.36 381.40 363.28
  Z"
/>
</svg>
