<svg xmlns="http://www.w3.org/2000/svg" version="1.1" viewBox="0.00 0.00 512.00 512.00">
<path fill="#FFFFFF" d="
  M 102.53 0.00
  L 409.56 0.00
  C 465.89 1.99 510.07 46.17 512.00 102.55
  L 512.00 409.62
  C 509.57 466.37 466.23 509.71 409.45 512.00
  L 102.38 512.00
  C 45.64 509.57 2.29 466.23 0.00 409.45
  L 0.00 102.39
  C 2.35 45.62 45.79 2.35 102.53 0.00
  Z
  M 255.56 123.54
  C 250.24 113.23 244.06 105.98 231.75 105.07
  C 215.72 103.90 202.84 119.37 206.13 134.84
  Q 207.15 139.66 213.41 150.43
  Q 220.23 162.16 226.93 173.84
  A 0.66 0.66 0.0 0 1 226.93 174.50
  L 159.88 290.66
  A 0.70 0.69 -75.0 0 1 159.28 291.01
  Q 137.56 290.98 115.89 291.02
  Q 107.17 291.03 103.72 292.00
  C 85.54 297.09 79.59 320.01 92.64 333.36
  Q 100.00 340.90 111.00 340.91
  Q 205.50 341.01 299.90 341.01
  A 0.28 0.28 0.0 0 0 300.14 340.59
  L 271.71 291.36
  A 0.73 0.71 74.6 0 0 271.09 291.00
  L 217.79 291.00
  A 0.21 0.20 -74.5 0 1 217.62 290.69
  Q 260.36 216.63 302.94 142.49
  Q 308.35 133.07 305.62 123.59
  C 299.50 102.29 271.12 98.21 259.84 117.57
  Q 257.57 121.47 256.32 123.57
  Q 255.92 124.23 255.56 123.54
  Z
  M 381.88 341.04
  Q 391.07 340.91 400.25 341.02
  C 414.48 341.20 426.86 330.13 426.44 315.75
  C 426.04 301.64 415.09 291.10 401.00 291.06
  Q 376.73 290.99 352.53 290.99
  A 0.41 0.40 73.5 0 1 352.19 290.80
  L 296.72 194.70
  A 0.36 0.36 0.0 0 0 296.09 194.70
  L 267.85 243.60
  A 1.12 1.10 -45.4 0 0 267.85 244.71
  Q 310.90 319.26 354.05 393.99
  Q 359.18 402.87 368.17 405.67
  C 390.21 412.55 409.10 389.11 397.51 369.25
  Q 389.46 355.46 381.57 341.58
  Q 381.26 341.05 381.88 341.04
  Z
  M 113.78 393.02
  C 122.40 410.68 147.68 411.55 157.46 394.75
  Q 167.16 378.12 176.74 361.44
  Q 176.99 361.00 176.48 361.00
  L 119.81 361.00
  Q 119.41 361.00 119.20 361.33
  C 112.36 371.89 107.94 381.06 113.78 393.02
  Z"
/>
</svg>
