<svg xmlns="http://www.w3.org/2000/svg" version="1.1" viewBox="0.00 0.00 512.00 512.00">
<path fill="#ff1f70" d="
  M 512.00 86.38
  L 512.00 91.24
  Q 510.41 115.26 493.58 132.07
  Q 420.96 204.59 348.41 277.15
  Q 305.14 320.43 242.90 323.16
  Q 234.79 323.52 230.28 321.83
  C 219.95 317.96 217.10 309.14 217.52 298.47
  Q 220.00 235.86 263.31 192.56
  Q 333.79 122.10 404.25 51.63
  Q 414.03 41.85 419.22 38.45
  C 441.60 23.80 471.39 26.08 491.41 43.57
  Q 510.10 59.88 512.00 86.38
  Z
  M 259.49 280.90
  A 0.22 0.21 -89.8 0 0 259.74 281.16
  Q 288.65 275.42 311.03 257.13
  Q 315.63 253.36 325.56 243.43
  Q 395.84 173.15 466.00 102.75
  C 479.90 88.80 467.78 65.80 448.45 68.96
  Q 442.46 69.93 438.20 74.19
  Q 369.66 142.72 301.16 211.26
  Q 288.87 223.56 287.12 225.51
  Q 266.08 249.01 259.49 280.90
  Z"
/>
<path fill="#FFFFFF" d="
  M 0.00 426.94
  L 0.00 178.21
  C 3.50 130.00 38.25 90.83 86.30 84.20
  Q 93.01 83.28 106.26 83.27
  Q 187.01 83.25 267.75 83.47
  C 290.16 83.53 295.31 114.26 274.72 121.92
  Q 271.14 123.25 264.61 123.25
  Q 187.05 123.27 109.50 123.25
  Q 95.16 123.24 89.56 124.21
  C 65.20 128.43 45.45 147.98 41.04 172.31
  Q 39.99 178.09 39.99 192.25
  Q 40.01 305.86 40.00 419.46
  Q 39.99 426.61 41.35 430.37
  C 45.06 440.62 57.75 446.42 68.05 441.63
  Q 70.95 440.28 76.00 435.78
  Q 91.80 421.68 107.56 407.56
  C 111.31 404.21 116.61 403.27 122.09 403.27
  Q 227.30 403.24 332.50 403.27
  C 360.84 403.28 386.41 381.80 391.11 353.44
  Q 392.03 347.90 392.00 333.49
  Q 391.97 317.72 392.02 301.94
  Q 392.04 294.61 393.31 291.24
  C 399.72 274.17 424.37 274.27 430.61 291.32
  Q 432.03 295.18 432.02 303.36
  Q 432.00 320.44 431.99 337.51
  Q 431.98 350.46 430.96 357.45
  C 424.53 401.37 390.03 436.05 345.95 442.28
  Q 339.14 443.24 326.00 443.24
  Q 227.23 443.27 128.15 443.25
  A 1.26 1.23 -65.7 0 0 127.31 443.58
  Q 113.82 455.66 100.10 467.84
  C 79.16 486.42 48.17 488.55 25.32 472.18
  Q 2.66 455.95 0.00 426.94
  Z"
/>
<rect fill="#ff1f70" x="80.19" y="203.37" width="99.62" height="39.78" rx="19.11"/>
<rect fill="#ff1f70" x="80.19" y="283.37" width="99.62" height="39.78" rx="19.11"/>
</svg>
