<?xml version="1.0" encoding="UTF-8" standalone="no"?>
<!DOCTYPE svg PUBLIC "-//W3C//DTD SVG 1.1//EN" "http://www.w3.org/Graphics/SVG/1.1/DTD/svg11.dtd">
<svg xmlns="http://www.w3.org/2000/svg" version="1.1" viewBox="0.00 0.00 512.00 512.00">
<path fill="#FFFFFF" d="
  M 253.56 0.00
  L 258.56 0.00
  Q 279.82 2.22 290.90 18.25
  C 308.46 43.63 294.74 77.43 265.05 84.30
  A 0.71 0.70 83.3 0 0 264.51 84.99
  L 264.53 135.74
  A 0.78 0.78 0.0 0 0 265.31 136.52
  Q 333.61 136.48 402.00 136.52
  Q 415.69 136.53 421.90 137.82
  C 444.42 142.50 462.62 160.38 467.78 182.82
  Q 469.24 189.18 469.29 201.82
  Q 469.34 215.82 469.31 229.85
  Q 469.31 230.40 469.86 230.41
  C 474.74 230.43 480.11 230.16 484.52 231.08
  C 499.98 234.30 510.33 246.46 512.00 262.12
  L 512.00 318.26
  Q 509.38 338.95 491.14 347.15
  C 484.20 350.26 476.83 349.95 469.65 349.83
  A 0.34 0.34 0.0 0 0 469.30 350.17
  Q 469.34 364.07 469.30 378.01
  Q 469.26 390.83 467.79 397.38
  C 461.67 424.57 436.88 443.75 409.25 443.75
  Q 313.38 443.74 218.34 443.75
  A 7.99 7.94 28.0 0 0 213.93 445.08
  Q 165.12 477.66 115.88 510.42
  C 114.70 511.21 113.49 511.58 112.17 512.00
  L 109.66 512.00
  C 103.80 510.59 102.42 506.89 102.42 501.01
  Q 102.43 472.73 102.41 444.32
  Q 102.41 443.79 101.87 443.77
  C 74.23 442.57 50.57 424.98 44.26 397.75
  Q 42.75 391.24 42.70 378.11
  Q 42.65 364.30 42.70 350.43
  Q 42.70 349.87 42.14 349.87
  C 37.91 349.82 33.04 350.01 29.44 349.51
  C 13.34 347.24 1.62 334.39 0.00 318.22
  L 0.00 261.90
  C 1.61 246.53 12.34 234.08 27.49 231.06
  C 31.83 230.20 37.25 230.40 42.14 230.42
  Q 42.70 230.42 42.69 229.86
  Q 42.67 215.84 42.71 201.85
  Q 42.75 189.11 44.21 182.78
  C 49.33 160.46 67.37 142.80 89.61 137.94
  Q 96.08 136.53 109.49 136.52
  Q 178.14 136.48 246.69 136.52
  A 0.78 0.78 0.0 0 0 247.47 135.74
  L 247.48 85.01
  A 0.44 0.42 8.2 0 0 247.16 84.60
  Q 224.74 78.52 216.16 58.02
  C 211.44 46.75 212.80 32.93 218.72 22.13
  Q 229.39 2.65 253.56 0.00
  Z
  M 281.58 42.66
  A 25.58 25.58 0.0 0 0 256.00 17.08
  A 25.58 25.58 0.0 0 0 230.42 42.66
  A 25.58 25.58 0.0 0 0 256.00 68.24
  A 25.58 25.58 0.0 0 0 281.58 42.66
  Z
  M 92.59 154.86
  C 73.34 159.31 59.67 176.61 59.68 196.75
  Q 59.74 286.54 59.74 376.34
  Q 59.74 389.32 61.23 395.03
  C 65.47 411.29 79.48 423.75 96.33 426.20
  C 99.18 426.61 104.23 426.32 107.01 427.25
  Q 115.03 429.93 118.00 436.90
  Q 119.46 440.31 119.47 447.87
  Q 119.50 467.45 119.48 487.11
  A 0.23 0.23 0.0 0 0 119.83 487.30
  Q 158.61 461.46 197.42 435.53
  C 205.70 430.00 210.16 426.68 218.75 426.68
  Q 309.25 426.68 399.75 426.69
  Q 414.15 426.69 419.64 425.38
  C 439.17 420.74 452.31 403.20 452.30 383.25
  Q 452.26 294.37 452.26 205.49
  Q 452.26 191.28 450.84 185.63
  C 445.98 166.33 428.50 153.51 408.75 153.52
  Q 260.62 153.59 112.50 153.57
  Q 98.15 153.57 92.59 154.86
  Z
  M 42.69 332.18
  L 42.69 248.06
  A 0.67 0.67 0.0 0 0 42.02 247.39
  L 34.58 247.39
  A 17.88 17.61 -90.0 0 0 16.97 265.27
  L 16.97 314.97
  A 17.88 17.61 -90.0 0 0 34.58 332.85
  L 42.02 332.85
  A 0.67 0.67 0.0 0 0 42.69 332.18
  Z
  M 469.31 247.92
  L 469.31 332.32
  A 0.53 0.53 0.0 0 0 469.84 332.85
  L 477.39 332.85
  A 17.82 17.64 -90.0 0 0 495.03 315.03
  L 495.03 265.21
  A 17.82 17.64 90.0 0 0 477.39 247.39
  L 469.84 247.39
  A 0.53 0.53 0.0 0 0 469.31 247.92
  Z"
/>
<path fill="#ff1f70" d="
  M 196.20 264.53
  A 42.61 42.61 0.0 0 1 153.59 307.14
  A 42.61 42.61 0.0 0 1 110.98 264.53
  A 42.61 42.61 0.0 0 1 153.59 221.92
  A 42.61 42.61 0.0 0 1 196.20 264.53
  Z
  M 179.20 264.52
  A 25.60 25.60 0.0 0 0 153.60 238.92
  A 25.60 25.60 0.0 0 0 128.00 264.52
  A 25.60 25.60 0.0 0 0 153.60 290.12
  A 25.60 25.60 0.0 0 0 179.20 264.52
  Z"
/>
<path fill="#ff1f70" d="
  M 401.00 264.53
  A 42.61 42.61 0.0 0 1 358.39 307.14
  A 42.61 42.61 0.0 0 1 315.78 264.53
  A 42.61 42.61 0.0 0 1 358.39 221.92
  A 42.61 42.61 0.0 0 1 401.00 264.53
  Z
  M 384.00 264.52
  A 25.60 25.60 0.0 0 0 358.40 238.92
  A 25.60 25.60 0.0 0 0 332.80 264.52
  A 25.60 25.60 0.0 0 0 358.40 290.12
  A 25.60 25.60 0.0 0 0 384.00 264.52
  Z"
/>
<path fill="#ff1f70" d="
  M 225.43 352.36
  C 218.75 349.46 210.00 343.69 206.19 337.32
  C 200.86 328.37 213.03 319.84 219.40 326.85
  Q 223.63 331.52 225.00 332.51
  C 242.28 345.09 275.70 345.07 291.05 328.76
  Q 293.93 325.70 295.51 325.03
  C 301.87 322.33 308.70 328.43 306.89 335.02
  Q 306.22 337.44 303.52 340.27
  C 284.34 360.40 249.97 363.01 225.43 352.36
  Z"
/>
</svg>
