<?xml version="1.0" encoding="UTF-8" standalone="no"?>
<!DOCTYPE svg PUBLIC "-//W3C//DTD SVG 1.1//EN" "http://www.w3.org/Graphics/SVG/1.1/DTD/svg11.dtd">
<svg xmlns="http://www.w3.org/2000/svg" version="1.1" viewBox="0.00 0.00 512.00 512.00">
<g stroke-width="2.00" fill="none" stroke-linecap="butt">
<path stroke="#801038" vector-effect="non-scaling-stroke" d="
  M 248.56 336.94
  L 234.67 318.87"
/>
<path stroke="#801038" vector-effect="non-scaling-stroke" d="
  M 186.02 299.64
  L 166.47 305.27"
/>
</g>
<path fill="#FFFFFF" d="
  M 334.90 401.20
  A 0.38 0.37 22.1 0 0 334.41 401.40
  Q 327.88 417.20 321.49 433.01
  Q 316.14 446.23 313.23 451.21
  C 285.40 498.80 217.14 501.47 170.51 491.16
  C 131.82 482.61 94.84 464.94 64.88 438.88
  C 32.29 410.54 2.93 364.24 22.04 319.58
  C 28.02 305.60 33.58 291.42 39.44 277.38
  C 41.74 271.88 44.23 267.44 47.46 262.85
  A 0.47 0.46 44.5 0 0 47.45 262.31
  C 40.12 252.61 30.69 241.54 25.60 232.33
  C -2.32 181.81 34.62 118.15 70.08 82.83
  C 97.21 55.80 130.60 34.67 167.32 23.38
  C 206.03 11.47 258.35 10.83 285.43 46.57
  Q 307.08 75.15 312.66 82.34
  Q 319.22 90.80 323.41 99.98
  Q 323.62 100.45 324.13 100.51
  C 387.41 108.65 441.29 157.26 471.53 210.99
  C 496.04 254.56 513.08 325.30 467.83 363.09
  Q 453.47 375.08 439.19 387.15
  Q 428.51 396.17 423.34 399.31
  C 396.67 415.51 362.88 412.51 334.90 401.20
  Z
  M 272.6448 56.4664
  A 143.87 87.93 -37.3 0 0 104.9154 73.7040
  A 143.87 87.93 -37.3 0 0 43.7552 230.8336
  A 143.87 87.93 -37.3 0 0 211.4846 213.5960
  A 143.87 87.93 -37.3 0 0 272.6448 56.4664
  Z
  M 295.57 125.55
  A 0.54 0.53 35.7 0 0 295.66 126.05
  L 311.79 147.23
  Q 312.04 147.56 312.12 147.15
  C 315.59 128.45 313.00 108.63 301.02 93.52
  Q 300.43 92.76 300.42 93.72
  Q 300.28 109.98 295.57 125.55
  Z
  M 427.16 363.12
  C 458.05 359.50 476.68 336.30 479.45 306.49
  C 484.30 254.22 452.29 199.73 415.85 164.89
  C 392.03 142.11 362.39 123.89 329.15 117.36
  A 0.58 0.58 0.0 0 0 328.46 118.01
  C 335.82 167.19 302.88 217.80 268.33 249.41
  A 0.73 0.73 0.0 0 0 268.16 250.26
  Q 288.87 292.36 324.58 323.17
  C 351.43 346.34 390.48 367.41 427.16 363.12
  Z
  M 288.65 144.22
  C 284.10 154.51 278.47 164.40 272.11 173.55
  A 0.71 0.71 0.0 0 0 272.13 174.38
  L 290.49 198.47
  A 0.23 0.22 -47.1 0 0 290.86 198.45
  Q 300.44 183.76 306.61 167.34
  A 0.66 0.66 0.0 0 0 306.52 166.71
  L 289.33 144.14
  Q 288.92 143.61 288.65 144.22
  Z
  M 280.69 212.70
  A 0.56 0.55 -44.6 0 0 280.70 212.02
  L 262.12 187.63
  A 0.36 0.35 -43.7 0 0 261.56 187.62
  Q 246.39 206.07 227.85 221.14
  A 0.46 0.45 51.4 0 0 227.78 221.77
  L 246.69 246.59
  A 0.34 0.33 52.0 0 0 247.17 246.65
  Q 265.76 231.48 280.69 212.70
  Z
  M 173.16 254.98
  A 0.35 0.34 -30.7 0 0 173.02 255.50
  L 191.61 279.91
  A 0.55 0.54 59.3 0 0 192.25 280.08
  Q 214.30 270.68 233.84 256.81
  A 0.39 0.39 0.0 0 0 233.93 256.25
  L 215.03 231.44
  A 0.42 0.41 -35.6 0 0 214.45 231.35
  Q 194.99 245.23 173.16 254.98
  Z
  M 230.40 278.90
  C 237.20 293.73 246.17 307.93 256.18 320.66
  Q 256.55 321.14 257.01 320.75
  L 280.65 300.89
  A 0.48 0.47 -39.3 0 0 280.72 300.23
  Q 266.22 281.82 255.61 260.93
  A 0.34 0.34 0.0 0 0 255.10 260.82
  Q 243.33 270.14 230.63 278.14
  Q 230.18 278.42 230.40 278.90
  Z
  M 175.53 286.19
  Q 176.14 286.00 175.75 285.49
  L 157.50 261.53
  A 0.48 0.47 61.5 0 0 156.97 261.37
  Q 140.90 266.99 124.07 269.57
  A 0.36 0.36 0.0 0 0 123.84 270.15
  L 140.95 292.61
  A 1.02 0.99 68.5 0 0 141.84 293.01
  Q 159.06 291.42 175.53 286.19
  Z
  M 120.54 292.93
  Q 121.13 292.98 120.77 292.51
  L 104.93 271.74
  Q 104.56 271.26 103.95 271.27
  Q 87.70 271.63 72.03 267.41
  A 0.26 0.26 0.0 0 0 71.76 267.82
  C 83.12 283.39 101.64 291.43 120.54 292.93
  Z
  M 248.56 336.94
  L 234.67 318.87
  Q 224.60 303.48 216.40 286.94
  Q 216.17 286.47 215.70 286.71
  Q 201.08 294.15 186.02 299.64
  L 166.47 305.27
  C 128.66 314.11 83.10 311.09 58.30 276.49
  A 0.48 0.48 0.0 0 0 57.49 276.54
  Q 45.95 298.01 52.47 321.77
  C 63.19 360.80 99.37 391.91 133.83 409.97
  C 171.68 429.80 217.11 440.57 259.74 433.50
  C 283.11 429.63 308.90 418.01 319.49 395.16
  Q 319.71 394.68 319.24 394.43
  Q 283.04 375.39 255.79 344.96
  Q 252.20 340.96 248.56 336.94
  Z
  M 290.90 313.18
  L 267.13 333.14
  A 0.42 0.42 0.0 0 0 267.09 333.74
  Q 283.08 351.54 302.50 365.51
  Q 302.89 365.79 303.26 365.48
  L 326.61 345.86
  A 0.43 0.43 0.0 0 0 326.59 345.18
  Q 307.51 330.96 291.66 313.23
  A 0.55 0.55 0.0 0 0 290.90 313.18
  Z
  M 40.15 381.17
  L 50.11 356.84
  Q 50.32 356.32 50.02 355.84
  Q 41.49 342.10 37.18 326.51
  Q 36.95 325.69 36.62 326.47
  C 28.98 344.21 31.49 364.13 39.80 381.18
  Q 39.99 381.56 40.15 381.17
  Z
  M 371.49 370.33
  C 360.90 366.02 350.85 361.10 341.17 355.10
  A 0.65 0.65 0.0 0 0 340.42 355.15
  L 317.33 374.55
  A 0.33 0.33 0.0 0 0 317.37 375.09
  Q 332.39 383.89 348.96 389.24
  A 0.88 0.87 33.3 0 0 349.80 389.07
  L 371.56 370.79
  A 0.27 0.27 0.0 0 0 371.49 370.33
  Z
  M 61.07 372.29
  L 50.34 398.50
  Q 50.13 399.01 50.46 399.46
  Q 60.62 413.54 73.53 425.15
  A 0.33 0.33 0.0 0 0 74.06 425.03
  L 85.46 397.20
  A 0.79 0.78 31.5 0 0 85.24 396.31
  Q 72.32 385.35 61.62 372.21
  Q 61.28 371.78 61.07 372.29
  Z
  M 369.52 393.72
  C 388.03 396.64 408.36 392.72 422.72 380.05
  Q 423.26 379.57 422.54 379.60
  Q 406.37 380.22 390.68 376.32
  A 1.29 1.28 31.8 0 0 389.54 376.58
  L 369.45 393.46
  A 0.15 0.15 0.0 0 0 369.52 393.72
  Z
  M 87.06 435.52
  Q 86.82 436.10 87.33 436.48
  Q 106.48 450.62 128.21 460.37
  Q 128.67 460.58 128.87 460.10
  L 140.63 431.36
  A 0.43 0.43 0.0 0 0 140.41 430.81
  Q 118.58 421.03 99.10 407.17
  A 0.33 0.33 0.0 0 0 98.60 407.31
  L 87.06 435.52
  Z
  M 262.43 471.69
  Q 262.14 472.39 262.85 472.14
  C 280.50 465.88 296.17 453.41 303.12 435.51
  Q 303.41 434.74 302.70 435.15
  Q 288.73 443.21 273.03 447.04
  A 1.18 1.18 0.0 0 0 272.21 447.74
  L 262.43 471.69
  Z
  M 155.39 437.51
  L 143.60 466.35
  A 0.31 0.31 0.0 0 0 143.78 466.76
  Q 166.36 475.13 190.22 478.47
  A 0.35 0.34 15.0 0 0 190.59 478.26
  L 202.25 449.74
  A 0.35 0.35 0.0 0 0 201.98 449.26
  Q 178.44 445.52 156.10 437.20
  A 0.56 0.55 -68.2 0 0 155.39 437.51
  Z
  M 207.27 479.73
  A 0.20 0.20 0.0 0 0 207.45 480.00
  Q 224.96 480.82 242.23 477.82
  A 0.79 0.79 0.0 0 0 242.83 477.35
  L 253.59 451.02
  A 0.29 0.29 0.0 0 0 253.29 450.62
  Q 236.34 452.55 219.34 451.21
  A 0.53 0.52 12.7 0 0 218.81 451.54
  L 207.27 479.73
  Z"
/>
<path fill="#FFFFFF" d="
  M 19.59 91.87
  A 0.59 0.58 34.1 0 1 19.43 91.05
  C 39.83 60.98 68.14 36.02 99.65 18.20
  Q 100.11 17.94 100.37 18.40
  L 107.72 31.53
  A 0.45 0.44 -29.1 0 1 107.54 32.14
  C 77.51 49.09 52.54 71.77 32.66 99.99
  Q 32.34 100.44 31.88 100.13
  L 19.59 91.87
  Z"
/>
<path fill="#ff1f70" d="
  M 68.25 203.31
  L 116.97 95.89
  A 8.03 8.03 0.0 0 1 123.02 91.27
  L 239.59 72.75
  A 8.03 8.03 0.0 0 1 248.17 84.00
  L 199.41 191.50
  A 8.03 8.03 0.0 0 1 193.35 196.12
  L 76.82 214.56
  A 8.03 8.03 0.0 0 1 68.25 203.31
  Z
  M 209.88 93.63
  Q 171.82 99.70 133.69 105.72
  Q 133.20 105.80 133.27 106.28
  L 138.77 147.70
  Q 138.86 148.39 139.41 147.97
  L 210.36 93.90
  A 0.18 0.18 0.0 0 0 210.39 93.64
  Q 210.19 93.37 209.88 93.63
  Z
  M 149.05 161.27
  L 187.59 177.58
  Q 188.10 177.80 188.33 177.29
  L 220.23 106.95
  Q 220.58 106.18 219.91 106.70
  L 148.98 160.73
  Q 148.56 161.06 149.05 161.27
  Z
  M 120.17 128.91
  A 0.32 0.32 0.0 0 0 119.56 128.82
  L 96.33 180.02
  A 0.32 0.32 0.0 0 0 96.82 180.41
  L 124.09 159.64
  A 0.32 0.32 0.0 0 0 124.22 159.35
  L 120.17 128.91
  Z
  M 106.49 193.71
  L 162.63 184.83
  A 0.24 0.24 0.0 0 0 162.69 184.37
  L 134.47 172.42
  Q 133.94 172.20 133.48 172.54
  L 106.29 193.25
  Q 105.48 193.87 106.49 193.71
  Z"
/>
<path fill="#FFFFFF" d="
  M 344.97 72.49
  L 361.28 74.80
  A 0.41 0.41 0.0 0 1 361.63 75.29
  L 358.44 90.21
  A 0.41 0.41 0.0 0 1 357.98 90.53
  L 343.87 88.52
  A 0.41 0.41 0.0 0 1 343.51 88.09
  L 344.50 72.87
  A 0.41 0.41 0.0 0 1 344.97 72.49
  Z"
/>
<path fill="#FFFFFF" d="
  M 386.06 82.62
  C 422.18 97.49 453.48 123.92 476.97 154.93
  A 0.33 0.32 -37.0 0 1 476.90 155.39
  L 464.79 164.56
  A 0.54 0.53 -37.0 0 1 464.04 164.46
  C 441.40 134.40 410.78 108.99 375.34 95.63
  A 0.43 0.43 0.0 0 1 375.09 95.08
  L 380.16 81.01
  Q 380.33 80.53 380.81 80.69
  Q 383.53 81.58 386.06 82.62
  Z"
/>
<path fill="#ff1f70" d="
  M 386.54 237.12
  C 393.60 222.51 408.51 215.02 424.15 219.09
  C 442.14 223.78 452.36 243.32 445.98 260.69
  C 434.30 292.45 390.01 287.19 384.11 254.13
  A 0.88 0.87 -86.9 0 0 383.49 253.43
  L 368.02 248.91
  Q 367.52 248.76 367.12 249.10
  L 364.25 251.53
  A 0.72 0.72 0.0 0 0 364.06 252.37
  C 373.95 274.01 357.40 298.63 333.87 297.56
  C 321.50 297.01 310.47 289.47 305.71 278.07
  C 293.26 248.23 326.31 222.24 353.20 239.24
  Q 353.69 239.55 354.13 239.18
  L 356.87 236.90
  Q 357.28 236.56 357.22 236.03
  L 355.43 219.95
  Q 355.37 219.34 354.79 219.15
  C 332.39 211.76 325.32 184.69 340.78 167.16
  C 348.56 158.34 362.12 154.46 373.65 158.04
  C 404.33 167.57 403.94 211.49 372.07 219.71
  A 0.71 0.71 0.0 0 0 371.54 220.47
  L 372.97 233.25
  A 0.75 0.75 0.0 0 0 373.51 233.90
  L 385.77 237.47
  Q 386.30 237.62 386.54 237.12
  Z
  M 380.44 188.71
  A 15.99 15.99 0.0 0 0 364.45 172.72
  A 15.99 15.99 0.0 0 0 348.46 188.71
  A 15.99 15.99 0.0 0 0 364.45 204.70
  A 15.99 15.99 0.0 0 0 380.44 188.71
  Z
  M 431.91 249.96
  A 16.00 16.00 0.0 0 0 415.91 233.96
  A 16.00 16.00 0.0 0 0 399.91 249.96
  A 16.00 16.00 0.0 0 0 415.91 265.96
  A 16.00 16.00 0.0 0 0 431.91 249.96
  Z
  M 351.04 265.63
  A 15.99 15.99 0.0 0 0 335.05 249.64
  A 15.99 15.99 0.0 0 0 319.06 265.63
  A 15.99 15.99 0.0 0 0 335.05 281.62
  A 15.99 15.99 0.0 0 0 351.04 265.63
  Z"
/>
<path fill="#ff1f70" d="
  M 186.02 299.64
  L 176.29 323.45
  A 0.32 0.32 0.0 0 0 176.47 323.87
  Q 195.38 331.65 214.23 339.32
  C 218.66 341.12 224.62 339.84 228.56 337.04
  Q 237.15 330.94 234.67 318.87
  L 248.56 336.94
  Q 242.83 349.22 230.37 354.04
  Q 229.86 354.24 230.05 354.76
  Q 231.87 359.63 232.21 360.99
  C 238.50 386.25 212.88 407.85 189.08 398.16
  Q 184.11 396.14 182.10 395.29
  Q 181.57 395.07 181.36 395.60
  L 175.66 409.55
  A 0.38 0.37 21.9 0 1 175.18 409.75
  L 161.29 404.06
  A 0.58 0.57 22.4 0 1 160.97 403.30
  L 166.58 389.60
  Q 166.81 389.04 166.26 388.82
  L 152.31 383.11
  A 0.39 0.38 -67.1 0 0 151.81 383.32
  L 146.09 397.30
  Q 145.90 397.78 145.42 397.58
  L 131.74 391.98
  Q 131.13 391.73 131.38 391.12
  L 136.98 377.43
  Q 137.19 376.92 136.68 376.71
  L 122.93 371.09
  Q 122.38 370.87 122.60 370.32
  L 128.18 356.68
  Q 128.42 356.10 129.00 356.33
  L 142.76 361.96
  Q 143.22 362.15 143.41 361.69
  L 166.47 305.27
  L 186.02 299.64
  Z
  M 169.82 339.13
  L 158.19 367.63
  A 0.71 0.71 0.0 0 0 158.58 368.55
  L 194.50 383.21
  A 16.56 15.99 22.2 0 0 215.87 374.66
  L 215.95 374.46
  A 16.56 15.99 22.2 0 0 206.66 353.40
  L 170.75 338.74
  A 0.71 0.71 0.0 0 0 169.82 339.13
  Z"
/>
<path fill="#FFFFFF" d="
  M 467.90 419.63
  C 445.20 433.13 419.51 441.69 393.42 445.31
  A 0.27 0.26 81.4 0 1 393.12 445.08
  L 390.92 430.23
  Q 390.83 429.64 391.42 429.53
  Q 395.87 428.73 400.23 427.93
  Q 431.93 422.13 459.68 405.98
  A 0.22 0.22 0.0 0 1 459.98 406.05
  L 468.00 419.21
  A 0.31 0.31 0.0 0 1 467.90 419.63
  Z"
/>
<path fill="#FFFFFF" d="
  M 360.27 432.14
  L 375.03 431.46
  A 0.35 0.35 0.0 0 1 375.40 431.78
  L 376.61 447.04
  A 0.35 0.35 0.0 0 1 376.28 447.42
  L 360.42 448.14
  A 0.35 0.35 0.0 0 1 360.06 447.80
  L 359.93 432.50
  A 0.35 0.35 0.0 0 1 360.27 432.14
  Z"
/>
</svg>
