<svg xmlns="http://www.w3.org/2000/svg" version="1.1" viewBox="0.00 0.00 512.00 512.00">
<path fill="#FFFFFF" d="
  M 512.00 115.03
  L 512.00 310.56
  C 509.68 322.41 493.50 323.27 490.95 311.72
  Q 490.69 310.54 490.69 304.76
  Q 490.69 211.13 490.58 117.50
  C 490.57 103.34 481.42 90.69 468.10 86.76
  Q 463.16 85.31 448.24 85.31
  Q 255.70 85.32 63.16 85.30
  Q 49.03 85.30 43.98 86.80
  C 30.44 90.80 21.40 103.41 21.37 117.50
  Q 21.30 143.95 21.31 170.17
  Q 21.31 170.68 21.82 170.68
  Q 87.15 170.75 152.33 170.70
  Q 165.82 170.69 171.57 171.93
  C 192.58 176.46 208.88 193.97 212.44 214.80
  Q 213.38 220.27 213.33 234.75
  Q 213.24 261.25 213.09 287.75
  Q 212.97 311.25 197.04 326.30
  Q 181.16 341.32 159.50 341.31
  Q 90.53 341.30 21.64 341.31
  A 0.35 0.35 0.0 0 0 21.29 341.66
  Q 21.30 368.30 21.50 395.00
  C 21.60 408.99 30.70 421.26 43.84 425.21
  Q 48.77 426.69 62.80 426.70
  Q 174.08 426.76 285.36 426.69
  Q 289.75 426.69 291.56 427.30
  C 302.88 431.11 299.93 447.93 287.50 447.94
  Q 175.38 447.99 63.26 448.00
  Q 48.68 448.00 43.31 447.00
  C 19.05 442.49 1.65 421.82 0.00 397.14
  L 0.00 114.72
  C 1.72 90.20 18.95 69.65 43.06 65.04
  Q 48.50 64.00 63.00 64.00
  Q 260.75 64.00 458.50 64.00
  C 487.58 64.00 509.85 86.19 512.00 115.03
  Z
  M 190.46 214.41
  C 186.74 202.25 174.51 192.01 161.25 192.01
  Q 91.54 191.99 22.00 192.00
  Q 21.53 192.00 21.53 192.47
  L 21.54 319.74
  A 0.26 0.25 90.0 0 0 21.79 320.00
  Q 87.87 320.00 154.01 320.00
  Q 164.52 320.00 169.35 318.54
  C 181.31 314.92 191.98 302.75 191.99 289.75
  Q 191.99 261.50 192.01 233.26
  Q 192.02 219.52 190.46 214.41
  Z"
/>
<path fill="#ff1f70" d="
  M 243.08 177.45
  C 231.01 176.77 223.82 166.88 223.05 155.63
  Q 223.01 155.05 223.59 155.00
  L 237.08 153.87
  Q 237.75 153.81 237.83 154.48
  C 240.22 173.99 268.05 164.69 259.71 154.33
  Q 258.55 152.89 254.44 151.78
  Q 247.47 149.90 240.52 147.89
  C 230.88 145.10 224.44 138.54 225.54 127.91
  C 227.01 113.84 242.53 110.67 254.26 112.10
  C 266.29 113.57 274.14 119.83 274.32 132.41
  Q 274.33 133.00 273.74 133.00
  L 260.02 133.00
  Q 259.53 133.00 259.39 132.53
  C 258.29 129.11 257.65 126.44 253.94 124.96
  Q 248.42 122.76 242.72 125.69
  C 240.45 126.86 239.01 129.15 240.60 131.57
  C 242.22 134.02 246.55 135.35 249.27 135.98
  C 263.23 139.21 279.00 142.74 275.83 161.74
  C 273.27 177.03 257.18 178.94 244.50 177.87
  Q 244.14 177.84 243.81 177.66
  A 1.80 1.62 58.0 0 0 243.08 177.45
  Z"
/>
<path fill="#ff1f70" d="
  M 306.25 125.33
  L 306.25 137.67
  A 0.33 0.33 0.0 0 0 306.58 138.00
  L 337.15 138.00
  A 0.33 0.33 0.0 0 1 337.48 138.33
  L 337.47 149.67
  A 0.33 0.33 0.0 0 1 337.14 150.00
  L 306.58 150.00
  A 0.33 0.33 0.0 0 0 306.25 150.33
  L 306.25 164.67
  A 0.33 0.33 0.0 0 0 306.58 165.00
  L 340.78 165.00
  A 0.33 0.33 0.0 0 1 341.11 165.33
  L 341.13 176.67
  A 0.33 0.33 0.0 0 1 340.80 177.00
  L 291.78 177.00
  A 0.33 0.33 0.0 0 1 291.45 176.67
  L 291.45 113.33
  A 0.33 0.33 0.0 0 1 291.78 113.00
  L 339.49 113.00
  A 0.33 0.33 0.0 0 1 339.82 113.33
  L 339.82 124.67
  A 0.33 0.33 0.0 0 1 339.49 125.00
  L 306.58 125.00
  A 0.33 0.33 0.0 0 0 306.25 125.33
  Z"
/>
<path fill="#ff1f70" d="
  M 370.25 153.52
  L 370.25 176.50
  Q 370.25 177.00 369.75 177.00
  L 356.04 177.00
  Q 355.45 177.00 355.45 176.41
  L 355.45 113.51
  Q 355.45 113.03 355.93 113.03
  Q 371.42 112.94 386.73 113.02
  C 387.29 113.02 388.01 113.52 388.76 113.50
  C 410.98 113.10 411.29 151.90 388.32 152.43
  C 386.95 152.46 385.82 153.01 384.55 153.00
  Q 377.65 152.95 370.74 153.02
  Q 370.25 153.02 370.25 153.52
  Z
  M 370.22 125.26
  L 370.28 140.74
  A 0.25 0.25 0.0 0 0 370.53 140.99
  L 380.18 140.96
  A 9.86 7.73 -0.2 0 0 390.01 133.20
  L 390.01 132.68
  A 9.86 7.73 -0.2 0 0 380.12 124.98
  L 370.47 125.01
  A 0.25 0.25 0.0 0 0 370.22 125.26
  Z"
/>
<path fill="#ff1f70" d="
  M 427.55 163.47
  L 422.85 176.53
  A 0.71 0.71 0.0 0 1 422.18 177.00
  L 407.68 177.00
  A 0.71 0.71 0.0 0 1 407.01 176.03
  L 431.23 113.45
  A 0.71 0.71 0.0 0 1 431.90 113.00
  L 446.27 113.00
  A 0.71 0.71 0.0 0 1 446.93 113.45
  L 471.82 176.03
  A 0.71 0.71 0.0 0 1 471.16 177.00
  L 456.35 177.00
  A 0.71 0.71 0.0 0 1 455.69 176.54
  L 450.70 163.46
  A 0.71 0.71 0.0 0 0 450.04 163.00
  L 428.22 163.00
  A 0.71 0.71 0.0 0 0 427.55 163.47
  Z
  M 432.26 150.56
  A 0.34 0.34 0.0 0 0 432.58 151.02
  L 445.44 150.97
  A 0.34 0.34 0.0 0 0 445.76 150.52
  L 439.27 133.06
  A 0.34 0.34 0.0 0 0 438.63 133.06
  L 432.26 150.56
  Z"
/>
<path fill="#FFFFFF" d="
  M 149.29 255.99
  A 42.63 42.63 0.0 0 1 106.66 298.62
  A 42.63 42.63 0.0 0 1 64.03 255.99
  A 42.63 42.63 0.0 0 1 106.66 213.36
  A 42.63 42.63 0.0 0 1 149.29 255.99
  Z
  M 127.97 255.99
  A 21.31 21.31 0.0 0 0 106.66 234.68
  A 21.31 21.31 0.0 0 0 85.35 255.99
  A 21.31 21.31 0.0 0 0 106.66 277.30
  A 21.31 21.31 0.0 0 0 127.97 255.99
  Z"
/>
<path fill="#ff1f70" d="
  M 512.00 372.14
  L 512.00 374.72
  Q 509.77 384.06 500.99 384.03
  Q 474.81 383.94 448.53 384.02
  Q 448.02 384.02 448.02 384.54
  Q 447.96 435.02 448.02 485.46
  Q 448.03 493.85 446.61 497.87
  Q 442.49 509.58 428.62 512.00
  L 360.50 512.00
  C 348.99 509.44 341.30 502.28 341.32 490.00
  Q 341.41 437.26 341.33 384.53
  Q 341.33 384.01 340.81 384.01
  Q 316.15 383.98 291.64 383.99
  Q 285.33 383.99 282.63 382.55
  C 276.66 379.35 275.59 370.80 280.58 365.80
  Q 331.85 314.41 383.17 263.07
  Q 388.60 257.64 391.28 256.62
  C 397.13 254.41 400.96 257.86 405.28 262.19
  Q 457.36 314.25 509.42 366.33
  Q 511.19 368.11 512.00 372.14
  Z
  M 427.87 368.58
  C 430.36 363.52 434.37 362.74 440.19 362.73
  Q 457.67 362.70 474.86 362.72
  Q 475.66 362.72 475.09 362.15
  L 394.91 281.97
  A 0.34 0.34 0.0 0 0 394.43 281.97
  L 314.19 362.21
  Q 313.68 362.72 314.41 362.72
  Q 331.52 362.71 348.89 362.73
  Q 354.69 362.73 357.37 364.14
  Q 362.66 366.93 362.66 373.75
  Q 362.64 432.16 362.65 490.53
  A 0.19 0.19 0.0 0 0 362.84 490.72
  L 426.25 490.72
  A 0.52 0.52 0.0 0 0 426.77 490.20
  Q 426.57 432.29 426.86 374.35
  Q 426.88 370.60 427.87 368.58
  Z"
/>
</svg>
