<svg xmlns="http://www.w3.org/2000/svg" version="1.1" viewBox="0.00 0.00 512.00 512.00">
<path fill="#FFFFFF" d="
  M 78.27 0.00
  L 82.12 0.00
  Q 98.29 0.79 112.45 8.60
  Q 236.07 76.81 359.61 145.01
  A 0.28 0.27 37.3 0 1 359.67 145.45
  L 281.96 223.15
  Q 281.57 223.53 281.16 223.16
  L 48.61 8.62
  A 0.24 0.23 -38.0 0 1 48.66 8.24
  Q 62.54 0.77 78.27 0.00
  Z"
/>
<path fill="#FFFFFF" d="
  M 24.66 30.93
  Q 24.98 30.38 25.44 30.81
  L 258.64 245.91
  A 0.39 0.38 44.5 0 1 258.65 246.47
  L 24.81 480.33
  A 0.45 0.44 -37.1 0 1 24.11 480.24
  Q 19.08 471.20 17.16 461.40
  Q 16.01 455.59 16.01 441.53
  Q 15.98 252.14 16.00 62.75
  Q 16.01 45.92 24.66 30.93
  Z"
/>
<path fill="#FFFFFF" d="
  M 465.04 308.53
  C 446.37 319.39 427.20 329.59 408.30 339.99
  A 0.45 0.44 -37.7 0 1 407.79 339.93
  L 305.38 245.48
  Q 305.10 245.23 305.37 244.97
  L 388.82 161.56
  A 0.49 0.49 0.0 0 1 389.41 161.47
  Q 426.98 182.13 464.38 202.86
  C 506.14 226.01 506.30 284.52 465.04 308.53
  Z"
/>
<path fill="#FFFFFF" d="
  M 81.74 512.00
  L 77.95 512.00
  Q 61.76 511.16 47.62 503.20
  Q 47.32 503.03 47.57 502.79
  L 282.22 268.13
  A 0.38 0.36 -45.0 0 1 282.73 268.12
  L 378.23 356.22
  A 0.30 0.30 0.0 0 1 378.17 356.70
  Q 245.37 429.99 112.49 503.28
  Q 98.15 511.19 81.74 512.00
  Z"
/>
</svg>
