<?xml version="1.0" encoding="UTF-8" standalone="no"?>
<!DOCTYPE svg PUBLIC "-//W3C//DTD SVG 1.1//EN" "http://www.w3.org/Graphics/SVG/1.1/DTD/svg11.dtd">
<svg xmlns="http://www.w3.org/2000/svg" version="1.1" viewBox="0.00 0.00 512.00 512.00">
<g stroke-width="2.00" fill="none" stroke-linecap="butt">
<path stroke="#801038" vector-effect="non-scaling-stroke" d="
  M 99.05 276.37
  Q 93.63 283.25 85.22 289.18"
/>
<path stroke="#801038" vector-effect="non-scaling-stroke" d="
  M 237.49 428.56
  Q 243.98 423.31 249.11 416.93"
/>
<path stroke="#801038" vector-effect="non-scaling-stroke" d="
  M 429.41 308.85
  L 415.34 300.50"
/>
</g>
<path fill="#FFFFFF" d="
  M 99.05 276.37
  Q 93.63 283.25 85.22 289.18
  Q 85.83 288.01 85.44 287.81
  Q 78.59 284.32 71.80 280.88
  Q 71.55 280.75 71.46 281.02
  Q 67.74 291.81 63.92 302.59
  C 61.99 308.06 58.89 312.12 52.74 310.03
  Q 38.21 305.10 23.66 300.24
  Q 19.42 298.83 17.79 297.00
  C 12.55 291.15 18.82 281.81 26.25 284.27
  Q 38.24 288.25 50.16 292.27
  A 0.43 0.43 0.0 0 0 50.70 292.01
  L 97.00 159.76
  Q 97.12 159.40 96.77 159.25
  Q 59.22 143.42 21.50 127.51
  C 12.40 123.67 17.98 108.82 28.22 113.11
  Q 68.09 129.81 107.94 146.58
  Q 109.76 147.35 111.39 148.45
  C 117.27 152.46 114.65 156.79 113.18 162.10
  Q 113.05 162.58 113.54 162.67
  Q 137.78 167.45 162.01 172.24
  C 171.34 174.08 169.69 190.06 156.86 187.52
  Q 132.32 182.67 107.88 177.84
  A 0.30 0.30 0.0 0 0 107.54 178.04
  L 77.02 265.23
  A 0.32 0.32 0.0 0 0 77.18 265.63
  L 99.05 276.37
  Z"
/>
<path fill="#ff1f70" d="
  M 429.41 308.85
  L 415.34 300.50
  Q 417.82 292.28 417.90 283.74
  C 417.97 276.26 427.01 274.14 432.73 271.72
  A 0.38 0.37 -21.5 0 0 432.94 271.25
  L 400.34 178.13
  Q 400.14 177.54 399.53 177.71
  Q 384.88 181.82 370.26 185.75
  C 363.78 187.49 361.09 179.00 355.54 177.83
  Q 325.01 171.42 294.26 166.18
  Q 280.45 163.83 266.50 162.55
  C 264.69 162.38 262.41 162.49 260.59 163.40
  Q 247.14 170.11 232.93 179.43
  Q 209.72 194.66 194.22 205.44
  A 1.35 1.34 79.4 0 0 193.69 206.22
  C 189.79 222.76 183.31 238.66 177.83 254.73
  Q 177.69 255.16 178.04 255.46
  C 187.78 263.47 202.13 263.53 210.76 253.93
  C 216.54 247.51 220.01 235.77 222.60 227.12
  C 223.69 223.45 226.35 222.08 230.17 221.36
  Q 246.46 218.28 262.61 214.54
  Q 267.40 213.43 269.90 214.25
  C 275.13 215.97 276.73 224.11 272.41 227.65
  Q 270.71 229.03 266.26 230.07
  Q 251.56 233.50 236.81 236.39
  A 0.68 0.68 0.0 0 0 236.30 236.85
  Q 233.67 245.18 229.98 253.27
  C 218.73 277.97 189.03 285.01 167.91 267.86
  C 162.94 263.82 158.95 260.95 161.38 253.75
  Q 167.89 234.45 174.74 215.27
  Q 176.98 208.98 178.86 198.85
  C 179.23 196.84 180.87 195.28 182.70 194.01
  C 201.66 180.89 222.82 166.08 240.84 155.84
  C 248.99 151.21 255.83 146.75 263.75 146.90
  Q 273.16 147.09 282.48 148.42
  Q 321.60 154.00 360.13 162.78
  Q 363.78 163.61 363.84 163.63
  C 366.24 164.43 368.84 167.03 370.72 168.72
  A 0.80 0.80 0.0 0 0 371.46 168.90
  L 394.51 162.54
  A 0.34 0.33 72.5 0 0 394.73 162.10
  C 391.99 154.70 391.86 150.50 399.85 147.30
  Q 442.48 130.21 485.13 113.13
  C 494.30 109.46 500.68 123.99 490.42 128.12
  Q 450.83 144.04 411.33 159.89
  Q 410.91 160.06 411.06 160.48
  L 457.25 292.46
  A 0.22 0.22 0.0 0 0 457.53 292.59
  Q 470.82 287.59 484.13 282.54
  Q 487.64 281.21 489.50 281.24
  C 496.41 281.38 499.65 289.84 494.95 294.71
  Q 493.35 296.36 490.31 297.48
  Q 473.98 303.47 457.69 309.56
  C 450.88 312.10 446.91 311.02 444.48 304.15
  Q 441.49 295.71 438.55 287.25
  Q 438.35 286.67 437.78 286.91
  L 434.04 288.55
  Q 433.66 288.72 433.63 289.13
  Q 432.81 299.19 429.41 308.85
  Z"
/>
<path fill="#FFFFFF" d="
  M 415.34 300.50
  L 429.41 308.85
  C 443.09 322.55 443.46 343.76 427.67 355.89
  Q 415.27 365.42 400.70 360.93
  C 397.62 359.98 394.03 357.91 390.74 356.35
  Q 390.15 356.07 390.19 356.73
  Q 391.35 372.53 380.90 382.39
  Q 365.01 397.39 344.68 386.74
  Q 344.22 386.49 344.16 387.01
  Q 343.96 388.87 343.83 390.74
  C 342.51 409.69 324.41 420.50 306.52 416.38
  C 301.70 415.27 296.79 412.35 292.19 409.92
  Q 291.70 409.66 291.60 410.21
  Q 291.17 412.78 290.59 415.21
  C 286.30 433.44 267.60 441.05 250.46 435.37
  Q 245.96 433.88 237.49 428.56
  Q 243.98 423.31 249.11 416.93
  Q 254.03 419.57 255.73 420.25
  C 268.07 425.17 280.83 413.41 273.81 400.89
  Q 271.45 396.68 271.28 395.82
  C 270.32 391.03 274.67 386.34 279.44 386.32
  Q 281.62 386.32 285.25 388.22
  Q 295.93 393.80 306.59 399.40
  C 314.73 403.69 325.38 400.84 327.87 391.29
  Q 329.13 386.45 326.92 381.74
  Q 325.92 379.63 323.39 377.88
  Q 314.73 371.88 306.10 365.89
  Q 302.30 363.25 301.20 360.90
  C 297.96 353.99 305.74 347.16 312.44 350.83
  Q 332.01 361.53 351.58 372.20
  Q 356.40 374.83 359.47 374.96
  C 370.20 375.43 378.84 361.84 372.03 352.72
  Q 370.68 350.91 366.57 348.22
  Q 355.13 340.73 343.64 333.30
  Q 339.98 330.93 338.82 329.24
  C 334.42 322.75 341.90 314.25 348.76 317.66
  Q 375.64 330.97 402.48 344.33
  C 417.13 351.62 430.70 334.30 419.94 322.26
  C 417.95 320.02 414.67 318.43 411.89 316.89
  C 393.07 306.51 373.66 296.66 355.41 285.33
  Q 324.76 266.33 294.13 247.29
  Q 290.52 245.05 289.35 243.20
  C 285.70 237.45 291.06 230.02 297.72 231.37
  Q 299.27 231.69 301.87 233.30
  Q 331.77 251.78 361.59 270.38
  C 378.97 281.22 397.33 290.67 415.34 300.50
  Z"
/>
<path fill="#ff1f70" d="
  M 249.11 416.93
  Q 243.98 423.31 237.49 428.56
  Q 227.02 437.99 213.29 435.50
  Q 205.58 434.11 200.13 428.86
  C 195.08 424.00 189.86 419.21 187.95 411.46
  Q 187.50 409.64 186.98 407.82
  Q 186.84 407.32 186.35 407.49
  C 175.04 411.39 165.71 408.50 157.41 400.67
  C 151.23 394.85 146.57 389.47 145.52 380.70
  Q 145.46 380.15 144.93 380.33
  Q 130.21 385.49 118.81 376.45
  C 115.66 373.94 110.00 368.18 107.65 364.35
  Q 101.05 353.56 105.51 340.77
  Q 105.69 340.25 105.14 340.19
  C 95.90 339.10 90.83 334.63 84.31 327.94
  Q 73.20 316.54 77.26 301.25
  Q 79.23 293.82 85.22 289.18
  Q 93.63 283.25 99.05 276.37
  Q 106.87 271.35 116.51 272.45
  C 125.38 273.48 130.73 278.14 136.50 284.37
  C 141.91 290.22 144.67 295.92 144.75 303.83
  Q 144.76 304.33 145.25 304.23
  C 159.23 301.46 167.30 307.84 176.38 317.88
  Q 182.77 324.95 182.57 335.73
  Q 182.56 336.29 183.11 336.22
  C 196.99 334.28 204.40 340.94 213.13 350.62
  Q 219.13 357.28 218.89 368.01
  A 0.47 0.46 86.3 0 0 219.42 368.48
  C 229.40 367.09 237.11 370.20 243.98 377.09
  C 248.13 381.26 251.96 384.95 253.86 390.79
  Q 258.41 404.73 249.11 416.93
  Z
  M 120.7442 291.1223
  A 10.64 10.64 0.0 0 0 105.6975 290.9910
  L 95.4267 301.0841
  A 10.64 10.64 0.0 0 0 95.2954 316.1307
  L 100.2158 321.1377
  A 10.64 10.64 0.0 0 0 115.2625 321.2690
  L 125.5333 311.1759
  A 10.64 10.64 0.0 0 0 125.6646 296.1293
  L 120.7442 291.1223
  Z
  M 158.5838 322.4784
  A 10.61 10.61 0.0 0 0 143.5791 322.4261
  L 122.8738 342.9873
  A 10.61 10.61 0.0 0 0 122.8215 357.9920
  L 127.7962 363.0016
  A 10.61 10.61 0.0 0 0 142.8009 363.0539
  L 163.5062 342.4927
  A 10.61 10.61 0.0 0 0 163.5585 327.4880
  L 158.5838 322.4784
  Z
  M 194.9073 354.7143
  A 10.60 10.60 0.0 0 0 179.9167 354.6620
  L 164.4481 370.0230
  A 10.60 10.60 0.0 0 0 164.3957 385.0136
  L 169.4127 390.0657
  A 10.60 10.60 0.0 0 0 184.4033 390.1180
  L 199.8719 374.7570
  A 10.60 10.60 0.0 0 0 199.9243 359.7664
  L 194.9073 354.7143
  Z
  M 231.3658 387.0007
  A 10.66 10.66 0.0 0 0 216.2905 386.9218
  L 206.0834 397.0226
  A 10.66 10.66 0.0 0 0 206.0045 412.0979
  L 210.9142 417.0593
  A 10.66 10.66 0.0 0 0 225.9895 417.1382
  L 236.1966 407.0374
  A 10.66 10.66 0.0 0 0 236.2755 391.9621
  L 231.3658 387.0007
  Z"
/>
</svg>
