<svg xmlns="http://www.w3.org/2000/svg" version="1.1" viewBox="0.00 0.00 512.00 512.00">
<path fill="#FFFFFF" d="
  M 266.06 0.00
  L 271.81 0.00
  C 339.15 1.77 402.95 30.61 447.63 79.86
  Q 508.93 147.44 512.00 240.32
  L 512.00 246.04
  Q 510.16 256.00 500.00 256.00
  Q 385.75 256.00 271.50 255.99
  Q 264.42 255.99 261.72 254.61
  C 256.63 252.01 256.00 247.35 256.00 241.60
  Q 256.00 126.55 256.00 11.50
  Q 256.00 1.75 266.06 0.00
  Z
  M 370.32 47.03
  C 359.29 41.47 347.72 35.89 335.80 32.40
  C 328.50 30.26 320.86 27.87 313.82 26.37
  Q 295.93 22.54 277.69 21.65
  A 0.35 0.34 -88.5 0 0 277.33 22.00
  L 277.33 234.27
  A 0.44 0.44 0.0 0 0 277.77 234.71
  L 489.98 234.70
  A 0.39 0.39 0.0 0 0 490.37 234.29
  Q 489.45 216.60 485.88 199.37
  C 483.69 188.82 480.47 177.46 476.48 167.42
  C 474.08 161.37 471.87 155.30 468.92 149.48
  C 462.77 137.37 456.43 125.35 448.19 114.51
  Q 445.48 110.95 442.77 107.38
  C 438.02 101.13 432.89 95.64 427.61 89.93
  C 418.35 79.90 407.57 71.40 396.72 63.25
  C 388.66 57.19 379.31 51.56 370.32 47.03
  Z"
/>
<path fill="#FFFFFF" d="
  M 250.40 512.00
  L 240.20 512.00
  C 172.22 510.22 107.94 480.86 63.18 430.82
  Q 3.01 363.55 0.00 271.66
  L 0.00 260.97
  Q 1.14 214.64 17.65 171.55
  C 49.92 87.33 126.16 24.00 218.60 21.45
  C 230.47 21.12 234.67 24.16 234.68 36.02
  Q 234.68 149.38 234.68 262.60
  A 1.39 1.37 26.8 0 0 234.96 263.43
  Q 307.07 356.11 379.01 448.61
  Q 383.11 453.88 383.69 456.71
  C 384.78 462.01 382.00 465.26 377.82 468.65
  Q 363.59 480.21 349.55 488.54
  C 330.76 499.69 310.05 506.39 287.00 509.56
  Q 271.97 511.62 250.40 512.00
  Z
  M 68.83 123.06
  C 53.77 142.26 41.40 166.04 34.02 189.31
  Q 32.68 193.53 31.32 197.76
  C 27.15 210.73 24.98 224.36 23.21 237.85
  C 21.74 249.06 21.16 260.99 21.44 272.27
  C 24.45 392.83 122.89 489.36 243.25 490.65
  Q 261.69 490.85 281.49 488.70
  Q 309.55 485.65 333.93 472.61
  Q 346.70 465.78 358.12 457.06
  Q 358.41 456.84 358.19 456.55
  Q 287.50 365.67 216.83 274.80
  C 214.84 272.25 213.33 269.59 213.33 266.67
  Q 213.32 154.96 213.32 43.32
  A 0.30 0.29 88.2 0 0 213.01 43.02
  Q 185.33 44.72 159.45 54.35
  C 147.35 58.85 136.15 64.93 125.05 71.42
  C 113.87 77.95 103.89 86.48 94.22 94.98
  C 84.72 103.33 76.63 113.12 68.83 123.06
  Z"
/>
<path fill="#ff1f70" d="
  M 512.00 287.41
  L 512.00 292.75
  C 511.55 301.74 511.11 311.12 509.89 319.72
  Q 497.99 403.74 438.16 463.40
  C 433.01 468.54 428.10 472.64 421.50 468.76
  Q 419.33 467.48 415.93 463.28
  Q 347.64 378.80 279.40 294.29
  C 275.34 289.26 277.83 279.99 284.43 277.97
  Q 286.36 277.37 291.88 277.37
  Q 394.04 277.37 496.19 277.37
  C 504.68 277.37 510.45 278.37 512.00 287.41
  Z
  M 488.72 315.10
  Q 489.67 307.08 490.40 299.08
  A 0.38 0.38 0.0 0 0 490.02 298.66
  L 310.74 298.65
  A 0.20 0.20 0.0 0 0 310.58 298.98
  L 427.40 443.60
  A 0.26 0.26 0.0 0 0 427.80 443.61
  C 433.26 437.46 439.05 431.36 443.91 424.70
  Q 446.51 421.14 449.11 417.59
  C 462.15 399.74 472.72 378.46 479.48 357.49
  Q 486.16 336.75 488.72 315.10
  Z"
/>
</svg>
