<svg xmlns="http://www.w3.org/2000/svg" version="1.1" viewBox="0.00 0.00 512.00 512.00">
<path fill="#FFFFFF" d="
  M 142.60 0.00
  L 147.57 0.00
  C 152.66 0.44 158.19 0.58 162.80 1.16
  C 260.32 13.39 316.95 115.82 277.02 204.94
  C 260.80 241.13 229.25 269.64 191.69 282.32
  C 104.15 311.86 13.72 254.10 1.28 163.80
  C 0.59 158.76 0.44 152.93 0.00 147.45
  L 0.00 142.48
  C 0.43 137.37 0.60 131.84 1.18 127.21
  C 9.50 61.29 61.18 9.55 127.15 1.19
  C 131.83 0.59 137.43 0.42 142.60 0.00
  Z
  M 272.99 145.05
  A 127.91 127.91 0.0 0 0 145.08 17.14
  A 127.91 127.91 0.0 0 0 17.17 145.05
  A 127.91 127.91 0.0 0 0 145.08 272.96
  A 127.91 127.91 0.0 0 0 272.99 145.05
  Z"
/>
<path fill="#FFFFFF" d="
  M 255.90 145.05
  A 110.85 110.85 0.0 0 1 145.05 255.90
  A 110.85 110.85 0.0 0 1 34.20 145.05
  A 110.85 110.85 0.0 0 1 145.05 34.20
  A 110.85 110.85 0.0 0 1 255.90 145.05
  Z
  M 238.87 145.05
  A 93.80 93.80 0.0 0 0 145.07 51.25
  A 93.80 93.80 0.0 0 0 51.27 145.05
  A 93.80 93.80 0.0 0 0 145.07 238.85
  A 93.80 93.80 0.0 0 0 238.87 145.05
  Z"
/>
<path fill="#ff1f70" d="
  M 328.53 85.33
  Q 346.39 85.47 364.26 85.34
  C 393.40 85.13 420.13 96.77 438.69 118.92
  Q 460.27 144.68 460.59 179.75
  Q 460.78 200.49 460.79 221.23
  Q 460.79 221.79 460.23 221.79
  L 444.29 221.90
  Q 443.75 221.91 443.75 221.37
  Q 443.73 200.51 443.72 179.76
  C 443.70 136.88 409.67 102.70 367.00 102.46
  Q 347.79 102.35 328.53 102.38
  A 0.32 0.32 0.0 0 0 328.30 102.92
  L 348.95 123.58
  Q 349.39 124.02 348.95 124.47
  L 337.73 135.69
  A 0.49 0.48 -44.6 0 1 337.04 135.69
  L 295.39 94.09
  A 0.33 0.33 0.0 0 1 295.39 93.62
  L 337.01 52.00
  Q 337.38 51.63 337.75 52.00
  L 349.09 63.34
  A 0.48 0.48 0.0 0 1 349.09 64.02
  L 328.32 84.81
  Q 327.81 85.32 328.53 85.33
  Z"
/>
<path fill="#ff1f70" d="
  M 154.00 86.10
  Q 156.74 86.86 159.46 87.60
  C 174.32 91.61 187.71 103.68 187.64 119.49
  C 187.60 128.59 175.13 131.05 171.41 122.77
  Q 170.89 121.61 170.48 118.41
  C 168.83 105.43 151.16 101.47 140.50 102.76
  C 133.04 103.66 124.59 107.23 120.98 113.96
  C 116.92 121.56 121.82 128.23 128.46 132.33
  C 137.24 137.75 147.81 135.85 157.42 138.09
  C 171.91 141.47 186.36 152.72 187.50 168.73
  C 188.67 185.06 175.55 197.73 160.76 202.28
  Q 158.49 202.98 153.98 203.97
  Q 153.54 204.07 153.54 204.52
  L 153.54 221.29
  Q 153.54 221.88 152.96 221.88
  L 137.07 221.88
  Q 136.52 221.88 136.52 221.32
  L 136.53 204.73
  A 0.93 0.92 4.8 0 0 135.75 203.82
  C 119.09 201.07 102.28 188.34 102.45 170.27
  C 102.53 161.59 115.16 159.28 118.70 167.30
  C 119.78 169.75 119.38 173.53 121.11 176.38
  C 128.43 188.49 146.64 189.79 158.39 185.14
  C 171.96 179.77 175.44 166.45 161.88 157.92
  C 152.70 152.15 141.49 154.47 131.45 151.71
  C 114.71 147.12 98.89 132.35 103.15 113.38
  C 106.51 98.46 121.49 88.67 135.92 86.25
  A 0.72 0.72 0.0 0 0 136.52 85.54
  L 136.52 68.75
  Q 136.52 68.28 137.00 68.28
  L 153.04 68.28
  Q 153.54 68.28 153.54 68.78
  L 153.54 85.49
  Q 153.54 85.97 154.00 86.10
  Z"
/>
<path fill="#FFFFFF" d="
  M 512.00 364.53
  L 512.00 369.52
  C 511.56 374.63 511.42 380.16 510.83 384.79
  C 502.46 450.62 450.91 502.49 384.85 510.82
  C 380.15 511.41 374.55 511.58 369.38 512.00
  L 364.39 512.00
  C 359.32 511.57 353.80 511.41 349.22 510.84
  C 309.05 505.82 272.70 484.36 249.13 451.38
  C 194.13 374.39 225.99 267.24 313.88 232.03
  C 347.15 218.70 385.75 218.65 419.11 231.74
  C 468.98 251.31 504.06 295.80 510.83 349.17
  C 511.42 353.84 511.57 359.40 512.00 364.53
  Z
  M 494.83 366.92
  A 127.91 127.91 0.0 0 0 366.92 239.01
  A 127.91 127.91 0.0 0 0 239.01 366.92
  A 127.91 127.91 0.0 0 0 366.92 494.83
  A 127.91 127.91 0.0 0 0 494.83 366.92
  Z"
/>
<path fill="#FFFFFF" d="
  M 477.77 366.95
  A 110.85 110.85 0.0 0 1 366.92 477.80
  A 110.85 110.85 0.0 0 1 256.07 366.95
  A 110.85 110.85 0.0 0 1 366.92 256.10
  A 110.85 110.85 0.0 0 1 477.77 366.95
  Z
  M 460.73 366.93
  A 93.80 93.80 0.0 0 0 366.93 273.13
  A 93.80 93.80 0.0 0 0 273.13 366.93
  A 93.80 93.80 0.0 0 0 366.93 460.73
  A 93.80 93.80 0.0 0 0 460.73 366.93
  Z"
/>
<path fill="#ff1f70" d="
  M 174.97 426.70
  Q 161.36 426.52 147.75 426.63
  Q 107.63 426.95 79.97 400.30
  Q 55.98 377.19 51.98 343.96
  Q 51.23 337.76 51.22 324.01
  Q 51.22 307.34 51.23 290.67
  Q 51.23 290.13 51.78 290.13
  L 67.72 290.18
  Q 68.24 290.18 68.24 290.70
  Q 68.29 311.75 68.24 332.75
  C 68.19 356.47 79.48 379.10 98.27 393.59
  Q 118.69 409.33 145.76 409.52
  Q 160.51 409.62 175.12 409.64
  Q 175.74 409.64 175.30 409.20
  L 154.41 388.30
  Q 154.06 387.96 154.41 387.61
  L 165.66 376.34
  Q 166.07 375.92 166.49 376.34
  L 208.09 417.93
  A 0.28 0.28 0.0 0 1 208.09 418.33
  L 166.43 459.99
  Q 166.08 460.33 165.74 459.99
  L 154.34 448.60
  A 0.41 0.40 -45.5 0 1 154.34 448.03
  L 175.17 427.19
  Q 175.65 426.71 174.97 426.70
  Z"
/>
<path fill="#ff1f70" d="
  M 341.47 306.76
  L 341.52 290.65
  Q 341.52 290.07 342.10 290.08
  L 358.01 290.24
  Q 358.54 290.24 358.53 290.76
  L 358.48 306.98
  A 0.25 0.25 0.0 0 0 358.73 307.23
  L 366.50 307.23
  Q 366.98 307.23 366.98 306.75
  L 366.98 290.71
  Q 366.98 290.14 367.55 290.14
  L 383.44 290.13
  Q 384.00 290.12 384.00 290.69
  L 384.00 306.74
  Q 384.00 307.21 384.48 307.21
  Q 388.69 307.23 392.74 307.33
  C 407.34 307.67 418.09 318.97 418.09 333.50
  C 418.09 345.10 419.98 357.05 411.69 366.51
  A 0.64 0.63 -45.4 0 0 411.69 367.34
  C 420.02 376.86 418.09 388.86 418.09 400.50
  C 418.09 415.59 406.29 426.91 391.25 426.64
  Q 387.92 426.58 384.58 426.65
  Q 384.00 426.66 384.00 427.24
  L 384.00 443.24
  A 0.49 0.49 0.0 0 1 383.51 443.73
  L 367.48 443.73
  Q 366.98 443.73 366.98 443.23
  L 366.98 426.96
  Q 366.98 426.62 366.63 426.62
  L 358.81 426.63
  Q 358.48 426.64 358.48 426.97
  L 358.53 443.06
  Q 358.53 443.66 357.94 443.67
  L 342.03 443.78
  Q 341.52 443.79 341.52 443.28
  L 341.47 427.17
  Q 341.46 426.63 340.92 426.63
  L 316.19 426.63
  Q 315.74 426.63 315.74 426.19
  L 315.74 410.07
  A 0.45 0.45 0.0 0 1 316.19 409.62
  L 332.22 409.62
  Q 332.81 409.62 332.81 409.03
  L 332.81 324.78
  Q 332.81 324.26 332.28 324.26
  L 316.25 324.26
  Q 315.74 324.26 315.74 323.75
  L 315.74 307.74
  Q 315.74 307.23 316.26 307.23
  L 340.99 307.23
  Q 341.46 307.23 341.47 306.76
  Z
  M 349.87 324.53
  L 349.87 358.17
  A 0.31 0.31 0.0 0 0 350.18 358.48
  L 391.53 358.48
  A 9.58 9.05 -0.0 0 0 401.11 349.43
  L 401.11 333.27
  A 9.58 9.05 0.0 0 0 391.53 324.22
  L 350.18 324.22
  A 0.31 0.31 0.0 0 0 349.87 324.53
  Z
  M 349.90 375.72
  L 349.84 409.30
  A 0.28 0.28 0.0 0 0 350.12 409.58
  L 392.18 409.65
  A 8.92 8.86 -89.9 0 0 401.06 400.74
  L 401.08 384.44
  A 8.92 8.86 -89.9 0 0 392.24 375.51
  L 350.18 375.44
  A 0.28 0.28 0.0 0 0 349.90 375.72
  Z"
/>
</svg>
