<?xml version="1.0" encoding="UTF-8" standalone="no"?>
<!DOCTYPE svg PUBLIC "-//W3C//DTD SVG 1.1//EN" "http://www.w3.org/Graphics/SVG/1.1/DTD/svg11.dtd">
<svg xmlns="http://www.w3.org/2000/svg" version="1.1" viewBox="0.00 0.00 512.00 512.00">
<path fill="#FFFFFF" d="
  M 431.49 159.00
  C 412.73 174.56 387.71 183.00 364.00 187.30
  Q 310.70 196.97 257.51 186.75
  C 234.69 182.37 210.79 174.03 192.60 159.11
  A 0.37 0.37 0.0 0 0 191.99 159.41
  C 192.07 164.57 193.41 171.54 188.02 174.75
  C 182.56 177.99 176.21 174.34 176.16 168.00
  Q 176.03 150.78 176.01 133.56
  Q 175.99 123.79 177.30 119.03
  C 186.03 87.29 236.43 72.47 264.76 67.86
  Q 312.00 60.15 359.25 67.78
  C 388.68 72.53 448.10 89.99 448.07 129.00
  Q 448.00 230.60 448.00 332.20
  Q 448.00 340.55 446.67 345.17
  C 442.26 360.42 428.17 371.71 414.66 378.66
  C 390.61 391.05 363.32 397.04 336.49 399.18
  C 327.24 399.92 323.94 387.53 332.22 383.94
  Q 333.65 383.32 337.35 383.01
  Q 364.88 380.73 390.96 371.62
  C 404.40 366.92 425.72 356.68 430.88 342.17
  Q 432.00 339.02 432.00 333.20
  Q 432.01 298.72 432.00 264.13
  A 0.34 0.34 0.0 0 0 431.44 263.87
  C 419.44 273.90 404.30 280.77 389.49 285.43
  Q 365.97 292.83 341.50 295.95
  C 331.06 297.29 328.25 282.18 338.73 280.34
  C 358.53 276.87 376.90 273.32 395.68 265.87
  C 407.72 261.09 426.36 251.36 430.97 238.28
  Q 431.99 235.37 431.99 230.11
  Q 432.01 194.79 432.00 159.24
  A 0.31 0.31 0.0 0 0 431.49 159.00
  Z
  M 194.03 119.77
  C 183.24 141.74 218.52 158.40 233.51 163.67
  C 270.09 176.55 311.71 178.60 349.99 173.38
  C 371.08 170.50 392.00 164.85 410.64 154.38
  C 421.84 148.10 436.07 135.67 430.85 121.82
  C 425.25 106.99 403.73 97.00 389.91 92.14
  Q 370.09 85.18 349.27 82.40
  Q 300.20 75.85 252.05 86.94
  C 233.94 91.11 202.95 101.63 194.03 119.77
  Z"
/>
<path fill="#ff1f70" d="
  M 319.96 327.99
  A 135.97 135.97 0.0 0 1 183.99 463.96
  A 135.97 135.97 0.0 0 1 48.02 327.99
  A 135.97 135.97 0.0 0 1 183.99 192.02
  A 135.97 135.97 0.0 0 1 319.96 327.99
  Z
  M 304.01 328.00
  A 120.01 120.01 0.0 0 0 184.00 207.99
  A 120.01 120.01 0.0 0 0 63.99 328.00
  A 120.01 120.01 0.0 0 0 184.00 448.01
  A 120.01 120.01 0.0 0 0 304.01 328.00
  Z"
/>
<path fill="#ff1f70" d="
  M 111.95 291.75
  C 111.94 288.28 113.69 285.13 116.71 283.41
  Q 148.28 265.41 179.78 247.30
  C 183.69 245.05 186.36 246.15 190.30 248.42
  Q 220.91 266.04 251.51 283.68
  C 255.29 285.85 255.98 288.77 255.99 293.23
  Q 256.02 329.36 255.98 365.50
  C 255.98 368.89 253.43 371.15 250.39 372.91
  Q 219.44 390.82 188.46 408.69
  C 185.08 410.63 182.35 410.25 178.88 408.25
  Q 147.28 390.04 115.73 371.78
  C 112.63 369.98 112.02 366.75 112.01 363.07
  Q 111.98 327.41 111.95 291.75
  Z
  M 135.27 291.37
  A 0.35 0.35 0.0 0 0 135.27 291.97
  L 183.87 319.92
  A 0.35 0.35 0.0 0 0 184.21 319.92
  L 232.78 291.95
  A 0.35 0.35 0.0 0 0 232.79 291.35
  L 184.25 263.27
  A 0.35 0.35 0.0 0 0 183.89 263.27
  L 135.27 291.37
  Z
  M 128.50 306.53
  A 0.33 0.33 0.0 0 0 128.01 306.81
  L 127.98 360.05
  A 0.33 0.33 0.0 0 0 128.14 360.34
  L 175.50 387.70
  A 0.33 0.33 0.0 0 0 176.00 387.42
  L 176.00 334.15
  A 0.33 0.33 0.0 0 0 175.84 333.86
  L 128.50 306.53
  Z
  M 192.16 333.91
  A 0.33 0.33 0.0 0 0 192.00 334.20
  L 192.00 387.48
  A 0.33 0.33 0.0 0 0 192.50 387.76
  L 239.84 360.37
  A 0.33 0.33 0.0 0 0 240.00 360.08
  L 240.00 306.85
  A 0.33 0.33 0.0 0 0 239.50 306.57
  L 192.16 333.91
  Z"
/>
</svg>
