<svg xmlns="http://www.w3.org/2000/svg" version="1.1" viewBox="0.00 0.00 512.00 512.00">
<path fill="#FFFFFF" d="
  M 293.75 72.09
  A 0.21 0.21 0.0 0 0 293.64 72.45
  Q 305.60 84.73 317.52 96.96
  Q 322.24 101.80 323.56 105.16
  C 327.04 113.97 322.64 119.47 316.13 125.96
  Q 205.45 236.32 94.82 346.72
  Q 91.76 349.78 89.71 350.57
  C 83.34 353.00 77.05 346.56 79.62 340.19
  Q 80.24 338.66 82.30 336.60
  Q 102.93 315.95 123.59 295.36
  Q 124.11 294.85 123.39 294.69
  C 53.62 279.65 10.44 209.94 27.82 140.75
  C 39.26 95.19 76.09 59.45 121.74 48.78
  C 190.89 32.62 258.71 76.13 273.93 144.97
  A 0.22 0.21 61.2 0 0 274.29 145.08
  L 308.34 111.08
  A 0.42 0.41 -45.5 0 0 308.34 110.49
  Q 296.51 98.68 284.62 86.83
  Q 279.00 81.22 277.61 77.75
  C 274.82 70.79 278.13 61.37 285.29 57.96
  Q 287.34 56.98 292.37 56.12
  Q 383.81 40.45 475.23 24.66
  Q 480.62 23.73 483.21 24.74
  C 488.63 26.83 488.20 31.93 487.12 37.07
  Q 468.76 124.63 450.44 212.20
  Q 448.85 219.82 446.72 222.80
  C 441.31 230.37 429.86 231.32 422.95 224.55
  Q 409.16 211.05 395.59 197.53
  A 0.46 0.46 0.0 0 0 394.93 197.53
  Q 345.64 246.75 296.26 295.99
  C 289.35 302.89 277.67 292.19 285.30 284.56
  Q 333.49 236.38 381.73 188.25
  C 387.59 182.40 393.24 179.23 401.10 182.33
  Q 404.40 183.63 409.09 188.29
  Q 421.44 200.55 433.68 212.82
  A 0.28 0.28 0.0 0 0 434.15 212.68
  L 469.76 42.22
  A 0.25 0.25 0.0 0 0 469.47 41.92
  L 293.75 72.09
  Z
  M 61.59 237.17
  C 79.88 261.57 107.24 277.45 137.57 280.88
  Q 138.04 280.94 138.37 280.60
  L 259.72 159.64
  A 1.19 1.18 -26.2 0 0 260.06 158.66
  Q 256.15 128.66 238.70 105.37
  C 205.07 60.50 142.32 48.41 94.17 76.90
  C 38.19 110.02 22.56 185.09 61.59 237.17
  Z"
/>
<path fill="#FFFFFF" d="
  M 138.71 220.93
  Q 132.64 220.67 128.25 220.87
  C 116.74 221.39 116.14 205.12 127.37 205.00
  Q 142.31 204.85 157.25 204.88
  C 162.86 204.89 167.75 201.94 170.67 197.11
  C 175.40 189.26 171.69 177.94 162.50 174.87
  Q 159.98 174.03 154.93 174.01
  C 149.48 173.99 143.24 174.35 138.38 173.45
  C 119.71 169.99 107.93 150.90 114.35 132.49
  C 118.39 120.90 126.78 114.78 138.82 111.87
  Q 139.36 111.74 139.36 111.18
  C 139.35 107.02 138.60 100.05 139.94 96.38
  C 142.26 90.02 151.10 89.43 154.34 95.38
  C 156.20 98.81 155.37 106.69 155.34 110.67
  Q 155.33 111.19 155.85 111.20
  Q 167.76 111.40 171.24 111.26
  C 174.60 111.14 177.35 111.29 179.81 113.63
  C 183.45 117.10 182.61 123.82 178.18 126.20
  Q 176.28 127.22 172.14 127.24
  Q 161.24 127.30 150.34 127.24
  Q 141.36 127.20 137.83 128.67
  C 125.20 133.93 125.75 151.93 138.25 156.93
  Q 141.37 158.18 147.40 158.11
  C 158.29 158.00 167.10 157.81 175.39 163.78
  C 188.89 173.50 192.81 191.33 184.17 205.69
  Q 175.21 220.56 155.85 220.98
  Q 155.32 220.99 155.31 221.52
  Q 155.16 226.72 155.35 232.00
  C 155.57 237.94 150.58 242.19 144.74 240.54
  C 137.36 238.44 139.28 227.27 139.26 221.51
  Q 139.26 220.96 138.71 220.93
  Z"
/>
<rect fill="#ff1f70" x="-41.61" y="-8.02" transform="translate(191.78,318.78) rotate(-45.0)" width="83.22" height="16.04" rx="7.90"/>
<rect fill="#FFFFFF" x="-73.03" y="-7.99" transform="translate(224.34,356.41) rotate(-44.9)" width="146.06" height="15.98" rx="7.91"/>
<path fill="#FFFFFF" d="
  M 371.49 330.73
  A 0.29 0.29 0.0 0 0 371.32 331.23
  C 379.02 338.57 382.75 344.42 373.96 353.21
  Q 357.14 370.03 340.35 386.85
  C 335.97 391.23 328.52 389.79 326.72 383.76
  C 325.57 379.87 327.22 377.37 330.09 374.50
  Q 345.47 359.15 360.76 343.88
  A 0.41 0.41 0.0 0 0 360.76 343.30
  Q 356.69 339.30 352.69 335.31
  C 347.70 330.33 347.59 321.38 354.04 317.67
  Q 356.00 316.54 360.67 315.95
  Q 392.87 311.89 425.05 307.79
  Q 431.40 306.97 433.92 307.82
  Q 439.39 309.64 438.72 317.01
  Q 435.53 352.07 432.43 387.16
  Q 432.01 391.96 430.80 394.12
  C 427.10 400.73 417.81 400.30 412.95 395.28
  Q 409.13 391.34 405.13 387.53
  Q 404.75 387.16 404.37 387.53
  Q 365.38 426.47 326.39 465.39
  C 318.21 473.56 306.89 462.44 314.53 454.78
  Q 355.46 413.71 396.52 372.77
  C 404.06 365.25 411.09 370.49 416.83 376.60
  A 0.30 0.29 26.3 0 0 417.34 376.43
  L 421.96 324.70
  A 0.31 0.30 -0.1 0 0 421.62 324.37
  L 371.49 330.73
  Z"
/>
<rect fill="#ff1f70" x="-86.56" y="-8.02" transform="translate(86.57,423.99) rotate(-45.0)" width="173.12" height="16.04" rx="7.95"/>
<rect fill="#FFFFFF" x="-27.33" y="-7.97" transform="translate(307.24,408.48) rotate(-44.9)" width="54.66" height="15.94" rx="7.80"/>
<rect fill="#ff1f70" x="-6.97" y="-17.85" transform="translate(330.72,416.29) rotate(45.0)" width="13.94" height="35.70" rx="6.77"/>
<rect fill="#FFFFFF" x="-45.14" y="-7.98" transform="translate(126.72,453.76) rotate(-44.9)" width="90.28" height="15.96" rx="7.86"/>
<rect fill="#FFFFFF" x="-19.08" y="-7.95" transform="translate(273.00,442.60) rotate(-44.8)" width="38.16" height="15.90" rx="7.71"/>
<rect fill="#ff1f70" x="-6.98" y="-30.70" transform="translate(284.80,462.22) rotate(45.0)" width="13.96" height="61.40" rx="6.86"/>
</svg>
