<svg width="281" height="57" viewBox="0 0 281 57" fill="none" xmlns="http://www.w3.org/2000/svg">
<path d="M77.7651 5.05859H106.739C107.03 6.46337 107.175 7.89372 107.172 9.32749C107.179 10.8107 107.034 12.2909 106.739 13.7453H88.131V25.5791H102.905C103.188 27.0117 103.333 28.4677 103.337 29.9274C103.341 31.4072 103.196 32.8836 102.905 34.3353H88.131V55.4216C84.6999 55.9918 81.1962 55.9918 77.7651 55.4216V5.05859Z" fill="#F6921A"/>
<path d="M111.039 26.6625H106.287C106.14 26.0252 106.033 25.3796 105.966 24.7293C105.899 24.087 105.865 23.4418 105.865 22.7961C105.864 21.542 106.006 20.2919 106.287 19.0692H120.895V55.4212C119.256 55.7033 117.596 55.8467 115.932 55.8497C114.292 55.8444 112.655 55.7011 111.039 55.4212V26.6625ZM109.552 12.9508C109.274 11.3948 109.133 9.81769 109.13 8.2374C109.137 6.6606 109.279 5.08721 109.552 3.53397C110.407 3.38166 111.269 3.27521 112.135 3.21508C113.059 3.14533 113.903 3.10547 114.656 3.10547C115.41 3.10547 116.334 3.10547 117.279 3.21508C118.158 3.27353 119.033 3.37999 119.901 3.53397C120.043 4.31145 120.137 5.09682 120.182 5.88568C120.182 6.66294 120.252 7.44021 120.252 8.2374C120.252 9.03459 120.252 9.76201 120.182 10.5592C120.138 11.3614 120.044 12.1601 119.901 12.9508C119.047 13.0989 118.185 13.1921 117.319 13.2298C116.394 13.2298 115.53 13.2995 114.727 13.2995C113.923 13.2995 113.119 13.2996 112.175 13.2298C111.295 13.1936 110.419 13.1004 109.552 12.9508Z" fill="#F6921A"/>
<path d="M126.777 18.9524C127.431 18.8111 128.092 18.7043 128.757 18.6325C129.478 18.5611 130.201 18.5277 130.926 18.5325C131.627 18.5265 132.327 18.5599 133.025 18.6325C133.629 18.7025 134.252 18.8124 134.906 18.9524C135.075 19.2683 135.205 19.6041 135.292 19.9521C135.411 20.402 135.51 20.8719 135.609 21.3717C135.708 21.8716 135.777 22.3714 135.846 22.8113L136.025 24.011C136.526 23.2612 137.086 22.5526 137.698 21.8916C138.378 21.1676 139.143 20.5298 139.975 19.9921C140.88 19.4098 141.855 18.9462 142.876 18.6125C144.026 18.2489 145.226 18.0701 146.431 18.0827C150.53 18.0827 153.616 19.2123 155.689 21.4717C157.761 23.7311 158.798 27.2834 158.798 32.1287V55.4022C155.522 55.9731 152.173 55.9731 148.896 55.4022V34.808C149.009 32.7886 148.614 30.7734 147.748 28.9496C147.33 28.2703 146.732 27.7229 146.021 27.3695C145.311 27.0161 144.516 26.8708 143.728 26.9502C142.901 26.9516 142.077 27.0694 141.282 27.3001C140.42 27.5475 139.638 28.0199 139.015 28.6697C138.265 29.4812 137.704 30.4511 137.371 31.5089C136.909 33.0642 136.699 34.6845 136.747 36.3075V55.4222C133.471 55.9919 130.122 55.9919 126.846 55.4222L126.777 18.9524Z" fill="#F6921A"/>
<path d="M164.738 19.0153C165.251 18.9244 165.724 18.8536 166.197 18.8031C166.67 18.7526 167.182 18.7324 167.655 18.7324C168.128 18.7324 168.641 18.7324 169.183 18.8031C169.653 18.8474 170.12 18.9182 170.582 19.0153C170.72 19.7359 170.858 20.6754 170.996 21.8339C171.122 22.8155 171.191 23.8039 171.203 24.7939C172.205 23.1435 173.519 21.7147 175.066 20.5913C176.876 19.3345 179.032 18.7076 181.216 18.8031C181.59 18.8031 181.975 18.8031 182.369 18.8031C182.763 18.8031 183.098 18.8638 183.354 18.9042C183.45 19.3506 183.519 19.8027 183.561 20.2579C183.61 20.758 183.633 21.2605 183.63 21.7631C183.63 22.3573 183.597 22.9509 183.532 23.5412C183.463 24.1574 183.374 24.7535 183.285 25.3192C182.911 25.2264 182.527 25.179 182.142 25.1778H181.157C179.945 25.1734 178.739 25.3539 177.579 25.7132C176.426 26.0861 175.376 26.7335 174.514 27.6023C173.531 28.6536 172.796 29.922 172.366 31.3099C171.773 33.271 171.504 35.3195 171.568 37.3714V55.5557C171.004 55.6615 170.435 55.7357 169.863 55.778C169.232 55.778 168.661 55.8487 168.158 55.8487C167.655 55.8487 167.074 55.8487 166.453 55.778C165.832 55.7073 165.231 55.6568 164.679 55.5557L164.738 19.0153Z" fill="black"/>
<path d="M199.972 56.4955C197.409 56.5521 194.864 56.063 192.509 55.0614C190.448 54.1499 188.623 52.7879 187.172 51.078C185.714 49.3221 184.637 47.2881 184.009 45.1028C182.632 40.2166 182.632 35.0511 184.009 30.1649C184.635 27.9787 185.712 25.9443 187.172 24.1897C188.631 22.4875 190.454 21.1269 192.509 20.2063C194.874 19.2333 197.411 18.7324 199.972 18.7324C202.534 18.7324 205.07 19.2333 207.435 20.2063C209.486 21.1296 211.306 22.4899 212.763 24.1897C214.223 25.9443 215.299 27.9787 215.925 30.1649C217.302 35.0511 217.302 40.2166 215.925 45.1028C215.297 47.2881 214.221 49.3221 212.763 51.078C211.313 52.7854 209.492 54.1471 207.435 55.0614C205.08 56.0612 202.535 56.5502 199.972 56.4955ZM199.972 50.9485C203.235 50.9485 205.649 49.7767 207.214 47.4331C208.778 45.0895 209.56 41.8331 209.56 37.6637C209.56 33.4878 208.778 30.2446 207.214 27.9342C205.649 25.6238 203.235 24.4619 199.972 24.4487C196.702 24.4487 194.295 25.6105 192.751 27.9342C191.207 30.2579 190.438 33.501 190.445 37.6637C190.445 41.8331 191.214 45.0895 192.751 47.4331C194.289 49.7767 196.696 50.9485 199.972 50.9485Z" fill="black"/>
<path d="M246.153 49.4266C246.59 50.2046 246.93 51.0315 247.166 51.8894C247.453 52.8635 247.623 53.8675 247.672 54.8806C244.584 56.0049 241.311 56.5526 238.019 56.4959C231.941 56.4959 227.342 54.7975 224.222 51.4008C221.103 48.0041 219.553 43.4176 219.573 37.6412C219.553 35.1113 219.939 32.5942 220.718 30.1831C221.421 27.9815 222.576 25.9453 224.111 24.2007C225.668 22.489 227.582 21.1285 229.723 20.2124C232.187 19.1832 234.846 18.6802 237.523 18.7367C239.292 18.7179 241.059 18.8346 242.81 19.0857C244.298 19.3125 245.757 19.6901 247.166 20.2124C247.154 21.1481 247.045 22.0801 246.842 22.9942C246.66 23.9504 246.361 24.8812 245.95 25.7661C243.369 24.9299 240.665 24.5255 237.948 24.5696C234.281 24.5696 231.539 25.7661 229.723 28.159C227.906 30.552 227.001 33.7194 227.008 37.6611C227.008 42.1679 228.021 45.4616 230.047 47.5421C231.153 48.6127 232.474 49.4441 233.925 49.9832C235.376 50.5223 236.926 50.7573 238.475 50.673C239.804 50.6822 241.131 50.5889 242.445 50.3938C243.714 50.2064 244.957 49.882 246.153 49.4266Z" fill="black"/>
<path d="M250.939 4.0348C251.511 3.92906 252.088 3.8592 252.668 3.8256C253.307 3.77579 253.877 3.75586 254.396 3.75586C254.916 3.75586 255.505 3.75587 256.164 3.8256C256.754 3.85747 257.342 3.92735 257.923 4.0348V55.56C257.341 55.6662 256.754 55.7393 256.164 55.7791C255.505 55.7791 254.916 55.8489 254.396 55.8489C253.877 55.8489 253.307 55.8489 252.668 55.7791C252.088 55.7375 251.511 55.6643 250.939 55.56V4.0348ZM259.831 36.9105L271.349 19.4963C271.955 19.4034 272.565 19.3336 273.178 19.2871C273.787 19.2871 274.426 19.2174 275.086 19.2174C275.745 19.2174 276.464 19.2174 277.084 19.2871C277.703 19.3569 278.362 19.4067 279.022 19.4963L267.533 36.3725L281 55.56C280.341 55.6596 279.701 55.7293 279.092 55.7791C278.482 55.8289 277.843 55.8489 277.194 55.8489C276.544 55.8489 275.875 55.8489 275.196 55.7791C274.516 55.7094 273.877 55.6596 273.198 55.56L259.831 36.9105Z" fill="black"/>
<path d="M21.5649 56.499L46.6267 16.127C46.7075 16.2039 46.7819 16.2872 46.8492 16.376C48.6427 19.2588 50.426 22.1416 52.1993 25.0244C52.2516 25.1227 52.2789 25.2321 52.2789 25.3432C52.2789 25.4542 52.2516 25.5636 52.1993 25.662C49.3169 30.3449 46.4143 35.0078 43.4611 39.7703C42.4497 38.226 41.5597 36.7813 40.5787 35.1473L39.0616 37.5684C35.5016 43.2742 31.9483 48.9866 28.4018 54.7056C28.1085 55.1839 27.8354 55.702 27.5118 56.1404C27.4582 56.2131 27.3903 56.2744 27.3121 56.3206C27.2339 56.3668 27.147 56.397 27.0567 56.4094C25.2767 56.4991 23.4967 56.499 21.5649 56.499Z" fill="black"/>
<path d="M0 56.384L34.1553 0.5L37.5809 6.10539C38.9471 8.35354 40.3334 10.6017 41.6896 12.8598C41.7607 12.9829 41.8047 13.1196 41.8185 13.2609C41.8324 13.4022 41.8158 13.5447 41.7699 13.6792C37.8521 20.1438 33.6028 26.3188 29.6548 32.7734C29.6548 32.7734 29.6548 32.7735 29.5042 32.9033C28.2283 30.8151 27.2539 29.0465 25.9279 26.9083L25.3251 27.9075C19.6393 37.2331 13.9467 46.5588 8.2475 55.8844C8.14175 56.0877 7.97689 56.2546 7.77441 56.3633C7.57193 56.472 7.34121 56.5175 7.11234 56.4939C4.80183 56.364 2.48128 56.384 0 56.384Z" fill="black"/>
<path d="M55.8087 31.7559C57.6648 34.7479 59.4503 37.6701 61.2661 40.5525C61.3712 40.698 61.4277 40.8723 61.4277 41.0511C61.4277 41.23 61.3712 41.4043 61.2661 41.5498C58.4617 46.0445 55.6675 50.5525 52.8834 55.0738C52.8228 55.1736 52.7421 55.2733 52.6413 55.4229L49.7764 50.8152C48.9896 52.1017 48.233 53.3185 47.4765 54.5353C47.1234 55.1038 46.7804 55.6822 46.4072 56.2308C46.3526 56.3047 46.2833 56.3667 46.2035 56.413C46.1236 56.4593 46.035 56.489 45.9432 56.5C44.2283 56.5 42.5033 56.5 40.7885 56.5C40.696 56.4883 40.6049 56.4683 40.5161 56.4402L55.8087 31.7559Z" fill="black"/>
</svg>
