<svg width="266" height="99" viewBox="0 0 266 99" fill="none" xmlns="http://www.w3.org/2000/svg">
<g clip-path="url(#clip0_311_1154)">
<path d="M0 54.2934L5.3369 44.9795C8.31667 47.7055 14.7209 50.4769 19.4352 50.4769C23.26 50.4769 24.8166 49.3865 24.8166 47.6146C24.8166 42.5261 1.46765 47.7964 1.46765 31.1676C1.46765 23.9437 7.60508 17.6738 18.6791 17.6738C25.4837 17.6738 31.1319 19.9001 35.4459 23.1259L30.5538 32.3943C28.1521 30.0318 23.5713 27.8964 18.7681 27.8964C15.7883 27.8964 13.787 29.0777 13.787 30.7133C13.787 35.2112 37.047 30.5316 37.047 47.342C37.047 55.1566 30.3314 60.745 18.857 60.745C11.6078 60.6541 4.22505 58.2007 0 54.2934Z" fill="black"/>
<path d="M38.1143 7.45112C38.1143 3.31666 41.3609 0 45.408 0C49.4552 0 52.7907 3.31666 52.7907 7.45112C52.7907 11.5856 49.4996 14.9931 45.408 14.9931C41.3609 14.9931 38.1143 11.631 38.1143 7.45112Z" fill="#E40046"/>
<path d="M51.8569 18.6738H39.0483V59.655H51.8569V18.6738Z" fill="black"/>
<path d="M107.138 59.6551V34.712C107.138 31.577 105.626 29.2145 101.802 29.2145C98.3326 29.2145 95.842 31.4862 94.5967 33.2127V59.7005H81.7882V34.712C81.7882 31.577 80.365 29.2145 76.5402 29.2145C73.0712 29.2145 70.6252 31.4862 69.3354 33.2127V59.7005H56.5269V18.6739H69.3354V22.2631L68.0012 25.3072C68.4904 24.6711 68.9796 24.0805 69.3354 23.6716C71.0699 21.309 76.2289 17.6289 82.5442 17.6289C88.3704 17.6289 92.2396 20.0823 93.9296 24.9437C96.2423 21.3999 101.49 17.6289 107.806 17.6289C115.188 17.6289 119.858 21.5362 119.858 29.9414V59.6551H107.138Z" fill="black"/>
<path d="M137.425 54.7931C137.114 54.3842 136.892 53.8845 136.669 53.3847L137.425 57.9281V75.2837H124.617V18.6734H137.425V23.4439C140.583 19.5366 144.719 17.6738 149.3 17.6738C159.351 17.6738 166.912 25.3067 166.912 39.1185C166.912 53.0212 159.351 60.6541 149.3 60.6541C144.808 60.6541 140.761 58.8822 137.425 54.7931ZM153.881 39.1185C153.881 33.0304 150.056 29.214 145.075 29.214C142.317 29.214 139.026 30.7587 137.425 32.9395V45.3884C138.982 47.5238 142.317 49.1139 145.075 49.1139C150.056 49.1139 153.881 45.2975 153.881 39.1185Z" fill="black"/>
<path d="M169.002 59.6553V3.04492H181.811V59.6099H169.002V59.6553Z" fill="black"/>
<path d="M183.945 39.1185C183.945 27.2603 192.662 17.6738 205.204 17.6738C217.079 17.6738 225.707 26.5788 225.707 40.4815V43.4347H198.133L197.065 41.9808C197.021 42.4352 197.021 42.8895 197.154 43.4347C198.088 47.0694 201.379 50.1589 207.205 50.1589C210.007 50.1589 214.677 48.8868 216.99 46.6605L222.549 55.2475C218.546 58.8822 211.92 60.6995 205.782 60.6995C193.374 60.6541 183.945 52.4306 183.945 39.1185ZM205.204 28.169C199.645 28.169 197.465 31.5765 196.976 34.5297H213.476C213.165 31.622 211.075 28.169 205.204 28.169Z" fill="black"/>
<path d="M251.768 59.655L244.119 47.2516L236.247 59.655H222.282L235.98 38.6192L223.127 18.6738H237.181L244.074 29.8051L244.563 30.5775V28.9873L250.879 18.6738H264.932L252.124 38.6192L265.822 59.655H251.768Z" fill="black"/>
<path d="M215.255 85.6887C215.255 84.053 214.41 83.4624 213.12 83.4624C211.875 83.4624 211.075 84.1439 210.585 84.78V93.4124H206.36V80.0094H210.541V81.1907L210.007 82.1903C210.808 81.2362 212.854 79.6914 215.033 79.6914C218.013 79.6914 219.391 81.4633 219.391 83.9167V93.4124H215.255V85.6887Z" fill="black"/>
<path d="M229.531 91.4585C228.731 92.4127 226.774 93.7757 224.595 93.7757C221.615 93.7757 220.281 92.0492 220.281 89.5958V80.0547H224.461V87.8239C224.461 89.414 225.262 90.0047 226.641 90.0047C227.841 90.0047 228.642 89.3232 229.131 88.6871V80.0547H233.312V93.4576H229.131V92.4581L229.531 91.4585Z" fill="black"/>
<path d="M253.948 79.6914C257.817 79.6914 260.663 82.5992 260.663 87.1425V88.0512H251.635L251.279 87.5514C251.279 87.7332 251.324 87.9603 251.368 88.1421C251.68 89.3234 252.791 90.4138 254.704 90.4138C255.86 90.4138 257.194 89.9594 257.906 89.2779L259.685 91.9585C258.395 93.1398 256.216 93.7304 254.215 93.7304C250.167 93.7304 247.054 91.0498 247.054 86.6882C247.01 82.8263 249.856 79.6914 253.948 79.6914ZM251.279 85.3252H256.661C256.572 84.3711 255.86 83.0081 253.948 83.0081C252.124 83.0081 251.457 84.3256 251.279 85.3252Z" fill="black"/>
<path d="M261.508 80.0547H265.689V93.4576H261.508V80.0547Z" fill="black"/>
<path d="M243.63 80.0547L240.828 88.0056L240.917 89.2323L237.715 80.0547H234.157V82.1901L238.471 93.4122H242.918L248.077 80.0547H243.63Z" fill="black"/>
<path d="M261.197 75.9202C261.197 74.5572 262.264 73.4668 263.598 73.4668C264.933 73.4668 266 74.5572 266 75.9202C266 77.2832 264.933 78.3736 263.598 78.3736C262.264 78.3282 261.197 77.2832 261.197 75.9202Z" fill="#E40046"/>
<path d="M169.002 93.5492V74.9668H171.848V81.9636C172.916 80.5097 174.428 79.7828 176.073 79.7828C179.498 79.7828 181.944 82.5088 181.944 86.825C181.944 91.2775 179.453 93.9126 176.073 93.9126C174.383 93.9126 172.871 93.0948 171.848 91.7318V93.5492H169.002ZM175.273 91.2775C177.541 91.2775 178.964 89.4147 178.964 86.7796C178.964 84.1898 177.497 82.3271 175.273 82.3271C173.894 82.3271 172.515 83.1449 171.848 84.1444V89.5056C172.515 90.5051 173.894 91.2775 175.273 91.2775Z" fill="black"/>
<path d="M184.879 96.1836C185.19 96.3199 185.635 96.4108 185.991 96.4108C186.925 96.4108 187.503 96.1382 187.903 95.2295L188.57 93.6848L183.145 80.0547H186.213L190.038 90.141L193.907 80.0547H196.976L190.616 95.9565C189.727 98.2282 188.17 98.9551 186.124 99.0005C185.724 99.0005 184.879 98.9097 184.523 98.8188L184.879 96.1836Z" fill="black"/>
</g>
<defs>
<clipPath id="clip0_311_1154">
<rect width="266" height="99" fill="white"/>
</clipPath>
</defs>
</svg>
