<svg width="233" height="89" viewBox="0 0 233 89" fill="none" xmlns="http://www.w3.org/2000/svg">
<g clip-path="url(#clip0_311_1148)">
<path fill-rule="evenodd" clip-rule="evenodd" d="M139.172 60.7612C139.57 61.108 139.885 61.5412 140.092 62.0284C140.299 62.5154 140.394 63.0435 140.369 63.5727C140.369 66.6067 138.626 68.1238 135.139 68.124H105.184C104.078 68.1922 102.99 67.8148 102.159 67.0752C101.329 66.3355 100.825 65.294 100.757 64.1799C100.748 64.037 100.747 63.8937 100.753 63.7507C100.754 62.9809 100.912 62.2196 101.217 61.5135C101.522 60.8075 101.967 60.1719 102.525 59.6457L127.252 32.8708H108.108C106.858 32.9605 105.616 32.5966 104.608 31.8449C104.204 31.4836 103.887 31.035 103.68 30.5326C103.472 30.0301 103.381 29.487 103.411 28.9437C103.411 25.9686 105.154 24.4811 108.64 24.4814H137.267C137.866 24.4524 138.465 24.553 139.023 24.776C139.581 24.9992 140.085 25.3401 140.502 25.7755C141.286 26.6043 141.716 27.71 141.698 28.8547C141.663 30.4298 141.028 31.9311 139.926 33.0488L115.287 59.7345H135.672C136.923 59.6468 138.164 60.0108 139.172 60.7612Z" fill="black"/>
<path fill-rule="evenodd" clip-rule="evenodd" d="M183.574 47.2834C183.23 47.6251 182.822 47.8925 182.372 48.0691C181.922 48.2455 181.442 48.3272 180.96 48.3094H154.638C154.568 51.6034 155.758 54.7985 157.961 57.2346C159.128 58.2953 160.493 59.1104 161.977 59.6318C163.461 60.1529 165.033 60.3701 166.602 60.2701C168.505 60.2925 170.4 60.0367 172.23 59.5109C173.989 58.9717 175.672 58.2067 177.237 57.2346C177.913 56.8446 178.674 56.6301 179.452 56.6104C179.904 56.5905 180.354 56.6814 180.764 56.8758C181.173 57.0702 181.53 57.3621 181.802 57.7261C182.376 58.5132 182.672 59.4714 182.644 60.4479C182.649 61.2898 182.45 62.1198 182.063 62.8666C181.677 63.6131 181.115 64.2535 180.429 64.7324C178.503 66.0791 176.358 67.0757 174.091 67.6766C171.427 68.4552 168.667 68.8459 165.893 68.8367C161.867 68.9314 157.88 68.0277 154.283 66.2051C151.057 64.5314 148.391 61.9395 146.617 58.7519C144.756 55.3055 143.824 51.4283 143.913 47.5064C143.839 43.1963 144.781 38.9298 146.661 35.0569C148.376 31.5254 151.05 28.5547 154.371 26.4889C157.789 24.4056 161.722 23.3377 165.716 23.4089C168.295 23.2495 170.878 23.6533 173.287 24.5934C175.696 25.5332 177.876 26.9867 179.675 28.8541C183.203 33.2189 184.96 38.7668 184.593 44.3827C184.626 44.9105 184.552 45.4395 184.377 45.9379C184.202 46.4363 183.929 46.8941 183.574 47.2834ZM154.992 42.3302H175.199C175.461 39.3868 174.641 36.4487 172.894 34.0742C172.053 33.1258 171.011 32.3805 169.845 31.8938C168.679 31.4072 167.419 31.1916 166.159 31.2634C159.895 31.2634 156.173 34.9522 154.992 42.3302Z" fill="black"/>
<path fill-rule="evenodd" clip-rule="evenodd" d="M229.189 27.3821C231.916 30.6503 233.266 34.8611 232.956 39.1176C232.956 40.249 232.928 41.1119 232.868 41.7068L231.095 63.3039C231.074 64.0446 230.908 64.7736 230.605 65.4483C230.299 66.1227 229.863 66.729 229.323 67.2311C228.192 68.2071 226.735 68.7174 225.246 68.6601C224.52 68.705 223.793 68.6015 223.106 68.3559C222.421 68.1103 221.793 67.7277 221.258 67.2311C220.773 66.7112 220.411 66.0887 220.196 65.4091C219.98 64.7297 219.92 64.0104 220.017 63.3039L221.789 42.1531C222.261 35.5478 219.661 32.245 213.989 32.2449C212.584 32.1653 211.179 32.3869 209.864 32.8947C208.551 33.4026 207.359 34.1854 206.367 35.1911C204.404 37.4806 203.278 40.3784 203.178 43.4021L201.494 63.3039C201.474 64.0446 201.307 64.7736 201.003 65.4483C200.698 66.1227 200.263 66.729 199.722 67.2311C198.59 68.2073 197.134 68.7176 195.644 68.6601C194.926 68.7082 194.204 68.6058 193.524 68.36C192.846 68.1142 192.225 67.7299 191.701 67.2311C191.228 66.7025 190.868 66.0802 190.647 65.404C190.426 64.7277 190.347 64.0125 190.416 63.3039L193.252 28.6756C193.256 27.9645 193.416 27.2632 193.724 26.6226C194.029 25.9819 194.474 25.4182 195.024 24.9723C196.207 24.0298 197.683 23.5396 199.19 23.5884C199.868 23.5474 200.546 23.6448 201.187 23.8746C201.826 24.1046 202.413 24.4623 202.911 24.9264C203.358 25.394 203.686 25.9618 203.871 26.5829C204.057 27.2039 204.092 27.8602 203.976 28.4978L203.887 30.1923C205.393 28.0275 207.441 26.3034 209.824 25.1953C212.432 23.9775 215.281 23.3671 218.157 23.4098C220.167 23.266 222.188 23.5449 224.088 24.2288C225.987 24.9125 227.724 25.9864 229.189 27.3821Z" fill="black"/>
<path fill-rule="evenodd" clip-rule="evenodd" d="M82.3004 26.826C80.6334 24.2395 78.0827 22.3579 75.1308 21.5377C72.1792 20.7173 69.0312 21.0151 66.2829 22.3746C63.974 23.5546 62.0922 25.436 60.9041 27.7525C59.716 30.069 59.2816 32.7034 59.6625 35.2823C60.0434 37.8613 61.2202 40.2542 63.0265 42.1223C64.8326 43.9904 67.1767 45.2389 69.7265 45.691C69.5067 52.6797 66.5753 59.303 61.5614 64.1398C56.5475 68.9766 49.8505 71.6415 42.9078 71.5626C35.965 71.4836 29.3294 68.6673 24.4253 63.7176C19.521 58.7681 16.7388 52.0798 16.6757 45.0881C16.6631 39.697 18.2942 34.432 21.3488 30.0046C24.4034 25.577 28.734 22.2007 33.7555 20.3317C34.7108 19.9834 35.5078 19.2972 35.9976 18.4008C36.4876 17.5043 36.6368 16.4591 36.4177 15.46L36.3877 15.3272C36.2677 14.7897 36.2539 14.2336 36.3473 13.6907C36.4407 13.1478 36.6394 12.6287 36.9319 12.1631C37.2246 11.6975 37.6053 11.2945 38.0526 10.9771C38.4999 10.6597 39.0047 10.4341 39.5385 10.3132C39.7217 10.272 39.9074 10.243 40.0945 10.2263C41.127 10.1312 42.1649 10.0833 43.2086 10.0826C44.4995 10.0829 45.7893 10.1542 47.0724 10.2961C47.6238 10.3569 48.1818 10.3076 48.7143 10.1512C49.2467 9.99479 49.7436 9.73428 50.176 9.38455C50.6087 9.03482 50.9686 8.6027 51.2353 8.11288C51.502 7.62308 51.6702 7.08515 51.7306 6.52984C51.7387 6.4525 51.7454 6.37583 51.7489 6.29919C51.7791 5.18352 51.3843 4.0985 50.6454 3.26671C49.9065 2.4349 48.8795 1.91937 47.7751 1.82587C39.0835 0.895392 30.3161 2.64136 22.6303 6.8332C14.9447 11.0251 8.70214 17.4657 4.72702 25.3047C0.751893 33.1438 -0.768894 42.0125 0.365447 50.74C1.49979 59.4675 5.23592 67.6434 11.0805 74.1881C16.9252 80.7328 24.6034 85.3386 33.1015 87.3973C41.5997 89.456 50.5179 88.871 58.6789 85.7191C66.8399 82.5675 73.8598 76.9973 78.8117 69.7442C83.7637 62.4912 86.4148 53.8963 86.4149 45.0944C86.4149 40.8407 85.5652 31.6703 82.3004 26.826Z" fill="black"/>
<path fill-rule="evenodd" clip-rule="evenodd" d="M59.5047 4.88867C60.3899 4.88862 61.2553 5.1529 61.9914 5.64813C62.7275 6.14336 63.3011 6.84729 63.6399 7.67088C63.9788 8.49447 64.0674 9.40074 63.8948 10.2751C63.7221 11.1494 63.2959 11.9526 62.6698 12.5829C62.0438 13.2133 61.2463 13.6426 60.3781 13.8165C59.5098 13.9904 58.6099 13.9011 57.7921 13.5599C56.9741 13.2187 56.2751 12.641 55.7834 11.8997C55.2916 11.1585 55.0291 10.287 55.0293 9.39551C55.0293 8.20025 55.5009 7.05399 56.3401 6.20881C57.1794 5.36365 58.3178 4.88878 59.5047 4.88867Z" fill="black"/>
</g>
<defs>
<clipPath id="clip0_311_1148">
<rect width="233" height="89" fill="white"/>
</clipPath>
</defs>
</svg>
