<?xml version="1.0" encoding="UTF-8" standalone="no"?>
<!DOCTYPE svg PUBLIC "-//W3C//DTD SVG 1.1//EN" "http://www.w3.org/Graphics/SVG/1.1/DTD/svg11.dtd">
<svg xmlns="http://www.w3.org/2000/svg" version="1.1" viewBox="0.00 0.00 512.00 512.00">
<path stroke="#801038" stroke-width="2.00" fill="none" stroke-linecap="butt" vector-effect="non-scaling-stroke" d="
  M 475.98 165.98
  L 445.97 176.53"
/>
<path fill="#000000" d="
  M 512.00 140.88
  L 512.00 144.24
  Q 510.28 153.63 502.06 156.59
  Q 488.96 161.29 475.98 165.98
  L 445.97 176.53
  L 407.04 190.42
  Q 406.56 190.60 406.56 191.11
  Q 406.49 239.43 406.51 287.75
  C 406.52 314.08 364.73 327.18 345.00 332.42
  C 295.26 345.62 241.54 346.80 191.00 337.78
  C 168.13 333.70 114.17 321.15 106.43 294.94
  Q 105.48 291.75 105.47 285.95
  Q 105.37 238.39 105.48 191.03
  A 0.65 0.64 10.8 0 0 105.05 190.41
  Q 57.42 173.46 10.07 156.65
  Q 1.68 153.67 0.00 144.18
  L 0.00 140.74
  Q 1.75 131.29 10.77 128.11
  Q 130.53 85.87 250.28 43.60
  C 256.41 41.44 259.82 42.89 266.68 45.31
  Q 383.74 86.60 500.79 127.91
  Q 510.30 131.26 512.00 140.88
  Z
  M 256.21 73.42
  A 0.34 0.34 0.0 0 0 255.99 73.42
  L 60.89 142.23
  A 0.34 0.34 0.0 0 0 60.88 142.87
  L 255.97 212.21
  A 0.34 0.34 0.0 0 0 256.19 212.21
  L 451.21 142.87
  A 0.34 0.34 0.0 0 0 451.20 142.23
  L 256.21 73.42
  Z
  M 136.15 201.49
  Q 135.47 201.25 135.47 201.97
  L 135.47 285.77
  Q 135.47 286.24 135.84 286.55
  C 141.97 291.68 150.06 295.13 157.54 297.83
  Q 179.46 305.72 202.49 309.36
  C 251.41 317.09 305.34 314.97 352.46 298.61
  C 360.69 295.75 369.32 292.12 376.14 286.56
  A 1.03 1.01 -19.6 0 0 376.53 285.76
  L 376.53 201.75
  A 0.33 0.32 80.5 0 0 376.10 201.44
  Q 318.62 221.87 261.22 242.15
  Q 255.86 244.05 251.31 242.42
  Q 194.00 221.98 136.15 201.49
  Z"
/>
<path fill="#ff1f70" d="
  M 475.98 165.98
  L 475.98 311.73
  Q 475.98 312.24 476.45 312.41
  C 499.25 320.86 511.19 345.43 504.02 368.26
  Q 497.61 388.73 476.45 396.98
  A 0.70 0.70 0.0 0 0 475.99 397.64
  Q 475.95 424.03 475.98 450.41
  Q 475.98 457.02 474.87 459.95
  C 469.92 472.95 451.20 472.41 446.80 459.30
  Q 446.00 456.91 446.00 451.59
  Q 446.00 424.63 445.99 397.65
  Q 445.99 397.12 445.50 396.94
  C 405.65 381.93 406.55 327.41 445.50 312.41
  A 0.74 0.73 79.7 0 0 445.97 311.72
  L 445.97 176.53
  L 475.98 165.98
  Z
  M 476.07 354.69
  A 15.10 15.10 0.0 0 0 460.97 339.59
  A 15.10 15.10 0.0 0 0 445.87 354.69
  A 15.10 15.10 0.0 0 0 460.97 369.79
  A 15.10 15.10 0.0 0 0 476.07 354.69
  Z"
/>
</svg>
