<svg viewBox="0 0 20 28"
  xmlns="http://www.w3.org/2000/svg">
  <path d="M19.8426 7.31427L12.6858 0.15749C12.5849 0.0566413 12.4482 0 12.3056 0H2.22102C0.996323 0 0 0.996323 0 2.22102V24.9838C0 26.2085 0.996323 27.2048 2.22102 27.2048H17.779C19.0037 27.2048 20 26.2085 20 24.9838V7.69445C20 7.55189 19.9434 7.41507 19.8426 7.31427ZM12.8433 1.83574L18.1643 7.15667H13.9889C13.3572 7.15667 12.8433 6.64276 12.8433 6.01099V1.83574H12.8433ZM18.9247 24.9838C18.9247 25.6155 18.4108 26.1295 17.779 26.1295H2.22102C1.5893 26.1295 1.07533 25.6155 1.07533 24.9838V2.22102C1.07533 1.5893 1.5893 1.07533 2.22102 1.07533H11.7679V6.01109C11.7679 7.23579 12.7642 8.23211 13.9889 8.23211H18.9247V24.9838Z" currentColor="#ffffff" />
  <path d="M14.3012 13.6562H5.6988C5.40188 13.6562 5.16113 13.897 5.16113 14.1939C5.16113 14.4908 5.40188 14.7316 5.6988 14.7316H14.3012C14.5982 14.7316 14.8388 14.4908 14.8388 14.1939C14.8388 13.897 14.5982 13.6562 14.3012 13.6562Z" currentColor="#FF1F70" />
  <path d="M14.3012 16.0576H5.6988C5.40188 16.0576 5.16113 16.2984 5.16113 16.5953C5.16113 16.8922 5.40188 17.133 5.6988 17.133H14.3012C14.5982 17.133 14.8388 16.8922 14.8388 16.5953C14.8388 16.2984 14.5982 16.0576 14.3012 16.0576Z" currentColor="#FF1F70" />
  <path d="M14.3012 18.459H5.6988C5.40188 18.459 5.16113 18.6997 5.16113 18.9967C5.16113 19.2936 5.40188 19.5343 5.6988 19.5343H14.3012C14.5982 19.5343 14.8388 19.2936 14.8388 18.9967C14.8388 18.6997 14.5982 18.459 14.3012 18.459Z" currentColor="#FF1F70" />
  <path d="M11.5054 20.8608H5.6988C5.40188 20.8608 5.16113 21.1016 5.16113 21.3985C5.16113 21.6954 5.40188 21.9362 5.6988 21.9362H11.5054C11.8024 21.9362 12.043 21.6954 12.043 21.3985C12.043 21.1016 11.8024 20.8608 11.5054 20.8608Z" currentColor="#FF1F70" />
</svg>
