<svg xmlns="http://www.w3.org/2000/svg" version="1.1" viewBox="0.00 0.00 512.00 512.00">
<g stroke-width="2.00" fill="none" stroke-linecap="butt">
<path stroke="#801038" vector-effect="non-scaling-stroke" d="
  M 349.97 149.23
  L 349.91 129.58"
/>
<path stroke="#801038" vector-effect="non-scaling-stroke" d="
  M 323.92 169.42
  L 310.66 179.57"
/>
<path stroke="#801038" vector-effect="non-scaling-stroke" d="
  M 304.45 164.59
  L 315.33 156.28"
/>
<path stroke="#801038" vector-effect="non-scaling-stroke" d="
  M 188.98 241.32
  L 188.97 221.72"
/>
<path stroke="#801038" vector-effect="non-scaling-stroke" d="
  M 162.92 261.47
  L 149.68 271.59"
/>
<path stroke="#801038" vector-effect="non-scaling-stroke" d="
  M 143.52 256.61
  L 154.39 248.33"
/>
</g>
<path fill="#000000" d="
  M 349.97 149.23
  L 349.91 129.58
  C 350.24 113.14 350.00 96.70 350.18 80.25
  Q 350.30 69.47 358.19 62.68
  C 363.82 57.83 369.30 57.06 377.30 57.06
  Q 419.28 57.04 461.25 57.13
  C 472.19 57.16 481.72 64.09 484.31 74.76
  Q 485.00 77.58 485.00 84.80
  Q 485.01 157.21 484.99 229.63
  Q 484.99 237.56 483.72 241.23
  C 481.26 248.38 475.09 254.17 467.74 256.13
  Q 464.72 256.93 457.57 256.94
  Q 418.17 256.97 378.77 256.94
  Q 369.86 256.94 366.34 255.85
  C 359.07 253.62 353.11 247.52 350.94 240.17
  Q 350.02 237.06 350.02 230.72
  Q 350.01 190.02 349.97 149.23
  Z
  M 471.67 80.47
  A 10.05 10.05 0.0 0 0 461.62 70.42
  L 373.38 70.42
  A 10.05 10.05 0.0 0 0 363.33 80.47
  L 363.33 233.53
  A 10.05 10.05 0.0 0 0 373.38 243.58
  L 461.62 243.58
  A 10.05 10.05 0.0 0 0 471.67 233.53
  L 471.67 80.47
  Z"
/>
<path fill="#ff1f70" d="
  M 349.91 129.58
  L 349.97 149.23
  L 323.92 169.42
  L 310.66 179.57
  Q 286.44 198.22 262.57 216.71
  C 259.35 219.21 256.44 220.66 252.81 218.69
  C 247.68 215.92 246.98 209.08 251.72 205.45
  Q 277.61 185.58 304.45 164.59
  L 315.33 156.28
  L 349.91 129.58
  Z"
/>
<path fill="#000000" d="
  M 315.33 156.28
  L 304.45 164.59
  Q 231.45 164.13 212.50 164.40
  Q 205.98 164.50 203.57 169.52
  Q 202.33 172.09 202.33 178.66
  Q 202.34 252.03 202.34 325.41
  C 202.34 334.79 206.53 337.58 215.79 337.58
  Q 258.02 337.58 300.25 337.59
  Q 306.78 337.60 309.32 332.67
  Q 310.67 330.05 310.67 323.55
  Q 310.66 251.70 310.66 179.57
  L 323.92 169.42
  Q 324.06 249.06 323.76 327.75
  Q 323.72 338.21 316.22 344.97
  C 310.26 350.33 304.54 350.94 295.88 350.95
  Q 257.21 350.97 218.54 350.95
  Q 209.04 350.95 205.56 349.92
  C 198.17 347.74 192.07 341.54 189.91 334.07
  Q 189.02 331.01 189.02 324.85
  Q 189.00 283.05 188.98 241.32
  L 188.97 221.72
  Q 189.03 201.19 189.00 180.33
  Q 188.99 171.15 189.97 167.76
  C 192.15 160.19 198.56 153.94 206.23 151.88
  Q 209.27 151.06 216.37 151.06
  Q 258.19 151.03 300.00 151.05
  Q 308.72 151.06 315.33 156.28
  Z"
/>
<rect fill="#ff1f70" x="380.06" y="157.02" width="73.88" height="14.96" rx="7.32"/>
<rect fill="#ff1f70" x="380.06" y="201.02" width="73.88" height="14.96" rx="7.32"/>
<path fill="#ff1f70" d="
  M 188.97 221.72
  L 188.98 241.32
  L 162.92 261.47
  L 149.68 271.59
  Q 125.87 289.90 102.07 308.26
  Q 98.02 311.37 97.06 311.79
  C 89.18 315.15 82.35 303.75 89.81 298.06
  Q 116.10 277.99 143.52 256.61
  L 154.39 248.33
  L 188.97 221.72
  Z"
/>
<path fill="#000000" d="
  M 154.39 248.33
  L 143.52 256.61
  Q 72.96 256.11 51.50 256.41
  Q 45.08 256.50 42.63 261.43
  Q 41.33 264.02 41.33 270.48
  Q 41.34 343.94 41.34 417.41
  C 41.34 426.79 45.53 429.58 54.80 429.58
  Q 95.47 429.58 136.15 429.59
  C 146.45 429.59 149.71 426.40 149.70 415.72
  Q 149.63 343.80 149.68 271.59
  L 162.92 261.47
  Q 163.05 340.95 162.82 419.50
  Q 162.79 430.65 154.53 437.56
  C 148.78 442.37 143.32 442.94 135.16 442.95
  Q 93.46 442.96 51.75 442.87
  C 41.13 442.85 31.97 436.39 28.95 426.22
  Q 28.01 423.07 28.01 416.67
  Q 27.99 344.20 28.00 271.73
  Q 28.01 262.88 29.09 259.37
  C 31.38 251.95 37.72 245.89 45.28 243.87
  Q 48.29 243.06 55.31 243.06
  Q 97.15 243.03 139.00 243.06
  Q 147.73 243.06 154.39 248.33
  Z"
/>
<rect fill="#ff1f70" x="219.06" y="249.02" width="73.88" height="14.96" rx="7.32"/>
<rect fill="#ff1f70" x="219.06" y="293.02" width="73.88" height="14.96" rx="7.32"/>
<rect fill="#ff1f70" x="58.06" y="340.02" width="73.88" height="14.96" rx="7.32"/>
<rect fill="#ff1f70" x="58.06" y="384.02" width="73.88" height="14.96" rx="7.32"/>
</svg>
