<?xml version="1.0" encoding="UTF-8" standalone="no"?>
<!DOCTYPE svg PUBLIC "-//W3C//DTD SVG 1.1//EN" "http://www.w3.org/Graphics/SVG/1.1/DTD/svg11.dtd">
<svg xmlns="http://www.w3.org/2000/svg" version="1.1" viewBox="0.00 0.00 512.00 512.00">
<path fill="#000000" d="
  M 512.00 339.33
  L 512.00 341.72
  Q 498.16 371.86 483.94 402.10
  C 482.26 405.67 480.43 408.15 476.50 408.26
  C 471.13 408.41 467.09 402.74 469.43 397.74
  Q 480.93 373.08 492.42 348.53
  A 0.21 0.21 0.0 0 0 492.22 348.23
  L 375.30 351.31
  Q 374.81 351.33 374.61 351.77
  L 320.98 466.53
  A 0.30 0.30 0.0 0 0 321.26 466.96
  L 437.76 463.91
  A 1.23 1.22 11.7 0 0 438.84 463.21
  Q 446.14 447.52 453.64 431.52
  Q 455.43 427.71 457.00 426.44
  C 461.14 423.09 468.38 426.22 468.84 431.41
  Q 469.06 433.93 467.01 438.31
  Q 458.58 456.35 449.96 474.31
  Q 447.90 478.61 443.50 478.72
  Q 376.75 480.50 310.01 482.50
  Q 305.50 482.64 303.34 479.91
  Q 279.69 450.07 256.32 420.58
  Q 255.72 419.82 255.73 420.79
  C 255.79 426.31 257.36 434.29 251.17 437.39
  Q 192.76 466.64 134.34 495.86
  C 130.97 497.54 127.97 499.11 125.10 497.67
  Q 64.99 467.64 4.91 437.58
  Q 0.83 435.54 0.00 431.39
  L 0.00 361.70
  C 2.64 352.46 15.05 354.04 15.03 363.25
  Q 14.93 394.27 15.03 425.34
  Q 15.03 425.89 15.52 426.13
  L 119.99 478.36
  A 0.25 0.25 0.0 0 0 120.35 478.14
  L 120.36 351.27
  A 0.60 0.59 -77.6 0 0 120.02 350.73
  L 15.37 298.38
  A 0.25 0.25 0.0 0 0 15.01 298.60
  Q 15.00 313.38 15.00 328.25
  C 15.00 336.66 2.46 338.20 0.00 328.93
  L 0.00 285.00
  Q 0.96 280.99 3.82 279.56
  Q 61.92 250.52 119.96 221.48
  A 0.72 0.70 -13.9 0 0 120.35 220.85
  Q 120.42 151.45 120.36 82.00
  C 120.35 77.36 122.69 75.69 126.81 73.64
  Q 185.89 44.07 245.00 14.54
  C 247.58 13.25 250.02 13.84 252.72 15.18
  Q 265.38 21.44 277.98 27.79
  Q 282.24 29.94 283.56 31.82
  C 286.52 36.06 283.01 43.17 277.66 43.26
  Q 275.45 43.29 271.58 41.36
  Q 260.14 35.66 248.59 29.86
  A 0.80 0.80 0.0 0 0 247.87 29.86
  L 145.24 81.19
  A 0.31 0.31 0.0 0 0 145.24 81.75
  L 248.06 133.16
  A 0.49 0.49 0.0 0 0 248.50 133.16
  L 351.28 81.76
  A 0.30 0.30 0.0 0 0 351.28 81.22
  Q 329.44 70.26 307.62 59.38
  Q 303.64 57.40 302.29 55.53
  C 298.12 49.72 304.97 41.31 311.27 44.45
  Q 341.40 59.48 371.51 74.53
  C 375.22 76.39 376.04 79.10 376.04 83.31
  Q 376.05 154.97 376.04 226.63
  A 1.11 0.90 57.6 0 1 376.01 226.88
  L 375.75 227.99
  Q 375.60 228.61 376.25 228.60
  Q 398.63 227.99 421.00 227.41
  Q 424.33 227.33 426.69 230.30
  Q 468.24 282.51 509.72 334.78
  Q 511.32 336.80 512.00 339.33
  Z
  M 135.81 93.82
  A 0.32 0.32 0.0 0 0 135.35 94.11
  L 135.34 221.07
  A 0.32 0.32 0.0 0 0 135.52 221.36
  L 240.27 273.68
  A 0.32 0.32 0.0 0 0 240.73 273.39
  L 240.73 146.48
  A 0.32 0.32 0.0 0 0 240.55 146.19
  L 135.81 93.82
  Z
  M 360.48 93.93
  L 256.19 146.08
  Q 255.73 146.31 255.73 146.83
  L 255.73 273.43
  Q 255.73 273.96 256.20 273.73
  L 262.84 270.41
  Q 263.27 270.20 263.48 269.76
  Q 271.58 252.57 279.76 235.42
  Q 281.81 231.12 286.50 230.98
  Q 297.99 230.63 341.99 229.51
  Q 344.53 229.45 346.79 228.38
  Q 353.70 225.09 360.60 221.49
  Q 361.05 221.26 361.05 220.75
  L 361.05 94.28
  A 0.40 0.39 -13.2 0 0 360.48 93.93
  Z
  M 127.76 337.81
  A 0.32 0.32 0.0 0 0 128.04 337.81
  L 230.91 286.40
  A 0.32 0.32 0.0 0 0 230.91 285.82
  L 128.05 234.36
  A 0.32 0.32 0.0 0 0 127.77 234.36
  L 24.90 285.79
  A 0.32 0.32 0.0 0 0 24.90 286.37
  L 127.76 337.81
  Z
  M 417.52 242.66
  A 0.31 0.31 0.0 0 0 417.27 242.54
  L 302.26 245.58
  A 0.31 0.31 0.0 0 0 302.03 246.09
  L 373.45 336.23
  A 0.31 0.31 0.0 0 0 373.70 336.35
  L 488.70 333.31
  A 0.31 0.31 0.0 0 0 488.93 332.80
  L 417.52 242.66
  Z
  M 234.13 368.11
  A 0.33 0.33 0.0 0 0 234.17 368.45
  L 306.85 460.20
  A 0.33 0.33 0.0 0 0 307.41 460.14
  L 361.14 345.15
  A 0.33 0.33 0.0 0 0 361.10 344.81
  L 288.42 253.05
  A 0.33 0.33 0.0 0 0 287.86 253.11
  L 234.13 368.11
  Z
  M 240.03 298.59
  L 135.73 350.73
  A 0.69 0.69 0.0 0 0 135.34 351.35
  L 135.34 478.21
  A 0.24 0.24 0.0 0 0 135.69 478.42
  L 240.35 426.08
  A 0.69 0.68 -13.4 0 0 240.73 425.47
  L 240.73 401.50
  A 1.83 1.79 26.3 0 0 240.33 400.37
  Q 230.37 387.85 220.44 375.24
  C 218.40 372.65 216.86 369.64 218.22 366.72
  Q 228.97 343.68 239.74 320.64
  Q 240.73 318.52 240.73 316.18
  Q 240.73 307.43 240.73 299.02
  Q 240.73 298.25 240.03 298.59
  Z"
/>
<circle fill="#ff1f70" cx="335.00" cy="161.00" r="8.39"/>
<circle fill="#ff1f70" cx="335.00" cy="192.00" r="8.39"/>
<circle fill="#ff1f70" cx="303.00" cy="203.01" r="8.39"/>
</svg>
