<?xml version="1.0" encoding="UTF-8" standalone="no"?>
<!DOCTYPE svg PUBLIC "-//W3C//DTD SVG 1.1//EN" "http://www.w3.org/Graphics/SVG/1.1/DTD/svg11.dtd">
<svg xmlns="http://www.w3.org/2000/svg" version="1.1" viewBox="0.00 0.00 512.00 512.00">
<path fill="#000000" d="
  M 512.00 115.03
  L 512.00 310.56
  C 509.68 322.41 493.49 323.27 490.95 311.72
  Q 490.69 310.55 490.69 304.77
  Q 490.68 211.38 490.70 118.00
  C 490.70 100.88 477.12 85.31 459.57 85.31
  Q 256.78 85.31 54.00 85.30
  C 35.76 85.30 21.41 99.36 21.37 117.50
  Q 21.30 143.95 21.31 170.17
  Q 21.31 170.68 21.82 170.68
  Q 87.15 170.75 152.33 170.70
  Q 165.82 170.69 171.57 171.93
  C 192.58 176.46 208.88 193.97 212.44 214.80
  Q 213.38 220.27 213.33 234.75
  Q 213.24 261.25 213.09 287.75
  Q 212.97 311.25 197.04 326.30
  Q 181.16 341.32 159.50 341.31
  Q 90.53 341.30 21.64 341.31
  A 0.35 0.35 0.0 0 0 21.29 341.66
  Q 21.30 368.30 21.50 395.00
  C 21.60 408.99 30.70 421.26 43.84 425.21
  Q 48.77 426.69 62.80 426.70
  Q 174.08 426.76 285.36 426.69
  Q 289.75 426.69 291.56 427.30
  C 302.88 431.11 299.93 447.93 287.50 447.94
  Q 175.38 447.99 63.26 448.00
  Q 48.68 448.00 43.31 447.00
  C 19.05 442.49 1.65 421.82 0.00 397.14
  L 0.00 114.72
  C 1.72 90.20 18.95 69.65 43.06 65.04
  Q 48.50 64.00 63.00 64.00
  Q 260.75 64.00 458.50 64.00
  C 487.58 64.00 509.85 86.19 512.00 115.03
  Z
  M 190.46 214.41
  C 186.74 202.25 174.51 192.01 161.25 192.01
  Q 91.55 191.99 22.00 192.00
  Q 21.53 192.00 21.53 192.47
  L 21.54 319.74
  A 0.26 0.25 90.0 0 0 21.79 320.00
  Q 87.87 320.00 154.01 320.00
  Q 164.52 320.00 169.35 318.54
  C 181.31 314.92 191.98 302.75 191.99 289.75
  Q 191.99 261.50 192.01 233.26
  Q 192.02 219.52 190.46 214.41
  Z"
/>
<path fill="#000000" d="
  M 149.29 255.99
  A 42.63 42.63 0.0 0 1 106.66 298.62
  A 42.63 42.63 0.0 0 1 64.03 255.99
  A 42.63 42.63 0.0 0 1 106.66 213.36
  A 42.63 42.63 0.0 0 1 149.29 255.99
  Z
  M 127.97 255.99
  A 21.31 21.31 0.0 0 0 106.66 234.68
  A 21.31 21.31 0.0 0 0 85.35 255.99
  A 21.31 21.31 0.0 0 0 106.66 277.30
  A 21.31 21.31 0.0 0 0 127.97 255.99
  Z"
/>
<path fill="#ff1f70" d="
  M 512.00 372.14
  L 512.00 374.72
  Q 509.77 384.06 500.99 384.03
  Q 474.81 383.94 448.53 384.02
  Q 448.02 384.02 448.02 384.54
  Q 447.96 435.02 448.02 485.46
  Q 448.03 493.85 446.61 497.87
  Q 442.49 509.58 428.62 512.00
  L 360.50 512.00
  C 348.99 509.44 341.30 502.28 341.32 490.00
  Q 341.41 437.26 341.33 384.53
  Q 341.33 384.01 340.81 384.01
  Q 316.15 383.98 291.64 383.99
  Q 285.33 383.99 282.63 382.55
  C 276.66 379.35 275.59 370.80 280.58 365.80
  Q 331.85 314.41 383.17 263.07
  Q 388.60 257.64 391.28 256.62
  C 397.13 254.41 400.96 257.86 405.28 262.19
  Q 457.36 314.25 509.42 366.33
  Q 511.19 368.11 512.00 372.14
  Z
  M 427.87 368.58
  C 430.36 363.52 434.37 362.74 440.19 362.73
  Q 457.67 362.70 474.86 362.72
  Q 475.66 362.72 475.09 362.15
  L 394.91 281.97
  A 0.34 0.34 0.0 0 0 394.43 281.97
  L 314.19 362.21
  Q 313.68 362.72 314.41 362.72
  Q 331.52 362.71 348.89 362.73
  Q 354.69 362.73 357.37 364.14
  Q 362.66 366.93 362.66 373.75
  Q 362.64 432.16 362.65 490.53
  A 0.19 0.19 0.0 0 0 362.84 490.72
  L 426.25 490.72
  A 0.52 0.52 0.0 0 0 426.77 490.20
  Q 426.57 432.29 426.86 374.35
  Q 426.88 370.60 427.87 368.58
  Z"
/>
</svg>
