<svg xmlns="http://www.w3.org/2000/svg" version="1.1" viewBox="0.00 0.00 512.00 512.00">
<path fill="#000000" d="
  M 138.68 0.00
  L 159.97 0.00
  L 159.98 63.46
  A 0.54 0.54 0.0 0 0 160.52 64.00
  L 180.79 64.00
  Q 181.33 64.00 181.33 64.54
  L 181.32 84.81
  A 0.49 0.48 0.0 0 0 181.81 85.29
  L 330.19 85.29
  Q 330.68 85.29 330.68 84.81
  L 330.67 64.57
  Q 330.67 64.00 331.24 64.00
  L 351.53 64.00
  A 0.49 0.49 0.0 0 0 352.02 63.51
  L 352.09 0.00
  L 373.34 0.00
  L 373.34 63.53
  Q 373.34 64.00 373.80 64.00
  L 394.09 64.00
  A 0.60 0.59 -0.0 0 1 394.69 64.59
  L 394.67 84.98
  A 0.31 0.31 0.0 0 0 394.98 85.29
  L 436.99 85.29
  A 0.34 0.33 0.0 0 1 437.33 85.62
  L 437.33 512.00
  L 74.67 512.00
  L 74.67 85.63
  A 0.35 0.34 -0.0 0 1 75.02 85.29
  L 117.00 85.29
  A 0.33 0.33 0.0 0 0 117.33 84.96
  L 117.32 64.59
  A 0.59 0.59 0.0 0 1 117.91 64.00
  L 138.20 64.00
  Q 138.68 64.00 138.68 63.52
  L 138.68 0.00
  Z
  M 160.00 85.75
  A 0.46 0.46 0.0 0 0 159.54 85.29
  L 139.14 85.29
  A 0.46 0.46 0.0 0 0 138.68 85.75
  L 138.68 106.21
  A 0.46 0.46 0.0 0 0 139.14 106.67
  L 159.54 106.67
  A 0.46 0.46 0.0 0 0 160.00 106.21
  L 160.00 85.75
  Z
  M 373.32 85.74
  A 0.45 0.45 0.0 0 0 372.87 85.29
  L 352.45 85.29
  A 0.45 0.45 0.0 0 0 352.00 85.74
  L 352.00 106.22
  A 0.45 0.45 0.0 0 0 352.45 106.67
  L 372.87 106.67
  A 0.45 0.45 0.0 0 0 373.32 106.22
  L 373.32 85.74
  Z
  M 181.33 127.57
  A 0.43 0.43 0.0 0 1 180.90 128.00
  L 117.75 128.00
  A 0.43 0.43 0.0 0 1 117.32 127.57
  L 117.32 107.11
  A 0.43 0.43 0.0 0 0 116.89 106.68
  L 96.43 106.67
  A 0.43 0.43 0.0 0 0 96.00 107.10
  L 96.00 490.28
  A 0.43 0.43 0.0 0 0 96.43 490.71
  L 415.57 490.71
  A 0.43 0.43 0.0 0 0 416.00 490.28
  L 416.00 107.10
  A 0.43 0.43 0.0 0 0 415.57 106.67
  L 395.11 106.68
  A 0.43 0.43 0.0 0 0 394.68 107.11
  L 394.69 127.57
  A 0.43 0.43 0.0 0 1 394.26 128.00
  L 331.09 128.00
  A 0.43 0.43 0.0 0 1 330.66 127.57
  L 330.68 107.11
  A 0.43 0.43 0.0 0 0 330.25 106.68
  L 181.76 106.68
  A 0.43 0.43 0.0 0 0 181.33 107.11
  L 181.33 127.57
  Z"
/>
<path fill="#ff1f70" d="
  M 234.00 277.19
  L 282.39 192.50
  A 0.30 0.30 0.0 0 1 282.91 192.50
  L 367.70 340.82
  A 0.30 0.30 0.0 0 1 367.44 341.27
  L 144.57 341.27
  A 0.30 0.30 0.0 0 1 144.31 340.82
  L 207.74 235.11
  A 0.30 0.30 0.0 0 1 208.26 235.11
  L 233.49 277.20
  A 0.30 0.30 0.0 0 0 234.00 277.19
  Z
  M 234.33 319.53
  A 0.31 0.31 0.0 0 0 234.60 320.00
  L 330.70 320.00
  A 0.31 0.31 0.0 0 0 330.97 319.53
  L 282.92 235.43
  A 0.31 0.31 0.0 0 0 282.38 235.43
  L 234.33 319.53
  Z
  M 181.94 319.53
  A 0.31 0.31 0.0 0 0 182.21 320.00
  L 209.38 320.00
  A 0.31 0.31 0.0 0 0 209.65 319.84
  L 221.56 298.98
  A 0.31 0.31 0.0 0 0 221.56 298.66
  L 208.27 276.52
  A 0.31 0.31 0.0 0 0 207.73 276.52
  L 181.94 319.53
  Z"
/>
<rect fill="#ff1f70" x="160.16" y="384.02" width="191.68" height="21.24" rx="10.49"/>
<rect fill="#ff1f70" x="-53.14" y="-10.61" transform="translate(256.00,437.35) rotate(-0.1)" width="106.28" height="21.22" rx="10.39"/>
</svg>
