<svg xmlns="http://www.w3.org/2000/svg" version="1.1" viewBox="0.00 0.00 512.00 512.00">
<path fill="#000000" d="
  M 182.24 33.28
  C 225.45 54.77 268.60 76.40 311.75 98.02
  C 318.57 101.44 319.99 108.06 319.99 115.81
  Q 320.01 185.78 320.00 255.75
  C 320.00 264.71 314.84 268.44 306.85 272.44
  Q 244.56 303.61 182.24 334.74
  C 177.36 337.18 171.92 335.78 166.75 333.19
  Q 105.45 302.57 44.17 271.91
  C 35.31 267.47 32.01 263.65 32.01 253.87
  Q 32.00 183.06 32.00 112.25
  Q 32.00 102.36 41.18 97.75
  Q 103.92 66.21 166.73 34.82
  C 171.96 32.20 177.28 30.81 182.24 33.28
  Z
  M 175.91 158.01
  A 0.31 0.31 0.0 0 0 176.19 158.01
  L 267.65 112.29
  A 0.31 0.31 0.0 0 0 267.65 111.73
  L 176.21 65.99
  A 0.31 0.31 0.0 0 0 175.93 65.99
  L 84.43 111.71
  A 0.31 0.31 0.0 0 0 84.43 112.27
  L 175.91 158.01
  Z
  M 64.46 138.12
  A 0.32 0.32 0.0 0 0 64.00 138.41
  L 64.00 245.86
  A 0.32 0.32 0.0 0 0 64.18 246.15
  L 159.54 293.82
  A 0.32 0.32 0.0 0 0 160.00 293.53
  L 160.00 186.09
  A 0.32 0.32 0.0 0 0 159.82 185.80
  L 64.46 138.12
  Z
  M 192.18 185.86
  A 0.32 0.32 0.0 0 0 192.00 186.15
  L 192.00 293.59
  A 0.32 0.32 0.0 0 0 192.46 293.88
  L 287.82 246.19
  A 0.32 0.32 0.0 0 0 288.00 245.90
  L 288.00 138.47
  A 0.32 0.32 0.0 0 0 287.54 138.18
  L 192.18 185.86
  Z"
/>
<path fill="#000000" d="
  M 415.76 119.71
  Q 415.72 118.18 415.44 116.70
  C 409.60 86.16 383.82 64.34 352.75 64.01
  Q 346.22 63.94 324.96 64.01
  Q 317.13 64.04 313.72 62.63
  C 297.98 56.13 302.46 32.36 319.75 32.17
  C 335.02 32.00 352.32 30.96 366.44 33.06
  C 411.19 39.72 444.00 75.94 447.92 121.01
  Q 447.98 121.69 448.50 121.24
  C 451.21 118.93 453.86 115.73 456.70 114.19
  C 470.04 106.96 485.75 119.70 479.58 134.08
  Q 478.16 137.39 473.16 142.39
  Q 459.87 155.67 446.58 168.94
  C 440.71 174.81 434.96 178.14 427.08 174.97
  Q 423.72 173.62 418.65 168.55
  Q 405.35 155.22 392.03 141.91
  Q 387.05 136.93 385.74 133.61
  Q 383.16 127.04 386.70 120.23
  C 391.48 111.05 403.80 109.34 411.46 116.29
  Q 413.42 118.07 415.36 119.89
  Q 415.78 120.28 415.76 119.71
  Z"
/>
<path fill="#ff1f70" d="
  M 320.00 437.48
  L 320.00 330.47
  Q 320.00 329.89 319.48 329.62
  Q 316.96 328.29 311.74 325.73
  C 295.68 317.82 303.45 292.93 321.40 295.75
  C 325.82 296.45 331.08 299.78 335.63 301.91
  A 0.94 0.93 43.9 0 0 336.44 301.90
  L 427.91 256.18
  A 0.19 0.18 -45.4 0 0 427.91 255.85
  Q 395.73 239.68 363.46 223.54
  Q 357.27 220.45 355.29 218.41
  C 345.42 208.22 353.53 190.71 367.66 191.58
  Q 371.24 191.80 377.42 194.89
  Q 424.57 218.46 471.73 242.02
  C 478.64 245.47 479.99 252.28 479.99 260.12
  Q 480.00 329.94 480.01 399.75
  C 480.01 410.20 473.09 413.29 463.63 418.02
  Q 402.94 448.40 342.21 478.72
  C 336.66 481.49 331.14 479.38 325.23 476.43
  Q 264.83 446.24 204.45 416.03
  C 197.18 412.39 191.98 408.35 192.00 400.26
  Q 192.02 384.50 192.17 368.76
  C 192.37 345.95 224.36 347.03 224.05 369.25
  Q 223.90 379.39 224.04 389.53
  Q 224.05 390.10 224.56 390.36
  L 319.48 437.80
  Q 320.00 438.07 320.00 437.48
  Z
  M 352.19 329.81
  A 0.34 0.34 0.0 0 0 352.00 330.11
  L 352.00 437.58
  A 0.34 0.34 0.0 0 0 352.49 437.88
  L 447.81 390.21
  A 0.34 0.34 0.0 0 0 448.00 389.91
  L 448.00 282.48
  A 0.34 0.34 0.0 0 0 447.51 282.18
  L 352.19 329.81
  Z"
/>
<path fill="#ff1f70" d="
  M 96.99 392.22
  C 100.68 420.15 121.92 442.42 149.62 447.06
  C 160.11 448.82 175.02 448.03 187.34 447.98
  Q 194.61 447.95 198.01 449.29
  C 211.21 454.52 211.22 473.31 198.10 478.68
  Q 194.81 480.03 188.23 480.00
  C 175.48 479.96 160.63 480.63 149.61 479.39
  C 103.25 474.16 67.75 437.65 64.08 390.99
  Q 64.00 390.05 63.41 390.78
  C 61.33 393.30 58.97 396.12 56.22 397.71
  C 39.76 407.26 23.51 385.77 36.78 372.53
  Q 51.80 357.54 66.81 342.54
  C 72.55 336.80 78.92 333.77 86.49 337.39
  Q 89.50 338.83 95.48 344.81
  Q 108.16 357.51 120.83 370.20
  Q 125.92 375.29 127.16 378.58
  C 133.15 394.51 112.07 407.60 100.52 395.23
  Q 98.49 393.06 97.48 391.99
  Q 96.88 391.34 96.99 392.22
  Z"
/>
</svg>
