<svg viewBox="0 0 24 23" currentColor="none" xmlns="http://www.w3.org/2000/svg">
  <path d="M7.7373 11.5576C7.34304 11.5576 7.03418 11.2621 7.03418 10.8848H5.62793C5.62793 11.7998 6.21195 12.5643 7.03123 12.8466V14.3535H8.43748V12.8439C9.25737 12.5545 9.84668 11.7722 9.84668 10.8544C9.84668 9.69133 8.90041 8.74506 7.7373 8.74506C7.3496 8.74506 7.03418 8.42964 7.03418 8.04194C7.03418 7.65423 7.3496 7.33881 7.7373 7.33881C8.11845 7.33881 8.44043 7.67472 8.44043 8.07227H9.84668C9.84668 7.14133 9.25737 6.34778 8.43748 6.0542V4.55664H7.03123V6.05448C6.21438 6.34558 5.62793 7.12637 5.62793 8.04189C5.62793 9.205 6.5742 10.1513 7.7373 10.1513C8.12501 10.1513 8.44043 10.4667 8.44043 10.8544C8.44043 11.2421 8.12501 11.5576 7.7373 11.5576Z" currentColor="#FF1F70" />
  <path d="M21.1407 8.72878H15.4688V2.10938L13.3594 0L11.9531 1.40625L10.5469 0L9.14062 1.40625L7.73438 0L6.32812 1.40625L4.92188 0L3.51562 1.40625L2.10938 0L0 2.10938V19.2756C0 21.2141 1.57711 22.7912 3.51562 22.7912H16.875C18.4169 22.7912 19.7344 21.5451 19.7344 19.9787V18.5725H24V11.5412C24 9.97458 22.6823 8.72878 21.1407 8.72878ZM3.51562 21.385C2.35252 21.385 1.40625 20.4388 1.40625 19.2757V2.69189L2.10938 1.98877L3.51562 3.39502L4.92188 1.98877L6.32812 3.39502L7.73438 1.98877L9.14062 3.39502L10.5469 1.98877L11.9531 3.39502L13.3594 1.98877L14.0625 2.69189V19.9788C14.0625 20.4909 14.2007 20.971 14.4409 21.385H3.51562ZM18.3281 11.5413V19.9788C18.3281 20.7411 17.6627 21.385 16.875 21.385C16.0996 21.385 15.4688 20.7542 15.4688 19.9788V10.1346H18.7065C18.4664 10.549 18.3281 11.0292 18.3281 11.5413ZM22.5938 17.1663H19.7344V11.5413C19.7344 10.7659 20.3652 10.135 21.1406 10.135C21.9283 10.135 22.5938 10.779 22.5938 11.5413V17.1663Z" currentColor="#ffffff" />
  <path d="M5.625 18.5728H12.6562V19.979H5.625V18.5728Z" currentColor="#ffffff" />
  <path d="M2.8125 18.5728H4.21875V19.979H2.8125V18.5728Z" currentColor="#ffffff" />
  <path d="M5.625 15.7603H12.6562V17.1665H5.625V15.7603Z" currentColor="#ffffff" />
  <path d="M2.8125 15.7603H4.21875V17.1665H2.8125V15.7603Z" currentColor="#ffffff" />
</svg>