<?xml version="1.0" standalone="no"?>
<!DOCTYPE svg PUBLIC "-//W3C//DTD SVG 20010904//EN"
 "http://www.w3.org/TR/2001/REC-SVG-20010904/DTD/svg10.dtd">
<svg version="1.0" xmlns="http://www.w3.org/2000/svg"
 width="512.000000pt" height="512.000000pt" viewBox="0 0 512.000000 512.000000"
 preserveAspectRatio="xMidYMid meet">
<metadata>
Created by potrace 1.15, written by Peter Selinger 2001-2017
</metadata>
<g transform="translate(0.000000,512.000000) scale(0.100000,-0.100000)"
fill="#000000" stroke="none">
<path d="M240 2560 l0 -1840 1588 1 c1391 0 1580 2 1534 15 -112 30 -263 94
-333 142 -214 144 -310 331 -310 602 0 128 29 342 55 404 62 146 282 160 360
23 31 -55 37 -93 26 -163 -5 -31 -7 -60 -5 -65 9 -13 95 22 110 45 7 11 21 51
29 88 9 37 36 120 61 185 25 65 49 143 52 173 3 35 18 78 40 120 78 146 117
172 266 178 107 5 110 8 80 65 -12 22 -17 55 -17 108 0 63 5 87 28 133 54 110
142 136 348 101 187 -31 341 -107 490 -242 104 -94 164 -171 209 -268 l28 -60
0 1048 1 1047 -282 0 c-267 0 -280 -1 -266 -17 38 -43 49 -85 58 -220 25 -351
32 -431 55 -623 15 -120 25 -259 25 -336 0 -118 -2 -135 -23 -175 -35 -66 -93
-102 -171 -107 -98 -6 -143 22 -220 138 -20 30 -50 74 -67 96 -27 36 -32 54
-40 130 -18 190 -39 620 -39 785 0 200 8 228 78 292 l42 37 -1401 0 c-1329 0
-1400 -1 -1395 -17 3 -10 13 -92 22 -182 24 -237 16 -420 -24 -571 -17 -63
-42 -159 -56 -213 -15 -54 -38 -115 -51 -135 -14 -20 -25 -49 -25 -65 0 -52
-22 -114 -53 -152 -94 -114 -271 -94 -338 37 -17 34 -20 68 -24 344 -5 298 -6
308 -30 358 -27 58 -46 238 -28 271 11 19 15 -3 29 -154 8 -87 19 -75 27 29 4
41 15 100 26 130 12 37 21 97 25 188 l6 132 -250 0 -250 0 0 -1840z m3349
1650 c23 -11 53 -39 68 -62 24 -36 28 -51 28 -118 0 -68 -3 -81 -27 -113 -47
-61 -85 -81 -158 -85 -54 -3 -73 1 -110 21 -64 34 -103 99 -104 175 -1 162
157 257 303 182z"/>
<path d="M4364 2303 c17 -53 115 -403 121 -431 12 -58 27 -20 33 80 7 136 -27
243 -105 328 -37 42 -58 52 -49 23z"/>
<path d="M4836 1493 c-21 -65 -59 -165 -83 -223 -132 -311 -231 -396 -633
-543 -8 -3 159 -6 373 -6 l387 -1 0 445 c0 245 -1 445 -3 445 -1 0 -20 -53
-41 -117z"/>
<path d="M3380 1166 c41 -22 228 -65 328 -75 92 -10 154 -5 243 19 64 17 34
26 -111 34 -69 4 -199 13 -290 21 -199 18 -202 18 -170 1z"/>
</g>
</svg>
