<svg xmlns="http://www.w3.org/2000/svg" version="1.1" viewBox="0.00 0.00 512.00 512.00">
<g stroke-width="2.00" fill="none" stroke-linecap="butt">
<path stroke="#801038" vector-effect="non-scaling-stroke" d="
  M 226.77 224.20
  Q 224.89 215.94 221.06 209.05"
/>
<path stroke="#801038" vector-effect="non-scaling-stroke" d="
  M 226.85 278.88
  Q 226.61 287.26 221.12 294.02"
/>
</g>
<path fill="#000000" d="
  M 226.77 224.20
  Q 224.89 215.94 221.06 209.05
  L 291.16 168.57
  A 0.49 0.49 0.0 0 0 291.36 167.95
  C 264.27 110.56 296.17 42.67 357.03 26.47
  C 419.86 9.76 482.34 55.68 484.78 120.75
  C 486.60 169.27 453.67 212.19 407.00 223.44
  C 366.02 233.32 324.00 216.81 299.80 182.52
  A 0.46 0.45 57.1 0 0 299.21 182.39
  L 226.77 224.20
  Z
  M 301.27 100.09
  C 293.01 127.57 299.11 157.13 317.47 179.39
  A 0.38 0.38 0.0 0 0 318.07 179.38
  Q 331.83 160.65 353.39 151.92
  A 0.33 0.33 0.0 0 0 353.48 151.37
  C 325.18 127.29 334.59 81.50 369.80 71.08
  C 401.59 61.67 432.89 87.33 429.45 120.48
  Q 427.59 138.47 413.17 151.28
  Q 412.67 151.73 413.29 151.98
  Q 434.72 160.72 448.42 179.36
  A 0.37 0.36 -43.7 0 0 449.00 179.37
  C 487.25 133.05 467.57 62.04 410.01 43.26
  C 364.20 28.32 315.13 53.95 301.27 100.09
  Z
  M 413.76 115.64
  A 30.51 30.51 0.0 0 0 383.25 85.13
  A 30.51 30.51 0.0 0 0 352.74 115.64
  A 30.51 30.51 0.0 0 0 383.25 146.15
  A 30.51 30.51 0.0 0 0 413.76 115.64
  Z
  M 329.69 191.30
  C 361.19 216.65 405.25 216.39 436.79 191.38
  A 0.49 0.48 -36.4 0 0 436.89 190.73
  C 411.06 152.99 355.53 152.46 329.61 190.76
  A 0.40 0.40 0.0 0 0 329.69 191.30
  Z"
/>
<path fill="#ff1f70" d="
  M 221.06 209.05
  Q 224.89 215.94 226.77 224.20
  Q 227.38 227.70 228.15 231.67
  Q 232.77 255.57 226.85 278.88
  Q 226.61 287.26 221.12 294.02
  Q 212.19 312.66 197.74 326.01
  C 162.71 358.39 109.99 362.13 70.81 334.93
  C 14.44 295.80 12.31 212.09 67.22 170.70
  C 119.52 131.28 193.15 150.13 221.06 209.05
  Z
  M 193.57 195.67
  C 165.57 163.09 116.77 156.06 81.11 180.36
  C 38.91 209.11 30.39 266.79 63.01 306.35
  A 0.33 0.33 0.0 0 0 63.54 306.33
  C 73.01 293.31 84.25 285.51 98.77 278.80
  Q 99.33 278.55 98.87 278.15
  Q 84.38 265.42 82.55 247.23
  C 78.78 209.78 118.78 183.56 151.64 202.11
  C 179.83 218.03 183.45 257.26 158.43 278.28
  A 0.30 0.29 -54.4 0 0 158.51 278.78
  Q 180.14 287.53 193.95 306.32
  Q 194.19 306.65 194.45 306.33
  C 221.14 274.11 221.13 227.75 193.57 195.67
  Z
  M 159.27 242.53
  A 30.53 30.53 0.0 0 0 128.74 212.00
  A 30.53 30.53 0.0 0 0 98.21 242.53
  A 30.53 30.53 0.0 0 0 128.74 273.06
  A 30.53 30.53 0.0 0 0 159.27 242.53
  Z
  M 182.45 317.65
  C 156.08 279.42 101.32 279.69 75.06 317.66
  A 0.38 0.37 36.4 0 0 75.14 318.17
  C 106.81 343.47 150.70 343.45 182.37 318.17
  Q 182.66 317.94 182.45 317.65
  Z"
/>
<path fill="#000000" d="
  M 226.85 278.88
  L 303.78 323.28
  Q 304.27 323.56 304.62 323.13
  C 357.03 258.79 460.92 281.69 481.63 361.98
  C 500.46 434.99 436.41 501.38 362.76 486.93
  C 318.51 478.24 284.18 438.62 281.81 393.50
  Q 280.22 363.24 294.93 337.21
  Q 295.18 336.77 294.75 336.52
  L 221.12 294.02
  Q 226.61 287.26 226.85 278.88
  Z
  M 302.00 360.51
  C 292.70 388.30 298.47 419.25 317.42 441.96
  Q 317.77 442.37 318.10 441.95
  C 328.13 429.62 338.47 420.66 353.34 414.68
  A 0.37 0.36 54.5 0 0 353.44 414.06
  C 326.53 391.30 333.44 348.43 365.75 335.28
  C 389.26 325.71 416.49 337.07 426.21 360.50
  C 433.94 379.15 428.76 400.85 413.14 414.00
  Q 412.61 414.45 413.25 414.71
  Q 434.62 423.42 448.32 441.96
  A 0.56 0.56 0.0 0 0 449.21 441.98
  C 486.12 396.12 468.64 327.35 412.76 306.97
  C 367.24 290.37 317.35 314.63 302.00 360.51
  Z
  M 413.76 378.39
  A 30.51 30.51 0.0 0 0 383.25 347.88
  A 30.51 30.51 0.0 0 0 352.74 378.39
  A 30.51 30.51 0.0 0 0 383.25 408.90
  A 30.51 30.51 0.0 0 0 413.76 378.39
  Z
  M 329.68 454.02
  C 360.85 479.32 405.61 479.24 436.83 454.06
  A 0.45 0.43 53.6 0 0 436.91 453.47
  C 410.74 415.74 355.95 415.19 329.60 453.46
  Q 329.38 453.77 329.68 454.02
  Z"
/>
</svg>
