<svg xmlns="http://www.w3.org/2000/svg" version="1.1" viewBox="0.00 0.00 512.00 512.00">
<path fill="#000000" d="
  M 499.52 0.00
  L 502.51 0.00
  Q 510.77 1.30 512.00 9.58
  L 512.00 12.60
  Q 510.56 32.27 508.81 46.74
  Q 503.77 88.37 490.21 132.22
  C 478.32 170.68 459.47 207.50 431.27 236.02
  Q 403.15 264.46 375.05 292.59
  A 1.26 1.24 -19.6 0 0 374.69 293.33
  Q 369.61 339.14 364.53 384.75
  C 364.23 387.46 362.59 389.82 360.48 391.93
  Q 318.86 433.58 277.26 475.25
  C 271.17 481.35 261.10 478.48 259.82 469.49
  Q 255.39 438.54 250.90 407.60
  Q 250.83 407.11 250.48 406.76
  L 233.13 389.57
  A 0.37 0.36 -52.6 0 0 232.56 389.65
  Q 220.31 410.04 208.03 430.49
  C 204.80 435.86 197.43 438.31 192.41 433.32
  Q 135.74 377.00 79.20 320.56
  C 74.22 315.60 75.05 307.76 81.15 304.11
  Q 101.65 291.85 122.37 279.45
  A 0.35 0.34 52.2 0 0 122.43 278.91
  L 105.34 261.55
  Q 104.97 261.17 104.44 261.10
  Q 73.48 256.63 42.51 252.17
  Q 36.12 251.25 34.09 245.68
  C 32.19 240.47 34.59 237.00 38.47 233.11
  Q 79.75 191.82 121.04 150.55
  Q 123.52 148.07 127.52 147.61
  Q 173.02 142.38 218.75 137.27
  A 1.28 1.27 18.7 0 0 219.53 136.89
  Q 247.47 108.94 275.59 80.84
  C 303.19 53.27 340.94 34.13 378.25 22.20
  Q 420.12 8.82 462.51 3.52
  Q 478.76 1.49 499.52 0.00
  Z
  M 401.68 36.12
  Q 401.01 36.30 401.50 36.80
  L 475.48 110.77
  A 0.16 0.16 0.0 0 0 475.75 110.70
  Q 487.73 66.71 491.29 21.24
  A 0.50 0.50 0.0 0 0 490.75 20.71
  Q 445.49 24.28 401.68 36.12
  Z
  M 190.42 289.63
  C 184.59 279.24 198.13 269.68 206.64 278.19
  Q 245.13 316.67 283.61 355.15
  A 0.41 0.41 0.0 0 0 284.19 355.15
  Q 350.34 288.95 416.50 222.50
  C 441.16 197.73 457.93 166.04 468.81 133.08
  Q 468.98 132.56 468.59 132.17
  L 379.83 43.41
  A 0.83 0.82 -30.9 0 0 379.00 43.21
  C 346.54 53.72 313.63 71.08 289.35 95.35
  Q 208.95 175.75 128.58 256.12
  A 0.41 0.40 45.5 0 0 128.58 256.69
  L 255.31 383.41
  A 0.40 0.40 0.0 0 0 255.88 383.41
  L 269.39 369.90
  Q 269.72 369.57 269.39 369.24
  Q 231.29 331.16 193.35 293.19
  Q 191.22 291.05 190.42 289.63
  Z
  M 195.82 160.60
  A 0.34 0.34 0.0 0 0 195.55 160.02
  L 133.02 166.96
  A 0.34 0.34 0.0 0 0 132.82 167.05
  L 65.14 234.71
  A 0.34 0.34 0.0 0 0 65.33 235.29
  L 113.97 242.26
  A 0.34 0.34 0.0 0 0 114.26 242.16
  L 195.82 160.60
  Z
  M 137.57 293.95
  A 0.37 0.37 0.0 0 0 137.12 293.90
  L 102.42 314.72
  A 0.37 0.37 0.0 0 0 102.35 315.30
  L 196.70 409.65
  A 0.37 0.37 0.0 0 0 197.28 409.58
  L 218.10 374.88
  A 0.37 0.37 0.0 0 0 218.05 374.43
  L 137.57 293.95
  Z
  M 344.95 379.17
  A 0.33 0.33 0.0 0 0 345.04 378.97
  L 351.99 316.42
  A 0.33 0.33 0.0 0 0 351.42 316.16
  L 269.84 397.74
  A 0.33 0.33 0.0 0 0 269.74 398.02
  L 276.72 446.68
  A 0.33 0.33 0.0 0 0 277.28 446.86
  L 344.95 379.17
  Z"
/>
<path fill="#ff1f70" d="
  M 385.14 186.79
  A 59.93 59.93 0.0 0 1 325.21 246.72
  A 59.93 59.93 0.0 0 1 265.28 186.79
  A 59.93 59.93 0.0 0 1 325.21 126.86
  A 59.93 59.93 0.0 0 1 385.14 186.79
  Z
  M 365.11 186.78
  A 39.89 39.89 0.0 0 0 325.22 146.89
  A 39.89 39.89 0.0 0 0 285.33 186.78
  A 39.89 39.89 0.0 0 0 325.22 226.67
  A 39.89 39.89 0.0 0 0 365.11 186.78
  Z"
/>
<circle fill="#ff1f70" cx="170.73" cy="256.42" r="9.83"/>
<rect fill="#ff1f70" x="-9.97" y="-53.47" transform="translate(55.02,400.43) rotate(44.9)" width="19.94" height="106.94" rx="9.83"/>
<path fill="#ff1f70" d="
  M 10.62 512.00
  L 9.27 512.00
  Q 1.36 510.53 0.00 502.63
  L 0.00 501.25
  Q 0.79 497.11 3.08 494.82
  Q 54.67 443.21 106.29 391.61
  C 111.56 386.35 119.81 386.81 123.14 393.62
  C 125.80 399.08 122.80 403.29 118.65 407.45
  Q 68.05 458.08 17.42 508.67
  Q 14.88 511.21 10.62 512.00
  Z"
/>
<rect fill="#ff1f70" x="-9.96" y="-53.48" transform="translate(111.58,456.98) rotate(44.9)" width="19.92" height="106.96" rx="9.82"/>
</svg>
